  0
SECTION
  2
HEADER
  9
$ACADVER
  1
AC1032
  9
$ACADMAINTVER
 90
4
  9
$DWGCODEPAGE
  3
ANSI_1252
  9
$LASTSAVEDBY
  1
ezdxf
  9
$REQUIREDVERSIONS
160
0
  9
$INSBASE
 10
0.0
 20
0.0
 30
0.0
  9
$EXTMIN
 10
1e+20
 20
1e+20
 30
1e+20
  9
$EXTMAX
 10
-1e+20
 20
-1e+20
 30
-1e+20
  9
$LIMMIN
 10
0.0
 20
0.0
  9
$LIMMAX
 10
420.0
 20
297.0
  9
$ORTHOMODE
 70
0
  9
$REGENMODE
 70
1
  9
$FILLMODE
 70
1
  9
$QTEXTMODE
 70
0
  9
$MIRRTEXT
 70
1
  9
$LTSCALE
 40
250.0
  9
$ATTMODE
 70
1
  9
$TEXTSIZE
 40
2.5
  9
$TRACEWID
 40
1.0
  9
$TEXTSTYLE
  7
OpenSans
  9
$CLAYER
  8
0
  9
$CELTYPE
  6
ByLayer
  9
$CECOLOR
 62
256
  9
$CELTSCALE
 40
1.0
  9
$DISPSILH
 70
0
  9
$DIMSCALE
 40
1.0
  9
$DIMASZ
 40
0.175
  9
$DIMEXO
 40
0.125
  9
$DIMDLI
 40
3.75
  9
$DIMRND
 40
0.0
  9
$DIMDLE
 40
0.0
  9
$DIMEXE
 40
0.375
  9
$DIMTP
 40
0.0
  9
$DIMTM
 40
0.0
  9
$DIMTXT
 40
0.25
  9
$DIMCEN
 40
2.5
  9
$DIMTSZ
 40
0.0
  9
$DIMTOL
 70
0
  9
$DIMLIM
 70
0
  9
$DIMTIH
 70
0
  9
$DIMTOH
 70
0
  9
$DIMSE1
 70
0
  9
$DIMSE2
 70
0
  9
$DIMTAD
 70
1
  9
$DIMZIN
 70
12
  9
$DIMBLK
  1
ARCHTICK
  9
$DIMASO
 70
1
  9
$DIMSHO
 70
1
  9
$DIMPOST
  1

  9
$DIMAPOST
  1

  9
$DIMALT
 70
0
  9
$DIMALTD
 70
3
  9
$DIMALTF
 40
0.03937007874
  9
$DIMLFAC
 40
100.0
  9
$DIMTOFL
 70
1
  9
$DIMTVP
 40
0.0
  9
$DIMTIX
 70
0
  9
$DIMSOXD
 70
0
  9
$DIMSAH
 70
0
  9
$DIMBLK1
  1

  9
$DIMBLK2
  1

  9
$DIMSTYLE
  2
EZDXF
  9
$DIMCLRD
 70
0
  9
$DIMCLRE
 70
0
  9
$DIMCLRT
 70
0
  9
$DIMTFAC
 40
0.5
  9
$DIMGAP
 40
0.1
  9
$DIMJUST
 70
0
  9
$DIMSD1
 70
0
  9
$DIMSD2
 70
0
  9
$DIMTOLJ
 70
0
  9
$DIMTZIN
 70
8
  9
$DIMALTZ
 70
0
  9
$DIMALTTZ
 70
0
  9
$DIMUPT
 70
1
  9
$DIMDEC
 70
2
  9
$DIMTDEC
 70
2
  9
$DIMALTU
 70
2
  9
$DIMALTTD
 70
3
  9
$DIMTXSTY
  7
OpenSansCondensed-Light
  9
$DIMAUNIT
 70
0
  9
$DIMADEC
 70
2
  9
$DIMALTRND
 40
0.0
  9
$DIMAZIN
 70
3
  9
$DIMDSEP
 70
46
  9
$DIMATFIT
 70
3
  9
$DIMFRAC
 70
0
  9
$DIMLDRBLK
  1

  9
$DIMLUNIT
 70
2
  9
$DIMLWD
 70
-2
  9
$DIMLWE
 70
-2
  9
$DIMTMOVE
 70
2
  9
$DIMFXL
 40
1.0
  9
$DIMFXLON
 70
0
  9
$DIMJOGANG
 40
0.785398163397
  9
$DIMTFILL
 70
0
  9
$DIMTFILLCLR
 70
0
  9
$DIMARCSYM
 70
0
  9
$DIMLTYPE
  6

  9
$DIMLTEX1
  6

  9
$DIMLTEX2
  6

  9
$DIMTXTDIRECTION
 70
0
  9
$LUNITS
 70
2
  9
$LUPREC
 70
4
  9
$SKETCHINC
 40
1.0
  9
$FILLETRAD
 40
10.0
  9
$AUNITS
 70
0
  9
$AUPREC
 70
2
  9
$MENU
  1
.
  9
$ELEVATION
 40
0.0
  9
$PELEVATION
 40
0.0
  9
$THICKNESS
 40
0.0
  9
$LIMCHECK
 70
0
  9
$CHAMFERA
 40
0.0
  9
$CHAMFERB
 40
0.0
  9
$CHAMFERC
 40
0.0
  9
$CHAMFERD
 40
0.0
  9
$SKPOLY
 70
0
  9
$TDCREATE
 40
2461318.628113426
  9
$TDUCREATE
 40
2458532.153996898
  9
$TDUPDATE
 40
2461318.628252315
  9
$TDUUPDATE
 40
2458532.1544311
  9
$TDINDWG
 40
0.0
  9
$TDUSRTIMER
 40
0.0
  9
$USRTIMER
 70
1
  9
$ANGBASE
 50
0.0
  9
$ANGDIR
 70
0
  9
$PDMODE
 70
0
  9
$PDSIZE
 40
0.0
  9
$PLINEWID
 40
0.0
  9
$SPLFRAME
 70
0
  9
$SPLINETYPE
 70
6
  9
$SPLINESEGS
 70
8
  9
$HANDSEED
  5
1DC
  9
$SURFTAB1
 70
6
  9
$SURFTAB2
 70
6
  9
$SURFTYPE
 70
6
  9
$SURFU
 70
6
  9
$SURFV
 70
6
  9
$UCSBASE
  2

  9
$UCSNAME
  2

  9
$UCSORG
 10
0.0
 20
0.0
 30
0.0
  9
$UCSXDIR
 10
1.0
 20
0.0
 30
0.0
  9
$UCSYDIR
 10
0.0
 20
1.0
 30
0.0
  9
$UCSORTHOREF
  2

  9
$UCSORTHOVIEW
 70
0
  9
$UCSORGTOP
 10
0.0
 20
0.0
 30
0.0
  9
$UCSORGBOTTOM
 10
0.0
 20
0.0
 30
0.0
  9
$UCSORGLEFT
 10
0.0
 20
0.0
 30
0.0
  9
$UCSORGRIGHT
 10
0.0
 20
0.0
 30
0.0
  9
$UCSORGFRONT
 10
0.0
 20
0.0
 30
0.0
  9
$UCSORGBACK
 10
0.0
 20
0.0
 30
0.0
  9
$PUCSBASE
  2

  9
$PUCSNAME
  2

  9
$PUCSORG
 10
0.0
 20
0.0
 30
0.0
  9
$PUCSXDIR
 10
1.0
 20
0.0
 30
0.0
  9
$PUCSYDIR
 10
0.0
 20
1.0
 30
0.0
  9
$PUCSORTHOREF
  2

  9
$PUCSORTHOVIEW
 70
0
  9
$PUCSORGTOP
 10
0.0
 20
0.0
 30
0.0
  9
$PUCSORGBOTTOM
 10
0.0
 20
0.0
 30
0.0
  9
$PUCSORGLEFT
 10
0.0
 20
0.0
 30
0.0
  9
$PUCSORGRIGHT
 10
0.0
 20
0.0
 30
0.0
  9
$PUCSORGFRONT
 10
0.0
 20
0.0
 30
0.0
  9
$PUCSORGBACK
 10
0.0
 20
0.0
 30
0.0
  9
$USERI1
 70
0
  9
$USERI2
 70
0
  9
$USERI3
 70
0
  9
$USERI4
 70
0
  9
$USERI5
 70
0
  9
$USERR1
 40
0.0
  9
$USERR2
 40
0.0
  9
$USERR3
 40
0.0
  9
$USERR4
 40
0.0
  9
$USERR5
 40
0.0
  9
$WORLDVIEW
 70
1
  9
$SHADEDGE
 70
3
  9
$SHADEDIF
 70
70
  9
$TILEMODE
 70
1
  9
$MAXACTVP
 70
64
  9
$PINSBASE
 10
0.0
 20
0.0
 30
0.0
  9
$PLIMCHECK
 70
0
  9
$PEXTMIN
 10
1e+20
 20
1e+20
 30
1e+20
  9
$PEXTMAX
 10
-1e+20
 20
-1e+20
 30
-1e+20
  9
$PLIMMIN
 10
0.0
 20
0.0
  9
$PLIMMAX
 10
420.0
 20
297.0
  9
$UNITMODE
 70
0
  9
$VISRETAIN
 70
1
  9
$PLINEGEN
 70
0
  9
$PSLTSCALE
 70
0
  9
$TREEDEPTH
 70
3020
  9
$CMLSTYLE
  2
Standard
  9
$CMLJUST
 70
0
  9
$CMLSCALE
 40
20.0
  9
$PROXYGRAPHICS
 70
1
  9
$MEASUREMENT
 70
1
  9
$CELWEIGHT
370
-1
  9
$ENDCAPS
280
0
  9
$JOINSTYLE
280
0
  9
$LWDISPLAY
290
0
  9
$INSUNITS
 70
4
  9
$HYPERLINKBASE
  1

  9
$STYLESHEET
  1

  9
$XEDIT
290
1
  9
$CEPSNTYPE
380
0
  9
$PSTYLEMODE
290
1
  9
$FINGERPRINTGUID
  2
{1CA2F970-CFD4-4C0F-A271-5D5B6B881702}
  9
$VERSIONGUID
  2
{AB22C2CB-DC8B-4659-851C-8DEA70A7C332}
  9
$EXTNAMES
290
1
  9
$PSVPSCALE
 40
0.0
  9
$OLESTARTUP
290
0
  9
$SORTENTS
280
127
  9
$INDEXCTL
280
0
  9
$HIDETEXT
280
1
  9
$XCLIPFRAME
280
1
  9
$HALOGAP
280
0
  9
$OBSCOLOR
 70
257
  9
$OBSLTYPE
280
0
  9
$INTERSECTIONDISPLAY
280
0
  9
$INTERSECTIONCOLOR
 70
257
  9
$DIMASSOC
280
2
  9
$PROJECTNAME
  1

  9
$CAMERADISPLAY
290
0
  9
$LENSLENGTH
 40
50.0
  9
$CAMERAHEIGHT
 40
0.0
  9
$STEPSPERSEC
 40
24.0
  9
$STEPSIZE
 40
100.0
  9
$3DDWFPREC
 40
2.0
  9
$PSOLWIDTH
 40
0.005
  9
$PSOLHEIGHT
 40
0.08
  9
$LOFTANG1
 40
1.570796326795
  9
$LOFTANG2
 40
1.570796326795
  9
$LOFTMAG1
 40
0.0
  9
$LOFTMAG2
 40
0.0
  9
$LOFTPARAM
 70
7
  9
$LOFTNORMALS
280
1
  9
$LATITUDE
 40
37.795
  9
$LONGITUDE
 40
-122.394
  9
$NORTHDIRECTION
 40
0.0
  9
$TIMEZONE
 70
-8000
  9
$LIGHTGLYPHDISPLAY
280
1
  9
$TILEMODELIGHTSYNCH
280
1
  9
$CMATERIAL
347
20
  9
$SOLIDHIST
280
0
  9
$SHOWHIST
280
1
  9
$DWFFRAME
280
2
  9
$DGNFRAME
280
2
  9
$REALWORLDSCALE
290
1
  9
$INTERFERECOLOR
 62
256
  9
$CSHADOW
280
0
  9
$SHADOWPLANELOCATION
 40
0.0
  0
ENDSEC
  0
SECTION
  2
CLASSES
  0
CLASS
  1
ACDBDICTIONARYWDFLT
  2
AcDbDictionaryWithDefault
  3
ObjectDBX Classes
 90
0
 91
0
280
0
281
0
  0
CLASS
  1
SUN
  2
AcDbSun
  3
SCENEOE
 90
1153
 91
0
280
0
281
0
  0
CLASS
  1
VISUALSTYLE
  2
AcDbVisualStyle
  3
ObjectDBX Classes
 90
4095
 91
0
280
0
281
0
  0
CLASS
  1
MATERIAL
  2
AcDbMaterial
  3
ObjectDBX Classes
 90
1153
 91
0
280
0
281
0
  0
CLASS
  1
SCALE
  2
AcDbScale
  3
ObjectDBX Classes
 90
1153
 91
0
280
0
281
0
  0
CLASS
  1
TABLESTYLE
  2
AcDbTableStyle
  3
ObjectDBX Classes
 90
4095
 91
0
280
0
281
0
  0
CLASS
  1
MLEADERSTYLE
  2
AcDbMLeaderStyle
  3
ACDB_MLEADERSTYLE_CLASS
 90
4095
 91
0
280
0
281
0
  0
CLASS
  1
DICTIONARYVAR
  2
AcDbDictionaryVar
  3
ObjectDBX Classes
 90
0
 91
0
280
0
281
0
  0
CLASS
  1
CELLSTYLEMAP
  2
AcDbCellStyleMap
  3
ObjectDBX Classes
 90
1152
 91
0
280
0
281
0
  0
CLASS
  1
MENTALRAYRENDERSETTINGS
  2
AcDbMentalRayRenderSettings
  3
SCENEOE
 90
1024
 91
0
280
0
281
0
  0
CLASS
  1
ACDBDETAILVIEWSTYLE
  2
AcDbDetailViewStyle
  3
ObjectDBX Classes
 90
1025
 91
0
280
0
281
0
  0
CLASS
  1
ACDBSECTIONVIEWSTYLE
  2
AcDbSectionViewStyle
  3
ObjectDBX Classes
 90
1025
 91
0
280
0
281
0
  0
CLASS
  1
RASTERVARIABLES
  2
AcDbRasterVariables
  3
ISM
 90
0
 91
0
280
0
281
0
  0
CLASS
  1
ACDBPLACEHOLDER
  2
AcDbPlaceHolder
  3
ObjectDBX Classes
 90
0
 91
0
280
0
281
0
  0
CLASS
  1
LAYOUT
  2
AcDbLayout
  3
ObjectDBX Classes
 90
0
 91
0
280
0
281
0
  0
ENDSEC
  0
SECTION
  2
TABLES
  0
TABLE
  2
VPORT
  5
8
330
0
100
AcDbSymbolTable
 70
1
  0
VPORT
  5
23
330
8
100
AcDbSymbolTableRecord
100
AcDbViewportTableRecord
  2
*Active
 70
0
 10
0.0
 20
0.0
 11
1.0
 21
1.0
 12
0.0
 22
0.0
 13
0.0
 23
0.0
 14
0.5
 24
0.5
 15
0.5
 25
0.5
 16
0.0
 26
0.0
 36
1.0
 17
0.0
 27
0.0
 37
0.0
 40
1000.0
 41
1.34
 42
50.0
 43
0.0
 44
0.0
 50
0.0
 51
0.0
 71
0
 72
1000
 73
1
 74
3
 75
0
 76
0
 77
0
 78
0
281
0
 65
0
146
0.0
  0
ENDTAB
  0
TABLE
  2
LTYPE
  5
2
330
0
100
AcDbSymbolTable
 70
21
  0
LTYPE
  5
24
330
2
100
AcDbSymbolTableRecord
100
AcDbLinetypeTableRecord
  2
ByBlock
 70
0
  3

 72
65
 73
0
 40
0.0
  0
LTYPE
  5
25
330
2
100
AcDbSymbolTableRecord
100
AcDbLinetypeTableRecord
  2
ByLayer
 70
0
  3

 72
65
 73
0
 40
0.0
  0
LTYPE
  5
26
330
2
100
AcDbSymbolTableRecord
100
AcDbLinetypeTableRecord
  2
Continuous
 70
0
  3

 72
65
 73
0
 40
0.0
  0
LTYPE
  5
2F
330
2
100
AcDbSymbolTableRecord
100
AcDbLinetypeTableRecord
  2
CENTER
 70
0
  3
Center ____ _ ____ _ ____ _ ____ _ ____ _ ____
 72
65
 73
4
 40
5.08
 49
3.175
 74
0
 49
-0.635
 74
0
 49
0.635
 74
0
 49
-0.635
 74
0
  0
LTYPE
  5
30
330
2
100
AcDbSymbolTableRecord
100
AcDbLinetypeTableRecord
  2
CENTERX2
 70
0
  3
Center (2x) ________  __  ________  __  ________
 72
65
 73
4
 40
8.89
 49
6.35
 74
0
 49
-0.635
 74
0
 49
1.27
 74
0
 49
-0.635
 74
0
  0
LTYPE
  5
31
330
2
100
AcDbSymbolTableRecord
100
AcDbLinetypeTableRecord
  2
CENTER2
 70
0
  3
Center (.5x) ____ _ ____ _ ____ _ ____ _ ____
 72
65
 73
4
 40
2.54
 49
1.587
 74
0
 49
-0.318
 74
0
 49
0.318
 74
0
 49
-0.318
 74
0
  0
LTYPE
  5
32
330
2
100
AcDbSymbolTableRecord
100
AcDbLinetypeTableRecord
  2
DASHED
 70
0
  3
Dashed __ __ __ __ __ __ __ __ __ __ __ __ __ _
 72
65
 73
2
 40
1.524
 49
1.27
 74
0
 49
-0.254
 74
0
  0
LTYPE
  5
33
330
2
100
AcDbSymbolTableRecord
100
AcDbLinetypeTableRecord
  2
DASHEDX2
 70
0
  3
Dashed (2x) ____  ____  ____  ____  ____  ____
 72
65
 73
2
 40
3.048
 49
2.54
 74
0
 49
-0.508
 74
0
  0
LTYPE
  5
34
330
2
100
AcDbSymbolTableRecord
100
AcDbLinetypeTableRecord
  2
DASHED2
 70
0
  3
Dashed (.5x) _ _ _ _ _ _ _ _ _ _ _ _ _ _
 72
65
 73
2
 40
0.762
 49
0.635
 74
0
 49
-0.127
 74
0
  0
LTYPE
  5
35
330
2
100
AcDbSymbolTableRecord
100
AcDbLinetypeTableRecord
  2
PHANTOM
 70
0
  3
Phantom ______  __  __  ______  __  __  ______
 72
65
 73
6
 40
6.35
 49
3.175
 74
0
 49
-0.635
 74
0
 49
0.635
 74
0
 49
-0.635
 74
0
 49
0.635
 74
0
 49
-0.635
 74
0
  0
LTYPE
  5
36
330
2
100
AcDbSymbolTableRecord
100
AcDbLinetypeTableRecord
  2
PHANTOMX2
 70
0
  3
Phantom (2x)____________    ____    ____    ____________
 72
65
 73
6
 40
10.795
 49
6.35
 74
0
 49
-0.635
 74
0
 49
1.27
 74
0
 49
-0.635
 74
0
 49
1.27
 74
0
 49
-0.635
 74
0
  0
LTYPE
  5
37
330
2
100
AcDbSymbolTableRecord
100
AcDbLinetypeTableRecord
  2
PHANTOM2
 70
0
  3
Phantom (.5x) ___ _ _ ___ _ _ ___ _ _ ___ _ _ ___
 72
65
 73
6
 40
3.175
 49
1.587
 74
0
 49
-0.318
 74
0
 49
0.318
 74
0
 49
-0.318
 74
0
 49
0.318
 74
0
 49
-0.318
 74
0
  0
LTYPE
  5
38
330
2
100
AcDbSymbolTableRecord
100
AcDbLinetypeTableRecord
  2
DASHDOT
 70
0
  3
Dash dot __ . __ . __ . __ . __ . __ . __ . __
 72
65
 73
4
 40
3.556
 49
2.54
 74
0
 49
-0.508
 74
0
 49
0.0
 74
0
 49
-0.508
 74
0
  0
LTYPE
  5
39
330
2
100
AcDbSymbolTableRecord
100
AcDbLinetypeTableRecord
  2
DASHDOTX2
 70
0
  3
Dash dot (2x) ____  .  ____  .  ____  .  ____
 72
65
 73
4
 40
6.096
 49
5.08
 74
0
 49
-0.508
 74
0
 49
0.0
 74
0
 49
-0.508
 74
0
  0
LTYPE
  5
3A
330
2
100
AcDbSymbolTableRecord
100
AcDbLinetypeTableRecord
  2
DASHDOT2
 70
0
  3
Dash dot (.5x) _ . _ . _ . _ . _ . _ . _ . _
 72
65
 73
4
 40
1.778
 49
1.27
 74
0
 49
-0.254
 74
0
 49
0.0
 74
0
 49
-0.254
 74
0
  0
LTYPE
  5
3B
330
2
100
AcDbSymbolTableRecord
100
AcDbLinetypeTableRecord
  2
DOT
 70
0
  3
Dot .  .  .  .  .  .  .  .  .  .  .  .  .  .  .  .
 72
65
 73
2
 40
0.508
 49
0.0
 74
0
 49
-0.508
 74
0
  0
LTYPE
  5
3C
330
2
100
AcDbSymbolTableRecord
100
AcDbLinetypeTableRecord
  2
DOTX2
 70
0
  3
Dot (2x) .    .    .    .    .    .    .    . 
 72
65
 73
2
 40
1.016
 49
0.0
 74
0
 49
-1.016
 74
0
  0
LTYPE
  5
3D
330
2
100
AcDbSymbolTableRecord
100
AcDbLinetypeTableRecord
  2
DOT2
 70
0
  3
Dot (.5) . . . . . . . . . . . . . . . . . . . 
 72
65
 73
2
 40
0.254
 49
0.0
 74
0
 49
-0.254
 74
0
  0
LTYPE
  5
3E
330
2
100
AcDbSymbolTableRecord
100
AcDbLinetypeTableRecord
  2
DIVIDE
 70
0
  3
Divide __ . . __ . . __ . . __ . . __ . . __
 72
65
 73
6
 40
4.064
 49
2.54
 74
0
 49
-0.508
 74
0
 49
0.0
 74
0
 49
-0.508
 74
0
 49
0.0
 74
0
 49
-0.508
 74
0
  0
LTYPE
  5
3F
330
2
100
AcDbSymbolTableRecord
100
AcDbLinetypeTableRecord
  2
DIVIDEX2
 70
0
  3
Divide (2x) ____  . .  ____  . .  ____  . .  ____
 72
65
 73
6
 40
6.604
 49
5.08
 74
0
 49
-0.508
 74
0
 49
0.0
 74
0
 49
-0.508
 74
0
 49
0.0
 74
0
 49
-0.508
 74
0
  0
LTYPE
  5
40
330
2
100
AcDbSymbolTableRecord
100
AcDbLinetypeTableRecord
  2
DIVIDE2
 70
0
  3
Divide(.5x) _ . _ . _ . _ . _ . _ . _ . _
 72
65
 73
6
 40
2.032
 49
1.27
 74
0
 49
-0.254
 74
0
 49
0.0
 74
0
 49
-0.254
 74
0
 49
0.0
 74
0
 49
-0.254
 74
0
  0
ENDTAB
  0
TABLE
  2
LAYER
  5
1
330
0
100
AcDbSymbolTable
 70
42
  0
LAYER
  5
27
330
1
100
AcDbSymbolTableRecord
100
AcDbLayerTableRecord
  2
0
 70
0
 62
7
  6
Continuous
370
-3
390
13
347
21
  0
LAYER
  5
28
330
1
100
AcDbSymbolTableRecord
100
AcDbLayerTableRecord
  2
Defpoints
 70
0
 62
7
  6
Continuous
290
0
370
-3
390
13
347
21
  0
LAYER
  5
8B
330
1
100
AcDbSymbolTableRecord
100
AcDbLayerTableRecord
  2
G-FRAME
 70
0
 62
7
  6
Continuous
370
70
390
13
347
21
1001
AcAecLayerStandard
1000

1000
図枠
  0
LAYER
  5
8D
330
1
100
AcDbSymbolTableRecord
100
AcDbLayerTableRecord
  2
G-TITLE
 70
0
 62
7
  6
Continuous
370
25
390
13
347
21
1001
AcAecLayerStandard
1000

1000
表題欄
  0
LAYER
  5
8E
330
1
100
AcDbSymbolTableRecord
100
AcDbLayerTableRecord
  2
G-TABLE
 70
0
 62
7
  6
Continuous
370
18
390
13
347
21
1001
AcAecLayerStandard
1000

1000
表
  0
LAYER
  5
8F
330
1
100
AcDbSymbolTableRecord
100
AcDbLayerTableRecord
  2
A-GRID
 70
0
 62
1
  6
CENTER
370
13
390
13
347
21
1001
AcAecLayerStandard
1000

1000
通り芯（一点鎖線・細線）
  0
LAYER
  5
90
330
1
100
AcDbSymbolTableRecord
100
AcDbLayerTableRecord
  2
A-GRID-SYMB
 70
0
 62
7
  6
Continuous
370
18
390
13
347
21
1001
AcAecLayerStandard
1000

1000
通り芯符号
  0
LAYER
  5
91
330
1
100
AcDbSymbolTableRecord
100
AcDbLayerTableRecord
  2
A-CUT
 70
0
 62
7
  6
Continuous
370
50
390
13
347
21
1001
AcAecLayerStandard
1000

1000
切断面 RC（太線）
  0
LAYER
  5
92
330
1
100
AcDbSymbolTableRecord
100
AcDbLayerTableRecord
  2
A-CUT-HATCH
 70
0
 62
8
  6
Continuous
370
9
390
13
347
21
1001
AcAecLayerStandard
1000

1000
切断面ハッチング
  0
LAYER
  5
93
330
1
100
AcDbSymbolTableRecord
100
AcDbLayerTableRecord
  2
A-CUT-LGS
 70
0
 62
7
  6
Continuous
370
35
390
13
347
21
1001
AcAecLayerStandard
1000

1000
切断面 軽量間仕切（中線）
  0
LAYER
  5
94
330
1
100
AcDbSymbolTableRecord
100
AcDbLayerTableRecord
  2
A-CUT-INS
 70
0
 62
9
  6
Continuous
370
9
390
13
347
21
1001
AcAecLayerStandard
1000

1000
切断面 断熱材ハッチング
  0
LAYER
  5
95
330
1
100
AcDbSymbolTableRecord
100
AcDbLayerTableRecord
  2
A-FENCE
 70
0
 62
7
  6
Continuous
370
35
390
13
347
21
1001
AcAecLayerStandard
1000

1000
RC塀
  0
LAYER
  5
96
330
1
100
AcDbSymbolTableRecord
100
AcDbLayerTableRecord
  2
A-PAVE
 70
0
 62
3
  6
Continuous
370
13
390
13
347
21
1001
AcAecLayerStandard
1000

1000
舗装（透水性 Dotcon+）
  0
LAYER
  5
97
330
1
100
AcDbSymbolTableRecord
100
AcDbLayerTableRecord
  2
A-DRAIN
 70
0
 62
5
  6
DASHED
370
25
390
13
347
21
1001
AcAecLayerStandard
1000

1000
雨水排水・浸透施設
  0
LAYER
  5
98
330
1
100
AcDbSymbolTableRecord
100
AcDbLayerTableRecord
  2
A-NEIGH
 70
0
 62
8
  6
Continuous
370
13
390
13
347
21
1001
AcAecLayerStandard
1000

1000
隣接建物（基盤地図情報）
  0
LAYER
  5
99
330
1
100
AcDbSymbolTableRecord
100
AcDbLayerTableRecord
  2
A-WATER
 70
0
 62
5
  6
Continuous
370
18
390
13
347
21
1001
AcAecLayerStandard
1000

1000
水路
  0
LAYER
  5
9A
330
1
100
AcDbSymbolTableRecord
100
AcDbLayerTableRecord
  2
A-TERRAIN
 70
0
 62
30
  6
Continuous
370
25
390
13
347
21
1001
AcAecLayerStandard
1000

1000
地形断面（DEM）
  0
LAYER
  5
9B
330
1
100
AcDbSymbolTableRecord
100
AcDbLayerTableRecord
  2
A-FLOOD
 70
0
 62
5
  6
DASHDOT
370
25
390
13
347
21
1001
AcAecLayerStandard
1000

1000
想定浸水深
  0
LAYER
  5
9C
330
1
100
AcDbSymbolTableRecord
100
AcDbLayerTableRecord
  2
A-FLOW
 70
0
 62
6
  6
DASHED
370
35
390
13
347
21
1001
AcAecLayerStandard
1000

1000
動線（回遊・家事・搬入）
  0
LAYER
  5
9D
330
1
100
AcDbSymbolTableRecord
100
AcDbLayerTableRecord
  2
A-VIS
 70
0
 62
7
  6
Continuous
370
18
390
13
347
21
1001
AcAecLayerStandard
1000

1000
見え掛り（細線）
  0
LAYER
  5
9E
330
1
100
AcDbSymbolTableRecord
100
AcDbLayerTableRecord
  2
A-HIDDEN
 70
0
 62
8
  6
HIDDEN
370
13
390
13
347
21
1001
AcAecLayerStandard
1000

1000
隠れ線（破線）
  0
LAYER
  5
9F
330
1
100
AcDbSymbolTableRecord
100
AcDbLayerTableRecord
  2
A-GLAZ
 70
0
 62
5
  6
Continuous
370
18
390
13
347
21
1001
AcAecLayerStandard
1000

1000
建具・ガラス
  0
LAYER
  5
A0
330
1
100
AcDbSymbolTableRecord
100
AcDbLayerTableRecord
  2
A-DOOR
 70
0
 62
5
  6
Continuous
370
18
390
13
347
21
1001
AcAecLayerStandard
1000

1000
扉・開き勝手
  0
LAYER
  5
A1
330
1
100
AcDbSymbolTableRecord
100
AcDbLayerTableRecord
  2
A-STRS
 70
0
 62
7
  6
Continuous
370
18
390
13
347
21
1001
AcAecLayerStandard
1000

1000
階段
  0
LAYER
  5
A2
330
1
100
AcDbSymbolTableRecord
100
AcDbLayerTableRecord
  2
A-ROOM
 70
0
 62
7
  6
Continuous
370
18
390
13
347
21
1001
AcAecLayerStandard
1000

1000
室名・面積
  0
LAYER
  5
A3
330
1
100
AcDbSymbolTableRecord
100
AcDbLayerTableRecord
  2
A-DIMS
 70
0
 62
7
  6
Continuous
370
13
390
13
347
21
1001
AcAecLayerStandard
1000

1000
寸法
  0
LAYER
  5
A4
330
1
100
AcDbSymbolTableRecord
100
AcDbLayerTableRecord
  2
A-TEXT
 70
0
 62
7
  6
Continuous
370
18
390
13
347
21
1001
AcAecLayerStandard
1000

1000
注記
  0
LAYER
  5
A5
330
1
100
AcDbSymbolTableRecord
100
AcDbLayerTableRecord
  2
A-SYMB
 70
0
 62
7
  6
Continuous
370
18
390
13
347
21
1001
AcAecLayerStandard
1000

1000
記号（方位・切断・レベル）
  0
LAYER
  5
A6
330
1
100
AcDbSymbolTableRecord
100
AcDbLayerTableRecord
  2
A-SITE
 70
0
 62
3
  6
PHANTOM
370
25
390
13
347
21
1001
AcAecLayerStandard
1000

1000
敷地境界線（二点鎖線）
  0
LAYER
  5
A7
330
1
100
AcDbSymbolTableRecord
100
AcDbLayerTableRecord
  2
A-ROAD
 70
0
 62
8
  6
Continuous
370
18
390
13
347
21
1001
AcAecLayerStandard
1000

1000
道路
  0
LAYER
  5
A8
330
1
100
AcDbSymbolTableRecord
100
AcDbLayerTableRecord
  2
A-GROUND
 70
0
 62
7
  6
Continuous
370
50
390
13
347
21
1001
AcAecLayerStandard
1000

1000
地盤面 GL
  0
LAYER
  5
A9
330
1
100
AcDbSymbolTableRecord
100
AcDbLayerTableRecord
  2
A-LEGAL
 70
0
 62
1
  6
DASHED
370
25
390
13
347
21
1001
AcAecLayerStandard
1000

1000
法規制ライン（斜線・延焼ライン）
  0
LAYER
  5
AA
330
1
100
AcDbSymbolTableRecord
100
AcDbLayerTableRecord
  2
A-LEGAL-TEXT
 70
0
 62
1
  6
Continuous
370
18
390
13
347
21
1001
AcAecLayerStandard
1000

1000
法規注記
  0
LAYER
  5
AB
330
1
100
AcDbSymbolTableRecord
100
AcDbLayerTableRecord
  2
A-FIRE
 70
0
 62
6
  6
DASHDOT
370
25
390
13
347
21
1001
AcAecLayerStandard
1000

1000
延焼のおそれのある部分
  0
LAYER
  5
AC
330
1
100
AcDbSymbolTableRecord
100
AcDbLayerTableRecord
  2
A-ALT
 70
0
 62
1
  6
Continuous
370
35
390
13
347
21
1001
AcAecLayerStandard
1000

1000
代替進入口
  0
LAYER
  5
AD
330
1
100
AcDbSymbolTableRecord
100
AcDbLayerTableRecord
  2
S-COLS
 70
0
 62
7
  6
Continuous
370
50
390
13
347
21
1001
AcAecLayerStandard
1000

1000
構造 柱
  0
LAYER
  5
AE
330
1
100
AcDbSymbolTableRecord
100
AcDbLayerTableRecord
  2
S-BEAM
 70
0
 62
7
  6
HIDDEN
370
25
390
13
347
21
1001
AcAecLayerStandard
1000

1000
構造 梁（伏図・隠れ）
  0
LAYER
  5
AF
330
1
100
AcDbSymbolTableRecord
100
AcDbLayerTableRecord
  2
S-BEAM-V
 70
0
 62
7
  6
Continuous
370
35
390
13
347
21
1001
AcAecLayerStandard
1000

1000
構造 梁（見え）
  0
LAYER
  5
B0
330
1
100
AcDbSymbolTableRecord
100
AcDbLayerTableRecord
  2
S-FNDN
 70
0
 62
7
  6
HIDDEN
370
25
390
13
347
21
1001
AcAecLayerStandard
1000

1000
構造 基礎
  0
LAYER
  5
B1
330
1
100
AcDbSymbolTableRecord
100
AcDbLayerTableRecord
  2
S-SLAB
 70
0
 62
7
  6
Continuous
370
18
390
13
347
21
1001
AcAecLayerStandard
1000

1000
構造 スラブ
  0
LAYER
  5
B2
330
1
100
AcDbSymbolTableRecord
100
AcDbLayerTableRecord
  2
S-REBAR
 70
0
 62
1
  6
Continuous
370
35
390
13
347
21
1001
AcAecLayerStandard
1000

1000
鉄筋
  0
LAYER
  5
B3
330
1
100
AcDbSymbolTableRecord
100
AcDbLayerTableRecord
  2
S-TEXT
 70
0
 62
7
  6
Continuous
370
18
390
13
347
21
1001
AcAecLayerStandard
1000

1000
構造 注記
  0
ENDTAB
  0
TABLE
  2
STYLE
  5
5
330
0
100
AcDbSymbolTable
 70
27
  0
STYLE
  5
29
330
5
100
AcDbSymbolTableRecord
100
AcDbTextStyleTableRecord
  2
Standard
 70
0
 40
0.0
 41
1.0
 50
0.0
 71
0
 42
2.5
  3
ipag.ttf
  4

  0
STYLE
  5
41
330
5
100
AcDbSymbolTableRecord
100
AcDbTextStyleTableRecord
  2
OpenSans-Light
 70
0
 40
0.0
 41
1.0
 50
0.0
 71
0
 42
2.5
  3
OpenSans-Light.ttf
  4

  0
STYLE
  5
42
330
5
100
AcDbSymbolTableRecord
100
AcDbTextStyleTableRecord
  2
OpenSans-Light-Italic
 70
0
 40
0.0
 41
1.0
 50
0.0
 71
0
 42
2.5
  3
OpenSans-LightItalic.ttf
  4

  0
STYLE
  5
43
330
5
100
AcDbSymbolTableRecord
100
AcDbTextStyleTableRecord
  2
OpenSans
 70
0
 40
0.0
 41
1.0
 50
0.0
 71
0
 42
2.5
  3
OpenSans-Regular.ttf
  4

  0
STYLE
  5
44
330
5
100
AcDbSymbolTableRecord
100
AcDbTextStyleTableRecord
  2
OpenSans-Italic
 70
0
 40
0.0
 41
1.0
 50
0.0
 71
0
 42
2.5
  3
OpenSans-Italic.ttf
  4

  0
STYLE
  5
45
330
5
100
AcDbSymbolTableRecord
100
AcDbTextStyleTableRecord
  2
OpenSans-SemiBold
 70
0
 40
0.0
 41
1.0
 50
0.0
 71
0
 42
2.5
  3
OpenSans-SemiBold.ttf
  4

  0
STYLE
  5
46
330
5
100
AcDbSymbolTableRecord
100
AcDbTextStyleTableRecord
  2
OpenSans-SemiBoldItalic
 70
0
 40
0.0
 41
1.0
 50
0.0
 71
0
 42
2.5
  3
OpenSans-SemiBoldItalic.ttf
  4

  0
STYLE
  5
47
330
5
100
AcDbSymbolTableRecord
100
AcDbTextStyleTableRecord
  2
OpenSans-Bold
 70
0
 40
0.0
 41
1.0
 50
0.0
 71
0
 42
2.5
  3
OpenSans-Bold.ttf
  4

  0
STYLE
  5
48
330
5
100
AcDbSymbolTableRecord
100
AcDbTextStyleTableRecord
  2
OpenSans-BoldItalic
 70
0
 40
0.0
 41
1.0
 50
0.0
 71
0
 42
2.5
  3
OpenSans-BoldItalic.ttf
  4

  0
STYLE
  5
49
330
5
100
AcDbSymbolTableRecord
100
AcDbTextStyleTableRecord
  2
OpenSans-ExtraBold
 70
0
 40
0.0
 41
1.0
 50
0.0
 71
0
 42
2.5
  3
OpenSans-ExtraBold.ttf
  4

  0
STYLE
  5
4A
330
5
100
AcDbSymbolTableRecord
100
AcDbTextStyleTableRecord
  2
OpenSans-ExtraBoldItalic
 70
0
 40
0.0
 41
1.0
 50
0.0
 71
0
 42
2.5
  3
OpenSans-ExtraBoldItalic.ttf
  4

  0
STYLE
  5
4B
330
5
100
AcDbSymbolTableRecord
100
AcDbTextStyleTableRecord
  2
OpenSansCondensed-Bold
 70
0
 40
0.0
 41
1.0
 50
0.0
 71
0
 42
2.5
  3
OpenSansCondensed-Bold.ttf
  4

  0
STYLE
  5
4C
330
5
100
AcDbSymbolTableRecord
100
AcDbTextStyleTableRecord
  2
OpenSansCondensed-Light
 70
0
 40
0.0
 41
1.0
 50
0.0
 71
0
 42
2.5
  3
OpenSansCondensed-Light.ttf
  4

  0
STYLE
  5
4D
330
5
100
AcDbSymbolTableRecord
100
AcDbTextStyleTableRecord
  2
OpenSansCondensed-Italic
 70
0
 40
0.0
 41
1.0
 50
0.0
 71
0
 42
2.5
  3
OpenSansCondensed-LightItalic.ttf
  4

  0
STYLE
  5
4E
330
5
100
AcDbSymbolTableRecord
100
AcDbTextStyleTableRecord
  2
LiberationSans
 70
0
 40
0.0
 41
1.0
 50
0.0
 71
0
 42
2.5
  3
LiberationSans-Regular.ttf
  4

  0
STYLE
  5
4F
330
5
100
AcDbSymbolTableRecord
100
AcDbTextStyleTableRecord
  2
LiberationSans-Bold
 70
0
 40
0.0
 41
1.0
 50
0.0
 71
0
 42
2.5
  3
LiberationSans-Bold.ttf
  4

  0
STYLE
  5
50
330
5
100
AcDbSymbolTableRecord
100
AcDbTextStyleTableRecord
  2
LiberationSans-BoldItalic
 70
0
 40
0.0
 41
1.0
 50
0.0
 71
0
 42
2.5
  3
LiberationSans-BoldItalic.ttf
  4

  0
STYLE
  5
51
330
5
100
AcDbSymbolTableRecord
100
AcDbTextStyleTableRecord
  2
LiberationSans-Italic
 70
0
 40
0.0
 41
1.0
 50
0.0
 71
0
 42
2.5
  3
LiberationSans-Italic.ttf
  4

  0
STYLE
  5
52
330
5
100
AcDbSymbolTableRecord
100
AcDbTextStyleTableRecord
  2
LiberationSerif
 70
0
 40
0.0
 41
1.0
 50
0.0
 71
0
 42
2.5
  3
LiberationSerif-Regular.ttf
  4

  0
STYLE
  5
53
330
5
100
AcDbSymbolTableRecord
100
AcDbTextStyleTableRecord
  2
LiberationSerif-Bold
 70
0
 40
0.0
 41
1.0
 50
0.0
 71
0
 42
2.5
  3
LiberationSerif-Bold.ttf
  4

  0
STYLE
  5
54
330
5
100
AcDbSymbolTableRecord
100
AcDbTextStyleTableRecord
  2
LiberationSerif-BoldItalic
 70
0
 40
0.0
 41
1.0
 50
0.0
 71
0
 42
2.5
  3
LiberationSerif-BoldItalic.ttf
  4

  0
STYLE
  5
55
330
5
100
AcDbSymbolTableRecord
100
AcDbTextStyleTableRecord
  2
LiberationSerif-Italic
 70
0
 40
0.0
 41
1.0
 50
0.0
 71
0
 42
2.5
  3
LiberationSerif-Italic.ttf
  4

  0
STYLE
  5
56
330
5
100
AcDbSymbolTableRecord
100
AcDbTextStyleTableRecord
  2
LiberationMono
 70
0
 40
0.0
 41
1.0
 50
0.0
 71
0
 42
2.5
  3
LiberationMono-Regular.ttf
  4

  0
STYLE
  5
57
330
5
100
AcDbSymbolTableRecord
100
AcDbTextStyleTableRecord
  2
LiberationMono-Bold
 70
0
 40
0.0
 41
1.0
 50
0.0
 71
0
 42
2.5
  3
LiberationMono-Bold.ttf
  4

  0
STYLE
  5
58
330
5
100
AcDbSymbolTableRecord
100
AcDbTextStyleTableRecord
  2
LiberationMono-BoldItalic
 70
0
 40
0.0
 41
1.0
 50
0.0
 71
0
 42
2.5
  3
LiberationMono-BoldItalic.ttf
  4

  0
STYLE
  5
59
330
5
100
AcDbSymbolTableRecord
100
AcDbTextStyleTableRecord
  2
LiberationMono-Italic
 70
0
 40
0.0
 41
1.0
 50
0.0
 71
0
 42
2.5
  3
LiberationMono-Italic.ttf
  4

  0
STYLE
  5
8A
330
5
100
AcDbSymbolTableRecord
100
AcDbTextStyleTableRecord
  2
JP
 70
0
 40
0.0
 41
1.0
 50
0.0
 71
0
 42
2.5
  3
ipag.ttf
  4

  0
ENDTAB
  0
TABLE
  2
VIEW
  5
7
330
0
100
AcDbSymbolTable
 70
0
  0
ENDTAB
  0
TABLE
  2
UCS
  5
6
330
0
100
AcDbSymbolTable
 70
0
  0
ENDTAB
  0
TABLE
  2
APPID
  5
3
330
0
100
AcDbSymbolTable
 70
4
  0
APPID
  5
2A
330
3
100
AcDbSymbolTableRecord
100
AcDbRegAppTableRecord
  2
ACAD
 70
0
  0
APPID
  5
8C
330
3
100
AcDbSymbolTableRecord
100
AcDbRegAppTableRecord
  2
AcAecLayerStandard
 70
0
  0
APPID
  5
1D9
330
3
100
AcDbSymbolTableRecord
100
AcDbRegAppTableRecord
  2
HATCHBACKGROUNDCOLOR
 70
0
  0
APPID
  5
1DA
330
3
100
AcDbSymbolTableRecord
100
AcDbRegAppTableRecord
  2
EZDXF
 70
0
  0
ENDTAB
  0
TABLE
  2
DIMSTYLE
  5
4
330
0
100
AcDbSymbolTable
 70
13
100
AcDbDimStyleTable
  0
DIMSTYLE
105
2B
330
4
100
AcDbSymbolTableRecord
100
AcDbDimStyleTableRecord
  2
Standard
 70
0
 40
1.0
 41
2.5
 42
0.625
 43
3.75
 44
1.25
 45
0.0
 46
0.0
 47
0.0
 48
0.0
 49
2.5
140
2.5
141
2.5
142
0.0
143
0.03937007874
144
1.0
145
0.0
146
1.0
147
0.625
148
0.0
 69
0
 70
0
 71
0
 72
0
 73
0
 74
0
 75
0
 76
0
 77
1
 78
8
 79
3
170
0
171
3
172
1
173
0
174
0
175
0
176
0
177
0
178
0
179
2
271
2
272
2
273
2
274
3
275
0
276
0
277
2
278
44
279
0
280
0
281
0
282
0
283
0
284
8
285
0
286
0
288
0
289
3
290
0
371
-2
372
-2
  0
DIMSTYLE
105
73
330
4
100
AcDbSymbolTableRecord
100
AcDbDimStyleTableRecord
  2
EZDXF
 70
0
 40
1.0
 41
0.175
 42
0.125
 43
3.75
 44
0.375
 45
0.0
 46
0.0
 47
0.0
 48
0.0
 49
2.5
140
0.25
141
2.5
142
0.0
143
0.03937007874
144
100.0
145
0.0
146
0.5
147
0.1
148
0.0
 69
0
 70
0
 71
0
 72
0
 73
0
 74
0
 75
0
 76
0
 77
1
 78
12
 79
3
170
0
171
3
172
1
173
0
174
0
175
0
176
0
177
0
178
0
179
2
271
2
272
2
273
2
274
3
275
0
276
0
277
2
278
46
279
2
280
0
281
0
282
0
283
0
284
8
285
0
286
0
288
1
289
3
290
0
340
4C
342
74
371
-2
372
-2
  0
DIMSTYLE
105
7C
330
4
100
AcDbSymbolTableRecord
100
AcDbDimStyleTableRecord
  2
EZ_M_100_H25_CM
 70
0
 40
1.0
 41
0.25
 42
0.125
 43
3.75
 44
0.375
 45
0.0
 46
0.0
 47
0.0
 48
0.0
 49
2.5
140
0.25
141
2.5
142
0.125
143
0.03937007874
144
100.0
145
0.0
146
0.5
147
0.1
148
0.0
 69
0
 70
0
 71
0
 72
0
 73
0
 74
0
 75
0
 76
0
 77
1
 78
12
 79
3
170
0
171
3
172
1
173
0
174
0
175
0
176
0
177
0
178
0
179
2
271
2
272
2
273
2
274
3
275
0
276
0
277
2
278
46
279
2
280
0
281
0
282
0
283
0
284
8
285
0
286
0
288
1
289
3
290
0
340
4C
371
-2
372
-2
  0
DIMSTYLE
105
7D
330
4
100
AcDbSymbolTableRecord
100
AcDbDimStyleTableRecord
  2
EZ_M_50_H25_CM
 70
0
 40
1.0
 41
0.125
 42
0.0625
 43
3.75
 44
0.1875
 45
0.0
 46
0.0
 47
0.0
 48
0.0
 49
2.5
140
0.125
141
2.5
142
0.0625
143
0.03937007874
144
100.0
145
0.0
146
0.5
147
0.05
148
0.0
 69
0
 70
0
 71
0
 72
0
 73
0
 74
0
 75
0
 76
0
 77
1
 78
12
 79
3
170
0
171
3
172
1
173
0
174
0
175
0
176
0
177
0
178
0
179
2
271
2
272
2
273
2
274
3
275
0
276
0
277
2
278
46
279
2
280
0
281
0
282
0
283
0
284
8
285
0
286
0
288
1
289
3
290
0
340
4C
371
-2
372
-2
  0
DIMSTYLE
105
7E
330
4
100
AcDbSymbolTableRecord
100
AcDbDimStyleTableRecord
  2
EZ_M_25_H25_CM
 70
0
 40
1.0
 41
0.0625
 42
0.03125
 43
3.75
 44
0.09375
 45
0.0
 46
0.0
 47
0.0
 48
0.0
 49
2.5
140
0.0625
141
2.5
142
0.03125
143
0.03937007874
144
100.0
145
0.0
146
0.5
147
0.025
148
0.0
 69
0
 70
0
 71
0
 72
0
 73
0
 74
0
 75
0
 76
0
 77
1
 78
12
 79
3
170
0
171
3
172
1
173
0
174
0
175
0
176
0
177
0
178
0
179
2
271
2
272
2
273
2
274
3
275
0
276
0
277
2
278
46
279
2
280
0
281
0
282
0
283
0
284
8
285
0
286
0
288
1
289
3
290
0
340
4C
371
-2
372
-2
  0
DIMSTYLE
105
7F
330
4
100
AcDbSymbolTableRecord
100
AcDbDimStyleTableRecord
  2
EZ_M_20_H25_CM
 70
0
 40
1.0
 41
0.05
 42
0.025
 43
3.75
 44
0.07500000000000001
 45
0.0
 46
0.0
 47
0.0
 48
0.0
 49
2.5
140
0.05
141
2.5
142
0.025
143
0.03937007874
144
100.0
145
0.0
146
0.5
147
0.020000000000000004
148
0.0
 69
0
 70
0
 71
0
 72
0
 73
0
 74
0
 75
0
 76
0
 77
1
 78
12
 79
3
170
0
171
3
172
1
173
0
174
0
175
0
176
0
177
0
178
0
179
2
271
2
272
2
273
2
274
3
275
0
276
0
277
2
278
46
279
2
280
0
281
0
282
0
283
0
284
8
285
0
286
0
288
1
289
3
290
0
340
4C
371
-2
372
-2
  0
DIMSTYLE
105
80
330
4
100
AcDbSymbolTableRecord
100
AcDbDimStyleTableRecord
  2
EZ_M_10_H25_CM
 70
0
 40
1.0
 41
0.025
 42
0.0125
 43
3.75
 44
0.037500000000000006
 45
0.0
 46
0.0
 47
0.0
 48
0.0
 49
2.5
140
0.025
141
2.5
142
0.0125
143
0.03937007874
144
100.0
145
0.0
146
0.5
147
0.010000000000000002
148
0.0
 69
0
 70
0
 71
0
 72
0
 73
0
 74
0
 75
0
 76
0
 77
1
 78
12
 79
3
170
0
171
3
172
1
173
0
174
0
175
0
176
0
177
0
178
0
179
2
271
2
272
2
273
2
274
3
275
0
276
0
277
2
278
46
279
2
280
0
281
0
282
0
283
0
284
8
285
0
286
0
288
1
289
3
290
0
340
4C
371
-2
372
-2
  0
DIMSTYLE
105
81
330
4
100
AcDbSymbolTableRecord
100
AcDbDimStyleTableRecord
  2
EZ_M_5_H25_CM
 70
0
 40
1.0
 41
0.0125
 42
0.00625
 43
3.75
 44
0.018750000000000003
 45
0.0
 46
0.0
 47
0.0
 48
0.0
 49
2.5
140
0.0125
141
2.5
142
0.00625
143
0.03937007874
144
100.0
145
0.0
146
0.5
147
0.005000000000000001
148
0.0
 69
0
 70
0
 71
0
 72
0
 73
0
 74
0
 75
0
 76
0
 77
1
 78
12
 79
3
170
0
171
3
172
1
173
0
174
0
175
0
176
0
177
0
178
0
179
2
271
2
272
2
273
2
274
3
275
0
276
0
277
2
278
46
279
2
280
0
281
0
282
0
283
0
284
8
285
0
286
0
288
1
289
3
290
0
340
4C
371
-2
372
-2
  0
DIMSTYLE
105
82
330
4
100
AcDbSymbolTableRecord
100
AcDbDimStyleTableRecord
  2
EZ_M_1_H25_CM
 70
0
 40
1.0
 41
0.0025
 42
0.00125
 43
3.75
 44
0.00375
 45
0.0
 46
0.0
 47
0.0
 48
0.0
 49
2.5
140
0.0025
141
2.5
142
0.00125
143
0.03937007874
144
100.0
145
0.0
146
0.5
147
0.001
148
0.0
 69
0
 70
0
 71
0
 72
0
 73
0
 74
0
 75
0
 76
0
 77
1
 78
12
 79
3
170
0
171
3
172
1
173
0
174
0
175
0
176
0
177
0
178
0
179
2
271
2
272
2
273
2
274
3
275
0
276
0
277
2
278
46
279
2
280
0
281
0
282
0
283
0
284
8
285
0
286
0
288
1
289
3
290
0
340
4C
371
-2
372
-2
  0
DIMSTYLE
105
83
330
4
100
AcDbSymbolTableRecord
100
AcDbDimStyleTableRecord
  2
EZ_RADIUS
 70
0
 40
1.0
 41
0.25
 42
0.125
 43
3.75
 44
0.375
 45
0.0
 46
0.0
 47
0.0
 48
0.0
 49
2.5
140
0.25
141
0.0
142
0.0
143
0.03937007874
144
100.0
145
0.0
146
0.5
147
0.1
148
0.0
 69
0
 70
0
 71
0
 72
0
 73
0
 74
0
 75
0
 76
0
 77
1
 78
12
 79
3
170
0
171
3
172
0
173
0
174
0
175
0
176
0
177
0
178
0
179
2
271
2
272
2
273
2
274
3
275
0
276
0
277
2
278
46
279
1
280
0
281
0
282
0
283
0
284
8
285
0
286
0
288
1
289
3
290
0
340
4C
342
84
371
-2
372
-2
  0
DIMSTYLE
105
88
330
4
100
AcDbSymbolTableRecord
100
AcDbDimStyleTableRecord
  2
EZ_RADIUS_INSIDE
 70
0
 40
1.0
 41
0.25
 42
0.125
 43
3.75
 44
0.375
 45
0.0
 46
0.0
 47
0.0
 48
0.0
 49
2.5
140
0.25
141
0.0
142
0.0
143
0.03937007874
144
100.0
145
0.0
146
0.5
147
0.1
148
0.0
 69
0
 70
0
 71
0
 72
0
 73
0
 74
0
 75
0
 76
0
 77
0
 78
12
 79
3
170
0
171
3
172
0
173
0
174
1
175
0
176
0
177
0
178
0
179
2
271
2
272
2
273
2
274
3
275
0
276
0
277
2
278
46
279
0
280
0
281
0
282
0
283
0
284
8
285
0
286
0
288
1
289
0
290
0
340
4C
342
84
371
-2
372
-2
  0
DIMSTYLE
105
89
330
4
100
AcDbSymbolTableRecord
100
AcDbDimStyleTableRecord
  2
EZ_CURVED
 70
0
 40
1.0
 41
0.25
 42
0.125
 43
3.75
 44
0.375
 45
0.0
 46
0.0
 47
0.0
 48
0.0
 49
2.5
140
0.25
141
2.5
142
0.0
143
0.03937007874
144
100.0
145
0.0
146
0.5
147
0.1
148
0.0
 69
0
 70
0
 71
0
 72
0
 73
0
 74
0
 75
0
 76
0
 77
1
 78
12
 79
2
 90
2
170
0
171
3
172
1
173
0
174
0
175
0
176
0
177
0
178
0
179
2
271
2
272
2
273
2
274
3
275
0
276
0
277
2
278
46
279
2
280
0
281
0
282
0
283
0
284
8
285
0
286
0
288
1
289
3
290
0
340
4C
371
-2
372
-2
  0
DIMSTYLE
105
B4
330
4
100
AcDbSymbolTableRecord
100
AcDbDimStyleTableRecord
  2
JIS
 70
0
 40
500.0
 41
1.0
 42
1.0
 43
3.75
 44
1.0
 45
0.0
 46
0.0
 47
0.0
 48
0.0
 49
2.5
140
2.0
141
2.5
142
0.0
143
0.03937007874
144
1.0
145
0.0
146
1.0
147
0.6
148
0.0
 69
0
 70
0
 71
0
 72
0
 73
0
 74
0
 75
0
 76
0
 77
1
 78
8
 79
3
170
0
171
3
172
1
173
0
174
0
175
0
176
7
177
7
178
7
179
2
271
0
272
2
273
2
274
3
275
0
276
0
277
2
278
44
279
0
280
0
281
0
282
0
283
0
284
8
285
0
286
0
288
0
289
3
290
0
340
8A
342
1DC
371
13
372
13
  0
ENDTAB
  0
TABLE
  2
BLOCK_RECORD
  5
9
330
0
100
AcDbSymbolTable
 70
6
  0
BLOCK_RECORD
  5
17
330
9
100
AcDbSymbolTableRecord
100
AcDbBlockTableRecord
  2
*Model_Space
340
1A
 70
0
280
1
281
0
  0
BLOCK_RECORD
  5
1B
330
9
100
AcDbSymbolTableRecord
100
AcDbBlockTableRecord
  2
*Paper_Space
340
1E
 70
0
280
1
281
0
  0
BLOCK_RECORD
  5
74
330
9
100
AcDbSymbolTableRecord
100
AcDbBlockTableRecord
  2
_ARCHTICK
340
0
 70
0
280
1
281
0
  0
BLOCK_RECORD
  5
78
330
9
100
AcDbSymbolTableRecord
100
AcDbBlockTableRecord
  2
_CLOSEDFILLED
340
0
 70
0
280
1
281
0
  0
BLOCK_RECORD
  5
84
330
9
100
AcDbSymbolTableRecord
100
AcDbBlockTableRecord
  2
_CLOSEDBLANK
340
0
 70
0
280
1
281
0
  0
BLOCK_RECORD
  5
1DC
330
9
100
AcDbSymbolTableRecord
100
AcDbBlockTableRecord
  2
_DOT
340
0
 70
0
280
1
281
0
  0
ENDTAB
  0
ENDSEC
  0
SECTION
  2
BLOCKS
  0
BLOCK
  5
18
330
17
100
AcDbEntity
  8
0
100
AcDbBlockBegin
  2
*Model_Space
 70
0
 10
0.0
 20
0.0
 30
0.0
  3
*Model_Space
  1

  0
ENDBLK
  5
19
330
17
100
AcDbEntity
  8
0
100
AcDbBlockEnd
  0
BLOCK
  5
1C
330
1B
100
AcDbEntity
  8
0
100
AcDbBlockBegin
  2
*Paper_Space
 70
0
 10
0.0
 20
0.0
 30
0.0
  3
*Paper_Space
  1

  0
ENDBLK
  5
1D
330
1B
100
AcDbEntity
  8
0
100
AcDbBlockEnd
  0
BLOCK
  5
75
330
74
100
AcDbEntity
  8
0
100
AcDbBlockBegin
  2
_ARCHTICK
 70
0
 10
0.0
 20
0.0
 30
0.0
  3
_ARCHTICK
  1

  0
LWPOLYLINE
  5
77
330
74
100
AcDbEntity
  8
0
  6
BYBLOCK
 62
0
100
AcDbPolyline
 90
2
 70
0
 43
0.15
 10
-0.5
 20
-0.5
 10
0.5
 20
0.5
  0
ENDBLK
  5
76
330
74
100
AcDbEntity
  8
0
100
AcDbBlockEnd
  0
BLOCK
  5
79
330
78
100
AcDbEntity
  8
0
100
AcDbBlockBegin
  2
_CLOSEDFILLED
 70
0
 10
0.0
 20
0.0
 30
0.0
  3
_CLOSEDFILLED
  1

  0
SOLID
  5
7B
330
78
100
AcDbEntity
  8
0
  6
BYBLOCK
 62
0
100
AcDbTrace
 10
-1.0
 20
0.16439898372402537
 30
0.0
 11
0.0
 21
0.0
 31
0.0
 12
-1.0
 22
-0.16439898372402537
 32
0.0
 13
-1.0
 23
-0.16439898372402537
 33
0.0
  0
ENDBLK
  5
7A
330
78
100
AcDbEntity
  8
0
100
AcDbBlockEnd
  0
BLOCK
  5
85
330
84
100
AcDbEntity
  8
0
100
AcDbBlockBegin
  2
_CLOSEDBLANK
 70
0
 10
0.0
 20
0.0
 30
0.0
  3
_CLOSEDBLANK
  1

  0
LWPOLYLINE
  5
87
330
84
100
AcDbEntity
  8
0
  6
BYBLOCK
 62
0
100
AcDbPolyline
 90
3
 70
1
 10
-1.0
 20
0.16439898372402537
 10
0.0
 20
0.0
 10
-1.0
 20
-0.16439898372402537
  0
ENDBLK
  5
86
330
84
100
AcDbEntity
  8
0
100
AcDbBlockEnd
  0
BLOCK
  5
1DD
330
1DC
100
AcDbEntity
  8
0
100
AcDbBlockBegin
  2
_DOT
 70
0
 10
0.0
 20
0.0
 30
0.0
  3
_DOT
  1

  0
LINE
  5
1DF
330
1DC
100
AcDbEntity
  8
0
  6
BYBLOCK
 62
0
100
AcDbLine
 10
-0.5
 20
0.0
 30
0.0
 11
-1.0
 21
0.0
 31
0.0
  0
LWPOLYLINE
  5
1E0
330
1DC
100
AcDbEntity
  8
0
  6
BYBLOCK
 62
0
100
AcDbPolyline
 90
2
 70
1
 43
0.5
 10
-0.25
 20
0.0
 42
1.0
 10
0.25
 20
0.0
 42
1.0
  0
ENDBLK
  5
1DE
330
1DC
100
AcDbEntity
  8
0
100
AcDbBlockEnd
  0
ENDSEC
  0
SECTION
  2
ENTITIES
  0
LWPOLYLINE
  5
B5
330
17
100
AcDbEntity
  8
G-FRAME
370
0
100
AcDbPolyline
 90
4
 70
1
 10
0.0
 20
0.0
 10
210000.0
 20
0.0
 10
210000.0
 20
148500.0
 10
0.0
 20
148500.0
  0
LWPOLYLINE
  5
B6
330
17
100
AcDbEntity
  8
G-FRAME
100
AcDbPolyline
 90
4
 70
1
 10
5000.0
 20
5000.0
 10
205000.0
 20
5000.0
 10
205000.0
 20
143500.0
 10
5000.0
 20
143500.0
  0
LWPOLYLINE
  5
B7
330
17
100
AcDbEntity
  8
G-TITLE
370
50
100
AcDbPolyline
 90
4
 70
1
 10
110000.0
 20
5000.0
 10
205000.0
 20
5000.0
 10
205000.0
 20
24000.0
 10
110000.0
 20
24000.0
  0
LINE
  5
B8
330
17
100
AcDbEntity
  8
G-TITLE
100
AcDbLine
 10
110000.0
 20
19000.0
 30
0.0
 11
205000.0
 21
19000.0
 31
0.0
  0
LINE
  5
B9
330
17
100
AcDbEntity
  8
G-TITLE
100
AcDbLine
 10
110000.0
 20
13500.0
 30
0.0
 11
205000.0
 21
13500.0
 31
0.0
  0
LINE
  5
BA
330
17
100
AcDbEntity
  8
G-TITLE
100
AcDbLine
 10
110000.0
 20
9500.0
 30
0.0
 11
205000.0
 21
9500.0
 31
0.0
  0
LINE
  5
BB
330
17
100
AcDbEntity
  8
G-TITLE
100
AcDbLine
 10
121000.0
 20
5000.0
 30
0.0
 11
121000.0
 21
24000.0
 31
0.0
  0
TEXT
  5
BC
330
17
100
AcDbEntity
  8
G-TITLE
100
AcDbText
 10
111000.0
 20
20750.0
 30
0.0
 40
1100.0
  1
工事名称
  7
JP
 11
111000.0
 21
20750.0
 31
0.0
100
AcDbText
  0
TEXT
  5
BD
330
17
100
AcDbEntity
  8
G-TITLE
100
AcDbText
 10
122000.0
 20
20500.0
 30
0.0
 40
1700.0
  1
河沿要（仮称）新築計画
  7
JP
 11
122000.0
 21
20500.0
 31
0.0
100
AcDbText
  0
TEXT
  5
BE
330
17
100
AcDbEntity
  8
G-TITLE
100
AcDbText
 10
111000.0
 20
15500.0
 30
0.0
 40
1100.0
  1
図面名称
  7
JP
 11
111000.0
 21
15500.0
 31
0.0
100
AcDbText
  0
TEXT
  5
BF
330
17
100
AcDbEntity
  8
G-TITLE
100
AcDbText
 10
122000.0
 20
15100.0
 30
0.0
 40
2200.0
  1
配置図・求積図
  7
JP
 11
122000.0
 21
15100.0
 31
0.0
100
AcDbText
  0
TEXT
  5
C0
330
17
100
AcDbEntity
  8
G-TITLE
100
AcDbText
 10
111000.0
 20
10800.0
 30
0.0
 40
1100.0
  1
縮尺
  7
JP
 11
111000.0
 21
10800.0
 31
0.0
100
AcDbText
  0
LINE
  5
C1
330
17
100
AcDbEntity
  8
G-TITLE
100
AcDbLine
 10
121000.0
 20
9500.0
 30
0.0
 11
121000.0
 21
13500.0
 31
0.0
  0
TEXT
  5
C2
330
17
100
AcDbEntity
  8
G-TITLE
100
AcDbText
 10
121750.0
 20
10800.0
 30
0.0
 40
1000.0
  1
A3
  7
JP
 11
121750.0
 21
10800.0
 31
0.0
100
AcDbText
  0
TEXT
  5
C3
330
17
100
AcDbEntity
  8
G-TITLE
100
AcDbText
 10
126000.0
 20
10700.0
 30
0.0
 40
1300.0
  1
1:500
  7
JP
 11
126000.0
 21
10700.0
 31
0.0
100
AcDbText
  0
LINE
  5
C4
330
17
100
AcDbEntity
  8
G-TITLE
100
AcDbLine
 10
141000.0
 20
9500.0
 30
0.0
 11
141000.0
 21
13500.0
 31
0.0
  0
TEXT
  5
C5
330
17
100
AcDbEntity
  8
G-TITLE
100
AcDbText
 10
141750.0
 20
10800.0
 30
0.0
 40
1000.0
  1
日付
  7
JP
 11
141750.0
 21
10800.0
 31
0.0
100
AcDbText
  0
TEXT
  5
C6
330
17
100
AcDbEntity
  8
G-TITLE
100
AcDbText
 10
146000.0
 20
10700.0
 30
0.0
 40
1300.0
  1
2026-10-03
  7
JP
 11
146000.0
 21
10700.0
 31
0.0
100
AcDbText
  0
LINE
  5
C7
330
17
100
AcDbEntity
  8
G-TITLE
100
AcDbLine
 10
166000.0
 20
9500.0
 30
0.0
 11
166000.0
 21
13500.0
 31
0.0
  0
TEXT
  5
C8
330
17
100
AcDbEntity
  8
G-TITLE
100
AcDbText
 10
166750.0
 20
10800.0
 30
0.0
 40
1000.0
  1
設計
  7
JP
 11
166750.0
 21
10800.0
 31
0.0
100
AcDbText
  0
TEXT
  5
C9
330
17
100
AcDbEntity
  8
G-TITLE
100
AcDbText
 10
171000.0
 20
10700.0
 30
0.0
 40
1300.0
  1
設計検討（仮）
  7
JP
 11
171000.0
 21
10700.0
 31
0.0
100
AcDbText
  0
TEXT
  5
CA
330
17
100
AcDbEntity
  8
G-TITLE
100
AcDbText
 10
111000.0
 20
6700.0
 30
0.0
 40
1100.0
  1
段階
  7
JP
 11
111000.0
 21
6700.0
 31
0.0
100
AcDbText
  0
TEXT
  5
CB
330
17
100
AcDbEntity
  8
G-TITLE
100
AcDbText
 10
122000.0
 20
6700.0
 30
0.0
 40
950.0
  1
基本計画　／　本図は建築基準法令に基づく計画段階の検討図であり、確認申請・構造計算・関係機関協議により確定する
  7
JP
 11
122000.0
 21
6700.0
 31
0.0
100
AcDbText
  0
LINE
  5
CC
330
17
100
AcDbEntity
  8
G-TITLE
100
AcDbLine
 10
188000.0
 20
9500.0
 30
0.0
 11
188000.0
 21
19000.0
 31
0.0
  0
TEXT
  5
CD
330
17
100
AcDbEntity
  8
G-TITLE
100
AcDbText
 10
188750.0
 20
17500.0
 30
0.0
 40
1000.0
  1
図番
  7
JP
 11
188750.0
 21
17500.0
 31
0.0
100
AcDbText
  0
TEXT
  5
CE
330
17
100
AcDbEntity
  8
G-TITLE
100
AcDbText
 10
196500.0
 20
14000.0
 30
0.0
 40
3000.0
  1
A-01
  7
JP
 72
1
 11
196500.0
 21
14000.0
 31
0.0
100
AcDbText
 73
1
  0
LWPOLYLINE
  5
CF
330
17
100
AcDbEntity
  8
A-NEIGH
370
9
100
AcDbPolyline
 90
5
 70
1
 10
106425.10090234884
 20
35837.0267696925
 10
106425.10090234884
 20
124162.97323030749
 10
18574.899097651152
 20
124162.97323030749
 10
18574.899097651152
 20
35837.0267696925
 10
106425.10090234884
 20
35837.0267696925
  0
LWPOLYLINE
  5
D0
330
17
100
AcDbEntity
  8
A-NEIGH
100
AcDbPolyline
 90
3
 70
0
 10
28619.90496804292
 20
105059.16145247969
 10
27755.72460055268
 20
101647.33022974248
 10
18574.899097651152
 20
103682.49131828241
  0
LWPOLYLINE
  5
D1
330
17
100
AcDbEntity
  8
A-NEIGH
100
AcDbPolyline
 90
2
 70
0
 10
18574.899097651152
 20
107252.23626546821
 10
28619.90496804292
 20
105059.16145247969
  0
LWPOLYLINE
  5
D2
330
17
100
AcDbEntity
  8
A-NEIGH
100
AcDbPolyline
 90
5
 70
0
 10
41797.75029519654
 20
63367.96223089798
 10
41599.10664038801
 20
60848.07320588035
 10
38314.87637646879
 20
61125.97889772042
 10
38503.74878668315
 20
63643.74124009109
 10
41797.75029519654
 20
63367.96223089798
  0
LWPOLYLINE
  5
D3
330
17
100
AcDbEntity
  8
A-NEIGH
100
AcDbPolyline
 90
5
 70
0
 10
60075.95538886929
 20
65483.55164135449
 10
59744.30785176129
 20
61317.72520340365
 10
56954.617520125816
 20
61580.456727168064
 10
57286.26505723382
 20
65746.28316511889
 10
60075.95538886929
 20
65483.55164135449
  0
LWPOLYLINE
  5
D4
330
17
100
AcDbEntity
  8
A-NEIGH
100
AcDbPolyline
 90
5
 70
0
 10
64052.33463751199
 20
59768.46563404334
 10
64324.37758259555
 20
50524.86824795873
 10
59756.32073482117
 20
50400.54352997527
 10
59367.02285460758
 20
59618.62072429628
 10
64052.33463751199
 20
59768.46563404334
  0
LWPOLYLINE
  5
D5
330
17
100
AcDbEntity
  8
A-NEIGH
100
AcDbPolyline
 90
7
 70
0
 10
68202.4121282934
 20
57816.40087576573
 10
68047.16429506485
 20
56789.9028921935
 10
69953.13177002173
 20
56590.684458291194
 10
69523.77178697204
 20
47184.19467703083
 10
64670.164685410404
 20
47243.33944578025
 10
65295.46686152789
 20
58053.61220776655
 10
68202.4121282934
 20
57816.40087576573
  0
LWPOLYLINE
  5
D6
330
17
100
AcDbEntity
  8
A-NEIGH
100
AcDbPolyline
 90
4
 70
0
 10
106425.10090234884
 20
103311.12191464932
 10
101958.09622540296
 20
104022.14501149138
 10
102416.76994223516
 20
106475.81948490615
 10
106425.10090234884
 20
105837.80450651655
  0
LWPOLYLINE
  5
D7
330
17
100
AcDbEntity
  8
A-NEIGH
100
AcDbPolyline
 90
2
 70
0
 10
43823.27182165855
 20
36381.39404326363
 10
43814.23982915591
 20
35837.0267696925
  0
LWPOLYLINE
  5
D8
330
17
100
AcDbEntity
  8
A-NEIGH
100
AcDbPolyline
 90
3
 70
0
 10
39338.54788582712
 20
35837.0267696925
 10
39346.94971725062
 20
36399.84445217379
 10
43823.27182165855
 20
36381.39404326363
  0
LWPOLYLINE
  5
D9
330
17
100
AcDbEntity
  8
A-NEIGH
100
AcDbPolyline
 90
11
 70
0
 10
36749.23560293591
 20
73444.81686922777
 10
37011.967126700314
 20
74494.70836191662
 10
42138.07699662054
 20
73747.78292955642
 10
41089.85236330364
 20
67184.72532519946
 10
35668.42099500197
 20
68112.99356164559
 10
34959.488460740264
 20
63987.86148353399
 10
29420.802157308575
 20
64890.609528216526
 10
29500.06419434011
 20
65654.9507671181
 10
26045.41192911669
 20
66151.61738204883
 10
27488.222410309925
 20
74898.54815320272
 10
36749.23560293591
 20
73444.81686922777
  0
LWPOLYLINE
  5
DA
330
17
100
AcDbEntity
  8
A-NEIGH
100
AcDbPolyline
 90
11
 70
0
 10
50120.09174977908
 20
72998.15603545544
 10
49408.45775377663
 20
67756.91791305217
 10
48904.14657689871
 20
67769.96539848085
 10
48577.90196327219
 20
65836.35104911341
 10
45502.66137784945
 20
66282.5520596107
 10
45095.02804454444
 20
63594.36771593584
 10
42162.56258601534
 20
63948.83398306669
 10
42712.97104621398
 20
68285.08242232172
 10
42065.88474244243
 20
68389.86465111686
 10
42708.6027251013
 20
73994.7655061514
 10
50120.09174977908
 20
72998.15603545544
  0
LWPOLYLINE
  5
DB
330
17
100
AcDbEntity
  8
A-NEIGH
100
AcDbPolyline
 90
13
 70
0
 10
45989.09692491098
 20
61179.260919713335
 10
46207.85784800163
 20
59609.88408207091
 10
48398.800797652
 20
59841.11771149647
 10
49335.80567632351
 20
52103.384073192174
 10
39524.384023498875
 20
50960.66575685871
 10
39369.136190270336
 20
51673.966612233104
 10
38018.52027571856
 20
51625.62769044666
 10
37478.91766248288
 20
55233.401106251644
 10
39048.294500125296
 20
55452.1620293423
 10
38897.87481128446
 20
57271.79768441422
 10
39871.205728682515
 20
57360.83096603992
 10
39468.975318859
 20
60384.45638884168
 10
45989.09692491098
 20
61179.260919713335
  0
LWPOLYLINE
  5
DC
330
17
100
AcDbEntity
  8
A-NEIGH
100
AcDbPolyline
 90
6
 70
0
 10
94375.2227254237
 20
124162.97323030749
 10
94250.07866624682
 20
122321.50197581504
 10
85681.78923743809
 20
122943.527911098
 10
85526.54140420955
 20
121917.02992752579
 10
82007.80127003025
 20
122143.89523583866
 10
82171.98151472321
 20
124162.97323030749
  0
LWPOLYLINE
  5
DD
330
17
100
AcDbEntity
  8
A-NEIGH
100
AcDbPolyline
 90
6
 70
0
 10
106425.10090234884
 20
66459.35032401411
 10
100932.28797674325
 20
66556.95159897872
 10
101007.1816926621
 20
74770.77476065658
 10
103980.34151103045
 20
74793.59349067946
 10
104034.08335629838
 20
75675.18966471107
 10
106425.10090234884
 20
75644.87156086761
  0
LWPOLYLINE
  5
DE
330
17
100
AcDbEntity
  8
A-NEIGH
100
AcDbPolyline
 90
2
 70
0
 10
34401.60787232254
 20
36316.21409402958
 10
34409.10311177737
 20
35837.0267696925
  0
LWPOLYLINE
  5
DF
330
17
100
AcDbEntity
  8
A-NEIGH
100
AcDbPolyline
 90
3
 70
0
 10
31783.635582772262
 20
35837.0267696925
 10
31782.339541991267
 20
36360.18469470334
 10
34401.60787232254
 20
36316.21409402958
  0
LWPOLYLINE
  5
E0
330
17
100
AcDbEntity
  8
A-ROAD
100
AcDbPolyline
 90
9
 70
0
 10
18574.899097651152
 20
120087.18469575673
 10
24328.08695273667
 20
118524.45380443006
 10
36017.254427013846
 20
116729.30373875293
 10
59171.31057317731
 20
114686.71127320579
 10
70228.56591175859
 20
115230.68220755417
 10
79054.75871994402
 20
116292.01180420915
 10
96514.88072944724
 20
119345.06591661216
 10
98438.72383422051
 20
120756.4934592853
 10
98826.69857634413
 20
124162.97323030749
  0
LWPOLYLINE
  5
E1
330
17
100
AcDbEntity
  8
A-ROAD
100
AcDbPolyline
 90
6
 70
0
 10
49626.98876522978
 20
112363.79904362475
 10
48599.91600256378
 20
111393.16958796742
 10
35142.72803583564
 20
112189.4685444829
 10
33807.861068453305
 20
113761.54684386606
 10
18949.591582739977
 20
115869.894037741
 10
18574.899097651152
 20
115975.32406240457
  0
LWPOLYLINE
  5
E2
330
17
100
AcDbEntity
  8
A-ROAD
100
AcDbPolyline
 90
12
 70
0
 10
18574.899097651152
 20
44821.14227108667
 10
84188.80054135832
 20
44788.17054672165
 10
86122.41489072576
 20
46201.72477204176
 10
87488.20497335317
 20
48484.40246505857
 10
90689.20722449383
 20
81080.81460793392
 10
95335.89385229659
 20
101956.56138219326
 10
97418.72085440795
 20
115192.28696409002
 10
96017.63933542275
 20
116504.33520144949
 10
79388.07311642396
 20
113632.04911403861
 10
70559.75362559156
 20
112580.4907619778
 10
64213.33026167829
 20
112069.10980224647
 10
52651.18896712533
 20
112152.10790338754
  0
LWPOLYLINE
  5
E3
330
17
100
AcDbEntity
  8
A-ROAD
100
AcDbPolyline
 90
4
 70
0
 10
52651.18896712533
 20
112152.10790338754
 10
52240.27939298579
 20
105482.14138758849
 10
49216.07919109025
 20
105693.8325278257
 10
49626.98876522978
 20
112363.79904362475
  0
LWPOLYLINE
  5
E4
330
17
100
AcDbEntity
  8
A-ROAD
100
AcDbPolyline
 90
3
 70
0
 10
20962.260920958925
 20
35837.0267696925
 10
21153.409584090903
 20
37280.80836920228
 10
18574.899097651152
 20
37302.61074671639
  0
LWPOLYLINE
  5
E5
330
17
100
AcDbEntity
  8
A-ROAD
100
AcDbPolyline
 90
4
 70
0
 10
106425.10090234884
 20
37069.10841559311
 10
84292.54816778464
 20
37493.36167808013
 10
24253.595582183454
 20
37331.27397363568
 10
24053.70510510232
 20
35837.0267696925
  0
LWPOLYLINE
  5
E6
330
17
100
AcDbEntity
  8
A-ROAD
100
AcDbPolyline
 90
5
 70
0
 10
104489.10543579479
 20
124162.97323030749
 10
103701.6311284591
 20
116559.74390608937
 10
96110.63859279548
 20
80152.54637148781
 10
93134.37496732075
 20
49344.84676843928
 10
106425.10090234884
 20
49153.39917001216
  0
HATCH
  5
E7
330
17
100
AcDbEntity
  8
A-WATER
 62
7
100
AcDbHatch
 10
0.0
 20
0.0
 30
0.0
210
0.0
220
0.0
230
1.0
  2
ANSI31
 70
0
 71
0
 91
1
 92
3
 72
0
 73
1
 93
12
 10
26279.11710864548
 20
111253.03844490516
 10
52398.803467048856
 20
108750.62270433828
 10
69481.64047939837
 20
108364.77349868731
 10
76773.74788629914
 20
109092.21391976858
 10
88860.77744928717
 20
111722.92035406595
 10
89168.5716540035
 20
109180.21259902549
 10
77173.27683438193
 20
106692.28129162171
 10
69527.27793944407
 20
105898.05153984384
 10
52202.28649488729
 20
106220.96243472648
 10
26584.784630714876
 20
108720.10193445886
 10
18574.899097651152
 20
110029.01591382158
 10
18574.899097651152
 20
112548.62955226676
 97
0
 75
1
 76
1
 52
0.0
 41
236.2204724409449
 77
0
 78
1
 53
45.0
 43
0.0
 44
0.0
 45
-530.3300858976
 46
530.3300858976
 79
0
 98
0
  0
LWPOLYLINE
  5
E8
330
17
100
AcDbEntity
  8
A-WATER
100
AcDbPolyline
 90
13
 70
1
 10
26279.11710864548
 20
111253.03844490516
 10
52398.803467048856
 20
108750.62270433828
 10
69481.64047939837
 20
108364.77349868731
 10
76773.74788629914
 20
109092.21391976858
 10
88860.77744928717
 20
111722.92035406595
 10
89168.5716540035
 20
109180.21259902549
 10
77173.27683438193
 20
106692.28129162171
 10
69527.27793944407
 20
105898.05153984384
 10
52202.28649488729
 20
106220.96243472648
 10
26584.784630714876
 20
108720.10193445886
 10
18574.899097651152
 20
110029.01591382158
 10
18574.899097651152
 20
112548.62955226676
 10
26279.11710864548
 20
111253.03844490516
  0
HATCH
  5
E9
330
17
100
AcDbEntity
  8
A-WATER
 62
7
100
AcDbHatch
 10
0.0
 20
0.0
 30
0.0
210
0.0
220
0.0
230
1.0
  2
ANSI31
 70
0
 71
0
 91
1
 92
3
 72
0
 73
1
 93
4
 10
85586.98606072484
 20
35837.0267696925
 10
83815.9543046284
 20
35837.0267696925
 10
83838.70259534015
 20
36146.022004362865
 10
85601.89494340339
 20
36038.53831382702
 97
0
 75
1
 76
1
 52
0.0
 41
236.2204724409449
 77
0
 78
1
 53
45.0
 43
0.0
 44
0.0
 45
-530.3300858976
 46
530.3300858976
 79
0
 98
0
  0
LWPOLYLINE
  5
EA
330
17
100
AcDbEntity
  8
A-WATER
100
AcDbPolyline
 90
5
 70
1
 10
85586.98606072484
 20
35837.0267696925
 10
83815.9543046284
 20
35837.0267696925
 10
83838.70259534015
 20
36146.022004362865
 10
85601.89494340339
 20
36038.53831382702
 10
85586.98606072484
 20
35837.0267696925
  0
LWPOLYLINE
  5
EB
330
17
100
AcDbEntity
  8
A-HIDDEN
100
AcDbPolyline
 90
17
 70
1
 10
72159.01897611027
 20
103492.71598821552
 10
72026.0150938108
 20
101846.77857528231
 10
83641.8982336317
 20
100905.57780922623
 10
84342.15160357741
 20
100556.51446557688
 10
86713.86257821992
 20
98217.39346555137
 10
87852.2125734407
 20
95855.45373550305
 10
88550.33926073943
 20
93776.3627975012
 10
88868.47948914373
 20
88882.06133610033
 10
88294.67751982846
 20
86393.09542632778
 10
86172.19076024664
 20
82461.778858637
 10
82831.51718931877
 20
79002.18349320712
 10
80885.4301336164
 20
78210.19537989498
 10
70151.14316782712
 20
79097.65430068312
 10
69926.979321255
 20
76695.02021079551
 10
45297.407763462514
 20
78651.85563555147
 10
47412.192483187755
 20
105424.03122120787
 10
72159.01897611027
 20
103492.71598821552
  0
LWPOLYLINE
  5
EC
330
17
100
AcDbEntity
  8
A-HIDDEN
100
AcDbPolyline
 90
9
 70
1
 10
87723.51953434455
 20
106133.19366710709
 10
90465.44572328734
 20
108346.9553467803
 10
94495.56681719798
 20
103513.46551350079
 10
92415.90110010239
 20
101689.46153731618
 10
94087.35870479919
 20
99699.40388094005
 10
89371.1238066497
 20
95694.80297879301
 10
82309.15794889632
 20
104207.68370296186
 10
86414.1727587258
 20
107588.01703136021
 10
87723.51953434455
 20
106133.19366710709
  0
LWPOLYLINE
  5
ED
330
17
100
AcDbEntity
  8
A-TERRAIN
370
9
100
AcDbPolyline
 90
13
 70
0
 10
106425.10090234884
 20
73195.81871633284
 10
104265.89176481772
 20
72870.32516499996
 10
100189.09860849257
 20
73968.4406236565
 10
97740.82705855927
 20
76659.3264290721
 10
98406.36377124098
 20
79291.0674657383
 10
103120.93181001853
 20
90121.45749600671
 10
103262.04007754022
 20
98595.31071970824
 10
102243.07170009645
 20
102712.79823587261
 10
90783.01117259786
 20
104066.57543544017
 10
80192.07411279599
 20
102508.5792238545
 10
59580.15094257925
 20
101993.28976628548
 10
23244.11105978698
 20
105260.50656902898
 10
18574.899097651152
 20
105890.83345677954
  0
LWPOLYLINE
  5
EE
330
17
100
AcDbEntity
  8
A-SITE
100
AcDbPolyline
 90
17
 70
1
 10
30265.152646063605
 20
106010.82319804246
 10
52188.261884999185
 20
106238.37824126784
 10
69552.33830793266
 20
105923.9740769731
 10
77169.88563772866
 20
106660.84087519225
 10
89209.78331502715
 20
109178.94808501916
 10
88852.27071869929
 20
111762.00533244264
 10
97425.10090234884
 20
115162.97323030749
 10
95295.5443599136
 20
101906.84299058176
 10
90724.90100621725
 20
81057.88092209233
 10
87469.92699817114
 20
48521.36076078829
 10
86136.43950061385
 20
46184.30896550038
 10
84178.16712812347
 20
44837.0267696925
 10
70259.77641655054
 20
44837.02676969251
 10
71216.89856350416
 20
66066.20520871389
 10
54878.80282295852
 20
66603.91105094014
 10
51818.10414860827
 20
73613.3420995225
 10
27574.899097651152
 20
74876.47663600178
  0
HATCH
  5
EF
330
17
100
AcDbEntity
  8
A-CUT-HATCH
 62
7
100
AcDbHatch
 10
0.0
 20
0.0
 30
0.0
210
0.0
220
0.0
230
1.0
  2
ANSI31
 70
0
 71
0
 91
3
 92
3
 72
0
 73
1
 93
40
 10
89209.78331502715
 20
109178.94808501916
 10
88852.27071869929
 20
111762.00533244264
 10
97425.10090234884
 20
115162.97323030749
 10
95295.5443599136
 20
101906.84299058176
 10
90724.90100621725
 20
81057.88092209233
 10
87891.22623376457
 20
52732.64203029851
 10
87831.5242425738
 20
52738.61465517023
 10
87802.12135122508
 20
52740.10434619217
 10
87772.7140275809
 20
52738.70487661726
 10
87743.58548024362
 20
52734.429724102505
 10
87740.58154954374
 20
52733.68217426324
 10
90576.51380612167
 20
81081.4867386471
 10
95148.11585776655
 20
101934.82190204179
 10
97235.14776324054
 20
114926.2434502056
 10
89016.99121824311
 20
111665.97980442955
 10
89377.56657543927
 20
109060.79386353001
 10
77192.52880337693
 20
106512.3310536095
 10
69558.22106336604
 20
105773.84297372616
 10
52187.682430685614
 20
106088.36414658537
 10
30402.873215518768
 20
105862.24461451598
 10
27737.70383708381
 20
75018.1975455328
 10
51918.477258389714
 20
73758.31586062224
 10
54978.37669801319
 20
66750.71517213242
 10
71373.58488888164
 20
66211.12969235907
 10
70416.6915726915
 20
44987.02676969251
 10
71373.7371752497
 20
44987.02676969251
 10
71372.69431583087
 20
44984.112172868845
 10
71365.54083242957
 20
44955.55386629735
 10
71361.22099854887
 20
44926.43191179138
 10
71359.77641655054
 20
44897.02676969251
 10
71359.77641655054
 20
44837.02676969251
 10
70259.77641655054
 20
44837.02676969251
 10
71216.89856350416
 20
66066.20520871389
 10
54878.80282295852
 20
66603.91105094014
 10
51818.10414860827
 20
73613.3420995225
 10
27574.899097651152
 20
74876.47663600178
 10
30265.152646063605
 20
106010.82319804246
 10
52188.261884999185
 20
106238.37824126784
 10
69552.33830793266
 20
105923.9740769731
 10
77169.88563772866
 20
106660.84087519225
 97
0
 92
3
 72
0
 73
1
 93
18
 10
87469.92699817114
 20
48521.36076078829
 10
86136.43950061385
 20
46184.30896550038
 10
84178.16712812347
 20
44837.0267696925
 10
83578.16712812347
 20
44837.0267696925
 10
83578.16712812347
 20
44897.0267696925
 10
83576.72254612514
 20
44926.43191179137
 10
83572.40271224444
 20
44955.553866297334
 10
83565.24922884314
 20
44984.11217286884
 10
83564.20636942431
 20
44987.0267696925
 10
84131.55100416519
 20
44987.0267696925
 10
86023.15667009194
 20
46288.4425844657
 10
87323.84521554488
 20
48568.01138869489
 10
87584.09096545244
 20
51169.411912272066
 10
87586.88727588225
 20
51168.08410265012
 10
87614.59165412346
 20
51158.12334839794
 10
87643.1389528584
 20
51150.92606182984
 10
87672.25424599469
 20
51146.561556749926
 10
87731.95623718544
 20
51140.58893187821
 97
0
 92
3
 72
0
 73
1
 93
12
 10
77991.08502740381
 20
44984.11217286884
 10
77983.93154400251
 20
44955.55386629734
 10
77979.61171012181
 20
44926.43191179138
 10
77978.16712812347
 20
44897.02676969251
 10
77978.16712812347
 20
44837.02676969251
 10
73159.77641655054
 20
44837.02676969251
 10
73159.77641655054
 20
44897.02676969251
 10
73158.3318345522
 20
44926.43191179138
 10
73154.0120006715
 20
44955.55386629735
 10
73146.8585172702
 20
44984.112172868845
 10
73145.81565785136
 20
44987.02676969251
 10
77992.12788682265
 20
44987.02676969251
 97
0
 75
1
 76
1
 52
0.0
 41
157.48031496062993
 77
0
 78
1
 53
45.0
 43
0.0
 44
0.0
 45
-353.5533905984
 46
353.5533905984
 79
0
 98
0
  0
LWPOLYLINE
  5
F0
330
17
100
AcDbEntity
  8
A-FENCE
100
AcDbPolyline
 90
41
 70
1
 10
89209.78331502715
 20
109178.94808501916
 10
88852.27071869929
 20
111762.00533244264
 10
97425.10090234884
 20
115162.97323030749
 10
95295.5443599136
 20
101906.84299058176
 10
90724.90100621725
 20
81057.88092209233
 10
87891.22623376457
 20
52732.64203029851
 10
87831.5242425738
 20
52738.61465517023
 10
87802.12135122508
 20
52740.10434619217
 10
87772.7140275809
 20
52738.70487661726
 10
87743.58548024362
 20
52734.429724102505
 10
87740.58154954374
 20
52733.68217426324
 10
90576.51380612167
 20
81081.4867386471
 10
95148.11585776655
 20
101934.82190204179
 10
97235.14776324054
 20
114926.2434502056
 10
89016.99121824311
 20
111665.97980442955
 10
89377.56657543927
 20
109060.79386353001
 10
77192.52880337693
 20
106512.3310536095
 10
69558.22106336604
 20
105773.84297372616
 10
52187.682430685614
 20
106088.36414658537
 10
30402.873215518768
 20
105862.24461451598
 10
27737.70383708381
 20
75018.1975455328
 10
51918.477258389714
 20
73758.31586062224
 10
54978.37669801319
 20
66750.71517213242
 10
71373.58488888164
 20
66211.12969235907
 10
70416.6915726915
 20
44987.02676969251
 10
71373.7371752497
 20
44987.02676969251
 10
71372.69431583087
 20
44984.112172868845
 10
71365.54083242957
 20
44955.55386629735
 10
71361.22099854887
 20
44926.43191179138
 10
71359.77641655054
 20
44897.02676969251
 10
71359.77641655054
 20
44837.02676969251
 10
70259.77641655054
 20
44837.02676969251
 10
71216.89856350416
 20
66066.20520871389
 10
54878.80282295852
 20
66603.91105094014
 10
51818.10414860827
 20
73613.3420995225
 10
27574.899097651152
 20
74876.47663600178
 10
30265.152646063605
 20
106010.82319804246
 10
52188.261884999185
 20
106238.37824126784
 10
69552.33830793266
 20
105923.9740769731
 10
77169.88563772866
 20
106660.84087519225
 10
89209.78331502715
 20
109178.94808501916
  0
LWPOLYLINE
  5
F1
330
17
100
AcDbEntity
  8
A-FENCE
100
AcDbPolyline
 90
19
 70
1
 10
87469.92699817114
 20
48521.36076078829
 10
86136.43950061385
 20
46184.30896550038
 10
84178.16712812347
 20
44837.0267696925
 10
83578.16712812347
 20
44837.0267696925
 10
83578.16712812347
 20
44897.0267696925
 10
83576.72254612514
 20
44926.43191179137
 10
83572.40271224444
 20
44955.553866297334
 10
83565.24922884314
 20
44984.11217286884
 10
83564.20636942431
 20
44987.0267696925
 10
84131.55100416519
 20
44987.0267696925
 10
86023.15667009194
 20
46288.4425844657
 10
87323.84521554488
 20
48568.01138869489
 10
87584.09096545244
 20
51169.411912272066
 10
87586.88727588225
 20
51168.08410265012
 10
87614.59165412346
 20
51158.12334839794
 10
87643.1389528584
 20
51150.92606182984
 10
87672.25424599469
 20
51146.561556749926
 10
87731.95623718544
 20
51140.58893187821
 10
87469.92699817114
 20
48521.36076078829
  0
LWPOLYLINE
  5
F2
330
17
100
AcDbEntity
  8
A-FENCE
100
AcDbPolyline
 90
13
 70
1
 10
77991.08502740381
 20
44984.11217286884
 10
77983.93154400251
 20
44955.55386629734
 10
77979.61171012181
 20
44926.43191179138
 10
77978.16712812347
 20
44897.02676969251
 10
77978.16712812347
 20
44837.02676969251
 10
73159.77641655054
 20
44837.02676969251
 10
73159.77641655054
 20
44897.02676969251
 10
73158.3318345522
 20
44926.43191179138
 10
73154.0120006715
 20
44955.55386629735
 10
73146.8585172702
 20
44984.112172868845
 10
73145.81565785136
 20
44987.02676969251
 10
77992.12788682265
 20
44987.02676969251
 10
77991.08502740381
 20
44984.11217286884
  0
LINE
  5
F3
330
17
100
AcDbEntity
  8
A-DOOR
370
35
100
AcDbLine
 10
83278.16712812347
 20
44837.0267696925
 30
0.0
 11
78278.16712812347
 21
44837.02676969251
 31
0.0
  0
LINE
  5
F4
330
17
100
AcDbEntity
  8
A-DOOR
370
35
100
AcDbLine
 10
72859.77641655054
 20
44837.02676969251
 30
0.0
 11
71659.77641655054
 21
44837.02676969251
 31
0.0
  0
LINE
  5
F5
330
17
100
AcDbEntity
  8
A-DOOR
370
35
100
AcDbLine
 10
87861.36310940598
 20
52434.13207434471
 30
0.0
 11
87761.81936154403
 21
51439.09888783201
 31
0.0
  0
LWPOLYLINE
  5
F6
330
17
100
AcDbEntity
  8
A-VIS
370
9
100
AcDbPolyline
 90
9
 70
0
 10
61464.44055450648
 20
76180.58423067283
 10
61464.44055450648
 20
76300.58423067283
 10
61464.44055450648
 20
94800.58423067283
 10
61464.44055450648
 20
94920.58423067283
 10
80204.44055450648
 20
94920.58423067283
 10
80204.44055450648
 20
94800.58423067283
 10
80204.44055450648
 20
76300.58423067283
 10
80204.44055450648
 20
76180.58423067283
 10
61464.44055450648
 20
76180.58423067283
  0
LWPOLYLINE
  5
F7
330
17
100
AcDbEntity
  8
A-VIS
370
9
100
AcDbPolyline
 90
5
 70
0
 10
80084.44055450648
 20
76300.58423067283
 10
80084.44055450648
 20
94800.58423067283
 10
61584.44055450648
 20
94800.58423067283
 10
61584.44055450648
 20
76300.58423067283
 10
80084.44055450648
 20
76300.58423067283
  0
LWPOLYLINE
  5
F8
330
17
100
AcDbEntity
  8
A-VIS
370
9
100
AcDbPolyline
 90
9
 70
0
 10
61584.44055450648
 20
76300.58423067283
 10
61584.44055450648
 20
76550.58423067283
 10
61584.44055450648
 20
94550.58423067283
 10
61584.44055450648
 20
94800.58423067283
 10
80084.44055450648
 20
94800.58423067283
 10
80084.44055450648
 20
94550.58423067283
 10
80084.44055450648
 20
76550.58423067283
 10
80084.44055450648
 20
76300.58423067283
 10
61584.44055450648
 20
76300.58423067283
  0
LWPOLYLINE
  5
F9
330
17
100
AcDbEntity
  8
A-VIS
370
9
100
AcDbPolyline
 90
5
 70
0
 10
79834.44055450648
 20
76550.58423067283
 10
79834.44055450648
 20
94550.58423067283
 10
61834.44055450648
 20
94550.58423067283
 10
61834.44055450648
 20
76550.58423067283
 10
79834.44055450648
 20
76550.58423067283
  0
LWPOLYLINE
  5
FA
330
17
100
AcDbEntity
  8
A-DOOR
370
9
100
AcDbPolyline
 90
6
 70
0
 10
70558.94055450648
 20
76180.58423067283
 10
70559.44055450648
 20
76180.58423067283
 10
70559.44055450648
 20
76150.58423067283
 10
68859.44055450648
 20
76150.58423067283
 10
68859.44055450648
 20
76180.58423067283
 10
68859.94055450648
 20
76180.58423067283
  0
LWPOLYLINE
  5
FB
330
17
100
AcDbEntity
  8
A-DOOR
370
9
100
AcDbPolyline
 90
6
 70
0
 10
80204.44055450648
 20
92975.08423067283
 10
80204.44055450648
 20
92975.58423067283
 10
80234.44055450648
 20
92975.58423067283
 10
80234.44055450648
 20
91875.58423067283
 10
80204.44055450648
 20
91875.58423067283
 10
80204.44055450648
 20
91876.08423067283
  0
LWPOLYLINE
  5
FC
330
17
100
AcDbEntity
  8
A-DOOR
370
9
100
AcDbPolyline
 90
6
 70
0
 10
61464.44055450648
 20
83576.08423067283
 10
61464.44055450648
 20
83575.58423067283
 10
61434.44055450648
 20
83575.58423067283
 10
61434.44055450648
 20
85275.58423067283
 10
61464.44055450648
 20
85275.58423067283
 10
61464.44055450648
 20
85275.08423067283
  0
LWPOLYLINE
  5
FD
330
17
100
AcDbEntity
  8
A-DOOR
370
9
100
AcDbPolyline
 90
6
 70
0
 10
61464.44055450648
 20
86176.08423067283
 10
61464.44055450648
 20
86175.58423067283
 10
61434.44055450648
 20
86175.58423067283
 10
61434.44055450648
 20
87275.58423067283
 10
61464.44055450648
 20
87275.58423067283
 10
61464.44055450648
 20
87275.08423067283
  0
LWPOLYLINE
  5
FE
330
17
100
AcDbEntity
  8
A-DOOR
370
9
100
AcDbPolyline
 90
6
 70
0
 10
63658.94055450648
 20
76180.58423067283
 10
63659.44055450648
 20
76180.58423067283
 10
63659.44055450648
 20
76150.58423067283
 10
62559.44055450648
 20
76150.58423067283
 10
62559.44055450648
 20
76180.58423067283
 10
62559.94055450648
 20
76180.58423067283
  0
LWPOLYLINE
  5
FF
330
17
100
AcDbEntity
  8
A-DOOR
370
9
100
AcDbPolyline
 90
6
 70
0
 10
66958.94055450648
 20
76180.58423067283
 10
66959.44055450648
 20
76180.58423067283
 10
66959.44055450648
 20
76150.58423067283
 10
65859.44055450648
 20
76150.58423067283
 10
65859.44055450648
 20
76180.58423067283
 10
65859.94055450648
 20
76180.58423067283
  0
LWPOLYLINE
  5
100
330
17
100
AcDbEntity
  8
A-DOOR
370
9
100
AcDbPolyline
 90
6
 70
0
 10
80204.44055450648
 20
79375.08423067283
 10
80204.44055450648
 20
79375.58423067283
 10
80234.44055450648
 20
79375.58423067283
 10
80234.44055450648
 20
77075.58423067283
 10
80204.44055450648
 20
77075.58423067283
 10
80204.44055450648
 20
77076.08423067283
  0
LWPOLYLINE
  5
101
330
17
100
AcDbEntity
  8
A-DOOR
370
9
100
AcDbPolyline
 90
6
 70
0
 10
80204.44055450648
 20
82075.08423067283
 10
80204.44055450648
 20
82075.58423067283
 10
80234.44055450648
 20
82075.58423067283
 10
80234.44055450648
 20
79775.58423067283
 10
80204.44055450648
 20
79775.58423067283
 10
80204.44055450648
 20
79776.08423067283
  0
LWPOLYLINE
  5
102
330
17
100
AcDbEntity
  8
A-VIS
370
9
100
AcDbPolyline
 90
8
 70
0
 10
70559.44055450648
 20
76180.08423067283
 10
70559.44055450648
 20
76180.58423067283
 10
71309.44055450648
 20
76180.58423067283
 10
72609.44055450648
 20
76180.58423067283
 10
72609.44055450648
 20
74180.58423067283
 10
69009.44055450648
 20
74180.58423067283
 10
69009.44055450648
 20
76150.58423067283
 10
69009.94055450648
 20
76150.58423067283
  0
LWPOLYLINE
  5
103
330
17
100
AcDbEntity
  8
A-DOOR
370
9
100
AcDbPolyline
 90
5
 70
0
 10
65258.94055450648
 20
76180.58423067283
 10
65259.44055450648
 20
76180.58423067283
 10
65259.44055450648
 20
76150.58423067283
 10
63659.44055450648
 20
76150.58423067283
 10
63659.44055450648
 20
76151.08423067283
  0
LWPOLYLINE
  5
104
330
17
100
AcDbEntity
  8
A-DOOR
370
9
100
AcDbPolyline
 90
6
 70
0
 10
61464.44055450648
 20
78776.08423067283
 10
61464.44055450648
 20
78775.58423067283
 10
61434.44055450648
 20
78775.58423067283
 10
61434.44055450648
 20
80075.58423067283
 10
61464.44055450648
 20
80075.58423067283
 10
61464.44055450648
 20
80075.08423067283
  0
LWPOLYLINE
  5
105
330
17
100
AcDbEntity
  8
A-DOOR
370
9
100
AcDbPolyline
 90
5
 70
0
 10
80204.44055450648
 20
93175.08423067283
 10
80204.44055450648
 20
93175.58423067283
 10
80234.44055450648
 20
93175.58423067283
 10
80234.44055450648
 20
92975.58423067283
 10
80233.94055450648
 20
92975.58423067283
  0
LWPOLYLINE
  5
106
330
17
100
AcDbEntity
  8
A-VIS
370
9
100
AcDbPolyline
 90
5
 70
0
 10
69809.44055450648
 20
69245.58423067283
 10
69809.44055450648
 20
69425.58423067283
 10
73609.44055450648
 20
69425.58423067283
 10
73609.44055450648
 20
69245.58423067283
 10
69809.44055450648
 20
69245.58423067283
  0
LWPOLYLINE
  5
107
330
17
100
AcDbEntity
  8
A-STRS
370
9
100
AcDbPolyline
 90
5
 70
0
 10
69809.44055450648
 20
73880.58423067283
 10
69809.44055450648
 20
74180.58423067283
 10
71809.44055450648
 20
74180.58423067283
 10
71809.44055450648
 20
73880.58423067283
 10
69809.44055450648
 20
73880.58423067283
  0
LWPOLYLINE
  5
108
330
17
100
AcDbEntity
  8
A-STRS
370
9
100
AcDbPolyline
 90
5
 70
0
 10
69809.44055450648
 20
73580.58423067283
 10
69809.44055450648
 20
73880.58423067283
 10
71809.44055450648
 20
73880.58423067283
 10
71809.44055450648
 20
73580.58423067283
 10
69809.44055450648
 20
73580.58423067283
  0
LWPOLYLINE
  5
109
330
17
100
AcDbEntity
  8
A-STRS
370
9
100
AcDbPolyline
 90
5
 70
0
 10
69809.44055450648
 20
73280.58423067283
 10
69809.44055450648
 20
73580.58423067283
 10
71809.44055450648
 20
73580.58423067283
 10
71809.44055450648
 20
73280.58423067283
 10
69809.44055450648
 20
73280.58423067283
  0
LWPOLYLINE
  5
10A
330
17
100
AcDbEntity
  8
A-CUT
370
50
100
AcDbPolyline
 90
4
 70
1
 10
61464.44055450648
 20
76180.58423067283
 10
80204.44055450648
 20
76180.58423067283
 10
80204.44055450648
 20
94920.58423067283
 10
61464.44055450648
 20
94920.58423067283
  0
HATCH
  5
10B
330
17
100
AcDbEntity
  8
A-PAVE
 62
7
100
AcDbHatch
 10
0.0
 20
0.0
 30
0.0
210
0.0
220
0.0
230
1.0
  2
NET
 70
0
 71
0
 91
1
 92
3
 72
0
 73
1
 93
5
 10
73509.44055450648
 20
56025.58423067284
 10
85009.44055450648
 20
56025.58423067284
 10
85009.44055450648
 20
45591.010657570405
 10
84768.99352530853
 20
45425.58423067284
 10
73509.44055450648
 20
45425.58423067284
 97
0
 75
1
 76
1
 52
0.0
 41
157.48031496062993
 77
0
 78
2
 53
0.0
 43
0.0
 44
0.0
 45
0.0
 46
500.0
 79
0
 53
90.0
 43
0.0
 44
0.0
 45
-500.0
 46
0.0
 79
0
 98
0
  0
LWPOLYLINE
  5
10C
330
17
100
AcDbEntity
  8
A-VIS
370
25
100
AcDbPolyline
 90
4
 70
1
 10
34709.44055450648
 20
87425.58423067283
 10
52709.44055450648
 20
87425.58423067283
 10
52709.44055450648
 20
97425.58423067283
 10
34709.44055450648
 20
97425.58423067283
  0
LINE
  5
10D
330
17
100
AcDbEntity
  8
A-VIS
100
AcDbLine
 10
34709.44055450648
 20
87425.58423067283
 30
0.0
 11
52709.44055450648
 21
97425.58423067283
 31
0.0
  0
LINE
  5
10E
330
17
100
AcDbEntity
  8
A-VIS
100
AcDbLine
 10
34709.44055450648
 20
97425.58423067283
 30
0.0
 11
52709.44055450648
 21
87425.58423067283
 31
0.0
  0
CIRCLE
  5
10F
330
17
100
AcDbEntity
  8
A-SYMB
100
AcDbCircle
 10
30265.152646063605
 20
106010.82319804246
 30
0.0
 40
450.0
  0
TEXT
  5
110
330
17
100
AcDbEntity
  8
A-SYMB
100
AcDbText
 10
28398.154998238566
 20
107174.57565583396
 30
0.0
 40
900.0
  1
1
  7
JP
 72
1
 11
28398.154998238566
 21
107174.57565583396
 31
0.0
100
AcDbText
 73
2
  0
CIRCLE
  5
111
330
17
100
AcDbEntity
  8
A-SYMB
100
AcDbCircle
 10
52188.261884999185
 20
106238.37824126784
 30
0.0
 40
450.0
  0
TEXT
  5
112
330
17
100
AcDbEntity
  8
A-SYMB
100
AcDbText
 10
51064.32631194385
 20
108129.6129775237
 30
0.0
 40
900.0
  1
2
  7
JP
 72
1
 11
51064.32631194385
 21
108129.6129775237
 31
0.0
100
AcDbText
 73
2
  0
CIRCLE
  5
113
330
17
100
AcDbEntity
  8
A-SYMB
100
AcDbCircle
 10
69552.33830793266
 20
105923.9740769731
 30
0.0
 40
450.0
  0
TEXT
  5
114
330
17
100
AcDbEntity
  8
A-SYMB
100
AcDbText
 10
69974.16076174173
 20
108083.15582417793
 30
0.0
 40
900.0
  1
3
  7
JP
 72
1
 11
69974.16076174173
 21
108083.15582417793
 31
0.0
100
AcDbText
 73
2
  0
CIRCLE
  5
115
330
17
100
AcDbEntity
  8
A-SYMB
100
AcDbCircle
 10
77169.88563772866
 20
106660.84087519225
 30
0.0
 40
450.0
  0
TEXT
  5
116
330
17
100
AcDbEntity
  8
A-SYMB
100
AcDbText
 10
78196.59282711153
 20
108606.57270339198
 30
0.0
 40
900.0
  1
4
  7
JP
 72
1
 11
78196.59282711153
 21
108606.57270339198
 31
0.0
100
AcDbText
 73
2
  0
CIRCLE
  5
117
330
17
100
AcDbEntity
  8
A-SYMB
100
AcDbCircle
 10
89209.78331502715
 20
109178.94808501916
 30
0.0
 40
450.0
  0
TEXT
  5
118
330
17
100
AcDbEntity
  8
A-SYMB
100
AcDbText
 10
90730.02440377862
 20
110769.1892717804
 30
0.0
 40
900.0
  1
5
  7
JP
 72
1
 11
90730.02440377862
 21
110769.1892717804
 31
0.0
100
AcDbText
 73
2
  0
CIRCLE
  5
119
330
17
100
AcDbEntity
  8
A-SYMB
100
AcDbCircle
 10
88852.27071869929
 20
111762.00533244264
 30
0.0
 40
450.0
  0
TEXT
  5
11A
330
17
100
AcDbEntity
  8
A-SYMB
100
AcDbText
 10
90280.51910509601
 20
113435.35722214045
 30
0.0
 40
900.0
  1
6
  7
JP
 72
1
 11
90280.51910509601
 21
113435.35722214045
 31
0.0
100
AcDbText
 73
2
  0
CIRCLE
  5
11B
330
17
100
AcDbEntity
  8
A-SYMB
100
AcDbCircle
 10
97425.10090234884
 20
115162.97323030749
 30
0.0
 40
450.0
  0
TEXT
  5
11C
330
17
100
AcDbEntity
  8
A-SYMB
100
AcDbText
 10
99008.34570029704
 20
116690.49930529608
 30
0.0
 40
900.0
  1
7
  7
JP
 72
1
 11
99008.34570029704
 21
116690.49930529608
 31
0.0
100
AcDbText
 73
2
  0
CIRCLE
  5
11D
330
17
100
AcDbEntity
  8
A-SYMB
100
AcDbCircle
 10
95295.5443599136
 20
101906.84299058176
 30
0.0
 40
450.0
  0
TEXT
  5
11E
330
17
100
AcDbEntity
  8
A-SYMB
100
AcDbText
 10
97189.22925071442
 20
103026.6454438532
 30
0.0
 40
900.0
  1
8
  7
JP
 72
1
 11
97189.22925071442
 21
103026.6454438532
 31
0.0
100
AcDbText
 73
2
  0
CIRCLE
  5
11F
330
17
100
AcDbEntity
  8
A-SYMB
100
AcDbCircle
 10
90724.90100621725
 20
81057.88092209233
 30
0.0
 40
450.0
  0
TEXT
  5
120
330
17
100
AcDbEntity
  8
A-SYMB
100
AcDbText
 10
92908.58937585344
 20
80790.4765385912
 30
0.0
 40
900.0
  1
9
  7
JP
 72
1
 11
92908.58937585344
 21
80790.4765385912
 31
0.0
100
AcDbText
 73
2
  0
CIRCLE
  5
121
330
17
100
AcDbEntity
  8
A-SYMB
100
AcDbCircle
 10
87469.92699817114
 20
48521.36076078829
 30
0.0
 40
450.0
  0
TEXT
  5
122
330
17
100
AcDbEntity
  8
A-SYMB
100
AcDbText
 10
88631.63647603484
 20
46653.091216787296
 30
0.0
 40
900.0
  1
10
  7
JP
 72
1
 11
88631.63647603484
 21
46653.091216787296
 31
0.0
100
AcDbText
 73
2
  0
CIRCLE
  5
123
330
17
100
AcDbEntity
  8
A-SYMB
100
AcDbCircle
 10
86136.43950061385
 20
46184.30896550038
 30
0.0
 40
450.0
  0
TEXT
  5
124
330
17
100
AcDbEntity
  8
A-SYMB
100
AcDbText
 10
87194.36559292213
 20
44255.37340846034
 30
0.0
 40
900.0
  1
11
  7
JP
 72
1
 11
87194.36559292213
 21
44255.37340846034
 31
0.0
100
AcDbText
 73
2
  0
CIRCLE
  5
125
330
17
100
AcDbEntity
  8
A-SYMB
100
AcDbCircle
 10
84178.16712812347
 20
44837.0267696925
 30
0.0
 40
450.0
  0
TEXT
  5
126
330
17
100
AcDbEntity
  8
A-SYMB
100
AcDbText
 10
85129.98066998088
 20
42853.5825477551
 30
0.0
 40
900.0
  1
12
  7
JP
 72
1
 11
85129.98066998088
 21
42853.5825477551
 31
0.0
100
AcDbText
 73
2
  0
CIRCLE
  5
127
330
17
100
AcDbEntity
  8
A-SYMB
100
AcDbCircle
 10
70259.77641655054
 20
44837.02676969251
 30
0.0
 40
450.0
  0
TEXT
  5
128
330
17
100
AcDbEntity
  8
A-SYMB
100
AcDbText
 10
70534.86052086051
 20
42654.29253585734
 30
0.0
 40
900.0
  1
13
  7
JP
 72
1
 11
70534.86052086051
 21
42654.29253585734
 31
0.0
100
AcDbText
 73
2
  0
CIRCLE
  5
129
330
17
100
AcDbEntity
  8
A-SYMB
100
AcDbCircle
 10
71216.89856350416
 20
66066.20520871389
 30
0.0
 40
450.0
  0
TEXT
  5
12A
330
17
100
AcDbEntity
  8
A-SYMB
100
AcDbText
 10
71900.04466226588
 20
63974.95883208904
 30
0.0
 40
900.0
  1
14
  7
JP
 72
1
 11
71900.04466226588
 21
63974.95883208904
 31
0.0
100
AcDbText
 73
2
  0
CIRCLE
  5
12B
330
17
100
AcDbEntity
  8
A-SYMB
100
AcDbCircle
 10
54878.80282295852
 20
66603.91105094014
 30
0.0
 40
450.0
  0
TEXT
  5
12C
330
17
100
AcDbEntity
  8
A-SYMB
100
AcDbText
 10
53756.144925070505
 20
64711.917593152895
 30
0.0
 40
900.0
  1
15
  7
JP
 72
1
 11
53756.144925070505
 21
64711.917593152895
 31
0.0
100
AcDbText
 73
2
  0
CIRCLE
  5
12D
330
17
100
AcDbEntity
  8
A-SYMB
100
AcDbCircle
 10
51818.10414860827
 20
73613.3420995225
 30
0.0
 40
450.0
  0
TEXT
  5
12E
330
17
100
AcDbEntity
  8
A-SYMB
100
AcDbText
 10
50085.875613955024
 20
72257.10307054088
 30
0.0
 40
900.0
  1
16
  7
JP
 72
1
 11
50085.875613955024
 21
72257.10307054088
 31
0.0
100
AcDbText
 73
2
  0
CIRCLE
  5
12F
330
17
100
AcDbEntity
  8
A-SYMB
100
AcDbCircle
 10
27574.899097651152
 20
74876.47663600178
 30
0.0
 40
450.0
  0
TEXT
  5
130
330
17
100
AcDbEntity
  8
A-SYMB
100
AcDbText
 10
25438.767244558298
 20
74350.2250742919
 30
0.0
 40
900.0
  1
17
  7
JP
 72
1
 11
25438.767244558298
 21
74350.2250742919
 31
0.0
100
AcDbText
 73
2
  0
TEXT
  5
131
330
17
100
AcDbEntity
  8
A-TEXT
100
AcDbText
 10
31709.440554506484
 20
128425.58423067283
 30
0.0
 40
1000.0
  1
水路（法定外公共物）／北側道路（幅員4m未満）TP+112.5〜113.0
  7
JP
 72
1
 11
31709.440554506484
 21
128425.58423067283
 31
0.0
100
AcDbText
 73
2
  0
TEXT
  5
132
330
17
100
AcDbEntity
  8
A-TEXT
100
AcDbText
 10
101709.44055450648
 20
71425.58423067283
 30
0.0
 40
1000.0
  1
東側道路 幅員約5.5m（北へ上り TP+109.0→112.9）
  7
JP
 72
1
 11
101709.44055450648
 21
71425.58423067283
 31
0.0
100
AcDbText
 73
2
  0
TEXT
  5
133
330
17
100
AcDbEntity
  8
A-TEXT
100
AcDbText
 10
41709.44055450648
 20
34425.58423067284
 30
0.0
 40
1000.0
  1
南側道路 幅員約7.4m TP+109.0（設計GL±0）
  7
JP
 72
1
 11
41709.44055450648
 21
34425.58423067284
 31
0.0
100
AcDbText
 73
2
  0
TEXT
  5
134
330
17
100
AcDbEntity
  8
A-ROOM
100
AcDbText
 10
70834.44055450648
 20
87050.58423067283
 30
0.0
 40
1100.0
  1
建物（壁式RC造 2階建て）
  7
JP
 72
1
 11
70834.44055450648
 21
87050.58423067283
 31
0.0
100
AcDbText
 73
2
  0
TEXT
  5
135
330
17
100
AcDbEntity
  8
A-TEXT
100
AcDbText
 10
79109.44055450648
 20
46525.58423067284
 30
0.0
 40
950.0
  1
駐車場（Dotcon+）
  7
JP
 72
1
 11
79109.44055450648
 21
46525.58423067284
 31
0.0
100
AcDbText
 73
2
  0
TEXT
  5
136
330
17
100
AcDbEntity
  8
A-TEXT
100
AcDbText
 10
43709.44055450648
 20
85425.58423067283
 30
0.0
 40
900.0
  1
ソーラーパーゴラ（菜園）
  7
JP
 72
1
 11
43709.44055450648
 21
85425.58423067283
 31
0.0
100
AcDbText
 73
2
  0
TEXT
  5
137
330
17
100
AcDbEntity
  8
A-TEXT
100
AcDbText
 10
44709.44055450648
 20
103925.58423067283
 30
0.0
 40
950.0
  1
庭・雨水貯留浸透
  7
JP
 72
1
 11
44709.44055450648
 21
103925.58423067283
 31
0.0
100
AcDbText
 73
2
  0
TEXT
  5
138
330
17
100
AcDbEntity
  8
A-TEXT
100
AcDbText
 10
53709.44055450648
 20
102425.58423067283
 30
0.0
 40
850.0
  1
破線: 既存建物（解体）
  7
JP
 72
1
 11
53709.44055450648
 21
102425.58423067283
 31
0.0
100
AcDbText
 73
2
  0
TEXT
  5
139
330
17
100
AcDbEntity
  8
A-TERRAIN
100
AcDbText
 10
70309.44055450648
 20
83225.58423067283
 30
0.0
 40
800.0
  1
+109.6
  7
JP
 72
1
 11
70309.44055450648
 21
83225.58423067283
 31
0.0
100
AcDbText
 73
2
  0
LINE
  5
13A
330
17
100
AcDbEntity
  8
A-TERRAIN
100
AcDbLine
 10
69909.44055450648
 20
85025.58423067283
 30
0.0
 11
70709.44055450648
 21
85025.58423067283
 31
0.0
  0
LINE
  5
13B
330
17
100
AcDbEntity
  8
A-TERRAIN
100
AcDbLine
 10
70309.44055450648
 20
84625.58423067283
 30
0.0
 11
70309.44055450648
 21
85425.58423067283
 31
0.0
  0
TEXT
  5
13C
330
17
100
AcDbEntity
  8
A-TERRAIN
100
AcDbText
 10
43709.44055450648
 20
92625.58423067283
 30
0.0
 40
800.0
  1
+109.4
  7
JP
 72
1
 11
43709.44055450648
 21
92625.58423067283
 31
0.0
100
AcDbText
 73
2
  0
LINE
  5
13D
330
17
100
AcDbEntity
  8
A-TERRAIN
100
AcDbLine
 10
43309.44055450648
 20
94425.58423067283
 30
0.0
 11
44109.44055450648
 21
94425.58423067283
 31
0.0
  0
LINE
  5
13E
330
17
100
AcDbEntity
  8
A-TERRAIN
100
AcDbLine
 10
43709.44055450648
 20
94025.58423067283
 30
0.0
 11
43709.44055450648
 21
94825.58423067283
 31
0.0
  0
TEXT
  5
13F
330
17
100
AcDbEntity
  8
A-TERRAIN
100
AcDbText
 10
69709.44055450648
 20
50625.58423067284
 30
0.0
 40
800.0
  1
+109.2
  7
JP
 72
1
 11
69709.44055450648
 21
50625.58423067284
 31
0.0
100
AcDbText
 73
2
  0
LINE
  5
140
330
17
100
AcDbEntity
  8
A-TERRAIN
100
AcDbLine
 10
69309.44055450648
 20
52425.58423067284
 30
0.0
 11
70109.44055450648
 21
52425.58423067284
 31
0.0
  0
LINE
  5
141
330
17
100
AcDbEntity
  8
A-TERRAIN
100
AcDbLine
 10
69709.44055450648
 20
52025.58423067284
 30
0.0
 11
69709.44055450648
 21
52825.58423067284
 31
0.0
  0
TEXT
  5
142
330
17
100
AcDbEntity
  8
A-TERRAIN
100
AcDbText
 10
69709.44055450648
 20
114625.58423067283
 30
0.0
 40
800.0
  1
+112.7
  7
JP
 72
1
 11
69709.44055450648
 21
114625.58423067283
 31
0.0
100
AcDbText
 73
2
  0
LINE
  5
143
330
17
100
AcDbEntity
  8
A-TERRAIN
100
AcDbLine
 10
69309.44055450648
 20
116425.58423067283
 30
0.0
 11
70109.44055450648
 21
116425.58423067283
 31
0.0
  0
LINE
  5
144
330
17
100
AcDbEntity
  8
A-TERRAIN
100
AcDbLine
 10
69709.44055450648
 20
116025.58423067283
 30
0.0
 11
69709.44055450648
 21
116825.58423067283
 31
0.0
  0
TEXT
  5
145
330
17
100
AcDbEntity
  8
A-TERRAIN
100
AcDbText
 10
91709.44055450648
 20
89625.58423067283
 30
0.0
 40
800.0
  1
+111.4
  7
JP
 72
1
 11
91709.44055450648
 21
89625.58423067283
 31
0.0
100
AcDbText
 73
2
  0
LINE
  5
146
330
17
100
AcDbEntity
  8
A-TERRAIN
100
AcDbLine
 10
91309.44055450648
 20
91425.58423067283
 30
0.0
 11
92109.44055450648
 21
91425.58423067283
 31
0.0
  0
LINE
  5
147
330
17
100
AcDbEntity
  8
A-TERRAIN
100
AcDbLine
 10
91709.44055450648
 20
91025.58423067283
 30
0.0
 11
91709.44055450648
 21
91825.58423067283
 31
0.0
  0
TEXT
  5
148
330
17
100
AcDbEntity
  8
A-TERRAIN
100
AcDbText
 10
51709.44055450648
 20
34625.58423067284
 30
0.0
 40
800.0
  1
+109.2
  7
JP
 72
1
 11
51709.44055450648
 21
34625.58423067284
 31
0.0
100
AcDbText
 73
2
  0
LINE
  5
149
330
17
100
AcDbEntity
  8
A-TERRAIN
100
AcDbLine
 10
51309.44055450648
 20
36425.58423067284
 30
0.0
 11
52109.44055450648
 21
36425.58423067284
 31
0.0
  0
LINE
  5
14A
330
17
100
AcDbEntity
  8
A-TERRAIN
100
AcDbLine
 10
51709.44055450648
 20
36025.58423067284
 30
0.0
 11
51709.44055450648
 21
36825.58423067284
 31
0.0
  0
TEXT
  5
14B
330
17
100
AcDbEntity
  8
A-TERRAIN
100
AcDbText
 10
86709.44055450648
 20
49625.58423067284
 30
0.0
 40
800.0
  1
+109.1
  7
JP
 72
1
 11
86709.44055450648
 21
49625.58423067284
 31
0.0
100
AcDbText
 73
2
  0
LINE
  5
14C
330
17
100
AcDbEntity
  8
A-TERRAIN
100
AcDbLine
 10
86309.44055450648
 20
51425.58423067284
 30
0.0
 11
87109.44055450648
 21
51425.58423067284
 31
0.0
  0
LINE
  5
14D
330
17
100
AcDbEntity
  8
A-TERRAIN
100
AcDbLine
 10
86709.44055450648
 20
51025.58423067284
 30
0.0
 11
86709.44055450648
 21
51825.58423067284
 31
0.0
  0
CIRCLE
  5
14E
330
17
100
AcDbEntity
  8
A-SYMB
100
AcDbCircle
 10
15000.0
 20
135000.0
 30
0.0
 40
3000.0
  0
LWPOLYLINE
  5
14F
330
17
100
AcDbEntity
  8
A-SYMB
100
AcDbPolyline
 90
4
 70
1
 10
14361.99520591009
 20
137931.37337825092
 10
14356.822194066119
 20
133017.87429511797
 10
15191.401438226972
 20
134120.5879865247
 10
16408.783558841773
 20
133464.4776509809
  0
HATCH
  5
150
330
17
100
AcDbEntity
  8
A-SYMB
 62
7
100
AcDbHatch
 10
0.0
 20
0.0
 30
0.0
210
0.0
220
0.0
230
1.0
  2
SOLID
 70
1
 71
0
 91
1
 92
3
 72
0
 73
1
 93
3
 10
14361.99520591009
 20
137931.37337825092
 10
15191.401438226972
 20
134120.5879865247
 10
16408.783558841773
 20
133464.4776509809
 97
0
 75
0
 76
1
 98
0
  0
TEXT
  5
151
330
17
100
AcDbEntity
  8
A-SYMB
100
AcDbText
 10
14128.060114743792
 20
139006.2102836096
 30
0.0
 40
1750.0
  1
N
 50
12.278765370963004
  7
JP
 72
1
 11
14128.060114743792
 21
139006.2102836096
 31
0.0
100
AcDbText
 73
2
  0
TEXT
  5
152
330
17
100
AcDbEntity
  8
A-SYMB
100
AcDbText
 10
15000.0
 20
130750.0
 30
0.0
 40
800.0
  1
真北 12.3°西振れ（建物は南側道路に平行）
  7
JP
 72
1
 11
15000.0
 21
130750.0
 31
0.0
100
AcDbText
 73
3
  0
TEXT
  5
153
330
17
100
AcDbEntity
  8
A-TEXT
100
AcDbText
 10
9000.0
 20
11000.0
 30
0.0
 40
2000.0
  1
配置図
  7
JP
 11
9000.0
 21
11000.0
 31
0.0
100
AcDbText
 73
1
  0
LINE
  5
154
330
17
100
AcDbEntity
  8
A-SYMB
370
50
100
AcDbLine
 10
9000.0
 20
10400.0
 30
0.0
 11
18780.0
 21
10400.0
 31
0.0
  0
TEXT
  5
155
330
17
100
AcDbEntity
  8
A-TEXT
100
AcDbText
 10
19280.0
 20
11000.0
 30
0.0
 40
1400.0
  1
S=1:500
  7
JP
 11
19280.0
 21
11000.0
 31
0.0
100
AcDbText
 73
1
  0
TEXT
  5
156
330
17
100
AcDbEntity
  8
A-TEXT
100
AcDbText
 10
9000.0
 20
7500.0
 30
0.0
 40
1000.0
  1
敷地境界・道路縁・水路・隣接建物・等高線: 国土地理院 基盤地図情報／標高: DEM5A（TP m）
  7
JP
 11
9000.0
 21
7500.0
 31
0.0
100
AcDbText
  0
TEXT
  5
157
330
17
100
AcDbEntity
  8
A-TEXT
100
AcDbText
 10
125000.0
 20
140000.0
 30
0.0
 40
1300.0
  1
座標求積表（建物 X1・Y1 壁芯交点を原点、m）
  7
JP
 11
125000.0
 21
140000.0
 31
0.0
100
AcDbText
  0
LWPOLYLINE
  5
158
330
17
100
AcDbEntity
  8
G-TABLE
370
35
100
AcDbPolyline
 90
2
 70
0
 10
125000.0
 20
138500.0
 10
185000.0
 20
138500.0
  0
TEXT
  5
159
330
17
100
AcDbEntity
  8
A-TEXT
100
AcDbText
 10
125500.0
 20
136975.0
 30
0.0
 40
925.0
  1
点
  7
JP
 11
125500.0
 21
136975.0
 31
0.0
100
AcDbText
  0
TEXT
  5
15A
330
17
100
AcDbEntity
  8
A-TEXT
100
AcDbText
 10
131500.0
 20
136975.0
 30
0.0
 40
925.0
  1
X(m)
  7
JP
 11
131500.0
 21
136975.0
 31
0.0
100
AcDbText
  0
TEXT
  5
15B
330
17
100
AcDbEntity
  8
A-TEXT
100
AcDbText
 10
146500.0
 20
136975.0
 30
0.0
 40
925.0
  1
Y(m)
  7
JP
 11
146500.0
 21
136975.0
 31
0.0
100
AcDbText
  0
TEXT
  5
15C
330
17
100
AcDbEntity
  8
A-TEXT
100
AcDbText
 10
161500.0
 20
136975.0
 30
0.0
 40
925.0
  1
Xn(Yn+1−Yn−1)
  7
JP
 11
161500.0
 21
136975.0
 31
0.0
100
AcDbText
  0
LWPOLYLINE
  5
15D
330
17
100
AcDbEntity
  8
G-TABLE
370
35
100
AcDbPolyline
 90
2
 70
0
 10
125000.0
 20
136200.0
 10
185000.0
 20
136200.0
  0
TEXT
  5
15E
330
17
100
AcDbEntity
  8
A-TEXT
100
AcDbText
 10
125500.0
 20
134674.99999999997
 30
0.0
 40
925.0
  1
1
  7
JP
 11
125500.0
 21
134674.99999999997
 31
0.0
100
AcDbText
  0
TEXT
  5
15F
330
17
100
AcDbEntity
  8
A-TEXT
100
AcDbText
 10
131500.0
 20
134674.99999999997
 30
0.0
 40
925.0
  1
-31.44
  7
JP
 11
131500.0
 21
134674.99999999997
 31
0.0
100
AcDbText
  0
TEXT
  5
160
330
17
100
AcDbEntity
  8
A-TEXT
100
AcDbText
 10
146500.0
 20
134674.99999999997
 30
0.0
 40
925.0
  1
29.59
  7
JP
 11
146500.0
 21
134674.99999999997
 31
0.0
100
AcDbText
  0
TEXT
  5
161
330
17
100
AcDbEntity
  8
A-TEXT
100
AcDbText
 10
161500.0
 20
134674.99999999997
 30
0.0
 40
925.0
  1
-986.15
  7
JP
 11
161500.0
 21
134674.99999999997
 31
0.0
100
AcDbText
  0
LWPOLYLINE
  5
162
330
17
100
AcDbEntity
  8
G-TABLE
370
18
100
AcDbPolyline
 90
2
 70
0
 10
125000.0
 20
133899.99999999997
 10
185000.0
 20
133899.99999999997
  0
TEXT
  5
163
330
17
100
AcDbEntity
  8
A-TEXT
100
AcDbText
 10
125500.0
 20
132374.99999999997
 30
0.0
 40
925.0
  1
2
  7
JP
 11
125500.0
 21
132374.99999999997
 31
0.0
100
AcDbText
  0
TEXT
  5
164
330
17
100
AcDbEntity
  8
A-TEXT
100
AcDbText
 10
131500.0
 20
132374.99999999997
 30
0.0
 40
925.0
  1
-9.52
  7
JP
 11
131500.0
 21
132374.99999999997
 31
0.0
100
AcDbText
  0
TEXT
  5
165
330
17
100
AcDbEntity
  8
A-TEXT
100
AcDbText
 10
146500.0
 20
132374.99999999997
 30
0.0
 40
925.0
  1
29.81
  7
JP
 11
146500.0
 21
132374.99999999997
 31
0.0
100
AcDbText
  0
TEXT
  5
166
330
17
100
AcDbEntity
  8
A-TEXT
100
AcDbText
 10
161500.0
 20
132374.99999999997
 30
0.0
 40
925.0
  1
0.83
  7
JP
 11
161500.0
 21
132374.99999999997
 31
0.0
100
AcDbText
  0
LWPOLYLINE
  5
167
330
17
100
AcDbEntity
  8
G-TABLE
370
18
100
AcDbPolyline
 90
2
 70
0
 10
125000.0
 20
131599.99999999997
 10
185000.0
 20
131599.99999999997
  0
TEXT
  5
168
330
17
100
AcDbEntity
  8
A-TEXT
100
AcDbText
 10
125500.0
 20
130074.99999999996
 30
0.0
 40
925.0
  1
3
  7
JP
 11
125500.0
 21
130074.99999999996
 31
0.0
100
AcDbText
  0
TEXT
  5
169
330
17
100
AcDbEntity
  8
A-TEXT
100
AcDbText
 10
131500.0
 20
130074.99999999996
 30
0.0
 40
925.0
  1
7.84
  7
JP
 11
131500.0
 21
130074.99999999996
 31
0.0
100
AcDbText
  0
TEXT
  5
16A
330
17
100
AcDbEntity
  8
A-TEXT
100
AcDbText
 10
146500.0
 20
130074.99999999996
 30
0.0
 40
925.0
  1
29.50
  7
JP
 11
146500.0
 21
130074.99999999996
 31
0.0
100
AcDbText
  0
TEXT
  5
16B
330
17
100
AcDbEntity
  8
A-TEXT
100
AcDbText
 10
161500.0
 20
130074.99999999996
 30
0.0
 40
925.0
  1
3.31
  7
JP
 11
161500.0
 21
130074.99999999996
 31
0.0
100
AcDbText
  0
LWPOLYLINE
  5
16C
330
17
100
AcDbEntity
  8
G-TABLE
370
18
100
AcDbPolyline
 90
2
 70
0
 10
125000.0
 20
129299.99999999996
 10
185000.0
 20
129299.99999999996
  0
TEXT
  5
16D
330
17
100
AcDbEntity
  8
A-TEXT
100
AcDbText
 10
125500.0
 20
127774.99999999996
 30
0.0
 40
925.0
  1
4
  7
JP
 11
125500.0
 21
127774.99999999996
 31
0.0
100
AcDbText
  0
TEXT
  5
16E
330
17
100
AcDbEntity
  8
A-TEXT
100
AcDbText
 10
131500.0
 20
127774.99999999996
 30
0.0
 40
925.0
  1
15.46
  7
JP
 11
131500.0
 21
127774.99999999996
 31
0.0
100
AcDbText
  0
TEXT
  5
16F
330
17
100
AcDbEntity
  8
A-TEXT
100
AcDbText
 10
146500.0
 20
127774.99999999996
 30
0.0
 40
925.0
  1
30.24
  7
JP
 11
146500.0
 21
127774.99999999996
 31
0.0
100
AcDbText
  0
TEXT
  5
170
330
17
100
AcDbEntity
  8
A-TEXT
100
AcDbText
 10
161500.0
 20
127774.99999999996
 30
0.0
 40
925.0
  1
50.32
  7
JP
 11
161500.0
 21
127774.99999999996
 31
0.0
100
AcDbText
  0
LWPOLYLINE
  5
171
330
17
100
AcDbEntity
  8
G-TABLE
370
18
100
AcDbPolyline
 90
2
 70
0
 10
125000.0
 20
126999.99999999996
 10
185000.0
 20
126999.99999999996
  0
TEXT
  5
172
330
17
100
AcDbEntity
  8
A-TEXT
100
AcDbText
 10
125500.0
 20
125474.99999999997
 30
0.0
 40
925.0
  1
5
  7
JP
 11
125500.0
 21
125474.99999999997
 31
0.0
100
AcDbText
  0
TEXT
  5
173
330
17
100
AcDbEntity
  8
A-TEXT
100
AcDbText
 10
131500.0
 20
125474.99999999997
 30
0.0
 40
925.0
  1
27.50
  7
JP
 11
131500.0
 21
125474.99999999997
 31
0.0
100
AcDbText
  0
TEXT
  5
174
330
17
100
AcDbEntity
  8
A-TEXT
100
AcDbText
 10
146500.0
 20
125474.99999999997
 30
0.0
 40
925.0
  1
32.75
  7
JP
 11
146500.0
 21
125474.99999999997
 31
0.0
100
AcDbText
  0
TEXT
  5
175
330
17
100
AcDbEntity
  8
A-TEXT
100
AcDbText
 10
161500.0
 20
125474.99999999997
 30
0.0
 40
925.0
  1
140.28
  7
JP
 11
161500.0
 21
125474.99999999997
 31
0.0
100
AcDbText
  0
LWPOLYLINE
  5
176
330
17
100
AcDbEntity
  8
G-TABLE
370
18
100
AcDbPolyline
 90
2
 70
0
 10
125000.0
 20
124699.99999999996
 10
185000.0
 20
124699.99999999996
  0
TEXT
  5
177
330
17
100
AcDbEntity
  8
A-TEXT
100
AcDbText
 10
125500.0
 20
123174.99999999997
 30
0.0
 40
925.0
  1
6
  7
JP
 11
125500.0
 21
123174.99999999997
 31
0.0
100
AcDbText
  0
TEXT
  5
178
330
17
100
AcDbEntity
  8
A-TEXT
100
AcDbText
 10
131500.0
 20
123174.99999999997
 30
0.0
 40
925.0
  1
27.14
  7
JP
 11
131500.0
 21
123174.99999999997
 31
0.0
100
AcDbText
  0
TEXT
  5
179
330
17
100
AcDbEntity
  8
A-TEXT
100
AcDbText
 10
146500.0
 20
123174.99999999997
 30
0.0
 40
925.0
  1
35.34
  7
JP
 11
146500.0
 21
123174.99999999997
 31
0.0
100
AcDbText
  0
TEXT
  5
17A
330
17
100
AcDbEntity
  8
A-TEXT
100
AcDbText
 10
161500.0
 20
123174.99999999997
 30
0.0
 40
925.0
  1
162.42
  7
JP
 11
161500.0
 21
123174.99999999997
 31
0.0
100
AcDbText
  0
LWPOLYLINE
  5
17B
330
17
100
AcDbEntity
  8
G-TABLE
370
18
100
AcDbPolyline
 90
2
 70
0
 10
125000.0
 20
122399.99999999996
 10
185000.0
 20
122399.99999999996
  0
TEXT
  5
17C
330
17
100
AcDbEntity
  8
A-TEXT
100
AcDbText
 10
125500.0
 20
120874.99999999997
 30
0.0
 40
925.0
  1
7
  7
JP
 11
125500.0
 21
120874.99999999997
 31
0.0
100
AcDbText
  0
TEXT
  5
17D
330
17
100
AcDbEntity
  8
A-TEXT
100
AcDbText
 10
131500.0
 20
120874.99999999997
 30
0.0
 40
925.0
  1
35.72
  7
JP
 11
131500.0
 21
120874.99999999997
 31
0.0
100
AcDbText
  0
TEXT
  5
17E
330
17
100
AcDbEntity
  8
A-TEXT
100
AcDbText
 10
146500.0
 20
120874.99999999997
 30
0.0
 40
925.0
  1
38.74
  7
JP
 11
146500.0
 21
120874.99999999997
 31
0.0
100
AcDbText
  0
TEXT
  5
17F
330
17
100
AcDbEntity
  8
A-TEXT
100
AcDbText
 10
161500.0
 20
120874.99999999997
 30
0.0
 40
925.0
  1
-351.98
  7
JP
 11
161500.0
 21
120874.99999999997
 31
0.0
100
AcDbText
  0
LWPOLYLINE
  5
180
330
17
100
AcDbEntity
  8
G-TABLE
370
18
100
AcDbPolyline
 90
2
 70
0
 10
125000.0
 20
120099.99999999997
 10
185000.0
 20
120099.99999999997
  0
TEXT
  5
181
330
17
100
AcDbEntity
  8
A-TEXT
100
AcDbText
 10
125500.0
 20
118574.99999999997
 30
0.0
 40
925.0
  1
8
  7
JP
 11
125500.0
 21
118574.99999999997
 31
0.0
100
AcDbText
  0
TEXT
  5
182
330
17
100
AcDbEntity
  8
A-TEXT
100
AcDbText
 10
131500.0
 20
118574.99999999997
 30
0.0
 40
925.0
  1
33.59
  7
JP
 11
131500.0
 21
118574.99999999997
 31
0.0
100
AcDbText
  0
TEXT
  5
183
330
17
100
AcDbEntity
  8
A-TEXT
100
AcDbText
 10
146500.0
 20
118574.99999999997
 30
0.0
 40
925.0
  1
25.48
  7
JP
 11
146500.0
 21
118574.99999999997
 31
0.0
100
AcDbText
  0
TEXT
  5
184
330
17
100
AcDbEntity
  8
A-TEXT
100
AcDbText
 10
161500.0
 20
118574.99999999997
 30
0.0
 40
925.0
  1
-1145.46
  7
JP
 11
161500.0
 21
118574.99999999997
 31
0.0
100
AcDbText
  0
LWPOLYLINE
  5
185
330
17
100
AcDbEntity
  8
G-TABLE
370
18
100
AcDbPolyline
 90
2
 70
0
 10
125000.0
 20
117799.99999999997
 10
185000.0
 20
117799.99999999997
  0
TEXT
  5
186
330
17
100
AcDbEntity
  8
A-TEXT
100
AcDbText
 10
125500.0
 20
116274.99999999997
 30
0.0
 40
925.0
  1
9
  7
JP
 11
125500.0
 21
116274.99999999997
 31
0.0
100
AcDbText
  0
TEXT
  5
187
330
17
100
AcDbEntity
  8
A-TEXT
100
AcDbText
 10
131500.0
 20
116274.99999999997
 30
0.0
 40
925.0
  1
29.02
  7
JP
 11
131500.0
 21
116274.99999999997
 31
0.0
100
AcDbText
  0
TEXT
  5
188
330
17
100
AcDbEntity
  8
A-TEXT
100
AcDbText
 10
146500.0
 20
116274.99999999997
 30
0.0
 40
925.0
  1
4.63
  7
JP
 11
146500.0
 21
116274.99999999997
 31
0.0
100
AcDbText
  0
TEXT
  5
189
330
17
100
AcDbEntity
  8
A-TEXT
100
AcDbText
 10
161500.0
 20
116274.99999999997
 30
0.0
 40
925.0
  1
-1549.00
  7
JP
 11
161500.0
 21
116274.99999999997
 31
0.0
100
AcDbText
  0
LWPOLYLINE
  5
18A
330
17
100
AcDbEntity
  8
G-TABLE
370
18
100
AcDbPolyline
 90
2
 70
0
 10
125000.0
 20
115499.99999999997
 10
185000.0
 20
115499.99999999997
  0
TEXT
  5
18B
330
17
100
AcDbEntity
  8
A-TEXT
100
AcDbText
 10
125500.0
 20
113974.99999999999
 30
0.0
 40
925.0
  1
10
  7
JP
 11
125500.0
 21
113974.99999999999
 31
0.0
100
AcDbText
  0
TEXT
  5
18C
330
17
100
AcDbEntity
  8
A-TEXT
100
AcDbText
 10
131500.0
 20
113974.99999999999
 30
0.0
 40
925.0
  1
25.76
  7
JP
 11
131500.0
 21
113974.99999999999
 31
0.0
100
AcDbText
  0
TEXT
  5
18D
330
17
100
AcDbEntity
  8
A-TEXT
100
AcDbText
 10
146500.0
 20
113974.99999999999
 30
0.0
 40
925.0
  1
-27.90
  7
JP
 11
146500.0
 21
113974.99999999999
 31
0.0
100
AcDbText
  0
TEXT
  5
18E
330
17
100
AcDbEntity
  8
A-TEXT
100
AcDbText
 10
161500.0
 20
113974.99999999999
 30
0.0
 40
925.0
  1
-898.36
  7
JP
 11
161500.0
 21
113974.99999999999
 31
0.0
100
AcDbText
  0
LWPOLYLINE
  5
18F
330
17
100
AcDbEntity
  8
G-TABLE
370
18
100
AcDbPolyline
 90
2
 70
0
 10
125000.0
 20
113199.99999999997
 10
185000.0
 20
113199.99999999997
  0
TEXT
  5
190
330
17
100
AcDbEntity
  8
A-TEXT
100
AcDbText
 10
125500.0
 20
111674.99999999999
 30
0.0
 40
925.0
  1
11
  7
JP
 11
125500.0
 21
111674.99999999999
 31
0.0
100
AcDbText
  0
TEXT
  5
191
330
17
100
AcDbEntity
  8
A-TEXT
100
AcDbText
 10
131500.0
 20
111674.99999999999
 30
0.0
 40
925.0
  1
24.43
  7
JP
 11
131500.0
 21
111674.99999999999
 31
0.0
100
AcDbText
  0
TEXT
  5
192
330
17
100
AcDbEntity
  8
A-TEXT
100
AcDbText
 10
146500.0
 20
111674.99999999999
 30
0.0
 40
925.0
  1
-30.24
  7
JP
 11
146500.0
 21
111674.99999999999
 31
0.0
100
AcDbText
  0
TEXT
  5
193
330
17
100
AcDbEntity
  8
A-TEXT
100
AcDbText
 10
161500.0
 20
111674.99999999999
 30
0.0
 40
925.0
  1
-90.00
  7
JP
 11
161500.0
 21
111674.99999999999
 31
0.0
100
AcDbText
  0
LWPOLYLINE
  5
194
330
17
100
AcDbEntity
  8
G-TABLE
370
18
100
AcDbPolyline
 90
2
 70
0
 10
125000.0
 20
110899.99999999997
 10
185000.0
 20
110899.99999999997
  0
TEXT
  5
195
330
17
100
AcDbEntity
  8
A-TEXT
100
AcDbText
 10
125500.0
 20
109374.99999999999
 30
0.0
 40
925.0
  1
12
  7
JP
 11
125500.0
 21
109374.99999999999
 31
0.0
100
AcDbText
  0
TEXT
  5
196
330
17
100
AcDbEntity
  8
A-TEXT
100
AcDbText
 10
131500.0
 20
109374.99999999999
 30
0.0
 40
925.0
  1
22.47
  7
JP
 11
131500.0
 21
109374.99999999999
 31
0.0
100
AcDbText
  0
TEXT
  5
197
330
17
100
AcDbEntity
  8
A-TEXT
100
AcDbText
 10
146500.0
 20
109374.99999999999
 30
0.0
 40
925.0
  1
-31.59
  7
JP
 11
146500.0
 21
109374.99999999999
 31
0.0
100
AcDbText
  0
TEXT
  5
198
330
17
100
AcDbEntity
  8
A-TEXT
100
AcDbText
 10
161500.0
 20
109374.99999999999
 30
0.0
 40
925.0
  1
-30.27
  7
JP
 11
161500.0
 21
109374.99999999999
 31
0.0
100
AcDbText
  0
LWPOLYLINE
  5
199
330
17
100
AcDbEntity
  8
G-TABLE
370
18
100
AcDbPolyline
 90
2
 70
0
 10
125000.0
 20
108599.99999999999
 10
185000.0
 20
108599.99999999999
  0
TEXT
  5
19A
330
17
100
AcDbEntity
  8
A-TEXT
100
AcDbText
 10
125500.0
 20
107074.99999999999
 30
0.0
 40
925.0
  1
13
  7
JP
 11
125500.0
 21
107074.99999999999
 31
0.0
100
AcDbText
  0
TEXT
  5
19B
330
17
100
AcDbEntity
  8
A-TEXT
100
AcDbText
 10
131500.0
 20
107074.99999999999
 30
0.0
 40
925.0
  1
8.55
  7
JP
 11
131500.0
 21
107074.99999999999
 31
0.0
100
AcDbText
  0
TEXT
  5
19C
330
17
100
AcDbEntity
  8
A-TEXT
100
AcDbText
 10
146500.0
 20
107074.99999999999
 30
0.0
 40
925.0
  1
-31.59
  7
JP
 11
146500.0
 21
107074.99999999999
 31
0.0
100
AcDbText
  0
TEXT
  5
19D
330
17
100
AcDbEntity
  8
A-TEXT
100
AcDbText
 10
161500.0
 20
107074.99999999999
 30
0.0
 40
925.0
  1
181.52
  7
JP
 11
161500.0
 21
107074.99999999999
 31
0.0
100
AcDbText
  0
LWPOLYLINE
  5
19E
330
17
100
AcDbEntity
  8
G-TABLE
370
18
100
AcDbPolyline
 90
2
 70
0
 10
125000.0
 20
106299.99999999999
 10
185000.0
 20
106299.99999999999
  0
TEXT
  5
19F
330
17
100
AcDbEntity
  8
A-TEXT
100
AcDbText
 10
125500.0
 20
104774.99999999999
 30
0.0
 40
925.0
  1
14
  7
JP
 11
125500.0
 21
104774.99999999999
 31
0.0
100
AcDbText
  0
TEXT
  5
1A0
330
17
100
AcDbEntity
  8
A-TEXT
100
AcDbText
 10
131500.0
 20
104774.99999999999
 30
0.0
 40
925.0
  1
9.51
  7
JP
 11
131500.0
 21
104774.99999999999
 31
0.0
100
AcDbText
  0
TEXT
  5
1A1
330
17
100
AcDbEntity
  8
A-TEXT
100
AcDbText
 10
146500.0
 20
104774.99999999999
 30
0.0
 40
925.0
  1
-10.36
  7
JP
 11
146500.0
 21
104774.99999999999
 31
0.0
100
AcDbText
  0
TEXT
  5
1A2
330
17
100
AcDbEntity
  8
A-TEXT
100
AcDbText
 10
161500.0
 20
104774.99999999999
 30
0.0
 40
925.0
  1
206.95
  7
JP
 11
161500.0
 21
104774.99999999999
 31
0.0
100
AcDbText
  0
LWPOLYLINE
  5
1A3
330
17
100
AcDbEntity
  8
G-TABLE
370
18
100
AcDbPolyline
 90
2
 70
0
 10
125000.0
 20
103999.99999999999
 10
185000.0
 20
103999.99999999999
  0
TEXT
  5
1A4
330
17
100
AcDbEntity
  8
A-TEXT
100
AcDbText
 10
125500.0
 20
102475.0
 30
0.0
 40
925.0
  1
15
  7
JP
 11
125500.0
 21
102475.0
 31
0.0
100
AcDbText
  0
TEXT
  5
1A5
330
17
100
AcDbEntity
  8
A-TEXT
100
AcDbText
 10
131500.0
 20
102475.0
 30
0.0
 40
925.0
  1
-6.83
  7
JP
 11
131500.0
 21
102475.0
 31
0.0
100
AcDbText
  0
TEXT
  5
1A6
330
17
100
AcDbEntity
  8
A-TEXT
100
AcDbText
 10
146500.0
 20
102475.0
 30
0.0
 40
925.0
  1
-9.82
  7
JP
 11
146500.0
 21
102475.0
 31
0.0
100
AcDbText
  0
TEXT
  5
1A7
330
17
100
AcDbEntity
  8
A-TEXT
100
AcDbText
 10
161500.0
 20
102475.0
 30
0.0
 40
925.0
  1
-51.55
  7
JP
 11
161500.0
 21
102475.0
 31
0.0
100
AcDbText
  0
LWPOLYLINE
  5
1A8
330
17
100
AcDbEntity
  8
G-TABLE
370
18
100
AcDbPolyline
 90
2
 70
0
 10
125000.0
 20
101699.99999999999
 10
185000.0
 20
101699.99999999999
  0
TEXT
  5
1A9
330
17
100
AcDbEntity
  8
A-TEXT
100
AcDbText
 10
125500.0
 20
100175.0
 30
0.0
 40
925.0
  1
16
  7
JP
 11
125500.0
 21
100175.0
 31
0.0
100
AcDbText
  0
TEXT
  5
1AA
330
17
100
AcDbEntity
  8
A-TEXT
100
AcDbText
 10
131500.0
 20
100175.0
 30
0.0
 40
925.0
  1
-9.89
  7
JP
 11
131500.0
 21
100175.0
 31
0.0
100
AcDbText
  0
TEXT
  5
1AB
330
17
100
AcDbEntity
  8
A-TEXT
100
AcDbText
 10
146500.0
 20
100175.0
 30
0.0
 40
925.0
  1
-2.81
  7
JP
 11
146500.0
 21
100175.0
 31
0.0
100
AcDbText
  0
TEXT
  5
1AC
330
17
100
AcDbEntity
  8
A-TEXT
100
AcDbText
 10
161500.0
 20
100175.0
 30
0.0
 40
925.0
  1
-81.83
  7
JP
 11
161500.0
 21
100175.0
 31
0.0
100
AcDbText
  0
LWPOLYLINE
  5
1AD
330
17
100
AcDbEntity
  8
G-TABLE
370
18
100
AcDbPolyline
 90
2
 70
0
 10
125000.0
 20
99399.99999999999
 10
185000.0
 20
99399.99999999999
  0
TEXT
  5
1AE
330
17
100
AcDbEntity
  8
A-TEXT
100
AcDbText
 10
125500.0
 20
97875.0
 30
0.0
 40
925.0
  1
17
  7
JP
 11
125500.0
 21
97875.0
 31
0.0
100
AcDbText
  0
TEXT
  5
1AF
330
17
100
AcDbEntity
  8
A-TEXT
100
AcDbText
 10
131500.0
 20
97875.0
 30
0.0
 40
925.0
  1
-34.13
  7
JP
 11
131500.0
 21
97875.0
 31
0.0
100
AcDbText
  0
TEXT
  5
1B0
330
17
100
AcDbEntity
  8
A-TEXT
100
AcDbText
 10
146500.0
 20
97875.0
 30
0.0
 40
925.0
  1
-1.55
  7
JP
 11
146500.0
 21
97875.0
 31
0.0
100
AcDbText
  0
TEXT
  5
1B1
330
17
100
AcDbEntity
  8
A-TEXT
100
AcDbText
 10
161500.0
 20
97875.0
 30
0.0
 40
925.0
  1
-1105.87
  7
JP
 11
161500.0
 21
97875.0
 31
0.0
100
AcDbText
  0
LWPOLYLINE
  5
1B2
330
17
100
AcDbEntity
  8
G-TABLE
370
18
100
AcDbPolyline
 90
2
 70
0
 10
125000.0
 20
97100.0
 10
185000.0
 20
97100.0
  0
TEXT
  5
1B3
330
17
100
AcDbEntity
  8
A-TEXT
100
AcDbText
 10
125500.0
 20
95575.0
 30
0.0
 40
925.0
  1

  7
JP
 11
125500.0
 21
95575.0
 31
0.0
100
AcDbText
  0
TEXT
  5
1B4
330
17
100
AcDbEntity
  8
A-TEXT
100
AcDbText
 10
131500.0
 20
95575.0
 30
0.0
 40
925.0
  1

  7
JP
 11
131500.0
 21
95575.0
 31
0.0
100
AcDbText
  0
TEXT
  5
1B5
330
17
100
AcDbEntity
  8
A-TEXT
100
AcDbText
 10
146500.0
 20
95575.0
 30
0.0
 40
925.0
  1
倍面積
  7
JP
 11
146500.0
 21
95575.0
 31
0.0
100
AcDbText
  0
TEXT
  5
1B6
330
17
100
AcDbEntity
  8
A-TEXT
100
AcDbText
 10
161500.0
 20
95575.0
 30
0.0
 40
925.0
  1
5544.84
  7
JP
 11
161500.0
 21
95575.0
 31
0.0
100
AcDbText
  0
LWPOLYLINE
  5
1B7
330
17
100
AcDbEntity
  8
G-TABLE
370
18
100
AcDbPolyline
 90
2
 70
0
 10
125000.0
 20
94800.0
 10
185000.0
 20
94800.0
  0
TEXT
  5
1B8
330
17
100
AcDbEntity
  8
A-TEXT
100
AcDbText
 10
125500.0
 20
93275.0
 30
0.0
 40
925.0
  1

  7
JP
 11
125500.0
 21
93275.0
 31
0.0
100
AcDbText
  0
TEXT
  5
1B9
330
17
100
AcDbEntity
  8
A-TEXT
100
AcDbText
 10
131500.0
 20
93275.0
 30
0.0
 40
925.0
  1

  7
JP
 11
131500.0
 21
93275.0
 31
0.0
100
AcDbText
  0
TEXT
  5
1BA
330
17
100
AcDbEntity
  8
A-TEXT
100
AcDbText
 10
146500.0
 20
93275.0
 30
0.0
 40
925.0
  1
面積
  7
JP
 11
146500.0
 21
93275.0
 31
0.0
100
AcDbText
  0
TEXT
  5
1BB
330
17
100
AcDbEntity
  8
A-TEXT
100
AcDbText
 10
161500.0
 20
93275.0
 30
0.0
 40
925.0
  1
2772.42 m²
  7
JP
 11
161500.0
 21
93275.0
 31
0.0
100
AcDbText
  0
LWPOLYLINE
  5
1BC
330
17
100
AcDbEntity
  8
G-TABLE
370
18
100
AcDbPolyline
 90
2
 70
0
 10
125000.0
 20
92500.0
 10
185000.0
 20
92500.0
  0
LWPOLYLINE
  5
1BD
330
17
100
AcDbEntity
  8
G-TABLE
100
AcDbPolyline
 90
2
 70
0
 10
125000.0
 20
138500.0
 10
125000.0
 20
92500.0
  0
LWPOLYLINE
  5
1BE
330
17
100
AcDbEntity
  8
G-TABLE
100
AcDbPolyline
 90
2
 70
0
 10
131000.0
 20
138500.0
 10
131000.0
 20
92500.0
  0
LWPOLYLINE
  5
1BF
330
17
100
AcDbEntity
  8
G-TABLE
100
AcDbPolyline
 90
2
 70
0
 10
146000.0
 20
138500.0
 10
146000.0
 20
92500.0
  0
LWPOLYLINE
  5
1C0
330
17
100
AcDbEntity
  8
G-TABLE
100
AcDbPolyline
 90
2
 70
0
 10
161000.0
 20
138500.0
 10
161000.0
 20
92500.0
  0
LWPOLYLINE
  5
1C1
330
17
100
AcDbEntity
  8
G-TABLE
100
AcDbPolyline
 90
2
 70
0
 10
185000.0
 20
138500.0
 10
185000.0
 20
92500.0
  0
LWPOLYLINE
  5
1C2
330
17
100
AcDbEntity
  8
G-TABLE
370
35
100
AcDbPolyline
 90
2
 70
0
 10
125000.0
 20
75000.0
 10
185000.0
 20
75000.0
  0
TEXT
  5
1C3
330
17
100
AcDbEntity
  8
A-TEXT
100
AcDbText
 10
125500.0
 20
73350.00000000001
 30
0.0
 40
1050.0
  1
項目
  7
JP
 11
125500.0
 21
73350.00000000001
 31
0.0
100
AcDbText
  0
TEXT
  5
1C4
330
17
100
AcDbEntity
  8
A-TEXT
100
AcDbText
 10
145500.0
 20
73350.00000000001
 30
0.0
 40
1050.0
  1
面積・比率
  7
JP
 11
145500.0
 21
73350.00000000001
 31
0.0
100
AcDbText
  0
LWPOLYLINE
  5
1C5
330
17
100
AcDbEntity
  8
G-TABLE
370
35
100
AcDbPolyline
 90
2
 70
0
 10
125000.0
 20
72400.0
 10
185000.0
 20
72400.0
  0
TEXT
  5
1C6
330
17
100
AcDbEntity
  8
A-TEXT
100
AcDbText
 10
125500.0
 20
70750.00000000001
 30
0.0
 40
1050.0
  1
敷地面積（推定）
  7
JP
 11
125500.0
 21
70750.00000000001
 31
0.0
100
AcDbText
  0
TEXT
  5
1C7
330
17
100
AcDbEntity
  8
A-TEXT
100
AcDbText
 10
145500.0
 20
70750.00000000001
 30
0.0
 40
1050.0
  1
2,772.42 m²（838.7坪）
  7
JP
 11
145500.0
 21
70750.00000000001
 31
0.0
100
AcDbText
  0
LWPOLYLINE
  5
1C8
330
17
100
AcDbEntity
  8
G-TABLE
370
18
100
AcDbPolyline
 90
2
 70
0
 10
125000.0
 20
69800.00000000001
 10
185000.0
 20
69800.00000000001
  0
TEXT
  5
1C9
330
17
100
AcDbEntity
  8
A-TEXT
100
AcDbText
 10
125500.0
 20
68150.00000000001
 30
0.0
 40
1050.0
  1
建築面積（壁芯）
  7
JP
 11
125500.0
 21
68150.00000000001
 31
0.0
100
AcDbText
  0
TEXT
  5
1CA
330
17
100
AcDbEntity
  8
A-TEXT
100
AcDbText
 10
145500.0
 20
68150.00000000001
 30
0.0
 40
1050.0
  1
333.06 m²
  7
JP
 11
145500.0
 21
68150.00000000001
 31
0.0
100
AcDbText
  0
LWPOLYLINE
  5
1CB
330
17
100
AcDbEntity
  8
G-TABLE
370
18
100
AcDbPolyline
 90
2
 70
0
 10
125000.0
 20
67200.00000000001
 10
185000.0
 20
67200.00000000001
  0
TEXT
  5
1CC
330
17
100
AcDbEntity
  8
A-TEXT
100
AcDbText
 10
125500.0
 20
65550.00000000003
 30
0.0
 40
1050.0
  1
延べ面積
  7
JP
 11
125500.0
 21
65550.00000000003
 31
0.0
100
AcDbText
  0
TEXT
  5
1CD
330
17
100
AcDbEntity
  8
A-TEXT
100
AcDbText
 10
145500.0
 20
65550.00000000003
 30
0.0
 40
1050.0
  1
666.12 m²
  7
JP
 11
145500.0
 21
65550.00000000003
 31
0.0
100
AcDbText
  0
LWPOLYLINE
  5
1CE
330
17
100
AcDbEntity
  8
G-TABLE
370
18
100
AcDbPolyline
 90
2
 70
0
 10
125000.0
 20
64600.00000000002
 10
185000.0
 20
64600.00000000002
  0
TEXT
  5
1CF
330
17
100
AcDbEntity
  8
A-TEXT
100
AcDbText
 10
125500.0
 20
62950.00000000003
 30
0.0
 40
1050.0
  1
建ぺい率
  7
JP
 11
125500.0
 21
62950.00000000003
 31
0.0
100
AcDbText
  0
TEXT
  5
1D0
330
17
100
AcDbEntity
  8
A-TEXT
100
AcDbText
 10
145500.0
 20
62950.00000000003
 30
0.0
 40
1050.0
  1
12.01%（≦60%）
  7
JP
 11
145500.0
 21
62950.00000000003
 31
0.0
100
AcDbText
  0
LWPOLYLINE
  5
1D1
330
17
100
AcDbEntity
  8
G-TABLE
370
18
100
AcDbPolyline
 90
2
 70
0
 10
125000.0
 20
62000.00000000002
 10
185000.0
 20
62000.00000000002
  0
TEXT
  5
1D2
330
17
100
AcDbEntity
  8
A-TEXT
100
AcDbText
 10
125500.0
 20
60350.00000000002
 30
0.0
 40
1050.0
  1
容積率
  7
JP
 11
125500.0
 21
60350.00000000002
 31
0.0
100
AcDbText
  0
TEXT
  5
1D3
330
17
100
AcDbEntity
  8
A-TEXT
100
AcDbText
 10
145500.0
 20
60350.00000000002
 30
0.0
 40
1050.0
  1
24.03%（≦200%）
  7
JP
 11
145500.0
 21
60350.00000000002
 31
0.0
100
AcDbText
  0
LWPOLYLINE
  5
1D4
330
17
100
AcDbEntity
  8
G-TABLE
370
18
100
AcDbPolyline
 90
2
 70
0
 10
125000.0
 20
59400.00000000002
 10
185000.0
 20
59400.00000000002
  0
LWPOLYLINE
  5
1D5
330
17
100
AcDbEntity
  8
G-TABLE
100
AcDbPolyline
 90
2
 70
0
 10
125000.0
 20
75000.0
 10
125000.0
 20
59400.00000000002
  0
LWPOLYLINE
  5
1D6
330
17
100
AcDbEntity
  8
G-TABLE
100
AcDbPolyline
 90
2
 70
0
 10
145000.0
 20
75000.0
 10
145000.0
 20
59400.00000000002
  0
LWPOLYLINE
  5
1D7
330
17
100
AcDbEntity
  8
G-TABLE
100
AcDbPolyline
 90
2
 70
0
 10
185000.0
 20
75000.0
 10
185000.0
 20
59400.00000000002
  0
TEXT
  5
1D8
330
17
100
AcDbEntity
  8
A-TEXT
100
AcDbText
 10
125000.0
 20
57500.0
 30
0.0
 40
950.0
  1
※ 西側境界は標高109.6の点を通り駐車場白線に平行な直線（ご指定）。13〜15は隣接建物からの推定（要測量）。
  7
JP
 11
125000.0
 21
57500.0
 31
0.0
100
AcDbText
  0
ENDSEC
  0
SECTION
  2
OBJECTS
  0
DICTIONARY
  5
A
330
0
100
AcDbDictionary
281
1
  3
ACAD_COLOR
350
B
  3
ACAD_GROUP
350
C
  3
ACAD_LAYOUT
350
D
  3
ACAD_MATERIAL
350
E
  3
ACAD_MLEADERSTYLE
350
F
  3
ACAD_MLINESTYLE
350
10
  3
ACAD_PLOTSETTINGS
350
11
  3
ACAD_PLOTSTYLENAME
350
12
  3
ACAD_SCALELIST
350
14
  3
ACAD_TABLESTYLE
350
15
  3
ACAD_VISUALSTYLE
350
16
  3
EZDXF_META
350
2D
  0
DICTIONARY
  5
B
330
A
100
AcDbDictionary
281
1
  0
DICTIONARY
  5
C
330
A
100
AcDbDictionary
281
1
  0
DICTIONARY
  5
D
330
A
100
AcDbDictionary
281
1
  3
Model
350
1A
  3
Layout1
350
1E
  0
DICTIONARY
  5
E
330
A
100
AcDbDictionary
281
1
  3
ByBlock
350
1F
  3
ByLayer
350
20
  3
Global
350
21
  0
DICTIONARY
  5
F
330
A
100
AcDbDictionary
281
1
  3
Standard
350
2C
  0
DICTIONARY
  5
10
330
A
100
AcDbDictionary
281
1
  3
Standard
350
22
  0
DICTIONARY
  5
11
330
A
100
AcDbDictionary
281
1
  0
ACDBDICTIONARYWDFLT
  5
12
330
A
100
AcDbDictionary
281
1
  3
Normal
350
13
100
AcDbDictionaryWithDefault
340
13
  0
ACDBPLACEHOLDER
  5
13
330
12
  0
DICTIONARY
  5
14
330
A
100
AcDbDictionary
281
1
  0
DICTIONARY
  5
15
330
A
100
AcDbDictionary
281
1
  0
DICTIONARY
  5
16
330
A
100
AcDbDictionary
281
1
  3
2dWireframe
350
5A
  3
Basic
350
5B
  3
Brighten
350
5C
  3
ColorChange
350
5D
  3
Conceptual
350
5E
  3
Dim
350
5F
  3
EdgeColorOff
350
60
  3
Facepattern
350
61
  3
Flat
350
62
  3
FlatWithEdges
350
63
  3
Gouraud
350
64
  3
GouraudWithEdges
350
65
  3
Hidden
350
66
  3
JitterOff
350
67
  3
Linepattern
350
68
  3
Modeling
350
69
  3
OverhangOff
350
6A
  3
Realistic
350
6B
  3
Shaded
350
6C
  3
Shaded with edges
350
6D
  3
Shades of Gray
350
6E
  3
Sketchy
350
6F
  3
Thicken
350
70
  3
Wireframe
350
71
  3
X-Ray
350
72
  0
LAYOUT
  5
1A
330
D
100
AcDbPlotSettings
  1

  4
A3
  6

 40
7.5
 41
20.0
 42
7.5
 43
20.0
 44
420.0
 45
297.0
 46
0.0
 47
0.0
 48
0.0
 49
0.0
140
0.0
141
0.0
142
1.0
143
1.0
 70
1024
 72
1
 73
0
 74
5
  7

 75
16
 76
0
 77
2
 78
300
147
1.0
148
0.0
149
0.0
100
AcDbLayout
  1
Model
 70
1
 71
0
 10
0.0
 20
0.0
 11
420.0
 21
297.0
 12
0.0
 22
0.0
 32
0.0
 14
1e+20
 24
1e+20
 34
1e+20
 15
-1e+20
 25
-1e+20
 35
-1e+20
146
0.0
 13
0.0
 23
0.0
 33
0.0
 16
1.0
 26
0.0
 36
0.0
 17
0.0
 27
1.0
 37
0.0
 76
1
330
17
  0
LAYOUT
  5
1E
330
D
100
AcDbPlotSettings
  1

  4
A3
  6

 40
7.5
 41
20.0
 42
7.5
 43
20.0
 44
420.0
 45
297.0
 46
0.0
 47
0.0
 48
0.0
 49
0.0
140
0.0
141
0.0
142
1.0
143
1.0
 70
0
 72
1
 73
0
 74
5
  7

 75
16
 76
0
 77
2
 78
300
147
1.0
148
0.0
149
0.0
100
AcDbLayout
  1
Layout1
 70
1
 71
1
 10
0.0
 20
0.0
 11
420.0
 21
297.0
 12
0.0
 22
0.0
 32
0.0
 14
1e+20
 24
1e+20
 34
1e+20
 15
-1e+20
 25
-1e+20
 35
-1e+20
146
0.0
 13
0.0
 23
0.0
 33
0.0
 16
1.0
 26
0.0
 36
0.0
 17
0.0
 27
1.0
 37
0.0
 76
1
330
1B
  0
MATERIAL
  5
1F
102
{ACAD_REACTORS
330
E
102
}
330
E
100
AcDbMaterial
  1
ByBlock
  2

 70
0
 40
1.0
 71
1
 41
1.0
 91
-1023410177
 42
1.0
 72
1
  3

 73
1
 74
1
 75
1
 44
0.5
 73
0
 45
1.0
 46
1.0
 77
1
  4

 78
1
 79
1
170
1
 48
1.0
171
1
  6

172
1
173
1
174
1
140
1.0
141
1.0
175
1
  7

176
1
177
1
178
1
143
1.0
179
1
  8

270
1
271
1
272
1
145
1.0
146
1.0
273
1
  9

274
1
275
1
276
1
 42
1.0
 72
1
  3

 73
1
 74
1
 75
1
 94
63
  0
MATERIAL
  5
20
102
{ACAD_REACTORS
330
E
102
}
330
E
100
AcDbMaterial
  1
ByLayer
  2

 70
0
 40
1.0
 71
1
 41
1.0
 91
-1023410177
 42
1.0
 72
1
  3

 73
1
 74
1
 75
1
 44
0.5
 73
0
 45
1.0
 46
1.0
 77
1
  4

 78
1
 79
1
170
1
 48
1.0
171
1
  6

172
1
173
1
174
1
140
1.0
141
1.0
175
1
  7

176
1
177
1
178
1
143
1.0
179
1
  8

270
1
271
1
272
1
145
1.0
146
1.0
273
1
  9

274
1
275
1
276
1
 42
1.0
 72
1
  3

 73
1
 74
1
 75
1
 94
63
  0
MATERIAL
  5
21
102
{ACAD_REACTORS
330
E
102
}
330
E
100
AcDbMaterial
  1
Global
  2

 70
0
 40
1.0
 71
1
 41
1.0
 91
-1023410177
 42
1.0
 72
1
  3

 73
1
 74
1
 75
1
 44
0.5
 73
0
 45
1.0
 46
1.0
 77
1
  4

 78
1
 79
1
170
1
 48
1.0
171
1
  6

172
1
173
1
174
1
140
1.0
141
1.0
175
1
  7

176
1
177
1
178
1
143
1.0
179
1
  8

270
1
271
1
272
1
145
1.0
146
1.0
273
1
  9

274
1
275
1
276
1
 42
1.0
 72
1
  3

 73
1
 74
1
 75
1
 94
63
  0
MLINESTYLE
  5
22
102
{ACAD_REACTORS
330
10
102
}
330
10
100
AcDbMlineStyle
  2
Standard
 70
0
  3

 62
256
 51
90.0
 52
90.0
 71
2
 49
0.5
 62
256
  6
BYLAYER
 49
-0.5
 62
256
  6
BYLAYER
  0
MLEADERSTYLE
  5
2C
102
{ACAD_REACTORS
330
F
102
}
330
F
100
AcDbMLeaderStyle
179
2
170
2
171
1
172
0
 90
2
 40
0.0
 41
0.0
173
1
 91
-1056964608
 92
-2
290
1
 42
2.0
291
1
 43
8.0
  3
Standard
 44
4.0
300

342
29
174
1
175
1
176
0
178
1
 93
-1056964608
 45
4.0
292
0
297
0
 46
4.0
 94
-1056964608
 47
1.0
 49
1.0
140
1.0
294
1
141
0.0
177
0
142
1.0
295
0
296
0
143
3.75
271
0
272
9
273
9
  0
DICTIONARY
  5
2D
330
A
100
AcDbDictionary
280
1
281
1
  3
CREATED_BY_EZDXF
350
2E
  3
WRITTEN_BY_EZDXF
350
1DB
  0
DICTIONARYVAR
  5
2E
330
2D
100
DictionaryVariables
280
0
  1
1.4.4 @ 2026-10-04T15:04:29.937069+00:00
  0
VISUALSTYLE
  5
5A
102
{ACAD_REACTORS
330
16
102
}
330
16
100
AcDbVisualStyle
  2
2dWireframe
 70
4
177
3
291
0
 70
58
 90
2
176
1
 90
2
176
1
 90
0
176
1
 90
0
176
1
 40
0.6
176
1
 40
30.0
176
1
 62
7
420
16777215
176
1
 90
1
176
1
 90
4
176
1
 62
7
176
1
 62
257
176
1
 90
1
176
1
 90
1
176
1
 40
1.0
176
1
 90
8
176
1
 62
7
176
1
 40
1.0
176
1
 90
1
176
1
 90
6
176
1
 90
2
176
1
 62
7
176
1
 90
5
176
1
 90
0
176
1
 90
0
176
1
290
0
176
1
 90
1
176
1
 40
0.0
176
1
 90
0
176
1
290
1
176
1
290
1
176
1
290
0
176
1
290
0
176
1
290
0
176
1
290
0
176
1
290
0
176
1
290
0
176
1
290
0
176
1
 90
50
176
1
 40
0.0
176
1
 40
1.0
176
1
 90
0
176
1
 62
18
420
0
176
1
 90
50
176
1
 90
3
176
1
 62
5
420
255
176
1
290
0
176
1
 90
50
176
1
 90
50
176
1
 90
50
176
1
290
0
176
1
 90
50
176
1
 62
256
176
0
 40
1.0
176
0
 90
2
176
1
  1
strokes_ogs.tif
176
1
290
0
176
1
 40
1.0
176
1
 40
1.0
176
1
  0
VISUALSTYLE
  5
5B
102
{ACAD_REACTORS
330
16
102
}
330
16
100
AcDbVisualStyle
  2
Basic
 70
7
177
3
291
1
 70
58
 90
2
176
1
 90
2
176
1
 90
0
176
1
 90
1
176
1
 40
0.6
176
1
 40
30.0
176
1
 62
7
420
16777215
176
1
 90
1
176
1
 90
4
176
1
 62
7
176
1
 62
257
176
1
 90
1
176
1
 90
1
176
1
 40
1.0
176
1
 90
8
176
1
 62
7
176
1
 40
1.0
176
1
 90
1
176
1
 90
6
176
1
 90
2
176
1
 62
7
176
1
 90
5
176
1
 90
0
176
1
 90
0
176
1
290
0
176
1
 90
1
176
1
 40
0.0
176
1
 90
0
176
1
290
0
176
1
290
1
176
1
290
1
176
1
290
0
176
1
290
0
176
1
290
0
176
1
290
0
176
1
290
0
176
1
290
0
176
1
 90
50
176
1
 40
0.0
176
1
 40
1.0
176
1
 90
0
176
1
 62
18
420
0
176
1
 90
50
176
1
 90
3
176
1
 62
5
420
255
176
1
290
0
176
1
 90
50
176
1
 90
50
176
1
 90
50
176
1
290
0
176
1
 90
50
176
1
 62
256
176
0
 40
1.0
176
0
 90
2
176
1
  1
strokes_ogs.tif
176
1
290
0
176
1
 40
1.0
176
1
 40
1.0
176
1
  0
VISUALSTYLE
  5
5C
102
{ACAD_REACTORS
330
16
102
}
330
16
100
AcDbVisualStyle
  2
Brighten
 70
12
177
3
291
1
 70
58
 90
2
176
1
 90
2
176
1
 90
0
176
1
 90
2
176
1
 40
0.6
176
1
 40
30.0
176
1
 62
7
420
16777215
176
1
 90
1
176
1
 90
4
176
1
 62
7
176
1
 62
257
176
1
 90
1
176
1
 90
1
176
1
 40
1.0
176
1
 90
8
176
1
 62
7
176
1
 40
1.0
176
1
 90
1
176
1
 90
6
176
1
 90
2
176
1
 62
7
176
1
 90
5
176
1
 90
0
176
1
 90
0
176
1
290
0
176
1
 90
1
176
1
 40
0.0
176
1
 90
0
176
1
290
0
176
1
290
1
176
1
290
1
176
1
290
0
176
1
290
0
176
1
290
0
176
1
290
0
176
1
290
0
176
1
290
0
176
1
 90
50
176
1
 40
0.0
176
1
 40
1.0
176
1
 90
0
176
1
 62
18
420
0
176
1
 90
50
176
1
 90
3
176
1
 62
5
420
255
176
1
290
0
176
1
 90
50
176
1
 90
50
176
1
 90
50
176
1
290
0
176
1
 90
50
176
1
 62
256
176
0
 40
1.0
176
0
 90
2
176
1
  1
strokes_ogs.tif
176
1
290
0
176
1
 40
1.0
176
1
 40
1.0
176
1
  0
VISUALSTYLE
  5
5D
102
{ACAD_REACTORS
330
16
102
}
330
16
100
AcDbVisualStyle
  2
ColorChange
 70
16
177
3
291
1
 70
58
 90
2
176
1
 90
2
176
1
 90
0
176
1
 90
2
176
1
 40
0.6
176
1
 40
30.0
176
1
 62
7
420
16777215
176
1
 90
1
176
1
 90
4
176
1
 62
7
176
1
 62
257
176
1
 90
1
176
1
 90
1
176
1
 40
1.0
176
1
 90
8
176
1
 62
7
176
1
 40
1.0
176
1
 90
1
176
1
 90
6
176
1
 90
2
176
1
 62
7
176
1
 90
5
176
1
 90
0
176
1
 90
0
176
1
290
0
176
1
 90
1
176
1
 40
0.0
176
1
 90
0
176
1
290
0
176
1
290
1
176
1
290
1
176
1
290
0
176
1
290
0
176
1
290
0
176
1
290
0
176
1
290
0
176
1
290
0
176
1
 90
50
176
1
 40
0.0
176
1
 40
1.0
176
1
 90
0
176
1
 62
18
420
0
176
1
 90
50
176
1
 90
3
176
1
 62
5
420
255
176
1
290
0
176
1
 90
50
176
1
 90
50
176
1
 90
50
176
1
290
0
176
1
 90
50
176
1
 62
256
176
0
 40
1.0
176
0
 90
2
176
1
  1
strokes_ogs.tif
176
1
290
0
176
1
 40
1.0
176
1
 40
1.0
176
1
  0
VISUALSTYLE
  5
5E
102
{ACAD_REACTORS
330
16
102
}
330
16
100
AcDbVisualStyle
  2
Conceptual
 70
9
177
3
291
0
 70
58
 90
2
176
1
 90
2
176
1
 90
0
176
1
 90
3
176
1
 40
0.6
176
1
 40
30.0
176
1
 62
7
420
16777215
176
1
 90
1
176
1
 90
4
176
1
 62
7
176
1
 62
257
176
1
 90
1
176
1
 90
1
176
1
 40
1.0
176
1
 90
8
176
1
 62
7
176
1
 40
1.0
176
1
 90
1
176
1
 90
6
176
1
 90
2
176
1
 62
7
176
1
 90
5
176
1
 90
0
176
1
 90
0
176
1
290
0
176
1
 90
1
176
1
 40
0.0
176
1
 90
0
176
1
290
0
176
1
290
1
176
1
290
1
176
1
290
0
176
1
290
0
176
1
290
0
176
1
290
0
176
1
290
0
176
1
290
0
176
1
 90
50
176
1
 40
0.0
176
1
 40
1.0
176
1
 90
0
176
1
 62
18
420
0
176
1
 90
50
176
1
 90
3
176
1
 62
5
420
255
176
1
290
0
176
1
 90
50
176
1
 90
50
176
1
 90
50
176
1
290
0
176
1
 90
50
176
1
 62
256
176
0
 40
1.0
176
0
 90
2
176
1
  1
strokes_ogs.tif
176
1
290
0
176
1
 40
1.0
176
1
 40
1.0
176
1
  0
VISUALSTYLE
  5
5F
102
{ACAD_REACTORS
330
16
102
}
330
16
100
AcDbVisualStyle
  2
Dim
 70
11
177
3
291
1
 70
58
 90
2
176
1
 90
2
176
1
 90
0
176
1
 90
2
176
1
 40
0.6
176
1
 40
30.0
176
1
 62
7
420
16777215
176
1
 90
1
176
1
 90
4
176
1
 62
7
176
1
 62
257
176
1
 90
1
176
1
 90
1
176
1
 40
1.0
176
1
 90
8
176
1
 62
7
176
1
 40
1.0
176
1
 90
1
176
1
 90
6
176
1
 90
2
176
1
 62
7
176
1
 90
5
176
1
 90
0
176
1
 90
0
176
1
290
0
176
1
 90
1
176
1
 40
0.0
176
1
 90
0
176
1
290
0
176
1
290
1
176
1
290
1
176
1
290
0
176
1
290
0
176
1
290
0
176
1
290
0
176
1
290
0
176
1
290
0
176
1
 90
50
176
1
 40
0.0
176
1
 40
1.0
176
1
 90
0
176
1
 62
18
420
0
176
1
 90
50
176
1
 90
3
176
1
 62
5
420
255
176
1
290
0
176
1
 90
50
176
1
 90
50
176
1
 90
50
176
1
290
0
176
1
 90
50
176
1
 62
256
176
0
 40
1.0
176
0
 90
2
176
1
  1
strokes_ogs.tif
176
1
290
0
176
1
 40
1.0
176
1
 40
1.0
176
1
  0
VISUALSTYLE
  5
60
102
{ACAD_REACTORS
330
16
102
}
330
16
100
AcDbVisualStyle
  2
EdgeColorOff
 70
22
177
3
291
1
 70
58
 90
2
176
1
 90
2
176
1
 90
0
176
1
 90
2
176
1
 40
0.6
176
1
 40
30.0
176
1
 62
7
420
16777215
176
1
 90
1
176
1
 90
4
176
1
 62
7
176
1
 62
257
176
1
 90
1
176
1
 90
1
176
1
 40
1.0
176
1
 90
8
176
1
 62
7
176
1
 40
1.0
176
1
 90
1
176
1
 90
6
176
1
 90
2
176
1
 62
7
176
1
 90
5
176
1
 90
0
176
1
 90
0
176
1
290
0
176
1
 90
1
176
1
 40
0.0
176
1
 90
0
176
1
290
0
176
1
290
1
176
1
290
1
176
1
290
0
176
1
290
0
176
1
290
0
176
1
290
0
176
1
290
0
176
1
290
0
176
1
 90
50
176
1
 40
0.0
176
1
 40
1.0
176
1
 90
0
176
1
 62
18
420
0
176
1
 90
50
176
1
 90
3
176
1
 62
5
420
255
176
1
290
0
176
1
 90
50
176
1
 90
50
176
1
 90
50
176
1
290
0
176
1
 90
50
176
1
 62
256
176
0
 40
1.0
176
0
 90
2
176
1
  1
strokes_ogs.tif
176
1
290
0
176
1
 40
1.0
176
1
 40
1.0
176
1
  0
VISUALSTYLE
  5
61
102
{ACAD_REACTORS
330
16
102
}
330
16
100
AcDbVisualStyle
  2
Facepattern
 70
15
177
3
291
1
 70
58
 90
2
176
1
 90
2
176
1
 90
0
176
1
 90
2
176
1
 40
0.6
176
1
 40
30.0
176
1
 62
7
420
16777215
176
1
 90
1
176
1
 90
4
176
1
 62
7
176
1
 62
257
176
1
 90
1
176
1
 90
1
176
1
 40
1.0
176
1
 90
8
176
1
 62
7
176
1
 40
1.0
176
1
 90
1
176
1
 90
6
176
1
 90
2
176
1
 62
7
176
1
 90
5
176
1
 90
0
176
1
 90
0
176
1
290
0
176
1
 90
1
176
1
 40
0.0
176
1
 90
0
176
1
290
0
176
1
290
1
176
1
290
1
176
1
290
0
176
1
290
0
176
1
290
0
176
1
290
0
176
1
290
0
176
1
290
0
176
1
 90
50
176
1
 40
0.0
176
1
 40
1.0
176
1
 90
0
176
1
 62
18
420
0
176
1
 90
50
176
1
 90
3
176
1
 62
5
420
255
176
1
290
0
176
1
 90
50
176
1
 90
50
176
1
 90
50
176
1
290
0
176
1
 90
50
176
1
 62
256
176
0
 40
1.0
176
0
 90
2
176
1
  1
strokes_ogs.tif
176
1
290
0
176
1
 40
1.0
176
1
 40
1.0
176
1
  0
VISUALSTYLE
  5
62
102
{ACAD_REACTORS
330
16
102
}
330
16
100
AcDbVisualStyle
  2
Flat
 70
0
177
3
291
1
 70
58
 90
2
176
1
 90
2
176
1
 90
0
176
1
 90
2
176
1
 40
0.6
176
1
 40
30.0
176
1
 62
7
420
16777215
176
1
 90
1
176
1
 90
4
176
1
 62
7
176
1
 62
257
176
1
 90
1
176
1
 90
1
176
1
 40
1.0
176
1
 90
8
176
1
 62
7
176
1
 40
1.0
176
1
 90
1
176
1
 90
6
176
1
 90
2
176
1
 62
7
176
1
 90
5
176
1
 90
0
176
1
 90
0
176
1
290
0
176
1
 90
1
176
1
 40
0.0
176
1
 90
0
176
1
290
0
176
1
290
1
176
1
290
1
176
1
290
0
176
1
290
0
176
1
290
0
176
1
290
0
176
1
290
0
176
1
290
0
176
1
 90
50
176
1
 40
0.0
176
1
 40
1.0
176
1
 90
0
176
1
 62
18
420
0
176
1
 90
50
176
1
 90
3
176
1
 62
5
420
255
176
1
290
0
176
1
 90
50
176
1
 90
50
176
1
 90
50
176
1
290
0
176
1
 90
50
176
1
 62
256
176
0
 40
1.0
176
0
 90
2
176
1
  1
strokes_ogs.tif
176
1
290
0
176
1
 40
1.0
176
1
 40
1.0
176
1
  0
VISUALSTYLE
  5
63
102
{ACAD_REACTORS
330
16
102
}
330
16
100
AcDbVisualStyle
  2
FlatWithEdges
 70
1
177
3
291
1
 70
58
 90
2
176
1
 90
2
176
1
 90
0
176
1
 90
2
176
1
 40
0.6
176
1
 40
30.0
176
1
 62
7
420
16777215
176
1
 90
1
176
1
 90
4
176
1
 62
7
176
1
 62
257
176
1
 90
1
176
1
 90
1
176
1
 40
1.0
176
1
 90
8
176
1
 62
7
176
1
 40
1.0
176
1
 90
1
176
1
 90
6
176
1
 90
2
176
1
 62
7
176
1
 90
5
176
1
 90
0
176
1
 90
0
176
1
290
0
176
1
 90
1
176
1
 40
0.0
176
1
 90
0
176
1
290
0
176
1
290
1
176
1
290
1
176
1
290
0
176
1
290
0
176
1
290
0
176
1
290
0
176
1
290
0
176
1
290
0
176
1
 90
50
176
1
 40
0.0
176
1
 40
1.0
176
1
 90
0
176
1
 62
18
420
0
176
1
 90
50
176
1
 90
3
176
1
 62
5
420
255
176
1
290
0
176
1
 90
50
176
1
 90
50
176
1
 90
50
176
1
290
0
176
1
 90
50
176
1
 62
256
176
0
 40
1.0
176
0
 90
2
176
1
  1
strokes_ogs.tif
176
1
290
0
176
1
 40
1.0
176
1
 40
1.0
176
1
  0
VISUALSTYLE
  5
64
102
{ACAD_REACTORS
330
16
102
}
330
16
100
AcDbVisualStyle
  2
Gouraud
 70
2
177
3
291
1
 70
58
 90
2
176
1
 90
2
176
1
 90
0
176
1
 90
2
176
1
 40
0.6
176
1
 40
30.0
176
1
 62
7
420
16777215
176
1
 90
1
176
1
 90
4
176
1
 62
7
176
1
 62
257
176
1
 90
1
176
1
 90
1
176
1
 40
1.0
176
1
 90
8
176
1
 62
7
176
1
 40
1.0
176
1
 90
1
176
1
 90
6
176
1
 90
2
176
1
 62
7
176
1
 90
5
176
1
 90
0
176
1
 90
0
176
1
290
0
176
1
 90
1
176
1
 40
0.0
176
1
 90
0
176
1
290
0
176
1
290
1
176
1
290
1
176
1
290
0
176
1
290
0
176
1
290
0
176
1
290
0
176
1
290
0
176
1
290
0
176
1
 90
50
176
1
 40
0.0
176
1
 40
1.0
176
1
 90
0
176
1
 62
18
420
0
176
1
 90
50
176
1
 90
3
176
1
 62
5
420
255
176
1
290
0
176
1
 90
50
176
1
 90
50
176
1
 90
50
176
1
290
0
176
1
 90
50
176
1
 62
256
176
0
 40
1.0
176
0
 90
2
176
1
  1
strokes_ogs.tif
176
1
290
0
176
1
 40
1.0
176
1
 40
1.0
176
1
  0
VISUALSTYLE
  5
65
102
{ACAD_REACTORS
330
16
102
}
330
16
100
AcDbVisualStyle
  2
GouraudWithEdges
 70
3
177
3
291
1
 70
58
 90
2
176
1
 90
2
176
1
 90
0
176
1
 90
2
176
1
 40
0.6
176
1
 40
30.0
176
1
 62
7
420
16777215
176
1
 90
1
176
1
 90
4
176
1
 62
7
176
1
 62
257
176
1
 90
1
176
1
 90
1
176
1
 40
1.0
176
1
 90
8
176
1
 62
7
176
1
 40
1.0
176
1
 90
1
176
1
 90
6
176
1
 90
2
176
1
 62
7
176
1
 90
5
176
1
 90
0
176
1
 90
0
176
1
290
0
176
1
 90
1
176
1
 40
0.0
176
1
 90
0
176
1
290
0
176
1
290
1
176
1
290
1
176
1
290
0
176
1
290
0
176
1
290
0
176
1
290
0
176
1
290
0
176
1
290
0
176
1
 90
50
176
1
 40
0.0
176
1
 40
1.0
176
1
 90
0
176
1
 62
18
420
0
176
1
 90
50
176
1
 90
3
176
1
 62
5
420
255
176
1
290
0
176
1
 90
50
176
1
 90
50
176
1
 90
50
176
1
290
0
176
1
 90
50
176
1
 62
256
176
0
 40
1.0
176
0
 90
2
176
1
  1
strokes_ogs.tif
176
1
290
0
176
1
 40
1.0
176
1
 40
1.0
176
1
  0
VISUALSTYLE
  5
66
102
{ACAD_REACTORS
330
16
102
}
330
16
100
AcDbVisualStyle
  2
Hidden
 70
6
177
3
291
0
 70
58
 90
2
176
1
 90
2
176
1
 90
0
176
1
 90
1
176
1
 40
0.6
176
1
 40
30.0
176
1
 62
7
420
16777215
176
1
 90
1
176
1
 90
4
176
1
 62
7
176
1
 62
257
176
1
 90
1
176
1
 90
1
176
1
 40
1.0
176
1
 90
8
176
1
 62
7
176
1
 40
1.0
176
1
 90
1
176
1
 90
6
176
1
 90
2
176
1
 62
7
176
1
 90
5
176
1
 90
0
176
1
 90
0
176
1
290
0
176
1
 90
1
176
1
 40
0.0
176
1
 90
0
176
1
290
0
176
1
290
1
176
1
290
1
176
1
290
0
176
1
290
0
176
1
290
0
176
1
290
0
176
1
290
0
176
1
290
0
176
1
 90
50
176
1
 40
0.0
176
1
 40
1.0
176
1
 90
0
176
1
 62
18
420
0
176
1
 90
50
176
1
 90
3
176
1
 62
5
420
255
176
1
290
0
176
1
 90
50
176
1
 90
50
176
1
 90
50
176
1
290
0
176
1
 90
50
176
1
 62
256
176
0
 40
1.0
176
0
 90
2
176
1
  1
strokes_ogs.tif
176
1
290
0
176
1
 40
1.0
176
1
 40
1.0
176
1
  0
VISUALSTYLE
  5
67
102
{ACAD_REACTORS
330
16
102
}
330
16
100
AcDbVisualStyle
  2
JitterOff
 70
20
177
3
291
1
 70
58
 90
2
176
1
 90
2
176
1
 90
0
176
1
 90
2
176
1
 40
0.6
176
1
 40
30.0
176
1
 62
7
420
16777215
176
1
 90
1
176
1
 90
4
176
1
 62
7
176
1
 62
257
176
1
 90
1
176
1
 90
1
176
1
 40
1.0
176
1
 90
8
176
1
 62
7
176
1
 40
1.0
176
1
 90
1
176
1
 90
6
176
1
 90
2
176
1
 62
7
176
1
 90
5
176
1
 90
0
176
1
 90
0
176
1
290
0
176
1
 90
1
176
1
 40
0.0
176
1
 90
0
176
1
290
0
176
1
290
1
176
1
290
1
176
1
290
0
176
1
290
0
176
1
290
0
176
1
290
0
176
1
290
0
176
1
290
0
176
1
 90
50
176
1
 40
0.0
176
1
 40
1.0
176
1
 90
0
176
1
 62
18
420
0
176
1
 90
50
176
1
 90
3
176
1
 62
5
420
255
176
1
290
0
176
1
 90
50
176
1
 90
50
176
1
 90
50
176
1
290
0
176
1
 90
50
176
1
 62
256
176
0
 40
1.0
176
0
 90
2
176
1
  1
strokes_ogs.tif
176
1
290
0
176
1
 40
1.0
176
1
 40
1.0
176
1
  0
VISUALSTYLE
  5
68
102
{ACAD_REACTORS
330
16
102
}
330
16
100
AcDbVisualStyle
  2
Linepattern
 70
14
177
3
291
1
 70
58
 90
2
176
1
 90
2
176
1
 90
0
176
1
 90
2
176
1
 40
0.6
176
1
 40
30.0
176
1
 62
7
420
16777215
176
1
 90
1
176
1
 90
4
176
1
 62
7
176
1
 62
257
176
1
 90
1
176
1
 90
1
176
1
 40
1.0
176
1
 90
8
176
1
 62
7
176
1
 40
1.0
176
1
 90
1
176
1
 90
6
176
1
 90
2
176
1
 62
7
176
1
 90
5
176
1
 90
0
176
1
 90
0
176
1
290
0
176
1
 90
1
176
1
 40
0.0
176
1
 90
0
176
1
290
0
176
1
290
1
176
1
290
1
176
1
290
0
176
1
290
0
176
1
290
0
176
1
290
0
176
1
290
0
176
1
290
0
176
1
 90
50
176
1
 40
0.0
176
1
 40
1.0
176
1
 90
0
176
1
 62
18
420
0
176
1
 90
50
176
1
 90
3
176
1
 62
5
420
255
176
1
290
0
176
1
 90
50
176
1
 90
50
176
1
 90
50
176
1
290
0
176
1
 90
50
176
1
 62
256
176
0
 40
1.0
176
0
 90
2
176
1
  1
strokes_ogs.tif
176
1
290
0
176
1
 40
1.0
176
1
 40
1.0
176
1
  0
VISUALSTYLE
  5
69
102
{ACAD_REACTORS
330
16
102
}
330
16
100
AcDbVisualStyle
  2
Modeling
 70
10
177
3
291
0
 70
58
 90
2
176
1
 90
2
176
1
 90
0
176
1
 90
2
176
1
 40
0.6
176
1
 40
30.0
176
1
 62
7
420
16777215
176
1
 90
1
176
1
 90
4
176
1
 62
7
176
1
 62
257
176
1
 90
1
176
1
 90
1
176
1
 40
1.0
176
1
 90
8
176
1
 62
7
176
1
 40
1.0
176
1
 90
1
176
1
 90
6
176
1
 90
2
176
1
 62
7
176
1
 90
5
176
1
 90
0
176
1
 90
0
176
1
290
0
176
1
 90
1
176
1
 40
0.0
176
1
 90
0
176
1
290
0
176
1
290
1
176
1
290
1
176
1
290
0
176
1
290
0
176
1
290
0
176
1
290
0
176
1
290
0
176
1
290
0
176
1
 90
50
176
1
 40
0.0
176
1
 40
1.0
176
1
 90
0
176
1
 62
18
420
0
176
1
 90
50
176
1
 90
3
176
1
 62
5
420
255
176
1
290
0
176
1
 90
50
176
1
 90
50
176
1
 90
50
176
1
290
0
176
1
 90
50
176
1
 62
256
176
0
 40
1.0
176
0
 90
2
176
1
  1
strokes_ogs.tif
176
1
290
0
176
1
 40
1.0
176
1
 40
1.0
176
1
  0
VISUALSTYLE
  5
6A
102
{ACAD_REACTORS
330
16
102
}
330
16
100
AcDbVisualStyle
  2
OverhangOff
 70
21
177
3
291
1
 70
58
 90
2
176
1
 90
2
176
1
 90
0
176
1
 90
2
176
1
 40
0.6
176
1
 40
30.0
176
1
 62
7
420
16777215
176
1
 90
1
176
1
 90
4
176
1
 62
7
176
1
 62
257
176
1
 90
1
176
1
 90
1
176
1
 40
1.0
176
1
 90
8
176
1
 62
7
176
1
 40
1.0
176
1
 90
1
176
1
 90
6
176
1
 90
2
176
1
 62
7
176
1
 90
5
176
1
 90
0
176
1
 90
0
176
1
290
0
176
1
 90
1
176
1
 40
0.0
176
1
 90
0
176
1
290
0
176
1
290
1
176
1
290
1
176
1
290
0
176
1
290
0
176
1
290
0
176
1
290
0
176
1
290
0
176
1
290
0
176
1
 90
50
176
1
 40
0.0
176
1
 40
1.0
176
1
 90
0
176
1
 62
18
420
0
176
1
 90
50
176
1
 90
3
176
1
 62
5
420
255
176
1
290
0
176
1
 90
50
176
1
 90
50
176
1
 90
50
176
1
290
0
176
1
 90
50
176
1
 62
256
176
0
 40
1.0
176
0
 90
2
176
1
  1
strokes_ogs.tif
176
1
290
0
176
1
 40
1.0
176
1
 40
1.0
176
1
  0
VISUALSTYLE
  5
6B
102
{ACAD_REACTORS
330
16
102
}
330
16
100
AcDbVisualStyle
  2
Realistic
 70
8
177
3
291
0
 70
58
 90
2
176
1
 90
2
176
1
 90
0
176
1
 90
2
176
1
 40
0.6
176
1
 40
30.0
176
1
 62
7
420
16777215
176
1
 90
1
176
1
 90
4
176
1
 62
7
176
1
 62
257
176
1
 90
1
176
1
 90
1
176
1
 40
1.0
176
1
 90
8
176
1
 62
7
176
1
 40
1.0
176
1
 90
1
176
1
 90
6
176
1
 90
2
176
1
 62
7
176
1
 90
5
176
1
 90
0
176
1
 90
0
176
1
290
0
176
1
 90
1
176
1
 40
0.0
176
1
 90
0
176
1
290
0
176
1
290
1
176
1
290
1
176
1
290
0
176
1
290
0
176
1
290
0
176
1
290
0
176
1
290
0
176
1
290
0
176
1
 90
50
176
1
 40
0.0
176
1
 40
1.0
176
1
 90
0
176
1
 62
18
420
0
176
1
 90
50
176
1
 90
3
176
1
 62
5
420
255
176
1
290
0
176
1
 90
50
176
1
 90
50
176
1
 90
50
176
1
290
0
176
1
 90
50
176
1
 62
256
176
0
 40
1.0
176
0
 90
2
176
1
  1
strokes_ogs.tif
176
1
290
0
176
1
 40
1.0
176
1
 40
1.0
176
1
  0
VISUALSTYLE
  5
6C
102
{ACAD_REACTORS
330
16
102
}
330
16
100
AcDbVisualStyle
  2
Shaded
 70
27
177
3
291
0
 70
58
 90
2
176
1
 90
2
176
1
 90
0
176
1
 90
2
176
1
 40
0.6
176
1
 40
30.0
176
1
 62
7
420
16777215
176
1
 90
1
176
1
 90
4
176
1
 62
7
176
1
 62
257
176
1
 90
1
176
1
 90
1
176
1
 40
1.0
176
1
 90
8
176
1
 62
7
176
1
 40
1.0
176
1
 90
1
176
1
 90
6
176
1
 90
2
176
1
 62
7
176
1
 90
5
176
1
 90
0
176
1
 90
0
176
1
290
0
176
1
 90
1
176
1
 40
0.0
176
1
 90
0
176
1
290
0
176
1
290
1
176
1
290
1
176
1
290
0
176
1
290
0
176
1
290
0
176
1
290
0
176
1
290
0
176
1
290
0
176
1
 90
50
176
1
 40
0.0
176
1
 40
1.0
176
1
 90
0
176
1
 62
18
420
0
176
1
 90
50
176
1
 90
3
176
1
 62
5
420
255
176
1
290
0
176
1
 90
50
176
1
 90
50
176
1
 90
50
176
1
290
0
176
1
 90
50
176
1
 62
256
176
0
 40
1.0
176
0
 90
2
176
1
  1
strokes_ogs.tif
176
1
290
0
176
1
 40
1.0
176
1
 40
1.0
176
1
  0
VISUALSTYLE
  5
6D
102
{ACAD_REACTORS
330
16
102
}
330
16
100
AcDbVisualStyle
  2
Shaded with edges
 70
26
177
3
291
0
 70
58
 90
2
176
1
 90
2
176
1
 90
0
176
1
 90
2
176
1
 40
0.6
176
1
 40
30.0
176
1
 62
7
420
16777215
176
1
 90
1
176
1
 90
4
176
1
 62
7
176
1
 62
257
176
1
 90
1
176
1
 90
1
176
1
 40
1.0
176
1
 90
8
176
1
 62
7
176
1
 40
1.0
176
1
 90
1
176
1
 90
6
176
1
 90
2
176
1
 62
7
176
1
 90
5
176
1
 90
0
176
1
 90
0
176
1
290
0
176
1
 90
1
176
1
 40
0.0
176
1
 90
0
176
1
290
0
176
1
290
1
176
1
290
1
176
1
290
0
176
1
290
0
176
1
290
0
176
1
290
0
176
1
290
0
176
1
290
0
176
1
 90
50
176
1
 40
0.0
176
1
 40
1.0
176
1
 90
0
176
1
 62
18
420
0
176
1
 90
50
176
1
 90
3
176
1
 62
5
420
255
176
1
290
0
176
1
 90
50
176
1
 90
50
176
1
 90
50
176
1
290
0
176
1
 90
50
176
1
 62
256
176
0
 40
1.0
176
0
 90
2
176
1
  1
strokes_ogs.tif
176
1
290
0
176
1
 40
1.0
176
1
 40
1.0
176
1
  0
VISUALSTYLE
  5
6E
102
{ACAD_REACTORS
330
16
102
}
330
16
100
AcDbVisualStyle
  2
Shades of Gray
 70
23
177
3
291
0
 70
58
 90
2
176
1
 90
2
176
1
 90
0
176
1
 90
2
176
1
 40
0.6
176
1
 40
30.0
176
1
 62
7
420
16777215
176
1
 90
1
176
1
 90
4
176
1
 62
7
176
1
 62
257
176
1
 90
1
176
1
 90
1
176
1
 40
1.0
176
1
 90
8
176
1
 62
7
176
1
 40
1.0
176
1
 90
1
176
1
 90
6
176
1
 90
2
176
1
 62
7
176
1
 90
5
176
1
 90
0
176
1
 90
0
176
1
290
0
176
1
 90
1
176
1
 40
0.0
176
1
 90
0
176
1
290
0
176
1
290
1
176
1
290
1
176
1
290
0
176
1
290
0
176
1
290
0
176
1
290
0
176
1
290
0
176
1
290
0
176
1
 90
50
176
1
 40
0.0
176
1
 40
1.0
176
1
 90
0
176
1
 62
18
420
0
176
1
 90
50
176
1
 90
3
176
1
 62
5
420
255
176
1
290
0
176
1
 90
50
176
1
 90
50
176
1
 90
50
176
1
290
0
176
1
 90
50
176
1
 62
256
176
0
 40
1.0
176
0
 90
2
176
1
  1
strokes_ogs.tif
176
1
290
0
176
1
 40
1.0
176
1
 40
1.0
176
1
  0
VISUALSTYLE
  5
6F
102
{ACAD_REACTORS
330
16
102
}
330
16
100
AcDbVisualStyle
  2
Sketchy
 70
24
177
3
291
0
 70
58
 90
2
176
1
 90
2
176
1
 90
0
176
1
 90
1
176
1
 40
0.6
176
1
 40
30.0
176
1
 62
7
420
16777215
176
1
 90
1
176
1
 90
4
176
1
 62
7
176
1
 62
257
176
1
 90
1
176
1
 90
1
176
1
 40
1.0
176
1
 90
8
176
1
 62
7
176
1
 40
1.0
176
1
 90
1
176
1
 90
6
176
1
 90
2
176
1
 62
7
176
1
 90
5
176
1
 90
0
176
1
 90
0
176
1
290
0
176
1
 90
1
176
1
 40
0.0
176
1
 90
0
176
1
290
0
176
1
290
1
176
1
290
1
176
1
290
0
176
1
290
0
176
1
290
0
176
1
290
0
176
1
290
0
176
1
290
0
176
1
 90
50
176
1
 40
0.0
176
1
 40
1.0
176
1
 90
0
176
1
 62
18
420
0
176
1
 90
50
176
1
 90
3
176
1
 62
5
420
255
176
1
290
0
176
1
 90
50
176
1
 90
50
176
1
 90
50
176
1
290
0
176
1
 90
50
176
1
 62
256
176
0
 40
1.0
176
0
 90
2
176
1
  1
strokes_ogs.tif
176
1
290
0
176
1
 40
1.0
176
1
 40
1.0
176
1
  0
VISUALSTYLE
  5
70
102
{ACAD_REACTORS
330
16
102
}
330
16
100
AcDbVisualStyle
  2
Thicken
 70
13
177
3
291
1
 70
58
 90
2
176
1
 90
2
176
1
 90
0
176
1
 90
2
176
1
 40
0.6
176
1
 40
30.0
176
1
 62
7
420
16777215
176
1
 90
1
176
1
 90
4
176
1
 62
7
176
1
 62
257
176
1
 90
1
176
1
 90
1
176
1
 40
1.0
176
1
 90
8
176
1
 62
7
176
1
 40
1.0
176
1
 90
1
176
1
 90
6
176
1
 90
2
176
1
 62
7
176
1
 90
5
176
1
 90
0
176
1
 90
0
176
1
290
0
176
1
 90
1
176
1
 40
0.0
176
1
 90
0
176
1
290
0
176
1
290
1
176
1
290
1
176
1
290
0
176
1
290
0
176
1
290
0
176
1
290
0
176
1
290
0
176
1
290
0
176
1
 90
50
176
1
 40
0.0
176
1
 40
1.0
176
1
 90
0
176
1
 62
18
420
0
176
1
 90
50
176
1
 90
3
176
1
 62
5
420
255
176
1
290
0
176
1
 90
50
176
1
 90
50
176
1
 90
50
176
1
290
0
176
1
 90
50
176
1
 62
256
176
0
 40
1.0
176
0
 90
2
176
1
  1
strokes_ogs.tif
176
1
290
0
176
1
 40
1.0
176
1
 40
1.0
176
1
  0
VISUALSTYLE
  5
71
102
{ACAD_REACTORS
330
16
102
}
330
16
100
AcDbVisualStyle
  2
Wireframe
 70
5
177
3
291
0
 70
58
 90
2
176
1
 90
2
176
1
 90
0
176
1
 90
0
176
1
 40
0.6
176
1
 40
30.0
176
1
 62
7
420
16777215
176
1
 90
1
176
1
 90
4
176
1
 62
7
176
1
 62
257
176
1
 90
1
176
1
 90
1
176
1
 40
1.0
176
1
 90
8
176
1
 62
7
176
1
 40
1.0
176
1
 90
1
176
1
 90
6
176
1
 90
2
176
1
 62
7
176
1
 90
5
176
1
 90
0
176
1
 90
0
176
1
290
0
176
1
 90
1
176
1
 40
0.0
176
1
 90
0
176
1
290
0
176
1
290
1
176
1
290
1
176
1
290
0
176
1
290
0
176
1
290
0
176
1
290
0
176
1
290
0
176
1
290
0
176
1
 90
50
176
1
 40
0.0
176
1
 40
1.0
176
1
 90
0
176
1
 62
18
420
0
176
1
 90
50
176
1
 90
3
176
1
 62
5
420
255
176
1
290
0
176
1
 90
50
176
1
 90
50
176
1
 90
50
176
1
290
0
176
1
 90
50
176
1
 62
256
176
0
 40
1.0
176
0
 90
2
176
1
  1
strokes_ogs.tif
176
1
290
0
176
1
 40
1.0
176
1
 40
1.0
176
1
  0
VISUALSTYLE
  5
72
102
{ACAD_REACTORS
330
16
102
}
330
16
100
AcDbVisualStyle
  2
X-Ray
 70
25
177
3
291
0
 70
58
 90
2
176
1
 90
2
176
1
 90
0
176
1
 90
2
176
1
 40
0.5
176
1
 40
30.0
176
1
 62
7
420
16777215
176
1
 90
1
176
1
 90
4
176
1
 62
7
176
1
 62
257
176
1
 90
1
176
1
 90
1
176
1
 40
1.0
176
1
 90
8
176
1
 62
7
176
1
 40
1.0
176
1
 90
1
176
1
 90
6
176
1
 90
2
176
1
 62
7
176
1
 90
5
176
1
 90
0
176
1
 90
0
176
1
290
0
176
1
 90
1
176
1
 40
0.0
176
1
 90
0
176
1
290
0
176
1
290
1
176
1
290
1
176
1
290
0
176
1
290
0
176
1
290
0
176
1
290
0
176
1
290
0
176
1
290
0
176
1
 90
50
176
1
 40
0.0
176
1
 40
1.0
176
1
 90
0
176
1
 62
18
420
0
176
1
 90
50
176
1
 90
3
176
1
 62
5
420
255
176
1
290
0
176
1
 90
50
176
1
 90
50
176
1
 90
50
176
1
290
0
176
1
 90
50
176
1
 62
256
176
0
 40
1.0
176
0
 90
2
176
1
  1
strokes_ogs.tif
176
1
290
0
176
1
 40
1.0
176
1
 40
1.0
176
1
  0
DICTIONARYVAR
  5
1DB
330
2D
100
DictionaryVariables
280
0
  1
1.4.4 @ 2026-10-04T15:04:41.309202+00:00
  0
ENDSEC
  0
EOF
