  0
SECTION
  2
HEADER
  9
$ACADVER
  1
AC1032
  9
$ACADMAINTVER
 90
4
  9
$DWGCODEPAGE
  3
ANSI_1252
  9
$LASTSAVEDBY
  1
ezdxf
  9
$REQUIREDVERSIONS
160
0
  9
$INSBASE
 10
0.0
 20
0.0
 30
0.0
  9
$EXTMIN
 10
1e+20
 20
1e+20
 30
1e+20
  9
$EXTMAX
 10
-1e+20
 20
-1e+20
 30
-1e+20
  9
$LIMMIN
 10
0.0
 20
0.0
  9
$LIMMAX
 10
420.0
 20
297.0
  9
$ORTHOMODE
 70
0
  9
$REGENMODE
 70
1
  9
$FILLMODE
 70
1
  9
$QTEXTMODE
 70
0
  9
$MIRRTEXT
 70
1
  9
$LTSCALE
 40
250.0
  9
$ATTMODE
 70
1
  9
$TEXTSIZE
 40
2.5
  9
$TRACEWID
 40
1.0
  9
$TEXTSTYLE
  7
OpenSans
  9
$CLAYER
  8
0
  9
$CELTYPE
  6
ByLayer
  9
$CECOLOR
 62
256
  9
$CELTSCALE
 40
1.0
  9
$DISPSILH
 70
0
  9
$DIMSCALE
 40
1.0
  9
$DIMASZ
 40
0.175
  9
$DIMEXO
 40
0.125
  9
$DIMDLI
 40
3.75
  9
$DIMRND
 40
0.0
  9
$DIMDLE
 40
0.0
  9
$DIMEXE
 40
0.375
  9
$DIMTP
 40
0.0
  9
$DIMTM
 40
0.0
  9
$DIMTXT
 40
0.25
  9
$DIMCEN
 40
2.5
  9
$DIMTSZ
 40
0.0
  9
$DIMTOL
 70
0
  9
$DIMLIM
 70
0
  9
$DIMTIH
 70
0
  9
$DIMTOH
 70
0
  9
$DIMSE1
 70
0
  9
$DIMSE2
 70
0
  9
$DIMTAD
 70
1
  9
$DIMZIN
 70
12
  9
$DIMBLK
  1
ARCHTICK
  9
$DIMASO
 70
1
  9
$DIMSHO
 70
1
  9
$DIMPOST
  1

  9
$DIMAPOST
  1

  9
$DIMALT
 70
0
  9
$DIMALTD
 70
3
  9
$DIMALTF
 40
0.03937007874
  9
$DIMLFAC
 40
100.0
  9
$DIMTOFL
 70
1
  9
$DIMTVP
 40
0.0
  9
$DIMTIX
 70
0
  9
$DIMSOXD
 70
0
  9
$DIMSAH
 70
0
  9
$DIMBLK1
  1

  9
$DIMBLK2
  1

  9
$DIMSTYLE
  2
EZDXF
  9
$DIMCLRD
 70
0
  9
$DIMCLRE
 70
0
  9
$DIMCLRT
 70
0
  9
$DIMTFAC
 40
0.5
  9
$DIMGAP
 40
0.1
  9
$DIMJUST
 70
0
  9
$DIMSD1
 70
0
  9
$DIMSD2
 70
0
  9
$DIMTOLJ
 70
0
  9
$DIMTZIN
 70
8
  9
$DIMALTZ
 70
0
  9
$DIMALTTZ
 70
0
  9
$DIMUPT
 70
1
  9
$DIMDEC
 70
2
  9
$DIMTDEC
 70
2
  9
$DIMALTU
 70
2
  9
$DIMALTTD
 70
3
  9
$DIMTXSTY
  7
OpenSansCondensed-Light
  9
$DIMAUNIT
 70
0
  9
$DIMADEC
 70
2
  9
$DIMALTRND
 40
0.0
  9
$DIMAZIN
 70
3
  9
$DIMDSEP
 70
46
  9
$DIMATFIT
 70
3
  9
$DIMFRAC
 70
0
  9
$DIMLDRBLK
  1

  9
$DIMLUNIT
 70
2
  9
$DIMLWD
 70
-2
  9
$DIMLWE
 70
-2
  9
$DIMTMOVE
 70
2
  9
$DIMFXL
 40
1.0
  9
$DIMFXLON
 70
0
  9
$DIMJOGANG
 40
0.785398163397
  9
$DIMTFILL
 70
0
  9
$DIMTFILLCLR
 70
0
  9
$DIMARCSYM
 70
0
  9
$DIMLTYPE
  6

  9
$DIMLTEX1
  6

  9
$DIMLTEX2
  6

  9
$DIMTXTDIRECTION
 70
0
  9
$LUNITS
 70
2
  9
$LUPREC
 70
4
  9
$SKETCHINC
 40
1.0
  9
$FILLETRAD
 40
10.0
  9
$AUNITS
 70
0
  9
$AUPREC
 70
2
  9
$MENU
  1
.
  9
$ELEVATION
 40
0.0
  9
$PELEVATION
 40
0.0
  9
$THICKNESS
 40
0.0
  9
$LIMCHECK
 70
0
  9
$CHAMFERA
 40
0.0
  9
$CHAMFERB
 40
0.0
  9
$CHAMFERC
 40
0.0
  9
$CHAMFERD
 40
0.0
  9
$SKPOLY
 70
0
  9
$TDCREATE
 40
2461317.1283101854
  9
$TDUCREATE
 40
2458532.153996898
  9
$TDUPDATE
 40
2461317.1283217594
  9
$TDUUPDATE
 40
2458532.1544311
  9
$TDINDWG
 40
0.0
  9
$TDUSRTIMER
 40
0.0
  9
$USRTIMER
 70
1
  9
$ANGBASE
 50
0.0
  9
$ANGDIR
 70
0
  9
$PDMODE
 70
0
  9
$PDSIZE
 40
0.0
  9
$PLINEWID
 40
0.0
  9
$SPLFRAME
 70
0
  9
$SPLINETYPE
 70
6
  9
$SPLINESEGS
 70
8
  9
$HANDSEED
  5
1F2
  9
$SURFTAB1
 70
6
  9
$SURFTAB2
 70
6
  9
$SURFTYPE
 70
6
  9
$SURFU
 70
6
  9
$SURFV
 70
6
  9
$UCSBASE
  2

  9
$UCSNAME
  2

  9
$UCSORG
 10
0.0
 20
0.0
 30
0.0
  9
$UCSXDIR
 10
1.0
 20
0.0
 30
0.0
  9
$UCSYDIR
 10
0.0
 20
1.0
 30
0.0
  9
$UCSORTHOREF
  2

  9
$UCSORTHOVIEW
 70
0
  9
$UCSORGTOP
 10
0.0
 20
0.0
 30
0.0
  9
$UCSORGBOTTOM
 10
0.0
 20
0.0
 30
0.0
  9
$UCSORGLEFT
 10
0.0
 20
0.0
 30
0.0
  9
$UCSORGRIGHT
 10
0.0
 20
0.0
 30
0.0
  9
$UCSORGFRONT
 10
0.0
 20
0.0
 30
0.0
  9
$UCSORGBACK
 10
0.0
 20
0.0
 30
0.0
  9
$PUCSBASE
  2

  9
$PUCSNAME
  2

  9
$PUCSORG
 10
0.0
 20
0.0
 30
0.0
  9
$PUCSXDIR
 10
1.0
 20
0.0
 30
0.0
  9
$PUCSYDIR
 10
0.0
 20
1.0
 30
0.0
  9
$PUCSORTHOREF
  2

  9
$PUCSORTHOVIEW
 70
0
  9
$PUCSORGTOP
 10
0.0
 20
0.0
 30
0.0
  9
$PUCSORGBOTTOM
 10
0.0
 20
0.0
 30
0.0
  9
$PUCSORGLEFT
 10
0.0
 20
0.0
 30
0.0
  9
$PUCSORGRIGHT
 10
0.0
 20
0.0
 30
0.0
  9
$PUCSORGFRONT
 10
0.0
 20
0.0
 30
0.0
  9
$PUCSORGBACK
 10
0.0
 20
0.0
 30
0.0
  9
$USERI1
 70
0
  9
$USERI2
 70
0
  9
$USERI3
 70
0
  9
$USERI4
 70
0
  9
$USERI5
 70
0
  9
$USERR1
 40
0.0
  9
$USERR2
 40
0.0
  9
$USERR3
 40
0.0
  9
$USERR4
 40
0.0
  9
$USERR5
 40
0.0
  9
$WORLDVIEW
 70
1
  9
$SHADEDGE
 70
3
  9
$SHADEDIF
 70
70
  9
$TILEMODE
 70
1
  9
$MAXACTVP
 70
64
  9
$PINSBASE
 10
0.0
 20
0.0
 30
0.0
  9
$PLIMCHECK
 70
0
  9
$PEXTMIN
 10
1e+20
 20
1e+20
 30
1e+20
  9
$PEXTMAX
 10
-1e+20
 20
-1e+20
 30
-1e+20
  9
$PLIMMIN
 10
0.0
 20
0.0
  9
$PLIMMAX
 10
420.0
 20
297.0
  9
$UNITMODE
 70
0
  9
$VISRETAIN
 70
1
  9
$PLINEGEN
 70
0
  9
$PSLTSCALE
 70
0
  9
$TREEDEPTH
 70
3020
  9
$CMLSTYLE
  2
Standard
  9
$CMLJUST
 70
0
  9
$CMLSCALE
 40
20.0
  9
$PROXYGRAPHICS
 70
1
  9
$MEASUREMENT
 70
1
  9
$CELWEIGHT
370
-1
  9
$ENDCAPS
280
0
  9
$JOINSTYLE
280
0
  9
$LWDISPLAY
290
0
  9
$INSUNITS
 70
4
  9
$HYPERLINKBASE
  1

  9
$STYLESHEET
  1

  9
$XEDIT
290
1
  9
$CEPSNTYPE
380
0
  9
$PSTYLEMODE
290
1
  9
$FINGERPRINTGUID
  2
{28E32D05-A157-4DB4-B56A-31F58BEB7E2D}
  9
$VERSIONGUID
  2
{C8C9FB88-123A-4ED6-8815-D55881F3BD77}
  9
$EXTNAMES
290
1
  9
$PSVPSCALE
 40
0.0
  9
$OLESTARTUP
290
0
  9
$SORTENTS
280
127
  9
$INDEXCTL
280
0
  9
$HIDETEXT
280
1
  9
$XCLIPFRAME
280
1
  9
$HALOGAP
280
0
  9
$OBSCOLOR
 70
257
  9
$OBSLTYPE
280
0
  9
$INTERSECTIONDISPLAY
280
0
  9
$INTERSECTIONCOLOR
 70
257
  9
$DIMASSOC
280
2
  9
$PROJECTNAME
  1

  9
$CAMERADISPLAY
290
0
  9
$LENSLENGTH
 40
50.0
  9
$CAMERAHEIGHT
 40
0.0
  9
$STEPSPERSEC
 40
24.0
  9
$STEPSIZE
 40
100.0
  9
$3DDWFPREC
 40
2.0
  9
$PSOLWIDTH
 40
0.005
  9
$PSOLHEIGHT
 40
0.08
  9
$LOFTANG1
 40
1.570796326795
  9
$LOFTANG2
 40
1.570796326795
  9
$LOFTMAG1
 40
0.0
  9
$LOFTMAG2
 40
0.0
  9
$LOFTPARAM
 70
7
  9
$LOFTNORMALS
280
1
  9
$LATITUDE
 40
37.795
  9
$LONGITUDE
 40
-122.394
  9
$NORTHDIRECTION
 40
0.0
  9
$TIMEZONE
 70
-8000
  9
$LIGHTGLYPHDISPLAY
280
1
  9
$TILEMODELIGHTSYNCH
280
1
  9
$CMATERIAL
347
20
  9
$SOLIDHIST
280
0
  9
$SHOWHIST
280
1
  9
$DWFFRAME
280
2
  9
$DGNFRAME
280
2
  9
$REALWORLDSCALE
290
1
  9
$INTERFERECOLOR
 62
256
  9
$CSHADOW
280
0
  9
$SHADOWPLANELOCATION
 40
0.0
  0
ENDSEC
  0
SECTION
  2
CLASSES
  0
CLASS
  1
ACDBDICTIONARYWDFLT
  2
AcDbDictionaryWithDefault
  3
ObjectDBX Classes
 90
0
 91
0
280
0
281
0
  0
CLASS
  1
SUN
  2
AcDbSun
  3
SCENEOE
 90
1153
 91
0
280
0
281
0
  0
CLASS
  1
VISUALSTYLE
  2
AcDbVisualStyle
  3
ObjectDBX Classes
 90
4095
 91
0
280
0
281
0
  0
CLASS
  1
MATERIAL
  2
AcDbMaterial
  3
ObjectDBX Classes
 90
1153
 91
0
280
0
281
0
  0
CLASS
  1
SCALE
  2
AcDbScale
  3
ObjectDBX Classes
 90
1153
 91
0
280
0
281
0
  0
CLASS
  1
TABLESTYLE
  2
AcDbTableStyle
  3
ObjectDBX Classes
 90
4095
 91
0
280
0
281
0
  0
CLASS
  1
MLEADERSTYLE
  2
AcDbMLeaderStyle
  3
ACDB_MLEADERSTYLE_CLASS
 90
4095
 91
0
280
0
281
0
  0
CLASS
  1
DICTIONARYVAR
  2
AcDbDictionaryVar
  3
ObjectDBX Classes
 90
0
 91
0
280
0
281
0
  0
CLASS
  1
CELLSTYLEMAP
  2
AcDbCellStyleMap
  3
ObjectDBX Classes
 90
1152
 91
0
280
0
281
0
  0
CLASS
  1
MENTALRAYRENDERSETTINGS
  2
AcDbMentalRayRenderSettings
  3
SCENEOE
 90
1024
 91
0
280
0
281
0
  0
CLASS
  1
ACDBDETAILVIEWSTYLE
  2
AcDbDetailViewStyle
  3
ObjectDBX Classes
 90
1025
 91
0
280
0
281
0
  0
CLASS
  1
ACDBSECTIONVIEWSTYLE
  2
AcDbSectionViewStyle
  3
ObjectDBX Classes
 90
1025
 91
0
280
0
281
0
  0
CLASS
  1
RASTERVARIABLES
  2
AcDbRasterVariables
  3
ISM
 90
0
 91
0
280
0
281
0
  0
CLASS
  1
ACDBPLACEHOLDER
  2
AcDbPlaceHolder
  3
ObjectDBX Classes
 90
0
 91
0
280
0
281
0
  0
CLASS
  1
LAYOUT
  2
AcDbLayout
  3
ObjectDBX Classes
 90
0
 91
0
280
0
281
0
  0
ENDSEC
  0
SECTION
  2
TABLES
  0
TABLE
  2
VPORT
  5
8
330
0
100
AcDbSymbolTable
 70
1
  0
VPORT
  5
23
330
8
100
AcDbSymbolTableRecord
100
AcDbViewportTableRecord
  2
*Active
 70
0
 10
0.0
 20
0.0
 11
1.0
 21
1.0
 12
0.0
 22
0.0
 13
0.0
 23
0.0
 14
0.5
 24
0.5
 15
0.5
 25
0.5
 16
0.0
 26
0.0
 36
1.0
 17
0.0
 27
0.0
 37
0.0
 40
1000.0
 41
1.34
 42
50.0
 43
0.0
 44
0.0
 50
0.0
 51
0.0
 71
0
 72
1000
 73
1
 74
3
 75
0
 76
0
 77
0
 78
0
281
0
 65
0
146
0.0
  0
ENDTAB
  0
TABLE
  2
LTYPE
  5
2
330
0
100
AcDbSymbolTable
 70
21
  0
LTYPE
  5
24
330
2
100
AcDbSymbolTableRecord
100
AcDbLinetypeTableRecord
  2
ByBlock
 70
0
  3

 72
65
 73
0
 40
0.0
  0
LTYPE
  5
25
330
2
100
AcDbSymbolTableRecord
100
AcDbLinetypeTableRecord
  2
ByLayer
 70
0
  3

 72
65
 73
0
 40
0.0
  0
LTYPE
  5
26
330
2
100
AcDbSymbolTableRecord
100
AcDbLinetypeTableRecord
  2
Continuous
 70
0
  3

 72
65
 73
0
 40
0.0
  0
LTYPE
  5
2F
330
2
100
AcDbSymbolTableRecord
100
AcDbLinetypeTableRecord
  2
CENTER
 70
0
  3
Center ____ _ ____ _ ____ _ ____ _ ____ _ ____
 72
65
 73
4
 40
5.08
 49
3.175
 74
0
 49
-0.635
 74
0
 49
0.635
 74
0
 49
-0.635
 74
0
  0
LTYPE
  5
30
330
2
100
AcDbSymbolTableRecord
100
AcDbLinetypeTableRecord
  2
CENTERX2
 70
0
  3
Center (2x) ________  __  ________  __  ________
 72
65
 73
4
 40
8.89
 49
6.35
 74
0
 49
-0.635
 74
0
 49
1.27
 74
0
 49
-0.635
 74
0
  0
LTYPE
  5
31
330
2
100
AcDbSymbolTableRecord
100
AcDbLinetypeTableRecord
  2
CENTER2
 70
0
  3
Center (.5x) ____ _ ____ _ ____ _ ____ _ ____
 72
65
 73
4
 40
2.54
 49
1.587
 74
0
 49
-0.318
 74
0
 49
0.318
 74
0
 49
-0.318
 74
0
  0
LTYPE
  5
32
330
2
100
AcDbSymbolTableRecord
100
AcDbLinetypeTableRecord
  2
DASHED
 70
0
  3
Dashed __ __ __ __ __ __ __ __ __ __ __ __ __ _
 72
65
 73
2
 40
1.524
 49
1.27
 74
0
 49
-0.254
 74
0
  0
LTYPE
  5
33
330
2
100
AcDbSymbolTableRecord
100
AcDbLinetypeTableRecord
  2
DASHEDX2
 70
0
  3
Dashed (2x) ____  ____  ____  ____  ____  ____
 72
65
 73
2
 40
3.048
 49
2.54
 74
0
 49
-0.508
 74
0
  0
LTYPE
  5
34
330
2
100
AcDbSymbolTableRecord
100
AcDbLinetypeTableRecord
  2
DASHED2
 70
0
  3
Dashed (.5x) _ _ _ _ _ _ _ _ _ _ _ _ _ _
 72
65
 73
2
 40
0.762
 49
0.635
 74
0
 49
-0.127
 74
0
  0
LTYPE
  5
35
330
2
100
AcDbSymbolTableRecord
100
AcDbLinetypeTableRecord
  2
PHANTOM
 70
0
  3
Phantom ______  __  __  ______  __  __  ______
 72
65
 73
6
 40
6.35
 49
3.175
 74
0
 49
-0.635
 74
0
 49
0.635
 74
0
 49
-0.635
 74
0
 49
0.635
 74
0
 49
-0.635
 74
0
  0
LTYPE
  5
36
330
2
100
AcDbSymbolTableRecord
100
AcDbLinetypeTableRecord
  2
PHANTOMX2
 70
0
  3
Phantom (2x)____________    ____    ____    ____________
 72
65
 73
6
 40
10.795
 49
6.35
 74
0
 49
-0.635
 74
0
 49
1.27
 74
0
 49
-0.635
 74
0
 49
1.27
 74
0
 49
-0.635
 74
0
  0
LTYPE
  5
37
330
2
100
AcDbSymbolTableRecord
100
AcDbLinetypeTableRecord
  2
PHANTOM2
 70
0
  3
Phantom (.5x) ___ _ _ ___ _ _ ___ _ _ ___ _ _ ___
 72
65
 73
6
 40
3.175
 49
1.587
 74
0
 49
-0.318
 74
0
 49
0.318
 74
0
 49
-0.318
 74
0
 49
0.318
 74
0
 49
-0.318
 74
0
  0
LTYPE
  5
38
330
2
100
AcDbSymbolTableRecord
100
AcDbLinetypeTableRecord
  2
DASHDOT
 70
0
  3
Dash dot __ . __ . __ . __ . __ . __ . __ . __
 72
65
 73
4
 40
3.556
 49
2.54
 74
0
 49
-0.508
 74
0
 49
0.0
 74
0
 49
-0.508
 74
0
  0
LTYPE
  5
39
330
2
100
AcDbSymbolTableRecord
100
AcDbLinetypeTableRecord
  2
DASHDOTX2
 70
0
  3
Dash dot (2x) ____  .  ____  .  ____  .  ____
 72
65
 73
4
 40
6.096
 49
5.08
 74
0
 49
-0.508
 74
0
 49
0.0
 74
0
 49
-0.508
 74
0
  0
LTYPE
  5
3A
330
2
100
AcDbSymbolTableRecord
100
AcDbLinetypeTableRecord
  2
DASHDOT2
 70
0
  3
Dash dot (.5x) _ . _ . _ . _ . _ . _ . _ . _
 72
65
 73
4
 40
1.778
 49
1.27
 74
0
 49
-0.254
 74
0
 49
0.0
 74
0
 49
-0.254
 74
0
  0
LTYPE
  5
3B
330
2
100
AcDbSymbolTableRecord
100
AcDbLinetypeTableRecord
  2
DOT
 70
0
  3
Dot .  .  .  .  .  .  .  .  .  .  .  .  .  .  .  .
 72
65
 73
2
 40
0.508
 49
0.0
 74
0
 49
-0.508
 74
0
  0
LTYPE
  5
3C
330
2
100
AcDbSymbolTableRecord
100
AcDbLinetypeTableRecord
  2
DOTX2
 70
0
  3
Dot (2x) .    .    .    .    .    .    .    . 
 72
65
 73
2
 40
1.016
 49
0.0
 74
0
 49
-1.016
 74
0
  0
LTYPE
  5
3D
330
2
100
AcDbSymbolTableRecord
100
AcDbLinetypeTableRecord
  2
DOT2
 70
0
  3
Dot (.5) . . . . . . . . . . . . . . . . . . . 
 72
65
 73
2
 40
0.254
 49
0.0
 74
0
 49
-0.254
 74
0
  0
LTYPE
  5
3E
330
2
100
AcDbSymbolTableRecord
100
AcDbLinetypeTableRecord
  2
DIVIDE
 70
0
  3
Divide __ . . __ . . __ . . __ . . __ . . __
 72
65
 73
6
 40
4.064
 49
2.54
 74
0
 49
-0.508
 74
0
 49
0.0
 74
0
 49
-0.508
 74
0
 49
0.0
 74
0
 49
-0.508
 74
0
  0
LTYPE
  5
3F
330
2
100
AcDbSymbolTableRecord
100
AcDbLinetypeTableRecord
  2
DIVIDEX2
 70
0
  3
Divide (2x) ____  . .  ____  . .  ____  . .  ____
 72
65
 73
6
 40
6.604
 49
5.08
 74
0
 49
-0.508
 74
0
 49
0.0
 74
0
 49
-0.508
 74
0
 49
0.0
 74
0
 49
-0.508
 74
0
  0
LTYPE
  5
40
330
2
100
AcDbSymbolTableRecord
100
AcDbLinetypeTableRecord
  2
DIVIDE2
 70
0
  3
Divide(.5x) _ . _ . _ . _ . _ . _ . _ . _
 72
65
 73
6
 40
2.032
 49
1.27
 74
0
 49
-0.254
 74
0
 49
0.0
 74
0
 49
-0.254
 74
0
 49
0.0
 74
0
 49
-0.254
 74
0
  0
ENDTAB
  0
TABLE
  2
LAYER
  5
1
330
0
100
AcDbSymbolTable
 70
41
  0
LAYER
  5
27
330
1
100
AcDbSymbolTableRecord
100
AcDbLayerTableRecord
  2
0
 70
0
 62
7
  6
Continuous
370
-3
390
13
347
21
  0
LAYER
  5
28
330
1
100
AcDbSymbolTableRecord
100
AcDbLayerTableRecord
  2
Defpoints
 70
0
 62
7
  6
Continuous
290
0
370
-3
390
13
347
21
  0
LAYER
  5
8B
330
1
100
AcDbSymbolTableRecord
100
AcDbLayerTableRecord
  2
G-FRAME
 70
0
 62
7
  6
Continuous
370
70
390
13
347
21
1001
AcAecLayerStandard
1000

1000
図枠
  0
LAYER
  5
8D
330
1
100
AcDbSymbolTableRecord
100
AcDbLayerTableRecord
  2
G-TITLE
 70
0
 62
7
  6
Continuous
370
25
390
13
347
21
1001
AcAecLayerStandard
1000

1000
表題欄
  0
LAYER
  5
8E
330
1
100
AcDbSymbolTableRecord
100
AcDbLayerTableRecord
  2
G-TABLE
 70
0
 62
7
  6
Continuous
370
18
390
13
347
21
1001
AcAecLayerStandard
1000

1000
表
  0
LAYER
  5
8F
330
1
100
AcDbSymbolTableRecord
100
AcDbLayerTableRecord
  2
A-GRID
 70
0
 62
1
  6
CENTER
370
13
390
13
347
21
1001
AcAecLayerStandard
1000

1000
通り芯（一点鎖線・細線）
  0
LAYER
  5
90
330
1
100
AcDbSymbolTableRecord
100
AcDbLayerTableRecord
  2
A-GRID-SYMB
 70
0
 62
7
  6
Continuous
370
18
390
13
347
21
1001
AcAecLayerStandard
1000

1000
通り芯符号
  0
LAYER
  5
91
330
1
100
AcDbSymbolTableRecord
100
AcDbLayerTableRecord
  2
A-CUT
 70
0
 62
7
  6
Continuous
370
50
390
13
347
21
1001
AcAecLayerStandard
1000

1000
切断面 RC（太線）
  0
LAYER
  5
92
330
1
100
AcDbSymbolTableRecord
100
AcDbLayerTableRecord
  2
A-CUT-HATCH
 70
0
 62
8
  6
Continuous
370
9
390
13
347
21
1001
AcAecLayerStandard
1000

1000
切断面ハッチング
  0
LAYER
  5
93
330
1
100
AcDbSymbolTableRecord
100
AcDbLayerTableRecord
  2
A-CUT-LGS
 70
0
 62
7
  6
Continuous
370
35
390
13
347
21
1001
AcAecLayerStandard
1000

1000
切断面 軽量間仕切（中線）
  0
LAYER
  5
94
330
1
100
AcDbSymbolTableRecord
100
AcDbLayerTableRecord
  2
A-CUT-INS
 70
0
 62
9
  6
Continuous
370
9
390
13
347
21
1001
AcAecLayerStandard
1000

1000
切断面 断熱材ハッチング
  0
LAYER
  5
95
330
1
100
AcDbSymbolTableRecord
100
AcDbLayerTableRecord
  2
A-FENCE
 70
0
 62
7
  6
Continuous
370
35
390
13
347
21
1001
AcAecLayerStandard
1000

1000
RC塀
  0
LAYER
  5
96
330
1
100
AcDbSymbolTableRecord
100
AcDbLayerTableRecord
  2
A-PAVE
 70
0
 62
3
  6
Continuous
370
13
390
13
347
21
1001
AcAecLayerStandard
1000

1000
舗装（透水性 Dotcon+）
  0
LAYER
  5
97
330
1
100
AcDbSymbolTableRecord
100
AcDbLayerTableRecord
  2
A-DRAIN
 70
0
 62
5
  6
DASHED
370
25
390
13
347
21
1001
AcAecLayerStandard
1000

1000
雨水排水・浸透施設
  0
LAYER
  5
98
330
1
100
AcDbSymbolTableRecord
100
AcDbLayerTableRecord
  2
A-NEIGH
 70
0
 62
8
  6
Continuous
370
13
390
13
347
21
1001
AcAecLayerStandard
1000

1000
隣接建物（基盤地図情報）
  0
LAYER
  5
99
330
1
100
AcDbSymbolTableRecord
100
AcDbLayerTableRecord
  2
A-WATER
 70
0
 62
5
  6
Continuous
370
18
390
13
347
21
1001
AcAecLayerStandard
1000

1000
水路
  0
LAYER
  5
9A
330
1
100
AcDbSymbolTableRecord
100
AcDbLayerTableRecord
  2
A-TERRAIN
 70
0
 62
30
  6
Continuous
370
25
390
13
347
21
1001
AcAecLayerStandard
1000

1000
地形断面（DEM）
  0
LAYER
  5
9B
330
1
100
AcDbSymbolTableRecord
100
AcDbLayerTableRecord
  2
A-FLOOD
 70
0
 62
5
  6
DASHDOT
370
25
390
13
347
21
1001
AcAecLayerStandard
1000

1000
想定浸水深
  0
LAYER
  5
9C
330
1
100
AcDbSymbolTableRecord
100
AcDbLayerTableRecord
  2
A-VIS
 70
0
 62
7
  6
Continuous
370
18
390
13
347
21
1001
AcAecLayerStandard
1000

1000
見え掛り（細線）
  0
LAYER
  5
9D
330
1
100
AcDbSymbolTableRecord
100
AcDbLayerTableRecord
  2
A-HIDDEN
 70
0
 62
8
  6
HIDDEN
370
13
390
13
347
21
1001
AcAecLayerStandard
1000

1000
隠れ線（破線）
  0
LAYER
  5
9E
330
1
100
AcDbSymbolTableRecord
100
AcDbLayerTableRecord
  2
A-GLAZ
 70
0
 62
5
  6
Continuous
370
18
390
13
347
21
1001
AcAecLayerStandard
1000

1000
建具・ガラス
  0
LAYER
  5
9F
330
1
100
AcDbSymbolTableRecord
100
AcDbLayerTableRecord
  2
A-DOOR
 70
0
 62
5
  6
Continuous
370
18
390
13
347
21
1001
AcAecLayerStandard
1000

1000
扉・開き勝手
  0
LAYER
  5
A0
330
1
100
AcDbSymbolTableRecord
100
AcDbLayerTableRecord
  2
A-STRS
 70
0
 62
7
  6
Continuous
370
18
390
13
347
21
1001
AcAecLayerStandard
1000

1000
階段
  0
LAYER
  5
A1
330
1
100
AcDbSymbolTableRecord
100
AcDbLayerTableRecord
  2
A-ROOM
 70
0
 62
7
  6
Continuous
370
18
390
13
347
21
1001
AcAecLayerStandard
1000

1000
室名・面積
  0
LAYER
  5
A2
330
1
100
AcDbSymbolTableRecord
100
AcDbLayerTableRecord
  2
A-DIMS
 70
0
 62
7
  6
Continuous
370
13
390
13
347
21
1001
AcAecLayerStandard
1000

1000
寸法
  0
LAYER
  5
A3
330
1
100
AcDbSymbolTableRecord
100
AcDbLayerTableRecord
  2
A-TEXT
 70
0
 62
7
  6
Continuous
370
18
390
13
347
21
1001
AcAecLayerStandard
1000

1000
注記
  0
LAYER
  5
A4
330
1
100
AcDbSymbolTableRecord
100
AcDbLayerTableRecord
  2
A-SYMB
 70
0
 62
7
  6
Continuous
370
18
390
13
347
21
1001
AcAecLayerStandard
1000

1000
記号（方位・切断・レベル）
  0
LAYER
  5
A5
330
1
100
AcDbSymbolTableRecord
100
AcDbLayerTableRecord
  2
A-SITE
 70
0
 62
3
  6
PHANTOM
370
25
390
13
347
21
1001
AcAecLayerStandard
1000

1000
敷地境界線（二点鎖線）
  0
LAYER
  5
A6
330
1
100
AcDbSymbolTableRecord
100
AcDbLayerTableRecord
  2
A-ROAD
 70
0
 62
8
  6
Continuous
370
18
390
13
347
21
1001
AcAecLayerStandard
1000

1000
道路
  0
LAYER
  5
A7
330
1
100
AcDbSymbolTableRecord
100
AcDbLayerTableRecord
  2
A-GROUND
 70
0
 62
7
  6
Continuous
370
50
390
13
347
21
1001
AcAecLayerStandard
1000

1000
地盤面 GL
  0
LAYER
  5
A8
330
1
100
AcDbSymbolTableRecord
100
AcDbLayerTableRecord
  2
A-LEGAL
 70
0
 62
1
  6
DASHED
370
25
390
13
347
21
1001
AcAecLayerStandard
1000

1000
法規制ライン（斜線・延焼ライン）
  0
LAYER
  5
A9
330
1
100
AcDbSymbolTableRecord
100
AcDbLayerTableRecord
  2
A-LEGAL-TEXT
 70
0
 62
1
  6
Continuous
370
18
390
13
347
21
1001
AcAecLayerStandard
1000

1000
法規注記
  0
LAYER
  5
AA
330
1
100
AcDbSymbolTableRecord
100
AcDbLayerTableRecord
  2
A-FIRE
 70
0
 62
6
  6
DASHDOT
370
25
390
13
347
21
1001
AcAecLayerStandard
1000

1000
延焼のおそれのある部分
  0
LAYER
  5
AB
330
1
100
AcDbSymbolTableRecord
100
AcDbLayerTableRecord
  2
A-ALT
 70
0
 62
1
  6
Continuous
370
35
390
13
347
21
1001
AcAecLayerStandard
1000

1000
代替進入口
  0
LAYER
  5
AC
330
1
100
AcDbSymbolTableRecord
100
AcDbLayerTableRecord
  2
S-COLS
 70
0
 62
7
  6
Continuous
370
50
390
13
347
21
1001
AcAecLayerStandard
1000

1000
構造 柱
  0
LAYER
  5
AD
330
1
100
AcDbSymbolTableRecord
100
AcDbLayerTableRecord
  2
S-BEAM
 70
0
 62
7
  6
HIDDEN
370
25
390
13
347
21
1001
AcAecLayerStandard
1000

1000
構造 梁（伏図・隠れ）
  0
LAYER
  5
AE
330
1
100
AcDbSymbolTableRecord
100
AcDbLayerTableRecord
  2
S-BEAM-V
 70
0
 62
7
  6
Continuous
370
35
390
13
347
21
1001
AcAecLayerStandard
1000

1000
構造 梁（見え）
  0
LAYER
  5
AF
330
1
100
AcDbSymbolTableRecord
100
AcDbLayerTableRecord
  2
S-FNDN
 70
0
 62
7
  6
HIDDEN
370
25
390
13
347
21
1001
AcAecLayerStandard
1000

1000
構造 基礎
  0
LAYER
  5
B0
330
1
100
AcDbSymbolTableRecord
100
AcDbLayerTableRecord
  2
S-SLAB
 70
0
 62
7
  6
Continuous
370
18
390
13
347
21
1001
AcAecLayerStandard
1000

1000
構造 スラブ
  0
LAYER
  5
B1
330
1
100
AcDbSymbolTableRecord
100
AcDbLayerTableRecord
  2
S-REBAR
 70
0
 62
1
  6
Continuous
370
35
390
13
347
21
1001
AcAecLayerStandard
1000

1000
鉄筋
  0
LAYER
  5
B2
330
1
100
AcDbSymbolTableRecord
100
AcDbLayerTableRecord
  2
S-TEXT
 70
0
 62
7
  6
Continuous
370
18
390
13
347
21
1001
AcAecLayerStandard
1000

1000
構造 注記
  0
ENDTAB
  0
TABLE
  2
STYLE
  5
5
330
0
100
AcDbSymbolTable
 70
27
  0
STYLE
  5
29
330
5
100
AcDbSymbolTableRecord
100
AcDbTextStyleTableRecord
  2
Standard
 70
0
 40
0.0
 41
1.0
 50
0.0
 71
0
 42
2.5
  3
ipag.ttf
  4

  0
STYLE
  5
41
330
5
100
AcDbSymbolTableRecord
100
AcDbTextStyleTableRecord
  2
OpenSans-Light
 70
0
 40
0.0
 41
1.0
 50
0.0
 71
0
 42
2.5
  3
OpenSans-Light.ttf
  4

  0
STYLE
  5
42
330
5
100
AcDbSymbolTableRecord
100
AcDbTextStyleTableRecord
  2
OpenSans-Light-Italic
 70
0
 40
0.0
 41
1.0
 50
0.0
 71
0
 42
2.5
  3
OpenSans-LightItalic.ttf
  4

  0
STYLE
  5
43
330
5
100
AcDbSymbolTableRecord
100
AcDbTextStyleTableRecord
  2
OpenSans
 70
0
 40
0.0
 41
1.0
 50
0.0
 71
0
 42
2.5
  3
OpenSans-Regular.ttf
  4

  0
STYLE
  5
44
330
5
100
AcDbSymbolTableRecord
100
AcDbTextStyleTableRecord
  2
OpenSans-Italic
 70
0
 40
0.0
 41
1.0
 50
0.0
 71
0
 42
2.5
  3
OpenSans-Italic.ttf
  4

  0
STYLE
  5
45
330
5
100
AcDbSymbolTableRecord
100
AcDbTextStyleTableRecord
  2
OpenSans-SemiBold
 70
0
 40
0.0
 41
1.0
 50
0.0
 71
0
 42
2.5
  3
OpenSans-SemiBold.ttf
  4

  0
STYLE
  5
46
330
5
100
AcDbSymbolTableRecord
100
AcDbTextStyleTableRecord
  2
OpenSans-SemiBoldItalic
 70
0
 40
0.0
 41
1.0
 50
0.0
 71
0
 42
2.5
  3
OpenSans-SemiBoldItalic.ttf
  4

  0
STYLE
  5
47
330
5
100
AcDbSymbolTableRecord
100
AcDbTextStyleTableRecord
  2
OpenSans-Bold
 70
0
 40
0.0
 41
1.0
 50
0.0
 71
0
 42
2.5
  3
OpenSans-Bold.ttf
  4

  0
STYLE
  5
48
330
5
100
AcDbSymbolTableRecord
100
AcDbTextStyleTableRecord
  2
OpenSans-BoldItalic
 70
0
 40
0.0
 41
1.0
 50
0.0
 71
0
 42
2.5
  3
OpenSans-BoldItalic.ttf
  4

  0
STYLE
  5
49
330
5
100
AcDbSymbolTableRecord
100
AcDbTextStyleTableRecord
  2
OpenSans-ExtraBold
 70
0
 40
0.0
 41
1.0
 50
0.0
 71
0
 42
2.5
  3
OpenSans-ExtraBold.ttf
  4

  0
STYLE
  5
4A
330
5
100
AcDbSymbolTableRecord
100
AcDbTextStyleTableRecord
  2
OpenSans-ExtraBoldItalic
 70
0
 40
0.0
 41
1.0
 50
0.0
 71
0
 42
2.5
  3
OpenSans-ExtraBoldItalic.ttf
  4

  0
STYLE
  5
4B
330
5
100
AcDbSymbolTableRecord
100
AcDbTextStyleTableRecord
  2
OpenSansCondensed-Bold
 70
0
 40
0.0
 41
1.0
 50
0.0
 71
0
 42
2.5
  3
OpenSansCondensed-Bold.ttf
  4

  0
STYLE
  5
4C
330
5
100
AcDbSymbolTableRecord
100
AcDbTextStyleTableRecord
  2
OpenSansCondensed-Light
 70
0
 40
0.0
 41
1.0
 50
0.0
 71
0
 42
2.5
  3
OpenSansCondensed-Light.ttf
  4

  0
STYLE
  5
4D
330
5
100
AcDbSymbolTableRecord
100
AcDbTextStyleTableRecord
  2
OpenSansCondensed-Italic
 70
0
 40
0.0
 41
1.0
 50
0.0
 71
0
 42
2.5
  3
OpenSansCondensed-LightItalic.ttf
  4

  0
STYLE
  5
4E
330
5
100
AcDbSymbolTableRecord
100
AcDbTextStyleTableRecord
  2
LiberationSans
 70
0
 40
0.0
 41
1.0
 50
0.0
 71
0
 42
2.5
  3
LiberationSans-Regular.ttf
  4

  0
STYLE
  5
4F
330
5
100
AcDbSymbolTableRecord
100
AcDbTextStyleTableRecord
  2
LiberationSans-Bold
 70
0
 40
0.0
 41
1.0
 50
0.0
 71
0
 42
2.5
  3
LiberationSans-Bold.ttf
  4

  0
STYLE
  5
50
330
5
100
AcDbSymbolTableRecord
100
AcDbTextStyleTableRecord
  2
LiberationSans-BoldItalic
 70
0
 40
0.0
 41
1.0
 50
0.0
 71
0
 42
2.5
  3
LiberationSans-BoldItalic.ttf
  4

  0
STYLE
  5
51
330
5
100
AcDbSymbolTableRecord
100
AcDbTextStyleTableRecord
  2
LiberationSans-Italic
 70
0
 40
0.0
 41
1.0
 50
0.0
 71
0
 42
2.5
  3
LiberationSans-Italic.ttf
  4

  0
STYLE
  5
52
330
5
100
AcDbSymbolTableRecord
100
AcDbTextStyleTableRecord
  2
LiberationSerif
 70
0
 40
0.0
 41
1.0
 50
0.0
 71
0
 42
2.5
  3
LiberationSerif-Regular.ttf
  4

  0
STYLE
  5
53
330
5
100
AcDbSymbolTableRecord
100
AcDbTextStyleTableRecord
  2
LiberationSerif-Bold
 70
0
 40
0.0
 41
1.0
 50
0.0
 71
0
 42
2.5
  3
LiberationSerif-Bold.ttf
  4

  0
STYLE
  5
54
330
5
100
AcDbSymbolTableRecord
100
AcDbTextStyleTableRecord
  2
LiberationSerif-BoldItalic
 70
0
 40
0.0
 41
1.0
 50
0.0
 71
0
 42
2.5
  3
LiberationSerif-BoldItalic.ttf
  4

  0
STYLE
  5
55
330
5
100
AcDbSymbolTableRecord
100
AcDbTextStyleTableRecord
  2
LiberationSerif-Italic
 70
0
 40
0.0
 41
1.0
 50
0.0
 71
0
 42
2.5
  3
LiberationSerif-Italic.ttf
  4

  0
STYLE
  5
56
330
5
100
AcDbSymbolTableRecord
100
AcDbTextStyleTableRecord
  2
LiberationMono
 70
0
 40
0.0
 41
1.0
 50
0.0
 71
0
 42
2.5
  3
LiberationMono-Regular.ttf
  4

  0
STYLE
  5
57
330
5
100
AcDbSymbolTableRecord
100
AcDbTextStyleTableRecord
  2
LiberationMono-Bold
 70
0
 40
0.0
 41
1.0
 50
0.0
 71
0
 42
2.5
  3
LiberationMono-Bold.ttf
  4

  0
STYLE
  5
58
330
5
100
AcDbSymbolTableRecord
100
AcDbTextStyleTableRecord
  2
LiberationMono-BoldItalic
 70
0
 40
0.0
 41
1.0
 50
0.0
 71
0
 42
2.5
  3
LiberationMono-BoldItalic.ttf
  4

  0
STYLE
  5
59
330
5
100
AcDbSymbolTableRecord
100
AcDbTextStyleTableRecord
  2
LiberationMono-Italic
 70
0
 40
0.0
 41
1.0
 50
0.0
 71
0
 42
2.5
  3
LiberationMono-Italic.ttf
  4

  0
STYLE
  5
8A
330
5
100
AcDbSymbolTableRecord
100
AcDbTextStyleTableRecord
  2
JP
 70
0
 40
0.0
 41
1.0
 50
0.0
 71
0
 42
2.5
  3
ipag.ttf
  4

  0
ENDTAB
  0
TABLE
  2
VIEW
  5
7
330
0
100
AcDbSymbolTable
 70
0
  0
ENDTAB
  0
TABLE
  2
UCS
  5
6
330
0
100
AcDbSymbolTable
 70
0
  0
ENDTAB
  0
TABLE
  2
APPID
  5
3
330
0
100
AcDbSymbolTable
 70
4
  0
APPID
  5
2A
330
3
100
AcDbSymbolTableRecord
100
AcDbRegAppTableRecord
  2
ACAD
 70
0
  0
APPID
  5
8C
330
3
100
AcDbSymbolTableRecord
100
AcDbRegAppTableRecord
  2
AcAecLayerStandard
 70
0
  0
APPID
  5
1EF
330
3
100
AcDbSymbolTableRecord
100
AcDbRegAppTableRecord
  2
HATCHBACKGROUNDCOLOR
 70
0
  0
APPID
  5
1F0
330
3
100
AcDbSymbolTableRecord
100
AcDbRegAppTableRecord
  2
EZDXF
 70
0
  0
ENDTAB
  0
TABLE
  2
DIMSTYLE
  5
4
330
0
100
AcDbSymbolTable
 70
13
100
AcDbDimStyleTable
  0
DIMSTYLE
105
2B
330
4
100
AcDbSymbolTableRecord
100
AcDbDimStyleTableRecord
  2
Standard
 70
0
 40
1.0
 41
2.5
 42
0.625
 43
3.75
 44
1.25
 45
0.0
 46
0.0
 47
0.0
 48
0.0
 49
2.5
140
2.5
141
2.5
142
0.0
143
0.03937007874
144
1.0
145
0.0
146
1.0
147
0.625
148
0.0
 69
0
 70
0
 71
0
 72
0
 73
0
 74
0
 75
0
 76
0
 77
1
 78
8
 79
3
170
0
171
3
172
1
173
0
174
0
175
0
176
0
177
0
178
0
179
2
271
2
272
2
273
2
274
3
275
0
276
0
277
2
278
44
279
0
280
0
281
0
282
0
283
0
284
8
285
0
286
0
288
0
289
3
290
0
371
-2
372
-2
  0
DIMSTYLE
105
73
330
4
100
AcDbSymbolTableRecord
100
AcDbDimStyleTableRecord
  2
EZDXF
 70
0
 40
1.0
 41
0.175
 42
0.125
 43
3.75
 44
0.375
 45
0.0
 46
0.0
 47
0.0
 48
0.0
 49
2.5
140
0.25
141
2.5
142
0.0
143
0.03937007874
144
100.0
145
0.0
146
0.5
147
0.1
148
0.0
 69
0
 70
0
 71
0
 72
0
 73
0
 74
0
 75
0
 76
0
 77
1
 78
12
 79
3
170
0
171
3
172
1
173
0
174
0
175
0
176
0
177
0
178
0
179
2
271
2
272
2
273
2
274
3
275
0
276
0
277
2
278
46
279
2
280
0
281
0
282
0
283
0
284
8
285
0
286
0
288
1
289
3
290
0
340
4C
342
74
371
-2
372
-2
  0
DIMSTYLE
105
7C
330
4
100
AcDbSymbolTableRecord
100
AcDbDimStyleTableRecord
  2
EZ_M_100_H25_CM
 70
0
 40
1.0
 41
0.25
 42
0.125
 43
3.75
 44
0.375
 45
0.0
 46
0.0
 47
0.0
 48
0.0
 49
2.5
140
0.25
141
2.5
142
0.125
143
0.03937007874
144
100.0
145
0.0
146
0.5
147
0.1
148
0.0
 69
0
 70
0
 71
0
 72
0
 73
0
 74
0
 75
0
 76
0
 77
1
 78
12
 79
3
170
0
171
3
172
1
173
0
174
0
175
0
176
0
177
0
178
0
179
2
271
2
272
2
273
2
274
3
275
0
276
0
277
2
278
46
279
2
280
0
281
0
282
0
283
0
284
8
285
0
286
0
288
1
289
3
290
0
340
4C
371
-2
372
-2
  0
DIMSTYLE
105
7D
330
4
100
AcDbSymbolTableRecord
100
AcDbDimStyleTableRecord
  2
EZ_M_50_H25_CM
 70
0
 40
1.0
 41
0.125
 42
0.0625
 43
3.75
 44
0.1875
 45
0.0
 46
0.0
 47
0.0
 48
0.0
 49
2.5
140
0.125
141
2.5
142
0.0625
143
0.03937007874
144
100.0
145
0.0
146
0.5
147
0.05
148
0.0
 69
0
 70
0
 71
0
 72
0
 73
0
 74
0
 75
0
 76
0
 77
1
 78
12
 79
3
170
0
171
3
172
1
173
0
174
0
175
0
176
0
177
0
178
0
179
2
271
2
272
2
273
2
274
3
275
0
276
0
277
2
278
46
279
2
280
0
281
0
282
0
283
0
284
8
285
0
286
0
288
1
289
3
290
0
340
4C
371
-2
372
-2
  0
DIMSTYLE
105
7E
330
4
100
AcDbSymbolTableRecord
100
AcDbDimStyleTableRecord
  2
EZ_M_25_H25_CM
 70
0
 40
1.0
 41
0.0625
 42
0.03125
 43
3.75
 44
0.09375
 45
0.0
 46
0.0
 47
0.0
 48
0.0
 49
2.5
140
0.0625
141
2.5
142
0.03125
143
0.03937007874
144
100.0
145
0.0
146
0.5
147
0.025
148
0.0
 69
0
 70
0
 71
0
 72
0
 73
0
 74
0
 75
0
 76
0
 77
1
 78
12
 79
3
170
0
171
3
172
1
173
0
174
0
175
0
176
0
177
0
178
0
179
2
271
2
272
2
273
2
274
3
275
0
276
0
277
2
278
46
279
2
280
0
281
0
282
0
283
0
284
8
285
0
286
0
288
1
289
3
290
0
340
4C
371
-2
372
-2
  0
DIMSTYLE
105
7F
330
4
100
AcDbSymbolTableRecord
100
AcDbDimStyleTableRecord
  2
EZ_M_20_H25_CM
 70
0
 40
1.0
 41
0.05
 42
0.025
 43
3.75
 44
0.07500000000000001
 45
0.0
 46
0.0
 47
0.0
 48
0.0
 49
2.5
140
0.05
141
2.5
142
0.025
143
0.03937007874
144
100.0
145
0.0
146
0.5
147
0.020000000000000004
148
0.0
 69
0
 70
0
 71
0
 72
0
 73
0
 74
0
 75
0
 76
0
 77
1
 78
12
 79
3
170
0
171
3
172
1
173
0
174
0
175
0
176
0
177
0
178
0
179
2
271
2
272
2
273
2
274
3
275
0
276
0
277
2
278
46
279
2
280
0
281
0
282
0
283
0
284
8
285
0
286
0
288
1
289
3
290
0
340
4C
371
-2
372
-2
  0
DIMSTYLE
105
80
330
4
100
AcDbSymbolTableRecord
100
AcDbDimStyleTableRecord
  2
EZ_M_10_H25_CM
 70
0
 40
1.0
 41
0.025
 42
0.0125
 43
3.75
 44
0.037500000000000006
 45
0.0
 46
0.0
 47
0.0
 48
0.0
 49
2.5
140
0.025
141
2.5
142
0.0125
143
0.03937007874
144
100.0
145
0.0
146
0.5
147
0.010000000000000002
148
0.0
 69
0
 70
0
 71
0
 72
0
 73
0
 74
0
 75
0
 76
0
 77
1
 78
12
 79
3
170
0
171
3
172
1
173
0
174
0
175
0
176
0
177
0
178
0
179
2
271
2
272
2
273
2
274
3
275
0
276
0
277
2
278
46
279
2
280
0
281
0
282
0
283
0
284
8
285
0
286
0
288
1
289
3
290
0
340
4C
371
-2
372
-2
  0
DIMSTYLE
105
81
330
4
100
AcDbSymbolTableRecord
100
AcDbDimStyleTableRecord
  2
EZ_M_5_H25_CM
 70
0
 40
1.0
 41
0.0125
 42
0.00625
 43
3.75
 44
0.018750000000000003
 45
0.0
 46
0.0
 47
0.0
 48
0.0
 49
2.5
140
0.0125
141
2.5
142
0.00625
143
0.03937007874
144
100.0
145
0.0
146
0.5
147
0.005000000000000001
148
0.0
 69
0
 70
0
 71
0
 72
0
 73
0
 74
0
 75
0
 76
0
 77
1
 78
12
 79
3
170
0
171
3
172
1
173
0
174
0
175
0
176
0
177
0
178
0
179
2
271
2
272
2
273
2
274
3
275
0
276
0
277
2
278
46
279
2
280
0
281
0
282
0
283
0
284
8
285
0
286
0
288
1
289
3
290
0
340
4C
371
-2
372
-2
  0
DIMSTYLE
105
82
330
4
100
AcDbSymbolTableRecord
100
AcDbDimStyleTableRecord
  2
EZ_M_1_H25_CM
 70
0
 40
1.0
 41
0.0025
 42
0.00125
 43
3.75
 44
0.00375
 45
0.0
 46
0.0
 47
0.0
 48
0.0
 49
2.5
140
0.0025
141
2.5
142
0.00125
143
0.03937007874
144
100.0
145
0.0
146
0.5
147
0.001
148
0.0
 69
0
 70
0
 71
0
 72
0
 73
0
 74
0
 75
0
 76
0
 77
1
 78
12
 79
3
170
0
171
3
172
1
173
0
174
0
175
0
176
0
177
0
178
0
179
2
271
2
272
2
273
2
274
3
275
0
276
0
277
2
278
46
279
2
280
0
281
0
282
0
283
0
284
8
285
0
286
0
288
1
289
3
290
0
340
4C
371
-2
372
-2
  0
DIMSTYLE
105
83
330
4
100
AcDbSymbolTableRecord
100
AcDbDimStyleTableRecord
  2
EZ_RADIUS
 70
0
 40
1.0
 41
0.25
 42
0.125
 43
3.75
 44
0.375
 45
0.0
 46
0.0
 47
0.0
 48
0.0
 49
2.5
140
0.25
141
0.0
142
0.0
143
0.03937007874
144
100.0
145
0.0
146
0.5
147
0.1
148
0.0
 69
0
 70
0
 71
0
 72
0
 73
0
 74
0
 75
0
 76
0
 77
1
 78
12
 79
3
170
0
171
3
172
0
173
0
174
0
175
0
176
0
177
0
178
0
179
2
271
2
272
2
273
2
274
3
275
0
276
0
277
2
278
46
279
1
280
0
281
0
282
0
283
0
284
8
285
0
286
0
288
1
289
3
290
0
340
4C
342
84
371
-2
372
-2
  0
DIMSTYLE
105
88
330
4
100
AcDbSymbolTableRecord
100
AcDbDimStyleTableRecord
  2
EZ_RADIUS_INSIDE
 70
0
 40
1.0
 41
0.25
 42
0.125
 43
3.75
 44
0.375
 45
0.0
 46
0.0
 47
0.0
 48
0.0
 49
2.5
140
0.25
141
0.0
142
0.0
143
0.03937007874
144
100.0
145
0.0
146
0.5
147
0.1
148
0.0
 69
0
 70
0
 71
0
 72
0
 73
0
 74
0
 75
0
 76
0
 77
0
 78
12
 79
3
170
0
171
3
172
0
173
0
174
1
175
0
176
0
177
0
178
0
179
2
271
2
272
2
273
2
274
3
275
0
276
0
277
2
278
46
279
0
280
0
281
0
282
0
283
0
284
8
285
0
286
0
288
1
289
0
290
0
340
4C
342
84
371
-2
372
-2
  0
DIMSTYLE
105
89
330
4
100
AcDbSymbolTableRecord
100
AcDbDimStyleTableRecord
  2
EZ_CURVED
 70
0
 40
1.0
 41
0.25
 42
0.125
 43
3.75
 44
0.375
 45
0.0
 46
0.0
 47
0.0
 48
0.0
 49
2.5
140
0.25
141
2.5
142
0.0
143
0.03937007874
144
100.0
145
0.0
146
0.5
147
0.1
148
0.0
 69
0
 70
0
 71
0
 72
0
 73
0
 74
0
 75
0
 76
0
 77
1
 78
12
 79
2
 90
2
170
0
171
3
172
1
173
0
174
0
175
0
176
0
177
0
178
0
179
2
271
2
272
2
273
2
274
3
275
0
276
0
277
2
278
46
279
2
280
0
281
0
282
0
283
0
284
8
285
0
286
0
288
1
289
3
290
0
340
4C
371
-2
372
-2
  0
DIMSTYLE
105
B3
330
4
100
AcDbSymbolTableRecord
100
AcDbDimStyleTableRecord
  2
JIS
 70
0
 40
500.0
 41
1.0
 42
1.0
 43
3.75
 44
1.0
 45
0.0
 46
0.0
 47
0.0
 48
0.0
 49
2.5
140
2.0
141
2.5
142
0.0
143
0.03937007874
144
1.0
145
0.0
146
1.0
147
0.6
148
0.0
 69
0
 70
0
 71
0
 72
0
 73
0
 74
0
 75
0
 76
0
 77
1
 78
8
 79
3
170
0
171
3
172
1
173
0
174
0
175
0
176
7
177
7
178
7
179
2
271
0
272
2
273
2
274
3
275
0
276
0
277
2
278
44
279
0
280
0
281
0
282
0
283
0
284
8
285
0
286
0
288
0
289
3
290
0
340
8A
342
1F2
371
13
372
13
  0
ENDTAB
  0
TABLE
  2
BLOCK_RECORD
  5
9
330
0
100
AcDbSymbolTable
 70
6
  0
BLOCK_RECORD
  5
17
330
9
100
AcDbSymbolTableRecord
100
AcDbBlockTableRecord
  2
*Model_Space
340
1A
 70
0
280
1
281
0
  0
BLOCK_RECORD
  5
1B
330
9
100
AcDbSymbolTableRecord
100
AcDbBlockTableRecord
  2
*Paper_Space
340
1E
 70
0
280
1
281
0
  0
BLOCK_RECORD
  5
74
330
9
100
AcDbSymbolTableRecord
100
AcDbBlockTableRecord
  2
_ARCHTICK
340
0
 70
0
280
1
281
0
  0
BLOCK_RECORD
  5
78
330
9
100
AcDbSymbolTableRecord
100
AcDbBlockTableRecord
  2
_CLOSEDFILLED
340
0
 70
0
280
1
281
0
  0
BLOCK_RECORD
  5
84
330
9
100
AcDbSymbolTableRecord
100
AcDbBlockTableRecord
  2
_CLOSEDBLANK
340
0
 70
0
280
1
281
0
  0
BLOCK_RECORD
  5
1F2
330
9
100
AcDbSymbolTableRecord
100
AcDbBlockTableRecord
  2
_DOT
340
0
 70
0
280
1
281
0
  0
ENDTAB
  0
ENDSEC
  0
SECTION
  2
BLOCKS
  0
BLOCK
  5
18
330
17
100
AcDbEntity
  8
0
100
AcDbBlockBegin
  2
*Model_Space
 70
0
 10
0.0
 20
0.0
 30
0.0
  3
*Model_Space
  1

  0
ENDBLK
  5
19
330
17
100
AcDbEntity
  8
0
100
AcDbBlockEnd
  0
BLOCK
  5
1C
330
1B
100
AcDbEntity
  8
0
100
AcDbBlockBegin
  2
*Paper_Space
 70
0
 10
0.0
 20
0.0
 30
0.0
  3
*Paper_Space
  1

  0
ENDBLK
  5
1D
330
1B
100
AcDbEntity
  8
0
100
AcDbBlockEnd
  0
BLOCK
  5
75
330
74
100
AcDbEntity
  8
0
100
AcDbBlockBegin
  2
_ARCHTICK
 70
0
 10
0.0
 20
0.0
 30
0.0
  3
_ARCHTICK
  1

  0
LWPOLYLINE
  5
77
330
74
100
AcDbEntity
  8
0
  6
BYBLOCK
 62
0
100
AcDbPolyline
 90
2
 70
0
 43
0.15
 10
-0.5
 20
-0.5
 10
0.5
 20
0.5
  0
ENDBLK
  5
76
330
74
100
AcDbEntity
  8
0
100
AcDbBlockEnd
  0
BLOCK
  5
79
330
78
100
AcDbEntity
  8
0
100
AcDbBlockBegin
  2
_CLOSEDFILLED
 70
0
 10
0.0
 20
0.0
 30
0.0
  3
_CLOSEDFILLED
  1

  0
SOLID
  5
7B
330
78
100
AcDbEntity
  8
0
  6
BYBLOCK
 62
0
100
AcDbTrace
 10
-1.0
 20
0.16439898372402537
 30
0.0
 11
0.0
 21
0.0
 31
0.0
 12
-1.0
 22
-0.16439898372402537
 32
0.0
 13
-1.0
 23
-0.16439898372402537
 33
0.0
  0
ENDBLK
  5
7A
330
78
100
AcDbEntity
  8
0
100
AcDbBlockEnd
  0
BLOCK
  5
85
330
84
100
AcDbEntity
  8
0
100
AcDbBlockBegin
  2
_CLOSEDBLANK
 70
0
 10
0.0
 20
0.0
 30
0.0
  3
_CLOSEDBLANK
  1

  0
LWPOLYLINE
  5
87
330
84
100
AcDbEntity
  8
0
  6
BYBLOCK
 62
0
100
AcDbPolyline
 90
3
 70
1
 10
-1.0
 20
0.16439898372402537
 10
0.0
 20
0.0
 10
-1.0
 20
-0.16439898372402537
  0
ENDBLK
  5
86
330
84
100
AcDbEntity
  8
0
100
AcDbBlockEnd
  0
BLOCK
  5
1F3
330
1F2
100
AcDbEntity
  8
0
100
AcDbBlockBegin
  2
_DOT
 70
0
 10
0.0
 20
0.0
 30
0.0
  3
_DOT
  1

  0
LINE
  5
1F5
330
1F2
100
AcDbEntity
  8
0
  6
BYBLOCK
 62
0
100
AcDbLine
 10
-0.5
 20
0.0
 30
0.0
 11
-1.0
 21
0.0
 31
0.0
  0
LWPOLYLINE
  5
1F6
330
1F2
100
AcDbEntity
  8
0
  6
BYBLOCK
 62
0
100
AcDbPolyline
 90
2
 70
1
 43
0.5
 10
-0.25
 20
0.0
 42
1.0
 10
0.25
 20
0.0
 42
1.0
  0
ENDBLK
  5
1F4
330
1F2
100
AcDbEntity
  8
0
100
AcDbBlockEnd
  0
ENDSEC
  0
SECTION
  2
ENTITIES
  0
LWPOLYLINE
  5
B4
330
17
100
AcDbEntity
  8
G-FRAME
370
0
100
AcDbPolyline
 90
4
 70
1
 10
0.0
 20
0.0
 10
210000.0
 20
0.0
 10
210000.0
 20
148500.0
 10
0.0
 20
148500.0
  0
LWPOLYLINE
  5
B5
330
17
100
AcDbEntity
  8
G-FRAME
100
AcDbPolyline
 90
4
 70
1
 10
5000.0
 20
5000.0
 10
205000.0
 20
5000.0
 10
205000.0
 20
143500.0
 10
5000.0
 20
143500.0
  0
LWPOLYLINE
  5
B6
330
17
100
AcDbEntity
  8
G-TITLE
370
50
100
AcDbPolyline
 90
4
 70
1
 10
110000.0
 20
5000.0
 10
205000.0
 20
5000.0
 10
205000.0
 20
24000.0
 10
110000.0
 20
24000.0
  0
LINE
  5
B7
330
17
100
AcDbEntity
  8
G-TITLE
100
AcDbLine
 10
110000.0
 20
19000.0
 30
0.0
 11
205000.0
 21
19000.0
 31
0.0
  0
LINE
  5
B8
330
17
100
AcDbEntity
  8
G-TITLE
100
AcDbLine
 10
110000.0
 20
13500.0
 30
0.0
 11
205000.0
 21
13500.0
 31
0.0
  0
LINE
  5
B9
330
17
100
AcDbEntity
  8
G-TITLE
100
AcDbLine
 10
110000.0
 20
9500.0
 30
0.0
 11
205000.0
 21
9500.0
 31
0.0
  0
LINE
  5
BA
330
17
100
AcDbEntity
  8
G-TITLE
100
AcDbLine
 10
121000.0
 20
5000.0
 30
0.0
 11
121000.0
 21
24000.0
 31
0.0
  0
TEXT
  5
BB
330
17
100
AcDbEntity
  8
G-TITLE
100
AcDbText
 10
111000.0
 20
20750.0
 30
0.0
 40
1100.0
  1
工事名称
  7
JP
 11
111000.0
 21
20750.0
 31
0.0
100
AcDbText
  0
TEXT
  5
BC
330
17
100
AcDbEntity
  8
G-TITLE
100
AcDbText
 10
122000.0
 20
20500.0
 30
0.0
 40
1700.0
  1
河沿要（仮称）新築計画
  7
JP
 11
122000.0
 21
20500.0
 31
0.0
100
AcDbText
  0
TEXT
  5
BD
330
17
100
AcDbEntity
  8
G-TITLE
100
AcDbText
 10
111000.0
 20
15500.0
 30
0.0
 40
1100.0
  1
図面名称
  7
JP
 11
111000.0
 21
15500.0
 31
0.0
100
AcDbText
  0
TEXT
  5
BE
330
17
100
AcDbEntity
  8
G-TITLE
100
AcDbText
 10
122000.0
 20
15100.0
 30
0.0
 40
2200.0
  1
配置図・求積図
  7
JP
 11
122000.0
 21
15100.0
 31
0.0
100
AcDbText
  0
TEXT
  5
BF
330
17
100
AcDbEntity
  8
G-TITLE
100
AcDbText
 10
111000.0
 20
10800.0
 30
0.0
 40
1100.0
  1
縮尺
  7
JP
 11
111000.0
 21
10800.0
 31
0.0
100
AcDbText
  0
LINE
  5
C0
330
17
100
AcDbEntity
  8
G-TITLE
100
AcDbLine
 10
121000.0
 20
9500.0
 30
0.0
 11
121000.0
 21
13500.0
 31
0.0
  0
TEXT
  5
C1
330
17
100
AcDbEntity
  8
G-TITLE
100
AcDbText
 10
121750.0
 20
10800.0
 30
0.0
 40
1000.0
  1
A3
  7
JP
 11
121750.0
 21
10800.0
 31
0.0
100
AcDbText
  0
TEXT
  5
C2
330
17
100
AcDbEntity
  8
G-TITLE
100
AcDbText
 10
126000.0
 20
10700.0
 30
0.0
 40
1300.0
  1
1:500
  7
JP
 11
126000.0
 21
10700.0
 31
0.0
100
AcDbText
  0
LINE
  5
C3
330
17
100
AcDbEntity
  8
G-TITLE
100
AcDbLine
 10
141000.0
 20
9500.0
 30
0.0
 11
141000.0
 21
13500.0
 31
0.0
  0
TEXT
  5
C4
330
17
100
AcDbEntity
  8
G-TITLE
100
AcDbText
 10
141750.0
 20
10800.0
 30
0.0
 40
1000.0
  1
日付
  7
JP
 11
141750.0
 21
10800.0
 31
0.0
100
AcDbText
  0
TEXT
  5
C5
330
17
100
AcDbEntity
  8
G-TITLE
100
AcDbText
 10
146000.0
 20
10700.0
 30
0.0
 40
1300.0
  1
2026-10-03
  7
JP
 11
146000.0
 21
10700.0
 31
0.0
100
AcDbText
  0
LINE
  5
C6
330
17
100
AcDbEntity
  8
G-TITLE
100
AcDbLine
 10
166000.0
 20
9500.0
 30
0.0
 11
166000.0
 21
13500.0
 31
0.0
  0
TEXT
  5
C7
330
17
100
AcDbEntity
  8
G-TITLE
100
AcDbText
 10
166750.0
 20
10800.0
 30
0.0
 40
1000.0
  1
設計
  7
JP
 11
166750.0
 21
10800.0
 31
0.0
100
AcDbText
  0
TEXT
  5
C8
330
17
100
AcDbEntity
  8
G-TITLE
100
AcDbText
 10
171000.0
 20
10700.0
 30
0.0
 40
1300.0
  1
設計検討（仮）
  7
JP
 11
171000.0
 21
10700.0
 31
0.0
100
AcDbText
  0
TEXT
  5
C9
330
17
100
AcDbEntity
  8
G-TITLE
100
AcDbText
 10
111000.0
 20
6700.0
 30
0.0
 40
1100.0
  1
段階
  7
JP
 11
111000.0
 21
6700.0
 31
0.0
100
AcDbText
  0
TEXT
  5
CA
330
17
100
AcDbEntity
  8
G-TITLE
100
AcDbText
 10
122000.0
 20
6700.0
 30
0.0
 40
950.0
  1
基本計画　／　本図は建築基準法令に基づく計画段階の検討図であり、確認申請・構造計算・関係機関協議により確定する
  7
JP
 11
122000.0
 21
6700.0
 31
0.0
100
AcDbText
  0
LINE
  5
CB
330
17
100
AcDbEntity
  8
G-TITLE
100
AcDbLine
 10
188000.0
 20
9500.0
 30
0.0
 11
188000.0
 21
19000.0
 31
0.0
  0
TEXT
  5
CC
330
17
100
AcDbEntity
  8
G-TITLE
100
AcDbText
 10
188750.0
 20
17500.0
 30
0.0
 40
1000.0
  1
図番
  7
JP
 11
188750.0
 21
17500.0
 31
0.0
100
AcDbText
  0
TEXT
  5
CD
330
17
100
AcDbEntity
  8
G-TITLE
100
AcDbText
 10
196500.0
 20
14000.0
 30
0.0
 40
3000.0
  1
A-01
  7
JP
 72
1
 11
196500.0
 21
14000.0
 31
0.0
100
AcDbText
 73
1
  0
LWPOLYLINE
  5
CE
330
17
100
AcDbEntity
  8
A-NEIGH
370
9
100
AcDbPolyline
 90
5
 70
1
 10
114450.0
 20
30399.999999999996
 10
114450.0
 20
129600.0
 10
10550.0
 20
129600.0
 10
10550.0
 20
30399.999999999996
 10
114450.0
 20
30399.999999999996
  0
LWPOLYLINE
  5
CF
330
17
100
AcDbEntity
  8
A-NEIGH
100
AcDbPolyline
 90
5
 70
0
 10
40080.0
 20
66520.0
 10
39350.0
 20
64100.0
 10
36200.0
 20
65070.0
 10
36920.0
 20
67490.0
 10
40080.0
 20
66520.0
  0
LWPOLYLINE
  5
D0
330
17
100
AcDbEntity
  8
A-NEIGH
100
AcDbPolyline
 90
5
 70
0
 10
94780.0
 20
123650.0
 10
94050.0
 20
120610.0
 10
90170.0
 20
121460.0
 10
90900.0
 20
124620.0
 10
94780.0
 20
123650.0
  0
LWPOLYLINE
  5
D1
330
17
100
AcDbEntity
  8
A-NEIGH
100
AcDbPolyline
 90
5
 70
0
 10
58390.0
 20
64700.0
 10
57180.0
 20
60700.0
 10
54510.0
 20
61550.0
 10
55720.0
 20
65550.0
 10
58390.0
 20
64700.0
  0
LWPOLYLINE
  5
D2
330
17
100
AcDbEntity
  8
A-NEIGH
100
AcDbPolyline
 90
5
 70
0
 10
61060.0
 20
58270.0
 10
59360.0
 20
49180.0
 10
54870.0
 20
50030.0
 10
56450.0
 20
59120.0
 10
61060.0
 20
58270.0
  0
LWPOLYLINE
  5
D3
330
17
100
AcDbEntity
  8
A-NEIGH
100
AcDbPolyline
 90
7
 70
0
 10
64700.0
 20
55480.0
 10
64330.0
 20
54510.0
 10
66150.0
 20
53910.0
 10
63730.0
 20
44810.0
 10
59000.0
 20
45900.0
 10
61910.0
 20
56330.0
 10
64700.0
 20
55480.0
  0
LWPOLYLINE
  5
D4
330
17
100
AcDbEntity
  8
A-NEIGH
100
AcDbPolyline
 90
5
 70
0
 10
113450.0
 20
93810.0
 10
112480.0
 20
91510.0
 10
107510.0
 20
93450.0
 10
108480.0
 20
95750.0
 10
113450.0
 20
93810.0
  0
LWPOLYLINE
  5
D5
330
17
100
AcDbEntity
  8
A-NEIGH
100
AcDbPolyline
 90
5
 70
0
 10
36320.0
 20
39720.0
 10
34980.0
 20
34020.0
 10
30620.0
 20
34990.0
 10
31950.0
 20
40690.0
 10
36320.0
 20
39720.0
  0
LWPOLYLINE
  5
D6
330
17
100
AcDbEntity
  8
A-NEIGH
100
AcDbPolyline
 90
4
 70
0
 10
16670.0
 20
118190.0
 10
11330.000000000007
 20
100000.0
 10
21400.000000000007
 20
96960.0
 10
10550.0
 20
60703.304721030014
  0
LWPOLYLINE
  5
D7
330
17
100
AcDbEntity
  8
A-NEIGH
100
AcDbPolyline
 90
2
 70
0
 10
10550.0
 20
120002.64122137404
 10
16670.0
 20
118190.0
  0
LWPOLYLINE
  5
D8
330
17
100
AcDbEntity
  8
A-NEIGH
100
AcDbPolyline
 90
11
 70
0
 10
37290.0
 20
77440.0
 10
37770.0
 20
78410.0
 10
42620.0
 20
76590.0
 10
40200.0
 20
70400.0
 10
35100.0
 20
72460.0
 10
33530.0
 20
68580.0
 10
28310.0
 20
70640.0
 10
28550.0
 20
71370.0
 10
25280.0
 20
72590.0
 10
28550.0
 20
80830.0
 10
37290.0
 20
77440.0
  0
LWPOLYLINE
  5
D9
330
17
100
AcDbEntity
  8
A-NEIGH
100
AcDbPolyline
 90
11
 70
0
 10
50260.0
 20
74160.0
 10
48450.0
 20
69190.0
 10
47960.0
 20
69310.0
 10
47230.0
 20
67490.0
 10
44320.0
 20
68580.0
 10
43350.0
 20
66040.0
 10
40560.0
 20
67010.0
 10
42020.0
 20
71130.0
 10
41410.0
 20
71370.0
 10
43230.0
 20
76710.0
 10
50260.0
 20
74160.0
  0
LWPOLYLINE
  5
DA
330
17
100
AcDbEntity
  8
A-NEIGH
100
AcDbPolyline
 90
13
 70
0
 10
43710.0
 20
63490.0
 10
43590.0
 20
61910.0
 10
45780.0
 20
61670.0
 10
45050.0
 20
53910.0
 10
35220.0
 20
54880.0
 10
35220.0
 20
55610.0
 10
33890.0
 20
55850.0
 10
34130.0
 20
59490.0
 10
35710.0
 20
59370.0
 10
35950.0
 20
61180.0
 10
36920.0
 20
61060.0
 10
37170.0
 20
64100.0
 10
43710.0
 20
63490.0
  0
LWPOLYLINE
  5
DB
330
17
100
AcDbEntity
  8
A-NEIGH
100
AcDbPolyline
 90
3
 70
0
 10
66030.0
 20
128380.0
 10
60570.0
 20
129470.0
 10
60591.3698630137
 20
129600.0
  0
LWPOLYLINE
  5
DC
330
17
100
AcDbEntity
  8
A-NEIGH
100
AcDbPolyline
 90
2
 70
0
 10
66259.77842003854
 20
129600.0
 10
66030.0
 20
128380.0
  0
LWPOLYLINE
  5
DD
330
17
100
AcDbEntity
  8
A-NEIGH
100
AcDbPolyline
 90
5
 70
0
 10
86530.0
 20
125100.0
 10
80950.0
 20
126070.0
 10
80590.0
 20
124370.0
 10
75490.0
 20
125340.0
 10
76317.0744680851
 20
129600.0
  0
LWPOLYLINE
  5
DE
330
17
100
AcDbEntity
  8
A-NEIGH
100
AcDbPolyline
 90
2
 70
0
 10
87376.76339285714
 20
129600.0
 10
86530.0
 20
125100.0
  0
LWPOLYLINE
  5
DF
330
17
100
AcDbEntity
  8
A-NEIGH
100
AcDbPolyline
 90
8
 70
0
 10
110149.28571428572
 20
129600.0
 10
108720.0
 20
121830.0
 10
98170.0
 20
124130.0
 10
98290.0
 20
124500.0
 10
96720.0
 20
124860.0
 10
97200.0
 20
127530.0
 10
94900.0
 20
128010.0
 10
95210.59139784946
 20
129600.0
  0
LWPOLYLINE
  5
E0
330
17
100
AcDbEntity
  8
A-NEIGH
100
AcDbPolyline
 90
11
 70
0
 10
106420.0
 20
118920.0
 10
105810.0
 20
116490.0
 10
104960.0
 20
116730.0
 10
103870.0
 20
112970.0
 10
95630.0
 20
115400.0
 10
95260.0
 20
114430.0
 10
91870.0
 20
115400.0
 10
93200.0
 20
119770.0
 10
96230.0
 20
118920.0
 10
96960.0
 20
121580.0
 10
106420.0
 20
118920.0
  0
LWPOLYLINE
  5
E1
330
17
100
AcDbEntity
  8
A-NEIGH
100
AcDbPolyline
 90
7
 70
0
 10
111390.0
 20
63490.0
 10
109330.0
 20
54510.0
 10
98540.0
 20
57060.0
 10
100360.0
 20
65070.0
 10
103270.0
 20
64460.0
 10
103510.0
 20
65310.0
 10
111390.0
 20
63490.0
  0
LWPOLYLINE
  5
E2
330
17
100
AcDbEntity
  8
A-NEIGH
100
AcDbPolyline
 90
9
 70
0
 10
27100.0
 20
41660.0
 10
26490.0
 20
38630.0
 10
29650.000000000007
 20
37900.0
 10
28190.0
 20
31589.999999999996
 10
15940.0
 20
34380.0
 10
17400.000000000007
 20
40930.0
 10
23950.0
 20
39470.0
 10
24550.0
 20
42260.0
 10
27100.0
 20
41660.0
  0
LWPOLYLINE
  5
E3
330
17
100
AcDbEntity
  8
A-NEIGH
100
AcDbPolyline
 90
3
 70
0
 10
17008.49462365591
 20
30399.999999999996
 10
17030.0
 20
30500.00000000001
 10
17469.506172839567
 20
30399.999999999996
  0
LWPOLYLINE
  5
E4
330
17
100
AcDbEntity
  8
A-NEIGH
100
AcDbPolyline
 90
2
 70
0
 10
36560.0
 20
31110.000000000004
 10
36396.809605488845
 20
30399.999999999996
  0
LWPOLYLINE
  5
E5
330
17
100
AcDbEntity
  8
A-NEIGH
100
AcDbPolyline
 90
3
 70
0
 10
29073.924843423803
 20
30399.999999999996
 10
29650.000000000007
 20
32920.000000000015
 10
36560.0
 20
31110.000000000004
  0
LWPOLYLINE
  5
E6
330
17
100
AcDbEntity
  8
A-NEIGH
100
AcDbPolyline
 90
4
 70
0
 10
114450.0
 20
47305.22853957636
 10
111880.0
 20
47480.0
 10
112610.0
 20
61060.0
 10
114450.0
 20
60936.92307692308
  0
LWPOLYLINE
  5
E7
330
17
100
AcDbEntity
  8
A-ROAD
100
AcDbPolyline
 90
9
 70
0
 10
24221.150362318847
 20
129600.0
 10
34740.0
 20
124130.0
 10
45780.0
 20
119890.0
 10
67970.0
 20
112970.0
 10
78890.0
 20
111150.0
 10
87740.0
 20
110310.0
 10
105450.0
 20
109580.0
 10
107630.0
 20
110550.0
 10
114106.38099106419
 20
129600.0
  0
LWPOLYLINE
  5
E8
330
17
100
AcDbEntity
  8
A-ROAD
100
AcDbPolyline
 90
6
 70
0
 10
58150.0
 20
112730.0
 10
56940.0
 20
112000.0
 10
43960.0
 20
115640.0
 10
42990.0
 20
117460.0
 10
28920.0
 20
122680.0
 10
15902.17821782179
 20
129600.0
  0
LWPOLYLINE
  5
E9
330
17
100
AcDbEntity
  8
A-ROAD
100
AcDbPolyline
 90
12
 70
0
 10
10550.0
 20
53967.61992619926
 10
77550.0
 20
39350.0
 10
79740.0
 20
40320.0
 10
81560.0
 20
42260.0
 10
91620.0
 20
73430.0
 10
100600.0
 20
92840.0
 10
105450.0
 20
105330.0
 10
104360.0
 20
106910.0
 10
87500.0
 20
107640.0
 10
78650.0
 20
108490.0
 10
72340.0
 20
109340.0
 10
61060.0
 20
111880.0
  0
LWPOLYLINE
  5
EA
330
17
100
AcDbEntity
  8
A-ROAD
100
AcDbPolyline
 90
4
 70
0
 10
61060.0
 20
111880.0
 10
59240.0
 20
105450.0
 10
56330.0
 20
106300.0
 10
58150.0
 20
112730.0
  0
LWPOLYLINE
  5
EB
330
17
100
AcDbEntity
  8
A-ROAD
100
AcDbPolyline
 90
3
 70
0
 10
10550.0
 20
34849.21391752576
 10
14360.000000000007
 20
45420.0
 10
10550.0
 20
46283.03867403316
  0
LWPOLYLINE
  5
EC
330
17
100
AcDbEntity
  8
A-ROAD
100
AcDbPolyline
 90
4
 70
0
 10
83669.13319238901
 20
30399.999999999996
 10
76100.0
 20
32199.999999999996
 10
17400.000000000007
 20
44810.0
 10
12184.170842824606
 20
30399.999999999996
  0
LWPOLYLINE
  5
ED
330
17
100
AcDbEntity
  8
A-ROAD
100
AcDbPolyline
 90
5
 70
0
 10
114450.0
 20
113150.44134727062
 10
111880.0
 20
105330.0
 10
96720.0
 20
71370.0
 10
87260.0
 20
41900.0
 10
114450.0
 20
35570.67218543046
  0
HATCH
  5
EE
330
17
100
AcDbEntity
  8
A-WATER
 62
7
100
AcDbHatch
 10
0.0
 20
0.0
 30
0.0
210
0.0
220
0.0
230
1.0
  2
ANSI31
 70
0
 71
0
 91
1
 92
3
 72
0
 73
1
 93
16
 10
13510.0
 20
126440.0
 10
26610.000000000007
 20
120010.0
 10
35100.0
 20
116610.0
 10
60090.0
 20
108610.0
 10
76700.0
 20
104600.0
 10
83980.0
 20
103760.0
 10
96350.0
 20
103760.0
 10
96110.0
 20
101210.0
 10
83860.0
 20
101330.0
 10
76220.0
 20
102180.0
 10
59360.0
 20
106180.0
 10
34860.0
 20
114070.0
 10
25040.000000000007
 20
117950.0
 10
16300.0
 20
122070.0
 10
10550.0
 20
125350.64764841943
 10
10550.0
 20
128182.55367231637
 97
0
 75
1
 76
1
 52
0.0
 41
236.2204724409449
 77
0
 78
1
 53
45.0
 43
0.0
 44
0.0
 45
-530.3300858976
 46
530.3300858976
 79
0
 98
0
  0
LWPOLYLINE
  5
EF
330
17
100
AcDbEntity
  8
A-WATER
100
AcDbPolyline
 90
17
 70
1
 10
13510.0
 20
126440.0
 10
26610.000000000007
 20
120010.0
 10
35100.0
 20
116610.0
 10
60090.0
 20
108610.0
 10
76700.0
 20
104600.0
 10
83980.0
 20
103760.0
 10
96350.0
 20
103760.0
 10
96110.0
 20
101210.0
 10
83860.0
 20
101330.0
 10
76220.0
 20
102180.0
 10
59360.0
 20
106180.0
 10
34860.0
 20
114070.0
 10
25040.000000000007
 20
117950.0
 10
16300.0
 20
122070.0
 10
10550.0
 20
125350.64764841943
 10
10550.0
 20
128182.55367231637
 10
13510.0
 20
126440.0
  0
HATCH
  5
F0
330
17
100
AcDbEntity
  8
A-WATER
 62
7
100
AcDbHatch
 10
0.0
 20
0.0
 30
0.0
210
0.0
220
0.0
230
1.0
  2
ANSI31
 70
0
 71
0
 91
1
 92
3
 72
0
 73
1
 93
4
 10
77040.35947712418
 20
30399.999999999996
 10
75198.31402831402
 20
30399.999999999996
 10
75370.0
 20
30979.999999999996
 10
77070.0
 20
30500.00000000001
 97
0
 75
1
 76
1
 52
0.0
 41
236.2204724409449
 77
0
 78
1
 53
45.0
 43
0.0
 44
0.0
 45
-530.3300858976
 46
530.3300858976
 79
0
 98
0
  0
LWPOLYLINE
  5
F1
330
17
100
AcDbEntity
  8
A-WATER
100
AcDbPolyline
 90
5
 70
1
 10
77040.35947712418
 20
30399.999999999996
 10
75198.31402831402
 20
30399.999999999996
 10
75370.0
 20
30979.999999999996
 10
77070.0
 20
30500.00000000001
 10
77040.35947712418
 20
30399.999999999996
  0
LWPOLYLINE
  5
F2
330
17
100
AcDbEntity
  8
A-HIDDEN
100
AcDbPolyline
 90
5
 70
1
 10
36070.0
 20
110060.0
 10
34500.0
 20
106910.0
 10
20310.0
 20
113460.0
 10
21760.0
 20
116610.0
 10
36070.0
 20
110060.0
  0
LWPOLYLINE
  5
F3
330
17
100
AcDbEntity
  8
A-HIDDEN
100
AcDbPolyline
 90
17
 70
1
 10
78280.0
 20
99270.0
 10
77800.0
 20
97690.0
 10
88950.0
 20
94300.0
 10
89560.0
 20
93810.0
 10
91380.0
 20
91020.0
 10
91990.0
 20
88470.0
 10
92230.0
 20
86290.0
 10
91500.0
 20
81440.0
 10
90410.0
 20
79130.0
 10
87500.0
 20
75740.0
 10
83500.0
 20
73070.0
 10
81430.0
 20
72710.0
 10
71130.0
 20
75860.0
 10
70400.0
 20
73560.0
 10
46750.0
 20
80710.0
 10
54510.0
 20
106420.0
 10
78280.0
 20
99270.0
  0
LWPOLYLINE
  5
F4
330
17
100
AcDbEntity
  8
A-HIDDEN
100
AcDbPolyline
 90
9
 70
1
 10
94050.0
 20
98540.0
 10
97200.0
 20
100120.0
 10
100110.0
 20
94540.0
 10
97690.0
 20
93200.0
 10
98900.0
 20
90900.0
 10
93440.0
 20
87990.0
 10
88350.0
 20
97810.0
 10
93080.0
 20
100240.0
 10
94050.0
 20
98540.0
  0
LWPOLYLINE
  5
F5
330
17
100
AcDbEntity
  8
A-TERRAIN
370
9
100
AcDbPolyline
 90
14
 70
0
 10
114450.0
 20
61787.392933618845
 10
103140.0
 20
62520.0
 10
99390.0
 20
64460.0
 10
97570.0
 20
67610.0
 10
98780.0
 20
70040.0
 10
105690.0
 20
79620.0
 10
107630.0
 20
87870.0
 10
107510.0
 20
92110.0
 10
96600.0
 20
95870.0
 10
85920.0
 20
96600.0
 10
65670.0
 20
100480.0
 10
30860.000000000007
 20
111400.0
 10
10850.0
 20
118670.0
 10
10550.0
 20
118862.70729270729
  0
LWPOLYLINE
  5
F6
330
17
100
AcDbEntity
  8
A-SITE
100
AcDbPolyline
 90
21
 70
1
 10
19550.0
 20
120600.0
 10
25050.0
 20
117900.0
 10
34850.0
 20
114100.0
 10
59350.0
 20
106200.0
 10
76250.0
 20
102200.0
 10
83850.0
 20
101300.0
 10
96150.0
 20
101200.0
 10
96350.0
 20
103800.0
 10
105450.0
 20
105300.0
 10
100550.0
 20
92800.0
 10
91650.0
 20
73400.0
 10
81550.0
 20
42300.0
 10
79750.0
 20
40300.0
 10
77550.0
 20
39400.0
 10
63950.0
 20
42364.10256410256
 10
69400.0
 20
62900.0
 10
51550.0
 20
68300.0
 10
50950.0
 20
75400.0
 10
43550.0
 20
77900.0
 10
37550.0
 20
78500.0
 10
27050.0
 20
81500.0
  0
HATCH
  5
F7
330
17
100
AcDbEntity
  8
A-CUT-HATCH
 62
7
100
AcDbHatch
 10
0.0
 20
0.0
 30
0.0
210
0.0
220
0.0
230
1.0
  2
ANSI31
 70
0
 71
0
 91
3
 92
3
 72
0
 73
1
 93
48
 10
76250.0
 20
102200.0
 10
83850.0
 20
101300.0
 10
96150.0
 20
101200.0
 10
96350.0
 20
103800.0
 10
105450.0
 20
105300.0
 10
100550.0
 20
92800.0
 10
91650.0
 20
73400.0
 10
82857.26766756819
 20
46325.34895657137
 10
82800.20157946696
 20
46343.88167328591
 10
82771.78810515715
 20
46351.59034870063
 10
82742.75586717243
 20
46356.476897237546
 10
82713.38446183526
 20
46358.49425876299
 10
82710.2902675469
 20
46358.402650259624
 10
91510.02744536567
 20
73454.62306908774
 10
100411.89423108517
 20
92858.6922424538
 10
105214.04723009796
 20
105109.08254605788
 10
96490.53084666253
 20
103671.14028505204
 10
96288.81747437872
 20
101048.8664453626
 10
83840.54186494712
 20
101150.0719381222
 10
76223.82006301825
 20
102052.05215150851
 10
59309.6453359153
 20
106055.4071165033
 10
34799.82655556069
 20
113958.57317220946
 10
24989.722388786176
 20
117762.49111442815
 10
19753.996062955237
 20
120332.75676529063
 10
27179.931693015715
 20
81618.87901390866
 10
37578.29195628799
 20
78647.91893868802
 10
43581.87345520812
 20
78047.56078879599
 10
51091.18555440958
 20
75510.63102555225
 10
51690.893202472034
 20
68414.09052347996
 10
69582.15787266042
 20
63001.60709384314
 10
64135.22187488836
 20
42477.25498555972
 10
65070.35248100118
 20
42273.44446884282
 10
65068.712879052044
 20
42270.818800192676
 10
65055.64199204633
 20
42244.4388625148
 10
65045.21973098745
 20
42216.904780481345
 10
65037.54646794678
 20
42188.48172235396
 10
65024.76948801928
 20
42129.857932098355
 10
63950.0
 20
42364.10256410256
 10
69400.0
 20
62900.0
 10
51550.0
 20
68300.0
 10
50950.0
 20
75400.0
 10
43550.0
 20
77900.0
 10
37550.0
 20
78500.0
 10
27050.0
 20
81500.0
 10
19550.0
 20
120600.0
 10
25050.0
 20
117900.0
 10
34850.0
 20
114100.0
 10
59350.0
 20
106200.0
 97
0
 92
3
 72
0
 73
1
 93
18
 10
81550.0
 20
42300.0
 10
79750.0
 20
40300.0
 10
77550.0
 20
39400.0
 10
76963.76209744404
 20
39527.76979927502
 10
76976.53907737153
 20
39586.393589530606
 10
76981.38944467627
 20
39615.43189416455
 10
76983.37020455647
 20
39644.80579055747
 10
76982.46228121169
 20
39674.23239202968
 10
76982.06400409964
 20
39677.302213808536
 10
77536.37240822213
 20
39556.49140778184
 10
79661.45449150697
 20
40425.84316912564
 10
81417.18102520455
 20
42376.65042878961
 10
82224.70884802863
 20
44863.196497089506
 10
82227.15880837757
 20
44861.30437534381
 10
82252.11109766811
 20
44845.6796366847
 10
82278.47472706733
 20
44832.575887453844
 10
82305.99580041229
 20
44822.11932391957
 10
82363.06188851353
 20
44803.58660720501
 97
0
 92
3
 72
0
 73
1
 93
12
 10
71536.15173128775
 20
40861.248793936174
 10
71523.08084428204
 20
40834.8688562583
 10
71512.65858322316
 20
40807.334774224844
 10
71504.98532018249
 20
40778.91171609746
 10
71492.20834025499
 20
40720.287925841854
 10
66783.48319568718
 20
41746.5485342733
 10
66796.26017561468
 20
41805.1723245289
 10
66801.11054291943
 20
41834.210629162844
 10
66803.09130279963
 20
41863.58452555575
 10
66802.18337945483
 20
41893.011127027974
 10
66801.78510234278
 20
41896.08094880683
 10
71537.79133323689
 20
40863.87446258632
 97
0
 75
1
 76
1
 52
0.0
 41
157.48031496062993
 77
0
 78
1
 53
45.0
 43
0.0
 44
0.0
 45
-353.5533905984
 46
353.5533905984
 79
0
 98
0
  0
LWPOLYLINE
  5
F8
330
17
100
AcDbEntity
  8
A-FENCE
100
AcDbPolyline
 90
49
 70
1
 10
76250.0
 20
102200.0
 10
83850.0
 20
101300.0
 10
96150.0
 20
101200.0
 10
96350.0
 20
103800.0
 10
105450.0
 20
105300.0
 10
100550.0
 20
92800.0
 10
91650.0
 20
73400.0
 10
82857.26766756819
 20
46325.34895657137
 10
82800.20157946696
 20
46343.88167328591
 10
82771.78810515715
 20
46351.59034870063
 10
82742.75586717243
 20
46356.476897237546
 10
82713.38446183526
 20
46358.49425876299
 10
82710.2902675469
 20
46358.402650259624
 10
91510.02744536567
 20
73454.62306908774
 10
100411.89423108517
 20
92858.6922424538
 10
105214.04723009796
 20
105109.08254605788
 10
96490.53084666253
 20
103671.14028505204
 10
96288.81747437872
 20
101048.8664453626
 10
83840.54186494712
 20
101150.0719381222
 10
76223.82006301825
 20
102052.05215150851
 10
59309.6453359153
 20
106055.4071165033
 10
34799.82655556069
 20
113958.57317220946
 10
24989.722388786176
 20
117762.49111442815
 10
19753.996062955237
 20
120332.75676529063
 10
27179.931693015715
 20
81618.87901390866
 10
37578.29195628799
 20
78647.91893868802
 10
43581.87345520812
 20
78047.56078879599
 10
51091.18555440958
 20
75510.63102555225
 10
51690.893202472034
 20
68414.09052347996
 10
69582.15787266042
 20
63001.60709384314
 10
64135.22187488836
 20
42477.25498555972
 10
65070.35248100118
 20
42273.44446884282
 10
65068.712879052044
 20
42270.818800192676
 10
65055.64199204633
 20
42244.4388625148
 10
65045.21973098745
 20
42216.904780481345
 10
65037.54646794678
 20
42188.48172235396
 10
65024.76948801928
 20
42129.857932098355
 10
63950.0
 20
42364.10256410256
 10
69400.0
 20
62900.0
 10
51550.0
 20
68300.0
 10
50950.0
 20
75400.0
 10
43550.0
 20
77900.0
 10
37550.0
 20
78500.0
 10
27050.0
 20
81500.0
 10
19550.0
 20
120600.0
 10
25050.0
 20
117900.0
 10
34850.0
 20
114100.0
 10
59350.0
 20
106200.0
 10
76250.0
 20
102200.0
  0
LWPOLYLINE
  5
F9
330
17
100
AcDbEntity
  8
A-FENCE
100
AcDbPolyline
 90
19
 70
1
 10
81550.0
 20
42300.0
 10
79750.0
 20
40300.0
 10
77550.0
 20
39400.0
 10
76963.76209744404
 20
39527.76979927502
 10
76976.53907737153
 20
39586.393589530606
 10
76981.38944467627
 20
39615.43189416455
 10
76983.37020455647
 20
39644.80579055747
 10
76982.46228121169
 20
39674.23239202968
 10
76982.06400409964
 20
39677.302213808536
 10
77536.37240822213
 20
39556.49140778184
 10
79661.45449150697
 20
40425.84316912564
 10
81417.18102520455
 20
42376.65042878961
 10
82224.70884802863
 20
44863.196497089506
 10
82227.15880837757
 20
44861.30437534381
 10
82252.11109766811
 20
44845.6796366847
 10
82278.47472706733
 20
44832.575887453844
 10
82305.99580041229
 20
44822.11932391957
 10
82363.06188851353
 20
44803.58660720501
 10
81550.0
 20
42300.0
  0
LWPOLYLINE
  5
FA
330
17
100
AcDbEntity
  8
A-FENCE
100
AcDbPolyline
 90
13
 70
1
 10
71536.15173128775
 20
40861.248793936174
 10
71523.08084428204
 20
40834.8688562583
 10
71512.65858322316
 20
40807.334774224844
 10
71504.98532018249
 20
40778.91171609746
 10
71492.20834025499
 20
40720.287925841854
 10
66783.48319568718
 20
41746.5485342733
 10
66796.26017561468
 20
41805.1723245289
 10
66801.11054291943
 20
41834.210629162844
 10
66803.09130279963
 20
41863.58452555575
 10
66802.18337945483
 20
41893.011127027974
 10
66801.78510234278
 20
41896.08094880683
 10
71537.79133323689
 20
40863.87446258632
 10
71536.15173128775
 20
40861.248793936174
  0
LINE
  5
FB
330
17
100
AcDbEntity
  8
A-DOOR
370
35
100
AcDbLine
 10
76670.64314616604
 20
39591.65469891252
 30
0.0
 11
71785.32729153297
 21
40656.40302620435
 31
0.0
  0
LINE
  5
FC
330
17
100
AcDbEntity
  8
A-DOOR
370
35
100
AcDbLine
 10
66490.3642444092
 20
41810.43343391082
 30
0.0
 11
65317.88843929726
 21
42065.97303246085
 31
0.0
  0
LINE
  5
FD
330
17
100
AcDbEntity
  8
A-DOOR
370
35
100
AcDbLine
 10
82764.60408399545
 20
46040.018516065174
 30
0.0
 11
82455.72547208628
 21
45088.917047711206
 31
0.0
  0
LWPOLYLINE
  5
FE
330
17
100
AcDbEntity
  8
A-VIS
370
9
100
AcDbPolyline
 90
9
 70
0
 10
63800.0
 20
72650.0
 10
63800.0
 20
72770.0
 10
63800.0
 20
90270.0
 10
63800.0
 20
90390.0
 10
81540.0
 20
90390.0
 10
81540.0
 20
90270.0
 10
81540.0
 20
72770.0
 10
81540.0
 20
72650.0
 10
63800.0
 20
72650.0
  0
LWPOLYLINE
  5
FF
330
17
100
AcDbEntity
  8
A-VIS
370
9
100
AcDbPolyline
 90
5
 70
0
 10
81420.0
 20
72770.0
 10
81420.0
 20
90270.0
 10
63920.0
 20
90270.0
 10
63920.0
 20
72770.0
 10
81420.0
 20
72770.0
  0
LWPOLYLINE
  5
100
330
17
100
AcDbEntity
  8
A-VIS
370
9
100
AcDbPolyline
 90
9
 70
0
 10
63920.0
 20
72770.0
 10
63920.0
 20
73020.0
 10
63920.0
 20
90020.0
 10
63920.0
 20
90270.0
 10
81420.0
 20
90270.0
 10
81420.0
 20
90020.0
 10
81420.0
 20
73020.0
 10
81420.0
 20
72770.0
 10
63920.0
 20
72770.0
  0
LWPOLYLINE
  5
101
330
17
100
AcDbEntity
  8
A-VIS
370
9
100
AcDbPolyline
 90
5
 70
0
 10
81170.0
 20
73020.0
 10
81170.0
 20
90020.0
 10
64170.0
 20
90020.0
 10
64170.0
 20
73020.0
 10
81170.0
 20
73020.0
  0
LWPOLYLINE
  5
102
330
17
100
AcDbEntity
  8
A-STRS
370
9
100
AcDbPolyline
 90
7
 70
0
 10
72045.0
 20
71150.0
 10
72045.0
 20
72650.0
 10
72845.0
 20
72650.0
 10
73845.0
 20
72650.0
 10
74645.0
 20
72650.0
 10
74645.0
 20
71150.0
 10
72045.0
 20
71150.0
  0
LWPOLYLINE
  5
103
330
17
100
AcDbEntity
  8
A-STRS
370
9
100
AcDbPolyline
 90
5
 70
0
 10
72345.0
 20
70850.0
 10
72345.0
 20
71150.0
 10
74345.0
 20
71150.0
 10
74345.0
 20
70850.0
 10
72345.0
 20
70850.0
  0
LWPOLYLINE
  5
104
330
17
100
AcDbEntity
  8
A-STRS
370
9
100
AcDbPolyline
 90
5
 70
0
 10
72345.0
 20
70550.0
 10
72345.0
 20
70850.0
 10
74345.0
 20
70850.0
 10
74345.0
 20
70550.0
 10
72345.0
 20
70550.0
  0
LWPOLYLINE
  5
105
330
17
100
AcDbEntity
  8
A-STRS
370
9
100
AcDbPolyline
 90
5
 70
0
 10
72345.0
 20
70250.0
 10
72345.0
 20
70550.0
 10
74345.0
 20
70550.0
 10
74345.0
 20
70250.0
 10
72345.0
 20
70250.0
  0
LWPOLYLINE
  5
106
330
17
100
AcDbEntity
  8
A-STRS
370
9
100
AcDbPolyline
 90
5
 70
0
 10
72345.0
 20
69950.0
 10
72345.0
 20
70250.0
 10
74345.0
 20
70250.0
 10
74345.0
 20
69950.0
 10
72345.0
 20
69950.0
  0
LWPOLYLINE
  5
107
330
17
100
AcDbEntity
  8
A-STRS
370
9
100
AcDbPolyline
 90
5
 70
0
 10
72345.0
 20
69650.0
 10
72345.0
 20
69950.0
 10
74345.0
 20
69950.0
 10
74345.0
 20
69650.0
 10
72345.0
 20
69650.0
  0
LWPOLYLINE
  5
108
330
17
100
AcDbEntity
  8
A-CUT
370
50
100
AcDbPolyline
 90
4
 70
1
 10
63800.0
 20
72650.0
 10
81540.0
 20
72650.0
 10
81540.0
 20
90390.0
 10
63800.0
 20
90390.0
  0
HATCH
  5
109
330
17
100
AcDbEntity
  8
A-PAVE
 62
7
100
AcDbHatch
 10
0.0
 20
0.0
 30
0.0
210
0.0
220
0.0
230
1.0
  2
NET
 70
0
 71
0
 91
1
 92
3
 72
0
 73
1
 93
4
 10
68845.0
 20
56995.0
 10
80545.0
 20
56995.0
 10
80545.0
 20
41895.0
 10
68845.0
 20
41895.0
 97
0
 75
1
 76
1
 52
0.0
 41
157.48031496062993
 77
0
 78
2
 53
0.0
 43
0.0
 44
0.0
 45
0.0
 46
500.0
 79
0
 53
90.0
 43
0.0
 44
0.0
 45
-500.0
 46
0.0
 79
0
 98
0
  0
LWPOLYLINE
  5
10A
330
17
100
AcDbEntity
  8
A-HIDDEN
100
AcDbPolyline
 90
4
 70
1
 10
70045.0
 20
46395.0
 10
79045.0
 20
46395.0
 10
79045.0
 20
56395.0
 10
70045.0
 20
56395.0
  0
CIRCLE
  5
10B
330
17
100
AcDbEntity
  8
A-SYMB
100
AcDbCircle
 10
19550.0
 20
120600.0
 30
0.0
 40
450.0
  0
TEXT
  5
10C
330
17
100
AcDbEntity
  8
A-SYMB
100
AcDbText
 10
17857.42029779755
 20
122005.40882012753
 30
0.0
 40
900.0
  1
1
  7
JP
 72
1
 11
17857.42029779755
 21
122005.40882012753
 31
0.0
100
AcDbText
 73
2
  0
CIRCLE
  5
10D
330
17
100
AcDbEntity
  8
A-SYMB
100
AcDbCircle
 10
25050.0
 20
117900.0
 30
0.0
 40
450.0
  0
TEXT
  5
10E
330
17
100
AcDbEntity
  8
A-SYMB
100
AcDbText
 10
23398.200511390984
 20
119353.12024603298
 30
0.0
 40
900.0
  1
2
  7
JP
 72
1
 11
23398.200511390984
 21
119353.12024603298
 31
0.0
100
AcDbText
 73
2
  0
CIRCLE
  5
10F
330
17
100
AcDbEntity
  8
A-SYMB
100
AcDbCircle
 10
34850.0
 20
114100.0
 30
0.0
 40
450.0
  0
TEXT
  5
110
330
17
100
AcDbEntity
  8
A-SYMB
100
AcDbText
 10
33334.19114779931
 20
115694.46653260269
 30
0.0
 40
900.0
  1
3
  7
JP
 72
1
 11
33334.19114779931
 21
115694.46653260269
 31
0.0
100
AcDbText
 73
2
  0
CIRCLE
  5
111
330
17
100
AcDbEntity
  8
A-SYMB
100
AcDbCircle
 10
59350.0
 20
106200.0
 30
0.0
 40
450.0
  0
TEXT
  5
112
330
17
100
AcDbEntity
  8
A-SYMB
100
AcDbText
 10
58997.15477181539
 20
108371.52026123344
 30
0.0
 40
900.0
  1
4
  7
JP
 72
1
 11
58997.15477181539
 21
108371.52026123344
 31
0.0
100
AcDbText
 73
2
  0
CIRCLE
  5
113
330
17
100
AcDbEntity
  8
A-SYMB
100
AcDbCircle
 10
76250.0
 20
102200.0
 30
0.0
 40
450.0
  0
TEXT
  5
114
330
17
100
AcDbEntity
  8
A-SYMB
100
AcDbText
 10
77584.66693601102
 20
103948.90370515903
 30
0.0
 40
900.0
  1
5
  7
JP
 72
1
 11
77584.66693601102
 21
103948.90370515903
 31
0.0
100
AcDbText
 73
2
  0
CIRCLE
  5
115
330
17
100
AcDbEntity
  8
A-SYMB
100
AcDbCircle
 10
83850.0
 20
101300.0
 30
0.0
 40
450.0
  0
TEXT
  5
116
330
17
100
AcDbEntity
  8
A-SYMB
100
AcDbText
 10
85573.59725128667
 20
102667.19146989624
 30
0.0
 40
900.0
  1
6
  7
JP
 72
1
 11
85573.59725128667
 21
102667.19146989624
 31
0.0
100
AcDbText
 73
2
  0
CIRCLE
  5
117
330
17
100
AcDbEntity
  8
A-SYMB
100
AcDbCircle
 10
96150.0
 20
101200.0
 30
0.0
 40
450.0
  0
TEXT
  5
118
330
17
100
AcDbEntity
  8
A-SYMB
100
AcDbText
 10
98119.93862520109
 20
102179.45995984567
 30
0.0
 40
900.0
  1
7
  7
JP
 72
1
 11
98119.93862520109
 21
102179.45995984567
 31
0.0
100
AcDbText
 73
2
  0
CIRCLE
  5
119
330
17
100
AcDbEntity
  8
A-SYMB
100
AcDbCircle
 10
96350.0
 20
103800.0
 30
0.0
 40
450.0
  0
TEXT
  5
11A
330
17
100
AcDbEntity
  8
A-SYMB
100
AcDbText
 10
98259.78608511825
 20
104892.11588629078
 30
0.0
 40
900.0
  1
8
  7
JP
 72
1
 11
98259.78608511825
 21
104892.11588629078
 31
0.0
100
AcDbText
 73
2
  0
CIRCLE
  5
11B
330
17
100
AcDbEntity
  8
A-SYMB
100
AcDbCircle
 10
105450.0
 20
105300.0
 30
0.0
 40
450.0
  0
TEXT
  5
11C
330
17
100
AcDbEntity
  8
A-SYMB
100
AcDbText
 10
107429.54920561667
 20
106259.88798437233
 30
0.0
 40
900.0
  1
9
  7
JP
 72
1
 11
107429.54920561667
 21
106259.88798437233
 31
0.0
100
AcDbText
 73
2
  0
CIRCLE
  5
11D
330
17
100
AcDbEntity
  8
A-SYMB
100
AcDbCircle
 10
100550.0
 20
92800.0
 30
0.0
 40
450.0
  0
TEXT
  5
11E
330
17
100
AcDbEntity
  8
A-SYMB
100
AcDbText
 10
102700.25448041555
 20
93265.19422766507
 30
0.0
 40
900.0
  1
10
  7
JP
 72
1
 11
102700.25448041555
 21
93265.19422766507
 31
0.0
100
AcDbText
 73
2
  0
CIRCLE
  5
11F
330
17
100
AcDbEntity
  8
A-SYMB
100
AcDbCircle
 10
91650.0
 20
73400.0
 30
0.0
 40
450.0
  0
TEXT
  5
120
330
17
100
AcDbEntity
  8
A-SYMB
100
AcDbText
 10
93699.31783665645
 20
72599.81476871808
 30
0.0
 40
900.0
  1
11
  7
JP
 72
1
 11
93699.31783665645
 21
72599.81476871808
 31
0.0
100
AcDbText
 73
2
  0
CIRCLE
  5
121
330
17
100
AcDbEntity
  8
A-SYMB
100
AcDbCircle
 10
81550.0
 20
42300.0
 30
0.0
 40
450.0
  0
TEXT
  5
122
330
17
100
AcDbEntity
  8
A-SYMB
100
AcDbText
 10
82438.65023539004
 20
40287.46409742802
 30
0.0
 40
900.0
  1
12
  7
JP
 72
1
 11
82438.65023539004
 21
40287.46409742802
 31
0.0
100
AcDbText
 73
2
  0
CIRCLE
  5
123
330
17
100
AcDbEntity
  8
A-SYMB
100
AcDbCircle
 10
79750.0
 20
40300.0
 30
0.0
 40
450.0
  0
TEXT
  5
124
330
17
100
AcDbEntity
  8
A-SYMB
100
AcDbText
 10
80533.36703516135
 20
38244.19454027807
 30
0.0
 40
900.0
  1
13
  7
JP
 72
1
 11
80533.36703516135
 21
38244.19454027807
 31
0.0
100
AcDbText
 73
2
  0
CIRCLE
  5
125
330
17
100
AcDbEntity
  8
A-SYMB
100
AcDbCircle
 10
77550.0
 20
39400.0
 30
0.0
 40
450.0
  0
TEXT
  5
126
330
17
100
AcDbEntity
  8
A-SYMB
100
AcDbText
 10
78229.6988053516
 20
37307.63064111433
 30
0.0
 40
900.0
  1
14
  7
JP
 72
1
 11
78229.6988053516
 21
37307.63064111433
 31
0.0
100
AcDbText
 73
2
  0
CIRCLE
  5
127
330
17
100
AcDbEntity
  8
A-SYMB
100
AcDbCircle
 10
63950.0
 20
42364.10256410256
 30
0.0
 40
450.0
  0
TEXT
  5
128
330
17
100
AcDbEntity
  8
A-SYMB
100
AcDbText
 10
64007.08665698562
 20
40164.84334482117
 30
0.0
 40
900.0
  1
15
  7
JP
 72
1
 11
64007.08665698562
 21
40164.84334482117
 31
0.0
100
AcDbText
 73
2
  0
CIRCLE
  5
129
330
17
100
AcDbEntity
  8
A-SYMB
100
AcDbCircle
 10
69400.0
 20
62900.0
 30
0.0
 40
450.0
  0
TEXT
  5
12A
330
17
100
AcDbEntity
  8
A-SYMB
100
AcDbText
 10
70034.31265193087
 20
60793.42755652685
 30
0.0
 40
900.0
  1
16
  7
JP
 72
1
 11
70034.31265193087
 21
60793.42755652685
 31
0.0
100
AcDbText
 73
2
  0
CIRCLE
  5
12B
330
17
100
AcDbEntity
  8
A-SYMB
100
AcDbCircle
 10
51550.0
 20
68300.0
 30
0.0
 40
450.0
  0
TEXT
  5
12C
330
17
100
AcDbEntity
  8
A-SYMB
100
AcDbText
 10
50298.69778343925
 20
66490.51312167505
 30
0.0
 40
900.0
  1
17
  7
JP
 72
1
 11
50298.69778343925
 21
66490.51312167505
 31
0.0
100
AcDbText
 73
2
  0
CIRCLE
  5
12D
330
17
100
AcDbEntity
  8
A-SYMB
100
AcDbCircle
 10
50950.0
 20
75400.0
 30
0.0
 40
450.0
  0
TEXT
  5
12E
330
17
100
AcDbEntity
  8
A-SYMB
100
AcDbText
 10
49212.4965022883
 20
74050.52543727582
 30
0.0
 40
900.0
  1
18
  7
JP
 72
1
 11
49212.4965022883
 21
74050.52543727582
 31
0.0
100
AcDbText
 73
2
  0
CIRCLE
  5
12F
330
17
100
AcDbEntity
  8
A-SYMB
100
AcDbCircle
 10
43550.0
 20
77900.0
 30
0.0
 40
450.0
  0
TEXT
  5
130
330
17
100
AcDbEntity
  8
A-SYMB
100
AcDbText
 10
41473.126153550096
 20
77174.33132496133
 30
0.0
 40
900.0
  1
19
  7
JP
 72
1
 11
41473.126153550096
 21
77174.33132496133
 31
0.0
100
AcDbText
 73
2
  0
CIRCLE
  5
131
330
17
100
AcDbEntity
  8
A-SYMB
100
AcDbCircle
 10
37550.0
 20
78500.0
 30
0.0
 40
450.0
  0
TEXT
  5
132
330
17
100
AcDbEntity
  8
A-SYMB
100
AcDbText
 10
35412.131894653314
 20
77980.84687794313
 30
0.0
 40
900.0
  1
20
  7
JP
 72
1
 11
35412.131894653314
 21
77980.84687794313
 31
0.0
100
AcDbText
 73
2
  0
CIRCLE
  5
133
330
17
100
AcDbEntity
  8
A-SYMB
100
AcDbCircle
 10
27050.0
 20
81500.0
 30
0.0
 40
450.0
  0
TEXT
  5
134
330
17
100
AcDbEntity
  8
A-SYMB
100
AcDbText
 10
24858.435932585577
 20
81307.52418744692
 30
0.0
 40
900.0
  1
21
  7
JP
 72
1
 11
24858.435932585577
 21
81307.52418744692
 31
0.0
100
AcDbText
 73
2
  0
TEXT
  5
135
330
17
100
AcDbEntity
  8
A-TEXT
100
AcDbText
 10
34045.0
 20
124895.0
 30
0.0
 40
1000.0
  1
水路（法定外公共物）／北側道路（幅員4m未満）TP+112.5〜113.0
  7
JP
 72
1
 11
34045.0
 21
124895.0
 31
0.0
100
AcDbText
 73
2
  0
TEXT
  5
136
330
17
100
AcDbEntity
  8
A-TEXT
100
AcDbText
 10
104045.0
 20
67895.0
 30
0.0
 40
1000.0
  1
東側道路 幅員約5.5m（北へ上り TP+109.0→112.9）
  7
JP
 72
1
 11
104045.0
 21
67895.0
 31
0.0
100
AcDbText
 73
2
  0
TEXT
  5
137
330
17
100
AcDbEntity
  8
A-TEXT
100
AcDbText
 10
44045.0
 20
30895.000000000004
 30
0.0
 40
1000.0
  1
南側道路 幅員約7.4m TP+109.0（設計GL±0）
  7
JP
 72
1
 11
44045.0
 21
30895.000000000004
 31
0.0
100
AcDbText
 73
2
  0
TEXT
  5
138
330
17
100
AcDbEntity
  8
A-ROOM
100
AcDbText
 10
72670.0
 20
83020.0
 30
0.0
 40
1100.0
  1
建物（壁式RC造 2階建て）
  7
JP
 72
1
 11
72670.0
 21
83020.0
 31
0.0
100
AcDbText
 73
2
  0
TEXT
  5
139
330
17
100
AcDbEntity
  8
A-TEXT
100
AcDbText
 10
74545.0
 20
43895.0
 30
0.0
 40
950.0
  1
駐車場（Dotcon+）
  7
JP
 72
1
 11
74545.0
 21
43895.0
 31
0.0
100
AcDbText
 73
2
  0
TEXT
  5
13A
330
17
100
AcDbEntity
  8
A-TEXT
100
AcDbText
 10
36045.0
 20
102895.0
 30
0.0
 40
950.0
  1
庭・雨水貯留浸透
  7
JP
 72
1
 11
36045.0
 21
102895.0
 31
0.0
100
AcDbText
 73
2
  0
TEXT
  5
13B
330
17
100
AcDbEntity
  8
A-TEXT
100
AcDbText
 10
56045.0
 20
98895.0
 30
0.0
 40
850.0
  1
破線: 既存建物（解体）
  7
JP
 72
1
 11
56045.0
 21
98895.0
 31
0.0
100
AcDbText
 73
2
  0
TEXT
  5
13C
330
17
100
AcDbEntity
  8
A-TERRAIN
100
AcDbText
 10
72645.0
 20
79695.0
 30
0.0
 40
800.0
  1
+109.6
  7
JP
 72
1
 11
72645.0
 21
79695.0
 31
0.0
100
AcDbText
 73
2
  0
LINE
  5
13D
330
17
100
AcDbEntity
  8
A-TERRAIN
100
AcDbLine
 10
72245.0
 20
81495.0
 30
0.0
 11
73045.0
 21
81495.0
 31
0.0
  0
LINE
  5
13E
330
17
100
AcDbEntity
  8
A-TERRAIN
100
AcDbLine
 10
72645.0
 20
81095.0
 30
0.0
 11
72645.0
 21
81895.0
 31
0.0
  0
TEXT
  5
13F
330
17
100
AcDbEntity
  8
A-TERRAIN
100
AcDbText
 10
36045.0
 20
96095.0
 30
0.0
 40
800.0
  1
+109.5
  7
JP
 72
1
 11
36045.0
 21
96095.0
 31
0.0
100
AcDbText
 73
2
  0
LINE
  5
140
330
17
100
AcDbEntity
  8
A-TERRAIN
100
AcDbLine
 10
35645.0
 20
97895.0
 30
0.0
 11
36445.0
 21
97895.0
 31
0.0
  0
LINE
  5
141
330
17
100
AcDbEntity
  8
A-TERRAIN
100
AcDbLine
 10
36045.0
 20
97495.0
 30
0.0
 11
36045.0
 21
98295.0
 31
0.0
  0
TEXT
  5
142
330
17
100
AcDbEntity
  8
A-TERRAIN
100
AcDbText
 10
72045.0
 20
47095.0
 30
0.0
 40
800.0
  1
+109.1
  7
JP
 72
1
 11
72045.0
 21
47095.0
 31
0.0
100
AcDbText
 73
2
  0
LINE
  5
143
330
17
100
AcDbEntity
  8
A-TERRAIN
100
AcDbLine
 10
71645.0
 20
48895.0
 30
0.0
 11
72445.0
 21
48895.0
 31
0.0
  0
LINE
  5
144
330
17
100
AcDbEntity
  8
A-TERRAIN
100
AcDbLine
 10
72045.0
 20
48495.0
 30
0.0
 11
72045.0
 21
49295.0
 31
0.0
  0
TEXT
  5
145
330
17
100
AcDbEntity
  8
A-TERRAIN
100
AcDbText
 10
72045.0
 20
111095.0
 30
0.0
 40
800.0
  1
+112.6
  7
JP
 72
1
 11
72045.0
 21
111095.0
 31
0.0
100
AcDbText
 73
2
  0
LINE
  5
146
330
17
100
AcDbEntity
  8
A-TERRAIN
100
AcDbLine
 10
71645.0
 20
112895.0
 30
0.0
 11
72445.0
 21
112895.0
 31
0.0
  0
LINE
  5
147
330
17
100
AcDbEntity
  8
A-TERRAIN
100
AcDbLine
 10
72045.0
 20
112495.0
 30
0.0
 11
72045.0
 21
113295.0
 31
0.0
  0
TEXT
  5
148
330
17
100
AcDbEntity
  8
A-TERRAIN
100
AcDbText
 10
94045.0
 20
86095.0
 30
0.0
 40
800.0
  1
+111.8
  7
JP
 72
1
 11
94045.0
 21
86095.0
 31
0.0
100
AcDbText
 73
2
  0
LINE
  5
149
330
17
100
AcDbEntity
  8
A-TERRAIN
100
AcDbLine
 10
93645.0
 20
87895.0
 30
0.0
 11
94445.0
 21
87895.0
 31
0.0
  0
LINE
  5
14A
330
17
100
AcDbEntity
  8
A-TERRAIN
100
AcDbLine
 10
94045.0
 20
87495.0
 30
0.0
 11
94045.0
 21
88295.0
 31
0.0
  0
TEXT
  5
14B
330
17
100
AcDbEntity
  8
A-TERRAIN
100
AcDbText
 10
54045.0
 20
31095.000000000004
 30
0.0
 40
800.0
  1
+109.1
  7
JP
 72
1
 11
54045.0
 21
31095.000000000004
 31
0.0
100
AcDbText
 73
2
  0
LINE
  5
14C
330
17
100
AcDbEntity
  8
A-TERRAIN
100
AcDbLine
 10
53645.0
 20
32895.0
 30
0.0
 11
54445.0
 21
32895.0
 31
0.0
  0
LINE
  5
14D
330
17
100
AcDbEntity
  8
A-TERRAIN
100
AcDbLine
 10
54045.0
 20
32495.000000000004
 30
0.0
 11
54045.0
 21
33295.0
 31
0.0
  0
TEXT
  5
14E
330
17
100
AcDbEntity
  8
A-TERRAIN
100
AcDbText
 10
89045.0
 20
46095.0
 30
0.0
 40
800.0
  1
+109.5
  7
JP
 72
1
 11
89045.0
 21
46095.0
 31
0.0
100
AcDbText
 73
2
  0
LINE
  5
14F
330
17
100
AcDbEntity
  8
A-TERRAIN
100
AcDbLine
 10
88645.0
 20
47895.0
 30
0.0
 11
89445.0
 21
47895.0
 31
0.0
  0
LINE
  5
150
330
17
100
AcDbEntity
  8
A-TERRAIN
100
AcDbLine
 10
89045.0
 20
47495.0
 30
0.0
 11
89045.0
 21
48295.0
 31
0.0
  0
CIRCLE
  5
151
330
17
100
AcDbEntity
  8
A-SYMB
100
AcDbCircle
 10
15000.0
 20
135000.0
 30
0.0
 40
3000.0
  0
LWPOLYLINE
  5
152
330
17
100
AcDbEntity
  8
A-SYMB
100
AcDbPolyline
 90
4
 70
1
 10
15000.0
 20
138000.0
 10
13950.0
 20
133200.0
 10
15000.0
 20
134100.0
 10
16050.0
 20
133200.0
  0
HATCH
  5
153
330
17
100
AcDbEntity
  8
A-SYMB
 62
7
100
AcDbHatch
 10
0.0
 20
0.0
 30
0.0
210
0.0
220
0.0
230
1.0
  2
SOLID
 70
1
 71
0
 91
1
 92
3
 72
0
 73
1
 93
3
 10
15000.0
 20
138000.0
 10
15000.0
 20
134100.0
 10
16050.0
 20
133200.0
 97
0
 75
0
 76
1
 98
0
  0
TEXT
  5
154
330
17
100
AcDbEntity
  8
A-SYMB
100
AcDbText
 10
15000.0
 20
138750.0
 30
0.0
 40
1750.0
  1
N
  7
JP
 72
1
 11
15000.0
 21
138750.0
 31
0.0
100
AcDbText
 73
1
  0
TEXT
  5
155
330
17
100
AcDbEntity
  8
A-TEXT
100
AcDbText
 10
9000.0
 20
11000.0
 30
0.0
 40
2000.0
  1
配置図
  7
JP
 11
9000.0
 21
11000.0
 31
0.0
100
AcDbText
 73
1
  0
LINE
  5
156
330
17
100
AcDbEntity
  8
A-SYMB
370
50
100
AcDbLine
 10
9000.0
 20
10400.0
 30
0.0
 11
18780.0
 21
10400.0
 31
0.0
  0
TEXT
  5
157
330
17
100
AcDbEntity
  8
A-TEXT
100
AcDbText
 10
19280.0
 20
11000.0
 30
0.0
 40
1400.0
  1
S=1:500
  7
JP
 11
19280.0
 21
11000.0
 31
0.0
100
AcDbText
 73
1
  0
TEXT
  5
158
330
17
100
AcDbEntity
  8
A-TEXT
100
AcDbText
 10
9000.0
 20
7500.0
 30
0.0
 40
1000.0
  1
敷地境界・道路縁・水路・隣接建物・等高線: 国土地理院 基盤地図情報／標高: DEM5A（TP m）
  7
JP
 11
9000.0
 21
7500.0
 31
0.0
100
AcDbText
  0
TEXT
  5
159
330
17
100
AcDbEntity
  8
A-TEXT
100
AcDbText
 10
125000.0
 20
140000.0
 30
0.0
 40
1300.0
  1
座標求積表（建物 X1・Y1 壁芯交点を原点、m）
  7
JP
 11
125000.0
 21
140000.0
 31
0.0
100
AcDbText
  0
LWPOLYLINE
  5
15A
330
17
100
AcDbEntity
  8
G-TABLE
370
35
100
AcDbPolyline
 90
2
 70
0
 10
125000.0
 20
138500.0
 10
185000.0
 20
138500.0
  0
TEXT
  5
15B
330
17
100
AcDbEntity
  8
A-TEXT
100
AcDbText
 10
125500.0
 20
136975.0
 30
0.0
 40
925.0
  1
点
  7
JP
 11
125500.0
 21
136975.0
 31
0.0
100
AcDbText
  0
TEXT
  5
15C
330
17
100
AcDbEntity
  8
A-TEXT
100
AcDbText
 10
131500.0
 20
136975.0
 30
0.0
 40
925.0
  1
X(m)
  7
JP
 11
131500.0
 21
136975.0
 31
0.0
100
AcDbText
  0
TEXT
  5
15D
330
17
100
AcDbEntity
  8
A-TEXT
100
AcDbText
 10
146500.0
 20
136975.0
 30
0.0
 40
925.0
  1
Y(m)
  7
JP
 11
146500.0
 21
136975.0
 31
0.0
100
AcDbText
  0
TEXT
  5
15E
330
17
100
AcDbEntity
  8
A-TEXT
100
AcDbText
 10
161500.0
 20
136975.0
 30
0.0
 40
925.0
  1
Xn(Yn+1−Yn−1)
  7
JP
 11
161500.0
 21
136975.0
 31
0.0
100
AcDbText
  0
LWPOLYLINE
  5
15F
330
17
100
AcDbEntity
  8
G-TABLE
370
35
100
AcDbPolyline
 90
2
 70
0
 10
125000.0
 20
136200.0
 10
185000.0
 20
136200.0
  0
TEXT
  5
160
330
17
100
AcDbEntity
  8
A-TEXT
100
AcDbText
 10
125500.0
 20
134674.99999999997
 30
0.0
 40
925.0
  1
1
  7
JP
 11
125500.0
 21
134674.99999999997
 31
0.0
100
AcDbText
  0
TEXT
  5
161
330
17
100
AcDbEntity
  8
A-TEXT
100
AcDbText
 10
131500.0
 20
134674.99999999997
 30
0.0
 40
925.0
  1
-44.49
  7
JP
 11
131500.0
 21
134674.99999999997
 31
0.0
100
AcDbText
  0
TEXT
  5
162
330
17
100
AcDbEntity
  8
A-TEXT
100
AcDbText
 10
146500.0
 20
134674.99999999997
 30
0.0
 40
925.0
  1
47.70
  7
JP
 11
146500.0
 21
134674.99999999997
 31
0.0
100
AcDbText
  0
TEXT
  5
163
330
17
100
AcDbEntity
  8
A-TEXT
100
AcDbText
 10
161500.0
 20
134674.99999999997
 30
0.0
 40
925.0
  1
-1619.62
  7
JP
 11
161500.0
 21
134674.99999999997
 31
0.0
100
AcDbText
  0
LWPOLYLINE
  5
164
330
17
100
AcDbEntity
  8
G-TABLE
370
18
100
AcDbPolyline
 90
2
 70
0
 10
125000.0
 20
133899.99999999997
 10
185000.0
 20
133899.99999999997
  0
TEXT
  5
165
330
17
100
AcDbEntity
  8
A-TEXT
100
AcDbText
 10
125500.0
 20
132374.99999999997
 30
0.0
 40
925.0
  1
2
  7
JP
 11
125500.0
 21
132374.99999999997
 31
0.0
100
AcDbText
  0
TEXT
  5
166
330
17
100
AcDbEntity
  8
A-TEXT
100
AcDbText
 10
131500.0
 20
132374.99999999997
 30
0.0
 40
925.0
  1
-38.99
  7
JP
 11
131500.0
 21
132374.99999999997
 31
0.0
100
AcDbText
  0
TEXT
  5
167
330
17
100
AcDbEntity
  8
A-TEXT
100
AcDbText
 10
146500.0
 20
132374.99999999997
 30
0.0
 40
925.0
  1
45.00
  7
JP
 11
146500.0
 21
132374.99999999997
 31
0.0
100
AcDbText
  0
TEXT
  5
168
330
17
100
AcDbEntity
  8
A-TEXT
100
AcDbText
 10
161500.0
 20
132374.99999999997
 30
0.0
 40
925.0
  1
253.47
  7
JP
 11
161500.0
 21
132374.99999999997
 31
0.0
100
AcDbText
  0
LWPOLYLINE
  5
169
330
17
100
AcDbEntity
  8
G-TABLE
370
18
100
AcDbPolyline
 90
2
 70
0
 10
125000.0
 20
131599.99999999997
 10
185000.0
 20
131599.99999999997
  0
TEXT
  5
16A
330
17
100
AcDbEntity
  8
A-TEXT
100
AcDbText
 10
125500.0
 20
130074.99999999996
 30
0.0
 40
925.0
  1
3
  7
JP
 11
125500.0
 21
130074.99999999996
 31
0.0
100
AcDbText
  0
TEXT
  5
16B
330
17
100
AcDbEntity
  8
A-TEXT
100
AcDbText
 10
131500.0
 20
130074.99999999996
 30
0.0
 40
925.0
  1
-29.20
  7
JP
 11
131500.0
 21
130074.99999999996
 31
0.0
100
AcDbText
  0
TEXT
  5
16C
330
17
100
AcDbEntity
  8
A-TEXT
100
AcDbText
 10
146500.0
 20
130074.99999999996
 30
0.0
 40
925.0
  1
41.20
  7
JP
 11
146500.0
 21
130074.99999999996
 31
0.0
100
AcDbText
  0
TEXT
  5
16D
330
17
100
AcDbEntity
  8
A-TEXT
100
AcDbText
 10
161500.0
 20
130074.99999999996
 30
0.0
 40
925.0
  1
341.58
  7
JP
 11
161500.0
 21
130074.99999999996
 31
0.0
100
AcDbText
  0
LWPOLYLINE
  5
16E
330
17
100
AcDbEntity
  8
G-TABLE
370
18
100
AcDbPolyline
 90
2
 70
0
 10
125000.0
 20
129299.99999999996
 10
185000.0
 20
129299.99999999996
  0
TEXT
  5
16F
330
17
100
AcDbEntity
  8
A-TEXT
100
AcDbText
 10
125500.0
 20
127774.99999999996
 30
0.0
 40
925.0
  1
4
  7
JP
 11
125500.0
 21
127774.99999999996
 31
0.0
100
AcDbText
  0
TEXT
  5
170
330
17
100
AcDbEntity
  8
A-TEXT
100
AcDbText
 10
131500.0
 20
127774.99999999996
 30
0.0
 40
925.0
  1
-4.69
  7
JP
 11
131500.0
 21
127774.99999999996
 31
0.0
100
AcDbText
  0
TEXT
  5
171
330
17
100
AcDbEntity
  8
A-TEXT
100
AcDbText
 10
146500.0
 20
127774.99999999996
 30
0.0
 40
925.0
  1
33.30
  7
JP
 11
146500.0
 21
127774.99999999996
 31
0.0
100
AcDbText
  0
TEXT
  5
172
330
17
100
AcDbEntity
  8
A-TEXT
100
AcDbText
 10
161500.0
 20
127774.99999999996
 30
0.0
 40
925.0
  1
55.87
  7
JP
 11
161500.0
 21
127774.99999999996
 31
0.0
100
AcDbText
  0
LWPOLYLINE
  5
173
330
17
100
AcDbEntity
  8
G-TABLE
370
18
100
AcDbPolyline
 90
2
 70
0
 10
125000.0
 20
126999.99999999996
 10
185000.0
 20
126999.99999999996
  0
TEXT
  5
174
330
17
100
AcDbEntity
  8
A-TEXT
100
AcDbText
 10
125500.0
 20
125474.99999999997
 30
0.0
 40
925.0
  1
5
  7
JP
 11
125500.0
 21
125474.99999999997
 31
0.0
100
AcDbText
  0
TEXT
  5
175
330
17
100
AcDbEntity
  8
A-TEXT
100
AcDbText
 10
131500.0
 20
125474.99999999997
 30
0.0
 40
925.0
  1
12.21
  7
JP
 11
131500.0
 21
125474.99999999997
 31
0.0
100
AcDbText
  0
TEXT
  5
176
330
17
100
AcDbEntity
  8
A-TEXT
100
AcDbText
 10
146500.0
 20
125474.99999999997
 30
0.0
 40
925.0
  1
29.30
  7
JP
 11
146500.0
 21
125474.99999999997
 31
0.0
100
AcDbText
  0
TEXT
  5
177
330
17
100
AcDbEntity
  8
A-TEXT
100
AcDbText
 10
161500.0
 20
125474.99999999997
 30
0.0
 40
925.0
  1
-59.80
  7
JP
 11
161500.0
 21
125474.99999999997
 31
0.0
100
AcDbText
  0
LWPOLYLINE
  5
178
330
17
100
AcDbEntity
  8
G-TABLE
370
18
100
AcDbPolyline
 90
2
 70
0
 10
125000.0
 20
124699.99999999996
 10
185000.0
 20
124699.99999999996
  0
TEXT
  5
179
330
17
100
AcDbEntity
  8
A-TEXT
100
AcDbText
 10
125500.0
 20
123174.99999999997
 30
0.0
 40
925.0
  1
6
  7
JP
 11
125500.0
 21
123174.99999999997
 31
0.0
100
AcDbText
  0
TEXT
  5
17A
330
17
100
AcDbEntity
  8
A-TEXT
100
AcDbText
 10
131500.0
 20
123174.99999999997
 30
0.0
 40
925.0
  1
19.80
  7
JP
 11
131500.0
 21
123174.99999999997
 31
0.0
100
AcDbText
  0
TEXT
  5
17B
330
17
100
AcDbEntity
  8
A-TEXT
100
AcDbText
 10
146500.0
 20
123174.99999999997
 30
0.0
 40
925.0
  1
28.41
  7
JP
 11
146500.0
 21
123174.99999999997
 31
0.0
100
AcDbText
  0
TEXT
  5
17C
330
17
100
AcDbEntity
  8
A-TEXT
100
AcDbText
 10
161500.0
 20
123174.99999999997
 30
0.0
 40
925.0
  1
-19.80
  7
JP
 11
161500.0
 21
123174.99999999997
 31
0.0
100
AcDbText
  0
LWPOLYLINE
  5
17D
330
17
100
AcDbEntity
  8
G-TABLE
370
18
100
AcDbPolyline
 90
2
 70
0
 10
125000.0
 20
122399.99999999996
 10
185000.0
 20
122399.99999999996
  0
TEXT
  5
17E
330
17
100
AcDbEntity
  8
A-TEXT
100
AcDbText
 10
125500.0
 20
120874.99999999997
 30
0.0
 40
925.0
  1
7
  7
JP
 11
125500.0
 21
120874.99999999997
 31
0.0
100
AcDbText
  0
TEXT
  5
17F
330
17
100
AcDbEntity
  8
A-TEXT
100
AcDbText
 10
131500.0
 20
120874.99999999997
 30
0.0
 40
925.0
  1
32.11
  7
JP
 11
131500.0
 21
120874.99999999997
 31
0.0
100
AcDbText
  0
TEXT
  5
180
330
17
100
AcDbEntity
  8
A-TEXT
100
AcDbText
 10
146500.0
 20
120874.99999999997
 30
0.0
 40
925.0
  1
28.30
  7
JP
 11
146500.0
 21
120874.99999999997
 31
0.0
100
AcDbText
  0
TEXT
  5
181
330
17
100
AcDbEntity
  8
A-TEXT
100
AcDbText
 10
161500.0
 20
120874.99999999997
 30
0.0
 40
925.0
  1
80.26
  7
JP
 11
161500.0
 21
120874.99999999997
 31
0.0
100
AcDbText
  0
LWPOLYLINE
  5
182
330
17
100
AcDbEntity
  8
G-TABLE
370
18
100
AcDbPolyline
 90
2
 70
0
 10
125000.0
 20
120099.99999999997
 10
185000.0
 20
120099.99999999997
  0
TEXT
  5
183
330
17
100
AcDbEntity
  8
A-TEXT
100
AcDbText
 10
125500.0
 20
118574.99999999997
 30
0.0
 40
925.0
  1
8
  7
JP
 11
125500.0
 21
118574.99999999997
 31
0.0
100
AcDbText
  0
TEXT
  5
184
330
17
100
AcDbEntity
  8
A-TEXT
100
AcDbText
 10
131500.0
 20
118574.99999999997
 30
0.0
 40
925.0
  1
32.30
  7
JP
 11
131500.0
 21
118574.99999999997
 31
0.0
100
AcDbText
  0
TEXT
  5
185
330
17
100
AcDbEntity
  8
A-TEXT
100
AcDbText
 10
146500.0
 20
118574.99999999997
 30
0.0
 40
925.0
  1
30.91
  7
JP
 11
146500.0
 21
118574.99999999997
 31
0.0
100
AcDbText
  0
TEXT
  5
186
330
17
100
AcDbEntity
  8
A-TEXT
100
AcDbText
 10
161500.0
 20
118574.99999999997
 30
0.0
 40
925.0
  1
132.45
  7
JP
 11
161500.0
 21
118574.99999999997
 31
0.0
100
AcDbText
  0
LWPOLYLINE
  5
187
330
17
100
AcDbEntity
  8
G-TABLE
370
18
100
AcDbPolyline
 90
2
 70
0
 10
125000.0
 20
117799.99999999997
 10
185000.0
 20
117799.99999999997
  0
TEXT
  5
188
330
17
100
AcDbEntity
  8
A-TEXT
100
AcDbText
 10
125500.0
 20
116274.99999999997
 30
0.0
 40
925.0
  1
9
  7
JP
 11
125500.0
 21
116274.99999999997
 31
0.0
100
AcDbText
  0
TEXT
  5
189
330
17
100
AcDbEntity
  8
A-TEXT
100
AcDbText
 10
131500.0
 20
116274.99999999997
 30
0.0
 40
925.0
  1
41.41
  7
JP
 11
131500.0
 21
116274.99999999997
 31
0.0
100
AcDbText
  0
TEXT
  5
18A
330
17
100
AcDbEntity
  8
A-TEXT
100
AcDbText
 10
146500.0
 20
116274.99999999997
 30
0.0
 40
925.0
  1
32.41
  7
JP
 11
146500.0
 21
116274.99999999997
 31
0.0
100
AcDbText
  0
TEXT
  5
18B
330
17
100
AcDbEntity
  8
A-TEXT
100
AcDbText
 10
161500.0
 20
116274.99999999997
 30
0.0
 40
925.0
  1
-455.46
  7
JP
 11
161500.0
 21
116274.99999999997
 31
0.0
100
AcDbText
  0
LWPOLYLINE
  5
18C
330
17
100
AcDbEntity
  8
G-TABLE
370
18
100
AcDbPolyline
 90
2
 70
0
 10
125000.0
 20
115499.99999999997
 10
185000.0
 20
115499.99999999997
  0
TEXT
  5
18D
330
17
100
AcDbEntity
  8
A-TEXT
100
AcDbText
 10
125500.0
 20
113974.99999999999
 30
0.0
 40
925.0
  1
10
  7
JP
 11
125500.0
 21
113974.99999999999
 31
0.0
100
AcDbText
  0
TEXT
  5
18E
330
17
100
AcDbEntity
  8
A-TEXT
100
AcDbText
 10
131500.0
 20
113974.99999999999
 30
0.0
 40
925.0
  1
36.51
  7
JP
 11
131500.0
 21
113974.99999999999
 31
0.0
100
AcDbText
  0
TEXT
  5
18F
330
17
100
AcDbEntity
  8
A-TEXT
100
AcDbText
 10
146500.0
 20
113974.99999999999
 30
0.0
 40
925.0
  1
19.90
  7
JP
 11
146500.0
 21
113974.99999999999
 31
0.0
100
AcDbText
  0
TEXT
  5
190
330
17
100
AcDbEntity
  8
A-TEXT
100
AcDbText
 10
161500.0
 20
113974.99999999999
 30
0.0
 40
925.0
  1
-1164.51
  7
JP
 11
161500.0
 21
113974.99999999999
 31
0.0
100
AcDbText
  0
LWPOLYLINE
  5
191
330
17
100
AcDbEntity
  8
G-TABLE
370
18
100
AcDbPolyline
 90
2
 70
0
 10
125000.0
 20
113199.99999999997
 10
185000.0
 20
113199.99999999997
  0
TEXT
  5
192
330
17
100
AcDbEntity
  8
A-TEXT
100
AcDbText
 10
125500.0
 20
111674.99999999999
 30
0.0
 40
925.0
  1
11
  7
JP
 11
125500.0
 21
111674.99999999999
 31
0.0
100
AcDbText
  0
TEXT
  5
193
330
17
100
AcDbEntity
  8
A-TEXT
100
AcDbText
 10
131500.0
 20
111674.99999999999
 30
0.0
 40
925.0
  1
27.61
  7
JP
 11
131500.0
 21
111674.99999999999
 31
0.0
100
AcDbText
  0
TEXT
  5
194
330
17
100
AcDbEntity
  8
A-TEXT
100
AcDbText
 10
146500.0
 20
111674.99999999999
 30
0.0
 40
925.0
  1
0.50
  7
JP
 11
146500.0
 21
111674.99999999999
 31
0.0
100
AcDbText
  0
TEXT
  5
195
330
17
100
AcDbEntity
  8
A-TEXT
100
AcDbText
 10
161500.0
 20
111674.99999999999
 30
0.0
 40
925.0
  1
-1394.05
  7
JP
 11
161500.0
 21
111674.99999999999
 31
0.0
100
AcDbText
  0
LWPOLYLINE
  5
196
330
17
100
AcDbEntity
  8
G-TABLE
370
18
100
AcDbPolyline
 90
2
 70
0
 10
125000.0
 20
110899.99999999997
 10
185000.0
 20
110899.99999999997
  0
TEXT
  5
197
330
17
100
AcDbEntity
  8
A-TEXT
100
AcDbText
 10
125500.0
 20
109374.99999999999
 30
0.0
 40
925.0
  1
12
  7
JP
 11
125500.0
 21
109374.99999999999
 31
0.0
100
AcDbText
  0
TEXT
  5
198
330
17
100
AcDbEntity
  8
A-TEXT
100
AcDbText
 10
131500.0
 20
109374.99999999999
 30
0.0
 40
925.0
  1
17.50
  7
JP
 11
131500.0
 21
109374.99999999999
 31
0.0
100
AcDbText
  0
TEXT
  5
199
330
17
100
AcDbEntity
  8
A-TEXT
100
AcDbText
 10
146500.0
 20
109374.99999999999
 30
0.0
 40
925.0
  1
-30.60
  7
JP
 11
146500.0
 21
109374.99999999999
 31
0.0
100
AcDbText
  0
TEXT
  5
19A
330
17
100
AcDbEntity
  8
A-TEXT
100
AcDbText
 10
161500.0
 20
109374.99999999999
 30
0.0
 40
925.0
  1
-579.42
  7
JP
 11
161500.0
 21
109374.99999999999
 31
0.0
100
AcDbText
  0
LWPOLYLINE
  5
19B
330
17
100
AcDbEntity
  8
G-TABLE
370
18
100
AcDbPolyline
 90
2
 70
0
 10
125000.0
 20
108599.99999999999
 10
185000.0
 20
108599.99999999999
  0
TEXT
  5
19C
330
17
100
AcDbEntity
  8
A-TEXT
100
AcDbText
 10
125500.0
 20
107074.99999999999
 30
0.0
 40
925.0
  1
13
  7
JP
 11
125500.0
 21
107074.99999999999
 31
0.0
100
AcDbText
  0
TEXT
  5
19D
330
17
100
AcDbEntity
  8
A-TEXT
100
AcDbText
 10
131500.0
 20
107074.99999999999
 30
0.0
 40
925.0
  1
15.70
  7
JP
 11
131500.0
 21
107074.99999999999
 31
0.0
100
AcDbText
  0
TEXT
  5
19E
330
17
100
AcDbEntity
  8
A-TEXT
100
AcDbText
 10
146500.0
 20
107074.99999999999
 30
0.0
 40
925.0
  1
-32.59
  7
JP
 11
146500.0
 21
107074.99999999999
 31
0.0
100
AcDbText
  0
TEXT
  5
19F
330
17
100
AcDbEntity
  8
A-TEXT
100
AcDbText
 10
161500.0
 20
107074.99999999999
 30
0.0
 40
925.0
  1
-45.54
  7
JP
 11
161500.0
 21
107074.99999999999
 31
0.0
100
AcDbText
  0
LWPOLYLINE
  5
1A0
330
17
100
AcDbEntity
  8
G-TABLE
370
18
100
AcDbPolyline
 90
2
 70
0
 10
125000.0
 20
106299.99999999999
 10
185000.0
 20
106299.99999999999
  0
TEXT
  5
1A1
330
17
100
AcDbEntity
  8
A-TEXT
100
AcDbText
 10
125500.0
 20
104774.99999999999
 30
0.0
 40
925.0
  1
14
  7
JP
 11
125500.0
 21
104774.99999999999
 31
0.0
100
AcDbText
  0
TEXT
  5
1A2
330
17
100
AcDbEntity
  8
A-TEXT
100
AcDbText
 10
131500.0
 20
104774.99999999999
 30
0.0
 40
925.0
  1
13.50
  7
JP
 11
131500.0
 21
104774.99999999999
 31
0.0
100
AcDbText
  0
TEXT
  5
1A3
330
17
100
AcDbEntity
  8
A-TEXT
100
AcDbText
 10
146500.0
 20
104774.99999999999
 30
0.0
 40
925.0
  1
-33.50
  7
JP
 11
146500.0
 21
104774.99999999999
 31
0.0
100
AcDbText
  0
TEXT
  5
1A4
330
17
100
AcDbEntity
  8
A-TEXT
100
AcDbText
 10
161500.0
 20
104774.99999999999
 30
0.0
 40
925.0
  1
27.88
  7
JP
 11
161500.0
 21
104774.99999999999
 31
0.0
100
AcDbText
  0
LWPOLYLINE
  5
1A5
330
17
100
AcDbEntity
  8
G-TABLE
370
18
100
AcDbPolyline
 90
2
 70
0
 10
125000.0
 20
103999.99999999999
 10
185000.0
 20
103999.99999999999
  0
TEXT
  5
1A6
330
17
100
AcDbEntity
  8
A-TEXT
100
AcDbText
 10
125500.0
 20
102475.0
 30
0.0
 40
925.0
  1
15
  7
JP
 11
125500.0
 21
102475.0
 31
0.0
100
AcDbText
  0
TEXT
  5
1A7
330
17
100
AcDbEntity
  8
A-TEXT
100
AcDbText
 10
131500.0
 20
102475.0
 30
0.0
 40
925.0
  1
-0.09
  7
JP
 11
131500.0
 21
102475.0
 31
0.0
100
AcDbText
  0
TEXT
  5
1A8
330
17
100
AcDbEntity
  8
A-TEXT
100
AcDbText
 10
146500.0
 20
102475.0
 30
0.0
 40
925.0
  1
-30.53
  7
JP
 11
146500.0
 21
102475.0
 31
0.0
100
AcDbText
  0
TEXT
  5
1A9
330
17
100
AcDbEntity
  8
A-TEXT
100
AcDbText
 10
161500.0
 20
102475.0
 30
0.0
 40
925.0
  1
-2.23
  7
JP
 11
161500.0
 21
102475.0
 31
0.0
100
AcDbText
  0
LWPOLYLINE
  5
1AA
330
17
100
AcDbEntity
  8
G-TABLE
370
18
100
AcDbPolyline
 90
2
 70
0
 10
125000.0
 20
101699.99999999999
 10
185000.0
 20
101699.99999999999
  0
TEXT
  5
1AB
330
17
100
AcDbEntity
  8
A-TEXT
100
AcDbText
 10
125500.0
 20
100175.0
 30
0.0
 40
925.0
  1
16
  7
JP
 11
125500.0
 21
100175.0
 31
0.0
100
AcDbText
  0
TEXT
  5
1AC
330
17
100
AcDbEntity
  8
A-TEXT
100
AcDbText
 10
131500.0
 20
100175.0
 30
0.0
 40
925.0
  1
5.35
  7
JP
 11
131500.0
 21
100175.0
 31
0.0
100
AcDbText
  0
TEXT
  5
1AD
330
17
100
AcDbEntity
  8
A-TEXT
100
AcDbText
 10
146500.0
 20
100175.0
 30
0.0
 40
925.0
  1
-10.00
  7
JP
 11
146500.0
 21
100175.0
 31
0.0
100
AcDbText
  0
TEXT
  5
1AE
330
17
100
AcDbEntity
  8
A-TEXT
100
AcDbText
 10
161500.0
 20
100175.0
 30
0.0
 40
925.0
  1
138.89
  7
JP
 11
161500.0
 21
100175.0
 31
0.0
100
AcDbText
  0
LWPOLYLINE
  5
1AF
330
17
100
AcDbEntity
  8
G-TABLE
370
18
100
AcDbPolyline
 90
2
 70
0
 10
125000.0
 20
99399.99999999999
 10
185000.0
 20
99399.99999999999
  0
TEXT
  5
1B0
330
17
100
AcDbEntity
  8
A-TEXT
100
AcDbText
 10
125500.0
 20
97875.0
 30
0.0
 40
925.0
  1
17
  7
JP
 11
125500.0
 21
97875.0
 31
0.0
100
AcDbText
  0
TEXT
  5
1B1
330
17
100
AcDbEntity
  8
A-TEXT
100
AcDbText
 10
131500.0
 20
97875.0
 30
0.0
 40
925.0
  1
-12.50
  7
JP
 11
131500.0
 21
97875.0
 31
0.0
100
AcDbText
  0
TEXT
  5
1B2
330
17
100
AcDbEntity
  8
A-TEXT
100
AcDbText
 10
146500.0
 20
97875.0
 30
0.0
 40
925.0
  1
-4.60
  7
JP
 11
146500.0
 21
97875.0
 31
0.0
100
AcDbText
  0
TEXT
  5
1B3
330
17
100
AcDbEntity
  8
A-TEXT
100
AcDbText
 10
161500.0
 20
97875.0
 30
0.0
 40
925.0
  1
-156.19
  7
JP
 11
161500.0
 21
97875.0
 31
0.0
100
AcDbText
  0
LWPOLYLINE
  5
1B4
330
17
100
AcDbEntity
  8
G-TABLE
370
18
100
AcDbPolyline
 90
2
 70
0
 10
125000.0
 20
97100.0
 10
185000.0
 20
97100.0
  0
TEXT
  5
1B5
330
17
100
AcDbEntity
  8
A-TEXT
100
AcDbText
 10
125500.0
 20
95575.0
 30
0.0
 40
925.0
  1
18
  7
JP
 11
125500.0
 21
95575.0
 31
0.0
100
AcDbText
  0
TEXT
  5
1B6
330
17
100
AcDbEntity
  8
A-TEXT
100
AcDbText
 10
131500.0
 20
95575.0
 30
0.0
 40
925.0
  1
-13.10
  7
JP
 11
131500.0
 21
95575.0
 31
0.0
100
AcDbText
  0
TEXT
  5
1B7
330
17
100
AcDbEntity
  8
A-TEXT
100
AcDbText
 10
146500.0
 20
95575.0
 30
0.0
 40
925.0
  1
2.50
  7
JP
 11
146500.0
 21
95575.0
 31
0.0
100
AcDbText
  0
TEXT
  5
1B8
330
17
100
AcDbEntity
  8
A-TEXT
100
AcDbText
 10
161500.0
 20
95575.0
 30
0.0
 40
925.0
  1
-125.71
  7
JP
 11
161500.0
 21
95575.0
 31
0.0
100
AcDbText
  0
LWPOLYLINE
  5
1B9
330
17
100
AcDbEntity
  8
G-TABLE
370
18
100
AcDbPolyline
 90
2
 70
0
 10
125000.0
 20
94800.0
 10
185000.0
 20
94800.0
  0
TEXT
  5
1BA
330
17
100
AcDbEntity
  8
A-TEXT
100
AcDbText
 10
125500.0
 20
93275.0
 30
0.0
 40
925.0
  1
19
  7
JP
 11
125500.0
 21
93275.0
 31
0.0
100
AcDbText
  0
TEXT
  5
1BB
330
17
100
AcDbEntity
  8
A-TEXT
100
AcDbText
 10
131500.0
 20
93275.0
 30
0.0
 40
925.0
  1
-20.50
  7
JP
 11
131500.0
 21
93275.0
 31
0.0
100
AcDbText
  0
TEXT
  5
1BC
330
17
100
AcDbEntity
  8
A-TEXT
100
AcDbText
 10
146500.0
 20
93275.0
 30
0.0
 40
925.0
  1
5.00
  7
JP
 11
146500.0
 21
93275.0
 31
0.0
100
AcDbText
  0
TEXT
  5
1BD
330
17
100
AcDbEntity
  8
A-TEXT
100
AcDbText
 10
161500.0
 20
93275.0
 30
0.0
 40
925.0
  1
-63.53
  7
JP
 11
161500.0
 21
93275.0
 31
0.0
100
AcDbText
  0
LWPOLYLINE
  5
1BE
330
17
100
AcDbEntity
  8
G-TABLE
370
18
100
AcDbPolyline
 90
2
 70
0
 10
125000.0
 20
92500.0
 10
185000.0
 20
92500.0
  0
TEXT
  5
1BF
330
17
100
AcDbEntity
  8
A-TEXT
100
AcDbText
 10
125500.0
 20
90975.00000000001
 30
0.0
 40
925.0
  1
20
  7
JP
 11
125500.0
 21
90975.00000000001
 31
0.0
100
AcDbText
  0
TEXT
  5
1C0
330
17
100
AcDbEntity
  8
A-TEXT
100
AcDbText
 10
131500.0
 20
90975.00000000001
 30
0.0
 40
925.0
  1
-26.50
  7
JP
 11
131500.0
 21
90975.00000000001
 31
0.0
100
AcDbText
  0
TEXT
  5
1C1
330
17
100
AcDbEntity
  8
A-TEXT
100
AcDbText
 10
146500.0
 20
90975.00000000001
 30
0.0
 40
925.0
  1
5.60
  7
JP
 11
146500.0
 21
90975.00000000001
 31
0.0
100
AcDbText
  0
TEXT
  5
1C2
330
17
100
AcDbEntity
  8
A-TEXT
100
AcDbText
 10
161500.0
 20
90975.00000000001
 30
0.0
 40
925.0
  1
-95.38
  7
JP
 11
161500.0
 21
90975.00000000001
 31
0.0
100
AcDbText
  0
LWPOLYLINE
  5
1C3
330
17
100
AcDbEntity
  8
G-TABLE
370
18
100
AcDbPolyline
 90
2
 70
0
 10
125000.0
 20
90200.0
 10
185000.0
 20
90200.0
  0
TEXT
  5
1C4
330
17
100
AcDbEntity
  8
A-TEXT
100
AcDbText
 10
125500.0
 20
88675.00000000001
 30
0.0
 40
925.0
  1
21
  7
JP
 11
125500.0
 21
88675.00000000001
 31
0.0
100
AcDbText
  0
TEXT
  5
1C5
330
17
100
AcDbEntity
  8
A-TEXT
100
AcDbText
 10
131500.0
 20
88675.00000000001
 30
0.0
 40
925.0
  1
-36.99
  7
JP
 11
131500.0
 21
88675.00000000001
 31
0.0
100
AcDbText
  0
TEXT
  5
1C6
330
17
100
AcDbEntity
  8
A-TEXT
100
AcDbText
 10
146500.0
 20
88675.00000000001
 30
0.0
 40
925.0
  1
8.60
  7
JP
 11
146500.0
 21
88675.00000000001
 31
0.0
100
AcDbText
  0
TEXT
  5
1C7
330
17
100
AcDbEntity
  8
A-TEXT
100
AcDbText
 10
161500.0
 20
88675.00000000001
 30
0.0
 40
925.0
  1
-1557.49
  7
JP
 11
161500.0
 21
88675.00000000001
 31
0.0
100
AcDbText
  0
LWPOLYLINE
  5
1C8
330
17
100
AcDbEntity
  8
G-TABLE
370
18
100
AcDbPolyline
 90
2
 70
0
 10
125000.0
 20
87900.0
 10
185000.0
 20
87900.0
  0
TEXT
  5
1C9
330
17
100
AcDbEntity
  8
A-TEXT
100
AcDbText
 10
125500.0
 20
86375.00000000001
 30
0.0
 40
925.0
  1

  7
JP
 11
125500.0
 21
86375.00000000001
 31
0.0
100
AcDbText
  0
TEXT
  5
1CA
330
17
100
AcDbEntity
  8
A-TEXT
100
AcDbText
 10
131500.0
 20
86375.00000000001
 30
0.0
 40
925.0
  1

  7
JP
 11
131500.0
 21
86375.00000000001
 31
0.0
100
AcDbText
  0
TEXT
  5
1CB
330
17
100
AcDbEntity
  8
A-TEXT
100
AcDbText
 10
146500.0
 20
86375.00000000001
 30
0.0
 40
925.0
  1
倍面積
  7
JP
 11
146500.0
 21
86375.00000000001
 31
0.0
100
AcDbText
  0
TEXT
  5
1CC
330
17
100
AcDbEntity
  8
A-TEXT
100
AcDbText
 10
161500.0
 20
86375.00000000001
 30
0.0
 40
925.0
  1
6308.35
  7
JP
 11
161500.0
 21
86375.00000000001
 31
0.0
100
AcDbText
  0
LWPOLYLINE
  5
1CD
330
17
100
AcDbEntity
  8
G-TABLE
370
18
100
AcDbPolyline
 90
2
 70
0
 10
125000.0
 20
85600.00000000001
 10
185000.0
 20
85600.00000000001
  0
TEXT
  5
1CE
330
17
100
AcDbEntity
  8
A-TEXT
100
AcDbText
 10
125500.0
 20
84075.00000000001
 30
0.0
 40
925.0
  1

  7
JP
 11
125500.0
 21
84075.00000000001
 31
0.0
100
AcDbText
  0
TEXT
  5
1CF
330
17
100
AcDbEntity
  8
A-TEXT
100
AcDbText
 10
131500.0
 20
84075.00000000001
 30
0.0
 40
925.0
  1

  7
JP
 11
131500.0
 21
84075.00000000001
 31
0.0
100
AcDbText
  0
TEXT
  5
1D0
330
17
100
AcDbEntity
  8
A-TEXT
100
AcDbText
 10
146500.0
 20
84075.00000000001
 30
0.0
 40
925.0
  1
面積
  7
JP
 11
146500.0
 21
84075.00000000001
 31
0.0
100
AcDbText
  0
TEXT
  5
1D1
330
17
100
AcDbEntity
  8
A-TEXT
100
AcDbText
 10
161500.0
 20
84075.00000000001
 30
0.0
 40
925.0
  1
3154.17 m²
  7
JP
 11
161500.0
 21
84075.00000000001
 31
0.0
100
AcDbText
  0
LWPOLYLINE
  5
1D2
330
17
100
AcDbEntity
  8
G-TABLE
370
18
100
AcDbPolyline
 90
2
 70
0
 10
125000.0
 20
83300.00000000001
 10
185000.0
 20
83300.00000000001
  0
LWPOLYLINE
  5
1D3
330
17
100
AcDbEntity
  8
G-TABLE
100
AcDbPolyline
 90
2
 70
0
 10
125000.0
 20
138500.0
 10
125000.0
 20
83300.00000000001
  0
LWPOLYLINE
  5
1D4
330
17
100
AcDbEntity
  8
G-TABLE
100
AcDbPolyline
 90
2
 70
0
 10
131000.0
 20
138500.0
 10
131000.0
 20
83300.00000000001
  0
LWPOLYLINE
  5
1D5
330
17
100
AcDbEntity
  8
G-TABLE
100
AcDbPolyline
 90
2
 70
0
 10
146000.0
 20
138500.0
 10
146000.0
 20
83300.00000000001
  0
LWPOLYLINE
  5
1D6
330
17
100
AcDbEntity
  8
G-TABLE
100
AcDbPolyline
 90
2
 70
0
 10
161000.0
 20
138500.0
 10
161000.0
 20
83300.00000000001
  0
LWPOLYLINE
  5
1D7
330
17
100
AcDbEntity
  8
G-TABLE
100
AcDbPolyline
 90
2
 70
0
 10
185000.0
 20
138500.0
 10
185000.0
 20
83300.00000000001
  0
LWPOLYLINE
  5
1D8
330
17
100
AcDbEntity
  8
G-TABLE
370
35
100
AcDbPolyline
 90
2
 70
0
 10
125000.0
 20
75000.0
 10
185000.0
 20
75000.0
  0
TEXT
  5
1D9
330
17
100
AcDbEntity
  8
A-TEXT
100
AcDbText
 10
125500.0
 20
73350.00000000001
 30
0.0
 40
1050.0
  1
項目
  7
JP
 11
125500.0
 21
73350.00000000001
 31
0.0
100
AcDbText
  0
TEXT
  5
1DA
330
17
100
AcDbEntity
  8
A-TEXT
100
AcDbText
 10
145500.0
 20
73350.00000000001
 30
0.0
 40
1050.0
  1
面積・比率
  7
JP
 11
145500.0
 21
73350.00000000001
 31
0.0
100
AcDbText
  0
LWPOLYLINE
  5
1DB
330
17
100
AcDbEntity
  8
G-TABLE
370
35
100
AcDbPolyline
 90
2
 70
0
 10
125000.0
 20
72400.0
 10
185000.0
 20
72400.0
  0
TEXT
  5
1DC
330
17
100
AcDbEntity
  8
A-TEXT
100
AcDbText
 10
125500.0
 20
70750.00000000001
 30
0.0
 40
1050.0
  1
敷地面積（推定）
  7
JP
 11
125500.0
 21
70750.00000000001
 31
0.0
100
AcDbText
  0
TEXT
  5
1DD
330
17
100
AcDbEntity
  8
A-TEXT
100
AcDbText
 10
145500.0
 20
70750.00000000001
 30
0.0
 40
1050.0
  1
3,154.17 m²（954.1坪）
  7
JP
 11
145500.0
 21
70750.00000000001
 31
0.0
100
AcDbText
  0
LWPOLYLINE
  5
1DE
330
17
100
AcDbEntity
  8
G-TABLE
370
18
100
AcDbPolyline
 90
2
 70
0
 10
125000.0
 20
69800.00000000001
 10
185000.0
 20
69800.00000000001
  0
TEXT
  5
1DF
330
17
100
AcDbEntity
  8
A-TEXT
100
AcDbText
 10
125500.0
 20
68150.00000000001
 30
0.0
 40
1050.0
  1
建築面積（壁芯）
  7
JP
 11
125500.0
 21
68150.00000000001
 31
0.0
100
AcDbText
  0
TEXT
  5
1E0
330
17
100
AcDbEntity
  8
A-TEXT
100
AcDbText
 10
145500.0
 20
68150.00000000001
 30
0.0
 40
1050.0
  1
297.56 m²
  7
JP
 11
145500.0
 21
68150.00000000001
 31
0.0
100
AcDbText
  0
LWPOLYLINE
  5
1E1
330
17
100
AcDbEntity
  8
G-TABLE
370
18
100
AcDbPolyline
 90
2
 70
0
 10
125000.0
 20
67200.00000000001
 10
185000.0
 20
67200.00000000001
  0
TEXT
  5
1E2
330
17
100
AcDbEntity
  8
A-TEXT
100
AcDbText
 10
125500.0
 20
65550.00000000003
 30
0.0
 40
1050.0
  1
延べ面積
  7
JP
 11
125500.0
 21
65550.00000000003
 31
0.0
100
AcDbText
  0
TEXT
  5
1E3
330
17
100
AcDbEntity
  8
A-TEXT
100
AcDbText
 10
145500.0
 20
65550.00000000003
 30
0.0
 40
1050.0
  1
595.12 m²
  7
JP
 11
145500.0
 21
65550.00000000003
 31
0.0
100
AcDbText
  0
LWPOLYLINE
  5
1E4
330
17
100
AcDbEntity
  8
G-TABLE
370
18
100
AcDbPolyline
 90
2
 70
0
 10
125000.0
 20
64600.00000000002
 10
185000.0
 20
64600.00000000002
  0
TEXT
  5
1E5
330
17
100
AcDbEntity
  8
A-TEXT
100
AcDbText
 10
125500.0
 20
62950.00000000003
 30
0.0
 40
1050.0
  1
建ぺい率
  7
JP
 11
125500.0
 21
62950.00000000003
 31
0.0
100
AcDbText
  0
TEXT
  5
1E6
330
17
100
AcDbEntity
  8
A-TEXT
100
AcDbText
 10
145500.0
 20
62950.00000000003
 30
0.0
 40
1050.0
  1
9.43%（≦60%）
  7
JP
 11
145500.0
 21
62950.00000000003
 31
0.0
100
AcDbText
  0
LWPOLYLINE
  5
1E7
330
17
100
AcDbEntity
  8
G-TABLE
370
18
100
AcDbPolyline
 90
2
 70
0
 10
125000.0
 20
62000.00000000002
 10
185000.0
 20
62000.00000000002
  0
TEXT
  5
1E8
330
17
100
AcDbEntity
  8
A-TEXT
100
AcDbText
 10
125500.0
 20
60350.00000000002
 30
0.0
 40
1050.0
  1
容積率
  7
JP
 11
125500.0
 21
60350.00000000002
 31
0.0
100
AcDbText
  0
TEXT
  5
1E9
330
17
100
AcDbEntity
  8
A-TEXT
100
AcDbText
 10
145500.0
 20
60350.00000000002
 30
0.0
 40
1050.0
  1
18.87%（≦200%）
  7
JP
 11
145500.0
 21
60350.00000000002
 31
0.0
100
AcDbText
  0
LWPOLYLINE
  5
1EA
330
17
100
AcDbEntity
  8
G-TABLE
370
18
100
AcDbPolyline
 90
2
 70
0
 10
125000.0
 20
59400.00000000002
 10
185000.0
 20
59400.00000000002
  0
LWPOLYLINE
  5
1EB
330
17
100
AcDbEntity
  8
G-TABLE
100
AcDbPolyline
 90
2
 70
0
 10
125000.0
 20
75000.0
 10
125000.0
 20
59400.00000000002
  0
LWPOLYLINE
  5
1EC
330
17
100
AcDbEntity
  8
G-TABLE
100
AcDbPolyline
 90
2
 70
0
 10
145000.0
 20
75000.0
 10
145000.0
 20
59400.00000000002
  0
LWPOLYLINE
  5
1ED
330
17
100
AcDbEntity
  8
G-TABLE
100
AcDbPolyline
 90
2
 70
0
 10
185000.0
 20
75000.0
 10
185000.0
 20
59400.00000000002
  0
TEXT
  5
1EE
330
17
100
AcDbEntity
  8
A-TEXT
100
AcDbText
 10
125000.0
 20
57500.0
 30
0.0
 40
950.0
  1
※ 境界の番号15〜21は隣接建物からの推定（要測量）。誤差 ±5%程度。
  7
JP
 11
125000.0
 21
57500.0
 31
0.0
100
AcDbText
  0
ENDSEC
  0
SECTION
  2
OBJECTS
  0
DICTIONARY
  5
A
330
0
100
AcDbDictionary
281
1
  3
ACAD_COLOR
350
B
  3
ACAD_GROUP
350
C
  3
ACAD_LAYOUT
350
D
  3
ACAD_MATERIAL
350
E
  3
ACAD_MLEADERSTYLE
350
F
  3
ACAD_MLINESTYLE
350
10
  3
ACAD_PLOTSETTINGS
350
11
  3
ACAD_PLOTSTYLENAME
350
12
  3
ACAD_SCALELIST
350
14
  3
ACAD_TABLESTYLE
350
15
  3
ACAD_VISUALSTYLE
350
16
  3
EZDXF_META
350
2D
  0
DICTIONARY
  5
B
330
A
100
AcDbDictionary
281
1
  0
DICTIONARY
  5
C
330
A
100
AcDbDictionary
281
1
  0
DICTIONARY
  5
D
330
A
100
AcDbDictionary
281
1
  3
Model
350
1A
  3
Layout1
350
1E
  0
DICTIONARY
  5
E
330
A
100
AcDbDictionary
281
1
  3
ByBlock
350
1F
  3
ByLayer
350
20
  3
Global
350
21
  0
DICTIONARY
  5
F
330
A
100
AcDbDictionary
281
1
  3
Standard
350
2C
  0
DICTIONARY
  5
10
330
A
100
AcDbDictionary
281
1
  3
Standard
350
22
  0
DICTIONARY
  5
11
330
A
100
AcDbDictionary
281
1
  0
ACDBDICTIONARYWDFLT
  5
12
330
A
100
AcDbDictionary
281
1
  3
Normal
350
13
100
AcDbDictionaryWithDefault
340
13
  0
ACDBPLACEHOLDER
  5
13
330
12
  0
DICTIONARY
  5
14
330
A
100
AcDbDictionary
281
1
  0
DICTIONARY
  5
15
330
A
100
AcDbDictionary
281
1
  0
DICTIONARY
  5
16
330
A
100
AcDbDictionary
281
1
  3
2dWireframe
350
5A
  3
Basic
350
5B
  3
Brighten
350
5C
  3
ColorChange
350
5D
  3
Conceptual
350
5E
  3
Dim
350
5F
  3
EdgeColorOff
350
60
  3
Facepattern
350
61
  3
Flat
350
62
  3
FlatWithEdges
350
63
  3
Gouraud
350
64
  3
GouraudWithEdges
350
65
  3
Hidden
350
66
  3
JitterOff
350
67
  3
Linepattern
350
68
  3
Modeling
350
69
  3
OverhangOff
350
6A
  3
Realistic
350
6B
  3
Shaded
350
6C
  3
Shaded with edges
350
6D
  3
Shades of Gray
350
6E
  3
Sketchy
350
6F
  3
Thicken
350
70
  3
Wireframe
350
71
  3
X-Ray
350
72
  0
LAYOUT
  5
1A
330
D
100
AcDbPlotSettings
  1

  4
A3
  6

 40
7.5
 41
20.0
 42
7.5
 43
20.0
 44
420.0
 45
297.0
 46
0.0
 47
0.0
 48
0.0
 49
0.0
140
0.0
141
0.0
142
1.0
143
1.0
 70
1024
 72
1
 73
0
 74
5
  7

 75
16
 76
0
 77
2
 78
300
147
1.0
148
0.0
149
0.0
100
AcDbLayout
  1
Model
 70
1
 71
0
 10
0.0
 20
0.0
 11
420.0
 21
297.0
 12
0.0
 22
0.0
 32
0.0
 14
1e+20
 24
1e+20
 34
1e+20
 15
-1e+20
 25
-1e+20
 35
-1e+20
146
0.0
 13
0.0
 23
0.0
 33
0.0
 16
1.0
 26
0.0
 36
0.0
 17
0.0
 27
1.0
 37
0.0
 76
1
330
17
  0
LAYOUT
  5
1E
330
D
100
AcDbPlotSettings
  1

  4
A3
  6

 40
7.5
 41
20.0
 42
7.5
 43
20.0
 44
420.0
 45
297.0
 46
0.0
 47
0.0
 48
0.0
 49
0.0
140
0.0
141
0.0
142
1.0
143
1.0
 70
0
 72
1
 73
0
 74
5
  7

 75
16
 76
0
 77
2
 78
300
147
1.0
148
0.0
149
0.0
100
AcDbLayout
  1
Layout1
 70
1
 71
1
 10
0.0
 20
0.0
 11
420.0
 21
297.0
 12
0.0
 22
0.0
 32
0.0
 14
1e+20
 24
1e+20
 34
1e+20
 15
-1e+20
 25
-1e+20
 35
-1e+20
146
0.0
 13
0.0
 23
0.0
 33
0.0
 16
1.0
 26
0.0
 36
0.0
 17
0.0
 27
1.0
 37
0.0
 76
1
330
1B
  0
MATERIAL
  5
1F
102
{ACAD_REACTORS
330
E
102
}
330
E
100
AcDbMaterial
  1
ByBlock
  2

 70
0
 40
1.0
 71
1
 41
1.0
 91
-1023410177
 42
1.0
 72
1
  3

 73
1
 74
1
 75
1
 44
0.5
 73
0
 45
1.0
 46
1.0
 77
1
  4

 78
1
 79
1
170
1
 48
1.0
171
1
  6

172
1
173
1
174
1
140
1.0
141
1.0
175
1
  7

176
1
177
1
178
1
143
1.0
179
1
  8

270
1
271
1
272
1
145
1.0
146
1.0
273
1
  9

274
1
275
1
276
1
 42
1.0
 72
1
  3

 73
1
 74
1
 75
1
 94
63
  0
MATERIAL
  5
20
102
{ACAD_REACTORS
330
E
102
}
330
E
100
AcDbMaterial
  1
ByLayer
  2

 70
0
 40
1.0
 71
1
 41
1.0
 91
-1023410177
 42
1.0
 72
1
  3

 73
1
 74
1
 75
1
 44
0.5
 73
0
 45
1.0
 46
1.0
 77
1
  4

 78
1
 79
1
170
1
 48
1.0
171
1
  6

172
1
173
1
174
1
140
1.0
141
1.0
175
1
  7

176
1
177
1
178
1
143
1.0
179
1
  8

270
1
271
1
272
1
145
1.0
146
1.0
273
1
  9

274
1
275
1
276
1
 42
1.0
 72
1
  3

 73
1
 74
1
 75
1
 94
63
  0
MATERIAL
  5
21
102
{ACAD_REACTORS
330
E
102
}
330
E
100
AcDbMaterial
  1
Global
  2

 70
0
 40
1.0
 71
1
 41
1.0
 91
-1023410177
 42
1.0
 72
1
  3

 73
1
 74
1
 75
1
 44
0.5
 73
0
 45
1.0
 46
1.0
 77
1
  4

 78
1
 79
1
170
1
 48
1.0
171
1
  6

172
1
173
1
174
1
140
1.0
141
1.0
175
1
  7

176
1
177
1
178
1
143
1.0
179
1
  8

270
1
271
1
272
1
145
1.0
146
1.0
273
1
  9

274
1
275
1
276
1
 42
1.0
 72
1
  3

 73
1
 74
1
 75
1
 94
63
  0
MLINESTYLE
  5
22
102
{ACAD_REACTORS
330
10
102
}
330
10
100
AcDbMlineStyle
  2
Standard
 70
0
  3

 62
256
 51
90.0
 52
90.0
 71
2
 49
0.5
 62
256
  6
BYLAYER
 49
-0.5
 62
256
  6
BYLAYER
  0
MLEADERSTYLE
  5
2C
102
{ACAD_REACTORS
330
F
102
}
330
F
100
AcDbMLeaderStyle
179
2
170
2
171
1
172
0
 90
2
 40
0.0
 41
0.0
173
1
 91
-1056964608
 92
-2
290
1
 42
2.0
291
1
 43
8.0
  3
Standard
 44
4.0
300

342
29
174
1
175
1
176
0
178
1
 93
-1056964608
 45
4.0
292
0
297
0
 46
4.0
 94
-1056964608
 47
1.0
 49
1.0
140
1.0
294
1
141
0.0
177
0
142
1.0
295
0
296
0
143
3.75
271
0
272
9
273
9
  0
DICTIONARY
  5
2D
330
A
100
AcDbDictionary
280
1
281
1
  3
CREATED_BY_EZDXF
350
2E
  3
WRITTEN_BY_EZDXF
350
1F1
  0
DICTIONARYVAR
  5
2E
330
2D
100
DictionaryVariables
280
0
  1
1.4.4 @ 2026-10-03T03:04:46.549781+00:00
  0
VISUALSTYLE
  5
5A
102
{ACAD_REACTORS
330
16
102
}
330
16
100
AcDbVisualStyle
  2
2dWireframe
 70
4
177
3
291
0
 70
58
 90
2
176
1
 90
2
176
1
 90
0
176
1
 90
0
176
1
 40
0.6
176
1
 40
30.0
176
1
 62
7
420
16777215
176
1
 90
1
176
1
 90
4
176
1
 62
7
176
1
 62
257
176
1
 90
1
176
1
 90
1
176
1
 40
1.0
176
1
 90
8
176
1
 62
7
176
1
 40
1.0
176
1
 90
1
176
1
 90
6
176
1
 90
2
176
1
 62
7
176
1
 90
5
176
1
 90
0
176
1
 90
0
176
1
290
0
176
1
 90
1
176
1
 40
0.0
176
1
 90
0
176
1
290
1
176
1
290
1
176
1
290
0
176
1
290
0
176
1
290
0
176
1
290
0
176
1
290
0
176
1
290
0
176
1
290
0
176
1
 90
50
176
1
 40
0.0
176
1
 40
1.0
176
1
 90
0
176
1
 62
18
420
0
176
1
 90
50
176
1
 90
3
176
1
 62
5
420
255
176
1
290
0
176
1
 90
50
176
1
 90
50
176
1
 90
50
176
1
290
0
176
1
 90
50
176
1
 62
256
176
0
 40
1.0
176
0
 90
2
176
1
  1
strokes_ogs.tif
176
1
290
0
176
1
 40
1.0
176
1
 40
1.0
176
1
  0
VISUALSTYLE
  5
5B
102
{ACAD_REACTORS
330
16
102
}
330
16
100
AcDbVisualStyle
  2
Basic
 70
7
177
3
291
1
 70
58
 90
2
176
1
 90
2
176
1
 90
0
176
1
 90
1
176
1
 40
0.6
176
1
 40
30.0
176
1
 62
7
420
16777215
176
1
 90
1
176
1
 90
4
176
1
 62
7
176
1
 62
257
176
1
 90
1
176
1
 90
1
176
1
 40
1.0
176
1
 90
8
176
1
 62
7
176
1
 40
1.0
176
1
 90
1
176
1
 90
6
176
1
 90
2
176
1
 62
7
176
1
 90
5
176
1
 90
0
176
1
 90
0
176
1
290
0
176
1
 90
1
176
1
 40
0.0
176
1
 90
0
176
1
290
0
176
1
290
1
176
1
290
1
176
1
290
0
176
1
290
0
176
1
290
0
176
1
290
0
176
1
290
0
176
1
290
0
176
1
 90
50
176
1
 40
0.0
176
1
 40
1.0
176
1
 90
0
176
1
 62
18
420
0
176
1
 90
50
176
1
 90
3
176
1
 62
5
420
255
176
1
290
0
176
1
 90
50
176
1
 90
50
176
1
 90
50
176
1
290
0
176
1
 90
50
176
1
 62
256
176
0
 40
1.0
176
0
 90
2
176
1
  1
strokes_ogs.tif
176
1
290
0
176
1
 40
1.0
176
1
 40
1.0
176
1
  0
VISUALSTYLE
  5
5C
102
{ACAD_REACTORS
330
16
102
}
330
16
100
AcDbVisualStyle
  2
Brighten
 70
12
177
3
291
1
 70
58
 90
2
176
1
 90
2
176
1
 90
0
176
1
 90
2
176
1
 40
0.6
176
1
 40
30.0
176
1
 62
7
420
16777215
176
1
 90
1
176
1
 90
4
176
1
 62
7
176
1
 62
257
176
1
 90
1
176
1
 90
1
176
1
 40
1.0
176
1
 90
8
176
1
 62
7
176
1
 40
1.0
176
1
 90
1
176
1
 90
6
176
1
 90
2
176
1
 62
7
176
1
 90
5
176
1
 90
0
176
1
 90
0
176
1
290
0
176
1
 90
1
176
1
 40
0.0
176
1
 90
0
176
1
290
0
176
1
290
1
176
1
290
1
176
1
290
0
176
1
290
0
176
1
290
0
176
1
290
0
176
1
290
0
176
1
290
0
176
1
 90
50
176
1
 40
0.0
176
1
 40
1.0
176
1
 90
0
176
1
 62
18
420
0
176
1
 90
50
176
1
 90
3
176
1
 62
5
420
255
176
1
290
0
176
1
 90
50
176
1
 90
50
176
1
 90
50
176
1
290
0
176
1
 90
50
176
1
 62
256
176
0
 40
1.0
176
0
 90
2
176
1
  1
strokes_ogs.tif
176
1
290
0
176
1
 40
1.0
176
1
 40
1.0
176
1
  0
VISUALSTYLE
  5
5D
102
{ACAD_REACTORS
330
16
102
}
330
16
100
AcDbVisualStyle
  2
ColorChange
 70
16
177
3
291
1
 70
58
 90
2
176
1
 90
2
176
1
 90
0
176
1
 90
2
176
1
 40
0.6
176
1
 40
30.0
176
1
 62
7
420
16777215
176
1
 90
1
176
1
 90
4
176
1
 62
7
176
1
 62
257
176
1
 90
1
176
1
 90
1
176
1
 40
1.0
176
1
 90
8
176
1
 62
7
176
1
 40
1.0
176
1
 90
1
176
1
 90
6
176
1
 90
2
176
1
 62
7
176
1
 90
5
176
1
 90
0
176
1
 90
0
176
1
290
0
176
1
 90
1
176
1
 40
0.0
176
1
 90
0
176
1
290
0
176
1
290
1
176
1
290
1
176
1
290
0
176
1
290
0
176
1
290
0
176
1
290
0
176
1
290
0
176
1
290
0
176
1
 90
50
176
1
 40
0.0
176
1
 40
1.0
176
1
 90
0
176
1
 62
18
420
0
176
1
 90
50
176
1
 90
3
176
1
 62
5
420
255
176
1
290
0
176
1
 90
50
176
1
 90
50
176
1
 90
50
176
1
290
0
176
1
 90
50
176
1
 62
256
176
0
 40
1.0
176
0
 90
2
176
1
  1
strokes_ogs.tif
176
1
290
0
176
1
 40
1.0
176
1
 40
1.0
176
1
  0
VISUALSTYLE
  5
5E
102
{ACAD_REACTORS
330
16
102
}
330
16
100
AcDbVisualStyle
  2
Conceptual
 70
9
177
3
291
0
 70
58
 90
2
176
1
 90
2
176
1
 90
0
176
1
 90
3
176
1
 40
0.6
176
1
 40
30.0
176
1
 62
7
420
16777215
176
1
 90
1
176
1
 90
4
176
1
 62
7
176
1
 62
257
176
1
 90
1
176
1
 90
1
176
1
 40
1.0
176
1
 90
8
176
1
 62
7
176
1
 40
1.0
176
1
 90
1
176
1
 90
6
176
1
 90
2
176
1
 62
7
176
1
 90
5
176
1
 90
0
176
1
 90
0
176
1
290
0
176
1
 90
1
176
1
 40
0.0
176
1
 90
0
176
1
290
0
176
1
290
1
176
1
290
1
176
1
290
0
176
1
290
0
176
1
290
0
176
1
290
0
176
1
290
0
176
1
290
0
176
1
 90
50
176
1
 40
0.0
176
1
 40
1.0
176
1
 90
0
176
1
 62
18
420
0
176
1
 90
50
176
1
 90
3
176
1
 62
5
420
255
176
1
290
0
176
1
 90
50
176
1
 90
50
176
1
 90
50
176
1
290
0
176
1
 90
50
176
1
 62
256
176
0
 40
1.0
176
0
 90
2
176
1
  1
strokes_ogs.tif
176
1
290
0
176
1
 40
1.0
176
1
 40
1.0
176
1
  0
VISUALSTYLE
  5
5F
102
{ACAD_REACTORS
330
16
102
}
330
16
100
AcDbVisualStyle
  2
Dim
 70
11
177
3
291
1
 70
58
 90
2
176
1
 90
2
176
1
 90
0
176
1
 90
2
176
1
 40
0.6
176
1
 40
30.0
176
1
 62
7
420
16777215
176
1
 90
1
176
1
 90
4
176
1
 62
7
176
1
 62
257
176
1
 90
1
176
1
 90
1
176
1
 40
1.0
176
1
 90
8
176
1
 62
7
176
1
 40
1.0
176
1
 90
1
176
1
 90
6
176
1
 90
2
176
1
 62
7
176
1
 90
5
176
1
 90
0
176
1
 90
0
176
1
290
0
176
1
 90
1
176
1
 40
0.0
176
1
 90
0
176
1
290
0
176
1
290
1
176
1
290
1
176
1
290
0
176
1
290
0
176
1
290
0
176
1
290
0
176
1
290
0
176
1
290
0
176
1
 90
50
176
1
 40
0.0
176
1
 40
1.0
176
1
 90
0
176
1
 62
18
420
0
176
1
 90
50
176
1
 90
3
176
1
 62
5
420
255
176
1
290
0
176
1
 90
50
176
1
 90
50
176
1
 90
50
176
1
290
0
176
1
 90
50
176
1
 62
256
176
0
 40
1.0
176
0
 90
2
176
1
  1
strokes_ogs.tif
176
1
290
0
176
1
 40
1.0
176
1
 40
1.0
176
1
  0
VISUALSTYLE
  5
60
102
{ACAD_REACTORS
330
16
102
}
330
16
100
AcDbVisualStyle
  2
EdgeColorOff
 70
22
177
3
291
1
 70
58
 90
2
176
1
 90
2
176
1
 90
0
176
1
 90
2
176
1
 40
0.6
176
1
 40
30.0
176
1
 62
7
420
16777215
176
1
 90
1
176
1
 90
4
176
1
 62
7
176
1
 62
257
176
1
 90
1
176
1
 90
1
176
1
 40
1.0
176
1
 90
8
176
1
 62
7
176
1
 40
1.0
176
1
 90
1
176
1
 90
6
176
1
 90
2
176
1
 62
7
176
1
 90
5
176
1
 90
0
176
1
 90
0
176
1
290
0
176
1
 90
1
176
1
 40
0.0
176
1
 90
0
176
1
290
0
176
1
290
1
176
1
290
1
176
1
290
0
176
1
290
0
176
1
290
0
176
1
290
0
176
1
290
0
176
1
290
0
176
1
 90
50
176
1
 40
0.0
176
1
 40
1.0
176
1
 90
0
176
1
 62
18
420
0
176
1
 90
50
176
1
 90
3
176
1
 62
5
420
255
176
1
290
0
176
1
 90
50
176
1
 90
50
176
1
 90
50
176
1
290
0
176
1
 90
50
176
1
 62
256
176
0
 40
1.0
176
0
 90
2
176
1
  1
strokes_ogs.tif
176
1
290
0
176
1
 40
1.0
176
1
 40
1.0
176
1
  0
VISUALSTYLE
  5
61
102
{ACAD_REACTORS
330
16
102
}
330
16
100
AcDbVisualStyle
  2
Facepattern
 70
15
177
3
291
1
 70
58
 90
2
176
1
 90
2
176
1
 90
0
176
1
 90
2
176
1
 40
0.6
176
1
 40
30.0
176
1
 62
7
420
16777215
176
1
 90
1
176
1
 90
4
176
1
 62
7
176
1
 62
257
176
1
 90
1
176
1
 90
1
176
1
 40
1.0
176
1
 90
8
176
1
 62
7
176
1
 40
1.0
176
1
 90
1
176
1
 90
6
176
1
 90
2
176
1
 62
7
176
1
 90
5
176
1
 90
0
176
1
 90
0
176
1
290
0
176
1
 90
1
176
1
 40
0.0
176
1
 90
0
176
1
290
0
176
1
290
1
176
1
290
1
176
1
290
0
176
1
290
0
176
1
290
0
176
1
290
0
176
1
290
0
176
1
290
0
176
1
 90
50
176
1
 40
0.0
176
1
 40
1.0
176
1
 90
0
176
1
 62
18
420
0
176
1
 90
50
176
1
 90
3
176
1
 62
5
420
255
176
1
290
0
176
1
 90
50
176
1
 90
50
176
1
 90
50
176
1
290
0
176
1
 90
50
176
1
 62
256
176
0
 40
1.0
176
0
 90
2
176
1
  1
strokes_ogs.tif
176
1
290
0
176
1
 40
1.0
176
1
 40
1.0
176
1
  0
VISUALSTYLE
  5
62
102
{ACAD_REACTORS
330
16
102
}
330
16
100
AcDbVisualStyle
  2
Flat
 70
0
177
3
291
1
 70
58
 90
2
176
1
 90
2
176
1
 90
0
176
1
 90
2
176
1
 40
0.6
176
1
 40
30.0
176
1
 62
7
420
16777215
176
1
 90
1
176
1
 90
4
176
1
 62
7
176
1
 62
257
176
1
 90
1
176
1
 90
1
176
1
 40
1.0
176
1
 90
8
176
1
 62
7
176
1
 40
1.0
176
1
 90
1
176
1
 90
6
176
1
 90
2
176
1
 62
7
176
1
 90
5
176
1
 90
0
176
1
 90
0
176
1
290
0
176
1
 90
1
176
1
 40
0.0
176
1
 90
0
176
1
290
0
176
1
290
1
176
1
290
1
176
1
290
0
176
1
290
0
176
1
290
0
176
1
290
0
176
1
290
0
176
1
290
0
176
1
 90
50
176
1
 40
0.0
176
1
 40
1.0
176
1
 90
0
176
1
 62
18
420
0
176
1
 90
50
176
1
 90
3
176
1
 62
5
420
255
176
1
290
0
176
1
 90
50
176
1
 90
50
176
1
 90
50
176
1
290
0
176
1
 90
50
176
1
 62
256
176
0
 40
1.0
176
0
 90
2
176
1
  1
strokes_ogs.tif
176
1
290
0
176
1
 40
1.0
176
1
 40
1.0
176
1
  0
VISUALSTYLE
  5
63
102
{ACAD_REACTORS
330
16
102
}
330
16
100
AcDbVisualStyle
  2
FlatWithEdges
 70
1
177
3
291
1
 70
58
 90
2
176
1
 90
2
176
1
 90
0
176
1
 90
2
176
1
 40
0.6
176
1
 40
30.0
176
1
 62
7
420
16777215
176
1
 90
1
176
1
 90
4
176
1
 62
7
176
1
 62
257
176
1
 90
1
176
1
 90
1
176
1
 40
1.0
176
1
 90
8
176
1
 62
7
176
1
 40
1.0
176
1
 90
1
176
1
 90
6
176
1
 90
2
176
1
 62
7
176
1
 90
5
176
1
 90
0
176
1
 90
0
176
1
290
0
176
1
 90
1
176
1
 40
0.0
176
1
 90
0
176
1
290
0
176
1
290
1
176
1
290
1
176
1
290
0
176
1
290
0
176
1
290
0
176
1
290
0
176
1
290
0
176
1
290
0
176
1
 90
50
176
1
 40
0.0
176
1
 40
1.0
176
1
 90
0
176
1
 62
18
420
0
176
1
 90
50
176
1
 90
3
176
1
 62
5
420
255
176
1
290
0
176
1
 90
50
176
1
 90
50
176
1
 90
50
176
1
290
0
176
1
 90
50
176
1
 62
256
176
0
 40
1.0
176
0
 90
2
176
1
  1
strokes_ogs.tif
176
1
290
0
176
1
 40
1.0
176
1
 40
1.0
176
1
  0
VISUALSTYLE
  5
64
102
{ACAD_REACTORS
330
16
102
}
330
16
100
AcDbVisualStyle
  2
Gouraud
 70
2
177
3
291
1
 70
58
 90
2
176
1
 90
2
176
1
 90
0
176
1
 90
2
176
1
 40
0.6
176
1
 40
30.0
176
1
 62
7
420
16777215
176
1
 90
1
176
1
 90
4
176
1
 62
7
176
1
 62
257
176
1
 90
1
176
1
 90
1
176
1
 40
1.0
176
1
 90
8
176
1
 62
7
176
1
 40
1.0
176
1
 90
1
176
1
 90
6
176
1
 90
2
176
1
 62
7
176
1
 90
5
176
1
 90
0
176
1
 90
0
176
1
290
0
176
1
 90
1
176
1
 40
0.0
176
1
 90
0
176
1
290
0
176
1
290
1
176
1
290
1
176
1
290
0
176
1
290
0
176
1
290
0
176
1
290
0
176
1
290
0
176
1
290
0
176
1
 90
50
176
1
 40
0.0
176
1
 40
1.0
176
1
 90
0
176
1
 62
18
420
0
176
1
 90
50
176
1
 90
3
176
1
 62
5
420
255
176
1
290
0
176
1
 90
50
176
1
 90
50
176
1
 90
50
176
1
290
0
176
1
 90
50
176
1
 62
256
176
0
 40
1.0
176
0
 90
2
176
1
  1
strokes_ogs.tif
176
1
290
0
176
1
 40
1.0
176
1
 40
1.0
176
1
  0
VISUALSTYLE
  5
65
102
{ACAD_REACTORS
330
16
102
}
330
16
100
AcDbVisualStyle
  2
GouraudWithEdges
 70
3
177
3
291
1
 70
58
 90
2
176
1
 90
2
176
1
 90
0
176
1
 90
2
176
1
 40
0.6
176
1
 40
30.0
176
1
 62
7
420
16777215
176
1
 90
1
176
1
 90
4
176
1
 62
7
176
1
 62
257
176
1
 90
1
176
1
 90
1
176
1
 40
1.0
176
1
 90
8
176
1
 62
7
176
1
 40
1.0
176
1
 90
1
176
1
 90
6
176
1
 90
2
176
1
 62
7
176
1
 90
5
176
1
 90
0
176
1
 90
0
176
1
290
0
176
1
 90
1
176
1
 40
0.0
176
1
 90
0
176
1
290
0
176
1
290
1
176
1
290
1
176
1
290
0
176
1
290
0
176
1
290
0
176
1
290
0
176
1
290
0
176
1
290
0
176
1
 90
50
176
1
 40
0.0
176
1
 40
1.0
176
1
 90
0
176
1
 62
18
420
0
176
1
 90
50
176
1
 90
3
176
1
 62
5
420
255
176
1
290
0
176
1
 90
50
176
1
 90
50
176
1
 90
50
176
1
290
0
176
1
 90
50
176
1
 62
256
176
0
 40
1.0
176
0
 90
2
176
1
  1
strokes_ogs.tif
176
1
290
0
176
1
 40
1.0
176
1
 40
1.0
176
1
  0
VISUALSTYLE
  5
66
102
{ACAD_REACTORS
330
16
102
}
330
16
100
AcDbVisualStyle
  2
Hidden
 70
6
177
3
291
0
 70
58
 90
2
176
1
 90
2
176
1
 90
0
176
1
 90
1
176
1
 40
0.6
176
1
 40
30.0
176
1
 62
7
420
16777215
176
1
 90
1
176
1
 90
4
176
1
 62
7
176
1
 62
257
176
1
 90
1
176
1
 90
1
176
1
 40
1.0
176
1
 90
8
176
1
 62
7
176
1
 40
1.0
176
1
 90
1
176
1
 90
6
176
1
 90
2
176
1
 62
7
176
1
 90
5
176
1
 90
0
176
1
 90
0
176
1
290
0
176
1
 90
1
176
1
 40
0.0
176
1
 90
0
176
1
290
0
176
1
290
1
176
1
290
1
176
1
290
0
176
1
290
0
176
1
290
0
176
1
290
0
176
1
290
0
176
1
290
0
176
1
 90
50
176
1
 40
0.0
176
1
 40
1.0
176
1
 90
0
176
1
 62
18
420
0
176
1
 90
50
176
1
 90
3
176
1
 62
5
420
255
176
1
290
0
176
1
 90
50
176
1
 90
50
176
1
 90
50
176
1
290
0
176
1
 90
50
176
1
 62
256
176
0
 40
1.0
176
0
 90
2
176
1
  1
strokes_ogs.tif
176
1
290
0
176
1
 40
1.0
176
1
 40
1.0
176
1
  0
VISUALSTYLE
  5
67
102
{ACAD_REACTORS
330
16
102
}
330
16
100
AcDbVisualStyle
  2
JitterOff
 70
20
177
3
291
1
 70
58
 90
2
176
1
 90
2
176
1
 90
0
176
1
 90
2
176
1
 40
0.6
176
1
 40
30.0
176
1
 62
7
420
16777215
176
1
 90
1
176
1
 90
4
176
1
 62
7
176
1
 62
257
176
1
 90
1
176
1
 90
1
176
1
 40
1.0
176
1
 90
8
176
1
 62
7
176
1
 40
1.0
176
1
 90
1
176
1
 90
6
176
1
 90
2
176
1
 62
7
176
1
 90
5
176
1
 90
0
176
1
 90
0
176
1
290
0
176
1
 90
1
176
1
 40
0.0
176
1
 90
0
176
1
290
0
176
1
290
1
176
1
290
1
176
1
290
0
176
1
290
0
176
1
290
0
176
1
290
0
176
1
290
0
176
1
290
0
176
1
 90
50
176
1
 40
0.0
176
1
 40
1.0
176
1
 90
0
176
1
 62
18
420
0
176
1
 90
50
176
1
 90
3
176
1
 62
5
420
255
176
1
290
0
176
1
 90
50
176
1
 90
50
176
1
 90
50
176
1
290
0
176
1
 90
50
176
1
 62
256
176
0
 40
1.0
176
0
 90
2
176
1
  1
strokes_ogs.tif
176
1
290
0
176
1
 40
1.0
176
1
 40
1.0
176
1
  0
VISUALSTYLE
  5
68
102
{ACAD_REACTORS
330
16
102
}
330
16
100
AcDbVisualStyle
  2
Linepattern
 70
14
177
3
291
1
 70
58
 90
2
176
1
 90
2
176
1
 90
0
176
1
 90
2
176
1
 40
0.6
176
1
 40
30.0
176
1
 62
7
420
16777215
176
1
 90
1
176
1
 90
4
176
1
 62
7
176
1
 62
257
176
1
 90
1
176
1
 90
1
176
1
 40
1.0
176
1
 90
8
176
1
 62
7
176
1
 40
1.0
176
1
 90
1
176
1
 90
6
176
1
 90
2
176
1
 62
7
176
1
 90
5
176
1
 90
0
176
1
 90
0
176
1
290
0
176
1
 90
1
176
1
 40
0.0
176
1
 90
0
176
1
290
0
176
1
290
1
176
1
290
1
176
1
290
0
176
1
290
0
176
1
290
0
176
1
290
0
176
1
290
0
176
1
290
0
176
1
 90
50
176
1
 40
0.0
176
1
 40
1.0
176
1
 90
0
176
1
 62
18
420
0
176
1
 90
50
176
1
 90
3
176
1
 62
5
420
255
176
1
290
0
176
1
 90
50
176
1
 90
50
176
1
 90
50
176
1
290
0
176
1
 90
50
176
1
 62
256
176
0
 40
1.0
176
0
 90
2
176
1
  1
strokes_ogs.tif
176
1
290
0
176
1
 40
1.0
176
1
 40
1.0
176
1
  0
VISUALSTYLE
  5
69
102
{ACAD_REACTORS
330
16
102
}
330
16
100
AcDbVisualStyle
  2
Modeling
 70
10
177
3
291
0
 70
58
 90
2
176
1
 90
2
176
1
 90
0
176
1
 90
2
176
1
 40
0.6
176
1
 40
30.0
176
1
 62
7
420
16777215
176
1
 90
1
176
1
 90
4
176
1
 62
7
176
1
 62
257
176
1
 90
1
176
1
 90
1
176
1
 40
1.0
176
1
 90
8
176
1
 62
7
176
1
 40
1.0
176
1
 90
1
176
1
 90
6
176
1
 90
2
176
1
 62
7
176
1
 90
5
176
1
 90
0
176
1
 90
0
176
1
290
0
176
1
 90
1
176
1
 40
0.0
176
1
 90
0
176
1
290
0
176
1
290
1
176
1
290
1
176
1
290
0
176
1
290
0
176
1
290
0
176
1
290
0
176
1
290
0
176
1
290
0
176
1
 90
50
176
1
 40
0.0
176
1
 40
1.0
176
1
 90
0
176
1
 62
18
420
0
176
1
 90
50
176
1
 90
3
176
1
 62
5
420
255
176
1
290
0
176
1
 90
50
176
1
 90
50
176
1
 90
50
176
1
290
0
176
1
 90
50
176
1
 62
256
176
0
 40
1.0
176
0
 90
2
176
1
  1
strokes_ogs.tif
176
1
290
0
176
1
 40
1.0
176
1
 40
1.0
176
1
  0
VISUALSTYLE
  5
6A
102
{ACAD_REACTORS
330
16
102
}
330
16
100
AcDbVisualStyle
  2
OverhangOff
 70
21
177
3
291
1
 70
58
 90
2
176
1
 90
2
176
1
 90
0
176
1
 90
2
176
1
 40
0.6
176
1
 40
30.0
176
1
 62
7
420
16777215
176
1
 90
1
176
1
 90
4
176
1
 62
7
176
1
 62
257
176
1
 90
1
176
1
 90
1
176
1
 40
1.0
176
1
 90
8
176
1
 62
7
176
1
 40
1.0
176
1
 90
1
176
1
 90
6
176
1
 90
2
176
1
 62
7
176
1
 90
5
176
1
 90
0
176
1
 90
0
176
1
290
0
176
1
 90
1
176
1
 40
0.0
176
1
 90
0
176
1
290
0
176
1
290
1
176
1
290
1
176
1
290
0
176
1
290
0
176
1
290
0
176
1
290
0
176
1
290
0
176
1
290
0
176
1
 90
50
176
1
 40
0.0
176
1
 40
1.0
176
1
 90
0
176
1
 62
18
420
0
176
1
 90
50
176
1
 90
3
176
1
 62
5
420
255
176
1
290
0
176
1
 90
50
176
1
 90
50
176
1
 90
50
176
1
290
0
176
1
 90
50
176
1
 62
256
176
0
 40
1.0
176
0
 90
2
176
1
  1
strokes_ogs.tif
176
1
290
0
176
1
 40
1.0
176
1
 40
1.0
176
1
  0
VISUALSTYLE
  5
6B
102
{ACAD_REACTORS
330
16
102
}
330
16
100
AcDbVisualStyle
  2
Realistic
 70
8
177
3
291
0
 70
58
 90
2
176
1
 90
2
176
1
 90
0
176
1
 90
2
176
1
 40
0.6
176
1
 40
30.0
176
1
 62
7
420
16777215
176
1
 90
1
176
1
 90
4
176
1
 62
7
176
1
 62
257
176
1
 90
1
176
1
 90
1
176
1
 40
1.0
176
1
 90
8
176
1
 62
7
176
1
 40
1.0
176
1
 90
1
176
1
 90
6
176
1
 90
2
176
1
 62
7
176
1
 90
5
176
1
 90
0
176
1
 90
0
176
1
290
0
176
1
 90
1
176
1
 40
0.0
176
1
 90
0
176
1
290
0
176
1
290
1
176
1
290
1
176
1
290
0
176
1
290
0
176
1
290
0
176
1
290
0
176
1
290
0
176
1
290
0
176
1
 90
50
176
1
 40
0.0
176
1
 40
1.0
176
1
 90
0
176
1
 62
18
420
0
176
1
 90
50
176
1
 90
3
176
1
 62
5
420
255
176
1
290
0
176
1
 90
50
176
1
 90
50
176
1
 90
50
176
1
290
0
176
1
 90
50
176
1
 62
256
176
0
 40
1.0
176
0
 90
2
176
1
  1
strokes_ogs.tif
176
1
290
0
176
1
 40
1.0
176
1
 40
1.0
176
1
  0
VISUALSTYLE
  5
6C
102
{ACAD_REACTORS
330
16
102
}
330
16
100
AcDbVisualStyle
  2
Shaded
 70
27
177
3
291
0
 70
58
 90
2
176
1
 90
2
176
1
 90
0
176
1
 90
2
176
1
 40
0.6
176
1
 40
30.0
176
1
 62
7
420
16777215
176
1
 90
1
176
1
 90
4
176
1
 62
7
176
1
 62
257
176
1
 90
1
176
1
 90
1
176
1
 40
1.0
176
1
 90
8
176
1
 62
7
176
1
 40
1.0
176
1
 90
1
176
1
 90
6
176
1
 90
2
176
1
 62
7
176
1
 90
5
176
1
 90
0
176
1
 90
0
176
1
290
0
176
1
 90
1
176
1
 40
0.0
176
1
 90
0
176
1
290
0
176
1
290
1
176
1
290
1
176
1
290
0
176
1
290
0
176
1
290
0
176
1
290
0
176
1
290
0
176
1
290
0
176
1
 90
50
176
1
 40
0.0
176
1
 40
1.0
176
1
 90
0
176
1
 62
18
420
0
176
1
 90
50
176
1
 90
3
176
1
 62
5
420
255
176
1
290
0
176
1
 90
50
176
1
 90
50
176
1
 90
50
176
1
290
0
176
1
 90
50
176
1
 62
256
176
0
 40
1.0
176
0
 90
2
176
1
  1
strokes_ogs.tif
176
1
290
0
176
1
 40
1.0
176
1
 40
1.0
176
1
  0
VISUALSTYLE
  5
6D
102
{ACAD_REACTORS
330
16
102
}
330
16
100
AcDbVisualStyle
  2
Shaded with edges
 70
26
177
3
291
0
 70
58
 90
2
176
1
 90
2
176
1
 90
0
176
1
 90
2
176
1
 40
0.6
176
1
 40
30.0
176
1
 62
7
420
16777215
176
1
 90
1
176
1
 90
4
176
1
 62
7
176
1
 62
257
176
1
 90
1
176
1
 90
1
176
1
 40
1.0
176
1
 90
8
176
1
 62
7
176
1
 40
1.0
176
1
 90
1
176
1
 90
6
176
1
 90
2
176
1
 62
7
176
1
 90
5
176
1
 90
0
176
1
 90
0
176
1
290
0
176
1
 90
1
176
1
 40
0.0
176
1
 90
0
176
1
290
0
176
1
290
1
176
1
290
1
176
1
290
0
176
1
290
0
176
1
290
0
176
1
290
0
176
1
290
0
176
1
290
0
176
1
 90
50
176
1
 40
0.0
176
1
 40
1.0
176
1
 90
0
176
1
 62
18
420
0
176
1
 90
50
176
1
 90
3
176
1
 62
5
420
255
176
1
290
0
176
1
 90
50
176
1
 90
50
176
1
 90
50
176
1
290
0
176
1
 90
50
176
1
 62
256
176
0
 40
1.0
176
0
 90
2
176
1
  1
strokes_ogs.tif
176
1
290
0
176
1
 40
1.0
176
1
 40
1.0
176
1
  0
VISUALSTYLE
  5
6E
102
{ACAD_REACTORS
330
16
102
}
330
16
100
AcDbVisualStyle
  2
Shades of Gray
 70
23
177
3
291
0
 70
58
 90
2
176
1
 90
2
176
1
 90
0
176
1
 90
2
176
1
 40
0.6
176
1
 40
30.0
176
1
 62
7
420
16777215
176
1
 90
1
176
1
 90
4
176
1
 62
7
176
1
 62
257
176
1
 90
1
176
1
 90
1
176
1
 40
1.0
176
1
 90
8
176
1
 62
7
176
1
 40
1.0
176
1
 90
1
176
1
 90
6
176
1
 90
2
176
1
 62
7
176
1
 90
5
176
1
 90
0
176
1
 90
0
176
1
290
0
176
1
 90
1
176
1
 40
0.0
176
1
 90
0
176
1
290
0
176
1
290
1
176
1
290
1
176
1
290
0
176
1
290
0
176
1
290
0
176
1
290
0
176
1
290
0
176
1
290
0
176
1
 90
50
176
1
 40
0.0
176
1
 40
1.0
176
1
 90
0
176
1
 62
18
420
0
176
1
 90
50
176
1
 90
3
176
1
 62
5
420
255
176
1
290
0
176
1
 90
50
176
1
 90
50
176
1
 90
50
176
1
290
0
176
1
 90
50
176
1
 62
256
176
0
 40
1.0
176
0
 90
2
176
1
  1
strokes_ogs.tif
176
1
290
0
176
1
 40
1.0
176
1
 40
1.0
176
1
  0
VISUALSTYLE
  5
6F
102
{ACAD_REACTORS
330
16
102
}
330
16
100
AcDbVisualStyle
  2
Sketchy
 70
24
177
3
291
0
 70
58
 90
2
176
1
 90
2
176
1
 90
0
176
1
 90
1
176
1
 40
0.6
176
1
 40
30.0
176
1
 62
7
420
16777215
176
1
 90
1
176
1
 90
4
176
1
 62
7
176
1
 62
257
176
1
 90
1
176
1
 90
1
176
1
 40
1.0
176
1
 90
8
176
1
 62
7
176
1
 40
1.0
176
1
 90
1
176
1
 90
6
176
1
 90
2
176
1
 62
7
176
1
 90
5
176
1
 90
0
176
1
 90
0
176
1
290
0
176
1
 90
1
176
1
 40
0.0
176
1
 90
0
176
1
290
0
176
1
290
1
176
1
290
1
176
1
290
0
176
1
290
0
176
1
290
0
176
1
290
0
176
1
290
0
176
1
290
0
176
1
 90
50
176
1
 40
0.0
176
1
 40
1.0
176
1
 90
0
176
1
 62
18
420
0
176
1
 90
50
176
1
 90
3
176
1
 62
5
420
255
176
1
290
0
176
1
 90
50
176
1
 90
50
176
1
 90
50
176
1
290
0
176
1
 90
50
176
1
 62
256
176
0
 40
1.0
176
0
 90
2
176
1
  1
strokes_ogs.tif
176
1
290
0
176
1
 40
1.0
176
1
 40
1.0
176
1
  0
VISUALSTYLE
  5
70
102
{ACAD_REACTORS
330
16
102
}
330
16
100
AcDbVisualStyle
  2
Thicken
 70
13
177
3
291
1
 70
58
 90
2
176
1
 90
2
176
1
 90
0
176
1
 90
2
176
1
 40
0.6
176
1
 40
30.0
176
1
 62
7
420
16777215
176
1
 90
1
176
1
 90
4
176
1
 62
7
176
1
 62
257
176
1
 90
1
176
1
 90
1
176
1
 40
1.0
176
1
 90
8
176
1
 62
7
176
1
 40
1.0
176
1
 90
1
176
1
 90
6
176
1
 90
2
176
1
 62
7
176
1
 90
5
176
1
 90
0
176
1
 90
0
176
1
290
0
176
1
 90
1
176
1
 40
0.0
176
1
 90
0
176
1
290
0
176
1
290
1
176
1
290
1
176
1
290
0
176
1
290
0
176
1
290
0
176
1
290
0
176
1
290
0
176
1
290
0
176
1
 90
50
176
1
 40
0.0
176
1
 40
1.0
176
1
 90
0
176
1
 62
18
420
0
176
1
 90
50
176
1
 90
3
176
1
 62
5
420
255
176
1
290
0
176
1
 90
50
176
1
 90
50
176
1
 90
50
176
1
290
0
176
1
 90
50
176
1
 62
256
176
0
 40
1.0
176
0
 90
2
176
1
  1
strokes_ogs.tif
176
1
290
0
176
1
 40
1.0
176
1
 40
1.0
176
1
  0
VISUALSTYLE
  5
71
102
{ACAD_REACTORS
330
16
102
}
330
16
100
AcDbVisualStyle
  2
Wireframe
 70
5
177
3
291
0
 70
58
 90
2
176
1
 90
2
176
1
 90
0
176
1
 90
0
176
1
 40
0.6
176
1
 40
30.0
176
1
 62
7
420
16777215
176
1
 90
1
176
1
 90
4
176
1
 62
7
176
1
 62
257
176
1
 90
1
176
1
 90
1
176
1
 40
1.0
176
1
 90
8
176
1
 62
7
176
1
 40
1.0
176
1
 90
1
176
1
 90
6
176
1
 90
2
176
1
 62
7
176
1
 90
5
176
1
 90
0
176
1
 90
0
176
1
290
0
176
1
 90
1
176
1
 40
0.0
176
1
 90
0
176
1
290
0
176
1
290
1
176
1
290
1
176
1
290
0
176
1
290
0
176
1
290
0
176
1
290
0
176
1
290
0
176
1
290
0
176
1
 90
50
176
1
 40
0.0
176
1
 40
1.0
176
1
 90
0
176
1
 62
18
420
0
176
1
 90
50
176
1
 90
3
176
1
 62
5
420
255
176
1
290
0
176
1
 90
50
176
1
 90
50
176
1
 90
50
176
1
290
0
176
1
 90
50
176
1
 62
256
176
0
 40
1.0
176
0
 90
2
176
1
  1
strokes_ogs.tif
176
1
290
0
176
1
 40
1.0
176
1
 40
1.0
176
1
  0
VISUALSTYLE
  5
72
102
{ACAD_REACTORS
330
16
102
}
330
16
100
AcDbVisualStyle
  2
X-Ray
 70
25
177
3
291
0
 70
58
 90
2
176
1
 90
2
176
1
 90
0
176
1
 90
2
176
1
 40
0.5
176
1
 40
30.0
176
1
 62
7
420
16777215
176
1
 90
1
176
1
 90
4
176
1
 62
7
176
1
 62
257
176
1
 90
1
176
1
 90
1
176
1
 40
1.0
176
1
 90
8
176
1
 62
7
176
1
 40
1.0
176
1
 90
1
176
1
 90
6
176
1
 90
2
176
1
 62
7
176
1
 90
5
176
1
 90
0
176
1
 90
0
176
1
290
0
176
1
 90
1
176
1
 40
0.0
176
1
 90
0
176
1
290
0
176
1
290
1
176
1
290
1
176
1
290
0
176
1
290
0
176
1
290
0
176
1
290
0
176
1
290
0
176
1
290
0
176
1
 90
50
176
1
 40
0.0
176
1
 40
1.0
176
1
 90
0
176
1
 62
18
420
0
176
1
 90
50
176
1
 90
3
176
1
 62
5
420
255
176
1
290
0
176
1
 90
50
176
1
 90
50
176
1
 90
50
176
1
290
0
176
1
 90
50
176
1
 62
256
176
0
 40
1.0
176
0
 90
2
176
1
  1
strokes_ogs.tif
176
1
290
0
176
1
 40
1.0
176
1
 40
1.0
176
1
  0
DICTIONARYVAR
  5
1F1
330
2D
100
DictionaryVariables
280
0
  1
1.4.4 @ 2026-10-03T03:04:47.813749+00:00
  0
ENDSEC
  0
EOF
