  0
SECTION
  2
HEADER
  9
$ACADVER
  1
AC1032
  9
$ACADMAINTVER
 90
4
  9
$DWGCODEPAGE
  3
ANSI_1252
  9
$LASTSAVEDBY
  1
ezdxf
  9
$REQUIREDVERSIONS
160
0
  9
$INSBASE
 10
0.0
 20
0.0
 30
0.0
  9
$EXTMIN
 10
1e+20
 20
1e+20
 30
1e+20
  9
$EXTMAX
 10
-1e+20
 20
-1e+20
 30
-1e+20
  9
$LIMMIN
 10
0.0
 20
0.0
  9
$LIMMAX
 10
420.0
 20
297.0
  9
$ORTHOMODE
 70
0
  9
$REGENMODE
 70
1
  9
$FILLMODE
 70
1
  9
$QTEXTMODE
 70
0
  9
$MIRRTEXT
 70
1
  9
$LTSCALE
 40
250.0
  9
$ATTMODE
 70
1
  9
$TEXTSIZE
 40
2.5
  9
$TRACEWID
 40
1.0
  9
$TEXTSTYLE
  7
OpenSans
  9
$CLAYER
  8
0
  9
$CELTYPE
  6
ByLayer
  9
$CECOLOR
 62
256
  9
$CELTSCALE
 40
1.0
  9
$DISPSILH
 70
0
  9
$DIMSCALE
 40
1.0
  9
$DIMASZ
 40
0.175
  9
$DIMEXO
 40
0.125
  9
$DIMDLI
 40
3.75
  9
$DIMRND
 40
0.0
  9
$DIMDLE
 40
0.0
  9
$DIMEXE
 40
0.375
  9
$DIMTP
 40
0.0
  9
$DIMTM
 40
0.0
  9
$DIMTXT
 40
0.25
  9
$DIMCEN
 40
2.5
  9
$DIMTSZ
 40
0.0
  9
$DIMTOL
 70
0
  9
$DIMLIM
 70
0
  9
$DIMTIH
 70
0
  9
$DIMTOH
 70
0
  9
$DIMSE1
 70
0
  9
$DIMSE2
 70
0
  9
$DIMTAD
 70
1
  9
$DIMZIN
 70
12
  9
$DIMBLK
  1
ARCHTICK
  9
$DIMASO
 70
1
  9
$DIMSHO
 70
1
  9
$DIMPOST
  1

  9
$DIMAPOST
  1

  9
$DIMALT
 70
0
  9
$DIMALTD
 70
3
  9
$DIMALTF
 40
0.03937007874
  9
$DIMLFAC
 40
100.0
  9
$DIMTOFL
 70
1
  9
$DIMTVP
 40
0.0
  9
$DIMTIX
 70
0
  9
$DIMSOXD
 70
0
  9
$DIMSAH
 70
0
  9
$DIMBLK1
  1

  9
$DIMBLK2
  1

  9
$DIMSTYLE
  2
EZDXF
  9
$DIMCLRD
 70
0
  9
$DIMCLRE
 70
0
  9
$DIMCLRT
 70
0
  9
$DIMTFAC
 40
0.5
  9
$DIMGAP
 40
0.1
  9
$DIMJUST
 70
0
  9
$DIMSD1
 70
0
  9
$DIMSD2
 70
0
  9
$DIMTOLJ
 70
0
  9
$DIMTZIN
 70
8
  9
$DIMALTZ
 70
0
  9
$DIMALTTZ
 70
0
  9
$DIMUPT
 70
1
  9
$DIMDEC
 70
2
  9
$DIMTDEC
 70
2
  9
$DIMALTU
 70
2
  9
$DIMALTTD
 70
3
  9
$DIMTXSTY
  7
OpenSansCondensed-Light
  9
$DIMAUNIT
 70
0
  9
$DIMADEC
 70
2
  9
$DIMALTRND
 40
0.0
  9
$DIMAZIN
 70
3
  9
$DIMDSEP
 70
46
  9
$DIMATFIT
 70
3
  9
$DIMFRAC
 70
0
  9
$DIMLDRBLK
  1

  9
$DIMLUNIT
 70
2
  9
$DIMLWD
 70
-2
  9
$DIMLWE
 70
-2
  9
$DIMTMOVE
 70
2
  9
$DIMFXL
 40
1.0
  9
$DIMFXLON
 70
0
  9
$DIMJOGANG
 40
0.785398163397
  9
$DIMTFILL
 70
0
  9
$DIMTFILLCLR
 70
0
  9
$DIMARCSYM
 70
0
  9
$DIMLTYPE
  6

  9
$DIMLTEX1
  6

  9
$DIMLTEX2
  6

  9
$DIMTXTDIRECTION
 70
0
  9
$LUNITS
 70
2
  9
$LUPREC
 70
4
  9
$SKETCHINC
 40
1.0
  9
$FILLETRAD
 40
10.0
  9
$AUNITS
 70
0
  9
$AUPREC
 70
2
  9
$MENU
  1
.
  9
$ELEVATION
 40
0.0
  9
$PELEVATION
 40
0.0
  9
$THICKNESS
 40
0.0
  9
$LIMCHECK
 70
0
  9
$CHAMFERA
 40
0.0
  9
$CHAMFERB
 40
0.0
  9
$CHAMFERC
 40
0.0
  9
$CHAMFERD
 40
0.0
  9
$SKPOLY
 70
0
  9
$TDCREATE
 40
2461318.5191666665
  9
$TDUCREATE
 40
2458532.153996898
  9
$TDUPDATE
 40
2461318.5191782406
  9
$TDUUPDATE
 40
2458532.1544311
  9
$TDINDWG
 40
0.0
  9
$TDUSRTIMER
 40
0.0
  9
$USRTIMER
 70
1
  9
$ANGBASE
 50
0.0
  9
$ANGDIR
 70
0
  9
$PDMODE
 70
0
  9
$PDSIZE
 40
0.0
  9
$PLINEWID
 40
0.0
  9
$SPLFRAME
 70
0
  9
$SPLINETYPE
 70
6
  9
$SPLINESEGS
 70
8
  9
$HANDSEED
  5
1D2
  9
$SURFTAB1
 70
6
  9
$SURFTAB2
 70
6
  9
$SURFTYPE
 70
6
  9
$SURFU
 70
6
  9
$SURFV
 70
6
  9
$UCSBASE
  2

  9
$UCSNAME
  2

  9
$UCSORG
 10
0.0
 20
0.0
 30
0.0
  9
$UCSXDIR
 10
1.0
 20
0.0
 30
0.0
  9
$UCSYDIR
 10
0.0
 20
1.0
 30
0.0
  9
$UCSORTHOREF
  2

  9
$UCSORTHOVIEW
 70
0
  9
$UCSORGTOP
 10
0.0
 20
0.0
 30
0.0
  9
$UCSORGBOTTOM
 10
0.0
 20
0.0
 30
0.0
  9
$UCSORGLEFT
 10
0.0
 20
0.0
 30
0.0
  9
$UCSORGRIGHT
 10
0.0
 20
0.0
 30
0.0
  9
$UCSORGFRONT
 10
0.0
 20
0.0
 30
0.0
  9
$UCSORGBACK
 10
0.0
 20
0.0
 30
0.0
  9
$PUCSBASE
  2

  9
$PUCSNAME
  2

  9
$PUCSORG
 10
0.0
 20
0.0
 30
0.0
  9
$PUCSXDIR
 10
1.0
 20
0.0
 30
0.0
  9
$PUCSYDIR
 10
0.0
 20
1.0
 30
0.0
  9
$PUCSORTHOREF
  2

  9
$PUCSORTHOVIEW
 70
0
  9
$PUCSORGTOP
 10
0.0
 20
0.0
 30
0.0
  9
$PUCSORGBOTTOM
 10
0.0
 20
0.0
 30
0.0
  9
$PUCSORGLEFT
 10
0.0
 20
0.0
 30
0.0
  9
$PUCSORGRIGHT
 10
0.0
 20
0.0
 30
0.0
  9
$PUCSORGFRONT
 10
0.0
 20
0.0
 30
0.0
  9
$PUCSORGBACK
 10
0.0
 20
0.0
 30
0.0
  9
$USERI1
 70
0
  9
$USERI2
 70
0
  9
$USERI3
 70
0
  9
$USERI4
 70
0
  9
$USERI5
 70
0
  9
$USERR1
 40
0.0
  9
$USERR2
 40
0.0
  9
$USERR3
 40
0.0
  9
$USERR4
 40
0.0
  9
$USERR5
 40
0.0
  9
$WORLDVIEW
 70
1
  9
$SHADEDGE
 70
3
  9
$SHADEDIF
 70
70
  9
$TILEMODE
 70
1
  9
$MAXACTVP
 70
64
  9
$PINSBASE
 10
0.0
 20
0.0
 30
0.0
  9
$PLIMCHECK
 70
0
  9
$PEXTMIN
 10
1e+20
 20
1e+20
 30
1e+20
  9
$PEXTMAX
 10
-1e+20
 20
-1e+20
 30
-1e+20
  9
$PLIMMIN
 10
0.0
 20
0.0
  9
$PLIMMAX
 10
420.0
 20
297.0
  9
$UNITMODE
 70
0
  9
$VISRETAIN
 70
1
  9
$PLINEGEN
 70
0
  9
$PSLTSCALE
 70
0
  9
$TREEDEPTH
 70
3020
  9
$CMLSTYLE
  2
Standard
  9
$CMLJUST
 70
0
  9
$CMLSCALE
 40
20.0
  9
$PROXYGRAPHICS
 70
1
  9
$MEASUREMENT
 70
1
  9
$CELWEIGHT
370
-1
  9
$ENDCAPS
280
0
  9
$JOINSTYLE
280
0
  9
$LWDISPLAY
290
0
  9
$INSUNITS
 70
4
  9
$HYPERLINKBASE
  1

  9
$STYLESHEET
  1

  9
$XEDIT
290
1
  9
$CEPSNTYPE
380
0
  9
$PSTYLEMODE
290
1
  9
$FINGERPRINTGUID
  2
{E4D9FC16-8C33-46A5-A538-6043B3ED5F0E}
  9
$VERSIONGUID
  2
{ADB1D1DF-435F-46DC-9430-6722086636E8}
  9
$EXTNAMES
290
1
  9
$PSVPSCALE
 40
0.0
  9
$OLESTARTUP
290
0
  9
$SORTENTS
280
127
  9
$INDEXCTL
280
0
  9
$HIDETEXT
280
1
  9
$XCLIPFRAME
280
1
  9
$HALOGAP
280
0
  9
$OBSCOLOR
 70
257
  9
$OBSLTYPE
280
0
  9
$INTERSECTIONDISPLAY
280
0
  9
$INTERSECTIONCOLOR
 70
257
  9
$DIMASSOC
280
2
  9
$PROJECTNAME
  1

  9
$CAMERADISPLAY
290
0
  9
$LENSLENGTH
 40
50.0
  9
$CAMERAHEIGHT
 40
0.0
  9
$STEPSPERSEC
 40
24.0
  9
$STEPSIZE
 40
100.0
  9
$3DDWFPREC
 40
2.0
  9
$PSOLWIDTH
 40
0.005
  9
$PSOLHEIGHT
 40
0.08
  9
$LOFTANG1
 40
1.570796326795
  9
$LOFTANG2
 40
1.570796326795
  9
$LOFTMAG1
 40
0.0
  9
$LOFTMAG2
 40
0.0
  9
$LOFTPARAM
 70
7
  9
$LOFTNORMALS
280
1
  9
$LATITUDE
 40
37.795
  9
$LONGITUDE
 40
-122.394
  9
$NORTHDIRECTION
 40
0.0
  9
$TIMEZONE
 70
-8000
  9
$LIGHTGLYPHDISPLAY
280
1
  9
$TILEMODELIGHTSYNCH
280
1
  9
$CMATERIAL
347
20
  9
$SOLIDHIST
280
0
  9
$SHOWHIST
280
1
  9
$DWFFRAME
280
2
  9
$DGNFRAME
280
2
  9
$REALWORLDSCALE
290
1
  9
$INTERFERECOLOR
 62
256
  9
$CSHADOW
280
0
  9
$SHADOWPLANELOCATION
 40
0.0
  0
ENDSEC
  0
SECTION
  2
CLASSES
  0
CLASS
  1
ACDBDICTIONARYWDFLT
  2
AcDbDictionaryWithDefault
  3
ObjectDBX Classes
 90
0
 91
0
280
0
281
0
  0
CLASS
  1
SUN
  2
AcDbSun
  3
SCENEOE
 90
1153
 91
0
280
0
281
0
  0
CLASS
  1
VISUALSTYLE
  2
AcDbVisualStyle
  3
ObjectDBX Classes
 90
4095
 91
0
280
0
281
0
  0
CLASS
  1
MATERIAL
  2
AcDbMaterial
  3
ObjectDBX Classes
 90
1153
 91
0
280
0
281
0
  0
CLASS
  1
SCALE
  2
AcDbScale
  3
ObjectDBX Classes
 90
1153
 91
0
280
0
281
0
  0
CLASS
  1
TABLESTYLE
  2
AcDbTableStyle
  3
ObjectDBX Classes
 90
4095
 91
0
280
0
281
0
  0
CLASS
  1
MLEADERSTYLE
  2
AcDbMLeaderStyle
  3
ACDB_MLEADERSTYLE_CLASS
 90
4095
 91
0
280
0
281
0
  0
CLASS
  1
DICTIONARYVAR
  2
AcDbDictionaryVar
  3
ObjectDBX Classes
 90
0
 91
0
280
0
281
0
  0
CLASS
  1
CELLSTYLEMAP
  2
AcDbCellStyleMap
  3
ObjectDBX Classes
 90
1152
 91
0
280
0
281
0
  0
CLASS
  1
MENTALRAYRENDERSETTINGS
  2
AcDbMentalRayRenderSettings
  3
SCENEOE
 90
1024
 91
0
280
0
281
0
  0
CLASS
  1
ACDBDETAILVIEWSTYLE
  2
AcDbDetailViewStyle
  3
ObjectDBX Classes
 90
1025
 91
0
280
0
281
0
  0
CLASS
  1
ACDBSECTIONVIEWSTYLE
  2
AcDbSectionViewStyle
  3
ObjectDBX Classes
 90
1025
 91
0
280
0
281
0
  0
CLASS
  1
RASTERVARIABLES
  2
AcDbRasterVariables
  3
ISM
 90
0
 91
0
280
0
281
0
  0
CLASS
  1
ACDBPLACEHOLDER
  2
AcDbPlaceHolder
  3
ObjectDBX Classes
 90
0
 91
0
280
0
281
0
  0
CLASS
  1
LAYOUT
  2
AcDbLayout
  3
ObjectDBX Classes
 90
0
 91
0
280
0
281
0
  0
ENDSEC
  0
SECTION
  2
TABLES
  0
TABLE
  2
VPORT
  5
8
330
0
100
AcDbSymbolTable
 70
1
  0
VPORT
  5
23
330
8
100
AcDbSymbolTableRecord
100
AcDbViewportTableRecord
  2
*Active
 70
0
 10
0.0
 20
0.0
 11
1.0
 21
1.0
 12
0.0
 22
0.0
 13
0.0
 23
0.0
 14
0.5
 24
0.5
 15
0.5
 25
0.5
 16
0.0
 26
0.0
 36
1.0
 17
0.0
 27
0.0
 37
0.0
 40
1000.0
 41
1.34
 42
50.0
 43
0.0
 44
0.0
 50
0.0
 51
0.0
 71
0
 72
1000
 73
1
 74
3
 75
0
 76
0
 77
0
 78
0
281
0
 65
0
146
0.0
  0
ENDTAB
  0
TABLE
  2
LTYPE
  5
2
330
0
100
AcDbSymbolTable
 70
21
  0
LTYPE
  5
24
330
2
100
AcDbSymbolTableRecord
100
AcDbLinetypeTableRecord
  2
ByBlock
 70
0
  3

 72
65
 73
0
 40
0.0
  0
LTYPE
  5
25
330
2
100
AcDbSymbolTableRecord
100
AcDbLinetypeTableRecord
  2
ByLayer
 70
0
  3

 72
65
 73
0
 40
0.0
  0
LTYPE
  5
26
330
2
100
AcDbSymbolTableRecord
100
AcDbLinetypeTableRecord
  2
Continuous
 70
0
  3

 72
65
 73
0
 40
0.0
  0
LTYPE
  5
2F
330
2
100
AcDbSymbolTableRecord
100
AcDbLinetypeTableRecord
  2
CENTER
 70
0
  3
Center ____ _ ____ _ ____ _ ____ _ ____ _ ____
 72
65
 73
4
 40
5.08
 49
3.175
 74
0
 49
-0.635
 74
0
 49
0.635
 74
0
 49
-0.635
 74
0
  0
LTYPE
  5
30
330
2
100
AcDbSymbolTableRecord
100
AcDbLinetypeTableRecord
  2
CENTERX2
 70
0
  3
Center (2x) ________  __  ________  __  ________
 72
65
 73
4
 40
8.89
 49
6.35
 74
0
 49
-0.635
 74
0
 49
1.27
 74
0
 49
-0.635
 74
0
  0
LTYPE
  5
31
330
2
100
AcDbSymbolTableRecord
100
AcDbLinetypeTableRecord
  2
CENTER2
 70
0
  3
Center (.5x) ____ _ ____ _ ____ _ ____ _ ____
 72
65
 73
4
 40
2.54
 49
1.587
 74
0
 49
-0.318
 74
0
 49
0.318
 74
0
 49
-0.318
 74
0
  0
LTYPE
  5
32
330
2
100
AcDbSymbolTableRecord
100
AcDbLinetypeTableRecord
  2
DASHED
 70
0
  3
Dashed __ __ __ __ __ __ __ __ __ __ __ __ __ _
 72
65
 73
2
 40
1.524
 49
1.27
 74
0
 49
-0.254
 74
0
  0
LTYPE
  5
33
330
2
100
AcDbSymbolTableRecord
100
AcDbLinetypeTableRecord
  2
DASHEDX2
 70
0
  3
Dashed (2x) ____  ____  ____  ____  ____  ____
 72
65
 73
2
 40
3.048
 49
2.54
 74
0
 49
-0.508
 74
0
  0
LTYPE
  5
34
330
2
100
AcDbSymbolTableRecord
100
AcDbLinetypeTableRecord
  2
DASHED2
 70
0
  3
Dashed (.5x) _ _ _ _ _ _ _ _ _ _ _ _ _ _
 72
65
 73
2
 40
0.762
 49
0.635
 74
0
 49
-0.127
 74
0
  0
LTYPE
  5
35
330
2
100
AcDbSymbolTableRecord
100
AcDbLinetypeTableRecord
  2
PHANTOM
 70
0
  3
Phantom ______  __  __  ______  __  __  ______
 72
65
 73
6
 40
6.35
 49
3.175
 74
0
 49
-0.635
 74
0
 49
0.635
 74
0
 49
-0.635
 74
0
 49
0.635
 74
0
 49
-0.635
 74
0
  0
LTYPE
  5
36
330
2
100
AcDbSymbolTableRecord
100
AcDbLinetypeTableRecord
  2
PHANTOMX2
 70
0
  3
Phantom (2x)____________    ____    ____    ____________
 72
65
 73
6
 40
10.795
 49
6.35
 74
0
 49
-0.635
 74
0
 49
1.27
 74
0
 49
-0.635
 74
0
 49
1.27
 74
0
 49
-0.635
 74
0
  0
LTYPE
  5
37
330
2
100
AcDbSymbolTableRecord
100
AcDbLinetypeTableRecord
  2
PHANTOM2
 70
0
  3
Phantom (.5x) ___ _ _ ___ _ _ ___ _ _ ___ _ _ ___
 72
65
 73
6
 40
3.175
 49
1.587
 74
0
 49
-0.318
 74
0
 49
0.318
 74
0
 49
-0.318
 74
0
 49
0.318
 74
0
 49
-0.318
 74
0
  0
LTYPE
  5
38
330
2
100
AcDbSymbolTableRecord
100
AcDbLinetypeTableRecord
  2
DASHDOT
 70
0
  3
Dash dot __ . __ . __ . __ . __ . __ . __ . __
 72
65
 73
4
 40
3.556
 49
2.54
 74
0
 49
-0.508
 74
0
 49
0.0
 74
0
 49
-0.508
 74
0
  0
LTYPE
  5
39
330
2
100
AcDbSymbolTableRecord
100
AcDbLinetypeTableRecord
  2
DASHDOTX2
 70
0
  3
Dash dot (2x) ____  .  ____  .  ____  .  ____
 72
65
 73
4
 40
6.096
 49
5.08
 74
0
 49
-0.508
 74
0
 49
0.0
 74
0
 49
-0.508
 74
0
  0
LTYPE
  5
3A
330
2
100
AcDbSymbolTableRecord
100
AcDbLinetypeTableRecord
  2
DASHDOT2
 70
0
  3
Dash dot (.5x) _ . _ . _ . _ . _ . _ . _ . _
 72
65
 73
4
 40
1.778
 49
1.27
 74
0
 49
-0.254
 74
0
 49
0.0
 74
0
 49
-0.254
 74
0
  0
LTYPE
  5
3B
330
2
100
AcDbSymbolTableRecord
100
AcDbLinetypeTableRecord
  2
DOT
 70
0
  3
Dot .  .  .  .  .  .  .  .  .  .  .  .  .  .  .  .
 72
65
 73
2
 40
0.508
 49
0.0
 74
0
 49
-0.508
 74
0
  0
LTYPE
  5
3C
330
2
100
AcDbSymbolTableRecord
100
AcDbLinetypeTableRecord
  2
DOTX2
 70
0
  3
Dot (2x) .    .    .    .    .    .    .    . 
 72
65
 73
2
 40
1.016
 49
0.0
 74
0
 49
-1.016
 74
0
  0
LTYPE
  5
3D
330
2
100
AcDbSymbolTableRecord
100
AcDbLinetypeTableRecord
  2
DOT2
 70
0
  3
Dot (.5) . . . . . . . . . . . . . . . . . . . 
 72
65
 73
2
 40
0.254
 49
0.0
 74
0
 49
-0.254
 74
0
  0
LTYPE
  5
3E
330
2
100
AcDbSymbolTableRecord
100
AcDbLinetypeTableRecord
  2
DIVIDE
 70
0
  3
Divide __ . . __ . . __ . . __ . . __ . . __
 72
65
 73
6
 40
4.064
 49
2.54
 74
0
 49
-0.508
 74
0
 49
0.0
 74
0
 49
-0.508
 74
0
 49
0.0
 74
0
 49
-0.508
 74
0
  0
LTYPE
  5
3F
330
2
100
AcDbSymbolTableRecord
100
AcDbLinetypeTableRecord
  2
DIVIDEX2
 70
0
  3
Divide (2x) ____  . .  ____  . .  ____  . .  ____
 72
65
 73
6
 40
6.604
 49
5.08
 74
0
 49
-0.508
 74
0
 49
0.0
 74
0
 49
-0.508
 74
0
 49
0.0
 74
0
 49
-0.508
 74
0
  0
LTYPE
  5
40
330
2
100
AcDbSymbolTableRecord
100
AcDbLinetypeTableRecord
  2
DIVIDE2
 70
0
  3
Divide(.5x) _ . _ . _ . _ . _ . _ . _ . _
 72
65
 73
6
 40
2.032
 49
1.27
 74
0
 49
-0.254
 74
0
 49
0.0
 74
0
 49
-0.254
 74
0
 49
0.0
 74
0
 49
-0.254
 74
0
  0
ENDTAB
  0
TABLE
  2
LAYER
  5
1
330
0
100
AcDbSymbolTable
 70
42
  0
LAYER
  5
27
330
1
100
AcDbSymbolTableRecord
100
AcDbLayerTableRecord
  2
0
 70
0
 62
7
  6
Continuous
370
-3
390
13
347
21
  0
LAYER
  5
28
330
1
100
AcDbSymbolTableRecord
100
AcDbLayerTableRecord
  2
Defpoints
 70
0
 62
7
  6
Continuous
290
0
370
-3
390
13
347
21
  0
LAYER
  5
8B
330
1
100
AcDbSymbolTableRecord
100
AcDbLayerTableRecord
  2
G-FRAME
 70
0
 62
7
  6
Continuous
370
70
390
13
347
21
1001
AcAecLayerStandard
1000

1000
図枠
  0
LAYER
  5
8D
330
1
100
AcDbSymbolTableRecord
100
AcDbLayerTableRecord
  2
G-TITLE
 70
0
 62
7
  6
Continuous
370
25
390
13
347
21
1001
AcAecLayerStandard
1000

1000
表題欄
  0
LAYER
  5
8E
330
1
100
AcDbSymbolTableRecord
100
AcDbLayerTableRecord
  2
G-TABLE
 70
0
 62
7
  6
Continuous
370
18
390
13
347
21
1001
AcAecLayerStandard
1000

1000
表
  0
LAYER
  5
8F
330
1
100
AcDbSymbolTableRecord
100
AcDbLayerTableRecord
  2
A-GRID
 70
0
 62
1
  6
CENTER
370
13
390
13
347
21
1001
AcAecLayerStandard
1000

1000
通り芯（一点鎖線・細線）
  0
LAYER
  5
90
330
1
100
AcDbSymbolTableRecord
100
AcDbLayerTableRecord
  2
A-GRID-SYMB
 70
0
 62
7
  6
Continuous
370
18
390
13
347
21
1001
AcAecLayerStandard
1000

1000
通り芯符号
  0
LAYER
  5
91
330
1
100
AcDbSymbolTableRecord
100
AcDbLayerTableRecord
  2
A-CUT
 70
0
 62
7
  6
Continuous
370
50
390
13
347
21
1001
AcAecLayerStandard
1000

1000
切断面 RC（太線）
  0
LAYER
  5
92
330
1
100
AcDbSymbolTableRecord
100
AcDbLayerTableRecord
  2
A-CUT-HATCH
 70
0
 62
8
  6
Continuous
370
9
390
13
347
21
1001
AcAecLayerStandard
1000

1000
切断面ハッチング
  0
LAYER
  5
93
330
1
100
AcDbSymbolTableRecord
100
AcDbLayerTableRecord
  2
A-CUT-LGS
 70
0
 62
7
  6
Continuous
370
35
390
13
347
21
1001
AcAecLayerStandard
1000

1000
切断面 軽量間仕切（中線）
  0
LAYER
  5
94
330
1
100
AcDbSymbolTableRecord
100
AcDbLayerTableRecord
  2
A-CUT-INS
 70
0
 62
9
  6
Continuous
370
9
390
13
347
21
1001
AcAecLayerStandard
1000

1000
切断面 断熱材ハッチング
  0
LAYER
  5
95
330
1
100
AcDbSymbolTableRecord
100
AcDbLayerTableRecord
  2
A-FENCE
 70
0
 62
7
  6
Continuous
370
35
390
13
347
21
1001
AcAecLayerStandard
1000

1000
RC塀
  0
LAYER
  5
96
330
1
100
AcDbSymbolTableRecord
100
AcDbLayerTableRecord
  2
A-PAVE
 70
0
 62
3
  6
Continuous
370
13
390
13
347
21
1001
AcAecLayerStandard
1000

1000
舗装（透水性 Dotcon+）
  0
LAYER
  5
97
330
1
100
AcDbSymbolTableRecord
100
AcDbLayerTableRecord
  2
A-DRAIN
 70
0
 62
5
  6
DASHED
370
25
390
13
347
21
1001
AcAecLayerStandard
1000

1000
雨水排水・浸透施設
  0
LAYER
  5
98
330
1
100
AcDbSymbolTableRecord
100
AcDbLayerTableRecord
  2
A-NEIGH
 70
0
 62
8
  6
Continuous
370
13
390
13
347
21
1001
AcAecLayerStandard
1000

1000
隣接建物（基盤地図情報）
  0
LAYER
  5
99
330
1
100
AcDbSymbolTableRecord
100
AcDbLayerTableRecord
  2
A-WATER
 70
0
 62
5
  6
Continuous
370
18
390
13
347
21
1001
AcAecLayerStandard
1000

1000
水路
  0
LAYER
  5
9A
330
1
100
AcDbSymbolTableRecord
100
AcDbLayerTableRecord
  2
A-TERRAIN
 70
0
 62
30
  6
Continuous
370
25
390
13
347
21
1001
AcAecLayerStandard
1000

1000
地形断面（DEM）
  0
LAYER
  5
9B
330
1
100
AcDbSymbolTableRecord
100
AcDbLayerTableRecord
  2
A-FLOOD
 70
0
 62
5
  6
DASHDOT
370
25
390
13
347
21
1001
AcAecLayerStandard
1000

1000
想定浸水深
  0
LAYER
  5
9C
330
1
100
AcDbSymbolTableRecord
100
AcDbLayerTableRecord
  2
A-FLOW
 70
0
 62
6
  6
DASHED
370
35
390
13
347
21
1001
AcAecLayerStandard
1000

1000
動線（回遊・家事・搬入）
  0
LAYER
  5
9D
330
1
100
AcDbSymbolTableRecord
100
AcDbLayerTableRecord
  2
A-VIS
 70
0
 62
7
  6
Continuous
370
18
390
13
347
21
1001
AcAecLayerStandard
1000

1000
見え掛り（細線）
  0
LAYER
  5
9E
330
1
100
AcDbSymbolTableRecord
100
AcDbLayerTableRecord
  2
A-HIDDEN
 70
0
 62
8
  6
HIDDEN
370
13
390
13
347
21
1001
AcAecLayerStandard
1000

1000
隠れ線（破線）
  0
LAYER
  5
9F
330
1
100
AcDbSymbolTableRecord
100
AcDbLayerTableRecord
  2
A-GLAZ
 70
0
 62
5
  6
Continuous
370
18
390
13
347
21
1001
AcAecLayerStandard
1000

1000
建具・ガラス
  0
LAYER
  5
A0
330
1
100
AcDbSymbolTableRecord
100
AcDbLayerTableRecord
  2
A-DOOR
 70
0
 62
5
  6
Continuous
370
18
390
13
347
21
1001
AcAecLayerStandard
1000

1000
扉・開き勝手
  0
LAYER
  5
A1
330
1
100
AcDbSymbolTableRecord
100
AcDbLayerTableRecord
  2
A-STRS
 70
0
 62
7
  6
Continuous
370
18
390
13
347
21
1001
AcAecLayerStandard
1000

1000
階段
  0
LAYER
  5
A2
330
1
100
AcDbSymbolTableRecord
100
AcDbLayerTableRecord
  2
A-ROOM
 70
0
 62
7
  6
Continuous
370
18
390
13
347
21
1001
AcAecLayerStandard
1000

1000
室名・面積
  0
LAYER
  5
A3
330
1
100
AcDbSymbolTableRecord
100
AcDbLayerTableRecord
  2
A-DIMS
 70
0
 62
7
  6
Continuous
370
13
390
13
347
21
1001
AcAecLayerStandard
1000

1000
寸法
  0
LAYER
  5
A4
330
1
100
AcDbSymbolTableRecord
100
AcDbLayerTableRecord
  2
A-TEXT
 70
0
 62
7
  6
Continuous
370
18
390
13
347
21
1001
AcAecLayerStandard
1000

1000
注記
  0
LAYER
  5
A5
330
1
100
AcDbSymbolTableRecord
100
AcDbLayerTableRecord
  2
A-SYMB
 70
0
 62
7
  6
Continuous
370
18
390
13
347
21
1001
AcAecLayerStandard
1000

1000
記号（方位・切断・レベル）
  0
LAYER
  5
A6
330
1
100
AcDbSymbolTableRecord
100
AcDbLayerTableRecord
  2
A-SITE
 70
0
 62
3
  6
PHANTOM
370
25
390
13
347
21
1001
AcAecLayerStandard
1000

1000
敷地境界線（二点鎖線）
  0
LAYER
  5
A7
330
1
100
AcDbSymbolTableRecord
100
AcDbLayerTableRecord
  2
A-ROAD
 70
0
 62
8
  6
Continuous
370
18
390
13
347
21
1001
AcAecLayerStandard
1000

1000
道路
  0
LAYER
  5
A8
330
1
100
AcDbSymbolTableRecord
100
AcDbLayerTableRecord
  2
A-GROUND
 70
0
 62
7
  6
Continuous
370
50
390
13
347
21
1001
AcAecLayerStandard
1000

1000
地盤面 GL
  0
LAYER
  5
A9
330
1
100
AcDbSymbolTableRecord
100
AcDbLayerTableRecord
  2
A-LEGAL
 70
0
 62
1
  6
DASHED
370
25
390
13
347
21
1001
AcAecLayerStandard
1000

1000
法規制ライン（斜線・延焼ライン）
  0
LAYER
  5
AA
330
1
100
AcDbSymbolTableRecord
100
AcDbLayerTableRecord
  2
A-LEGAL-TEXT
 70
0
 62
1
  6
Continuous
370
18
390
13
347
21
1001
AcAecLayerStandard
1000

1000
法規注記
  0
LAYER
  5
AB
330
1
100
AcDbSymbolTableRecord
100
AcDbLayerTableRecord
  2
A-FIRE
 70
0
 62
6
  6
DASHDOT
370
25
390
13
347
21
1001
AcAecLayerStandard
1000

1000
延焼のおそれのある部分
  0
LAYER
  5
AC
330
1
100
AcDbSymbolTableRecord
100
AcDbLayerTableRecord
  2
A-ALT
 70
0
 62
1
  6
Continuous
370
35
390
13
347
21
1001
AcAecLayerStandard
1000

1000
代替進入口
  0
LAYER
  5
AD
330
1
100
AcDbSymbolTableRecord
100
AcDbLayerTableRecord
  2
S-COLS
 70
0
 62
7
  6
Continuous
370
50
390
13
347
21
1001
AcAecLayerStandard
1000

1000
構造 柱
  0
LAYER
  5
AE
330
1
100
AcDbSymbolTableRecord
100
AcDbLayerTableRecord
  2
S-BEAM
 70
0
 62
7
  6
HIDDEN
370
25
390
13
347
21
1001
AcAecLayerStandard
1000

1000
構造 梁（伏図・隠れ）
  0
LAYER
  5
AF
330
1
100
AcDbSymbolTableRecord
100
AcDbLayerTableRecord
  2
S-BEAM-V
 70
0
 62
7
  6
Continuous
370
35
390
13
347
21
1001
AcAecLayerStandard
1000

1000
構造 梁（見え）
  0
LAYER
  5
B0
330
1
100
AcDbSymbolTableRecord
100
AcDbLayerTableRecord
  2
S-FNDN
 70
0
 62
7
  6
HIDDEN
370
25
390
13
347
21
1001
AcAecLayerStandard
1000

1000
構造 基礎
  0
LAYER
  5
B1
330
1
100
AcDbSymbolTableRecord
100
AcDbLayerTableRecord
  2
S-SLAB
 70
0
 62
7
  6
Continuous
370
18
390
13
347
21
1001
AcAecLayerStandard
1000

1000
構造 スラブ
  0
LAYER
  5
B2
330
1
100
AcDbSymbolTableRecord
100
AcDbLayerTableRecord
  2
S-REBAR
 70
0
 62
1
  6
Continuous
370
35
390
13
347
21
1001
AcAecLayerStandard
1000

1000
鉄筋
  0
LAYER
  5
B3
330
1
100
AcDbSymbolTableRecord
100
AcDbLayerTableRecord
  2
S-TEXT
 70
0
 62
7
  6
Continuous
370
18
390
13
347
21
1001
AcAecLayerStandard
1000

1000
構造 注記
  0
ENDTAB
  0
TABLE
  2
STYLE
  5
5
330
0
100
AcDbSymbolTable
 70
27
  0
STYLE
  5
29
330
5
100
AcDbSymbolTableRecord
100
AcDbTextStyleTableRecord
  2
Standard
 70
0
 40
0.0
 41
1.0
 50
0.0
 71
0
 42
2.5
  3
ipag.ttf
  4

  0
STYLE
  5
41
330
5
100
AcDbSymbolTableRecord
100
AcDbTextStyleTableRecord
  2
OpenSans-Light
 70
0
 40
0.0
 41
1.0
 50
0.0
 71
0
 42
2.5
  3
OpenSans-Light.ttf
  4

  0
STYLE
  5
42
330
5
100
AcDbSymbolTableRecord
100
AcDbTextStyleTableRecord
  2
OpenSans-Light-Italic
 70
0
 40
0.0
 41
1.0
 50
0.0
 71
0
 42
2.5
  3
OpenSans-LightItalic.ttf
  4

  0
STYLE
  5
43
330
5
100
AcDbSymbolTableRecord
100
AcDbTextStyleTableRecord
  2
OpenSans
 70
0
 40
0.0
 41
1.0
 50
0.0
 71
0
 42
2.5
  3
OpenSans-Regular.ttf
  4

  0
STYLE
  5
44
330
5
100
AcDbSymbolTableRecord
100
AcDbTextStyleTableRecord
  2
OpenSans-Italic
 70
0
 40
0.0
 41
1.0
 50
0.0
 71
0
 42
2.5
  3
OpenSans-Italic.ttf
  4

  0
STYLE
  5
45
330
5
100
AcDbSymbolTableRecord
100
AcDbTextStyleTableRecord
  2
OpenSans-SemiBold
 70
0
 40
0.0
 41
1.0
 50
0.0
 71
0
 42
2.5
  3
OpenSans-SemiBold.ttf
  4

  0
STYLE
  5
46
330
5
100
AcDbSymbolTableRecord
100
AcDbTextStyleTableRecord
  2
OpenSans-SemiBoldItalic
 70
0
 40
0.0
 41
1.0
 50
0.0
 71
0
 42
2.5
  3
OpenSans-SemiBoldItalic.ttf
  4

  0
STYLE
  5
47
330
5
100
AcDbSymbolTableRecord
100
AcDbTextStyleTableRecord
  2
OpenSans-Bold
 70
0
 40
0.0
 41
1.0
 50
0.0
 71
0
 42
2.5
  3
OpenSans-Bold.ttf
  4

  0
STYLE
  5
48
330
5
100
AcDbSymbolTableRecord
100
AcDbTextStyleTableRecord
  2
OpenSans-BoldItalic
 70
0
 40
0.0
 41
1.0
 50
0.0
 71
0
 42
2.5
  3
OpenSans-BoldItalic.ttf
  4

  0
STYLE
  5
49
330
5
100
AcDbSymbolTableRecord
100
AcDbTextStyleTableRecord
  2
OpenSans-ExtraBold
 70
0
 40
0.0
 41
1.0
 50
0.0
 71
0
 42
2.5
  3
OpenSans-ExtraBold.ttf
  4

  0
STYLE
  5
4A
330
5
100
AcDbSymbolTableRecord
100
AcDbTextStyleTableRecord
  2
OpenSans-ExtraBoldItalic
 70
0
 40
0.0
 41
1.0
 50
0.0
 71
0
 42
2.5
  3
OpenSans-ExtraBoldItalic.ttf
  4

  0
STYLE
  5
4B
330
5
100
AcDbSymbolTableRecord
100
AcDbTextStyleTableRecord
  2
OpenSansCondensed-Bold
 70
0
 40
0.0
 41
1.0
 50
0.0
 71
0
 42
2.5
  3
OpenSansCondensed-Bold.ttf
  4

  0
STYLE
  5
4C
330
5
100
AcDbSymbolTableRecord
100
AcDbTextStyleTableRecord
  2
OpenSansCondensed-Light
 70
0
 40
0.0
 41
1.0
 50
0.0
 71
0
 42
2.5
  3
OpenSansCondensed-Light.ttf
  4

  0
STYLE
  5
4D
330
5
100
AcDbSymbolTableRecord
100
AcDbTextStyleTableRecord
  2
OpenSansCondensed-Italic
 70
0
 40
0.0
 41
1.0
 50
0.0
 71
0
 42
2.5
  3
OpenSansCondensed-LightItalic.ttf
  4

  0
STYLE
  5
4E
330
5
100
AcDbSymbolTableRecord
100
AcDbTextStyleTableRecord
  2
LiberationSans
 70
0
 40
0.0
 41
1.0
 50
0.0
 71
0
 42
2.5
  3
LiberationSans-Regular.ttf
  4

  0
STYLE
  5
4F
330
5
100
AcDbSymbolTableRecord
100
AcDbTextStyleTableRecord
  2
LiberationSans-Bold
 70
0
 40
0.0
 41
1.0
 50
0.0
 71
0
 42
2.5
  3
LiberationSans-Bold.ttf
  4

  0
STYLE
  5
50
330
5
100
AcDbSymbolTableRecord
100
AcDbTextStyleTableRecord
  2
LiberationSans-BoldItalic
 70
0
 40
0.0
 41
1.0
 50
0.0
 71
0
 42
2.5
  3
LiberationSans-BoldItalic.ttf
  4

  0
STYLE
  5
51
330
5
100
AcDbSymbolTableRecord
100
AcDbTextStyleTableRecord
  2
LiberationSans-Italic
 70
0
 40
0.0
 41
1.0
 50
0.0
 71
0
 42
2.5
  3
LiberationSans-Italic.ttf
  4

  0
STYLE
  5
52
330
5
100
AcDbSymbolTableRecord
100
AcDbTextStyleTableRecord
  2
LiberationSerif
 70
0
 40
0.0
 41
1.0
 50
0.0
 71
0
 42
2.5
  3
LiberationSerif-Regular.ttf
  4

  0
STYLE
  5
53
330
5
100
AcDbSymbolTableRecord
100
AcDbTextStyleTableRecord
  2
LiberationSerif-Bold
 70
0
 40
0.0
 41
1.0
 50
0.0
 71
0
 42
2.5
  3
LiberationSerif-Bold.ttf
  4

  0
STYLE
  5
54
330
5
100
AcDbSymbolTableRecord
100
AcDbTextStyleTableRecord
  2
LiberationSerif-BoldItalic
 70
0
 40
0.0
 41
1.0
 50
0.0
 71
0
 42
2.5
  3
LiberationSerif-BoldItalic.ttf
  4

  0
STYLE
  5
55
330
5
100
AcDbSymbolTableRecord
100
AcDbTextStyleTableRecord
  2
LiberationSerif-Italic
 70
0
 40
0.0
 41
1.0
 50
0.0
 71
0
 42
2.5
  3
LiberationSerif-Italic.ttf
  4

  0
STYLE
  5
56
330
5
100
AcDbSymbolTableRecord
100
AcDbTextStyleTableRecord
  2
LiberationMono
 70
0
 40
0.0
 41
1.0
 50
0.0
 71
0
 42
2.5
  3
LiberationMono-Regular.ttf
  4

  0
STYLE
  5
57
330
5
100
AcDbSymbolTableRecord
100
AcDbTextStyleTableRecord
  2
LiberationMono-Bold
 70
0
 40
0.0
 41
1.0
 50
0.0
 71
0
 42
2.5
  3
LiberationMono-Bold.ttf
  4

  0
STYLE
  5
58
330
5
100
AcDbSymbolTableRecord
100
AcDbTextStyleTableRecord
  2
LiberationMono-BoldItalic
 70
0
 40
0.0
 41
1.0
 50
0.0
 71
0
 42
2.5
  3
LiberationMono-BoldItalic.ttf
  4

  0
STYLE
  5
59
330
5
100
AcDbSymbolTableRecord
100
AcDbTextStyleTableRecord
  2
LiberationMono-Italic
 70
0
 40
0.0
 41
1.0
 50
0.0
 71
0
 42
2.5
  3
LiberationMono-Italic.ttf
  4

  0
STYLE
  5
8A
330
5
100
AcDbSymbolTableRecord
100
AcDbTextStyleTableRecord
  2
JP
 70
0
 40
0.0
 41
1.0
 50
0.0
 71
0
 42
2.5
  3
ipag.ttf
  4

  0
ENDTAB
  0
TABLE
  2
VIEW
  5
7
330
0
100
AcDbSymbolTable
 70
0
  0
ENDTAB
  0
TABLE
  2
UCS
  5
6
330
0
100
AcDbSymbolTable
 70
0
  0
ENDTAB
  0
TABLE
  2
APPID
  5
3
330
0
100
AcDbSymbolTable
 70
4
  0
APPID
  5
2A
330
3
100
AcDbSymbolTableRecord
100
AcDbRegAppTableRecord
  2
ACAD
 70
0
  0
APPID
  5
8C
330
3
100
AcDbSymbolTableRecord
100
AcDbRegAppTableRecord
  2
AcAecLayerStandard
 70
0
  0
APPID
  5
1CF
330
3
100
AcDbSymbolTableRecord
100
AcDbRegAppTableRecord
  2
HATCHBACKGROUNDCOLOR
 70
0
  0
APPID
  5
1D0
330
3
100
AcDbSymbolTableRecord
100
AcDbRegAppTableRecord
  2
EZDXF
 70
0
  0
ENDTAB
  0
TABLE
  2
DIMSTYLE
  5
4
330
0
100
AcDbSymbolTable
 70
13
100
AcDbDimStyleTable
  0
DIMSTYLE
105
2B
330
4
100
AcDbSymbolTableRecord
100
AcDbDimStyleTableRecord
  2
Standard
 70
0
 40
1.0
 41
2.5
 42
0.625
 43
3.75
 44
1.25
 45
0.0
 46
0.0
 47
0.0
 48
0.0
 49
2.5
140
2.5
141
2.5
142
0.0
143
0.03937007874
144
1.0
145
0.0
146
1.0
147
0.625
148
0.0
 69
0
 70
0
 71
0
 72
0
 73
0
 74
0
 75
0
 76
0
 77
1
 78
8
 79
3
170
0
171
3
172
1
173
0
174
0
175
0
176
0
177
0
178
0
179
2
271
2
272
2
273
2
274
3
275
0
276
0
277
2
278
44
279
0
280
0
281
0
282
0
283
0
284
8
285
0
286
0
288
0
289
3
290
0
371
-2
372
-2
  0
DIMSTYLE
105
73
330
4
100
AcDbSymbolTableRecord
100
AcDbDimStyleTableRecord
  2
EZDXF
 70
0
 40
1.0
 41
0.175
 42
0.125
 43
3.75
 44
0.375
 45
0.0
 46
0.0
 47
0.0
 48
0.0
 49
2.5
140
0.25
141
2.5
142
0.0
143
0.03937007874
144
100.0
145
0.0
146
0.5
147
0.1
148
0.0
 69
0
 70
0
 71
0
 72
0
 73
0
 74
0
 75
0
 76
0
 77
1
 78
12
 79
3
170
0
171
3
172
1
173
0
174
0
175
0
176
0
177
0
178
0
179
2
271
2
272
2
273
2
274
3
275
0
276
0
277
2
278
46
279
2
280
0
281
0
282
0
283
0
284
8
285
0
286
0
288
1
289
3
290
0
340
4C
342
74
371
-2
372
-2
  0
DIMSTYLE
105
7C
330
4
100
AcDbSymbolTableRecord
100
AcDbDimStyleTableRecord
  2
EZ_M_100_H25_CM
 70
0
 40
1.0
 41
0.25
 42
0.125
 43
3.75
 44
0.375
 45
0.0
 46
0.0
 47
0.0
 48
0.0
 49
2.5
140
0.25
141
2.5
142
0.125
143
0.03937007874
144
100.0
145
0.0
146
0.5
147
0.1
148
0.0
 69
0
 70
0
 71
0
 72
0
 73
0
 74
0
 75
0
 76
0
 77
1
 78
12
 79
3
170
0
171
3
172
1
173
0
174
0
175
0
176
0
177
0
178
0
179
2
271
2
272
2
273
2
274
3
275
0
276
0
277
2
278
46
279
2
280
0
281
0
282
0
283
0
284
8
285
0
286
0
288
1
289
3
290
0
340
4C
371
-2
372
-2
  0
DIMSTYLE
105
7D
330
4
100
AcDbSymbolTableRecord
100
AcDbDimStyleTableRecord
  2
EZ_M_50_H25_CM
 70
0
 40
1.0
 41
0.125
 42
0.0625
 43
3.75
 44
0.1875
 45
0.0
 46
0.0
 47
0.0
 48
0.0
 49
2.5
140
0.125
141
2.5
142
0.0625
143
0.03937007874
144
100.0
145
0.0
146
0.5
147
0.05
148
0.0
 69
0
 70
0
 71
0
 72
0
 73
0
 74
0
 75
0
 76
0
 77
1
 78
12
 79
3
170
0
171
3
172
1
173
0
174
0
175
0
176
0
177
0
178
0
179
2
271
2
272
2
273
2
274
3
275
0
276
0
277
2
278
46
279
2
280
0
281
0
282
0
283
0
284
8
285
0
286
0
288
1
289
3
290
0
340
4C
371
-2
372
-2
  0
DIMSTYLE
105
7E
330
4
100
AcDbSymbolTableRecord
100
AcDbDimStyleTableRecord
  2
EZ_M_25_H25_CM
 70
0
 40
1.0
 41
0.0625
 42
0.03125
 43
3.75
 44
0.09375
 45
0.0
 46
0.0
 47
0.0
 48
0.0
 49
2.5
140
0.0625
141
2.5
142
0.03125
143
0.03937007874
144
100.0
145
0.0
146
0.5
147
0.025
148
0.0
 69
0
 70
0
 71
0
 72
0
 73
0
 74
0
 75
0
 76
0
 77
1
 78
12
 79
3
170
0
171
3
172
1
173
0
174
0
175
0
176
0
177
0
178
0
179
2
271
2
272
2
273
2
274
3
275
0
276
0
277
2
278
46
279
2
280
0
281
0
282
0
283
0
284
8
285
0
286
0
288
1
289
3
290
0
340
4C
371
-2
372
-2
  0
DIMSTYLE
105
7F
330
4
100
AcDbSymbolTableRecord
100
AcDbDimStyleTableRecord
  2
EZ_M_20_H25_CM
 70
0
 40
1.0
 41
0.05
 42
0.025
 43
3.75
 44
0.07500000000000001
 45
0.0
 46
0.0
 47
0.0
 48
0.0
 49
2.5
140
0.05
141
2.5
142
0.025
143
0.03937007874
144
100.0
145
0.0
146
0.5
147
0.020000000000000004
148
0.0
 69
0
 70
0
 71
0
 72
0
 73
0
 74
0
 75
0
 76
0
 77
1
 78
12
 79
3
170
0
171
3
172
1
173
0
174
0
175
0
176
0
177
0
178
0
179
2
271
2
272
2
273
2
274
3
275
0
276
0
277
2
278
46
279
2
280
0
281
0
282
0
283
0
284
8
285
0
286
0
288
1
289
3
290
0
340
4C
371
-2
372
-2
  0
DIMSTYLE
105
80
330
4
100
AcDbSymbolTableRecord
100
AcDbDimStyleTableRecord
  2
EZ_M_10_H25_CM
 70
0
 40
1.0
 41
0.025
 42
0.0125
 43
3.75
 44
0.037500000000000006
 45
0.0
 46
0.0
 47
0.0
 48
0.0
 49
2.5
140
0.025
141
2.5
142
0.0125
143
0.03937007874
144
100.0
145
0.0
146
0.5
147
0.010000000000000002
148
0.0
 69
0
 70
0
 71
0
 72
0
 73
0
 74
0
 75
0
 76
0
 77
1
 78
12
 79
3
170
0
171
3
172
1
173
0
174
0
175
0
176
0
177
0
178
0
179
2
271
2
272
2
273
2
274
3
275
0
276
0
277
2
278
46
279
2
280
0
281
0
282
0
283
0
284
8
285
0
286
0
288
1
289
3
290
0
340
4C
371
-2
372
-2
  0
DIMSTYLE
105
81
330
4
100
AcDbSymbolTableRecord
100
AcDbDimStyleTableRecord
  2
EZ_M_5_H25_CM
 70
0
 40
1.0
 41
0.0125
 42
0.00625
 43
3.75
 44
0.018750000000000003
 45
0.0
 46
0.0
 47
0.0
 48
0.0
 49
2.5
140
0.0125
141
2.5
142
0.00625
143
0.03937007874
144
100.0
145
0.0
146
0.5
147
0.005000000000000001
148
0.0
 69
0
 70
0
 71
0
 72
0
 73
0
 74
0
 75
0
 76
0
 77
1
 78
12
 79
3
170
0
171
3
172
1
173
0
174
0
175
0
176
0
177
0
178
0
179
2
271
2
272
2
273
2
274
3
275
0
276
0
277
2
278
46
279
2
280
0
281
0
282
0
283
0
284
8
285
0
286
0
288
1
289
3
290
0
340
4C
371
-2
372
-2
  0
DIMSTYLE
105
82
330
4
100
AcDbSymbolTableRecord
100
AcDbDimStyleTableRecord
  2
EZ_M_1_H25_CM
 70
0
 40
1.0
 41
0.0025
 42
0.00125
 43
3.75
 44
0.00375
 45
0.0
 46
0.0
 47
0.0
 48
0.0
 49
2.5
140
0.0025
141
2.5
142
0.00125
143
0.03937007874
144
100.0
145
0.0
146
0.5
147
0.001
148
0.0
 69
0
 70
0
 71
0
 72
0
 73
0
 74
0
 75
0
 76
0
 77
1
 78
12
 79
3
170
0
171
3
172
1
173
0
174
0
175
0
176
0
177
0
178
0
179
2
271
2
272
2
273
2
274
3
275
0
276
0
277
2
278
46
279
2
280
0
281
0
282
0
283
0
284
8
285
0
286
0
288
1
289
3
290
0
340
4C
371
-2
372
-2
  0
DIMSTYLE
105
83
330
4
100
AcDbSymbolTableRecord
100
AcDbDimStyleTableRecord
  2
EZ_RADIUS
 70
0
 40
1.0
 41
0.25
 42
0.125
 43
3.75
 44
0.375
 45
0.0
 46
0.0
 47
0.0
 48
0.0
 49
2.5
140
0.25
141
0.0
142
0.0
143
0.03937007874
144
100.0
145
0.0
146
0.5
147
0.1
148
0.0
 69
0
 70
0
 71
0
 72
0
 73
0
 74
0
 75
0
 76
0
 77
1
 78
12
 79
3
170
0
171
3
172
0
173
0
174
0
175
0
176
0
177
0
178
0
179
2
271
2
272
2
273
2
274
3
275
0
276
0
277
2
278
46
279
1
280
0
281
0
282
0
283
0
284
8
285
0
286
0
288
1
289
3
290
0
340
4C
342
84
371
-2
372
-2
  0
DIMSTYLE
105
88
330
4
100
AcDbSymbolTableRecord
100
AcDbDimStyleTableRecord
  2
EZ_RADIUS_INSIDE
 70
0
 40
1.0
 41
0.25
 42
0.125
 43
3.75
 44
0.375
 45
0.0
 46
0.0
 47
0.0
 48
0.0
 49
2.5
140
0.25
141
0.0
142
0.0
143
0.03937007874
144
100.0
145
0.0
146
0.5
147
0.1
148
0.0
 69
0
 70
0
 71
0
 72
0
 73
0
 74
0
 75
0
 76
0
 77
0
 78
12
 79
3
170
0
171
3
172
0
173
0
174
1
175
0
176
0
177
0
178
0
179
2
271
2
272
2
273
2
274
3
275
0
276
0
277
2
278
46
279
0
280
0
281
0
282
0
283
0
284
8
285
0
286
0
288
1
289
0
290
0
340
4C
342
84
371
-2
372
-2
  0
DIMSTYLE
105
89
330
4
100
AcDbSymbolTableRecord
100
AcDbDimStyleTableRecord
  2
EZ_CURVED
 70
0
 40
1.0
 41
0.25
 42
0.125
 43
3.75
 44
0.375
 45
0.0
 46
0.0
 47
0.0
 48
0.0
 49
2.5
140
0.25
141
2.5
142
0.0
143
0.03937007874
144
100.0
145
0.0
146
0.5
147
0.1
148
0.0
 69
0
 70
0
 71
0
 72
0
 73
0
 74
0
 75
0
 76
0
 77
1
 78
12
 79
2
 90
2
170
0
171
3
172
1
173
0
174
0
175
0
176
0
177
0
178
0
179
2
271
2
272
2
273
2
274
3
275
0
276
0
277
2
278
46
279
2
280
0
281
0
282
0
283
0
284
8
285
0
286
0
288
1
289
3
290
0
340
4C
371
-2
372
-2
  0
DIMSTYLE
105
B4
330
4
100
AcDbSymbolTableRecord
100
AcDbDimStyleTableRecord
  2
JIS
 70
0
 40
500.0
 41
1.0
 42
1.0
 43
3.75
 44
1.0
 45
0.0
 46
0.0
 47
0.0
 48
0.0
 49
2.5
140
2.0
141
2.5
142
0.0
143
0.03937007874
144
1.0
145
0.0
146
1.0
147
0.6
148
0.0
 69
0
 70
0
 71
0
 72
0
 73
0
 74
0
 75
0
 76
0
 77
1
 78
8
 79
3
170
0
171
3
172
1
173
0
174
0
175
0
176
7
177
7
178
7
179
2
271
0
272
2
273
2
274
3
275
0
276
0
277
2
278
44
279
0
280
0
281
0
282
0
283
0
284
8
285
0
286
0
288
0
289
3
290
0
340
8A
342
1D2
371
13
372
13
  0
ENDTAB
  0
TABLE
  2
BLOCK_RECORD
  5
9
330
0
100
AcDbSymbolTable
 70
6
  0
BLOCK_RECORD
  5
17
330
9
100
AcDbSymbolTableRecord
100
AcDbBlockTableRecord
  2
*Model_Space
340
1A
 70
0
280
1
281
0
  0
BLOCK_RECORD
  5
1B
330
9
100
AcDbSymbolTableRecord
100
AcDbBlockTableRecord
  2
*Paper_Space
340
1E
 70
0
280
1
281
0
  0
BLOCK_RECORD
  5
74
330
9
100
AcDbSymbolTableRecord
100
AcDbBlockTableRecord
  2
_ARCHTICK
340
0
 70
0
280
1
281
0
  0
BLOCK_RECORD
  5
78
330
9
100
AcDbSymbolTableRecord
100
AcDbBlockTableRecord
  2
_CLOSEDFILLED
340
0
 70
0
280
1
281
0
  0
BLOCK_RECORD
  5
84
330
9
100
AcDbSymbolTableRecord
100
AcDbBlockTableRecord
  2
_CLOSEDBLANK
340
0
 70
0
280
1
281
0
  0
BLOCK_RECORD
  5
1D2
330
9
100
AcDbSymbolTableRecord
100
AcDbBlockTableRecord
  2
_DOT
340
0
 70
0
280
1
281
0
  0
ENDTAB
  0
ENDSEC
  0
SECTION
  2
BLOCKS
  0
BLOCK
  5
18
330
17
100
AcDbEntity
  8
0
100
AcDbBlockBegin
  2
*Model_Space
 70
0
 10
0.0
 20
0.0
 30
0.0
  3
*Model_Space
  1

  0
ENDBLK
  5
19
330
17
100
AcDbEntity
  8
0
100
AcDbBlockEnd
  0
BLOCK
  5
1C
330
1B
100
AcDbEntity
  8
0
100
AcDbBlockBegin
  2
*Paper_Space
 70
0
 10
0.0
 20
0.0
 30
0.0
  3
*Paper_Space
  1

  0
ENDBLK
  5
1D
330
1B
100
AcDbEntity
  8
0
100
AcDbBlockEnd
  0
BLOCK
  5
75
330
74
100
AcDbEntity
  8
0
100
AcDbBlockBegin
  2
_ARCHTICK
 70
0
 10
0.0
 20
0.0
 30
0.0
  3
_ARCHTICK
  1

  0
LWPOLYLINE
  5
77
330
74
100
AcDbEntity
  8
0
  6
BYBLOCK
 62
0
100
AcDbPolyline
 90
2
 70
0
 43
0.15
 10
-0.5
 20
-0.5
 10
0.5
 20
0.5
  0
ENDBLK
  5
76
330
74
100
AcDbEntity
  8
0
100
AcDbBlockEnd
  0
BLOCK
  5
79
330
78
100
AcDbEntity
  8
0
100
AcDbBlockBegin
  2
_CLOSEDFILLED
 70
0
 10
0.0
 20
0.0
 30
0.0
  3
_CLOSEDFILLED
  1

  0
SOLID
  5
7B
330
78
100
AcDbEntity
  8
0
  6
BYBLOCK
 62
0
100
AcDbTrace
 10
-1.0
 20
0.16439898372402537
 30
0.0
 11
0.0
 21
0.0
 31
0.0
 12
-1.0
 22
-0.16439898372402537
 32
0.0
 13
-1.0
 23
-0.16439898372402537
 33
0.0
  0
ENDBLK
  5
7A
330
78
100
AcDbEntity
  8
0
100
AcDbBlockEnd
  0
BLOCK
  5
85
330
84
100
AcDbEntity
  8
0
100
AcDbBlockBegin
  2
_CLOSEDBLANK
 70
0
 10
0.0
 20
0.0
 30
0.0
  3
_CLOSEDBLANK
  1

  0
LWPOLYLINE
  5
87
330
84
100
AcDbEntity
  8
0
  6
BYBLOCK
 62
0
100
AcDbPolyline
 90
3
 70
1
 10
-1.0
 20
0.16439898372402537
 10
0.0
 20
0.0
 10
-1.0
 20
-0.16439898372402537
  0
ENDBLK
  5
86
330
84
100
AcDbEntity
  8
0
100
AcDbBlockEnd
  0
BLOCK
  5
1D3
330
1D2
100
AcDbEntity
  8
0
100
AcDbBlockBegin
  2
_DOT
 70
0
 10
0.0
 20
0.0
 30
0.0
  3
_DOT
  1

  0
LINE
  5
1D5
330
1D2
100
AcDbEntity
  8
0
  6
BYBLOCK
 62
0
100
AcDbLine
 10
-0.5
 20
0.0
 30
0.0
 11
-1.0
 21
0.0
 31
0.0
  0
LWPOLYLINE
  5
1D6
330
1D2
100
AcDbEntity
  8
0
  6
BYBLOCK
 62
0
100
AcDbPolyline
 90
2
 70
1
 43
0.5
 10
-0.25
 20
0.0
 42
1.0
 10
0.25
 20
0.0
 42
1.0
  0
ENDBLK
  5
1D4
330
1D2
100
AcDbEntity
  8
0
100
AcDbBlockEnd
  0
ENDSEC
  0
SECTION
  2
ENTITIES
  0
LWPOLYLINE
  5
B5
330
17
100
AcDbEntity
  8
G-FRAME
370
0
100
AcDbPolyline
 90
4
 70
1
 10
0.0
 20
0.0
 10
210000.0
 20
0.0
 10
210000.0
 20
148500.0
 10
0.0
 20
148500.0
  0
LWPOLYLINE
  5
B6
330
17
100
AcDbEntity
  8
G-FRAME
100
AcDbPolyline
 90
4
 70
1
 10
5000.0
 20
5000.0
 10
205000.0
 20
5000.0
 10
205000.0
 20
143500.0
 10
5000.0
 20
143500.0
  0
LWPOLYLINE
  5
B7
330
17
100
AcDbEntity
  8
G-TITLE
370
50
100
AcDbPolyline
 90
4
 70
1
 10
110000.0
 20
5000.0
 10
205000.0
 20
5000.0
 10
205000.0
 20
24000.0
 10
110000.0
 20
24000.0
  0
LINE
  5
B8
330
17
100
AcDbEntity
  8
G-TITLE
100
AcDbLine
 10
110000.0
 20
19000.0
 30
0.0
 11
205000.0
 21
19000.0
 31
0.0
  0
LINE
  5
B9
330
17
100
AcDbEntity
  8
G-TITLE
100
AcDbLine
 10
110000.0
 20
13500.0
 30
0.0
 11
205000.0
 21
13500.0
 31
0.0
  0
LINE
  5
BA
330
17
100
AcDbEntity
  8
G-TITLE
100
AcDbLine
 10
110000.0
 20
9500.0
 30
0.0
 11
205000.0
 21
9500.0
 31
0.0
  0
LINE
  5
BB
330
17
100
AcDbEntity
  8
G-TITLE
100
AcDbLine
 10
121000.0
 20
5000.0
 30
0.0
 11
121000.0
 21
24000.0
 31
0.0
  0
TEXT
  5
BC
330
17
100
AcDbEntity
  8
G-TITLE
100
AcDbText
 10
111000.0
 20
20750.0
 30
0.0
 40
1100.0
  1
工事名称
  7
JP
 11
111000.0
 21
20750.0
 31
0.0
100
AcDbText
  0
TEXT
  5
BD
330
17
100
AcDbEntity
  8
G-TITLE
100
AcDbText
 10
122000.0
 20
20500.0
 30
0.0
 40
1700.0
  1
河沿要（仮称）新築計画
  7
JP
 11
122000.0
 21
20500.0
 31
0.0
100
AcDbText
  0
TEXT
  5
BE
330
17
100
AcDbEntity
  8
G-TITLE
100
AcDbText
 10
111000.0
 20
15500.0
 30
0.0
 40
1100.0
  1
図面名称
  7
JP
 11
111000.0
 21
15500.0
 31
0.0
100
AcDbText
  0
TEXT
  5
BF
330
17
100
AcDbEntity
  8
G-TITLE
100
AcDbText
 10
122000.0
 20
15100.0
 30
0.0
 40
2200.0
  1
配置図・求積図
  7
JP
 11
122000.0
 21
15100.0
 31
0.0
100
AcDbText
  0
TEXT
  5
C0
330
17
100
AcDbEntity
  8
G-TITLE
100
AcDbText
 10
111000.0
 20
10800.0
 30
0.0
 40
1100.0
  1
縮尺
  7
JP
 11
111000.0
 21
10800.0
 31
0.0
100
AcDbText
  0
LINE
  5
C1
330
17
100
AcDbEntity
  8
G-TITLE
100
AcDbLine
 10
121000.0
 20
9500.0
 30
0.0
 11
121000.0
 21
13500.0
 31
0.0
  0
TEXT
  5
C2
330
17
100
AcDbEntity
  8
G-TITLE
100
AcDbText
 10
121750.0
 20
10800.0
 30
0.0
 40
1000.0
  1
A3
  7
JP
 11
121750.0
 21
10800.0
 31
0.0
100
AcDbText
  0
TEXT
  5
C3
330
17
100
AcDbEntity
  8
G-TITLE
100
AcDbText
 10
126000.0
 20
10700.0
 30
0.0
 40
1300.0
  1
1:500
  7
JP
 11
126000.0
 21
10700.0
 31
0.0
100
AcDbText
  0
LINE
  5
C4
330
17
100
AcDbEntity
  8
G-TITLE
100
AcDbLine
 10
141000.0
 20
9500.0
 30
0.0
 11
141000.0
 21
13500.0
 31
0.0
  0
TEXT
  5
C5
330
17
100
AcDbEntity
  8
G-TITLE
100
AcDbText
 10
141750.0
 20
10800.0
 30
0.0
 40
1000.0
  1
日付
  7
JP
 11
141750.0
 21
10800.0
 31
0.0
100
AcDbText
  0
TEXT
  5
C6
330
17
100
AcDbEntity
  8
G-TITLE
100
AcDbText
 10
146000.0
 20
10700.0
 30
0.0
 40
1300.0
  1
2026-10-03
  7
JP
 11
146000.0
 21
10700.0
 31
0.0
100
AcDbText
  0
LINE
  5
C7
330
17
100
AcDbEntity
  8
G-TITLE
100
AcDbLine
 10
166000.0
 20
9500.0
 30
0.0
 11
166000.0
 21
13500.0
 31
0.0
  0
TEXT
  5
C8
330
17
100
AcDbEntity
  8
G-TITLE
100
AcDbText
 10
166750.0
 20
10800.0
 30
0.0
 40
1000.0
  1
設計
  7
JP
 11
166750.0
 21
10800.0
 31
0.0
100
AcDbText
  0
TEXT
  5
C9
330
17
100
AcDbEntity
  8
G-TITLE
100
AcDbText
 10
171000.0
 20
10700.0
 30
0.0
 40
1300.0
  1
設計検討（仮）
  7
JP
 11
171000.0
 21
10700.0
 31
0.0
100
AcDbText
  0
TEXT
  5
CA
330
17
100
AcDbEntity
  8
G-TITLE
100
AcDbText
 10
111000.0
 20
6700.0
 30
0.0
 40
1100.0
  1
段階
  7
JP
 11
111000.0
 21
6700.0
 31
0.0
100
AcDbText
  0
TEXT
  5
CB
330
17
100
AcDbEntity
  8
G-TITLE
100
AcDbText
 10
122000.0
 20
6700.0
 30
0.0
 40
950.0
  1
基本計画　／　本図は建築基準法令に基づく計画段階の検討図であり、確認申請・構造計算・関係機関協議により確定する
  7
JP
 11
122000.0
 21
6700.0
 31
0.0
100
AcDbText
  0
LINE
  5
CC
330
17
100
AcDbEntity
  8
G-TITLE
100
AcDbLine
 10
188000.0
 20
9500.0
 30
0.0
 11
188000.0
 21
19000.0
 31
0.0
  0
TEXT
  5
CD
330
17
100
AcDbEntity
  8
G-TITLE
100
AcDbText
 10
188750.0
 20
17500.0
 30
0.0
 40
1000.0
  1
図番
  7
JP
 11
188750.0
 21
17500.0
 31
0.0
100
AcDbText
  0
TEXT
  5
CE
330
17
100
AcDbEntity
  8
G-TITLE
100
AcDbText
 10
196500.0
 20
14000.0
 30
0.0
 40
3000.0
  1
A-01
  7
JP
 72
1
 11
196500.0
 21
14000.0
 31
0.0
100
AcDbText
 73
1
  0
LWPOLYLINE
  5
CF
330
17
100
AcDbEntity
  8
A-NEIGH
370
9
100
AcDbPolyline
 90
5
 70
1
 10
109910.0
 20
35380.0
 10
109910.0
 20
124620.0
 10
15090.0
 20
124620.0
 10
15090.0
 20
35380.0
 10
109910.0
 20
35380.0
  0
LWPOLYLINE
  5
D0
330
17
100
AcDbEntity
  8
A-NEIGH
100
AcDbPolyline
 90
5
 70
0
 10
31530.0
 20
115040.0
 10
29960.0
 20
111890.0
 10
15770.0
 20
118440.0
 10
17220.0
 20
121590.0
 10
31530.0
 20
115040.0
  0
LWPOLYLINE
  5
D1
330
17
100
AcDbEntity
  8
A-NEIGH
100
AcDbPolyline
 90
5
 70
0
 10
35540.0
 20
71500.0
 10
34810.0
 20
69080.0
 10
31660.0
 20
70050.0
 10
32380.0
 20
72470.0
 10
35540.0
 20
71500.0
  0
LWPOLYLINE
  5
D2
330
17
100
AcDbEntity
  8
A-NEIGH
100
AcDbPolyline
 90
5
 70
0
 10
53850.0
 20
69680.0
 10
52640.0
 20
65680.0
 10
49970.0
 20
66530.0
 10
51180.0
 20
70530.0
 10
53850.0
 20
69680.0
  0
LWPOLYLINE
  5
D3
330
17
100
AcDbEntity
  8
A-NEIGH
100
AcDbPolyline
 90
5
 70
0
 10
56520.0
 20
63250.0
 10
54820.0
 20
54160.0
 10
50330.0
 20
55010.0
 10
51910.0
 20
64100.0
 10
56520.0
 20
63250.0
  0
LWPOLYLINE
  5
D4
330
17
100
AcDbEntity
  8
A-NEIGH
100
AcDbPolyline
 90
7
 70
0
 10
60160.0
 20
60460.0
 10
59790.0
 20
59490.0
 10
61610.0
 20
58890.0
 10
59190.0
 20
49790.0
 10
54460.0
 20
50880.0
 10
57370.0
 20
61310.0
 10
60160.0
 20
60460.0
  0
LWPOLYLINE
  5
D5
330
17
100
AcDbEntity
  8
A-NEIGH
100
AcDbPolyline
 90
5
 70
0
 10
108910.0
 20
98790.0
 10
107940.0
 20
96490.0
 10
102970.0
 20
98430.0
 10
103940.0
 20
100730.0
 10
108910.0
 20
98790.0
  0
LWPOLYLINE
  5
D6
330
17
100
AcDbEntity
  8
A-NEIGH
100
AcDbPolyline
 90
5
 70
0
 10
31780.0
 20
44700.0
 10
30440.0
 20
39000.0
 10
26080.0
 20
39970.0
 10
27410.0
 20
45670.0
 10
31780.0
 20
44700.0
  0
LWPOLYLINE
  5
D7
330
17
100
AcDbEntity
  8
A-NEIGH
100
AcDbPolyline
 90
3
 70
0
 10
15090.0
 20
102474.3396226415
 10
16860.000000000007
 20
101940.0
 10
15090.0
 20
96025.313304721
  0
LWPOLYLINE
  5
D8
330
17
100
AcDbEntity
  8
A-NEIGH
100
AcDbPolyline
 90
11
 70
0
 10
32750.0
 20
82420.0
 10
33230.0
 20
83390.0
 10
38080.0
 20
81570.0
 10
35660.0
 20
75380.0
 10
30560.0
 20
77440.0
 10
28989.999999999996
 20
73560.0
 10
23770.0
 20
75620.0
 10
24010.0
 20
76350.0
 10
20740.0
 20
77570.0
 10
24010.0
 20
85810.0
 10
32750.0
 20
82420.0
  0
LWPOLYLINE
  5
D9
330
17
100
AcDbEntity
  8
A-NEIGH
100
AcDbPolyline
 90
11
 70
0
 10
45720.0
 20
79140.0
 10
43910.0
 20
74170.0
 10
43420.0
 20
74290.0
 10
42690.0
 20
72470.0
 10
39780.0
 20
73560.0
 10
38810.0
 20
71020.0
 10
36020.0
 20
71990.0
 10
37480.0
 20
76110.0
 10
36870.0
 20
76350.0
 10
38690.0
 20
81690.0
 10
45720.0
 20
79140.0
  0
LWPOLYLINE
  5
DA
330
17
100
AcDbEntity
  8
A-NEIGH
100
AcDbPolyline
 90
13
 70
0
 10
39170.0
 20
68470.0
 10
39050.0
 20
66890.0
 10
41240.0
 20
66650.0
 10
40510.0
 20
58890.0
 10
30680.0
 20
59860.0
 10
30680.0
 20
60590.0
 10
29350.000000000004
 20
60830.0
 10
29589.999999999996
 20
64470.0
 10
31170.0
 20
64350.0
 10
31410.0
 20
66160.0
 10
32380.0
 20
66040.0
 10
32630.0
 20
69080.0
 10
39170.0
 20
68470.0
  0
LWPOLYLINE
  5
DB
330
17
100
AcDbEntity
  8
A-NEIGH
100
AcDbPolyline
 90
8
 70
0
 10
101880.0
 20
123900.0
 10
101270.0
 20
121470.0
 10
100420.0
 20
121710.0
 10
99330.0
 20
117950.0
 10
91090.0
 20
120380.0
 10
90720.0
 20
119410.0
 10
87330.0
 20
120380.0
 10
88620.43478260869
 20
124620.0
  0
LWPOLYLINE
  5
DC
330
17
100
AcDbEntity
  8
A-NEIGH
100
AcDbPolyline
 90
3
 70
0
 10
89123.41176470587
 20
124620.0
 10
91690.0
 20
123900.0
 10
91887.59398496241
 20
124620.0
  0
LWPOLYLINE
  5
DD
330
17
100
AcDbEntity
  8
A-NEIGH
100
AcDbPolyline
 90
2
 70
0
 10
99319.39849624061
 20
124620.0
 10
101880.0
 20
123900.0
  0
LWPOLYLINE
  5
DE
330
17
100
AcDbEntity
  8
A-NEIGH
100
AcDbPolyline
 90
7
 70
0
 10
106850.0
 20
68470.0
 10
104790.0
 20
59490.0
 10
94000.0
 20
62040.0
 10
95820.0
 20
70050.0
 10
98730.0
 20
69440.0
 10
98970.0
 20
70290.0
 10
106850.0
 20
68470.0
  0
LWPOLYLINE
  5
DF
330
17
100
AcDbEntity
  8
A-NEIGH
100
AcDbPolyline
 90
5
 70
0
 10
22560.0
 20
46640.0
 10
21950.0
 20
43610.0
 10
25110.000000000007
 20
42880.0
 10
23650.0
 20
36570.0
 10
15090.0
 20
38519.58367346939
  0
LWPOLYLINE
  5
E0
330
17
100
AcDbEntity
  8
A-NEIGH
100
AcDbPolyline
 90
4
 70
0
 10
15090.0
 20
45412.93129770993
 10
19410.0
 20
44450.0
 10
20010.0
 20
47240.0
 10
22560.0
 20
46640.0
  0
LWPOLYLINE
  5
E1
330
17
100
AcDbEntity
  8
A-NEIGH
100
AcDbPolyline
 90
2
 70
0
 10
32020.0
 20
36090.0
 10
31856.809605488845
 20
35380.0
  0
LWPOLYLINE
  5
E2
330
17
100
AcDbEntity
  8
A-NEIGH
100
AcDbPolyline
 90
3
 70
0
 10
24533.924843423803
 20
35380.0
 10
25110.000000000007
 20
37900.000000000015
 10
32020.0
 20
36090.0
  0
LWPOLYLINE
  5
E3
330
17
100
AcDbEntity
  8
A-NEIGH
100
AcDbPolyline
 90
4
 70
0
 10
109910.0
 20
52285.22853957636
 10
107340.0
 20
52460.0
 10
108070.0
 20
66040.0
 10
109910.0
 20
65916.92307692308
  0
LWPOLYLINE
  5
E4
330
17
100
AcDbEntity
  8
A-ROAD
100
AcDbPolyline
 90
7
 70
0
 10
42041.66184971098
 20
124620.0
 10
63430.0
 20
117950.0
 10
74350.0
 20
116130.0
 10
83200.0
 20
115290.0
 10
100910.0
 20
114560.0
 10
103090.0
 20
115530.0
 10
106180.30463038181
 20
124620.0
  0
LWPOLYLINE
  5
E5
330
17
100
AcDbEntity
  8
A-ROAD
100
AcDbPolyline
 90
5
 70
0
 10
53610.0
 20
117710.0
 10
52400.0
 20
116980.0
 10
39420.0
 20
120620.0
 10
38450.0
 20
122440.0
 10
32574.02298850575
 20
124620.0
  0
LWPOLYLINE
  5
E6
330
17
100
AcDbEntity
  8
A-ROAD
100
AcDbPolyline
 90
12
 70
0
 10
15090.0
 20
56966.60516605167
 10
73010.0
 20
44330.0
 10
75200.0
 20
45300.0
 10
77020.0
 20
47240.0
 10
87080.0
 20
78410.0
 10
96060.0
 20
97820.0
 10
100910.0
 20
110310.0
 10
99820.0
 20
111890.0
 10
82960.0
 20
112620.0
 10
74110.0
 20
113470.0
 10
67800.0
 20
114320.0
 10
56520.0
 20
116860.0
  0
LWPOLYLINE
  5
E7
330
17
100
AcDbEntity
  8
A-ROAD
100
AcDbPolyline
 90
4
 70
0
 10
56520.0
 20
116860.0
 10
54700.0
 20
110430.0
 10
51790.0
 20
111280.0
 10
53610.0
 20
117710.0
  0
LWPOLYLINE
  5
E8
330
17
100
AcDbEntity
  8
A-ROAD
100
AcDbPolyline
 90
3
 70
0
 10
79129.13319238901
 20
35380.0
 10
71560.0
 20
37180.0
 10
15090.0
 20
49310.94889267461
  0
LWPOLYLINE
  5
E9
330
17
100
AcDbEntity
  8
A-ROAD
100
AcDbPolyline
 90
5
 70
0
 10
109910.0
 20
118130.44134727062
 10
107340.0
 20
110310.0
 10
92180.0
 20
76350.0
 10
82720.0
 20
46880.0
 10
109910.0
 20
40550.67218543046
  0
HATCH
  5
EA
330
17
100
AcDbEntity
  8
A-WATER
 62
7
100
AcDbHatch
 10
0.0
 20
0.0
 30
0.0
210
0.0
220
0.0
230
1.0
  2
ANSI31
 70
0
 71
0
 91
1
 92
3
 72
0
 73
1
 93
13
 10
30560.0
 20
121590.0
 10
55550.0
 20
113590.0
 10
72160.0
 20
109580.0
 10
79440.0
 20
108740.0
 10
91810.0
 20
108740.0
 10
91570.0
 20
106190.0
 10
79320.0
 20
106310.0
 10
71680.0
 20
107160.0
 10
54820.0
 20
111160.0
 10
30320.0
 20
119050.0
 10
20500.000000000007
 20
122930.0
 10
16914.902912621365
 20
124620.0
 10
22993.911764705874
 20
124620.0
 97
0
 75
1
 76
1
 52
0.0
 41
236.2204724409449
 77
0
 78
1
 53
45.0
 43
0.0
 44
0.0
 45
-530.3300858976
 46
530.3300858976
 79
0
 98
0
  0
LWPOLYLINE
  5
EB
330
17
100
AcDbEntity
  8
A-WATER
100
AcDbPolyline
 90
14
 70
1
 10
30560.0
 20
121590.0
 10
55550.0
 20
113590.0
 10
72160.0
 20
109580.0
 10
79440.0
 20
108740.0
 10
91810.0
 20
108740.0
 10
91570.0
 20
106190.0
 10
79320.0
 20
106310.0
 10
71680.0
 20
107160.0
 10
54820.0
 20
111160.0
 10
30320.0
 20
119050.0
 10
20500.000000000007
 20
122930.0
 10
16914.902912621365
 20
124620.0
 10
22993.911764705874
 20
124620.0
 10
30560.0
 20
121590.0
  0
HATCH
  5
EC
330
17
100
AcDbEntity
  8
A-WATER
 62
7
100
AcDbHatch
 10
0.0
 20
0.0
 30
0.0
210
0.0
220
0.0
230
1.0
  2
ANSI31
 70
0
 71
0
 91
1
 92
3
 72
0
 73
1
 93
4
 10
72500.35947712418
 20
35380.0
 10
70658.31402831402
 20
35380.0
 10
70830.0
 20
35960.0
 10
72530.0
 20
35480.000000000015
 97
0
 75
1
 76
1
 52
0.0
 41
236.2204724409449
 77
0
 78
1
 53
45.0
 43
0.0
 44
0.0
 45
-530.3300858976
 46
530.3300858976
 79
0
 98
0
  0
LWPOLYLINE
  5
ED
330
17
100
AcDbEntity
  8
A-WATER
100
AcDbPolyline
 90
5
 70
1
 10
72500.35947712418
 20
35380.0
 10
70658.31402831402
 20
35380.0
 10
70830.0
 20
35960.0
 10
72530.0
 20
35480.000000000015
 10
72500.35947712418
 20
35380.0
  0
LWPOLYLINE
  5
EE
330
17
100
AcDbEntity
  8
A-HIDDEN
100
AcDbPolyline
 90
17
 70
1
 10
73740.0
 20
104250.0
 10
73260.0
 20
102670.0
 10
84410.0
 20
99280.0
 10
85020.0
 20
98790.0
 10
86840.0
 20
96000.0
 10
87450.0
 20
93450.0
 10
87690.0
 20
91270.0
 10
86960.0
 20
86420.0
 10
85870.0
 20
84110.0
 10
82960.0
 20
80720.0
 10
78960.0
 20
78050.0
 10
76890.0
 20
77690.0
 10
66590.0
 20
80840.0
 10
65860.0
 20
78540.0
 10
42210.0
 20
85690.0
 10
49970.0
 20
111400.0
 10
73740.0
 20
104250.0
  0
LWPOLYLINE
  5
EF
330
17
100
AcDbEntity
  8
A-HIDDEN
100
AcDbPolyline
 90
9
 70
1
 10
89510.0
 20
103520.0
 10
92660.0
 20
105100.0
 10
95570.0
 20
99520.0
 10
93150.0
 20
98180.0
 10
94360.0
 20
95880.0
 10
88900.0
 20
92970.0
 10
83810.0
 20
102790.0
 10
88540.0
 20
105220.0
 10
89510.0
 20
103520.0
  0
LWPOLYLINE
  5
F0
330
17
100
AcDbEntity
  8
A-TERRAIN
370
9
100
AcDbPolyline
 90
13
 70
0
 10
109910.0
 20
66767.39293361884
 10
98600.0
 20
67500.0
 10
94850.0
 20
69440.0
 10
93030.0
 20
72590.0
 10
94240.0
 20
75020.0
 10
101150.0
 20
84600.0
 10
103090.0
 20
92850.0
 10
102970.0
 20
97090.0
 10
92060.0
 20
100850.0
 10
81380.0
 20
101580.0
 10
61130.0
 20
105460.0
 10
26320.000000000007
 20
116380.0
 10
15090.0
 20
120460.06496751624
  0
LWPOLYLINE
  5
F1
330
17
100
AcDbEntity
  8
A-SITE
100
AcDbPolyline
 90
17
 70
1
 10
33340.0
 20
115620.0
 10
54810.0
 20
111180.0
 10
71710.0
 20
107180.0
 10
79310.0
 20
106280.0
 10
91610.0
 20
106180.0
 10
91810.0
 20
108780.0
 10
100910.0
 20
110280.0
 10
96010.0
 20
97780.0
 10
87110.0
 20
78380.0
 10
77010.0
 20
47280.0
 10
75210.0
 20
45280.0
 10
73010.0
 20
44380.0
 10
59410.0
 20
47340.0
 10
64860.0
 20
67880.0
 10
49010.0
 20
71880.0
 10
47510.0
 20
79380.0
 10
24090.0
 20
85770.0
  0
HATCH
  5
F2
330
17
100
AcDbEntity
  8
A-CUT-HATCH
 62
7
100
AcDbHatch
 10
0.0
 20
0.0
 30
0.0
210
0.0
220
0.0
230
1.0
  2
ANSI31
 70
0
 71
0
 91
3
 92
3
 72
0
 73
1
 93
40
 10
91610.0
 20
106180.0
 10
91810.0
 20
108780.0
 10
100910.0
 20
110280.0
 10
96010.0
 20
97780.0
 10
87110.0
 20
78380.0
 10
78317.26766756819
 20
51305.34895657137
 10
78260.20157946696
 20
51323.88167328591
 10
78231.78810515715
 20
51331.59034870063
 10
78202.75586717243
 20
51336.476897237546
 10
78173.38446183526
 20
51338.49425876299
 10
78170.2902675469
 20
51338.402650259624
 10
86970.02744536567
 20
78434.62306908774
 10
95871.89423108517
 20
97838.6922424538
 10
100674.04723009796
 20
110089.08254605788
 10
91950.53084666253
 20
108651.14028505204
 10
91748.81747437872
 20
106028.8664453626
 10
79300.54186494712
 20
106130.0719381222
 10
71683.82006301825
 20
107032.05215150851
 10
54777.53056382087
 20
111033.5407903718
 10
33442.97218744981
 20
115445.53143737168
 10
24279.22003290985
 20
85873.85556569404
 10
47638.90833883482
 20
79500.31123286481
 10
49138.51664653914
 20
72002.26969434321
 10
65043.92287943138
 20
67988.28704881835
 10
59595.225876823075
 20
47453.19779495144
 10
60530.37854386015
 20
47249.66456741985
 10
60528.7396981655
 20
47247.03842667704
 10
60515.676409062806
 20
47220.65472570798
 10
60505.26207818801
 20
47193.11764322936
 10
60497.59700124047
 20
47164.692376398714
 10
60484.83690535867
 20
47106.06490883371
 10
59410.0
 20
47340.0
 10
64860.0
 20
67880.0
 10
49010.0
 20
71880.0
 10
47510.0
 20
79380.0
 10
24090.0
 20
85770.0
 10
33340.0
 20
115620.0
 10
54810.0
 20
111180.0
 10
71710.0
 20
107180.0
 10
79310.0
 20
106280.0
 97
0
 92
3
 72
0
 73
1
 93
18
 10
77010.0
 20
47280.0
 10
75210.0
 20
45280.0
 10
73010.0
 20
44380.0
 10
72423.72532434981
 20
44507.60095881797
 10
72436.4854202316
 20
44566.22842638299
 10
72441.32742437073
 20
44595.26812670723
 10
72443.29972455464
 20
44624.642592336226
 10
72442.38332645442
 20
44654.06893110827
 10
72441.98416525734
 20
44657.13863805692
 10
72996.35048478164
 20
44536.48243910163
 10
75121.45449150697
 20
45405.84316912564
 10
76877.18102520455
 20
47356.65042878961
 10
77684.70884802863
 20
49843.196497089506
 10
77687.15880837757
 20
49841.30437534381
 10
77712.11109766811
 20
49825.6796366847
 10
77738.47472706733
 20
49812.575887453844
 10
77765.99580041229
 20
49802.11932391957
 10
77823.06188851353
 20
49783.58660720501
 97
0
 92
3
 72
0
 73
1
 93
12
 10
66995.73114442156
 20
45839.516758962476
 10
66982.66785531887
 20
45813.13305799343
 10
66972.25352444407
 20
45785.59597551479
 10
66964.58844749653
 20
45757.17070868416
 10
66951.82835161473
 20
45698.54324111914
 10
62243.660932309234
 20
46723.26203237976
 10
62256.421028191035
 20
46781.88949994478
 10
62261.26303233015
 20
46810.929200269005
 10
62263.235332514065
 20
46840.30366589801
 10
62262.31893441385
 20
46869.73000467004
 10
62261.91977321675
 20
46872.7997116187
 10
66997.3699901162
 20
45842.142899705286
 97
0
 75
1
 76
1
 52
0.0
 41
157.48031496062993
 77
0
 78
1
 53
45.0
 43
0.0
 44
0.0
 45
-353.5533905984
 46
353.5533905984
 79
0
 98
0
  0
LWPOLYLINE
  5
F3
330
17
100
AcDbEntity
  8
A-FENCE
100
AcDbPolyline
 90
41
 70
1
 10
91610.0
 20
106180.0
 10
91810.0
 20
108780.0
 10
100910.0
 20
110280.0
 10
96010.0
 20
97780.0
 10
87110.0
 20
78380.0
 10
78317.26766756819
 20
51305.34895657137
 10
78260.20157946696
 20
51323.88167328591
 10
78231.78810515715
 20
51331.59034870063
 10
78202.75586717243
 20
51336.476897237546
 10
78173.38446183526
 20
51338.49425876299
 10
78170.2902675469
 20
51338.402650259624
 10
86970.02744536567
 20
78434.62306908774
 10
95871.89423108517
 20
97838.6922424538
 10
100674.04723009796
 20
110089.08254605788
 10
91950.53084666253
 20
108651.14028505204
 10
91748.81747437872
 20
106028.8664453626
 10
79300.54186494712
 20
106130.0719381222
 10
71683.82006301825
 20
107032.05215150851
 10
54777.53056382087
 20
111033.5407903718
 10
33442.97218744981
 20
115445.53143737168
 10
24279.22003290985
 20
85873.85556569404
 10
47638.90833883482
 20
79500.31123286481
 10
49138.51664653914
 20
72002.26969434321
 10
65043.92287943138
 20
67988.28704881835
 10
59595.225876823075
 20
47453.19779495144
 10
60530.37854386015
 20
47249.66456741985
 10
60528.7396981655
 20
47247.03842667704
 10
60515.676409062806
 20
47220.65472570798
 10
60505.26207818801
 20
47193.11764322936
 10
60497.59700124047
 20
47164.692376398714
 10
60484.83690535867
 20
47106.06490883371
 10
59410.0
 20
47340.0
 10
64860.0
 20
67880.0
 10
49010.0
 20
71880.0
 10
47510.0
 20
79380.0
 10
24090.0
 20
85770.0
 10
33340.0
 20
115620.0
 10
54810.0
 20
111180.0
 10
71710.0
 20
107180.0
 10
79310.0
 20
106280.0
 10
91610.0
 20
106180.0
  0
LWPOLYLINE
  5
F4
330
17
100
AcDbEntity
  8
A-FENCE
100
AcDbPolyline
 90
19
 70
1
 10
77010.0
 20
47280.0
 10
75210.0
 20
45280.0
 10
73010.0
 20
44380.0
 10
72423.72532434981
 20
44507.60095881797
 10
72436.4854202316
 20
44566.22842638299
 10
72441.32742437073
 20
44595.26812670723
 10
72443.29972455464
 20
44624.642592336226
 10
72442.38332645442
 20
44654.06893110827
 10
72441.98416525734
 20
44657.13863805692
 10
72996.35048478164
 20
44536.48243910163
 10
75121.45449150697
 20
45405.84316912564
 10
76877.18102520455
 20
47356.65042878961
 10
77684.70884802863
 20
49843.196497089506
 10
77687.15880837757
 20
49841.30437534381
 10
77712.11109766811
 20
49825.6796366847
 10
77738.47472706733
 20
49812.575887453844
 10
77765.99580041229
 20
49802.11932391957
 10
77823.06188851353
 20
49783.58660720501
 10
77010.0
 20
47280.0
  0
LWPOLYLINE
  5
F5
330
17
100
AcDbEntity
  8
A-FENCE
100
AcDbPolyline
 90
13
 70
1
 10
66995.73114442156
 20
45839.516758962476
 10
66982.66785531887
 20
45813.13305799343
 10
66972.25352444407
 20
45785.59597551479
 10
66964.58844749653
 20
45757.17070868416
 10
66951.82835161473
 20
45698.54324111914
 10
62243.660932309234
 20
46723.26203237976
 10
62256.421028191035
 20
46781.88949994478
 10
62261.26303233015
 20
46810.929200269005
 10
62263.235332514065
 20
46840.30366589801
 10
62262.31893441385
 20
46869.73000467004
 10
62261.91977321675
 20
46872.7997116187
 10
66997.3699901162
 20
45842.142899705286
 10
66995.73114442156
 20
45839.516758962476
  0
LINE
  5
F6
330
17
100
AcDbEntity
  8
A-DOOR
370
35
100
AcDbLine
 10
72130.58798652471
 20
44571.40143822697
 30
0.0
 11
67244.96568943982
 21
45634.74276171015
 31
0.0
  0
LINE
  5
F7
330
17
100
AcDbEntity
  8
A-DOOR
370
35
100
AcDbLine
 10
61950.52359448414
 20
46787.06251178874
 30
0.0
 11
60777.974243183766
 21
47042.264429424715
 31
0.0
  0
LINE
  5
F8
330
17
100
AcDbEntity
  8
A-DOOR
370
35
100
AcDbLine
 10
78224.60408399545
 20
51020.018516065174
 30
0.0
 11
77915.72547208628
 21
50068.917047711206
 31
0.0
  0
LWPOLYLINE
  5
F9
330
17
100
AcDbEntity
  8
A-VIS
370
9
100
AcDbPolyline
 90
9
 70
0
 10
59260.0
 20
77630.0
 10
59260.0
 20
77750.0
 10
59260.0
 20
96250.0
 10
59260.0
 20
96370.0
 10
78000.0
 20
96370.0
 10
78000.0
 20
96250.0
 10
78000.0
 20
77750.0
 10
78000.0
 20
77630.0
 10
59260.0
 20
77630.0
  0
LWPOLYLINE
  5
FA
330
17
100
AcDbEntity
  8
A-VIS
370
9
100
AcDbPolyline
 90
5
 70
0
 10
77880.0
 20
77750.0
 10
77880.0
 20
96250.0
 10
59380.0
 20
96250.0
 10
59380.0
 20
77750.0
 10
77880.0
 20
77750.0
  0
LWPOLYLINE
  5
FB
330
17
100
AcDbEntity
  8
A-VIS
370
9
100
AcDbPolyline
 90
9
 70
0
 10
59380.0
 20
77750.0
 10
59380.0
 20
78000.0
 10
59380.0
 20
96000.0
 10
59380.0
 20
96250.0
 10
77880.0
 20
96250.0
 10
77880.0
 20
96000.0
 10
77880.0
 20
78000.0
 10
77880.0
 20
77750.0
 10
59380.0
 20
77750.0
  0
LWPOLYLINE
  5
FC
330
17
100
AcDbEntity
  8
A-VIS
370
9
100
AcDbPolyline
 90
5
 70
0
 10
77630.0
 20
78000.0
 10
77630.0
 20
96000.0
 10
59630.0
 20
96000.0
 10
59630.0
 20
78000.0
 10
77630.0
 20
78000.0
  0
LWPOLYLINE
  5
FD
330
17
100
AcDbEntity
  8
A-STRS
370
9
100
AcDbPolyline
 90
8
 70
0
 10
67305.0
 20
75630.0
 10
67305.0
 20
77630.0
 10
68105.0
 20
77630.0
 10
68305.0
 20
77630.0
 10
69105.0
 20
77630.0
 10
69905.0
 20
77630.0
 10
69905.0
 20
75630.0
 10
67305.0
 20
75630.0
  0
LWPOLYLINE
  5
FE
330
17
100
AcDbEntity
  8
A-STRS
370
9
100
AcDbPolyline
 90
5
 70
0
 10
67605.0
 20
75330.0
 10
67605.0
 20
75630.0
 10
69605.0
 20
75630.0
 10
69605.0
 20
75330.0
 10
67605.0
 20
75330.0
  0
LWPOLYLINE
  5
FF
330
17
100
AcDbEntity
  8
A-STRS
370
9
100
AcDbPolyline
 90
5
 70
0
 10
67605.0
 20
75030.0
 10
67605.0
 20
75330.0
 10
69605.0
 20
75330.0
 10
69605.0
 20
75030.0
 10
67605.0
 20
75030.0
  0
LWPOLYLINE
  5
100
330
17
100
AcDbEntity
  8
A-STRS
370
9
100
AcDbPolyline
 90
5
 70
0
 10
67605.0
 20
74730.0
 10
67605.0
 20
75030.0
 10
69605.0
 20
75030.0
 10
69605.0
 20
74730.0
 10
67605.0
 20
74730.0
  0
LWPOLYLINE
  5
101
330
17
100
AcDbEntity
  8
A-CUT
370
50
100
AcDbPolyline
 90
4
 70
1
 10
59260.0
 20
77630.0
 10
78000.0
 20
77630.0
 10
78000.0
 20
96370.0
 10
59260.0
 20
96370.0
  0
HATCH
  5
102
330
17
100
AcDbEntity
  8
A-PAVE
 62
7
100
AcDbHatch
 10
0.0
 20
0.0
 30
0.0
210
0.0
220
0.0
230
1.0
  2
NET
 70
0
 71
0
 91
1
 92
3
 72
0
 73
1
 93
10
 10
69705.0
 20
61975.0
 10
69705.0
 20
75330.0
 10
73305.0
 20
75330.0
 10
73305.0
 20
61975.0
 10
78605.0
 20
61975.0
 10
78605.0
 20
52676.96430167461
 10
76877.18102520455
 20
47356.65042878961
 10
76443.6956392939
 20
46875.0
 10
63905.0
 20
46875.0
 10
63905.0
 20
61975.0
 97
0
 75
1
 76
1
 52
0.0
 41
157.48031496062993
 77
0
 78
2
 53
0.0
 43
0.0
 44
0.0
 45
0.0
 46
500.0
 79
0
 53
90.0
 43
0.0
 44
0.0
 45
-500.0
 46
0.0
 79
0
 98
0
  0
LWPOLYLINE
  5
103
330
17
100
AcDbEntity
  8
A-VIS
370
25
100
AcDbPolyline
 90
4
 70
1
 10
32505.0
 20
88875.0
 10
50505.0
 20
88875.0
 10
50505.0
 20
98875.0
 10
32505.0
 20
98875.0
  0
LINE
  5
104
330
17
100
AcDbEntity
  8
A-VIS
100
AcDbLine
 10
32505.0
 20
88875.0
 30
0.0
 11
50505.0
 21
98875.0
 31
0.0
  0
LINE
  5
105
330
17
100
AcDbEntity
  8
A-VIS
100
AcDbLine
 10
32505.0
 20
98875.0
 30
0.0
 11
50505.0
 21
88875.0
 31
0.0
  0
CIRCLE
  5
106
330
17
100
AcDbEntity
  8
A-SYMB
100
AcDbCircle
 10
33340.0
 20
115620.0
 30
0.0
 40
450.0
  0
TEXT
  5
107
330
17
100
AcDbEntity
  8
A-SYMB
100
AcDbText
 10
31763.20414837115
 20
117154.18214117036
 30
0.0
 40
900.0
  1
1
  7
JP
 72
1
 11
31763.20414837115
 21
117154.18214117036
 31
0.0
100
AcDbText
 73
2
  0
CIRCLE
  5
108
330
17
100
AcDbEntity
  8
A-SYMB
100
AcDbCircle
 10
54810.0
 20
111180.0
 30
0.0
 40
450.0
  0
TEXT
  5
109
330
17
100
AcDbEntity
  8
A-SYMB
100
AcDbText
 10
54113.980670252335
 20
113266.99714724711
 30
0.0
 40
900.0
  1
2
  7
JP
 72
1
 11
54113.980670252335
 21
113266.99714724711
 31
0.0
100
AcDbText
 73
2
  0
CIRCLE
  5
10A
330
17
100
AcDbEntity
  8
A-SYMB
100
AcDbCircle
 10
71710.0
 20
107180.0
 30
0.0
 40
450.0
  0
TEXT
  5
10B
330
17
100
AcDbEntity
  8
A-SYMB
100
AcDbText
 10
72581.36247249083
 20
109200.08104825887
 30
0.0
 40
900.0
  1
3
  7
JP
 72
1
 11
72581.36247249083
 21
109200.08104825887
 31
0.0
100
AcDbText
 73
2
  0
CIRCLE
  5
10C
330
17
100
AcDbEntity
  8
A-SYMB
100
AcDbCircle
 10
79310.0
 20
106280.0
 30
0.0
 40
450.0
  0
TEXT
  5
10D
330
17
100
AcDbEntity
  8
A-SYMB
100
AcDbText
 10
80727.01611887351
 20
107962.87412448248
 30
0.0
 40
900.0
  1
4
  7
JP
 72
1
 11
80727.01611887351
 21
107962.87412448248
 31
0.0
100
AcDbText
 73
2
  0
CIRCLE
  5
10E
330
17
100
AcDbEntity
  8
A-SYMB
100
AcDbCircle
 10
91610.0
 20
106180.0
 30
0.0
 40
450.0
  0
TEXT
  5
10F
330
17
100
AcDbEntity
  8
A-SYMB
100
AcDbText
 10
93433.65858566738
 20
107410.55652569138
 30
0.0
 40
900.0
  1
5
  7
JP
 72
1
 11
93433.65858566738
 21
107410.55652569138
 31
0.0
100
AcDbText
 73
2
  0
CIRCLE
  5
110
330
17
100
AcDbEntity
  8
A-SYMB
100
AcDbCircle
 10
91810.0
 20
108780.0
 30
0.0
 40
450.0
  0
TEXT
  5
111
330
17
100
AcDbEntity
  8
A-SYMB
100
AcDbText
 10
93561.44527507992
 20
110111.32995474458
 30
0.0
 40
900.0
  1
6
  7
JP
 72
1
 11
93561.44527507992
 21
110111.32995474458
 31
0.0
100
AcDbText
 73
2
  0
CIRCLE
  5
112
330
17
100
AcDbEntity
  8
A-SYMB
100
AcDbCircle
 10
100910.0
 20
110280.0
 30
0.0
 40
450.0
  0
TEXT
  5
113
330
17
100
AcDbEntity
  8
A-SYMB
100
AcDbText
 10
102781.88353696655
 20
111435.87716649892
 30
0.0
 40
900.0
  1
7
  7
JP
 72
1
 11
102781.88353696655
 21
111435.87716649892
 31
0.0
100
AcDbText
 73
2
  0
CIRCLE
  5
114
330
17
100
AcDbEntity
  8
A-SYMB
100
AcDbCircle
 10
96010.0
 20
97780.0
 30
0.0
 40
450.0
  0
TEXT
  5
115
330
17
100
AcDbEntity
  8
A-SYMB
100
AcDbText
 10
98098.51226977012
 20
98471.45968719781
 30
0.0
 40
900.0
  1
8
  7
JP
 72
1
 11
98098.51226977012
 21
98471.45968719781
 31
0.0
100
AcDbText
 73
2
  0
CIRCLE
  5
116
330
17
100
AcDbEntity
  8
A-SYMB
100
AcDbCircle
 10
87110.0
 20
78380.0
 30
0.0
 40
450.0
  0
TEXT
  5
117
330
17
100
AcDbEntity
  8
A-SYMB
100
AcDbText
 10
89186.86689150445
 20
77654.31142011698
 30
0.0
 40
900.0
  1
9
  7
JP
 72
1
 11
89186.86689150445
 21
77654.31142011698
 31
0.0
100
AcDbText
 73
2
  0
CIRCLE
  5
118
330
17
100
AcDbEntity
  8
A-SYMB
100
AcDbCircle
 10
77010.0
 20
47280.0
 30
0.0
 40
450.0
  0
TEXT
  5
119
330
17
100
AcDbEntity
  8
A-SYMB
100
AcDbText
 10
77747.81310364886
 20
45207.409393033915
 30
0.0
 40
900.0
  1
10
  7
JP
 72
1
 11
77747.81310364886
 21
45207.409393033915
 31
0.0
100
AcDbText
 73
2
  0
CIRCLE
  5
11A
330
17
100
AcDbEntity
  8
A-SYMB
100
AcDbCircle
 10
75210.0
 20
45280.0
 30
0.0
 40
450.0
  0
TEXT
  5
11B
330
17
100
AcDbEntity
  8
A-SYMB
100
AcDbText
 10
75833.50208342249
 20
43170.202580348574
 30
0.0
 40
900.0
  1
11
  7
JP
 72
1
 11
75833.50208342249
 21
43170.202580348574
 31
0.0
100
AcDbText
 73
2
  0
CIRCLE
  5
11C
330
17
100
AcDbEntity
  8
A-SYMB
100
AcDbCircle
 10
73010.0
 20
44380.0
 30
0.0
 40
450.0
  0
TEXT
  5
11D
330
17
100
AcDbEntity
  8
A-SYMB
100
AcDbText
 10
73518.22465175117
 20
42239.50760259411
 30
0.0
 40
900.0
  1
12
  7
JP
 72
1
 11
73518.22465175117
 21
42239.50760259411
 31
0.0
100
AcDbText
 73
2
  0
CIRCLE
  5
11E
330
17
100
AcDbEntity
  8
A-SYMB
100
AcDbCircle
 10
59410.0
 20
47340.0
 30
0.0
 40
450.0
  0
TEXT
  5
11F
330
17
100
AcDbEntity
  8
A-SYMB
100
AcDbText
 10
59214.59310491443
 20
45148.69533260366
 30
0.0
 40
900.0
  1
13
  7
JP
 72
1
 11
59214.59310491443
 21
45148.69533260366
 31
0.0
100
AcDbText
 73
2
  0
CIRCLE
  5
120
330
17
100
AcDbEntity
  8
A-SYMB
100
AcDbCircle
 10
64860.0
 20
67880.0
 30
0.0
 40
450.0
  0
TEXT
  5
121
330
17
100
AcDbEntity
  8
A-SYMB
100
AcDbText
 10
65082.77702448543
 20
65691.30851937478
 30
0.0
 40
900.0
  1
14
  7
JP
 72
1
 11
65082.77702448543
 21
65691.30851937478
 31
0.0
100
AcDbText
 73
2
  0
CIRCLE
  5
122
330
17
100
AcDbEntity
  8
A-SYMB
100
AcDbCircle
 10
49010.0
 20
71880.0
 30
0.0
 40
450.0
  0
TEXT
  5
123
330
17
100
AcDbEntity
  8
A-SYMB
100
AcDbText
 10
47510.656542930985
 20
70270.04062233101
 30
0.0
 40
900.0
  1
15
  7
JP
 72
1
 11
47510.656542930985
 21
70270.04062233101
 31
0.0
100
AcDbText
 73
2
  0
CIRCLE
  5
124
330
17
100
AcDbEntity
  8
A-SYMB
100
AcDbCircle
 10
47510.0
 20
79380.0
 30
0.0
 40
450.0
  0
TEXT
  5
125
330
17
100
AcDbEntity
  8
A-SYMB
100
AcDbText
 10
45528.9681286829
 20
78423.17570848882
 30
0.0
 40
900.0
  1
16
  7
JP
 72
1
 11
45528.9681286829
 21
78423.17570848882
 31
0.0
100
AcDbText
 73
2
  0
CIRCLE
  5
126
330
17
100
AcDbEntity
  8
A-SYMB
100
AcDbCircle
 10
24090.0
 20
85770.0
 30
0.0
 40
450.0
  0
TEXT
  5
127
330
17
100
AcDbEntity
  8
A-SYMB
100
AcDbText
 10
21890.81631138052
 20
85710.07418160736
 30
0.0
 40
900.0
  1
17
  7
JP
 72
1
 11
21890.81631138052
 21
85710.07418160736
 31
0.0
100
AcDbText
 73
2
  0
TEXT
  5
128
330
17
100
AcDbEntity
  8
A-TEXT
100
AcDbText
 10
29505.0
 20
129875.0
 30
0.0
 40
1000.0
  1
水路（法定外公共物）／北側道路（幅員4m未満）TP+112.5〜113.0
  7
JP
 72
1
 11
29505.0
 21
129875.0
 31
0.0
100
AcDbText
 73
2
  0
TEXT
  5
129
330
17
100
AcDbEntity
  8
A-TEXT
100
AcDbText
 10
99505.0
 20
72875.0
 30
0.0
 40
1000.0
  1
東側道路 幅員約5.5m（北へ上り TP+109.0→112.9）
  7
JP
 72
1
 11
99505.0
 21
72875.0
 31
0.0
100
AcDbText
 73
2
  0
TEXT
  5
12A
330
17
100
AcDbEntity
  8
A-TEXT
100
AcDbText
 10
39505.0
 20
35875.0
 30
0.0
 40
1000.0
  1
南側道路 幅員約7.4m TP+109.0（設計GL±0）
  7
JP
 72
1
 11
39505.0
 21
35875.0
 31
0.0
100
AcDbText
 73
2
  0
TEXT
  5
12B
330
17
100
AcDbEntity
  8
A-ROOM
100
AcDbText
 10
68630.0
 20
88500.0
 30
0.0
 40
1100.0
  1
建物（壁式RC造 2階建て）
  7
JP
 72
1
 11
68630.0
 21
88500.0
 31
0.0
100
AcDbText
 73
2
  0
TEXT
  5
12C
330
17
100
AcDbEntity
  8
A-TEXT
100
AcDbText
 10
71105.0
 20
47875.0
 30
0.0
 40
950.0
  1
駐車場（Dotcon+）
  7
JP
 72
1
 11
71105.0
 21
47875.0
 31
0.0
100
AcDbText
 73
2
  0
TEXT
  5
12D
330
17
100
AcDbEntity
  8
A-TEXT
100
AcDbText
 10
41505.0
 20
86875.0
 30
0.0
 40
900.0
  1
ソーラーパーゴラ（菜園）
  7
JP
 72
1
 11
41505.0
 21
86875.0
 31
0.0
100
AcDbText
 73
2
  0
TEXT
  5
12E
330
17
100
AcDbEntity
  8
A-TEXT
100
AcDbText
 10
42505.0
 20
105375.0
 30
0.0
 40
950.0
  1
庭・雨水貯留浸透
  7
JP
 72
1
 11
42505.0
 21
105375.0
 31
0.0
100
AcDbText
 73
2
  0
TEXT
  5
12F
330
17
100
AcDbEntity
  8
A-TEXT
100
AcDbText
 10
51505.0
 20
103875.0
 30
0.0
 40
850.0
  1
破線: 既存建物（解体）
  7
JP
 72
1
 11
51505.0
 21
103875.0
 31
0.0
100
AcDbText
 73
2
  0
TEXT
  5
130
330
17
100
AcDbEntity
  8
A-TERRAIN
100
AcDbText
 10
68105.0
 20
84675.0
 30
0.0
 40
800.0
  1
+109.6
  7
JP
 72
1
 11
68105.0
 21
84675.0
 31
0.0
100
AcDbText
 73
2
  0
LINE
  5
131
330
17
100
AcDbEntity
  8
A-TERRAIN
100
AcDbLine
 10
67705.0
 20
86475.0
 30
0.0
 11
68505.0
 21
86475.0
 31
0.0
  0
LINE
  5
132
330
17
100
AcDbEntity
  8
A-TERRAIN
100
AcDbLine
 10
68105.0
 20
86075.0
 30
0.0
 11
68105.0
 21
86875.0
 31
0.0
  0
TEXT
  5
133
330
17
100
AcDbEntity
  8
A-TERRAIN
100
AcDbText
 10
41505.0
 20
94075.0
 30
0.0
 40
800.0
  1
+109.4
  7
JP
 72
1
 11
41505.0
 21
94075.0
 31
0.0
100
AcDbText
 73
2
  0
LINE
  5
134
330
17
100
AcDbEntity
  8
A-TERRAIN
100
AcDbLine
 10
41105.0
 20
95875.0
 30
0.0
 11
41905.0
 21
95875.0
 31
0.0
  0
LINE
  5
135
330
17
100
AcDbEntity
  8
A-TERRAIN
100
AcDbLine
 10
41505.0
 20
95475.0
 30
0.0
 11
41505.0
 21
96275.0
 31
0.0
  0
TEXT
  5
136
330
17
100
AcDbEntity
  8
A-TERRAIN
100
AcDbText
 10
67505.0
 20
52075.0
 30
0.0
 40
800.0
  1
+109.1
  7
JP
 72
1
 11
67505.0
 21
52075.0
 31
0.0
100
AcDbText
 73
2
  0
LINE
  5
137
330
17
100
AcDbEntity
  8
A-TERRAIN
100
AcDbLine
 10
67105.0
 20
53875.0
 30
0.0
 11
67905.0
 21
53875.0
 31
0.0
  0
LINE
  5
138
330
17
100
AcDbEntity
  8
A-TERRAIN
100
AcDbLine
 10
67505.0
 20
53475.0
 30
0.0
 11
67505.0
 21
54275.0
 31
0.0
  0
TEXT
  5
139
330
17
100
AcDbEntity
  8
A-TERRAIN
100
AcDbText
 10
67505.0
 20
116075.0
 30
0.0
 40
800.0
  1
+112.6
  7
JP
 72
1
 11
67505.0
 21
116075.0
 31
0.0
100
AcDbText
 73
2
  0
LINE
  5
13A
330
17
100
AcDbEntity
  8
A-TERRAIN
100
AcDbLine
 10
67105.0
 20
117875.0
 30
0.0
 11
67905.0
 21
117875.0
 31
0.0
  0
LINE
  5
13B
330
17
100
AcDbEntity
  8
A-TERRAIN
100
AcDbLine
 10
67505.0
 20
117475.0
 30
0.0
 11
67505.0
 21
118275.0
 31
0.0
  0
TEXT
  5
13C
330
17
100
AcDbEntity
  8
A-TERRAIN
100
AcDbText
 10
89505.0
 20
91075.0
 30
0.0
 40
800.0
  1
+111.8
  7
JP
 72
1
 11
89505.0
 21
91075.0
 31
0.0
100
AcDbText
 73
2
  0
LINE
  5
13D
330
17
100
AcDbEntity
  8
A-TERRAIN
100
AcDbLine
 10
89105.0
 20
92875.0
 30
0.0
 11
89905.0
 21
92875.0
 31
0.0
  0
LINE
  5
13E
330
17
100
AcDbEntity
  8
A-TERRAIN
100
AcDbLine
 10
89505.0
 20
92475.0
 30
0.0
 11
89505.0
 21
93275.0
 31
0.0
  0
TEXT
  5
13F
330
17
100
AcDbEntity
  8
A-TERRAIN
100
AcDbText
 10
49505.0
 20
36075.0
 30
0.0
 40
800.0
  1
+109.1
  7
JP
 72
1
 11
49505.0
 21
36075.0
 31
0.0
100
AcDbText
 73
2
  0
LINE
  5
140
330
17
100
AcDbEntity
  8
A-TERRAIN
100
AcDbLine
 10
49105.0
 20
37875.0
 30
0.0
 11
49905.0
 21
37875.0
 31
0.0
  0
LINE
  5
141
330
17
100
AcDbEntity
  8
A-TERRAIN
100
AcDbLine
 10
49505.0
 20
37475.0
 30
0.0
 11
49505.0
 21
38275.0
 31
0.0
  0
TEXT
  5
142
330
17
100
AcDbEntity
  8
A-TERRAIN
100
AcDbText
 10
84505.0
 20
51075.0
 30
0.0
 40
800.0
  1
+109.5
  7
JP
 72
1
 11
84505.0
 21
51075.0
 31
0.0
100
AcDbText
 73
2
  0
LINE
  5
143
330
17
100
AcDbEntity
  8
A-TERRAIN
100
AcDbLine
 10
84105.0
 20
52875.0
 30
0.0
 11
84905.0
 21
52875.0
 31
0.0
  0
LINE
  5
144
330
17
100
AcDbEntity
  8
A-TERRAIN
100
AcDbLine
 10
84505.0
 20
52475.0
 30
0.0
 11
84505.0
 21
53275.0
 31
0.0
  0
CIRCLE
  5
145
330
17
100
AcDbEntity
  8
A-SYMB
100
AcDbCircle
 10
15000.0
 20
135000.0
 30
0.0
 40
3000.0
  0
LWPOLYLINE
  5
146
330
17
100
AcDbEntity
  8
A-SYMB
100
AcDbPolyline
 90
4
 70
1
 10
15000.0
 20
138000.0
 10
13950.0
 20
133200.0
 10
15000.0
 20
134100.0
 10
16050.0
 20
133200.0
  0
HATCH
  5
147
330
17
100
AcDbEntity
  8
A-SYMB
 62
7
100
AcDbHatch
 10
0.0
 20
0.0
 30
0.0
210
0.0
220
0.0
230
1.0
  2
SOLID
 70
1
 71
0
 91
1
 92
3
 72
0
 73
1
 93
3
 10
15000.0
 20
138000.0
 10
15000.0
 20
134100.0
 10
16050.0
 20
133200.0
 97
0
 75
0
 76
1
 98
0
  0
TEXT
  5
148
330
17
100
AcDbEntity
  8
A-SYMB
100
AcDbText
 10
15000.0
 20
138750.0
 30
0.0
 40
1750.0
  1
N
  7
JP
 72
1
 11
15000.0
 21
138750.0
 31
0.0
100
AcDbText
 73
1
  0
TEXT
  5
149
330
17
100
AcDbEntity
  8
A-TEXT
100
AcDbText
 10
9000.0
 20
11000.0
 30
0.0
 40
2000.0
  1
配置図
  7
JP
 11
9000.0
 21
11000.0
 31
0.0
100
AcDbText
 73
1
  0
LINE
  5
14A
330
17
100
AcDbEntity
  8
A-SYMB
370
50
100
AcDbLine
 10
9000.0
 20
10400.0
 30
0.0
 11
18780.0
 21
10400.0
 31
0.0
  0
TEXT
  5
14B
330
17
100
AcDbEntity
  8
A-TEXT
100
AcDbText
 10
19280.0
 20
11000.0
 30
0.0
 40
1400.0
  1
S=1:500
  7
JP
 11
19280.0
 21
11000.0
 31
0.0
100
AcDbText
 73
1
  0
TEXT
  5
14C
330
17
100
AcDbEntity
  8
A-TEXT
100
AcDbText
 10
9000.0
 20
7500.0
 30
0.0
 40
1000.0
  1
敷地境界・道路縁・水路・隣接建物・等高線: 国土地理院 基盤地図情報／標高: DEM5A（TP m）
  7
JP
 11
9000.0
 21
7500.0
 31
0.0
100
AcDbText
  0
TEXT
  5
14D
330
17
100
AcDbEntity
  8
A-TEXT
100
AcDbText
 10
125000.0
 20
140000.0
 30
0.0
 40
1300.0
  1
座標求積表（建物 X1・Y1 壁芯交点を原点、m）
  7
JP
 11
125000.0
 21
140000.0
 31
0.0
100
AcDbText
  0
LWPOLYLINE
  5
14E
330
17
100
AcDbEntity
  8
G-TABLE
370
35
100
AcDbPolyline
 90
2
 70
0
 10
125000.0
 20
138500.0
 10
185000.0
 20
138500.0
  0
TEXT
  5
14F
330
17
100
AcDbEntity
  8
A-TEXT
100
AcDbText
 10
125500.0
 20
136975.0
 30
0.0
 40
925.0
  1
点
  7
JP
 11
125500.0
 21
136975.0
 31
0.0
100
AcDbText
  0
TEXT
  5
150
330
17
100
AcDbEntity
  8
A-TEXT
100
AcDbText
 10
131500.0
 20
136975.0
 30
0.0
 40
925.0
  1
X(m)
  7
JP
 11
131500.0
 21
136975.0
 31
0.0
100
AcDbText
  0
TEXT
  5
151
330
17
100
AcDbEntity
  8
A-TEXT
100
AcDbText
 10
146500.0
 20
136975.0
 30
0.0
 40
925.0
  1
Y(m)
  7
JP
 11
146500.0
 21
136975.0
 31
0.0
100
AcDbText
  0
TEXT
  5
152
330
17
100
AcDbEntity
  8
A-TEXT
100
AcDbText
 10
161500.0
 20
136975.0
 30
0.0
 40
925.0
  1
Xn(Yn+1−Yn−1)
  7
JP
 11
161500.0
 21
136975.0
 31
0.0
100
AcDbText
  0
LWPOLYLINE
  5
153
330
17
100
AcDbEntity
  8
G-TABLE
370
35
100
AcDbPolyline
 90
2
 70
0
 10
125000.0
 20
136200.0
 10
185000.0
 20
136200.0
  0
TEXT
  5
154
330
17
100
AcDbEntity
  8
A-TEXT
100
AcDbText
 10
125500.0
 20
134674.99999999997
 30
0.0
 40
925.0
  1
1
  7
JP
 11
125500.0
 21
134674.99999999997
 31
0.0
100
AcDbText
  0
TEXT
  5
155
330
17
100
AcDbEntity
  8
A-TEXT
100
AcDbText
 10
131500.0
 20
134674.99999999997
 30
0.0
 40
925.0
  1
-26.17
  7
JP
 11
131500.0
 21
134674.99999999997
 31
0.0
100
AcDbText
  0
TEXT
  5
156
330
17
100
AcDbEntity
  8
A-TEXT
100
AcDbText
 10
146500.0
 20
134674.99999999997
 30
0.0
 40
925.0
  1
37.74
  7
JP
 11
146500.0
 21
134674.99999999997
 31
0.0
100
AcDbText
  0
TEXT
  5
157
330
17
100
AcDbEntity
  8
A-TEXT
100
AcDbText
 10
161500.0
 20
134674.99999999997
 30
0.0
 40
925.0
  1
-664.85
  7
JP
 11
161500.0
 21
134674.99999999997
 31
0.0
100
AcDbText
  0
LWPOLYLINE
  5
158
330
17
100
AcDbEntity
  8
G-TABLE
370
18
100
AcDbPolyline
 90
2
 70
0
 10
125000.0
 20
133899.99999999997
 10
185000.0
 20
133899.99999999997
  0
TEXT
  5
159
330
17
100
AcDbEntity
  8
A-TEXT
100
AcDbText
 10
125500.0
 20
132374.99999999997
 30
0.0
 40
925.0
  1
2
  7
JP
 11
125500.0
 21
132374.99999999997
 31
0.0
100
AcDbText
  0
TEXT
  5
15A
330
17
100
AcDbEntity
  8
A-TEXT
100
AcDbText
 10
131500.0
 20
132374.99999999997
 30
0.0
 40
925.0
  1
-4.69
  7
JP
 11
131500.0
 21
132374.99999999997
 31
0.0
100
AcDbText
  0
TEXT
  5
15B
330
17
100
AcDbEntity
  8
A-TEXT
100
AcDbText
 10
146500.0
 20
132374.99999999997
 30
0.0
 40
925.0
  1
33.30
  7
JP
 11
146500.0
 21
132374.99999999997
 31
0.0
100
AcDbText
  0
TEXT
  5
15C
330
17
100
AcDbEntity
  8
A-TEXT
100
AcDbText
 10
161500.0
 20
132374.99999999997
 30
0.0
 40
925.0
  1
39.63
  7
JP
 11
161500.0
 21
132374.99999999997
 31
0.0
100
AcDbText
  0
LWPOLYLINE
  5
15D
330
17
100
AcDbEntity
  8
G-TABLE
370
18
100
AcDbPolyline
 90
2
 70
0
 10
125000.0
 20
131599.99999999997
 10
185000.0
 20
131599.99999999997
  0
TEXT
  5
15E
330
17
100
AcDbEntity
  8
A-TEXT
100
AcDbText
 10
125500.0
 20
130074.99999999996
 30
0.0
 40
925.0
  1
3
  7
JP
 11
125500.0
 21
130074.99999999996
 31
0.0
100
AcDbText
  0
TEXT
  5
15F
330
17
100
AcDbEntity
  8
A-TEXT
100
AcDbText
 10
131500.0
 20
130074.99999999996
 30
0.0
 40
925.0
  1
12.21
  7
JP
 11
131500.0
 21
130074.99999999996
 31
0.0
100
AcDbText
  0
TEXT
  5
160
330
17
100
AcDbEntity
  8
A-TEXT
100
AcDbText
 10
146500.0
 20
130074.99999999996
 30
0.0
 40
925.0
  1
29.30
  7
JP
 11
146500.0
 21
130074.99999999996
 31
0.0
100
AcDbText
  0
TEXT
  5
161
330
17
100
AcDbEntity
  8
A-TEXT
100
AcDbText
 10
161500.0
 20
130074.99999999996
 30
0.0
 40
925.0
  1
-59.80
  7
JP
 11
161500.0
 21
130074.99999999996
 31
0.0
100
AcDbText
  0
LWPOLYLINE
  5
162
330
17
100
AcDbEntity
  8
G-TABLE
370
18
100
AcDbPolyline
 90
2
 70
0
 10
125000.0
 20
129299.99999999996
 10
185000.0
 20
129299.99999999996
  0
TEXT
  5
163
330
17
100
AcDbEntity
  8
A-TEXT
100
AcDbText
 10
125500.0
 20
127774.99999999996
 30
0.0
 40
925.0
  1
4
  7
JP
 11
125500.0
 21
127774.99999999996
 31
0.0
100
AcDbText
  0
TEXT
  5
164
330
17
100
AcDbEntity
  8
A-TEXT
100
AcDbText
 10
131500.0
 20
127774.99999999996
 30
0.0
 40
925.0
  1
19.80
  7
JP
 11
131500.0
 21
127774.99999999996
 31
0.0
100
AcDbText
  0
TEXT
  5
165
330
17
100
AcDbEntity
  8
A-TEXT
100
AcDbText
 10
146500.0
 20
127774.99999999996
 30
0.0
 40
925.0
  1
28.41
  7
JP
 11
146500.0
 21
127774.99999999996
 31
0.0
100
AcDbText
  0
TEXT
  5
166
330
17
100
AcDbEntity
  8
A-TEXT
100
AcDbText
 10
161500.0
 20
127774.99999999996
 30
0.0
 40
925.0
  1
-19.80
  7
JP
 11
161500.0
 21
127774.99999999996
 31
0.0
100
AcDbText
  0
LWPOLYLINE
  5
167
330
17
100
AcDbEntity
  8
G-TABLE
370
18
100
AcDbPolyline
 90
2
 70
0
 10
125000.0
 20
126999.99999999996
 10
185000.0
 20
126999.99999999996
  0
TEXT
  5
168
330
17
100
AcDbEntity
  8
A-TEXT
100
AcDbText
 10
125500.0
 20
125474.99999999997
 30
0.0
 40
925.0
  1
5
  7
JP
 11
125500.0
 21
125474.99999999997
 31
0.0
100
AcDbText
  0
TEXT
  5
169
330
17
100
AcDbEntity
  8
A-TEXT
100
AcDbText
 10
131500.0
 20
125474.99999999997
 30
0.0
 40
925.0
  1
32.11
  7
JP
 11
131500.0
 21
125474.99999999997
 31
0.0
100
AcDbText
  0
TEXT
  5
16A
330
17
100
AcDbEntity
  8
A-TEXT
100
AcDbText
 10
146500.0
 20
125474.99999999997
 30
0.0
 40
925.0
  1
28.30
  7
JP
 11
146500.0
 21
125474.99999999997
 31
0.0
100
AcDbText
  0
TEXT
  5
16B
330
17
100
AcDbEntity
  8
A-TEXT
100
AcDbText
 10
161500.0
 20
125474.99999999997
 30
0.0
 40
925.0
  1
80.26
  7
JP
 11
161500.0
 21
125474.99999999997
 31
0.0
100
AcDbText
  0
LWPOLYLINE
  5
16C
330
17
100
AcDbEntity
  8
G-TABLE
370
18
100
AcDbPolyline
 90
2
 70
0
 10
125000.0
 20
124699.99999999996
 10
185000.0
 20
124699.99999999996
  0
TEXT
  5
16D
330
17
100
AcDbEntity
  8
A-TEXT
100
AcDbText
 10
125500.0
 20
123174.99999999997
 30
0.0
 40
925.0
  1
6
  7
JP
 11
125500.0
 21
123174.99999999997
 31
0.0
100
AcDbText
  0
TEXT
  5
16E
330
17
100
AcDbEntity
  8
A-TEXT
100
AcDbText
 10
131500.0
 20
123174.99999999997
 30
0.0
 40
925.0
  1
32.30
  7
JP
 11
131500.0
 21
123174.99999999997
 31
0.0
100
AcDbText
  0
TEXT
  5
16F
330
17
100
AcDbEntity
  8
A-TEXT
100
AcDbText
 10
146500.0
 20
123174.99999999997
 30
0.0
 40
925.0
  1
30.91
  7
JP
 11
146500.0
 21
123174.99999999997
 31
0.0
100
AcDbText
  0
TEXT
  5
170
330
17
100
AcDbEntity
  8
A-TEXT
100
AcDbText
 10
161500.0
 20
123174.99999999997
 30
0.0
 40
925.0
  1
132.45
  7
JP
 11
161500.0
 21
123174.99999999997
 31
0.0
100
AcDbText
  0
LWPOLYLINE
  5
171
330
17
100
AcDbEntity
  8
G-TABLE
370
18
100
AcDbPolyline
 90
2
 70
0
 10
125000.0
 20
122399.99999999996
 10
185000.0
 20
122399.99999999996
  0
TEXT
  5
172
330
17
100
AcDbEntity
  8
A-TEXT
100
AcDbText
 10
125500.0
 20
120874.99999999997
 30
0.0
 40
925.0
  1
7
  7
JP
 11
125500.0
 21
120874.99999999997
 31
0.0
100
AcDbText
  0
TEXT
  5
173
330
17
100
AcDbEntity
  8
A-TEXT
100
AcDbText
 10
131500.0
 20
120874.99999999997
 30
0.0
 40
925.0
  1
41.41
  7
JP
 11
131500.0
 21
120874.99999999997
 31
0.0
100
AcDbText
  0
TEXT
  5
174
330
17
100
AcDbEntity
  8
A-TEXT
100
AcDbText
 10
146500.0
 20
120874.99999999997
 30
0.0
 40
925.0
  1
32.41
  7
JP
 11
146500.0
 21
120874.99999999997
 31
0.0
100
AcDbText
  0
TEXT
  5
175
330
17
100
AcDbEntity
  8
A-TEXT
100
AcDbText
 10
161500.0
 20
120874.99999999997
 30
0.0
 40
925.0
  1
-455.46
  7
JP
 11
161500.0
 21
120874.99999999997
 31
0.0
100
AcDbText
  0
LWPOLYLINE
  5
176
330
17
100
AcDbEntity
  8
G-TABLE
370
18
100
AcDbPolyline
 90
2
 70
0
 10
125000.0
 20
120099.99999999997
 10
185000.0
 20
120099.99999999997
  0
TEXT
  5
177
330
17
100
AcDbEntity
  8
A-TEXT
100
AcDbText
 10
125500.0
 20
118574.99999999997
 30
0.0
 40
925.0
  1
8
  7
JP
 11
125500.0
 21
118574.99999999997
 31
0.0
100
AcDbText
  0
TEXT
  5
178
330
17
100
AcDbEntity
  8
A-TEXT
100
AcDbText
 10
131500.0
 20
118574.99999999997
 30
0.0
 40
925.0
  1
36.51
  7
JP
 11
131500.0
 21
118574.99999999997
 31
0.0
100
AcDbText
  0
TEXT
  5
179
330
17
100
AcDbEntity
  8
A-TEXT
100
AcDbText
 10
146500.0
 20
118574.99999999997
 30
0.0
 40
925.0
  1
19.90
  7
JP
 11
146500.0
 21
118574.99999999997
 31
0.0
100
AcDbText
  0
TEXT
  5
17A
330
17
100
AcDbEntity
  8
A-TEXT
100
AcDbText
 10
161500.0
 20
118574.99999999997
 30
0.0
 40
925.0
  1
-1164.51
  7
JP
 11
161500.0
 21
118574.99999999997
 31
0.0
100
AcDbText
  0
LWPOLYLINE
  5
17B
330
17
100
AcDbEntity
  8
G-TABLE
370
18
100
AcDbPolyline
 90
2
 70
0
 10
125000.0
 20
117799.99999999997
 10
185000.0
 20
117799.99999999997
  0
TEXT
  5
17C
330
17
100
AcDbEntity
  8
A-TEXT
100
AcDbText
 10
125500.0
 20
116274.99999999997
 30
0.0
 40
925.0
  1
9
  7
JP
 11
125500.0
 21
116274.99999999997
 31
0.0
100
AcDbText
  0
TEXT
  5
17D
330
17
100
AcDbEntity
  8
A-TEXT
100
AcDbText
 10
131500.0
 20
116274.99999999997
 30
0.0
 40
925.0
  1
27.61
  7
JP
 11
131500.0
 21
116274.99999999997
 31
0.0
100
AcDbText
  0
TEXT
  5
17E
330
17
100
AcDbEntity
  8
A-TEXT
100
AcDbText
 10
146500.0
 20
116274.99999999997
 30
0.0
 40
925.0
  1
0.50
  7
JP
 11
146500.0
 21
116274.99999999997
 31
0.0
100
AcDbText
  0
TEXT
  5
17F
330
17
100
AcDbEntity
  8
A-TEXT
100
AcDbText
 10
161500.0
 20
116274.99999999997
 30
0.0
 40
925.0
  1
-1394.05
  7
JP
 11
161500.0
 21
116274.99999999997
 31
0.0
100
AcDbText
  0
LWPOLYLINE
  5
180
330
17
100
AcDbEntity
  8
G-TABLE
370
18
100
AcDbPolyline
 90
2
 70
0
 10
125000.0
 20
115499.99999999997
 10
185000.0
 20
115499.99999999997
  0
TEXT
  5
181
330
17
100
AcDbEntity
  8
A-TEXT
100
AcDbText
 10
125500.0
 20
113974.99999999999
 30
0.0
 40
925.0
  1
10
  7
JP
 11
125500.0
 21
113974.99999999999
 31
0.0
100
AcDbText
  0
TEXT
  5
182
330
17
100
AcDbEntity
  8
A-TEXT
100
AcDbText
 10
131500.0
 20
113974.99999999999
 30
0.0
 40
925.0
  1
17.50
  7
JP
 11
131500.0
 21
113974.99999999999
 31
0.0
100
AcDbText
  0
TEXT
  5
183
330
17
100
AcDbEntity
  8
A-TEXT
100
AcDbText
 10
146500.0
 20
113974.99999999999
 30
0.0
 40
925.0
  1
-30.60
  7
JP
 11
146500.0
 21
113974.99999999999
 31
0.0
100
AcDbText
  0
TEXT
  5
184
330
17
100
AcDbEntity
  8
A-TEXT
100
AcDbText
 10
161500.0
 20
113974.99999999999
 30
0.0
 40
925.0
  1
-579.42
  7
JP
 11
161500.0
 21
113974.99999999999
 31
0.0
100
AcDbText
  0
LWPOLYLINE
  5
185
330
17
100
AcDbEntity
  8
G-TABLE
370
18
100
AcDbPolyline
 90
2
 70
0
 10
125000.0
 20
113199.99999999997
 10
185000.0
 20
113199.99999999997
  0
TEXT
  5
186
330
17
100
AcDbEntity
  8
A-TEXT
100
AcDbText
 10
125500.0
 20
111674.99999999999
 30
0.0
 40
925.0
  1
11
  7
JP
 11
125500.0
 21
111674.99999999999
 31
0.0
100
AcDbText
  0
TEXT
  5
187
330
17
100
AcDbEntity
  8
A-TEXT
100
AcDbText
 10
131500.0
 20
111674.99999999999
 30
0.0
 40
925.0
  1
15.70
  7
JP
 11
131500.0
 21
111674.99999999999
 31
0.0
100
AcDbText
  0
TEXT
  5
188
330
17
100
AcDbEntity
  8
A-TEXT
100
AcDbText
 10
146500.0
 20
111674.99999999999
 30
0.0
 40
925.0
  1
-32.59
  7
JP
 11
146500.0
 21
111674.99999999999
 31
0.0
100
AcDbText
  0
TEXT
  5
189
330
17
100
AcDbEntity
  8
A-TEXT
100
AcDbText
 10
161500.0
 20
111674.99999999999
 30
0.0
 40
925.0
  1
-45.54
  7
JP
 11
161500.0
 21
111674.99999999999
 31
0.0
100
AcDbText
  0
LWPOLYLINE
  5
18A
330
17
100
AcDbEntity
  8
G-TABLE
370
18
100
AcDbPolyline
 90
2
 70
0
 10
125000.0
 20
110899.99999999997
 10
185000.0
 20
110899.99999999997
  0
TEXT
  5
18B
330
17
100
AcDbEntity
  8
A-TEXT
100
AcDbText
 10
125500.0
 20
109374.99999999999
 30
0.0
 40
925.0
  1
12
  7
JP
 11
125500.0
 21
109374.99999999999
 31
0.0
100
AcDbText
  0
TEXT
  5
18C
330
17
100
AcDbEntity
  8
A-TEXT
100
AcDbText
 10
131500.0
 20
109374.99999999999
 30
0.0
 40
925.0
  1
13.50
  7
JP
 11
131500.0
 21
109374.99999999999
 31
0.0
100
AcDbText
  0
TEXT
  5
18D
330
17
100
AcDbEntity
  8
A-TEXT
100
AcDbText
 10
146500.0
 20
109374.99999999999
 30
0.0
 40
925.0
  1
-33.50
  7
JP
 11
146500.0
 21
109374.99999999999
 31
0.0
100
AcDbText
  0
TEXT
  5
18E
330
17
100
AcDbEntity
  8
A-TEXT
100
AcDbText
 10
161500.0
 20
109374.99999999999
 30
0.0
 40
925.0
  1
27.82
  7
JP
 11
161500.0
 21
109374.99999999999
 31
0.0
100
AcDbText
  0
LWPOLYLINE
  5
18F
330
17
100
AcDbEntity
  8
G-TABLE
370
18
100
AcDbPolyline
 90
2
 70
0
 10
125000.0
 20
108599.99999999999
 10
185000.0
 20
108599.99999999999
  0
TEXT
  5
190
330
17
100
AcDbEntity
  8
A-TEXT
100
AcDbText
 10
125500.0
 20
107074.99999999999
 30
0.0
 40
925.0
  1
13
  7
JP
 11
125500.0
 21
107074.99999999999
 31
0.0
100
AcDbText
  0
TEXT
  5
191
330
17
100
AcDbEntity
  8
A-TEXT
100
AcDbText
 10
131500.0
 20
107074.99999999999
 30
0.0
 40
925.0
  1
-0.09
  7
JP
 11
131500.0
 21
107074.99999999999
 31
0.0
100
AcDbText
  0
TEXT
  5
192
330
17
100
AcDbEntity
  8
A-TEXT
100
AcDbText
 10
146500.0
 20
107074.99999999999
 30
0.0
 40
925.0
  1
-30.54
  7
JP
 11
146500.0
 21
107074.99999999999
 31
0.0
100
AcDbText
  0
TEXT
  5
193
330
17
100
AcDbEntity
  8
A-TEXT
100
AcDbText
 10
161500.0
 20
107074.99999999999
 30
0.0
 40
925.0
  1
-2.23
  7
JP
 11
161500.0
 21
107074.99999999999
 31
0.0
100
AcDbText
  0
LWPOLYLINE
  5
194
330
17
100
AcDbEntity
  8
G-TABLE
370
18
100
AcDbPolyline
 90
2
 70
0
 10
125000.0
 20
106299.99999999999
 10
185000.0
 20
106299.99999999999
  0
TEXT
  5
195
330
17
100
AcDbEntity
  8
A-TEXT
100
AcDbText
 10
125500.0
 20
104774.99999999999
 30
0.0
 40
925.0
  1
14
  7
JP
 11
125500.0
 21
104774.99999999999
 31
0.0
100
AcDbText
  0
TEXT
  5
196
330
17
100
AcDbEntity
  8
A-TEXT
100
AcDbText
 10
131500.0
 20
104774.99999999999
 30
0.0
 40
925.0
  1
5.35
  7
JP
 11
131500.0
 21
104774.99999999999
 31
0.0
100
AcDbText
  0
TEXT
  5
197
330
17
100
AcDbEntity
  8
A-TEXT
100
AcDbText
 10
146500.0
 20
104774.99999999999
 30
0.0
 40
925.0
  1
-10.00
  7
JP
 11
146500.0
 21
104774.99999999999
 31
0.0
100
AcDbText
  0
TEXT
  5
198
330
17
100
AcDbEntity
  8
A-TEXT
100
AcDbText
 10
161500.0
 20
104774.99999999999
 30
0.0
 40
925.0
  1
131.41
  7
JP
 11
161500.0
 21
104774.99999999999
 31
0.0
100
AcDbText
  0
LWPOLYLINE
  5
199
330
17
100
AcDbEntity
  8
G-TABLE
370
18
100
AcDbPolyline
 90
2
 70
0
 10
125000.0
 20
103999.99999999999
 10
185000.0
 20
103999.99999999999
  0
TEXT
  5
19A
330
17
100
AcDbEntity
  8
A-TEXT
100
AcDbText
 10
125500.0
 20
102475.0
 30
0.0
 40
925.0
  1
15
  7
JP
 11
125500.0
 21
102475.0
 31
0.0
100
AcDbText
  0
TEXT
  5
19B
330
17
100
AcDbEntity
  8
A-TEXT
100
AcDbText
 10
131500.0
 20
102475.0
 30
0.0
 40
925.0
  1
-10.50
  7
JP
 11
131500.0
 21
102475.0
 31
0.0
100
AcDbText
  0
TEXT
  5
19C
330
17
100
AcDbEntity
  8
A-TEXT
100
AcDbText
 10
146500.0
 20
102475.0
 30
0.0
 40
925.0
  1
-6.00
  7
JP
 11
146500.0
 21
102475.0
 31
0.0
100
AcDbText
  0
TEXT
  5
19D
330
17
100
AcDbEntity
  8
A-TEXT
100
AcDbText
 10
161500.0
 20
102475.0
 30
0.0
 40
925.0
  1
-120.69
  7
JP
 11
161500.0
 21
102475.0
 31
0.0
100
AcDbText
  0
LWPOLYLINE
  5
19E
330
17
100
AcDbEntity
  8
G-TABLE
370
18
100
AcDbPolyline
 90
2
 70
0
 10
125000.0
 20
101699.99999999999
 10
185000.0
 20
101699.99999999999
  0
TEXT
  5
19F
330
17
100
AcDbEntity
  8
A-TEXT
100
AcDbText
 10
125500.0
 20
100175.0
 30
0.0
 40
925.0
  1
16
  7
JP
 11
125500.0
 21
100175.0
 31
0.0
100
AcDbText
  0
TEXT
  5
1A0
330
17
100
AcDbEntity
  8
A-TEXT
100
AcDbText
 10
131500.0
 20
100175.0
 30
0.0
 40
925.0
  1
-12.00
  7
JP
 11
131500.0
 21
100175.0
 31
0.0
100
AcDbText
  0
TEXT
  5
1A1
330
17
100
AcDbEntity
  8
A-TEXT
100
AcDbText
 10
146500.0
 20
100175.0
 30
0.0
 40
925.0
  1
1.50
  7
JP
 11
146500.0
 21
100175.0
 31
0.0
100
AcDbText
  0
TEXT
  5
1A2
330
17
100
AcDbEntity
  8
A-TEXT
100
AcDbText
 10
161500.0
 20
100175.0
 30
0.0
 40
925.0
  1
-166.61
  7
JP
 11
161500.0
 21
100175.0
 31
0.0
100
AcDbText
  0
LWPOLYLINE
  5
1A3
330
17
100
AcDbEntity
  8
G-TABLE
370
18
100
AcDbPolyline
 90
2
 70
0
 10
125000.0
 20
99399.99999999999
 10
185000.0
 20
99399.99999999999
  0
TEXT
  5
1A4
330
17
100
AcDbEntity
  8
A-TEXT
100
AcDbText
 10
125500.0
 20
97875.0
 30
0.0
 40
925.0
  1
17
  7
JP
 11
125500.0
 21
97875.0
 31
0.0
100
AcDbText
  0
TEXT
  5
1A5
330
17
100
AcDbEntity
  8
A-TEXT
100
AcDbText
 10
131500.0
 20
97875.0
 30
0.0
 40
925.0
  1
-35.41
  7
JP
 11
131500.0
 21
97875.0
 31
0.0
100
AcDbText
  0
TEXT
  5
1A6
330
17
100
AcDbEntity
  8
A-TEXT
100
AcDbText
 10
146500.0
 20
97875.0
 30
0.0
 40
925.0
  1
7.89
  7
JP
 11
146500.0
 21
97875.0
 31
0.0
100
AcDbText
  0
TEXT
  5
1A7
330
17
100
AcDbEntity
  8
A-TEXT
100
AcDbText
 10
161500.0
 20
97875.0
 30
0.0
 40
925.0
  1
-1283.44
  7
JP
 11
161500.0
 21
97875.0
 31
0.0
100
AcDbText
  0
LWPOLYLINE
  5
1A8
330
17
100
AcDbEntity
  8
G-TABLE
370
18
100
AcDbPolyline
 90
2
 70
0
 10
125000.0
 20
97100.0
 10
185000.0
 20
97100.0
  0
TEXT
  5
1A9
330
17
100
AcDbEntity
  8
A-TEXT
100
AcDbText
 10
125500.0
 20
95575.0
 30
0.0
 40
925.0
  1

  7
JP
 11
125500.0
 21
95575.0
 31
0.0
100
AcDbText
  0
TEXT
  5
1AA
330
17
100
AcDbEntity
  8
A-TEXT
100
AcDbText
 10
131500.0
 20
95575.0
 30
0.0
 40
925.0
  1

  7
JP
 11
131500.0
 21
95575.0
 31
0.0
100
AcDbText
  0
TEXT
  5
1AB
330
17
100
AcDbEntity
  8
A-TEXT
100
AcDbText
 10
146500.0
 20
95575.0
 30
0.0
 40
925.0
  1
倍面積
  7
JP
 11
146500.0
 21
95575.0
 31
0.0
100
AcDbText
  0
TEXT
  5
1AC
330
17
100
AcDbEntity
  8
A-TEXT
100
AcDbText
 10
161500.0
 20
95575.0
 30
0.0
 40
925.0
  1
5544.84
  7
JP
 11
161500.0
 21
95575.0
 31
0.0
100
AcDbText
  0
LWPOLYLINE
  5
1AD
330
17
100
AcDbEntity
  8
G-TABLE
370
18
100
AcDbPolyline
 90
2
 70
0
 10
125000.0
 20
94800.0
 10
185000.0
 20
94800.0
  0
TEXT
  5
1AE
330
17
100
AcDbEntity
  8
A-TEXT
100
AcDbText
 10
125500.0
 20
93275.0
 30
0.0
 40
925.0
  1

  7
JP
 11
125500.0
 21
93275.0
 31
0.0
100
AcDbText
  0
TEXT
  5
1AF
330
17
100
AcDbEntity
  8
A-TEXT
100
AcDbText
 10
131500.0
 20
93275.0
 30
0.0
 40
925.0
  1

  7
JP
 11
131500.0
 21
93275.0
 31
0.0
100
AcDbText
  0
TEXT
  5
1B0
330
17
100
AcDbEntity
  8
A-TEXT
100
AcDbText
 10
146500.0
 20
93275.0
 30
0.0
 40
925.0
  1
面積
  7
JP
 11
146500.0
 21
93275.0
 31
0.0
100
AcDbText
  0
TEXT
  5
1B1
330
17
100
AcDbEntity
  8
A-TEXT
100
AcDbText
 10
161500.0
 20
93275.0
 30
0.0
 40
925.0
  1
2772.42 m²
  7
JP
 11
161500.0
 21
93275.0
 31
0.0
100
AcDbText
  0
LWPOLYLINE
  5
1B2
330
17
100
AcDbEntity
  8
G-TABLE
370
18
100
AcDbPolyline
 90
2
 70
0
 10
125000.0
 20
92500.0
 10
185000.0
 20
92500.0
  0
LWPOLYLINE
  5
1B3
330
17
100
AcDbEntity
  8
G-TABLE
100
AcDbPolyline
 90
2
 70
0
 10
125000.0
 20
138500.0
 10
125000.0
 20
92500.0
  0
LWPOLYLINE
  5
1B4
330
17
100
AcDbEntity
  8
G-TABLE
100
AcDbPolyline
 90
2
 70
0
 10
131000.0
 20
138500.0
 10
131000.0
 20
92500.0
  0
LWPOLYLINE
  5
1B5
330
17
100
AcDbEntity
  8
G-TABLE
100
AcDbPolyline
 90
2
 70
0
 10
146000.0
 20
138500.0
 10
146000.0
 20
92500.0
  0
LWPOLYLINE
  5
1B6
330
17
100
AcDbEntity
  8
G-TABLE
100
AcDbPolyline
 90
2
 70
0
 10
161000.0
 20
138500.0
 10
161000.0
 20
92500.0
  0
LWPOLYLINE
  5
1B7
330
17
100
AcDbEntity
  8
G-TABLE
100
AcDbPolyline
 90
2
 70
0
 10
185000.0
 20
138500.0
 10
185000.0
 20
92500.0
  0
LWPOLYLINE
  5
1B8
330
17
100
AcDbEntity
  8
G-TABLE
370
35
100
AcDbPolyline
 90
2
 70
0
 10
125000.0
 20
75000.0
 10
185000.0
 20
75000.0
  0
TEXT
  5
1B9
330
17
100
AcDbEntity
  8
A-TEXT
100
AcDbText
 10
125500.0
 20
73350.00000000001
 30
0.0
 40
1050.0
  1
項目
  7
JP
 11
125500.0
 21
73350.00000000001
 31
0.0
100
AcDbText
  0
TEXT
  5
1BA
330
17
100
AcDbEntity
  8
A-TEXT
100
AcDbText
 10
145500.0
 20
73350.00000000001
 30
0.0
 40
1050.0
  1
面積・比率
  7
JP
 11
145500.0
 21
73350.00000000001
 31
0.0
100
AcDbText
  0
LWPOLYLINE
  5
1BB
330
17
100
AcDbEntity
  8
G-TABLE
370
35
100
AcDbPolyline
 90
2
 70
0
 10
125000.0
 20
72400.0
 10
185000.0
 20
72400.0
  0
TEXT
  5
1BC
330
17
100
AcDbEntity
  8
A-TEXT
100
AcDbText
 10
125500.0
 20
70750.00000000001
 30
0.0
 40
1050.0
  1
敷地面積（推定）
  7
JP
 11
125500.0
 21
70750.00000000001
 31
0.0
100
AcDbText
  0
TEXT
  5
1BD
330
17
100
AcDbEntity
  8
A-TEXT
100
AcDbText
 10
145500.0
 20
70750.00000000001
 30
0.0
 40
1050.0
  1
2,772.42 m²（838.7坪）
  7
JP
 11
145500.0
 21
70750.00000000001
 31
0.0
100
AcDbText
  0
LWPOLYLINE
  5
1BE
330
17
100
AcDbEntity
  8
G-TABLE
370
18
100
AcDbPolyline
 90
2
 70
0
 10
125000.0
 20
69800.00000000001
 10
185000.0
 20
69800.00000000001
  0
TEXT
  5
1BF
330
17
100
AcDbEntity
  8
A-TEXT
100
AcDbText
 10
125500.0
 20
68150.00000000001
 30
0.0
 40
1050.0
  1
建築面積（壁芯）
  7
JP
 11
125500.0
 21
68150.00000000001
 31
0.0
100
AcDbText
  0
TEXT
  5
1C0
330
17
100
AcDbEntity
  8
A-TEXT
100
AcDbText
 10
145500.0
 20
68150.00000000001
 30
0.0
 40
1050.0
  1
333.06 m²
  7
JP
 11
145500.0
 21
68150.00000000001
 31
0.0
100
AcDbText
  0
LWPOLYLINE
  5
1C1
330
17
100
AcDbEntity
  8
G-TABLE
370
18
100
AcDbPolyline
 90
2
 70
0
 10
125000.0
 20
67200.00000000001
 10
185000.0
 20
67200.00000000001
  0
TEXT
  5
1C2
330
17
100
AcDbEntity
  8
A-TEXT
100
AcDbText
 10
125500.0
 20
65550.00000000003
 30
0.0
 40
1050.0
  1
延べ面積
  7
JP
 11
125500.0
 21
65550.00000000003
 31
0.0
100
AcDbText
  0
TEXT
  5
1C3
330
17
100
AcDbEntity
  8
A-TEXT
100
AcDbText
 10
145500.0
 20
65550.00000000003
 30
0.0
 40
1050.0
  1
666.12 m²
  7
JP
 11
145500.0
 21
65550.00000000003
 31
0.0
100
AcDbText
  0
LWPOLYLINE
  5
1C4
330
17
100
AcDbEntity
  8
G-TABLE
370
18
100
AcDbPolyline
 90
2
 70
0
 10
125000.0
 20
64600.00000000002
 10
185000.0
 20
64600.00000000002
  0
TEXT
  5
1C5
330
17
100
AcDbEntity
  8
A-TEXT
100
AcDbText
 10
125500.0
 20
62950.00000000003
 30
0.0
 40
1050.0
  1
建ぺい率
  7
JP
 11
125500.0
 21
62950.00000000003
 31
0.0
100
AcDbText
  0
TEXT
  5
1C6
330
17
100
AcDbEntity
  8
A-TEXT
100
AcDbText
 10
145500.0
 20
62950.00000000003
 30
0.0
 40
1050.0
  1
12.01%（≦60%）
  7
JP
 11
145500.0
 21
62950.00000000003
 31
0.0
100
AcDbText
  0
LWPOLYLINE
  5
1C7
330
17
100
AcDbEntity
  8
G-TABLE
370
18
100
AcDbPolyline
 90
2
 70
0
 10
125000.0
 20
62000.00000000002
 10
185000.0
 20
62000.00000000002
  0
TEXT
  5
1C8
330
17
100
AcDbEntity
  8
A-TEXT
100
AcDbText
 10
125500.0
 20
60350.00000000002
 30
0.0
 40
1050.0
  1
容積率
  7
JP
 11
125500.0
 21
60350.00000000002
 31
0.0
100
AcDbText
  0
TEXT
  5
1C9
330
17
100
AcDbEntity
  8
A-TEXT
100
AcDbText
 10
145500.0
 20
60350.00000000002
 30
0.0
 40
1050.0
  1
24.03%（≦200%）
  7
JP
 11
145500.0
 21
60350.00000000002
 31
0.0
100
AcDbText
  0
LWPOLYLINE
  5
1CA
330
17
100
AcDbEntity
  8
G-TABLE
370
18
100
AcDbPolyline
 90
2
 70
0
 10
125000.0
 20
59400.00000000002
 10
185000.0
 20
59400.00000000002
  0
LWPOLYLINE
  5
1CB
330
17
100
AcDbEntity
  8
G-TABLE
100
AcDbPolyline
 90
2
 70
0
 10
125000.0
 20
75000.0
 10
125000.0
 20
59400.00000000002
  0
LWPOLYLINE
  5
1CC
330
17
100
AcDbEntity
  8
G-TABLE
100
AcDbPolyline
 90
2
 70
0
 10
145000.0
 20
75000.0
 10
145000.0
 20
59400.00000000002
  0
LWPOLYLINE
  5
1CD
330
17
100
AcDbEntity
  8
G-TABLE
100
AcDbPolyline
 90
2
 70
0
 10
185000.0
 20
75000.0
 10
185000.0
 20
59400.00000000002
  0
TEXT
  5
1CE
330
17
100
AcDbEntity
  8
A-TEXT
100
AcDbText
 10
125000.0
 20
57500.0
 30
0.0
 40
950.0
  1
※ 西側境界は標高109.6の点を通り駐車場白線に平行な直線（ご指定）。13〜15は隣接建物からの推定（要測量）。
  7
JP
 11
125000.0
 21
57500.0
 31
0.0
100
AcDbText
  0
ENDSEC
  0
SECTION
  2
OBJECTS
  0
DICTIONARY
  5
A
330
0
100
AcDbDictionary
281
1
  3
ACAD_COLOR
350
B
  3
ACAD_GROUP
350
C
  3
ACAD_LAYOUT
350
D
  3
ACAD_MATERIAL
350
E
  3
ACAD_MLEADERSTYLE
350
F
  3
ACAD_MLINESTYLE
350
10
  3
ACAD_PLOTSETTINGS
350
11
  3
ACAD_PLOTSTYLENAME
350
12
  3
ACAD_SCALELIST
350
14
  3
ACAD_TABLESTYLE
350
15
  3
ACAD_VISUALSTYLE
350
16
  3
EZDXF_META
350
2D
  0
DICTIONARY
  5
B
330
A
100
AcDbDictionary
281
1
  0
DICTIONARY
  5
C
330
A
100
AcDbDictionary
281
1
  0
DICTIONARY
  5
D
330
A
100
AcDbDictionary
281
1
  3
Model
350
1A
  3
Layout1
350
1E
  0
DICTIONARY
  5
E
330
A
100
AcDbDictionary
281
1
  3
ByBlock
350
1F
  3
ByLayer
350
20
  3
Global
350
21
  0
DICTIONARY
  5
F
330
A
100
AcDbDictionary
281
1
  3
Standard
350
2C
  0
DICTIONARY
  5
10
330
A
100
AcDbDictionary
281
1
  3
Standard
350
22
  0
DICTIONARY
  5
11
330
A
100
AcDbDictionary
281
1
  0
ACDBDICTIONARYWDFLT
  5
12
330
A
100
AcDbDictionary
281
1
  3
Normal
350
13
100
AcDbDictionaryWithDefault
340
13
  0
ACDBPLACEHOLDER
  5
13
330
12
  0
DICTIONARY
  5
14
330
A
100
AcDbDictionary
281
1
  0
DICTIONARY
  5
15
330
A
100
AcDbDictionary
281
1
  0
DICTIONARY
  5
16
330
A
100
AcDbDictionary
281
1
  3
2dWireframe
350
5A
  3
Basic
350
5B
  3
Brighten
350
5C
  3
ColorChange
350
5D
  3
Conceptual
350
5E
  3
Dim
350
5F
  3
EdgeColorOff
350
60
  3
Facepattern
350
61
  3
Flat
350
62
  3
FlatWithEdges
350
63
  3
Gouraud
350
64
  3
GouraudWithEdges
350
65
  3
Hidden
350
66
  3
JitterOff
350
67
  3
Linepattern
350
68
  3
Modeling
350
69
  3
OverhangOff
350
6A
  3
Realistic
350
6B
  3
Shaded
350
6C
  3
Shaded with edges
350
6D
  3
Shades of Gray
350
6E
  3
Sketchy
350
6F
  3
Thicken
350
70
  3
Wireframe
350
71
  3
X-Ray
350
72
  0
LAYOUT
  5
1A
330
D
100
AcDbPlotSettings
  1

  4
A3
  6

 40
7.5
 41
20.0
 42
7.5
 43
20.0
 44
420.0
 45
297.0
 46
0.0
 47
0.0
 48
0.0
 49
0.0
140
0.0
141
0.0
142
1.0
143
1.0
 70
1024
 72
1
 73
0
 74
5
  7

 75
16
 76
0
 77
2
 78
300
147
1.0
148
0.0
149
0.0
100
AcDbLayout
  1
Model
 70
1
 71
0
 10
0.0
 20
0.0
 11
420.0
 21
297.0
 12
0.0
 22
0.0
 32
0.0
 14
1e+20
 24
1e+20
 34
1e+20
 15
-1e+20
 25
-1e+20
 35
-1e+20
146
0.0
 13
0.0
 23
0.0
 33
0.0
 16
1.0
 26
0.0
 36
0.0
 17
0.0
 27
1.0
 37
0.0
 76
1
330
17
  0
LAYOUT
  5
1E
330
D
100
AcDbPlotSettings
  1

  4
A3
  6

 40
7.5
 41
20.0
 42
7.5
 43
20.0
 44
420.0
 45
297.0
 46
0.0
 47
0.0
 48
0.0
 49
0.0
140
0.0
141
0.0
142
1.0
143
1.0
 70
0
 72
1
 73
0
 74
5
  7

 75
16
 76
0
 77
2
 78
300
147
1.0
148
0.0
149
0.0
100
AcDbLayout
  1
Layout1
 70
1
 71
1
 10
0.0
 20
0.0
 11
420.0
 21
297.0
 12
0.0
 22
0.0
 32
0.0
 14
1e+20
 24
1e+20
 34
1e+20
 15
-1e+20
 25
-1e+20
 35
-1e+20
146
0.0
 13
0.0
 23
0.0
 33
0.0
 16
1.0
 26
0.0
 36
0.0
 17
0.0
 27
1.0
 37
0.0
 76
1
330
1B
  0
MATERIAL
  5
1F
102
{ACAD_REACTORS
330
E
102
}
330
E
100
AcDbMaterial
  1
ByBlock
  2

 70
0
 40
1.0
 71
1
 41
1.0
 91
-1023410177
 42
1.0
 72
1
  3

 73
1
 74
1
 75
1
 44
0.5
 73
0
 45
1.0
 46
1.0
 77
1
  4

 78
1
 79
1
170
1
 48
1.0
171
1
  6

172
1
173
1
174
1
140
1.0
141
1.0
175
1
  7

176
1
177
1
178
1
143
1.0
179
1
  8

270
1
271
1
272
1
145
1.0
146
1.0
273
1
  9

274
1
275
1
276
1
 42
1.0
 72
1
  3

 73
1
 74
1
 75
1
 94
63
  0
MATERIAL
  5
20
102
{ACAD_REACTORS
330
E
102
}
330
E
100
AcDbMaterial
  1
ByLayer
  2

 70
0
 40
1.0
 71
1
 41
1.0
 91
-1023410177
 42
1.0
 72
1
  3

 73
1
 74
1
 75
1
 44
0.5
 73
0
 45
1.0
 46
1.0
 77
1
  4

 78
1
 79
1
170
1
 48
1.0
171
1
  6

172
1
173
1
174
1
140
1.0
141
1.0
175
1
  7

176
1
177
1
178
1
143
1.0
179
1
  8

270
1
271
1
272
1
145
1.0
146
1.0
273
1
  9

274
1
275
1
276
1
 42
1.0
 72
1
  3

 73
1
 74
1
 75
1
 94
63
  0
MATERIAL
  5
21
102
{ACAD_REACTORS
330
E
102
}
330
E
100
AcDbMaterial
  1
Global
  2

 70
0
 40
1.0
 71
1
 41
1.0
 91
-1023410177
 42
1.0
 72
1
  3

 73
1
 74
1
 75
1
 44
0.5
 73
0
 45
1.0
 46
1.0
 77
1
  4

 78
1
 79
1
170
1
 48
1.0
171
1
  6

172
1
173
1
174
1
140
1.0
141
1.0
175
1
  7

176
1
177
1
178
1
143
1.0
179
1
  8

270
1
271
1
272
1
145
1.0
146
1.0
273
1
  9

274
1
275
1
276
1
 42
1.0
 72
1
  3

 73
1
 74
1
 75
1
 94
63
  0
MLINESTYLE
  5
22
102
{ACAD_REACTORS
330
10
102
}
330
10
100
AcDbMlineStyle
  2
Standard
 70
0
  3

 62
256
 51
90.0
 52
90.0
 71
2
 49
0.5
 62
256
  6
BYLAYER
 49
-0.5
 62
256
  6
BYLAYER
  0
MLEADERSTYLE
  5
2C
102
{ACAD_REACTORS
330
F
102
}
330
F
100
AcDbMLeaderStyle
179
2
170
2
171
1
172
0
 90
2
 40
0.0
 41
0.0
173
1
 91
-1056964608
 92
-2
290
1
 42
2.0
291
1
 43
8.0
  3
Standard
 44
4.0
300

342
29
174
1
175
1
176
0
178
1
 93
-1056964608
 45
4.0
292
0
297
0
 46
4.0
 94
-1056964608
 47
1.0
 49
1.0
140
1.0
294
1
141
0.0
177
0
142
1.0
295
0
296
0
143
3.75
271
0
272
9
273
9
  0
DICTIONARY
  5
2D
330
A
100
AcDbDictionary
280
1
281
1
  3
CREATED_BY_EZDXF
350
2E
  3
WRITTEN_BY_EZDXF
350
1D1
  0
DICTIONARYVAR
  5
2E
330
2D
100
DictionaryVariables
280
0
  1
1.4.4 @ 2026-10-04T12:27:36.316527+00:00
  0
VISUALSTYLE
  5
5A
102
{ACAD_REACTORS
330
16
102
}
330
16
100
AcDbVisualStyle
  2
2dWireframe
 70
4
177
3
291
0
 70
58
 90
2
176
1
 90
2
176
1
 90
0
176
1
 90
0
176
1
 40
0.6
176
1
 40
30.0
176
1
 62
7
420
16777215
176
1
 90
1
176
1
 90
4
176
1
 62
7
176
1
 62
257
176
1
 90
1
176
1
 90
1
176
1
 40
1.0
176
1
 90
8
176
1
 62
7
176
1
 40
1.0
176
1
 90
1
176
1
 90
6
176
1
 90
2
176
1
 62
7
176
1
 90
5
176
1
 90
0
176
1
 90
0
176
1
290
0
176
1
 90
1
176
1
 40
0.0
176
1
 90
0
176
1
290
1
176
1
290
1
176
1
290
0
176
1
290
0
176
1
290
0
176
1
290
0
176
1
290
0
176
1
290
0
176
1
290
0
176
1
 90
50
176
1
 40
0.0
176
1
 40
1.0
176
1
 90
0
176
1
 62
18
420
0
176
1
 90
50
176
1
 90
3
176
1
 62
5
420
255
176
1
290
0
176
1
 90
50
176
1
 90
50
176
1
 90
50
176
1
290
0
176
1
 90
50
176
1
 62
256
176
0
 40
1.0
176
0
 90
2
176
1
  1
strokes_ogs.tif
176
1
290
0
176
1
 40
1.0
176
1
 40
1.0
176
1
  0
VISUALSTYLE
  5
5B
102
{ACAD_REACTORS
330
16
102
}
330
16
100
AcDbVisualStyle
  2
Basic
 70
7
177
3
291
1
 70
58
 90
2
176
1
 90
2
176
1
 90
0
176
1
 90
1
176
1
 40
0.6
176
1
 40
30.0
176
1
 62
7
420
16777215
176
1
 90
1
176
1
 90
4
176
1
 62
7
176
1
 62
257
176
1
 90
1
176
1
 90
1
176
1
 40
1.0
176
1
 90
8
176
1
 62
7
176
1
 40
1.0
176
1
 90
1
176
1
 90
6
176
1
 90
2
176
1
 62
7
176
1
 90
5
176
1
 90
0
176
1
 90
0
176
1
290
0
176
1
 90
1
176
1
 40
0.0
176
1
 90
0
176
1
290
0
176
1
290
1
176
1
290
1
176
1
290
0
176
1
290
0
176
1
290
0
176
1
290
0
176
1
290
0
176
1
290
0
176
1
 90
50
176
1
 40
0.0
176
1
 40
1.0
176
1
 90
0
176
1
 62
18
420
0
176
1
 90
50
176
1
 90
3
176
1
 62
5
420
255
176
1
290
0
176
1
 90
50
176
1
 90
50
176
1
 90
50
176
1
290
0
176
1
 90
50
176
1
 62
256
176
0
 40
1.0
176
0
 90
2
176
1
  1
strokes_ogs.tif
176
1
290
0
176
1
 40
1.0
176
1
 40
1.0
176
1
  0
VISUALSTYLE
  5
5C
102
{ACAD_REACTORS
330
16
102
}
330
16
100
AcDbVisualStyle
  2
Brighten
 70
12
177
3
291
1
 70
58
 90
2
176
1
 90
2
176
1
 90
0
176
1
 90
2
176
1
 40
0.6
176
1
 40
30.0
176
1
 62
7
420
16777215
176
1
 90
1
176
1
 90
4
176
1
 62
7
176
1
 62
257
176
1
 90
1
176
1
 90
1
176
1
 40
1.0
176
1
 90
8
176
1
 62
7
176
1
 40
1.0
176
1
 90
1
176
1
 90
6
176
1
 90
2
176
1
 62
7
176
1
 90
5
176
1
 90
0
176
1
 90
0
176
1
290
0
176
1
 90
1
176
1
 40
0.0
176
1
 90
0
176
1
290
0
176
1
290
1
176
1
290
1
176
1
290
0
176
1
290
0
176
1
290
0
176
1
290
0
176
1
290
0
176
1
290
0
176
1
 90
50
176
1
 40
0.0
176
1
 40
1.0
176
1
 90
0
176
1
 62
18
420
0
176
1
 90
50
176
1
 90
3
176
1
 62
5
420
255
176
1
290
0
176
1
 90
50
176
1
 90
50
176
1
 90
50
176
1
290
0
176
1
 90
50
176
1
 62
256
176
0
 40
1.0
176
0
 90
2
176
1
  1
strokes_ogs.tif
176
1
290
0
176
1
 40
1.0
176
1
 40
1.0
176
1
  0
VISUALSTYLE
  5
5D
102
{ACAD_REACTORS
330
16
102
}
330
16
100
AcDbVisualStyle
  2
ColorChange
 70
16
177
3
291
1
 70
58
 90
2
176
1
 90
2
176
1
 90
0
176
1
 90
2
176
1
 40
0.6
176
1
 40
30.0
176
1
 62
7
420
16777215
176
1
 90
1
176
1
 90
4
176
1
 62
7
176
1
 62
257
176
1
 90
1
176
1
 90
1
176
1
 40
1.0
176
1
 90
8
176
1
 62
7
176
1
 40
1.0
176
1
 90
1
176
1
 90
6
176
1
 90
2
176
1
 62
7
176
1
 90
5
176
1
 90
0
176
1
 90
0
176
1
290
0
176
1
 90
1
176
1
 40
0.0
176
1
 90
0
176
1
290
0
176
1
290
1
176
1
290
1
176
1
290
0
176
1
290
0
176
1
290
0
176
1
290
0
176
1
290
0
176
1
290
0
176
1
 90
50
176
1
 40
0.0
176
1
 40
1.0
176
1
 90
0
176
1
 62
18
420
0
176
1
 90
50
176
1
 90
3
176
1
 62
5
420
255
176
1
290
0
176
1
 90
50
176
1
 90
50
176
1
 90
50
176
1
290
0
176
1
 90
50
176
1
 62
256
176
0
 40
1.0
176
0
 90
2
176
1
  1
strokes_ogs.tif
176
1
290
0
176
1
 40
1.0
176
1
 40
1.0
176
1
  0
VISUALSTYLE
  5
5E
102
{ACAD_REACTORS
330
16
102
}
330
16
100
AcDbVisualStyle
  2
Conceptual
 70
9
177
3
291
0
 70
58
 90
2
176
1
 90
2
176
1
 90
0
176
1
 90
3
176
1
 40
0.6
176
1
 40
30.0
176
1
 62
7
420
16777215
176
1
 90
1
176
1
 90
4
176
1
 62
7
176
1
 62
257
176
1
 90
1
176
1
 90
1
176
1
 40
1.0
176
1
 90
8
176
1
 62
7
176
1
 40
1.0
176
1
 90
1
176
1
 90
6
176
1
 90
2
176
1
 62
7
176
1
 90
5
176
1
 90
0
176
1
 90
0
176
1
290
0
176
1
 90
1
176
1
 40
0.0
176
1
 90
0
176
1
290
0
176
1
290
1
176
1
290
1
176
1
290
0
176
1
290
0
176
1
290
0
176
1
290
0
176
1
290
0
176
1
290
0
176
1
 90
50
176
1
 40
0.0
176
1
 40
1.0
176
1
 90
0
176
1
 62
18
420
0
176
1
 90
50
176
1
 90
3
176
1
 62
5
420
255
176
1
290
0
176
1
 90
50
176
1
 90
50
176
1
 90
50
176
1
290
0
176
1
 90
50
176
1
 62
256
176
0
 40
1.0
176
0
 90
2
176
1
  1
strokes_ogs.tif
176
1
290
0
176
1
 40
1.0
176
1
 40
1.0
176
1
  0
VISUALSTYLE
  5
5F
102
{ACAD_REACTORS
330
16
102
}
330
16
100
AcDbVisualStyle
  2
Dim
 70
11
177
3
291
1
 70
58
 90
2
176
1
 90
2
176
1
 90
0
176
1
 90
2
176
1
 40
0.6
176
1
 40
30.0
176
1
 62
7
420
16777215
176
1
 90
1
176
1
 90
4
176
1
 62
7
176
1
 62
257
176
1
 90
1
176
1
 90
1
176
1
 40
1.0
176
1
 90
8
176
1
 62
7
176
1
 40
1.0
176
1
 90
1
176
1
 90
6
176
1
 90
2
176
1
 62
7
176
1
 90
5
176
1
 90
0
176
1
 90
0
176
1
290
0
176
1
 90
1
176
1
 40
0.0
176
1
 90
0
176
1
290
0
176
1
290
1
176
1
290
1
176
1
290
0
176
1
290
0
176
1
290
0
176
1
290
0
176
1
290
0
176
1
290
0
176
1
 90
50
176
1
 40
0.0
176
1
 40
1.0
176
1
 90
0
176
1
 62
18
420
0
176
1
 90
50
176
1
 90
3
176
1
 62
5
420
255
176
1
290
0
176
1
 90
50
176
1
 90
50
176
1
 90
50
176
1
290
0
176
1
 90
50
176
1
 62
256
176
0
 40
1.0
176
0
 90
2
176
1
  1
strokes_ogs.tif
176
1
290
0
176
1
 40
1.0
176
1
 40
1.0
176
1
  0
VISUALSTYLE
  5
60
102
{ACAD_REACTORS
330
16
102
}
330
16
100
AcDbVisualStyle
  2
EdgeColorOff
 70
22
177
3
291
1
 70
58
 90
2
176
1
 90
2
176
1
 90
0
176
1
 90
2
176
1
 40
0.6
176
1
 40
30.0
176
1
 62
7
420
16777215
176
1
 90
1
176
1
 90
4
176
1
 62
7
176
1
 62
257
176
1
 90
1
176
1
 90
1
176
1
 40
1.0
176
1
 90
8
176
1
 62
7
176
1
 40
1.0
176
1
 90
1
176
1
 90
6
176
1
 90
2
176
1
 62
7
176
1
 90
5
176
1
 90
0
176
1
 90
0
176
1
290
0
176
1
 90
1
176
1
 40
0.0
176
1
 90
0
176
1
290
0
176
1
290
1
176
1
290
1
176
1
290
0
176
1
290
0
176
1
290
0
176
1
290
0
176
1
290
0
176
1
290
0
176
1
 90
50
176
1
 40
0.0
176
1
 40
1.0
176
1
 90
0
176
1
 62
18
420
0
176
1
 90
50
176
1
 90
3
176
1
 62
5
420
255
176
1
290
0
176
1
 90
50
176
1
 90
50
176
1
 90
50
176
1
290
0
176
1
 90
50
176
1
 62
256
176
0
 40
1.0
176
0
 90
2
176
1
  1
strokes_ogs.tif
176
1
290
0
176
1
 40
1.0
176
1
 40
1.0
176
1
  0
VISUALSTYLE
  5
61
102
{ACAD_REACTORS
330
16
102
}
330
16
100
AcDbVisualStyle
  2
Facepattern
 70
15
177
3
291
1
 70
58
 90
2
176
1
 90
2
176
1
 90
0
176
1
 90
2
176
1
 40
0.6
176
1
 40
30.0
176
1
 62
7
420
16777215
176
1
 90
1
176
1
 90
4
176
1
 62
7
176
1
 62
257
176
1
 90
1
176
1
 90
1
176
1
 40
1.0
176
1
 90
8
176
1
 62
7
176
1
 40
1.0
176
1
 90
1
176
1
 90
6
176
1
 90
2
176
1
 62
7
176
1
 90
5
176
1
 90
0
176
1
 90
0
176
1
290
0
176
1
 90
1
176
1
 40
0.0
176
1
 90
0
176
1
290
0
176
1
290
1
176
1
290
1
176
1
290
0
176
1
290
0
176
1
290
0
176
1
290
0
176
1
290
0
176
1
290
0
176
1
 90
50
176
1
 40
0.0
176
1
 40
1.0
176
1
 90
0
176
1
 62
18
420
0
176
1
 90
50
176
1
 90
3
176
1
 62
5
420
255
176
1
290
0
176
1
 90
50
176
1
 90
50
176
1
 90
50
176
1
290
0
176
1
 90
50
176
1
 62
256
176
0
 40
1.0
176
0
 90
2
176
1
  1
strokes_ogs.tif
176
1
290
0
176
1
 40
1.0
176
1
 40
1.0
176
1
  0
VISUALSTYLE
  5
62
102
{ACAD_REACTORS
330
16
102
}
330
16
100
AcDbVisualStyle
  2
Flat
 70
0
177
3
291
1
 70
58
 90
2
176
1
 90
2
176
1
 90
0
176
1
 90
2
176
1
 40
0.6
176
1
 40
30.0
176
1
 62
7
420
16777215
176
1
 90
1
176
1
 90
4
176
1
 62
7
176
1
 62
257
176
1
 90
1
176
1
 90
1
176
1
 40
1.0
176
1
 90
8
176
1
 62
7
176
1
 40
1.0
176
1
 90
1
176
1
 90
6
176
1
 90
2
176
1
 62
7
176
1
 90
5
176
1
 90
0
176
1
 90
0
176
1
290
0
176
1
 90
1
176
1
 40
0.0
176
1
 90
0
176
1
290
0
176
1
290
1
176
1
290
1
176
1
290
0
176
1
290
0
176
1
290
0
176
1
290
0
176
1
290
0
176
1
290
0
176
1
 90
50
176
1
 40
0.0
176
1
 40
1.0
176
1
 90
0
176
1
 62
18
420
0
176
1
 90
50
176
1
 90
3
176
1
 62
5
420
255
176
1
290
0
176
1
 90
50
176
1
 90
50
176
1
 90
50
176
1
290
0
176
1
 90
50
176
1
 62
256
176
0
 40
1.0
176
0
 90
2
176
1
  1
strokes_ogs.tif
176
1
290
0
176
1
 40
1.0
176
1
 40
1.0
176
1
  0
VISUALSTYLE
  5
63
102
{ACAD_REACTORS
330
16
102
}
330
16
100
AcDbVisualStyle
  2
FlatWithEdges
 70
1
177
3
291
1
 70
58
 90
2
176
1
 90
2
176
1
 90
0
176
1
 90
2
176
1
 40
0.6
176
1
 40
30.0
176
1
 62
7
420
16777215
176
1
 90
1
176
1
 90
4
176
1
 62
7
176
1
 62
257
176
1
 90
1
176
1
 90
1
176
1
 40
1.0
176
1
 90
8
176
1
 62
7
176
1
 40
1.0
176
1
 90
1
176
1
 90
6
176
1
 90
2
176
1
 62
7
176
1
 90
5
176
1
 90
0
176
1
 90
0
176
1
290
0
176
1
 90
1
176
1
 40
0.0
176
1
 90
0
176
1
290
0
176
1
290
1
176
1
290
1
176
1
290
0
176
1
290
0
176
1
290
0
176
1
290
0
176
1
290
0
176
1
290
0
176
1
 90
50
176
1
 40
0.0
176
1
 40
1.0
176
1
 90
0
176
1
 62
18
420
0
176
1
 90
50
176
1
 90
3
176
1
 62
5
420
255
176
1
290
0
176
1
 90
50
176
1
 90
50
176
1
 90
50
176
1
290
0
176
1
 90
50
176
1
 62
256
176
0
 40
1.0
176
0
 90
2
176
1
  1
strokes_ogs.tif
176
1
290
0
176
1
 40
1.0
176
1
 40
1.0
176
1
  0
VISUALSTYLE
  5
64
102
{ACAD_REACTORS
330
16
102
}
330
16
100
AcDbVisualStyle
  2
Gouraud
 70
2
177
3
291
1
 70
58
 90
2
176
1
 90
2
176
1
 90
0
176
1
 90
2
176
1
 40
0.6
176
1
 40
30.0
176
1
 62
7
420
16777215
176
1
 90
1
176
1
 90
4
176
1
 62
7
176
1
 62
257
176
1
 90
1
176
1
 90
1
176
1
 40
1.0
176
1
 90
8
176
1
 62
7
176
1
 40
1.0
176
1
 90
1
176
1
 90
6
176
1
 90
2
176
1
 62
7
176
1
 90
5
176
1
 90
0
176
1
 90
0
176
1
290
0
176
1
 90
1
176
1
 40
0.0
176
1
 90
0
176
1
290
0
176
1
290
1
176
1
290
1
176
1
290
0
176
1
290
0
176
1
290
0
176
1
290
0
176
1
290
0
176
1
290
0
176
1
 90
50
176
1
 40
0.0
176
1
 40
1.0
176
1
 90
0
176
1
 62
18
420
0
176
1
 90
50
176
1
 90
3
176
1
 62
5
420
255
176
1
290
0
176
1
 90
50
176
1
 90
50
176
1
 90
50
176
1
290
0
176
1
 90
50
176
1
 62
256
176
0
 40
1.0
176
0
 90
2
176
1
  1
strokes_ogs.tif
176
1
290
0
176
1
 40
1.0
176
1
 40
1.0
176
1
  0
VISUALSTYLE
  5
65
102
{ACAD_REACTORS
330
16
102
}
330
16
100
AcDbVisualStyle
  2
GouraudWithEdges
 70
3
177
3
291
1
 70
58
 90
2
176
1
 90
2
176
1
 90
0
176
1
 90
2
176
1
 40
0.6
176
1
 40
30.0
176
1
 62
7
420
16777215
176
1
 90
1
176
1
 90
4
176
1
 62
7
176
1
 62
257
176
1
 90
1
176
1
 90
1
176
1
 40
1.0
176
1
 90
8
176
1
 62
7
176
1
 40
1.0
176
1
 90
1
176
1
 90
6
176
1
 90
2
176
1
 62
7
176
1
 90
5
176
1
 90
0
176
1
 90
0
176
1
290
0
176
1
 90
1
176
1
 40
0.0
176
1
 90
0
176
1
290
0
176
1
290
1
176
1
290
1
176
1
290
0
176
1
290
0
176
1
290
0
176
1
290
0
176
1
290
0
176
1
290
0
176
1
 90
50
176
1
 40
0.0
176
1
 40
1.0
176
1
 90
0
176
1
 62
18
420
0
176
1
 90
50
176
1
 90
3
176
1
 62
5
420
255
176
1
290
0
176
1
 90
50
176
1
 90
50
176
1
 90
50
176
1
290
0
176
1
 90
50
176
1
 62
256
176
0
 40
1.0
176
0
 90
2
176
1
  1
strokes_ogs.tif
176
1
290
0
176
1
 40
1.0
176
1
 40
1.0
176
1
  0
VISUALSTYLE
  5
66
102
{ACAD_REACTORS
330
16
102
}
330
16
100
AcDbVisualStyle
  2
Hidden
 70
6
177
3
291
0
 70
58
 90
2
176
1
 90
2
176
1
 90
0
176
1
 90
1
176
1
 40
0.6
176
1
 40
30.0
176
1
 62
7
420
16777215
176
1
 90
1
176
1
 90
4
176
1
 62
7
176
1
 62
257
176
1
 90
1
176
1
 90
1
176
1
 40
1.0
176
1
 90
8
176
1
 62
7
176
1
 40
1.0
176
1
 90
1
176
1
 90
6
176
1
 90
2
176
1
 62
7
176
1
 90
5
176
1
 90
0
176
1
 90
0
176
1
290
0
176
1
 90
1
176
1
 40
0.0
176
1
 90
0
176
1
290
0
176
1
290
1
176
1
290
1
176
1
290
0
176
1
290
0
176
1
290
0
176
1
290
0
176
1
290
0
176
1
290
0
176
1
 90
50
176
1
 40
0.0
176
1
 40
1.0
176
1
 90
0
176
1
 62
18
420
0
176
1
 90
50
176
1
 90
3
176
1
 62
5
420
255
176
1
290
0
176
1
 90
50
176
1
 90
50
176
1
 90
50
176
1
290
0
176
1
 90
50
176
1
 62
256
176
0
 40
1.0
176
0
 90
2
176
1
  1
strokes_ogs.tif
176
1
290
0
176
1
 40
1.0
176
1
 40
1.0
176
1
  0
VISUALSTYLE
  5
67
102
{ACAD_REACTORS
330
16
102
}
330
16
100
AcDbVisualStyle
  2
JitterOff
 70
20
177
3
291
1
 70
58
 90
2
176
1
 90
2
176
1
 90
0
176
1
 90
2
176
1
 40
0.6
176
1
 40
30.0
176
1
 62
7
420
16777215
176
1
 90
1
176
1
 90
4
176
1
 62
7
176
1
 62
257
176
1
 90
1
176
1
 90
1
176
1
 40
1.0
176
1
 90
8
176
1
 62
7
176
1
 40
1.0
176
1
 90
1
176
1
 90
6
176
1
 90
2
176
1
 62
7
176
1
 90
5
176
1
 90
0
176
1
 90
0
176
1
290
0
176
1
 90
1
176
1
 40
0.0
176
1
 90
0
176
1
290
0
176
1
290
1
176
1
290
1
176
1
290
0
176
1
290
0
176
1
290
0
176
1
290
0
176
1
290
0
176
1
290
0
176
1
 90
50
176
1
 40
0.0
176
1
 40
1.0
176
1
 90
0
176
1
 62
18
420
0
176
1
 90
50
176
1
 90
3
176
1
 62
5
420
255
176
1
290
0
176
1
 90
50
176
1
 90
50
176
1
 90
50
176
1
290
0
176
1
 90
50
176
1
 62
256
176
0
 40
1.0
176
0
 90
2
176
1
  1
strokes_ogs.tif
176
1
290
0
176
1
 40
1.0
176
1
 40
1.0
176
1
  0
VISUALSTYLE
  5
68
102
{ACAD_REACTORS
330
16
102
}
330
16
100
AcDbVisualStyle
  2
Linepattern
 70
14
177
3
291
1
 70
58
 90
2
176
1
 90
2
176
1
 90
0
176
1
 90
2
176
1
 40
0.6
176
1
 40
30.0
176
1
 62
7
420
16777215
176
1
 90
1
176
1
 90
4
176
1
 62
7
176
1
 62
257
176
1
 90
1
176
1
 90
1
176
1
 40
1.0
176
1
 90
8
176
1
 62
7
176
1
 40
1.0
176
1
 90
1
176
1
 90
6
176
1
 90
2
176
1
 62
7
176
1
 90
5
176
1
 90
0
176
1
 90
0
176
1
290
0
176
1
 90
1
176
1
 40
0.0
176
1
 90
0
176
1
290
0
176
1
290
1
176
1
290
1
176
1
290
0
176
1
290
0
176
1
290
0
176
1
290
0
176
1
290
0
176
1
290
0
176
1
 90
50
176
1
 40
0.0
176
1
 40
1.0
176
1
 90
0
176
1
 62
18
420
0
176
1
 90
50
176
1
 90
3
176
1
 62
5
420
255
176
1
290
0
176
1
 90
50
176
1
 90
50
176
1
 90
50
176
1
290
0
176
1
 90
50
176
1
 62
256
176
0
 40
1.0
176
0
 90
2
176
1
  1
strokes_ogs.tif
176
1
290
0
176
1
 40
1.0
176
1
 40
1.0
176
1
  0
VISUALSTYLE
  5
69
102
{ACAD_REACTORS
330
16
102
}
330
16
100
AcDbVisualStyle
  2
Modeling
 70
10
177
3
291
0
 70
58
 90
2
176
1
 90
2
176
1
 90
0
176
1
 90
2
176
1
 40
0.6
176
1
 40
30.0
176
1
 62
7
420
16777215
176
1
 90
1
176
1
 90
4
176
1
 62
7
176
1
 62
257
176
1
 90
1
176
1
 90
1
176
1
 40
1.0
176
1
 90
8
176
1
 62
7
176
1
 40
1.0
176
1
 90
1
176
1
 90
6
176
1
 90
2
176
1
 62
7
176
1
 90
5
176
1
 90
0
176
1
 90
0
176
1
290
0
176
1
 90
1
176
1
 40
0.0
176
1
 90
0
176
1
290
0
176
1
290
1
176
1
290
1
176
1
290
0
176
1
290
0
176
1
290
0
176
1
290
0
176
1
290
0
176
1
290
0
176
1
 90
50
176
1
 40
0.0
176
1
 40
1.0
176
1
 90
0
176
1
 62
18
420
0
176
1
 90
50
176
1
 90
3
176
1
 62
5
420
255
176
1
290
0
176
1
 90
50
176
1
 90
50
176
1
 90
50
176
1
290
0
176
1
 90
50
176
1
 62
256
176
0
 40
1.0
176
0
 90
2
176
1
  1
strokes_ogs.tif
176
1
290
0
176
1
 40
1.0
176
1
 40
1.0
176
1
  0
VISUALSTYLE
  5
6A
102
{ACAD_REACTORS
330
16
102
}
330
16
100
AcDbVisualStyle
  2
OverhangOff
 70
21
177
3
291
1
 70
58
 90
2
176
1
 90
2
176
1
 90
0
176
1
 90
2
176
1
 40
0.6
176
1
 40
30.0
176
1
 62
7
420
16777215
176
1
 90
1
176
1
 90
4
176
1
 62
7
176
1
 62
257
176
1
 90
1
176
1
 90
1
176
1
 40
1.0
176
1
 90
8
176
1
 62
7
176
1
 40
1.0
176
1
 90
1
176
1
 90
6
176
1
 90
2
176
1
 62
7
176
1
 90
5
176
1
 90
0
176
1
 90
0
176
1
290
0
176
1
 90
1
176
1
 40
0.0
176
1
 90
0
176
1
290
0
176
1
290
1
176
1
290
1
176
1
290
0
176
1
290
0
176
1
290
0
176
1
290
0
176
1
290
0
176
1
290
0
176
1
 90
50
176
1
 40
0.0
176
1
 40
1.0
176
1
 90
0
176
1
 62
18
420
0
176
1
 90
50
176
1
 90
3
176
1
 62
5
420
255
176
1
290
0
176
1
 90
50
176
1
 90
50
176
1
 90
50
176
1
290
0
176
1
 90
50
176
1
 62
256
176
0
 40
1.0
176
0
 90
2
176
1
  1
strokes_ogs.tif
176
1
290
0
176
1
 40
1.0
176
1
 40
1.0
176
1
  0
VISUALSTYLE
  5
6B
102
{ACAD_REACTORS
330
16
102
}
330
16
100
AcDbVisualStyle
  2
Realistic
 70
8
177
3
291
0
 70
58
 90
2
176
1
 90
2
176
1
 90
0
176
1
 90
2
176
1
 40
0.6
176
1
 40
30.0
176
1
 62
7
420
16777215
176
1
 90
1
176
1
 90
4
176
1
 62
7
176
1
 62
257
176
1
 90
1
176
1
 90
1
176
1
 40
1.0
176
1
 90
8
176
1
 62
7
176
1
 40
1.0
176
1
 90
1
176
1
 90
6
176
1
 90
2
176
1
 62
7
176
1
 90
5
176
1
 90
0
176
1
 90
0
176
1
290
0
176
1
 90
1
176
1
 40
0.0
176
1
 90
0
176
1
290
0
176
1
290
1
176
1
290
1
176
1
290
0
176
1
290
0
176
1
290
0
176
1
290
0
176
1
290
0
176
1
290
0
176
1
 90
50
176
1
 40
0.0
176
1
 40
1.0
176
1
 90
0
176
1
 62
18
420
0
176
1
 90
50
176
1
 90
3
176
1
 62
5
420
255
176
1
290
0
176
1
 90
50
176
1
 90
50
176
1
 90
50
176
1
290
0
176
1
 90
50
176
1
 62
256
176
0
 40
1.0
176
0
 90
2
176
1
  1
strokes_ogs.tif
176
1
290
0
176
1
 40
1.0
176
1
 40
1.0
176
1
  0
VISUALSTYLE
  5
6C
102
{ACAD_REACTORS
330
16
102
}
330
16
100
AcDbVisualStyle
  2
Shaded
 70
27
177
3
291
0
 70
58
 90
2
176
1
 90
2
176
1
 90
0
176
1
 90
2
176
1
 40
0.6
176
1
 40
30.0
176
1
 62
7
420
16777215
176
1
 90
1
176
1
 90
4
176
1
 62
7
176
1
 62
257
176
1
 90
1
176
1
 90
1
176
1
 40
1.0
176
1
 90
8
176
1
 62
7
176
1
 40
1.0
176
1
 90
1
176
1
 90
6
176
1
 90
2
176
1
 62
7
176
1
 90
5
176
1
 90
0
176
1
 90
0
176
1
290
0
176
1
 90
1
176
1
 40
0.0
176
1
 90
0
176
1
290
0
176
1
290
1
176
1
290
1
176
1
290
0
176
1
290
0
176
1
290
0
176
1
290
0
176
1
290
0
176
1
290
0
176
1
 90
50
176
1
 40
0.0
176
1
 40
1.0
176
1
 90
0
176
1
 62
18
420
0
176
1
 90
50
176
1
 90
3
176
1
 62
5
420
255
176
1
290
0
176
1
 90
50
176
1
 90
50
176
1
 90
50
176
1
290
0
176
1
 90
50
176
1
 62
256
176
0
 40
1.0
176
0
 90
2
176
1
  1
strokes_ogs.tif
176
1
290
0
176
1
 40
1.0
176
1
 40
1.0
176
1
  0
VISUALSTYLE
  5
6D
102
{ACAD_REACTORS
330
16
102
}
330
16
100
AcDbVisualStyle
  2
Shaded with edges
 70
26
177
3
291
0
 70
58
 90
2
176
1
 90
2
176
1
 90
0
176
1
 90
2
176
1
 40
0.6
176
1
 40
30.0
176
1
 62
7
420
16777215
176
1
 90
1
176
1
 90
4
176
1
 62
7
176
1
 62
257
176
1
 90
1
176
1
 90
1
176
1
 40
1.0
176
1
 90
8
176
1
 62
7
176
1
 40
1.0
176
1
 90
1
176
1
 90
6
176
1
 90
2
176
1
 62
7
176
1
 90
5
176
1
 90
0
176
1
 90
0
176
1
290
0
176
1
 90
1
176
1
 40
0.0
176
1
 90
0
176
1
290
0
176
1
290
1
176
1
290
1
176
1
290
0
176
1
290
0
176
1
290
0
176
1
290
0
176
1
290
0
176
1
290
0
176
1
 90
50
176
1
 40
0.0
176
1
 40
1.0
176
1
 90
0
176
1
 62
18
420
0
176
1
 90
50
176
1
 90
3
176
1
 62
5
420
255
176
1
290
0
176
1
 90
50
176
1
 90
50
176
1
 90
50
176
1
290
0
176
1
 90
50
176
1
 62
256
176
0
 40
1.0
176
0
 90
2
176
1
  1
strokes_ogs.tif
176
1
290
0
176
1
 40
1.0
176
1
 40
1.0
176
1
  0
VISUALSTYLE
  5
6E
102
{ACAD_REACTORS
330
16
102
}
330
16
100
AcDbVisualStyle
  2
Shades of Gray
 70
23
177
3
291
0
 70
58
 90
2
176
1
 90
2
176
1
 90
0
176
1
 90
2
176
1
 40
0.6
176
1
 40
30.0
176
1
 62
7
420
16777215
176
1
 90
1
176
1
 90
4
176
1
 62
7
176
1
 62
257
176
1
 90
1
176
1
 90
1
176
1
 40
1.0
176
1
 90
8
176
1
 62
7
176
1
 40
1.0
176
1
 90
1
176
1
 90
6
176
1
 90
2
176
1
 62
7
176
1
 90
5
176
1
 90
0
176
1
 90
0
176
1
290
0
176
1
 90
1
176
1
 40
0.0
176
1
 90
0
176
1
290
0
176
1
290
1
176
1
290
1
176
1
290
0
176
1
290
0
176
1
290
0
176
1
290
0
176
1
290
0
176
1
290
0
176
1
 90
50
176
1
 40
0.0
176
1
 40
1.0
176
1
 90
0
176
1
 62
18
420
0
176
1
 90
50
176
1
 90
3
176
1
 62
5
420
255
176
1
290
0
176
1
 90
50
176
1
 90
50
176
1
 90
50
176
1
290
0
176
1
 90
50
176
1
 62
256
176
0
 40
1.0
176
0
 90
2
176
1
  1
strokes_ogs.tif
176
1
290
0
176
1
 40
1.0
176
1
 40
1.0
176
1
  0
VISUALSTYLE
  5
6F
102
{ACAD_REACTORS
330
16
102
}
330
16
100
AcDbVisualStyle
  2
Sketchy
 70
24
177
3
291
0
 70
58
 90
2
176
1
 90
2
176
1
 90
0
176
1
 90
1
176
1
 40
0.6
176
1
 40
30.0
176
1
 62
7
420
16777215
176
1
 90
1
176
1
 90
4
176
1
 62
7
176
1
 62
257
176
1
 90
1
176
1
 90
1
176
1
 40
1.0
176
1
 90
8
176
1
 62
7
176
1
 40
1.0
176
1
 90
1
176
1
 90
6
176
1
 90
2
176
1
 62
7
176
1
 90
5
176
1
 90
0
176
1
 90
0
176
1
290
0
176
1
 90
1
176
1
 40
0.0
176
1
 90
0
176
1
290
0
176
1
290
1
176
1
290
1
176
1
290
0
176
1
290
0
176
1
290
0
176
1
290
0
176
1
290
0
176
1
290
0
176
1
 90
50
176
1
 40
0.0
176
1
 40
1.0
176
1
 90
0
176
1
 62
18
420
0
176
1
 90
50
176
1
 90
3
176
1
 62
5
420
255
176
1
290
0
176
1
 90
50
176
1
 90
50
176
1
 90
50
176
1
290
0
176
1
 90
50
176
1
 62
256
176
0
 40
1.0
176
0
 90
2
176
1
  1
strokes_ogs.tif
176
1
290
0
176
1
 40
1.0
176
1
 40
1.0
176
1
  0
VISUALSTYLE
  5
70
102
{ACAD_REACTORS
330
16
102
}
330
16
100
AcDbVisualStyle
  2
Thicken
 70
13
177
3
291
1
 70
58
 90
2
176
1
 90
2
176
1
 90
0
176
1
 90
2
176
1
 40
0.6
176
1
 40
30.0
176
1
 62
7
420
16777215
176
1
 90
1
176
1
 90
4
176
1
 62
7
176
1
 62
257
176
1
 90
1
176
1
 90
1
176
1
 40
1.0
176
1
 90
8
176
1
 62
7
176
1
 40
1.0
176
1
 90
1
176
1
 90
6
176
1
 90
2
176
1
 62
7
176
1
 90
5
176
1
 90
0
176
1
 90
0
176
1
290
0
176
1
 90
1
176
1
 40
0.0
176
1
 90
0
176
1
290
0
176
1
290
1
176
1
290
1
176
1
290
0
176
1
290
0
176
1
290
0
176
1
290
0
176
1
290
0
176
1
290
0
176
1
 90
50
176
1
 40
0.0
176
1
 40
1.0
176
1
 90
0
176
1
 62
18
420
0
176
1
 90
50
176
1
 90
3
176
1
 62
5
420
255
176
1
290
0
176
1
 90
50
176
1
 90
50
176
1
 90
50
176
1
290
0
176
1
 90
50
176
1
 62
256
176
0
 40
1.0
176
0
 90
2
176
1
  1
strokes_ogs.tif
176
1
290
0
176
1
 40
1.0
176
1
 40
1.0
176
1
  0
VISUALSTYLE
  5
71
102
{ACAD_REACTORS
330
16
102
}
330
16
100
AcDbVisualStyle
  2
Wireframe
 70
5
177
3
291
0
 70
58
 90
2
176
1
 90
2
176
1
 90
0
176
1
 90
0
176
1
 40
0.6
176
1
 40
30.0
176
1
 62
7
420
16777215
176
1
 90
1
176
1
 90
4
176
1
 62
7
176
1
 62
257
176
1
 90
1
176
1
 90
1
176
1
 40
1.0
176
1
 90
8
176
1
 62
7
176
1
 40
1.0
176
1
 90
1
176
1
 90
6
176
1
 90
2
176
1
 62
7
176
1
 90
5
176
1
 90
0
176
1
 90
0
176
1
290
0
176
1
 90
1
176
1
 40
0.0
176
1
 90
0
176
1
290
0
176
1
290
1
176
1
290
1
176
1
290
0
176
1
290
0
176
1
290
0
176
1
290
0
176
1
290
0
176
1
290
0
176
1
 90
50
176
1
 40
0.0
176
1
 40
1.0
176
1
 90
0
176
1
 62
18
420
0
176
1
 90
50
176
1
 90
3
176
1
 62
5
420
255
176
1
290
0
176
1
 90
50
176
1
 90
50
176
1
 90
50
176
1
290
0
176
1
 90
50
176
1
 62
256
176
0
 40
1.0
176
0
 90
2
176
1
  1
strokes_ogs.tif
176
1
290
0
176
1
 40
1.0
176
1
 40
1.0
176
1
  0
VISUALSTYLE
  5
72
102
{ACAD_REACTORS
330
16
102
}
330
16
100
AcDbVisualStyle
  2
X-Ray
 70
25
177
3
291
0
 70
58
 90
2
176
1
 90
2
176
1
 90
0
176
1
 90
2
176
1
 40
0.5
176
1
 40
30.0
176
1
 62
7
420
16777215
176
1
 90
1
176
1
 90
4
176
1
 62
7
176
1
 62
257
176
1
 90
1
176
1
 90
1
176
1
 40
1.0
176
1
 90
8
176
1
 62
7
176
1
 40
1.0
176
1
 90
1
176
1
 90
6
176
1
 90
2
176
1
 62
7
176
1
 90
5
176
1
 90
0
176
1
 90
0
176
1
290
0
176
1
 90
1
176
1
 40
0.0
176
1
 90
0
176
1
290
0
176
1
290
1
176
1
290
1
176
1
290
0
176
1
290
0
176
1
290
0
176
1
290
0
176
1
290
0
176
1
290
0
176
1
 90
50
176
1
 40
0.0
176
1
 40
1.0
176
1
 90
0
176
1
 62
18
420
0
176
1
 90
50
176
1
 90
3
176
1
 62
5
420
255
176
1
290
0
176
1
 90
50
176
1
 90
50
176
1
 90
50
176
1
290
0
176
1
 90
50
176
1
 62
256
176
0
 40
1.0
176
0
 90
2
176
1
  1
strokes_ogs.tif
176
1
290
0
176
1
 40
1.0
176
1
 40
1.0
176
1
  0
DICTIONARYVAR
  5
1D1
330
2D
100
DictionaryVariables
280
0
  1
1.4.4 @ 2026-10-04T12:27:37.891742+00:00
  0
ENDSEC
  0
EOF
