  0
SECTION
  2
HEADER
  9
$ACADVER
  1
AC1032
  9
$ACADMAINTVER
 90
4
  9
$DWGCODEPAGE
  3
ANSI_1252
  9
$LASTSAVEDBY
  1
ezdxf
  9
$REQUIREDVERSIONS
160
0
  9
$INSBASE
 10
0.0
 20
0.0
 30
0.0
  9
$EXTMIN
 10
1e+20
 20
1e+20
 30
1e+20
  9
$EXTMAX
 10
-1e+20
 20
-1e+20
 30
-1e+20
  9
$LIMMIN
 10
0.0
 20
0.0
  9
$LIMMAX
 10
420.0
 20
297.0
  9
$ORTHOMODE
 70
0
  9
$REGENMODE
 70
1
  9
$FILLMODE
 70
1
  9
$QTEXTMODE
 70
0
  9
$MIRRTEXT
 70
1
  9
$LTSCALE
 40
200.0
  9
$ATTMODE
 70
1
  9
$TEXTSIZE
 40
2.5
  9
$TRACEWID
 40
1.0
  9
$TEXTSTYLE
  7
OpenSans
  9
$CLAYER
  8
0
  9
$CELTYPE
  6
ByLayer
  9
$CECOLOR
 62
256
  9
$CELTSCALE
 40
1.0
  9
$DISPSILH
 70
0
  9
$DIMSCALE
 40
1.0
  9
$DIMASZ
 40
0.175
  9
$DIMEXO
 40
0.125
  9
$DIMDLI
 40
3.75
  9
$DIMRND
 40
0.0
  9
$DIMDLE
 40
0.0
  9
$DIMEXE
 40
0.375
  9
$DIMTP
 40
0.0
  9
$DIMTM
 40
0.0
  9
$DIMTXT
 40
0.25
  9
$DIMCEN
 40
2.5
  9
$DIMTSZ
 40
0.0
  9
$DIMTOL
 70
0
  9
$DIMLIM
 70
0
  9
$DIMTIH
 70
0
  9
$DIMTOH
 70
0
  9
$DIMSE1
 70
0
  9
$DIMSE2
 70
0
  9
$DIMTAD
 70
1
  9
$DIMZIN
 70
12
  9
$DIMBLK
  1
ARCHTICK
  9
$DIMASO
 70
1
  9
$DIMSHO
 70
1
  9
$DIMPOST
  1

  9
$DIMAPOST
  1

  9
$DIMALT
 70
0
  9
$DIMALTD
 70
3
  9
$DIMALTF
 40
0.03937007874
  9
$DIMLFAC
 40
100.0
  9
$DIMTOFL
 70
1
  9
$DIMTVP
 40
0.0
  9
$DIMTIX
 70
0
  9
$DIMSOXD
 70
0
  9
$DIMSAH
 70
0
  9
$DIMBLK1
  1

  9
$DIMBLK2
  1

  9
$DIMSTYLE
  2
EZDXF
  9
$DIMCLRD
 70
0
  9
$DIMCLRE
 70
0
  9
$DIMCLRT
 70
0
  9
$DIMTFAC
 40
0.5
  9
$DIMGAP
 40
0.1
  9
$DIMJUST
 70
0
  9
$DIMSD1
 70
0
  9
$DIMSD2
 70
0
  9
$DIMTOLJ
 70
0
  9
$DIMTZIN
 70
8
  9
$DIMALTZ
 70
0
  9
$DIMALTTZ
 70
0
  9
$DIMUPT
 70
1
  9
$DIMDEC
 70
2
  9
$DIMTDEC
 70
2
  9
$DIMALTU
 70
2
  9
$DIMALTTD
 70
3
  9
$DIMTXSTY
  7
OpenSansCondensed-Light
  9
$DIMAUNIT
 70
0
  9
$DIMADEC
 70
2
  9
$DIMALTRND
 40
0.0
  9
$DIMAZIN
 70
3
  9
$DIMDSEP
 70
46
  9
$DIMATFIT
 70
3
  9
$DIMFRAC
 70
0
  9
$DIMLDRBLK
  1

  9
$DIMLUNIT
 70
2
  9
$DIMLWD
 70
-2
  9
$DIMLWE
 70
-2
  9
$DIMTMOVE
 70
2
  9
$DIMFXL
 40
1.0
  9
$DIMFXLON
 70
0
  9
$DIMJOGANG
 40
0.785398163397
  9
$DIMTFILL
 70
0
  9
$DIMTFILLCLR
 70
0
  9
$DIMARCSYM
 70
0
  9
$DIMLTYPE
  6

  9
$DIMLTEX1
  6

  9
$DIMLTEX2
  6

  9
$DIMTXTDIRECTION
 70
0
  9
$LUNITS
 70
2
  9
$LUPREC
 70
4
  9
$SKETCHINC
 40
1.0
  9
$FILLETRAD
 40
10.0
  9
$AUNITS
 70
0
  9
$AUPREC
 70
2
  9
$MENU
  1
.
  9
$ELEVATION
 40
0.0
  9
$PELEVATION
 40
0.0
  9
$THICKNESS
 40
0.0
  9
$LIMCHECK
 70
0
  9
$CHAMFERA
 40
0.0
  9
$CHAMFERB
 40
0.0
  9
$CHAMFERC
 40
0.0
  9
$CHAMFERD
 40
0.0
  9
$SKPOLY
 70
0
  9
$TDCREATE
 40
2461318.550949074
  9
$TDUCREATE
 40
2458532.153996898
  9
$TDUPDATE
 40
2461318.551087963
  9
$TDUUPDATE
 40
2458532.1544311
  9
$TDINDWG
 40
0.0
  9
$TDUSRTIMER
 40
0.0
  9
$USRTIMER
 70
1
  9
$ANGBASE
 50
0.0
  9
$ANGDIR
 70
0
  9
$PDMODE
 70
0
  9
$PDSIZE
 40
0.0
  9
$PLINEWID
 40
0.0
  9
$SPLFRAME
 70
0
  9
$SPLINETYPE
 70
6
  9
$SPLINESEGS
 70
8
  9
$HANDSEED
  5
178
  9
$SURFTAB1
 70
6
  9
$SURFTAB2
 70
6
  9
$SURFTYPE
 70
6
  9
$SURFU
 70
6
  9
$SURFV
 70
6
  9
$UCSBASE
  2

  9
$UCSNAME
  2

  9
$UCSORG
 10
0.0
 20
0.0
 30
0.0
  9
$UCSXDIR
 10
1.0
 20
0.0
 30
0.0
  9
$UCSYDIR
 10
0.0
 20
1.0
 30
0.0
  9
$UCSORTHOREF
  2

  9
$UCSORTHOVIEW
 70
0
  9
$UCSORGTOP
 10
0.0
 20
0.0
 30
0.0
  9
$UCSORGBOTTOM
 10
0.0
 20
0.0
 30
0.0
  9
$UCSORGLEFT
 10
0.0
 20
0.0
 30
0.0
  9
$UCSORGRIGHT
 10
0.0
 20
0.0
 30
0.0
  9
$UCSORGFRONT
 10
0.0
 20
0.0
 30
0.0
  9
$UCSORGBACK
 10
0.0
 20
0.0
 30
0.0
  9
$PUCSBASE
  2

  9
$PUCSNAME
  2

  9
$PUCSORG
 10
0.0
 20
0.0
 30
0.0
  9
$PUCSXDIR
 10
1.0
 20
0.0
 30
0.0
  9
$PUCSYDIR
 10
0.0
 20
1.0
 30
0.0
  9
$PUCSORTHOREF
  2

  9
$PUCSORTHOVIEW
 70
0
  9
$PUCSORGTOP
 10
0.0
 20
0.0
 30
0.0
  9
$PUCSORGBOTTOM
 10
0.0
 20
0.0
 30
0.0
  9
$PUCSORGLEFT
 10
0.0
 20
0.0
 30
0.0
  9
$PUCSORGRIGHT
 10
0.0
 20
0.0
 30
0.0
  9
$PUCSORGFRONT
 10
0.0
 20
0.0
 30
0.0
  9
$PUCSORGBACK
 10
0.0
 20
0.0
 30
0.0
  9
$USERI1
 70
0
  9
$USERI2
 70
0
  9
$USERI3
 70
0
  9
$USERI4
 70
0
  9
$USERI5
 70
0
  9
$USERR1
 40
0.0
  9
$USERR2
 40
0.0
  9
$USERR3
 40
0.0
  9
$USERR4
 40
0.0
  9
$USERR5
 40
0.0
  9
$WORLDVIEW
 70
1
  9
$SHADEDGE
 70
3
  9
$SHADEDIF
 70
70
  9
$TILEMODE
 70
1
  9
$MAXACTVP
 70
64
  9
$PINSBASE
 10
0.0
 20
0.0
 30
0.0
  9
$PLIMCHECK
 70
0
  9
$PEXTMIN
 10
1e+20
 20
1e+20
 30
1e+20
  9
$PEXTMAX
 10
-1e+20
 20
-1e+20
 30
-1e+20
  9
$PLIMMIN
 10
0.0
 20
0.0
  9
$PLIMMAX
 10
420.0
 20
297.0
  9
$UNITMODE
 70
0
  9
$VISRETAIN
 70
1
  9
$PLINEGEN
 70
0
  9
$PSLTSCALE
 70
0
  9
$TREEDEPTH
 70
3020
  9
$CMLSTYLE
  2
Standard
  9
$CMLJUST
 70
0
  9
$CMLSCALE
 40
20.0
  9
$PROXYGRAPHICS
 70
1
  9
$MEASUREMENT
 70
1
  9
$CELWEIGHT
370
-1
  9
$ENDCAPS
280
0
  9
$JOINSTYLE
280
0
  9
$LWDISPLAY
290
0
  9
$INSUNITS
 70
4
  9
$HYPERLINKBASE
  1

  9
$STYLESHEET
  1

  9
$XEDIT
290
1
  9
$CEPSNTYPE
380
0
  9
$PSTYLEMODE
290
1
  9
$FINGERPRINTGUID
  2
{B03F1EBB-0ACE-4CA5-A8DF-FBF011B3C460}
  9
$VERSIONGUID
  2
{E93C2883-565F-4D70-8F95-5F52F3D25090}
  9
$EXTNAMES
290
1
  9
$PSVPSCALE
 40
0.0
  9
$OLESTARTUP
290
0
  9
$SORTENTS
280
127
  9
$INDEXCTL
280
0
  9
$HIDETEXT
280
1
  9
$XCLIPFRAME
280
1
  9
$HALOGAP
280
0
  9
$OBSCOLOR
 70
257
  9
$OBSLTYPE
280
0
  9
$INTERSECTIONDISPLAY
280
0
  9
$INTERSECTIONCOLOR
 70
257
  9
$DIMASSOC
280
2
  9
$PROJECTNAME
  1

  9
$CAMERADISPLAY
290
0
  9
$LENSLENGTH
 40
50.0
  9
$CAMERAHEIGHT
 40
0.0
  9
$STEPSPERSEC
 40
24.0
  9
$STEPSIZE
 40
100.0
  9
$3DDWFPREC
 40
2.0
  9
$PSOLWIDTH
 40
0.005
  9
$PSOLHEIGHT
 40
0.08
  9
$LOFTANG1
 40
1.570796326795
  9
$LOFTANG2
 40
1.570796326795
  9
$LOFTMAG1
 40
0.0
  9
$LOFTMAG2
 40
0.0
  9
$LOFTPARAM
 70
7
  9
$LOFTNORMALS
280
1
  9
$LATITUDE
 40
37.795
  9
$LONGITUDE
 40
-122.394
  9
$NORTHDIRECTION
 40
0.0
  9
$TIMEZONE
 70
-8000
  9
$LIGHTGLYPHDISPLAY
280
1
  9
$TILEMODELIGHTSYNCH
280
1
  9
$CMATERIAL
347
20
  9
$SOLIDHIST
280
0
  9
$SHOWHIST
280
1
  9
$DWFFRAME
280
2
  9
$DGNFRAME
280
2
  9
$REALWORLDSCALE
290
1
  9
$INTERFERECOLOR
 62
256
  9
$CSHADOW
280
0
  9
$SHADOWPLANELOCATION
 40
0.0
  0
ENDSEC
  0
SECTION
  2
CLASSES
  0
CLASS
  1
ACDBDICTIONARYWDFLT
  2
AcDbDictionaryWithDefault
  3
ObjectDBX Classes
 90
0
 91
0
280
0
281
0
  0
CLASS
  1
SUN
  2
AcDbSun
  3
SCENEOE
 90
1153
 91
0
280
0
281
0
  0
CLASS
  1
VISUALSTYLE
  2
AcDbVisualStyle
  3
ObjectDBX Classes
 90
4095
 91
0
280
0
281
0
  0
CLASS
  1
MATERIAL
  2
AcDbMaterial
  3
ObjectDBX Classes
 90
1153
 91
0
280
0
281
0
  0
CLASS
  1
SCALE
  2
AcDbScale
  3
ObjectDBX Classes
 90
1153
 91
0
280
0
281
0
  0
CLASS
  1
TABLESTYLE
  2
AcDbTableStyle
  3
ObjectDBX Classes
 90
4095
 91
0
280
0
281
0
  0
CLASS
  1
MLEADERSTYLE
  2
AcDbMLeaderStyle
  3
ACDB_MLEADERSTYLE_CLASS
 90
4095
 91
0
280
0
281
0
  0
CLASS
  1
DICTIONARYVAR
  2
AcDbDictionaryVar
  3
ObjectDBX Classes
 90
0
 91
0
280
0
281
0
  0
CLASS
  1
CELLSTYLEMAP
  2
AcDbCellStyleMap
  3
ObjectDBX Classes
 90
1152
 91
0
280
0
281
0
  0
CLASS
  1
MENTALRAYRENDERSETTINGS
  2
AcDbMentalRayRenderSettings
  3
SCENEOE
 90
1024
 91
0
280
0
281
0
  0
CLASS
  1
ACDBDETAILVIEWSTYLE
  2
AcDbDetailViewStyle
  3
ObjectDBX Classes
 90
1025
 91
0
280
0
281
0
  0
CLASS
  1
ACDBSECTIONVIEWSTYLE
  2
AcDbSectionViewStyle
  3
ObjectDBX Classes
 90
1025
 91
0
280
0
281
0
  0
CLASS
  1
RASTERVARIABLES
  2
AcDbRasterVariables
  3
ISM
 90
0
 91
0
280
0
281
0
  0
CLASS
  1
ACDBPLACEHOLDER
  2
AcDbPlaceHolder
  3
ObjectDBX Classes
 90
0
 91
0
280
0
281
0
  0
CLASS
  1
LAYOUT
  2
AcDbLayout
  3
ObjectDBX Classes
 90
0
 91
0
280
0
281
0
  0
ENDSEC
  0
SECTION
  2
TABLES
  0
TABLE
  2
VPORT
  5
8
330
0
100
AcDbSymbolTable
 70
1
  0
VPORT
  5
23
330
8
100
AcDbSymbolTableRecord
100
AcDbViewportTableRecord
  2
*Active
 70
0
 10
0.0
 20
0.0
 11
1.0
 21
1.0
 12
0.0
 22
0.0
 13
0.0
 23
0.0
 14
0.5
 24
0.5
 15
0.5
 25
0.5
 16
0.0
 26
0.0
 36
1.0
 17
0.0
 27
0.0
 37
0.0
 40
1000.0
 41
1.34
 42
50.0
 43
0.0
 44
0.0
 50
0.0
 51
0.0
 71
0
 72
1000
 73
1
 74
3
 75
0
 76
0
 77
0
 78
0
281
0
 65
0
146
0.0
  0
ENDTAB
  0
TABLE
  2
LTYPE
  5
2
330
0
100
AcDbSymbolTable
 70
21
  0
LTYPE
  5
24
330
2
100
AcDbSymbolTableRecord
100
AcDbLinetypeTableRecord
  2
ByBlock
 70
0
  3

 72
65
 73
0
 40
0.0
  0
LTYPE
  5
25
330
2
100
AcDbSymbolTableRecord
100
AcDbLinetypeTableRecord
  2
ByLayer
 70
0
  3

 72
65
 73
0
 40
0.0
  0
LTYPE
  5
26
330
2
100
AcDbSymbolTableRecord
100
AcDbLinetypeTableRecord
  2
Continuous
 70
0
  3

 72
65
 73
0
 40
0.0
  0
LTYPE
  5
2F
330
2
100
AcDbSymbolTableRecord
100
AcDbLinetypeTableRecord
  2
CENTER
 70
0
  3
Center ____ _ ____ _ ____ _ ____ _ ____ _ ____
 72
65
 73
4
 40
5.08
 49
3.175
 74
0
 49
-0.635
 74
0
 49
0.635
 74
0
 49
-0.635
 74
0
  0
LTYPE
  5
30
330
2
100
AcDbSymbolTableRecord
100
AcDbLinetypeTableRecord
  2
CENTERX2
 70
0
  3
Center (2x) ________  __  ________  __  ________
 72
65
 73
4
 40
8.89
 49
6.35
 74
0
 49
-0.635
 74
0
 49
1.27
 74
0
 49
-0.635
 74
0
  0
LTYPE
  5
31
330
2
100
AcDbSymbolTableRecord
100
AcDbLinetypeTableRecord
  2
CENTER2
 70
0
  3
Center (.5x) ____ _ ____ _ ____ _ ____ _ ____
 72
65
 73
4
 40
2.54
 49
1.587
 74
0
 49
-0.318
 74
0
 49
0.318
 74
0
 49
-0.318
 74
0
  0
LTYPE
  5
32
330
2
100
AcDbSymbolTableRecord
100
AcDbLinetypeTableRecord
  2
DASHED
 70
0
  3
Dashed __ __ __ __ __ __ __ __ __ __ __ __ __ _
 72
65
 73
2
 40
1.524
 49
1.27
 74
0
 49
-0.254
 74
0
  0
LTYPE
  5
33
330
2
100
AcDbSymbolTableRecord
100
AcDbLinetypeTableRecord
  2
DASHEDX2
 70
0
  3
Dashed (2x) ____  ____  ____  ____  ____  ____
 72
65
 73
2
 40
3.048
 49
2.54
 74
0
 49
-0.508
 74
0
  0
LTYPE
  5
34
330
2
100
AcDbSymbolTableRecord
100
AcDbLinetypeTableRecord
  2
DASHED2
 70
0
  3
Dashed (.5x) _ _ _ _ _ _ _ _ _ _ _ _ _ _
 72
65
 73
2
 40
0.762
 49
0.635
 74
0
 49
-0.127
 74
0
  0
LTYPE
  5
35
330
2
100
AcDbSymbolTableRecord
100
AcDbLinetypeTableRecord
  2
PHANTOM
 70
0
  3
Phantom ______  __  __  ______  __  __  ______
 72
65
 73
6
 40
6.35
 49
3.175
 74
0
 49
-0.635
 74
0
 49
0.635
 74
0
 49
-0.635
 74
0
 49
0.635
 74
0
 49
-0.635
 74
0
  0
LTYPE
  5
36
330
2
100
AcDbSymbolTableRecord
100
AcDbLinetypeTableRecord
  2
PHANTOMX2
 70
0
  3
Phantom (2x)____________    ____    ____    ____________
 72
65
 73
6
 40
10.795
 49
6.35
 74
0
 49
-0.635
 74
0
 49
1.27
 74
0
 49
-0.635
 74
0
 49
1.27
 74
0
 49
-0.635
 74
0
  0
LTYPE
  5
37
330
2
100
AcDbSymbolTableRecord
100
AcDbLinetypeTableRecord
  2
PHANTOM2
 70
0
  3
Phantom (.5x) ___ _ _ ___ _ _ ___ _ _ ___ _ _ ___
 72
65
 73
6
 40
3.175
 49
1.587
 74
0
 49
-0.318
 74
0
 49
0.318
 74
0
 49
-0.318
 74
0
 49
0.318
 74
0
 49
-0.318
 74
0
  0
LTYPE
  5
38
330
2
100
AcDbSymbolTableRecord
100
AcDbLinetypeTableRecord
  2
DASHDOT
 70
0
  3
Dash dot __ . __ . __ . __ . __ . __ . __ . __
 72
65
 73
4
 40
3.556
 49
2.54
 74
0
 49
-0.508
 74
0
 49
0.0
 74
0
 49
-0.508
 74
0
  0
LTYPE
  5
39
330
2
100
AcDbSymbolTableRecord
100
AcDbLinetypeTableRecord
  2
DASHDOTX2
 70
0
  3
Dash dot (2x) ____  .  ____  .  ____  .  ____
 72
65
 73
4
 40
6.096
 49
5.08
 74
0
 49
-0.508
 74
0
 49
0.0
 74
0
 49
-0.508
 74
0
  0
LTYPE
  5
3A
330
2
100
AcDbSymbolTableRecord
100
AcDbLinetypeTableRecord
  2
DASHDOT2
 70
0
  3
Dash dot (.5x) _ . _ . _ . _ . _ . _ . _ . _
 72
65
 73
4
 40
1.778
 49
1.27
 74
0
 49
-0.254
 74
0
 49
0.0
 74
0
 49
-0.254
 74
0
  0
LTYPE
  5
3B
330
2
100
AcDbSymbolTableRecord
100
AcDbLinetypeTableRecord
  2
DOT
 70
0
  3
Dot .  .  .  .  .  .  .  .  .  .  .  .  .  .  .  .
 72
65
 73
2
 40
0.508
 49
0.0
 74
0
 49
-0.508
 74
0
  0
LTYPE
  5
3C
330
2
100
AcDbSymbolTableRecord
100
AcDbLinetypeTableRecord
  2
DOTX2
 70
0
  3
Dot (2x) .    .    .    .    .    .    .    . 
 72
65
 73
2
 40
1.016
 49
0.0
 74
0
 49
-1.016
 74
0
  0
LTYPE
  5
3D
330
2
100
AcDbSymbolTableRecord
100
AcDbLinetypeTableRecord
  2
DOT2
 70
0
  3
Dot (.5) . . . . . . . . . . . . . . . . . . . 
 72
65
 73
2
 40
0.254
 49
0.0
 74
0
 49
-0.254
 74
0
  0
LTYPE
  5
3E
330
2
100
AcDbSymbolTableRecord
100
AcDbLinetypeTableRecord
  2
DIVIDE
 70
0
  3
Divide __ . . __ . . __ . . __ . . __ . . __
 72
65
 73
6
 40
4.064
 49
2.54
 74
0
 49
-0.508
 74
0
 49
0.0
 74
0
 49
-0.508
 74
0
 49
0.0
 74
0
 49
-0.508
 74
0
  0
LTYPE
  5
3F
330
2
100
AcDbSymbolTableRecord
100
AcDbLinetypeTableRecord
  2
DIVIDEX2
 70
0
  3
Divide (2x) ____  . .  ____  . .  ____  . .  ____
 72
65
 73
6
 40
6.604
 49
5.08
 74
0
 49
-0.508
 74
0
 49
0.0
 74
0
 49
-0.508
 74
0
 49
0.0
 74
0
 49
-0.508
 74
0
  0
LTYPE
  5
40
330
2
100
AcDbSymbolTableRecord
100
AcDbLinetypeTableRecord
  2
DIVIDE2
 70
0
  3
Divide(.5x) _ . _ . _ . _ . _ . _ . _ . _
 72
65
 73
6
 40
2.032
 49
1.27
 74
0
 49
-0.254
 74
0
 49
0.0
 74
0
 49
-0.254
 74
0
 49
0.0
 74
0
 49
-0.254
 74
0
  0
ENDTAB
  0
TABLE
  2
LAYER
  5
1
330
0
100
AcDbSymbolTable
 70
42
  0
LAYER
  5
27
330
1
100
AcDbSymbolTableRecord
100
AcDbLayerTableRecord
  2
0
 70
0
 62
7
  6
Continuous
370
-3
390
13
347
21
  0
LAYER
  5
28
330
1
100
AcDbSymbolTableRecord
100
AcDbLayerTableRecord
  2
Defpoints
 70
0
 62
7
  6
Continuous
290
0
370
-3
390
13
347
21
  0
LAYER
  5
8B
330
1
100
AcDbSymbolTableRecord
100
AcDbLayerTableRecord
  2
G-FRAME
 70
0
 62
7
  6
Continuous
370
70
390
13
347
21
1001
AcAecLayerStandard
1000

1000
図枠
  0
LAYER
  5
8D
330
1
100
AcDbSymbolTableRecord
100
AcDbLayerTableRecord
  2
G-TITLE
 70
0
 62
7
  6
Continuous
370
25
390
13
347
21
1001
AcAecLayerStandard
1000

1000
表題欄
  0
LAYER
  5
8E
330
1
100
AcDbSymbolTableRecord
100
AcDbLayerTableRecord
  2
G-TABLE
 70
0
 62
7
  6
Continuous
370
18
390
13
347
21
1001
AcAecLayerStandard
1000

1000
表
  0
LAYER
  5
8F
330
1
100
AcDbSymbolTableRecord
100
AcDbLayerTableRecord
  2
A-GRID
 70
0
 62
1
  6
CENTER
370
13
390
13
347
21
1001
AcAecLayerStandard
1000

1000
通り芯（一点鎖線・細線）
  0
LAYER
  5
90
330
1
100
AcDbSymbolTableRecord
100
AcDbLayerTableRecord
  2
A-GRID-SYMB
 70
0
 62
7
  6
Continuous
370
18
390
13
347
21
1001
AcAecLayerStandard
1000

1000
通り芯符号
  0
LAYER
  5
91
330
1
100
AcDbSymbolTableRecord
100
AcDbLayerTableRecord
  2
A-CUT
 70
0
 62
7
  6
Continuous
370
50
390
13
347
21
1001
AcAecLayerStandard
1000

1000
切断面 RC（太線）
  0
LAYER
  5
92
330
1
100
AcDbSymbolTableRecord
100
AcDbLayerTableRecord
  2
A-CUT-HATCH
 70
0
 62
8
  6
Continuous
370
9
390
13
347
21
1001
AcAecLayerStandard
1000

1000
切断面ハッチング
  0
LAYER
  5
93
330
1
100
AcDbSymbolTableRecord
100
AcDbLayerTableRecord
  2
A-CUT-LGS
 70
0
 62
7
  6
Continuous
370
35
390
13
347
21
1001
AcAecLayerStandard
1000

1000
切断面 軽量間仕切（中線）
  0
LAYER
  5
94
330
1
100
AcDbSymbolTableRecord
100
AcDbLayerTableRecord
  2
A-CUT-INS
 70
0
 62
9
  6
Continuous
370
9
390
13
347
21
1001
AcAecLayerStandard
1000

1000
切断面 断熱材ハッチング
  0
LAYER
  5
95
330
1
100
AcDbSymbolTableRecord
100
AcDbLayerTableRecord
  2
A-FENCE
 70
0
 62
7
  6
Continuous
370
35
390
13
347
21
1001
AcAecLayerStandard
1000

1000
RC塀
  0
LAYER
  5
96
330
1
100
AcDbSymbolTableRecord
100
AcDbLayerTableRecord
  2
A-PAVE
 70
0
 62
3
  6
Continuous
370
13
390
13
347
21
1001
AcAecLayerStandard
1000

1000
舗装（透水性 Dotcon+）
  0
LAYER
  5
97
330
1
100
AcDbSymbolTableRecord
100
AcDbLayerTableRecord
  2
A-DRAIN
 70
0
 62
5
  6
DASHED
370
25
390
13
347
21
1001
AcAecLayerStandard
1000

1000
雨水排水・浸透施設
  0
LAYER
  5
98
330
1
100
AcDbSymbolTableRecord
100
AcDbLayerTableRecord
  2
A-NEIGH
 70
0
 62
8
  6
Continuous
370
13
390
13
347
21
1001
AcAecLayerStandard
1000

1000
隣接建物（基盤地図情報）
  0
LAYER
  5
99
330
1
100
AcDbSymbolTableRecord
100
AcDbLayerTableRecord
  2
A-WATER
 70
0
 62
5
  6
Continuous
370
18
390
13
347
21
1001
AcAecLayerStandard
1000

1000
水路
  0
LAYER
  5
9A
330
1
100
AcDbSymbolTableRecord
100
AcDbLayerTableRecord
  2
A-TERRAIN
 70
0
 62
30
  6
Continuous
370
25
390
13
347
21
1001
AcAecLayerStandard
1000

1000
地形断面（DEM）
  0
LAYER
  5
9B
330
1
100
AcDbSymbolTableRecord
100
AcDbLayerTableRecord
  2
A-FLOOD
 70
0
 62
5
  6
DASHDOT
370
25
390
13
347
21
1001
AcAecLayerStandard
1000

1000
想定浸水深
  0
LAYER
  5
9C
330
1
100
AcDbSymbolTableRecord
100
AcDbLayerTableRecord
  2
A-FLOW
 70
0
 62
6
  6
DASHED
370
35
390
13
347
21
1001
AcAecLayerStandard
1000

1000
動線（回遊・家事・搬入）
  0
LAYER
  5
9D
330
1
100
AcDbSymbolTableRecord
100
AcDbLayerTableRecord
  2
A-VIS
 70
0
 62
7
  6
Continuous
370
18
390
13
347
21
1001
AcAecLayerStandard
1000

1000
見え掛り（細線）
  0
LAYER
  5
9E
330
1
100
AcDbSymbolTableRecord
100
AcDbLayerTableRecord
  2
A-HIDDEN
 70
0
 62
8
  6
HIDDEN
370
13
390
13
347
21
1001
AcAecLayerStandard
1000

1000
隠れ線（破線）
  0
LAYER
  5
9F
330
1
100
AcDbSymbolTableRecord
100
AcDbLayerTableRecord
  2
A-GLAZ
 70
0
 62
5
  6
Continuous
370
18
390
13
347
21
1001
AcAecLayerStandard
1000

1000
建具・ガラス
  0
LAYER
  5
A0
330
1
100
AcDbSymbolTableRecord
100
AcDbLayerTableRecord
  2
A-DOOR
 70
0
 62
5
  6
Continuous
370
18
390
13
347
21
1001
AcAecLayerStandard
1000

1000
扉・開き勝手
  0
LAYER
  5
A1
330
1
100
AcDbSymbolTableRecord
100
AcDbLayerTableRecord
  2
A-STRS
 70
0
 62
7
  6
Continuous
370
18
390
13
347
21
1001
AcAecLayerStandard
1000

1000
階段
  0
LAYER
  5
A2
330
1
100
AcDbSymbolTableRecord
100
AcDbLayerTableRecord
  2
A-ROOM
 70
0
 62
7
  6
Continuous
370
18
390
13
347
21
1001
AcAecLayerStandard
1000

1000
室名・面積
  0
LAYER
  5
A3
330
1
100
AcDbSymbolTableRecord
100
AcDbLayerTableRecord
  2
A-DIMS
 70
0
 62
7
  6
Continuous
370
13
390
13
347
21
1001
AcAecLayerStandard
1000

1000
寸法
  0
LAYER
  5
A4
330
1
100
AcDbSymbolTableRecord
100
AcDbLayerTableRecord
  2
A-TEXT
 70
0
 62
7
  6
Continuous
370
18
390
13
347
21
1001
AcAecLayerStandard
1000

1000
注記
  0
LAYER
  5
A5
330
1
100
AcDbSymbolTableRecord
100
AcDbLayerTableRecord
  2
A-SYMB
 70
0
 62
7
  6
Continuous
370
18
390
13
347
21
1001
AcAecLayerStandard
1000

1000
記号（方位・切断・レベル）
  0
LAYER
  5
A6
330
1
100
AcDbSymbolTableRecord
100
AcDbLayerTableRecord
  2
A-SITE
 70
0
 62
3
  6
PHANTOM
370
25
390
13
347
21
1001
AcAecLayerStandard
1000

1000
敷地境界線（二点鎖線）
  0
LAYER
  5
A7
330
1
100
AcDbSymbolTableRecord
100
AcDbLayerTableRecord
  2
A-ROAD
 70
0
 62
8
  6
Continuous
370
18
390
13
347
21
1001
AcAecLayerStandard
1000

1000
道路
  0
LAYER
  5
A8
330
1
100
AcDbSymbolTableRecord
100
AcDbLayerTableRecord
  2
A-GROUND
 70
0
 62
7
  6
Continuous
370
50
390
13
347
21
1001
AcAecLayerStandard
1000

1000
地盤面 GL
  0
LAYER
  5
A9
330
1
100
AcDbSymbolTableRecord
100
AcDbLayerTableRecord
  2
A-LEGAL
 70
0
 62
1
  6
DASHED
370
25
390
13
347
21
1001
AcAecLayerStandard
1000

1000
法規制ライン（斜線・延焼ライン）
  0
LAYER
  5
AA
330
1
100
AcDbSymbolTableRecord
100
AcDbLayerTableRecord
  2
A-LEGAL-TEXT
 70
0
 62
1
  6
Continuous
370
18
390
13
347
21
1001
AcAecLayerStandard
1000

1000
法規注記
  0
LAYER
  5
AB
330
1
100
AcDbSymbolTableRecord
100
AcDbLayerTableRecord
  2
A-FIRE
 70
0
 62
6
  6
DASHDOT
370
25
390
13
347
21
1001
AcAecLayerStandard
1000

1000
延焼のおそれのある部分
  0
LAYER
  5
AC
330
1
100
AcDbSymbolTableRecord
100
AcDbLayerTableRecord
  2
A-ALT
 70
0
 62
1
  6
Continuous
370
35
390
13
347
21
1001
AcAecLayerStandard
1000

1000
代替進入口
  0
LAYER
  5
AD
330
1
100
AcDbSymbolTableRecord
100
AcDbLayerTableRecord
  2
S-COLS
 70
0
 62
7
  6
Continuous
370
50
390
13
347
21
1001
AcAecLayerStandard
1000

1000
構造 柱
  0
LAYER
  5
AE
330
1
100
AcDbSymbolTableRecord
100
AcDbLayerTableRecord
  2
S-BEAM
 70
0
 62
7
  6
HIDDEN
370
25
390
13
347
21
1001
AcAecLayerStandard
1000

1000
構造 梁（伏図・隠れ）
  0
LAYER
  5
AF
330
1
100
AcDbSymbolTableRecord
100
AcDbLayerTableRecord
  2
S-BEAM-V
 70
0
 62
7
  6
Continuous
370
35
390
13
347
21
1001
AcAecLayerStandard
1000

1000
構造 梁（見え）
  0
LAYER
  5
B0
330
1
100
AcDbSymbolTableRecord
100
AcDbLayerTableRecord
  2
S-FNDN
 70
0
 62
7
  6
HIDDEN
370
25
390
13
347
21
1001
AcAecLayerStandard
1000

1000
構造 基礎
  0
LAYER
  5
B1
330
1
100
AcDbSymbolTableRecord
100
AcDbLayerTableRecord
  2
S-SLAB
 70
0
 62
7
  6
Continuous
370
18
390
13
347
21
1001
AcAecLayerStandard
1000

1000
構造 スラブ
  0
LAYER
  5
B2
330
1
100
AcDbSymbolTableRecord
100
AcDbLayerTableRecord
  2
S-REBAR
 70
0
 62
1
  6
Continuous
370
35
390
13
347
21
1001
AcAecLayerStandard
1000

1000
鉄筋
  0
LAYER
  5
B3
330
1
100
AcDbSymbolTableRecord
100
AcDbLayerTableRecord
  2
S-TEXT
 70
0
 62
7
  6
Continuous
370
18
390
13
347
21
1001
AcAecLayerStandard
1000

1000
構造 注記
  0
ENDTAB
  0
TABLE
  2
STYLE
  5
5
330
0
100
AcDbSymbolTable
 70
27
  0
STYLE
  5
29
330
5
100
AcDbSymbolTableRecord
100
AcDbTextStyleTableRecord
  2
Standard
 70
0
 40
0.0
 41
1.0
 50
0.0
 71
0
 42
2.5
  3
ipag.ttf
  4

  0
STYLE
  5
41
330
5
100
AcDbSymbolTableRecord
100
AcDbTextStyleTableRecord
  2
OpenSans-Light
 70
0
 40
0.0
 41
1.0
 50
0.0
 71
0
 42
2.5
  3
OpenSans-Light.ttf
  4

  0
STYLE
  5
42
330
5
100
AcDbSymbolTableRecord
100
AcDbTextStyleTableRecord
  2
OpenSans-Light-Italic
 70
0
 40
0.0
 41
1.0
 50
0.0
 71
0
 42
2.5
  3
OpenSans-LightItalic.ttf
  4

  0
STYLE
  5
43
330
5
100
AcDbSymbolTableRecord
100
AcDbTextStyleTableRecord
  2
OpenSans
 70
0
 40
0.0
 41
1.0
 50
0.0
 71
0
 42
2.5
  3
OpenSans-Regular.ttf
  4

  0
STYLE
  5
44
330
5
100
AcDbSymbolTableRecord
100
AcDbTextStyleTableRecord
  2
OpenSans-Italic
 70
0
 40
0.0
 41
1.0
 50
0.0
 71
0
 42
2.5
  3
OpenSans-Italic.ttf
  4

  0
STYLE
  5
45
330
5
100
AcDbSymbolTableRecord
100
AcDbTextStyleTableRecord
  2
OpenSans-SemiBold
 70
0
 40
0.0
 41
1.0
 50
0.0
 71
0
 42
2.5
  3
OpenSans-SemiBold.ttf
  4

  0
STYLE
  5
46
330
5
100
AcDbSymbolTableRecord
100
AcDbTextStyleTableRecord
  2
OpenSans-SemiBoldItalic
 70
0
 40
0.0
 41
1.0
 50
0.0
 71
0
 42
2.5
  3
OpenSans-SemiBoldItalic.ttf
  4

  0
STYLE
  5
47
330
5
100
AcDbSymbolTableRecord
100
AcDbTextStyleTableRecord
  2
OpenSans-Bold
 70
0
 40
0.0
 41
1.0
 50
0.0
 71
0
 42
2.5
  3
OpenSans-Bold.ttf
  4

  0
STYLE
  5
48
330
5
100
AcDbSymbolTableRecord
100
AcDbTextStyleTableRecord
  2
OpenSans-BoldItalic
 70
0
 40
0.0
 41
1.0
 50
0.0
 71
0
 42
2.5
  3
OpenSans-BoldItalic.ttf
  4

  0
STYLE
  5
49
330
5
100
AcDbSymbolTableRecord
100
AcDbTextStyleTableRecord
  2
OpenSans-ExtraBold
 70
0
 40
0.0
 41
1.0
 50
0.0
 71
0
 42
2.5
  3
OpenSans-ExtraBold.ttf
  4

  0
STYLE
  5
4A
330
5
100
AcDbSymbolTableRecord
100
AcDbTextStyleTableRecord
  2
OpenSans-ExtraBoldItalic
 70
0
 40
0.0
 41
1.0
 50
0.0
 71
0
 42
2.5
  3
OpenSans-ExtraBoldItalic.ttf
  4

  0
STYLE
  5
4B
330
5
100
AcDbSymbolTableRecord
100
AcDbTextStyleTableRecord
  2
OpenSansCondensed-Bold
 70
0
 40
0.0
 41
1.0
 50
0.0
 71
0
 42
2.5
  3
OpenSansCondensed-Bold.ttf
  4

  0
STYLE
  5
4C
330
5
100
AcDbSymbolTableRecord
100
AcDbTextStyleTableRecord
  2
OpenSansCondensed-Light
 70
0
 40
0.0
 41
1.0
 50
0.0
 71
0
 42
2.5
  3
OpenSansCondensed-Light.ttf
  4

  0
STYLE
  5
4D
330
5
100
AcDbSymbolTableRecord
100
AcDbTextStyleTableRecord
  2
OpenSansCondensed-Italic
 70
0
 40
0.0
 41
1.0
 50
0.0
 71
0
 42
2.5
  3
OpenSansCondensed-LightItalic.ttf
  4

  0
STYLE
  5
4E
330
5
100
AcDbSymbolTableRecord
100
AcDbTextStyleTableRecord
  2
LiberationSans
 70
0
 40
0.0
 41
1.0
 50
0.0
 71
0
 42
2.5
  3
LiberationSans-Regular.ttf
  4

  0
STYLE
  5
4F
330
5
100
AcDbSymbolTableRecord
100
AcDbTextStyleTableRecord
  2
LiberationSans-Bold
 70
0
 40
0.0
 41
1.0
 50
0.0
 71
0
 42
2.5
  3
LiberationSans-Bold.ttf
  4

  0
STYLE
  5
50
330
5
100
AcDbSymbolTableRecord
100
AcDbTextStyleTableRecord
  2
LiberationSans-BoldItalic
 70
0
 40
0.0
 41
1.0
 50
0.0
 71
0
 42
2.5
  3
LiberationSans-BoldItalic.ttf
  4

  0
STYLE
  5
51
330
5
100
AcDbSymbolTableRecord
100
AcDbTextStyleTableRecord
  2
LiberationSans-Italic
 70
0
 40
0.0
 41
1.0
 50
0.0
 71
0
 42
2.5
  3
LiberationSans-Italic.ttf
  4

  0
STYLE
  5
52
330
5
100
AcDbSymbolTableRecord
100
AcDbTextStyleTableRecord
  2
LiberationSerif
 70
0
 40
0.0
 41
1.0
 50
0.0
 71
0
 42
2.5
  3
LiberationSerif-Regular.ttf
  4

  0
STYLE
  5
53
330
5
100
AcDbSymbolTableRecord
100
AcDbTextStyleTableRecord
  2
LiberationSerif-Bold
 70
0
 40
0.0
 41
1.0
 50
0.0
 71
0
 42
2.5
  3
LiberationSerif-Bold.ttf
  4

  0
STYLE
  5
54
330
5
100
AcDbSymbolTableRecord
100
AcDbTextStyleTableRecord
  2
LiberationSerif-BoldItalic
 70
0
 40
0.0
 41
1.0
 50
0.0
 71
0
 42
2.5
  3
LiberationSerif-BoldItalic.ttf
  4

  0
STYLE
  5
55
330
5
100
AcDbSymbolTableRecord
100
AcDbTextStyleTableRecord
  2
LiberationSerif-Italic
 70
0
 40
0.0
 41
1.0
 50
0.0
 71
0
 42
2.5
  3
LiberationSerif-Italic.ttf
  4

  0
STYLE
  5
56
330
5
100
AcDbSymbolTableRecord
100
AcDbTextStyleTableRecord
  2
LiberationMono
 70
0
 40
0.0
 41
1.0
 50
0.0
 71
0
 42
2.5
  3
LiberationMono-Regular.ttf
  4

  0
STYLE
  5
57
330
5
100
AcDbSymbolTableRecord
100
AcDbTextStyleTableRecord
  2
LiberationMono-Bold
 70
0
 40
0.0
 41
1.0
 50
0.0
 71
0
 42
2.5
  3
LiberationMono-Bold.ttf
  4

  0
STYLE
  5
58
330
5
100
AcDbSymbolTableRecord
100
AcDbTextStyleTableRecord
  2
LiberationMono-BoldItalic
 70
0
 40
0.0
 41
1.0
 50
0.0
 71
0
 42
2.5
  3
LiberationMono-BoldItalic.ttf
  4

  0
STYLE
  5
59
330
5
100
AcDbSymbolTableRecord
100
AcDbTextStyleTableRecord
  2
LiberationMono-Italic
 70
0
 40
0.0
 41
1.0
 50
0.0
 71
0
 42
2.5
  3
LiberationMono-Italic.ttf
  4

  0
STYLE
  5
8A
330
5
100
AcDbSymbolTableRecord
100
AcDbTextStyleTableRecord
  2
JP
 70
0
 40
0.0
 41
1.0
 50
0.0
 71
0
 42
2.5
  3
ipag.ttf
  4

  0
ENDTAB
  0
TABLE
  2
VIEW
  5
7
330
0
100
AcDbSymbolTable
 70
0
  0
ENDTAB
  0
TABLE
  2
UCS
  5
6
330
0
100
AcDbSymbolTable
 70
0
  0
ENDTAB
  0
TABLE
  2
APPID
  5
3
330
0
100
AcDbSymbolTable
 70
4
  0
APPID
  5
2A
330
3
100
AcDbSymbolTableRecord
100
AcDbRegAppTableRecord
  2
ACAD
 70
0
  0
APPID
  5
8C
330
3
100
AcDbSymbolTableRecord
100
AcDbRegAppTableRecord
  2
AcAecLayerStandard
 70
0
  0
APPID
  5
175
330
3
100
AcDbSymbolTableRecord
100
AcDbRegAppTableRecord
  2
HATCHBACKGROUNDCOLOR
 70
0
  0
APPID
  5
176
330
3
100
AcDbSymbolTableRecord
100
AcDbRegAppTableRecord
  2
EZDXF
 70
0
  0
ENDTAB
  0
TABLE
  2
DIMSTYLE
  5
4
330
0
100
AcDbSymbolTable
 70
13
100
AcDbDimStyleTable
  0
DIMSTYLE
105
2B
330
4
100
AcDbSymbolTableRecord
100
AcDbDimStyleTableRecord
  2
Standard
 70
0
 40
1.0
 41
2.5
 42
0.625
 43
3.75
 44
1.25
 45
0.0
 46
0.0
 47
0.0
 48
0.0
 49
2.5
140
2.5
141
2.5
142
0.0
143
0.03937007874
144
1.0
145
0.0
146
1.0
147
0.625
148
0.0
 69
0
 70
0
 71
0
 72
0
 73
0
 74
0
 75
0
 76
0
 77
1
 78
8
 79
3
170
0
171
3
172
1
173
0
174
0
175
0
176
0
177
0
178
0
179
2
271
2
272
2
273
2
274
3
275
0
276
0
277
2
278
44
279
0
280
0
281
0
282
0
283
0
284
8
285
0
286
0
288
0
289
3
290
0
371
-2
372
-2
  0
DIMSTYLE
105
73
330
4
100
AcDbSymbolTableRecord
100
AcDbDimStyleTableRecord
  2
EZDXF
 70
0
 40
1.0
 41
0.175
 42
0.125
 43
3.75
 44
0.375
 45
0.0
 46
0.0
 47
0.0
 48
0.0
 49
2.5
140
0.25
141
2.5
142
0.0
143
0.03937007874
144
100.0
145
0.0
146
0.5
147
0.1
148
0.0
 69
0
 70
0
 71
0
 72
0
 73
0
 74
0
 75
0
 76
0
 77
1
 78
12
 79
3
170
0
171
3
172
1
173
0
174
0
175
0
176
0
177
0
178
0
179
2
271
2
272
2
273
2
274
3
275
0
276
0
277
2
278
46
279
2
280
0
281
0
282
0
283
0
284
8
285
0
286
0
288
1
289
3
290
0
340
4C
342
74
371
-2
372
-2
  0
DIMSTYLE
105
7C
330
4
100
AcDbSymbolTableRecord
100
AcDbDimStyleTableRecord
  2
EZ_M_100_H25_CM
 70
0
 40
1.0
 41
0.25
 42
0.125
 43
3.75
 44
0.375
 45
0.0
 46
0.0
 47
0.0
 48
0.0
 49
2.5
140
0.25
141
2.5
142
0.125
143
0.03937007874
144
100.0
145
0.0
146
0.5
147
0.1
148
0.0
 69
0
 70
0
 71
0
 72
0
 73
0
 74
0
 75
0
 76
0
 77
1
 78
12
 79
3
170
0
171
3
172
1
173
0
174
0
175
0
176
0
177
0
178
0
179
2
271
2
272
2
273
2
274
3
275
0
276
0
277
2
278
46
279
2
280
0
281
0
282
0
283
0
284
8
285
0
286
0
288
1
289
3
290
0
340
4C
371
-2
372
-2
  0
DIMSTYLE
105
7D
330
4
100
AcDbSymbolTableRecord
100
AcDbDimStyleTableRecord
  2
EZ_M_50_H25_CM
 70
0
 40
1.0
 41
0.125
 42
0.0625
 43
3.75
 44
0.1875
 45
0.0
 46
0.0
 47
0.0
 48
0.0
 49
2.5
140
0.125
141
2.5
142
0.0625
143
0.03937007874
144
100.0
145
0.0
146
0.5
147
0.05
148
0.0
 69
0
 70
0
 71
0
 72
0
 73
0
 74
0
 75
0
 76
0
 77
1
 78
12
 79
3
170
0
171
3
172
1
173
0
174
0
175
0
176
0
177
0
178
0
179
2
271
2
272
2
273
2
274
3
275
0
276
0
277
2
278
46
279
2
280
0
281
0
282
0
283
0
284
8
285
0
286
0
288
1
289
3
290
0
340
4C
371
-2
372
-2
  0
DIMSTYLE
105
7E
330
4
100
AcDbSymbolTableRecord
100
AcDbDimStyleTableRecord
  2
EZ_M_25_H25_CM
 70
0
 40
1.0
 41
0.0625
 42
0.03125
 43
3.75
 44
0.09375
 45
0.0
 46
0.0
 47
0.0
 48
0.0
 49
2.5
140
0.0625
141
2.5
142
0.03125
143
0.03937007874
144
100.0
145
0.0
146
0.5
147
0.025
148
0.0
 69
0
 70
0
 71
0
 72
0
 73
0
 74
0
 75
0
 76
0
 77
1
 78
12
 79
3
170
0
171
3
172
1
173
0
174
0
175
0
176
0
177
0
178
0
179
2
271
2
272
2
273
2
274
3
275
0
276
0
277
2
278
46
279
2
280
0
281
0
282
0
283
0
284
8
285
0
286
0
288
1
289
3
290
0
340
4C
371
-2
372
-2
  0
DIMSTYLE
105
7F
330
4
100
AcDbSymbolTableRecord
100
AcDbDimStyleTableRecord
  2
EZ_M_20_H25_CM
 70
0
 40
1.0
 41
0.05
 42
0.025
 43
3.75
 44
0.07500000000000001
 45
0.0
 46
0.0
 47
0.0
 48
0.0
 49
2.5
140
0.05
141
2.5
142
0.025
143
0.03937007874
144
100.0
145
0.0
146
0.5
147
0.020000000000000004
148
0.0
 69
0
 70
0
 71
0
 72
0
 73
0
 74
0
 75
0
 76
0
 77
1
 78
12
 79
3
170
0
171
3
172
1
173
0
174
0
175
0
176
0
177
0
178
0
179
2
271
2
272
2
273
2
274
3
275
0
276
0
277
2
278
46
279
2
280
0
281
0
282
0
283
0
284
8
285
0
286
0
288
1
289
3
290
0
340
4C
371
-2
372
-2
  0
DIMSTYLE
105
80
330
4
100
AcDbSymbolTableRecord
100
AcDbDimStyleTableRecord
  2
EZ_M_10_H25_CM
 70
0
 40
1.0
 41
0.025
 42
0.0125
 43
3.75
 44
0.037500000000000006
 45
0.0
 46
0.0
 47
0.0
 48
0.0
 49
2.5
140
0.025
141
2.5
142
0.0125
143
0.03937007874
144
100.0
145
0.0
146
0.5
147
0.010000000000000002
148
0.0
 69
0
 70
0
 71
0
 72
0
 73
0
 74
0
 75
0
 76
0
 77
1
 78
12
 79
3
170
0
171
3
172
1
173
0
174
0
175
0
176
0
177
0
178
0
179
2
271
2
272
2
273
2
274
3
275
0
276
0
277
2
278
46
279
2
280
0
281
0
282
0
283
0
284
8
285
0
286
0
288
1
289
3
290
0
340
4C
371
-2
372
-2
  0
DIMSTYLE
105
81
330
4
100
AcDbSymbolTableRecord
100
AcDbDimStyleTableRecord
  2
EZ_M_5_H25_CM
 70
0
 40
1.0
 41
0.0125
 42
0.00625
 43
3.75
 44
0.018750000000000003
 45
0.0
 46
0.0
 47
0.0
 48
0.0
 49
2.5
140
0.0125
141
2.5
142
0.00625
143
0.03937007874
144
100.0
145
0.0
146
0.5
147
0.005000000000000001
148
0.0
 69
0
 70
0
 71
0
 72
0
 73
0
 74
0
 75
0
 76
0
 77
1
 78
12
 79
3
170
0
171
3
172
1
173
0
174
0
175
0
176
0
177
0
178
0
179
2
271
2
272
2
273
2
274
3
275
0
276
0
277
2
278
46
279
2
280
0
281
0
282
0
283
0
284
8
285
0
286
0
288
1
289
3
290
0
340
4C
371
-2
372
-2
  0
DIMSTYLE
105
82
330
4
100
AcDbSymbolTableRecord
100
AcDbDimStyleTableRecord
  2
EZ_M_1_H25_CM
 70
0
 40
1.0
 41
0.0025
 42
0.00125
 43
3.75
 44
0.00375
 45
0.0
 46
0.0
 47
0.0
 48
0.0
 49
2.5
140
0.0025
141
2.5
142
0.00125
143
0.03937007874
144
100.0
145
0.0
146
0.5
147
0.001
148
0.0
 69
0
 70
0
 71
0
 72
0
 73
0
 74
0
 75
0
 76
0
 77
1
 78
12
 79
3
170
0
171
3
172
1
173
0
174
0
175
0
176
0
177
0
178
0
179
2
271
2
272
2
273
2
274
3
275
0
276
0
277
2
278
46
279
2
280
0
281
0
282
0
283
0
284
8
285
0
286
0
288
1
289
3
290
0
340
4C
371
-2
372
-2
  0
DIMSTYLE
105
83
330
4
100
AcDbSymbolTableRecord
100
AcDbDimStyleTableRecord
  2
EZ_RADIUS
 70
0
 40
1.0
 41
0.25
 42
0.125
 43
3.75
 44
0.375
 45
0.0
 46
0.0
 47
0.0
 48
0.0
 49
2.5
140
0.25
141
0.0
142
0.0
143
0.03937007874
144
100.0
145
0.0
146
0.5
147
0.1
148
0.0
 69
0
 70
0
 71
0
 72
0
 73
0
 74
0
 75
0
 76
0
 77
1
 78
12
 79
3
170
0
171
3
172
0
173
0
174
0
175
0
176
0
177
0
178
0
179
2
271
2
272
2
273
2
274
3
275
0
276
0
277
2
278
46
279
1
280
0
281
0
282
0
283
0
284
8
285
0
286
0
288
1
289
3
290
0
340
4C
342
84
371
-2
372
-2
  0
DIMSTYLE
105
88
330
4
100
AcDbSymbolTableRecord
100
AcDbDimStyleTableRecord
  2
EZ_RADIUS_INSIDE
 70
0
 40
1.0
 41
0.25
 42
0.125
 43
3.75
 44
0.375
 45
0.0
 46
0.0
 47
0.0
 48
0.0
 49
2.5
140
0.25
141
0.0
142
0.0
143
0.03937007874
144
100.0
145
0.0
146
0.5
147
0.1
148
0.0
 69
0
 70
0
 71
0
 72
0
 73
0
 74
0
 75
0
 76
0
 77
0
 78
12
 79
3
170
0
171
3
172
0
173
0
174
1
175
0
176
0
177
0
178
0
179
2
271
2
272
2
273
2
274
3
275
0
276
0
277
2
278
46
279
0
280
0
281
0
282
0
283
0
284
8
285
0
286
0
288
1
289
0
290
0
340
4C
342
84
371
-2
372
-2
  0
DIMSTYLE
105
89
330
4
100
AcDbSymbolTableRecord
100
AcDbDimStyleTableRecord
  2
EZ_CURVED
 70
0
 40
1.0
 41
0.25
 42
0.125
 43
3.75
 44
0.375
 45
0.0
 46
0.0
 47
0.0
 48
0.0
 49
2.5
140
0.25
141
2.5
142
0.0
143
0.03937007874
144
100.0
145
0.0
146
0.5
147
0.1
148
0.0
 69
0
 70
0
 71
0
 72
0
 73
0
 74
0
 75
0
 76
0
 77
1
 78
12
 79
2
 90
2
170
0
171
3
172
1
173
0
174
0
175
0
176
0
177
0
178
0
179
2
271
2
272
2
273
2
274
3
275
0
276
0
277
2
278
46
279
2
280
0
281
0
282
0
283
0
284
8
285
0
286
0
288
1
289
3
290
0
340
4C
371
-2
372
-2
  0
DIMSTYLE
105
B4
330
4
100
AcDbSymbolTableRecord
100
AcDbDimStyleTableRecord
  2
JIS
 70
0
 40
400.0
 41
1.0
 42
1.0
 43
3.75
 44
1.0
 45
0.0
 46
0.0
 47
0.0
 48
0.0
 49
2.5
140
2.0
141
2.5
142
0.0
143
0.03937007874
144
1.0
145
0.0
146
1.0
147
0.6
148
0.0
 69
0
 70
0
 71
0
 72
0
 73
0
 74
0
 75
0
 76
0
 77
1
 78
8
 79
3
170
0
171
3
172
1
173
0
174
0
175
0
176
7
177
7
178
7
179
2
271
0
272
2
273
2
274
3
275
0
276
0
277
2
278
44
279
0
280
0
281
0
282
0
283
0
284
8
285
0
286
0
288
0
289
3
290
0
340
8A
342
178
371
13
372
13
  0
ENDTAB
  0
TABLE
  2
BLOCK_RECORD
  5
9
330
0
100
AcDbSymbolTable
 70
6
  0
BLOCK_RECORD
  5
17
330
9
100
AcDbSymbolTableRecord
100
AcDbBlockTableRecord
  2
*Model_Space
340
1A
 70
0
280
1
281
0
  0
BLOCK_RECORD
  5
1B
330
9
100
AcDbSymbolTableRecord
100
AcDbBlockTableRecord
  2
*Paper_Space
340
1E
 70
0
280
1
281
0
  0
BLOCK_RECORD
  5
74
330
9
100
AcDbSymbolTableRecord
100
AcDbBlockTableRecord
  2
_ARCHTICK
340
0
 70
0
280
1
281
0
  0
BLOCK_RECORD
  5
78
330
9
100
AcDbSymbolTableRecord
100
AcDbBlockTableRecord
  2
_CLOSEDFILLED
340
0
 70
0
280
1
281
0
  0
BLOCK_RECORD
  5
84
330
9
100
AcDbSymbolTableRecord
100
AcDbBlockTableRecord
  2
_CLOSEDBLANK
340
0
 70
0
280
1
281
0
  0
BLOCK_RECORD
  5
178
330
9
100
AcDbSymbolTableRecord
100
AcDbBlockTableRecord
  2
_DOT
340
0
 70
0
280
1
281
0
  0
ENDTAB
  0
ENDSEC
  0
SECTION
  2
BLOCKS
  0
BLOCK
  5
18
330
17
100
AcDbEntity
  8
0
100
AcDbBlockBegin
  2
*Model_Space
 70
0
 10
0.0
 20
0.0
 30
0.0
  3
*Model_Space
  1

  0
ENDBLK
  5
19
330
17
100
AcDbEntity
  8
0
100
AcDbBlockEnd
  0
BLOCK
  5
1C
330
1B
100
AcDbEntity
  8
0
100
AcDbBlockBegin
  2
*Paper_Space
 70
0
 10
0.0
 20
0.0
 30
0.0
  3
*Paper_Space
  1

  0
ENDBLK
  5
1D
330
1B
100
AcDbEntity
  8
0
100
AcDbBlockEnd
  0
BLOCK
  5
75
330
74
100
AcDbEntity
  8
0
100
AcDbBlockBegin
  2
_ARCHTICK
 70
0
 10
0.0
 20
0.0
 30
0.0
  3
_ARCHTICK
  1

  0
LWPOLYLINE
  5
77
330
74
100
AcDbEntity
  8
0
  6
BYBLOCK
 62
0
100
AcDbPolyline
 90
2
 70
0
 43
0.15
 10
-0.5
 20
-0.5
 10
0.5
 20
0.5
  0
ENDBLK
  5
76
330
74
100
AcDbEntity
  8
0
100
AcDbBlockEnd
  0
BLOCK
  5
79
330
78
100
AcDbEntity
  8
0
100
AcDbBlockBegin
  2
_CLOSEDFILLED
 70
0
 10
0.0
 20
0.0
 30
0.0
  3
_CLOSEDFILLED
  1

  0
SOLID
  5
7B
330
78
100
AcDbEntity
  8
0
  6
BYBLOCK
 62
0
100
AcDbTrace
 10
-1.0
 20
0.16439898372402537
 30
0.0
 11
0.0
 21
0.0
 31
0.0
 12
-1.0
 22
-0.16439898372402537
 32
0.0
 13
-1.0
 23
-0.16439898372402537
 33
0.0
  0
ENDBLK
  5
7A
330
78
100
AcDbEntity
  8
0
100
AcDbBlockEnd
  0
BLOCK
  5
85
330
84
100
AcDbEntity
  8
0
100
AcDbBlockBegin
  2
_CLOSEDBLANK
 70
0
 10
0.0
 20
0.0
 30
0.0
  3
_CLOSEDBLANK
  1

  0
LWPOLYLINE
  5
87
330
84
100
AcDbEntity
  8
0
  6
BYBLOCK
 62
0
100
AcDbPolyline
 90
3
 70
1
 10
-1.0
 20
0.16439898372402537
 10
0.0
 20
0.0
 10
-1.0
 20
-0.16439898372402537
  0
ENDBLK
  5
86
330
84
100
AcDbEntity
  8
0
100
AcDbBlockEnd
  0
BLOCK
  5
179
330
178
100
AcDbEntity
  8
0
100
AcDbBlockBegin
  2
_DOT
 70
0
 10
0.0
 20
0.0
 30
0.0
  3
_DOT
  1

  0
LINE
  5
17B
330
178
100
AcDbEntity
  8
0
  6
BYBLOCK
 62
0
100
AcDbLine
 10
-0.5
 20
0.0
 30
0.0
 11
-1.0
 21
0.0
 31
0.0
  0
LWPOLYLINE
  5
17C
330
178
100
AcDbEntity
  8
0
  6
BYBLOCK
 62
0
100
AcDbPolyline
 90
2
 70
1
 43
0.5
 10
-0.25
 20
0.0
 42
1.0
 10
0.25
 20
0.0
 42
1.0
  0
ENDBLK
  5
17A
330
178
100
AcDbEntity
  8
0
100
AcDbBlockEnd
  0
ENDSEC
  0
SECTION
  2
ENTITIES
  0
LWPOLYLINE
  5
B5
330
17
100
AcDbEntity
  8
G-FRAME
370
0
100
AcDbPolyline
 90
4
 70
1
 10
0.0
 20
0.0
 10
168000.0
 20
0.0
 10
168000.0
 20
118800.0
 10
0.0
 20
118800.0
  0
LWPOLYLINE
  5
B6
330
17
100
AcDbEntity
  8
G-FRAME
100
AcDbPolyline
 90
4
 70
1
 10
4000.0
 20
4000.0
 10
164000.0
 20
4000.0
 10
164000.0
 20
114800.0
 10
4000.0
 20
114800.0
  0
LWPOLYLINE
  5
B7
330
17
100
AcDbEntity
  8
G-TITLE
370
50
100
AcDbPolyline
 90
4
 70
1
 10
88000.0
 20
4000.0
 10
164000.0
 20
4000.0
 10
164000.0
 20
19200.0
 10
88000.0
 20
19200.0
  0
LINE
  5
B8
330
17
100
AcDbEntity
  8
G-TITLE
100
AcDbLine
 10
88000.0
 20
15200.0
 30
0.0
 11
164000.0
 21
15200.0
 31
0.0
  0
LINE
  5
B9
330
17
100
AcDbEntity
  8
G-TITLE
100
AcDbLine
 10
88000.0
 20
10800.0
 30
0.0
 11
164000.0
 21
10800.0
 31
0.0
  0
LINE
  5
BA
330
17
100
AcDbEntity
  8
G-TITLE
100
AcDbLine
 10
88000.0
 20
7600.0
 30
0.0
 11
164000.0
 21
7600.0
 31
0.0
  0
LINE
  5
BB
330
17
100
AcDbEntity
  8
G-TITLE
100
AcDbLine
 10
96800.0
 20
4000.0
 30
0.0
 11
96800.0
 21
19200.0
 31
0.0
  0
TEXT
  5
BC
330
17
100
AcDbEntity
  8
G-TITLE
100
AcDbText
 10
88800.0
 20
16600.0
 30
0.0
 40
880.0000000000001
  1
工事名称
  7
JP
 11
88800.0
 21
16600.0
 31
0.0
100
AcDbText
  0
TEXT
  5
BD
330
17
100
AcDbEntity
  8
G-TITLE
100
AcDbText
 10
97600.0
 20
16400.0
 30
0.0
 40
1360.0
  1
河沿要（仮称）新築計画
  7
JP
 11
97600.0
 21
16400.0
 31
0.0
100
AcDbText
  0
TEXT
  5
BE
330
17
100
AcDbEntity
  8
G-TITLE
100
AcDbText
 10
88800.0
 20
12400.0
 30
0.0
 40
880.0000000000001
  1
図面名称
  7
JP
 11
88800.0
 21
12400.0
 31
0.0
100
AcDbText
  0
TEXT
  5
BF
330
17
100
AcDbEntity
  8
G-TITLE
100
AcDbText
 10
97600.0
 20
12080.0
 30
0.0
 40
1760.0000000000002
  1
外構・雨水排水計画図
  7
JP
 11
97600.0
 21
12080.0
 31
0.0
100
AcDbText
  0
TEXT
  5
C0
330
17
100
AcDbEntity
  8
G-TITLE
100
AcDbText
 10
88800.0
 20
8640.0
 30
0.0
 40
880.0000000000001
  1
縮尺
  7
JP
 11
88800.0
 21
8640.0
 31
0.0
100
AcDbText
  0
LINE
  5
C1
330
17
100
AcDbEntity
  8
G-TITLE
100
AcDbLine
 10
96800.0
 20
7600.0
 30
0.0
 11
96800.0
 21
10800.0
 31
0.0
  0
TEXT
  5
C2
330
17
100
AcDbEntity
  8
G-TITLE
100
AcDbText
 10
97400.0
 20
8640.0
 30
0.0
 40
800.0
  1
A3
  7
JP
 11
97400.0
 21
8640.0
 31
0.0
100
AcDbText
  0
TEXT
  5
C3
330
17
100
AcDbEntity
  8
G-TITLE
100
AcDbText
 10
100800.0
 20
8560.0
 30
0.0
 40
1040.0
  1
1:400
  7
JP
 11
100800.0
 21
8560.0
 31
0.0
100
AcDbText
  0
LINE
  5
C4
330
17
100
AcDbEntity
  8
G-TITLE
100
AcDbLine
 10
112800.0
 20
7600.0
 30
0.0
 11
112800.0
 21
10800.0
 31
0.0
  0
TEXT
  5
C5
330
17
100
AcDbEntity
  8
G-TITLE
100
AcDbText
 10
113400.0
 20
8640.0
 30
0.0
 40
800.0
  1
日付
  7
JP
 11
113400.0
 21
8640.0
 31
0.0
100
AcDbText
  0
TEXT
  5
C6
330
17
100
AcDbEntity
  8
G-TITLE
100
AcDbText
 10
116800.0
 20
8560.0
 30
0.0
 40
1040.0
  1
2026-10-03
  7
JP
 11
116800.0
 21
8560.0
 31
0.0
100
AcDbText
  0
LINE
  5
C7
330
17
100
AcDbEntity
  8
G-TITLE
100
AcDbLine
 10
132800.0
 20
7600.0
 30
0.0
 11
132800.0
 21
10800.0
 31
0.0
  0
TEXT
  5
C8
330
17
100
AcDbEntity
  8
G-TITLE
100
AcDbText
 10
133400.0
 20
8640.0
 30
0.0
 40
800.0
  1
設計
  7
JP
 11
133400.0
 21
8640.0
 31
0.0
100
AcDbText
  0
TEXT
  5
C9
330
17
100
AcDbEntity
  8
G-TITLE
100
AcDbText
 10
136800.0
 20
8560.0
 30
0.0
 40
1040.0
  1
設計検討（仮）
  7
JP
 11
136800.0
 21
8560.0
 31
0.0
100
AcDbText
  0
TEXT
  5
CA
330
17
100
AcDbEntity
  8
G-TITLE
100
AcDbText
 10
88800.0
 20
5360.0
 30
0.0
 40
880.0000000000001
  1
段階
  7
JP
 11
88800.0
 21
5360.0
 31
0.0
100
AcDbText
  0
TEXT
  5
CB
330
17
100
AcDbEntity
  8
G-TITLE
100
AcDbText
 10
97600.0
 20
5360.0
 30
0.0
 40
760.0
  1
基本計画　／　本図は建築基準法令に基づく計画段階の検討図であり、確認申請・構造計算・関係機関協議により確定する
  7
JP
 11
97600.0
 21
5360.0
 31
0.0
100
AcDbText
  0
LINE
  5
CC
330
17
100
AcDbEntity
  8
G-TITLE
100
AcDbLine
 10
150400.0
 20
7600.0
 30
0.0
 11
150400.0
 21
15200.0
 31
0.0
  0
TEXT
  5
CD
330
17
100
AcDbEntity
  8
G-TITLE
100
AcDbText
 10
151000.0
 20
14000.0
 30
0.0
 40
800.0
  1
図番
  7
JP
 11
151000.0
 21
14000.0
 31
0.0
100
AcDbText
  0
TEXT
  5
CE
330
17
100
AcDbEntity
  8
G-TITLE
100
AcDbText
 10
157200.0
 20
11200.0
 30
0.0
 40
2400.0
  1
A-02
  7
JP
 72
1
 11
157200.0
 21
11200.0
 31
0.0
100
AcDbText
 73
1
  0
LWPOLYLINE
  5
CF
330
17
100
AcDbEntity
  8
A-NEIGH
370
9
100
AcDbPolyline
 90
5
 70
1
 10
103925.10090234884
 20
23037.0267696925
 10
103925.10090234884
 20
111362.97323030749
 10
16074.899097651152
 20
111362.97323030749
 10
16074.899097651152
 20
23037.0267696925
 10
103925.10090234884
 20
23037.0267696925
  0
LWPOLYLINE
  5
D0
330
17
100
AcDbEntity
  8
A-NEIGH
100
AcDbPolyline
 90
3
 70
0
 10
26119.90496804292
 20
92259.16145247969
 10
25255.72460055268
 20
88847.33022974248
 10
16074.899097651152
 20
90882.49131828241
  0
LWPOLYLINE
  5
D1
330
17
100
AcDbEntity
  8
A-NEIGH
100
AcDbPolyline
 90
2
 70
0
 10
16074.899097651152
 20
94452.23626546821
 10
26119.90496804292
 20
92259.16145247969
  0
LWPOLYLINE
  5
D2
330
17
100
AcDbEntity
  8
A-NEIGH
100
AcDbPolyline
 90
5
 70
0
 10
39297.75029519654
 20
50567.96223089798
 10
39099.10664038801
 20
48048.07320588035
 10
35814.87637646879
 20
48325.97889772042
 10
36003.74878668315
 20
50843.74124009109
 10
39297.75029519654
 20
50567.96223089798
  0
LWPOLYLINE
  5
D3
330
17
100
AcDbEntity
  8
A-NEIGH
100
AcDbPolyline
 90
5
 70
0
 10
57575.95538886929
 20
52683.55164135449
 10
57244.30785176129
 20
48517.72520340365
 10
54454.617520125816
 20
48780.456727168064
 10
54786.26505723382
 20
52946.283165118904
 10
57575.95538886929
 20
52683.55164135449
  0
LWPOLYLINE
  5
D4
330
17
100
AcDbEntity
  8
A-NEIGH
100
AcDbPolyline
 90
5
 70
0
 10
61552.33463751199
 20
46968.46563404334
 10
61824.37758259555
 20
37724.86824795873
 10
57256.32073482117
 20
37600.54352997527
 10
56867.02285460758
 20
46818.62072429628
 10
61552.33463751199
 20
46968.46563404334
  0
LWPOLYLINE
  5
D5
330
17
100
AcDbEntity
  8
A-NEIGH
100
AcDbPolyline
 90
7
 70
0
 10
65702.4121282934
 20
45016.40087576573
 10
65547.16429506485
 20
43989.9028921935
 10
67453.13177002173
 20
43790.684458291194
 10
67023.77178697204
 20
34384.19467703083
 10
62170.164685410404
 20
34443.33944578025
 10
62795.46686152789
 20
45253.61220776655
 10
65702.4121282934
 20
45016.40087576573
  0
LWPOLYLINE
  5
D6
330
17
100
AcDbEntity
  8
A-NEIGH
100
AcDbPolyline
 90
4
 70
0
 10
103925.10090234884
 20
90511.12191464932
 10
99458.09622540296
 20
91222.14501149138
 10
99916.76994223516
 20
93675.81948490615
 10
103925.10090234884
 20
93037.80450651655
  0
LWPOLYLINE
  5
D7
330
17
100
AcDbEntity
  8
A-NEIGH
100
AcDbPolyline
 90
2
 70
0
 10
41323.27182165855
 20
23581.39404326363
 10
41314.23982915591
 20
23037.0267696925
  0
LWPOLYLINE
  5
D8
330
17
100
AcDbEntity
  8
A-NEIGH
100
AcDbPolyline
 90
3
 70
0
 10
36838.54788582712
 20
23037.0267696925
 10
36846.94971725062
 20
23599.84445217379
 10
41323.27182165855
 20
23581.39404326363
  0
LWPOLYLINE
  5
D9
330
17
100
AcDbEntity
  8
A-NEIGH
100
AcDbPolyline
 90
11
 70
0
 10
34249.23560293591
 20
60644.81686922777
 10
34511.967126700314
 20
61694.70836191662
 10
39638.07699662054
 20
60947.78292955641
 10
38589.85236330364
 20
54384.725325199455
 10
33168.42099500197
 20
55312.993561645584
 10
32459.488460740267
 20
51187.86148353399
 10
26920.802157308575
 20
52090.609528216526
 10
27000.06419434011
 20
52854.95076711811
 10
23545.41192911669
 20
53351.617382048826
 10
24988.222410309925
 20
62098.548153202726
 10
34249.23560293591
 20
60644.81686922777
  0
LWPOLYLINE
  5
DA
330
17
100
AcDbEntity
  8
A-NEIGH
100
AcDbPolyline
 90
11
 70
0
 10
47620.09174977908
 20
60198.15603545545
 10
46908.45775377663
 20
54956.91791305216
 10
46404.14657689871
 20
54969.96539848085
 10
46077.90196327219
 20
53036.3510491134
 10
43002.66137784945
 20
53482.5520596107
 10
42595.02804454444
 20
50794.36771593584
 10
39662.56258601534
 20
51148.83398306669
 10
40212.97104621398
 20
55485.08242232173
 10
39565.88474244243
 20
55589.864651116855
 10
40208.6027251013
 20
61194.765506151394
 10
47620.09174977908
 20
60198.15603545545
  0
LWPOLYLINE
  5
DB
330
17
100
AcDbEntity
  8
A-NEIGH
100
AcDbPolyline
 90
13
 70
0
 10
43489.09692491098
 20
48379.260919713335
 10
43707.85784800163
 20
46809.88408207091
 10
45898.800797652
 20
47041.11771149647
 10
46835.80567632351
 20
39303.384073192174
 10
37024.384023498875
 20
38160.66575685871
 10
36869.136190270336
 20
38873.966612233104
 10
35518.52027571856
 20
38825.62769044666
 10
34978.91766248288
 20
42433.401106251644
 10
36548.294500125296
 20
42652.1620293423
 10
36397.87481128446
 20
44471.79768441422
 10
37371.205728682515
 20
44560.83096603992
 10
36968.975318859
 20
47584.45638884168
 10
43489.09692491098
 20
48379.260919713335
  0
LWPOLYLINE
  5
DC
330
17
100
AcDbEntity
  8
A-NEIGH
100
AcDbPolyline
 90
6
 70
0
 10
91875.2227254237
 20
111362.97323030749
 10
91750.07866624682
 20
109521.50197581504
 10
83181.78923743809
 20
110143.527911098
 10
83026.54140420955
 20
109117.02992752579
 10
79507.80127003025
 20
109343.89523583866
 10
79671.98151472321
 20
111362.97323030749
  0
LWPOLYLINE
  5
DD
330
17
100
AcDbEntity
  8
A-NEIGH
100
AcDbPolyline
 90
6
 70
0
 10
103925.10090234884
 20
53659.35032401411
 10
98432.28797674325
 20
53756.951598978725
 10
98507.1816926621
 20
61970.77476065659
 10
101480.34151103045
 20
61993.59349067945
 10
101534.08335629838
 20
62875.18966471108
 10
103925.10090234884
 20
62844.87156086761
  0
LWPOLYLINE
  5
DE
330
17
100
AcDbEntity
  8
A-NEIGH
100
AcDbPolyline
 90
2
 70
0
 10
31901.60787232254
 20
23516.21409402958
 10
31909.103111777364
 20
23037.0267696925
  0
LWPOLYLINE
  5
DF
330
17
100
AcDbEntity
  8
A-NEIGH
100
AcDbPolyline
 90
3
 70
0
 10
29283.635582772262
 20
23037.0267696925
 10
29282.339541991267
 20
23560.18469470334
 10
31901.60787232254
 20
23516.21409402958
  0
LWPOLYLINE
  5
E0
330
17
100
AcDbEntity
  8
A-ROAD
100
AcDbPolyline
 90
9
 70
0
 10
16074.899097651152
 20
107287.18469575673
 10
21828.08695273667
 20
105724.45380443006
 10
33517.254427013846
 20
103929.30373875293
 10
56671.31057317731
 20
101886.71127320579
 10
67728.56591175859
 20
102430.68220755417
 10
76554.75871994402
 20
103492.01180420915
 10
94014.88072944724
 20
106545.06591661216
 10
95938.72383422051
 20
107956.4934592853
 10
96326.69857634413
 20
111362.97323030749
  0
LWPOLYLINE
  5
E1
330
17
100
AcDbEntity
  8
A-ROAD
100
AcDbPolyline
 90
6
 70
0
 10
47126.98876522978
 20
99563.79904362475
 10
46099.91600256378
 20
98593.16958796742
 10
32642.72803583564
 20
99389.4685444829
 10
31307.8610684533
 20
100961.54684386606
 10
16449.591582739977
 20
103069.894037741
 10
16074.899097651152
 20
103175.32406240457
  0
LWPOLYLINE
  5
E2
330
17
100
AcDbEntity
  8
A-ROAD
100
AcDbPolyline
 90
12
 70
0
 10
16074.899097651152
 20
32021.14227108667
 10
81688.80054135832
 20
31988.170546721652
 10
83622.41489072576
 20
33401.72477204176
 10
84988.20497335317
 20
35684.40246505857
 10
88189.20722449383
 20
68280.81460793392
 10
92835.89385229659
 20
89156.56138219326
 10
94918.72085440795
 20
102392.28696409002
 10
93517.63933542275
 20
103704.33520144949
 10
76888.07311642396
 20
100832.04911403861
 10
68059.75362559156
 20
99780.4907619778
 10
61713.33026167829
 20
99269.10980224647
 10
50151.18896712533
 20
99352.10790338754
  0
LWPOLYLINE
  5
E3
330
17
100
AcDbEntity
  8
A-ROAD
100
AcDbPolyline
 90
4
 70
0
 10
50151.18896712533
 20
99352.10790338754
 10
49740.27939298579
 20
92682.14138758849
 10
46716.07919109025
 20
92893.8325278257
 10
47126.98876522978
 20
99563.79904362475
  0
LWPOLYLINE
  5
E4
330
17
100
AcDbEntity
  8
A-ROAD
100
AcDbPolyline
 90
3
 70
0
 10
18462.260920958925
 20
23037.0267696925
 10
18653.409584090903
 20
24480.808369202277
 10
16074.899097651152
 20
24502.61074671639
  0
LWPOLYLINE
  5
E5
330
17
100
AcDbEntity
  8
A-ROAD
100
AcDbPolyline
 90
4
 70
0
 10
103925.10090234884
 20
24269.10841559311
 10
81792.54816778464
 20
24693.36167808013
 10
21753.595582183454
 20
24531.27397363568
 10
21553.70510510232
 20
23037.0267696925
  0
LWPOLYLINE
  5
E6
330
17
100
AcDbEntity
  8
A-ROAD
100
AcDbPolyline
 90
5
 70
0
 10
101989.10543579479
 20
111362.97323030749
 10
101201.6311284591
 20
103759.74390608937
 10
93610.63859279548
 20
67352.54637148781
 10
90634.37496732075
 20
36544.84676843928
 10
103925.10090234884
 20
36353.39917001216
  0
HATCH
  5
E7
330
17
100
AcDbEntity
  8
A-WATER
 62
7
100
AcDbHatch
 10
0.0
 20
0.0
 30
0.0
210
0.0
220
0.0
230
1.0
  2
ANSI31
 70
0
 71
0
 91
1
 92
3
 72
0
 73
1
 93
12
 10
23779.11710864548
 20
98453.03844490516
 10
49898.803467048856
 20
95950.62270433828
 10
66981.64047939837
 20
95564.77349868731
 10
74273.74788629914
 20
96292.21391976858
 10
86360.77744928717
 20
98922.92035406595
 10
86668.5716540035
 20
96380.21259902549
 10
74673.27683438193
 20
93892.28129162171
 10
67027.27793944407
 20
93098.05153984384
 10
49702.28649488729
 20
93420.96243472648
 10
24084.784630714876
 20
95920.10193445886
 10
16074.899097651152
 20
97229.01591382158
 10
16074.899097651152
 20
99748.62955226676
 97
0
 75
1
 76
1
 52
0.0
 41
188.9763779527559
 77
0
 78
1
 53
45.0
 43
0.0
 44
0.0
 45
-424.2640687181
 46
424.2640687181
 79
0
 98
0
  0
LWPOLYLINE
  5
E8
330
17
100
AcDbEntity
  8
A-WATER
100
AcDbPolyline
 90
13
 70
1
 10
23779.11710864548
 20
98453.03844490516
 10
49898.803467048856
 20
95950.62270433828
 10
66981.64047939837
 20
95564.77349868731
 10
74273.74788629914
 20
96292.21391976858
 10
86360.77744928717
 20
98922.92035406595
 10
86668.5716540035
 20
96380.21259902549
 10
74673.27683438193
 20
93892.28129162171
 10
67027.27793944407
 20
93098.05153984384
 10
49702.28649488729
 20
93420.96243472648
 10
24084.784630714876
 20
95920.10193445886
 10
16074.899097651152
 20
97229.01591382158
 10
16074.899097651152
 20
99748.62955226676
 10
23779.11710864548
 20
98453.03844490516
  0
HATCH
  5
E9
330
17
100
AcDbEntity
  8
A-WATER
 62
7
100
AcDbHatch
 10
0.0
 20
0.0
 30
0.0
210
0.0
220
0.0
230
1.0
  2
ANSI31
 70
0
 71
0
 91
1
 92
3
 72
0
 73
1
 93
4
 10
83086.98606072484
 20
23037.0267696925
 10
81315.9543046284
 20
23037.0267696925
 10
81338.70259534015
 20
23346.022004362865
 10
83101.89494340339
 20
23238.53831382702
 97
0
 75
1
 76
1
 52
0.0
 41
188.9763779527559
 77
0
 78
1
 53
45.0
 43
0.0
 44
0.0
 45
-424.2640687181
 46
424.2640687181
 79
0
 98
0
  0
LWPOLYLINE
  5
EA
330
17
100
AcDbEntity
  8
A-WATER
100
AcDbPolyline
 90
5
 70
1
 10
83086.98606072484
 20
23037.0267696925
 10
81315.9543046284
 20
23037.0267696925
 10
81338.70259534015
 20
23346.022004362865
 10
83101.89494340339
 20
23238.53831382702
 10
83086.98606072484
 20
23037.0267696925
  0
LWPOLYLINE
  5
EB
330
17
100
AcDbEntity
  8
A-HIDDEN
100
AcDbPolyline
 90
17
 70
1
 10
69659.01897611027
 20
90692.71598821552
 10
69526.0150938108
 20
89046.77857528231
 10
81141.8982336317
 20
88105.57780922623
 10
81842.15160357741
 20
87756.51446557688
 10
84213.86257821992
 20
85417.39346555137
 10
85352.2125734407
 20
83055.45373550305
 10
86050.33926073943
 20
80976.3627975012
 10
86368.47948914373
 20
76082.06133610033
 10
85794.67751982846
 20
73593.09542632778
 10
83672.19076024664
 20
69661.778858637
 10
80331.51718931877
 20
66202.18349320712
 10
78385.4301336164
 20
65410.19537989499
 10
67651.14316782712
 20
66297.65430068312
 10
67426.979321255
 20
63895.02021079552
 10
42797.407763462514
 20
65851.85563555147
 10
44912.192483187755
 20
92624.03122120787
 10
69659.01897611027
 20
90692.71598821552
  0
LWPOLYLINE
  5
EC
330
17
100
AcDbEntity
  8
A-HIDDEN
100
AcDbPolyline
 90
9
 70
1
 10
85223.51953434455
 20
93333.19366710709
 10
87965.44572328734
 20
95546.9553467803
 10
91995.56681719798
 20
90713.46551350079
 10
89915.90110010239
 20
88889.46153731618
 10
91587.35870479919
 20
86899.40388094005
 10
86871.1238066497
 20
82894.80297879301
 10
79809.15794889632
 20
91407.68370296186
 10
83914.1727587258
 20
94788.01703136021
 10
85223.51953434455
 20
93333.19366710709
  0
LWPOLYLINE
  5
ED
330
17
100
AcDbEntity
  8
A-SITE
100
AcDbPolyline
 90
17
 70
1
 10
27765.152646063605
 20
93210.82319804246
 10
49688.261884999185
 20
93438.37824126784
 10
67052.33830793266
 20
93123.9740769731
 10
74669.88563772866
 20
93860.84087519225
 10
86709.78331502715
 20
96378.94808501916
 10
86352.27071869929
 20
98962.00533244264
 10
94925.10090234884
 20
102362.97323030749
 10
92795.5443599136
 20
89106.84299058176
 10
88224.90100621725
 20
68257.88092209233
 10
84969.92699817114
 20
35721.36076078829
 10
83636.43950061385
 20
33384.30896550038
 10
81678.16712812347
 20
32037.0267696925
 10
67759.77641655054
 20
32037.026769692508
 10
68716.89856350416
 20
53266.2052087139
 10
52378.80282295852
 20
53803.91105094013
 10
49318.10414860827
 20
60813.34209952251
 10
25074.899097651152
 20
62076.476636001775
  0
HATCH
  5
EE
330
17
100
AcDbEntity
  8
A-PAVE
 62
7
100
AcDbHatch
 10
0.0
 20
0.0
 30
0.0
210
0.0
220
0.0
230
1.0
  2
NET
 70
0
 71
0
 91
1
 92
3
 72
0
 73
1
 93
5
 10
71009.44055450648
 20
43225.58423067284
 10
82509.44055450648
 20
43225.58423067284
 10
82509.44055450648
 20
32791.010657570405
 10
82268.99352530853
 20
32625.584230672837
 10
71009.44055450648
 20
32625.584230672837
 97
0
 75
1
 76
1
 52
0.0
 41
113.38582677165356
 77
0
 78
2
 53
0.0
 43
0.0
 44
0.0
 45
0.0
 46
360.0
 79
0
 53
90.0
 43
0.0
 44
0.0
 45
-360.0
 46
0.0
 79
0
 98
0
  0
LWPOLYLINE
  5
EF
330
17
100
AcDbEntity
  8
A-PAVE
100
AcDbPolyline
 90
6
 70
1
 10
71009.44055450648
 20
43225.58423067284
 10
82509.44055450648
 20
43225.58423067284
 10
82509.44055450648
 20
32791.010657570405
 10
82268.99352530853
 20
32625.584230672837
 10
71009.44055450648
 20
32625.584230672837
 10
71009.44055450648
 20
43225.58423067284
  0
LWPOLYLINE
  5
F0
330
17
100
AcDbEntity
  8
A-PAVE
100
AcDbPolyline
 90
15
 70
1
 10
70505.98106798135
 20
42892.637140000275
 10
72359.44055450648
 20
46794.657111632136
 10
72359.44055450648
 20
58575.58423067284
 10
67559.44055450648
 20
58575.58423067284
 10
67559.44055450648
 20
60480.58423067284
 10
69059.44055450648
 20
60480.58423067284
 10
69059.44055450648
 20
60075.58423067284
 10
73859.44055450648
 20
60075.58423067284
 10
73859.44055450648
 20
46456.51134971354
 10
71912.90004103161
 20
42358.5313213454
 10
70509.77641655054
 20
37519.05303205174
 10
70509.77641655054
 20
32237.026769692508
 10
69009.77641655054
 20
32237.026769692508
 10
69009.77641655054
 20
37732.11542929393
 10
70505.98106798135
 20
42892.637140000275
  0
HATCH
  5
F1
330
17
100
AcDbEntity
  8
A-PAVE
 62
7
100
AcDbHatch
 10
0.0
 20
0.0
 30
0.0
210
0.0
220
0.0
230
1.0
  2
ANSI37
 70
0
 71
0
 91
1
 92
3
 72
0
 73
1
 93
14
 10
70505.98106798135
 20
42892.637140000275
 10
72359.44055450648
 20
46794.657111632136
 10
72359.44055450648
 20
58575.58423067284
 10
67559.44055450648
 20
58575.58423067284
 10
67559.44055450648
 20
60480.58423067284
 10
69059.44055450648
 20
60480.58423067284
 10
69059.44055450648
 20
60075.58423067284
 10
73859.44055450648
 20
60075.58423067284
 10
73859.44055450648
 20
46456.51134971354
 10
71912.90004103161
 20
42358.5313213454
 10
70509.77641655054
 20
37519.05303205174
 10
70509.77641655054
 20
32237.026769692508
 10
69009.77641655054
 20
32237.026769692508
 10
69009.77641655054
 20
37732.11542929393
 97
0
 75
1
 76
1
 52
0.0
 41
314.96062992125985
 77
0
 78
2
 53
45.0
 43
0.0
 44
0.0
 45
-707.1067811969
 46
707.1067811969
 79
0
 53
135.0
 43
0.0
 44
0.0
 45
-707.1067811969
 46
-707.1067811969
 79
0
 98
0
  0
HATCH
  5
F2
330
17
100
AcDbEntity
  8
A-CUT-HATCH
 62
7
100
AcDbHatch
 10
0.0
 20
0.0
 30
0.0
210
0.0
220
0.0
230
1.0
  2
ANSI31
 70
0
 71
0
 91
3
 92
3
 72
0
 73
1
 93
40
 10
86709.78331502715
 20
96378.94808501916
 10
86352.27071869929
 20
98962.00533244264
 10
94925.10090234884
 20
102362.97323030749
 10
92795.5443599136
 20
89106.84299058176
 10
88224.90100621725
 20
68257.88092209233
 10
85391.22623376457
 20
39932.64203029851
 10
85331.5242425738
 20
39938.61465517023
 10
85302.12135122508
 20
39940.10434619217
 10
85272.7140275809
 20
39938.70487661726
 10
85243.58548024362
 20
39934.429724102505
 10
85240.58154954374
 20
39933.68217426324
 10
88076.51380612167
 20
68281.4867386471
 10
92648.11585776655
 20
89134.82190204179
 10
94735.14776324054
 20
102126.2434502056
 10
86516.99121824311
 20
98865.97980442955
 10
86877.56657543927
 20
96260.79386353001
 10
74692.52880337693
 20
93712.3310536095
 10
67058.22106336604
 20
92973.84297372616
 10
49687.682430685614
 20
93288.36414658537
 10
27902.873215518768
 20
93062.24461451598
 10
25237.70383708381
 20
62218.1975455328
 10
49418.477258389714
 20
60958.31586062226
 10
52478.37669801319
 20
53950.71517213243
 10
68873.58488888164
 20
53411.129692359085
 10
67916.6915726915
 20
32187.026769692508
 10
68873.7371752497
 20
32187.026769692508
 10
68872.69431583087
 20
32184.112172868845
 10
68865.54083242957
 20
32155.55386629735
 10
68861.22099854887
 20
32126.431911791376
 10
68859.77641655054
 20
32097.026769692508
 10
68859.77641655054
 20
32037.026769692508
 10
67759.77641655054
 20
32037.026769692508
 10
68716.89856350416
 20
53266.2052087139
 10
52378.80282295852
 20
53803.91105094013
 10
49318.10414860827
 20
60813.34209952251
 10
25074.899097651152
 20
62076.476636001775
 10
27765.152646063605
 20
93210.82319804246
 10
49688.261884999185
 20
93438.37824126784
 10
67052.33830793266
 20
93123.9740769731
 10
74669.88563772866
 20
93860.84087519225
 97
0
 92
3
 72
0
 73
1
 93
18
 10
84969.92699817114
 20
35721.36076078829
 10
83636.43950061385
 20
33384.30896550038
 10
81678.16712812347
 20
32037.0267696925
 10
81078.16712812347
 20
32037.0267696925
 10
81078.16712812347
 20
32097.0267696925
 10
81076.72254612514
 20
32126.43191179137
 10
81072.40271224444
 20
32155.553866297334
 10
81065.24922884314
 20
32184.112172868838
 10
81064.20636942431
 20
32187.0267696925
 10
81631.55100416519
 20
32187.0267696925
 10
83523.15667009194
 20
33488.4425844657
 10
84823.84521554488
 20
35768.01138869489
 10
85084.09096545244
 20
38369.411912272066
 10
85086.88727588225
 20
38368.08410265012
 10
85114.59165412346
 20
38358.12334839794
 10
85143.1389528584
 20
38350.92606182984
 10
85172.25424599469
 20
38346.561556749926
 10
85231.95623718544
 20
38340.58893187821
 97
0
 92
3
 72
0
 73
1
 93
12
 10
75491.08502740381
 20
32184.112172868838
 10
75483.93154400251
 20
32155.55386629734
 10
75479.61171012181
 20
32126.431911791376
 10
75478.16712812347
 20
32097.026769692508
 10
75478.16712812347
 20
32037.026769692508
 10
70659.77641655054
 20
32037.026769692508
 10
70659.77641655054
 20
32097.026769692508
 10
70658.3318345522
 20
32126.431911791376
 10
70654.0120006715
 20
32155.55386629735
 10
70646.8585172702
 20
32184.112172868845
 10
70645.81565785136
 20
32187.026769692508
 10
75492.12788682265
 20
32187.026769692508
 97
0
 75
1
 76
1
 52
0.0
 41
125.98425196850394
 77
0
 78
1
 53
45.0
 43
0.0
 44
0.0
 45
-282.8427124787
 46
282.8427124787
 79
0
 98
0
  0
LWPOLYLINE
  5
F3
330
17
100
AcDbEntity
  8
A-FENCE
100
AcDbPolyline
 90
41
 70
1
 10
86709.78331502715
 20
96378.94808501916
 10
86352.27071869929
 20
98962.00533244264
 10
94925.10090234884
 20
102362.97323030749
 10
92795.5443599136
 20
89106.84299058176
 10
88224.90100621725
 20
68257.88092209233
 10
85391.22623376457
 20
39932.64203029851
 10
85331.5242425738
 20
39938.61465517023
 10
85302.12135122508
 20
39940.10434619217
 10
85272.7140275809
 20
39938.70487661726
 10
85243.58548024362
 20
39934.429724102505
 10
85240.58154954374
 20
39933.68217426324
 10
88076.51380612167
 20
68281.4867386471
 10
92648.11585776655
 20
89134.82190204179
 10
94735.14776324054
 20
102126.2434502056
 10
86516.99121824311
 20
98865.97980442955
 10
86877.56657543927
 20
96260.79386353001
 10
74692.52880337693
 20
93712.3310536095
 10
67058.22106336604
 20
92973.84297372616
 10
49687.682430685614
 20
93288.36414658537
 10
27902.873215518768
 20
93062.24461451598
 10
25237.70383708381
 20
62218.1975455328
 10
49418.477258389714
 20
60958.31586062226
 10
52478.37669801319
 20
53950.71517213243
 10
68873.58488888164
 20
53411.129692359085
 10
67916.6915726915
 20
32187.026769692508
 10
68873.7371752497
 20
32187.026769692508
 10
68872.69431583087
 20
32184.112172868845
 10
68865.54083242957
 20
32155.55386629735
 10
68861.22099854887
 20
32126.431911791376
 10
68859.77641655054
 20
32097.026769692508
 10
68859.77641655054
 20
32037.026769692508
 10
67759.77641655054
 20
32037.026769692508
 10
68716.89856350416
 20
53266.2052087139
 10
52378.80282295852
 20
53803.91105094013
 10
49318.10414860827
 20
60813.34209952251
 10
25074.899097651152
 20
62076.476636001775
 10
27765.152646063605
 20
93210.82319804246
 10
49688.261884999185
 20
93438.37824126784
 10
67052.33830793266
 20
93123.9740769731
 10
74669.88563772866
 20
93860.84087519225
 10
86709.78331502715
 20
96378.94808501916
  0
LWPOLYLINE
  5
F4
330
17
100
AcDbEntity
  8
A-FENCE
100
AcDbPolyline
 90
19
 70
1
 10
84969.92699817114
 20
35721.36076078829
 10
83636.43950061385
 20
33384.30896550038
 10
81678.16712812347
 20
32037.0267696925
 10
81078.16712812347
 20
32037.0267696925
 10
81078.16712812347
 20
32097.0267696925
 10
81076.72254612514
 20
32126.43191179137
 10
81072.40271224444
 20
32155.553866297334
 10
81065.24922884314
 20
32184.112172868838
 10
81064.20636942431
 20
32187.0267696925
 10
81631.55100416519
 20
32187.0267696925
 10
83523.15667009194
 20
33488.4425844657
 10
84823.84521554488
 20
35768.01138869489
 10
85084.09096545244
 20
38369.411912272066
 10
85086.88727588225
 20
38368.08410265012
 10
85114.59165412346
 20
38358.12334839794
 10
85143.1389528584
 20
38350.92606182984
 10
85172.25424599469
 20
38346.561556749926
 10
85231.95623718544
 20
38340.58893187821
 10
84969.92699817114
 20
35721.36076078829
  0
LWPOLYLINE
  5
F5
330
17
100
AcDbEntity
  8
A-FENCE
100
AcDbPolyline
 90
13
 70
1
 10
75491.08502740381
 20
32184.112172868838
 10
75483.93154400251
 20
32155.55386629734
 10
75479.61171012181
 20
32126.431911791376
 10
75478.16712812347
 20
32097.026769692508
 10
75478.16712812347
 20
32037.026769692508
 10
70659.77641655054
 20
32037.026769692508
 10
70659.77641655054
 20
32097.026769692508
 10
70658.3318345522
 20
32126.431911791376
 10
70654.0120006715
 20
32155.55386629735
 10
70646.8585172702
 20
32184.112172868845
 10
70645.81565785136
 20
32187.026769692508
 10
75492.12788682265
 20
32187.026769692508
 10
75491.08502740381
 20
32184.112172868838
  0
LINE
  5
F6
330
17
100
AcDbEntity
  8
A-DOOR
370
35
100
AcDbLine
 10
80778.16712812347
 20
32037.0267696925
 30
0.0
 11
75778.16712812347
 21
32037.026769692508
 31
0.0
  0
TEXT
  5
F7
330
17
100
AcDbEntity
  8
A-TEXT
100
AcDbText
 10
78278.16712812347
 20
30537.0267696925
 30
0.0
 40
760.0
  1
車両門扉
  7
JP
 72
1
 11
78278.16712812347
 21
30537.0267696925
 31
0.0
100
AcDbText
 73
2
  0
LINE
  5
F8
330
17
100
AcDbEntity
  8
A-DOOR
370
35
100
AcDbLine
 10
70359.77641655054
 20
32037.026769692508
 30
0.0
 11
69159.77641655054
 21
32037.026769692508
 31
0.0
  0
TEXT
  5
F9
330
17
100
AcDbEntity
  8
A-TEXT
100
AcDbText
 10
69759.77641655054
 20
30537.026769692508
 30
0.0
 40
760.0
  1
門扉（人）
  7
JP
 72
1
 11
69759.77641655054
 21
30537.026769692508
 31
0.0
100
AcDbText
 73
2
  0
LINE
  5
FA
330
17
100
AcDbEntity
  8
A-DOOR
370
35
100
AcDbLine
 10
85361.36310940598
 20
39634.13207434471
 30
0.0
 11
85261.81936154403
 21
38639.09888783201
 31
0.0
  0
TEXT
  5
FB
330
17
100
AcDbEntity
  8
A-TEXT
100
AcDbText
 10
85311.591235475
 20
37636.61548108836
 30
0.0
 40
760.0
  1
勝手口
  7
JP
 72
1
 11
85311.591235475
 21
37636.61548108836
 31
0.0
100
AcDbText
 73
2
  0
LWPOLYLINE
  5
FC
330
17
100
AcDbEntity
  8
A-VIS
370
9
100
AcDbPolyline
 90
9
 70
0
 10
58964.44055450648
 20
63380.58423067284
 10
58964.44055450648
 20
63500.58423067284
 10
58964.44055450648
 20
82000.58423067283
 10
58964.44055450648
 20
82120.58423067283
 10
77704.44055450648
 20
82120.58423067283
 10
77704.44055450648
 20
82000.58423067283
 10
77704.44055450648
 20
63500.58423067284
 10
77704.44055450648
 20
63380.58423067284
 10
58964.44055450648
 20
63380.58423067284
  0
LWPOLYLINE
  5
FD
330
17
100
AcDbEntity
  8
A-VIS
370
9
100
AcDbPolyline
 90
5
 70
0
 10
77584.44055450648
 20
63500.58423067284
 10
77584.44055450648
 20
82000.58423067283
 10
59084.44055450648
 20
82000.58423067283
 10
59084.44055450648
 20
63500.58423067284
 10
77584.44055450648
 20
63500.58423067284
  0
LWPOLYLINE
  5
FE
330
17
100
AcDbEntity
  8
A-VIS
370
9
100
AcDbPolyline
 90
9
 70
0
 10
59084.44055450648
 20
63500.58423067284
 10
59084.44055450648
 20
63750.58423067284
 10
59084.44055450648
 20
81750.58423067283
 10
59084.44055450648
 20
82000.58423067283
 10
77584.44055450648
 20
82000.58423067283
 10
77584.44055450648
 20
81750.58423067283
 10
77584.44055450648
 20
63750.58423067284
 10
77584.44055450648
 20
63500.58423067284
 10
59084.44055450648
 20
63500.58423067284
  0
LWPOLYLINE
  5
FF
330
17
100
AcDbEntity
  8
A-VIS
370
9
100
AcDbPolyline
 90
5
 70
0
 10
77334.44055450648
 20
63750.58423067284
 10
77334.44055450648
 20
81750.58423067283
 10
59334.44055450648
 20
81750.58423067283
 10
59334.44055450648
 20
63750.58423067284
 10
77334.44055450648
 20
63750.58423067284
  0
LWPOLYLINE
  5
100
330
17
100
AcDbEntity
  8
A-DOOR
370
9
100
AcDbPolyline
 90
6
 70
0
 10
68058.94055450648
 20
63380.58423067284
 10
68059.44055450648
 20
63380.58423067284
 10
68059.44055450648
 20
63350.58423067284
 10
66359.44055450648
 20
63350.58423067284
 10
66359.44055450648
 20
63380.58423067284
 10
66359.94055450648
 20
63380.58423067284
  0
LWPOLYLINE
  5
101
330
17
100
AcDbEntity
  8
A-DOOR
370
9
100
AcDbPolyline
 90
6
 70
0
 10
77704.44055450648
 20
80175.08423067283
 10
77704.44055450648
 20
80175.58423067283
 10
77734.44055450648
 20
80175.58423067283
 10
77734.44055450648
 20
79075.58423067283
 10
77704.44055450648
 20
79075.58423067283
 10
77704.44055450648
 20
79076.08423067283
  0
LWPOLYLINE
  5
102
330
17
100
AcDbEntity
  8
A-DOOR
370
9
100
AcDbPolyline
 90
6
 70
0
 10
58964.44055450648
 20
70776.08423067283
 10
58964.44055450648
 20
70775.58423067283
 10
58934.44055450648
 20
70775.58423067283
 10
58934.44055450648
 20
72475.58423067283
 10
58964.44055450648
 20
72475.58423067283
 10
58964.44055450648
 20
72475.08423067283
  0
LWPOLYLINE
  5
103
330
17
100
AcDbEntity
  8
A-DOOR
370
9
100
AcDbPolyline
 90
6
 70
0
 10
58964.44055450648
 20
73376.08423067283
 10
58964.44055450648
 20
73375.58423067283
 10
58934.44055450648
 20
73375.58423067283
 10
58934.44055450648
 20
74475.58423067283
 10
58964.44055450648
 20
74475.58423067283
 10
58964.44055450648
 20
74475.08423067283
  0
LWPOLYLINE
  5
104
330
17
100
AcDbEntity
  8
A-DOOR
370
9
100
AcDbPolyline
 90
6
 70
0
 10
61158.94055450648
 20
63380.58423067284
 10
61159.44055450648
 20
63380.58423067284
 10
61159.44055450648
 20
63350.58423067284
 10
60059.44055450648
 20
63350.58423067284
 10
60059.44055450648
 20
63380.58423067284
 10
60059.94055450648
 20
63380.58423067284
  0
LWPOLYLINE
  5
105
330
17
100
AcDbEntity
  8
A-DOOR
370
9
100
AcDbPolyline
 90
6
 70
0
 10
64458.94055450648
 20
63380.58423067284
 10
64459.44055450648
 20
63380.58423067284
 10
64459.44055450648
 20
63350.58423067284
 10
63359.44055450648
 20
63350.58423067284
 10
63359.44055450648
 20
63380.58423067284
 10
63359.94055450648
 20
63380.58423067284
  0
LWPOLYLINE
  5
106
330
17
100
AcDbEntity
  8
A-DOOR
370
9
100
AcDbPolyline
 90
6
 70
0
 10
77704.44055450648
 20
66575.08423067283
 10
77704.44055450648
 20
66575.58423067283
 10
77734.44055450648
 20
66575.58423067283
 10
77734.44055450648
 20
64275.58423067284
 10
77704.44055450648
 20
64275.58423067284
 10
77704.44055450648
 20
64276.08423067284
  0
LWPOLYLINE
  5
107
330
17
100
AcDbEntity
  8
A-DOOR
370
9
100
AcDbPolyline
 90
6
 70
0
 10
77704.44055450648
 20
69275.08423067283
 10
77704.44055450648
 20
69275.58423067283
 10
77734.44055450648
 20
69275.58423067283
 10
77734.44055450648
 20
66975.58423067283
 10
77704.44055450648
 20
66975.58423067283
 10
77704.44055450648
 20
66976.08423067283
  0
LWPOLYLINE
  5
108
330
17
100
AcDbEntity
  8
A-VIS
370
9
100
AcDbPolyline
 90
8
 70
0
 10
68059.44055450648
 20
63380.08423067284
 10
68059.44055450648
 20
63380.58423067284
 10
68809.44055450648
 20
63380.58423067284
 10
70109.44055450648
 20
63380.58423067284
 10
70109.44055450648
 20
61380.58423067284
 10
66509.44055450648
 20
61380.58423067284
 10
66509.44055450648
 20
63350.58423067284
 10
66509.94055450648
 20
63350.58423067284
  0
LWPOLYLINE
  5
109
330
17
100
AcDbEntity
  8
A-DOOR
370
9
100
AcDbPolyline
 90
5
 70
0
 10
62758.94055450648
 20
63380.58423067284
 10
62759.44055450648
 20
63380.58423067284
 10
62759.44055450648
 20
63350.58423067284
 10
61159.44055450648
 20
63350.58423067284
 10
61159.44055450648
 20
63351.08423067284
  0
LWPOLYLINE
  5
10A
330
17
100
AcDbEntity
  8
A-DOOR
370
9
100
AcDbPolyline
 90
6
 70
0
 10
58964.44055450648
 20
65976.08423067283
 10
58964.44055450648
 20
65975.58423067283
 10
58934.44055450648
 20
65975.58423067283
 10
58934.44055450648
 20
67275.58423067283
 10
58964.44055450648
 20
67275.58423067283
 10
58964.44055450648
 20
67275.08423067283
  0
LWPOLYLINE
  5
10B
330
17
100
AcDbEntity
  8
A-DOOR
370
9
100
AcDbPolyline
 90
5
 70
0
 10
77704.44055450648
 20
80375.08423067283
 10
77704.44055450648
 20
80375.58423067283
 10
77734.44055450648
 20
80375.58423067283
 10
77734.44055450648
 20
80175.58423067283
 10
77733.94055450648
 20
80175.58423067283
  0
LWPOLYLINE
  5
10C
330
17
100
AcDbEntity
  8
A-VIS
370
9
100
AcDbPolyline
 90
5
 70
0
 10
67309.44055450648
 20
56445.58423067284
 10
67309.44055450648
 20
56625.58423067284
 10
71109.44055450648
 20
56625.58423067284
 10
71109.44055450648
 20
56445.58423067284
 10
67309.44055450648
 20
56445.58423067284
  0
LWPOLYLINE
  5
10D
330
17
100
AcDbEntity
  8
A-STRS
370
9
100
AcDbPolyline
 90
5
 70
0
 10
67309.44055450648
 20
61080.58423067284
 10
67309.44055450648
 20
61380.58423067284
 10
69309.44055450648
 20
61380.58423067284
 10
69309.44055450648
 20
61080.58423067284
 10
67309.44055450648
 20
61080.58423067284
  0
LWPOLYLINE
  5
10E
330
17
100
AcDbEntity
  8
A-STRS
370
9
100
AcDbPolyline
 90
5
 70
0
 10
67309.44055450648
 20
60780.58423067284
 10
67309.44055450648
 20
61080.58423067284
 10
69309.44055450648
 20
61080.58423067284
 10
69309.44055450648
 20
60780.58423067284
 10
67309.44055450648
 20
60780.58423067284
  0
LWPOLYLINE
  5
10F
330
17
100
AcDbEntity
  8
A-STRS
370
9
100
AcDbPolyline
 90
5
 70
0
 10
67309.44055450648
 20
60480.58423067284
 10
67309.44055450648
 20
60780.58423067284
 10
69309.44055450648
 20
60780.58423067284
 10
69309.44055450648
 20
60480.58423067284
 10
67309.44055450648
 20
60480.58423067284
  0
LWPOLYLINE
  5
110
330
17
100
AcDbEntity
  8
A-CUT
370
50
100
AcDbPolyline
 90
4
 70
1
 10
58964.44055450648
 20
63380.58423067284
 10
77704.44055450648
 20
63380.58423067284
 10
77704.44055450648
 20
82120.58423067283
 10
58964.44055450648
 20
82120.58423067283
  0
LWPOLYLINE
  5
111
330
17
100
AcDbEntity
  8
A-HIDDEN
100
AcDbPolyline
 90
4
 70
1
 10
32209.440554506484
 20
74625.58423067283
 10
50209.44055450648
 20
74625.58423067283
 10
50209.44055450648
 20
84625.58423067283
 10
32209.440554506484
 20
84625.58423067283
  0
LINE
  5
112
330
17
100
AcDbEntity
  8
A-VIS
370
9
100
AcDbLine
 10
32209.440554506484
 20
76054.15565924428
 30
0.0
 11
50209.44055450648
 21
76054.15565924428
 31
0.0
  0
LINE
  5
113
330
17
100
AcDbEntity
  8
A-VIS
370
9
100
AcDbLine
 10
32209.440554506484
 20
77482.7270878157
 30
0.0
 11
50209.44055450648
 21
77482.7270878157
 31
0.0
  0
LINE
  5
114
330
17
100
AcDbEntity
  8
A-VIS
370
9
100
AcDbLine
 10
32209.440554506484
 20
78911.29851638712
 30
0.0
 11
50209.44055450648
 21
78911.29851638712
 31
0.0
  0
LINE
  5
115
330
17
100
AcDbEntity
  8
A-VIS
370
9
100
AcDbLine
 10
32209.440554506484
 20
80339.86994495854
 30
0.0
 11
50209.44055450648
 21
80339.86994495854
 31
0.0
  0
LINE
  5
116
330
17
100
AcDbEntity
  8
A-VIS
370
9
100
AcDbLine
 10
32209.440554506484
 20
81768.44137352999
 30
0.0
 11
50209.44055450648
 21
81768.44137352999
 31
0.0
  0
LINE
  5
117
330
17
100
AcDbEntity
  8
A-VIS
370
9
100
AcDbLine
 10
32209.440554506484
 20
83197.01280210141
 30
0.0
 11
50209.44055450648
 21
83197.01280210141
 31
0.0
  0
TEXT
  5
118
330
17
100
AcDbEntity
  8
A-TEXT
100
AcDbText
 10
41209.44055450648
 20
73725.58423067283
 30
0.0
 40
680.0
  1
日よけ付き菜園（ソーラーパーゴラ・独立架台 18×10m）
  7
JP
 72
1
 11
41209.44055450648
 21
73725.58423067283
 31
0.0
100
AcDbText
 73
2
  0
LWPOLYLINE
  5
119
330
17
100
AcDbEntity
  8
A-VIS
100
AcDbPolyline
 90
4
 70
1
 10
72509.44055450648
 20
36525.58423067284
 10
75109.44055450648
 20
36525.58423067284
 10
75109.44055450648
 20
42025.58423067284
 10
72509.44055450648
 20
42025.58423067284
  0
LWPOLYLINE
  5
11A
330
17
100
AcDbEntity
  8
A-VIS
100
AcDbPolyline
 90
4
 70
1
 10
75309.44055450648
 20
36525.58423067284
 10
77909.44055450648
 20
36525.58423067284
 10
77909.44055450648
 20
42025.58423067284
 10
75309.44055450648
 20
42025.58423067284
  0
LWPOLYLINE
  5
11B
330
17
100
AcDbEntity
  8
A-VIS
100
AcDbPolyline
 90
4
 70
1
 10
78109.44055450648
 20
36525.58423067284
 10
80709.44055450648
 20
36525.58423067284
 10
80709.44055450648
 20
42025.58423067284
 10
78109.44055450648
 20
42025.58423067284
  0
LWPOLYLINE
  5
11C
330
17
100
AcDbEntity
  8
A-HIDDEN
100
AcDbPolyline
 90
4
 70
1
 10
72209.44055450648
 20
36225.58423067284
 10
81009.44055450648
 20
36225.58423067284
 10
81009.44055450648
 20
42325.58423067284
 10
72209.44055450648
 20
42325.58423067284
  0
TEXT
  5
11D
330
17
100
AcDbEntity
  8
A-TEXT
100
AcDbText
 10
82509.44055450648
 20
39275.58423067284
 30
0.0
 40
680.0
  1
3台用ソーラーカーポート 8.8×6.1m
  7
JP
 11
82509.44055450648
 21
39275.58423067284
 31
0.0
100
AcDbText
 73
2
  0
TEXT
  5
11E
330
17
100
AcDbEntity
  8
A-TEXT
100
AcDbText
 10
66709.44055450648
 20
56145.58423067284
 30
0.0
 40
600.0
  1
目隠し壁（自立・独立基礎）L3.8m H2.7m
  7
JP
 72
2
 11
66709.44055450648
 21
56145.58423067284
 31
0.0
100
AcDbText
 73
2
  0
TEXT
  5
11F
330
17
100
AcDbEntity
  8
A-ROOM
100
AcDbText
 10
68334.44055450648
 20
72750.58423067283
 30
0.0
 40
800.0
  1
建物（壁式RC造 2階建て）
  7
JP
 72
1
 11
68334.44055450648
 21
72750.58423067283
 31
0.0
100
AcDbText
 73
2
  0
TEXT
  5
120
330
17
100
AcDbEntity
  8
A-TEXT
100
AcDbText
 10
82509.44055450648
 20
34725.58423067284
 30
0.0
 40
680.0
  1
Dotcon+ 透水舗装
  7
JP
 11
82509.44055450648
 21
34725.58423067284
 31
0.0
100
AcDbText
 73
2
  0
TEXT
  5
121
330
17
100
AcDbEntity
  8
A-TEXT
100
AcDbText
 10
74209.44055450648
 20
49625.58423067284
 30
0.0
 40
640.0
  1
アプローチ（透水性舗装）
  7
JP
 11
74209.44055450648
 21
49625.58423067284
 31
0.0
100
AcDbText
 73
2
  0
TEXT
  5
122
330
17
100
AcDbEntity
  8
A-TEXT
100
AcDbText
 10
74209.44055450648
 20
51625.58423067284
 30
0.0
 40
640.0
  1
アプローチ → 玄関（ジム搬入も同じ）
  7
JP
 11
74209.44055450648
 21
51625.58423067284
 31
0.0
100
AcDbText
 73
2
  0
LWPOLYLINE
  5
123
330
17
100
AcDbEntity
  8
A-DRAIN
100
AcDbPolyline
 90
4
 70
1
 10
35709.44055450648
 20
85625.58423067283
 10
40709.44055450648
 20
85625.58423067283
 10
40709.44055450648
 20
90625.58423067283
 10
35709.44055450648
 20
90625.58423067283
  0
LINE
  5
124
330
17
100
AcDbEntity
  8
A-DRAIN
100
AcDbLine
 10
35709.44055450648
 20
85625.58423067283
 30
0.0
 11
40709.44055450648
 21
90625.58423067283
 31
0.0
  0
TEXT
  5
125
330
17
100
AcDbEntity
  8
A-TEXT
100
AcDbText
 10
38209.44055450648
 20
91525.58423067283
 30
0.0
 40
680.0
  1
地下雨水貯留槽 25m³
  7
JP
 72
1
 11
38209.44055450648
 21
91525.58423067283
 31
0.0
100
AcDbText
 73
2
  0
LWPOLYLINE
  5
126
330
17
100
AcDbEntity
  8
A-DRAIN
370
35
100
AcDbPolyline
 90
3
 70
0
 10
29709.440554506484
 20
91625.58423067283
 10
44209.44055450648
 20
91725.58423067283
 10
58209.44055450648
 20
91425.58423067283
  0
LWPOLYLINE
  5
127
330
17
100
AcDbEntity
  8
A-DRAIN
370
35
100
AcDbPolyline
 90
3
 70
0
 10
28709.440554506484
 20
90125.58423067283
 10
27709.440554506484
 20
76625.58423067283
 10
26909.440554506484
 20
64625.58423067284
  0
TEXT
  5
128
330
17
100
AcDbEntity
  8
A-TEXT
100
AcDbText
 10
39209.44055450648
 20
101625.58423067283
 30
0.0
 40
680.0
  1
浸透トレンチ
  7
JP
 72
1
 11
39209.44055450648
 21
101625.58423067283
 31
0.0
100
AcDbText
 73
2
  0
CIRCLE
  5
129
330
17
100
AcDbEntity
  8
A-DRAIN
100
AcDbCircle
 10
29709.440554506484
 20
91625.58423067283
 30
0.0
 40
360.0
  0
CIRCLE
  5
12A
330
17
100
AcDbEntity
  8
A-DRAIN
100
AcDbCircle
 10
44209.44055450648
 20
91725.58423067283
 30
0.0
 40
360.0
  0
CIRCLE
  5
12B
330
17
100
AcDbEntity
  8
A-DRAIN
100
AcDbCircle
 10
58209.44055450648
 20
91425.58423067283
 30
0.0
 40
360.0
  0
CIRCLE
  5
12C
330
17
100
AcDbEntity
  8
A-DRAIN
100
AcDbCircle
 10
27709.440554506484
 20
76625.58423067283
 30
0.0
 40
360.0
  0
CIRCLE
  5
12D
330
17
100
AcDbEntity
  8
A-DRAIN
100
AcDbCircle
 10
26909.440554506484
 20
64625.58423067284
 30
0.0
 40
360.0
  0
CIRCLE
  5
12E
330
17
100
AcDbEntity
  8
A-DRAIN
100
AcDbCircle
 10
70209.44055450648
 20
47625.58423067284
 30
0.0
 40
360.0
  0
LWPOLYLINE
  5
12F
330
17
100
AcDbEntity
  8
A-DRAIN
100
AcDbPolyline
 90
4
 70
1
 10
25509.440554506484
 20
62525.58423067284
 10
26509.440554506484
 20
62525.58423067284
 10
26509.440554506484
 20
63525.58423067284
 10
25509.440554506484
 20
63525.58423067284
  0
TEXT
  5
130
330
17
100
AcDbEntity
  8
A-TEXT
100
AcDbText
 10
26809.440554506484
 20
63025.58423067284
 30
0.0
 40
600.0
  1
排水口（フラップ弁）
  7
JP
 11
26809.440554506484
 21
63025.58423067284
 31
0.0
100
AcDbText
 73
2
  0
LWPOLYLINE
  5
131
330
17
100
AcDbEntity
  8
A-DRAIN
100
AcDbPolyline
 90
4
 70
1
 10
70709.44055450648
 20
32525.584230672837
 10
71709.44055450648
 20
32525.584230672837
 10
71709.44055450648
 20
33525.58423067284
 10
70709.44055450648
 20
33525.58423067284
  0
TEXT
  5
132
330
17
100
AcDbEntity
  8
A-TEXT
100
AcDbText
 10
72009.44055450648
 20
33025.58423067284
 30
0.0
 40
600.0
  1
排水口（フラップ弁）
  7
JP
 11
72009.44055450648
 21
33025.58423067284
 31
0.0
100
AcDbText
 73
2
  0
LWPOLYLINE
  5
133
330
17
100
AcDbEntity
  8
A-FLOOD
370
35
100
AcDbPolyline
 90
2
 70
0
 10
59209.44055450648
 20
107625.58423067283
 10
59209.44055450648
 20
99625.58423067283
  0
LINE
  5
134
330
17
100
AcDbEntity
  8
A-FLOOD
370
35
100
AcDbLine
 10
59209.44055450648
 20
99625.58423067283
 30
0.0
 11
58483.21686762324
 21
100580.8847889317
 31
0.0
  0
LINE
  5
135
330
17
100
AcDbEntity
  8
A-FLOOD
370
35
100
AcDbLine
 10
59209.44055450648
 20
99625.58423067283
 30
0.0
 11
59935.664241389735
 21
100580.8847889317
 31
0.0
  0
LWPOLYLINE
  5
136
330
17
100
AcDbEntity
  8
A-FLOOD
370
35
100
AcDbPolyline
 90
2
 70
0
 10
39209.44055450648
 20
113625.58423067283
 10
39209.44055450648
 20
103625.58423067283
  0
LINE
  5
137
330
17
100
AcDbEntity
  8
A-FLOOD
370
35
100
AcDbLine
 10
39209.44055450648
 20
103625.58423067283
 30
0.0
 11
38483.21686762324
 21
104580.8847889317
 31
0.0
  0
LINE
  5
138
330
17
100
AcDbEntity
  8
A-FLOOD
370
35
100
AcDbLine
 10
39209.44055450648
 20
103625.58423067283
 30
0.0
 11
39935.664241389735
 21
104580.8847889317
 31
0.0
  0
LWPOLYLINE
  5
139
330
17
100
AcDbEntity
  8
A-FLOOD
370
35
100
AcDbPolyline
 90
2
 70
0
 10
89209.44055450648
 20
85625.58423067283
 10
81209.44055450648
 20
81625.58423067283
  0
LINE
  5
13A
330
17
100
AcDbEntity
  8
A-FLOOD
370
35
100
AcDbLine
 10
81209.44055450648
 20
81625.58423067283
 30
0.0
 11
81739.11024324232
 21
82702.3618404115
 31
0.0
  0
LINE
  5
13B
330
17
100
AcDbEntity
  8
A-FLOOD
370
35
100
AcDbLine
 10
81209.44055450648
 20
81625.58423067283
 30
0.0
 11
82388.6644555389
 21
81403.25341581833
 31
0.0
  0
LWPOLYLINE
  5
13C
330
17
100
AcDbEntity
  8
A-FLOOD
370
35
100
AcDbPolyline
 90
2
 70
0
 10
87209.44055450648
 20
63625.58423067284
 10
80209.44055450648
 20
61625.58423067284
  0
LINE
  5
13D
330
17
100
AcDbEntity
  8
A-FLOOD
370
35
100
AcDbLine
 10
80209.44055450648
 20
61625.58423067284
 30
0.0
 11
80928.47592810067
 21
62586.30694380096
 31
0.0
  0
LINE
  5
13E
330
17
100
AcDbEntity
  8
A-FLOOD
370
35
100
AcDbLine
 10
80209.44055450648
 20
61625.58423067284
 30
0.0
 11
81327.49390883338
 21
61189.74401123646
 31
0.0
  0
TEXT
  5
13F
330
17
100
AcDbEntity
  8
A-LEGAL-TEXT
100
AcDbText
 10
73209.44055450648
 20
108625.58423067283
 30
0.0
 40
720.0
  1
表流水の流入（北・東の高い側）
  7
JP
 72
1
 11
73209.44055450648
 21
108625.58423067283
 31
0.0
100
AcDbText
 73
2
  0
TEXT
  5
140
330
17
100
AcDbEntity
  8
A-SYMB
100
AcDbText
 10
33764.82945838259
 20
93273.09797400996
 30
0.0
 40
560.0
  1
2.0
  7
JP
 72
1
 11
33764.82945838259
 21
93273.09797400996
 31
0.0
100
AcDbText
 73
2
  0
TEXT
  5
141
330
17
100
AcDbEntity
  8
A-SYMB
100
AcDbText
 10
47764.07535379358
 20
93418.40578460076
 30
0.0
 40
560.0
  1
2.9
  7
JP
 72
1
 11
47764.07535379358
 21
93418.40578460076
 31
0.0
100
AcDbText
 73
2
  0
TEXT
  5
142
330
17
100
AcDbEntity
  8
A-SYMB
100
AcDbText
 10
61761.99268756596
 20
93219.76418138688
 30
0.0
 40
560.0
  1
2.0
  7
JP
 72
1
 11
61761.99268756596
 21
93219.76418138688
 31
0.0
100
AcDbText
 73
2
  0
TEXT
  5
143
330
17
100
AcDbEntity
  8
A-SYMB
100
AcDbText
 10
75703.21073845282
 20
94076.95761106242
 30
0.0
 40
560.0
  1
2.0
  7
JP
 72
1
 11
75703.21073845282
 21
94076.95761106242
 31
0.0
100
AcDbText
 73
2
  0
TEXT
  5
144
330
17
100
AcDbEntity
  8
A-SYMB
100
AcDbText
 10
86489.46487683235
 20
99016.43227402316
 30
0.0
 40
560.0
  1
2.8
  7
JP
 72
1
 11
86489.46487683235
 21
99016.43227402316
 31
0.0
100
AcDbText
 73
2
  0
TEXT
  5
145
330
17
100
AcDbEntity
  8
A-SYMB
100
AcDbText
 10
94143.96263666758
 20
97500.51929740419
 30
0.0
 40
560.0
  1
4.6
  7
JP
 72
1
 11
94143.96263666758
 21
97500.51929740419
 31
0.0
100
AcDbText
 73
2
  0
TEXT
  5
146
330
17
100
AcDbEntity
  8
A-SYMB
100
AcDbText
 10
91618.04652472674
 20
83735.69372300967
 30
0.0
 40
560.0
  1
4.0
  7
JP
 72
1
 11
91618.04652472674
 21
83735.69372300967
 31
0.0
100
AcDbText
 73
2
  0
TEXT
  5
147
330
17
100
AcDbEntity
  8
A-SYMB
100
AcDbText
 10
88620.07287264933
 20
70060.45500547902
 30
0.0
 40
560.0
  1
2.8
  7
JP
 72
1
 11
88620.07287264933
 21
70060.45500547902
 31
0.0
100
AcDbText
 73
2
  0
TEXT
  5
148
330
17
100
AcDbEntity
  8
A-SYMB
100
AcDbText
 10
87014.98476059739
 20
56163.632482077686
 30
0.0
 40
560.0
  1
2.0
  7
JP
 72
1
 11
87014.98476059739
 21
56163.632482077686
 31
0.0
100
AcDbText
 73
2
  0
TEXT
  5
149
330
17
100
AcDbEntity
  8
A-SYMB
100
AcDbText
 10
85621.37229053008
 20
42233.16787090003
 30
0.0
 40
560.0
  1
2.0
  7
JP
 72
1
 11
85621.37229053008
 21
42233.16787090003
 31
0.0
100
AcDbText
 73
2
  0
TEXT
  5
14A
330
17
100
AcDbEntity
  8
A-SYMB
100
AcDbText
 10
83321.75062921047
 20
33167.80449982103
 30
0.0
 40
560.0
  1
2.0
  7
JP
 72
1
 11
83321.75062921047
 21
33167.80449982103
 31
0.0
100
AcDbText
 73
2
  0
TEXT
  5
14B
330
17
100
AcDbEntity
  8
A-SYMB
100
AcDbText
 10
67967.18315896964
 20
36637.35365407791
 30
0.0
 40
560.0
  1
2.0
  7
JP
 72
1
 11
67967.18315896964
 21
36637.35365407791
 31
0.0
100
AcDbText
 73
2
  0
TEXT
  5
14C
330
17
100
AcDbEntity
  8
A-SYMB
100
AcDbText
 10
68597.7356874968
 20
50623.146570776196
 30
0.0
 40
560.0
  1
2.0
  7
JP
 72
1
 11
68597.7356874968
 21
50623.146570776196
 31
0.0
100
AcDbText
 73
2
  0
TEXT
  5
14D
330
17
100
AcDbEntity
  8
A-SYMB
100
AcDbText
 10
57368.78624269692
 20
53639.68485958866
 30
0.0
 40
560.0
  1
2.0
  7
JP
 72
1
 11
57368.78624269692
 21
53639.68485958866
 31
0.0
100
AcDbText
 73
2
  0
TEXT
  5
14E
330
17
100
AcDbEntity
  8
A-SYMB
100
AcDbText
 10
47961.15913496404
 20
60884.042491951426
 30
0.0
 40
560.0
  1
2.0
  7
JP
 72
1
 11
47961.15913496404
 21
60884.042491951426
 31
0.0
100
AcDbText
 73
2
  0
TEXT
  5
14F
330
17
100
AcDbEntity
  8
A-SYMB
100
AcDbText
 10
33980.12331454574
 20
61612.49110934357
 30
0.0
 40
560.0
  1
2.0
  7
JP
 72
1
 11
33980.12331454574
 21
61612.49110934357
 31
0.0
100
AcDbText
 73
2
  0
TEXT
  5
150
330
17
100
AcDbEntity
  8
A-SYMB
100
AcDbText
 10
25512.45381428648
 20
67140.30424274123
 30
0.0
 40
560.0
  1
2.0
  7
JP
 72
1
 11
25512.45381428648
 21
67140.30424274123
 31
0.0
100
AcDbText
 73
2
  0
TEXT
  5
151
330
17
100
AcDbEntity
  8
A-SYMB
100
AcDbText
 10
26717.67351992422
 20
81088.33082219478
 30
0.0
 40
560.0
  1
2.0
  7
JP
 72
1
 11
26717.67351992422
 21
81088.33082219478
 31
0.0
100
AcDbText
 73
2
  0
TEXT
  5
152
330
17
100
AcDbEntity
  8
A-SYMB
100
AcDbText
 10
67809.44055450648
 20
60325.58423067284
 30
0.0
 40
640.0
  1
1FL GL+1,500
  7
JP
 72
1
 11
67809.44055450648
 21
60325.58423067284
 31
0.0
100
AcDbText
 73
2
  0
TEXT
  5
153
330
17
100
AcDbEntity
  8
A-SYMB
100
AcDbText
 10
47209.44055450648
 20
67625.58423067283
 30
0.0
 40
640.0
  1
FGL GL+450（現況維持）
  7
JP
 72
1
 11
47209.44055450648
 21
67625.58423067283
 31
0.0
100
AcDbText
 73
2
  0
TEXT
  5
154
330
17
100
AcDbEntity
  8
A-SYMB
100
AcDbText
 10
65209.44055450648
 20
31825.584230672837
 30
0.0
 40
640.0
  1
設計GL±0（南側道路 TP+109.0）
  7
JP
 72
1
 11
65209.44055450648
 21
31825.584230672837
 31
0.0
100
AcDbText
 73
2
  0
CIRCLE
  5
155
330
17
100
AcDbEntity
  8
A-SYMB
100
AcDbCircle
 10
112800.0
 20
24000.0
 30
0.0
 40
2400.0
  0
LWPOLYLINE
  5
156
330
17
100
AcDbEntity
  8
A-SYMB
100
AcDbPolyline
 90
4
 70
1
 10
112289.59616472808
 20
26345.098702600746
 10
112285.4577552529
 20
22414.299436094378
 10
112953.12115058157
 20
23296.470389219776
 10
113927.02684707342
 20
22771.582120784726
  0
HATCH
  5
157
330
17
100
AcDbEntity
  8
A-SYMB
 62
7
100
AcDbHatch
 10
0.0
 20
0.0
 30
0.0
210
0.0
220
0.0
230
1.0
  2
SOLID
 70
1
 71
0
 91
1
 92
3
 72
0
 73
1
 93
3
 10
112289.59616472808
 20
26345.098702600746
 10
112953.12115058157
 20
23296.470389219776
 10
113927.02684707342
 20
22771.582120784726
 97
0
 75
0
 76
1
 98
0
  0
TEXT
  5
158
330
17
100
AcDbEntity
  8
A-SYMB
100
AcDbText
 10
112102.44809179503
 20
27204.968226887686
 30
0.0
 40
1400.0
  1
N
 50
12.278765370963004
  7
JP
 72
1
 11
112102.44809179503
 21
27204.968226887686
 31
0.0
100
AcDbText
 73
2
  0
TEXT
  5
159
330
17
100
AcDbEntity
  8
A-SYMB
100
AcDbText
 10
112800.0
 20
20600.0
 30
0.0
 40
640.0
  1
真北 12.3°西振れ（建物は南側道路に平行）
  7
JP
 72
1
 11
112800.0
 21
20600.0
 31
0.0
100
AcDbText
 73
3
  0
TEXT
  5
15A
330
17
100
AcDbEntity
  8
A-TEXT
100
AcDbText
 10
7200.0
 20
8800.0
 30
0.0
 40
1600.0
  1
外構・雨水排水計画図
  7
JP
 11
7200.0
 21
8800.0
 31
0.0
100
AcDbText
 73
1
  0
LINE
  5
15B
330
17
100
AcDbEntity
  8
A-SYMB
370
50
100
AcDbLine
 10
7200.0
 20
8320.0
 30
0.0
 11
30479.999999999996
 21
8320.0
 31
0.0
  0
TEXT
  5
15C
330
17
100
AcDbEntity
  8
A-TEXT
100
AcDbText
 10
30879.999999999996
 20
8800.0
 30
0.0
 40
1120.0
  1
S=1:400
  7
JP
 11
30879.999999999996
 21
8800.0
 31
0.0
100
AcDbText
 73
1
  0
LWPOLYLINE
  5
15D
330
17
100
AcDbEntity
  8
A-FENCE
100
AcDbPolyline
 90
4
 70
1
 10
120000.0
 20
111800.0
 10
124800.0
 20
111800.0
 10
124800.0
 20
112200.0
 10
120000.0
 20
112200.0
  0
HATCH
  5
15E
330
17
100
AcDbEntity
  8
A-CUT-HATCH
 62
7
100
AcDbHatch
 10
0.0
 20
0.0
 30
0.0
210
0.0
220
0.0
230
1.0
  2
ANSI31
 70
0
 71
0
 91
1
 92
3
 72
0
 73
1
 93
4
 10
124800.0
 20
111800.0
 10
124800.0
 20
112200.0
 10
120000.0
 20
112200.0
 10
120000.0
 20
111800.0
 97
0
 75
1
 76
1
 52
0.0
 41
125.98425196850394
 77
0
 78
1
 53
45.0
 43
0.0
 44
0.0
 45
-282.8427124787
 46
282.8427124787
 79
0
 98
0
  0
TEXT
  5
15F
330
17
100
AcDbEntity
  8
A-TEXT
100
AcDbText
 10
126000.0
 20
111640.00000000001
 30
0.0
 40
800.0
  1
RC塀 t=150（数値=FGLからの天端高 m）
  7
JP
 11
126000.0
 21
111640.00000000001
 31
0.0
100
AcDbText
  0
HATCH
  5
160
330
17
100
AcDbEntity
  8
A-PAVE
 62
7
100
AcDbHatch
 10
0.0
 20
0.0
 30
0.0
210
0.0
220
0.0
230
1.0
  2
NET
 70
0
 71
0
 91
1
 92
3
 72
0
 73
1
 93
4
 10
124800.0
 20
109719.99999999999
 10
124800.0
 20
110599.99999999999
 10
120000.0
 20
110599.99999999999
 10
120000.0
 20
109719.99999999999
 97
0
 75
1
 76
1
 52
0.0
 41
151.18110236220474
 77
0
 78
2
 53
0.0
 43
0.0
 44
0.0
 45
0.0
 46
480.0
 79
0
 53
90.0
 43
0.0
 44
0.0
 45
-480.0
 46
0.0
 79
0
 98
0
  0
LWPOLYLINE
  5
161
330
17
100
AcDbEntity
  8
A-PAVE
100
AcDbPolyline
 90
4
 70
1
 10
120000.0
 20
109719.99999999999
 10
124800.0
 20
109719.99999999999
 10
124800.0
 20
110599.99999999999
 10
120000.0
 20
110599.99999999999
  0
TEXT
  5
162
330
17
100
AcDbEntity
  8
A-TEXT
100
AcDbText
 10
126000.0
 20
109800.0
 30
0.0
 40
800.0
  1
Dotcon+ 透水舗装
  7
JP
 11
126000.0
 21
109800.0
 31
0.0
100
AcDbText
  0
LINE
  5
163
330
17
100
AcDbEntity
  8
A-DRAIN
100
AcDbLine
 10
120000.0
 20
108319.99999999999
 30
0.0
 11
124800.0
 21
108319.99999999999
 31
0.0
  0
TEXT
  5
164
330
17
100
AcDbEntity
  8
A-TEXT
100
AcDbText
 10
126000.0
 20
107959.99999999999
 30
0.0
 40
800.0
  1
浸透トレンチ・浸透桝・貯留槽
  7
JP
 11
126000.0
 21
107959.99999999999
 31
0.0
100
AcDbText
  0
LINE
  5
165
330
17
100
AcDbEntity
  8
A-FLOOD
100
AcDbLine
 10
120000.0
 20
106479.99999999997
 30
0.0
 11
124800.0
 21
106479.99999999997
 31
0.0
  0
TEXT
  5
166
330
17
100
AcDbEntity
  8
A-TEXT
100
AcDbText
 10
126000.0
 20
106119.99999999999
 30
0.0
 40
800.0
  1
表流水の流入方向
  7
JP
 11
126000.0
 21
106119.99999999999
 31
0.0
100
AcDbText
  0
LINE
  5
167
330
17
100
AcDbEntity
  8
A-SITE
100
AcDbLine
 10
120000.0
 20
104639.99999999997
 30
0.0
 11
124800.0
 21
104639.99999999997
 31
0.0
  0
TEXT
  5
168
330
17
100
AcDbEntity
  8
A-TEXT
100
AcDbText
 10
126000.0
 20
104279.99999999997
 30
0.0
 40
800.0
  1
敷地境界（推定）
  7
JP
 11
126000.0
 21
104279.99999999997
 31
0.0
100
AcDbText
  0
TEXT
  5
169
330
17
100
AcDbEntity
  8
A-TEXT
100
AcDbText
 10
120000.0
 20
100800.0
 30
0.0
 40
1200.0
  1
内水対策
  7
JP
 11
120000.0
 21
100800.0
 31
0.0
100
AcDbText
  0
TEXT
  5
16A
330
17
100
AcDbEntity
  8
A-TEXT
100
AcDbText
 10
120400.0
 20
98600.0
 30
0.0
 40
840.0
  1
1. RC塀の基礎〜FGL+600を止水構造。門扉には着脱式止水板 H600
  7
JP
 11
120400.0
 21
98600.0
 31
0.0
100
AcDbText
  0
TEXT
  5
16B
330
17
100
AcDbEntity
  8
A-TEXT
100
AcDbText
 10
120400.0
 20
96680.0
 30
0.0
 40
840.0
  1
2. Dotcon+ 約122m² × 13L/m² ≒ 1.6m³ の一時貯留
  7
JP
 11
120400.0
 21
96680.0
 31
0.0
100
AcDbText
  0
TEXT
  5
16C
330
17
100
AcDbEntity
  8
A-TEXT
100
AcDbText
 10
120400.0
 20
94759.99999999999
 30
0.0
 40
840.0
  1
3. 地下貯留槽 25m³＋浸透トレンチ・浸透桝（透水係数は地盤調査で確認）
  7
JP
 11
120400.0
 21
94759.99999999999
 31
0.0
100
AcDbText
  0
TEXT
  5
16D
330
17
100
AcDbEntity
  8
A-TEXT
100
AcDbText
 10
120400.0
 20
92839.99999999999
 30
0.0
 40
840.0
  1
4. 塀の低い位置にフラップ弁付き排水口（道路側溝からの逆流防止）
  7
JP
 11
120400.0
 21
92839.99999999999
 31
0.0
100
AcDbText
  0
TEXT
  5
16E
330
17
100
AcDbEntity
  8
A-TEXT
100
AcDbText
 10
120400.0
 20
90919.99999999999
 30
0.0
 40
840.0
  1
5. 建物: 1FL=GL+1,500、床下は設備ピット、逆流防止弁・排水ポンプ（非常
  7
JP
 11
120400.0
 21
90919.99999999999
 31
0.0
100
AcDbText
  0
TEXT
  5
16F
330
17
100
AcDbEntity
  8
A-TEXT
100
AcDbText
 10
120400.0
 20
89399.99999999997
 30
0.0
 40
840.0
  1
電源）
  7
JP
 11
120400.0
 21
89399.99999999997
 31
0.0
100
AcDbText
  0
TEXT
  5
170
330
17
100
AcDbEntity
  8
A-TEXT
100
AcDbText
 10
120400.0
 20
87479.99999999997
 30
0.0
 40
840.0
  1
参考: 時間雨量50mmで敷地全体の流出量は約139m³/h。貯留・浸透は初期雨水
  7
JP
 11
120400.0
 21
87479.99999999997
 31
0.0
100
AcDbText
  0
TEXT
  5
171
330
17
100
AcDbEntity
  8
A-TEXT
100
AcDbText
 10
120400.0
 20
85959.99999999997
 30
0.0
 40
840.0
  1
の抑制が主目的で、超過分は止水と排水ポンプで対応
  7
JP
 11
120400.0
 21
85959.99999999997
 31
0.0
100
AcDbText
  0
TEXT
  5
172
330
17
100
AcDbEntity
  8
A-TEXT
100
AcDbText
 10
120000.0
 20
84039.99999999997
 30
0.0
 40
1200.0
  1
防犯
  7
JP
 11
120000.0
 21
84039.99999999997
 31
0.0
100
AcDbText
  0
TEXT
  5
173
330
17
100
AcDbEntity
  8
A-TEXT
100
AcDbText
 10
120400.0
 20
81839.99999999997
 30
0.0
 40
840.0
  1
RC塀 H2.0m（東側の坂道沿いは道路面+1.2m以上）。上部に侵入防止金物、セ
  7
JP
 11
120400.0
 21
81839.99999999997
 31
0.0
100
AcDbText
  0
TEXT
  5
174
330
17
100
AcDbEntity
  8
A-TEXT
100
AcDbText
 10
120400.0
 20
80319.99999999996
 30
0.0
 40
840.0
  1
ンサーライト・防犯カメラ、門扉は塀と同じ高さ
  7
JP
 11
120400.0
 21
80319.99999999996
 31
0.0
100
AcDbText
  0
ENDSEC
  0
SECTION
  2
OBJECTS
  0
DICTIONARY
  5
A
330
0
100
AcDbDictionary
281
1
  3
ACAD_COLOR
350
B
  3
ACAD_GROUP
350
C
  3
ACAD_LAYOUT
350
D
  3
ACAD_MATERIAL
350
E
  3
ACAD_MLEADERSTYLE
350
F
  3
ACAD_MLINESTYLE
350
10
  3
ACAD_PLOTSETTINGS
350
11
  3
ACAD_PLOTSTYLENAME
350
12
  3
ACAD_SCALELIST
350
14
  3
ACAD_TABLESTYLE
350
15
  3
ACAD_VISUALSTYLE
350
16
  3
EZDXF_META
350
2D
  0
DICTIONARY
  5
B
330
A
100
AcDbDictionary
281
1
  0
DICTIONARY
  5
C
330
A
100
AcDbDictionary
281
1
  0
DICTIONARY
  5
D
330
A
100
AcDbDictionary
281
1
  3
Model
350
1A
  3
Layout1
350
1E
  0
DICTIONARY
  5
E
330
A
100
AcDbDictionary
281
1
  3
ByBlock
350
1F
  3
ByLayer
350
20
  3
Global
350
21
  0
DICTIONARY
  5
F
330
A
100
AcDbDictionary
281
1
  3
Standard
350
2C
  0
DICTIONARY
  5
10
330
A
100
AcDbDictionary
281
1
  3
Standard
350
22
  0
DICTIONARY
  5
11
330
A
100
AcDbDictionary
281
1
  0
ACDBDICTIONARYWDFLT
  5
12
330
A
100
AcDbDictionary
281
1
  3
Normal
350
13
100
AcDbDictionaryWithDefault
340
13
  0
ACDBPLACEHOLDER
  5
13
330
12
  0
DICTIONARY
  5
14
330
A
100
AcDbDictionary
281
1
  0
DICTIONARY
  5
15
330
A
100
AcDbDictionary
281
1
  0
DICTIONARY
  5
16
330
A
100
AcDbDictionary
281
1
  3
2dWireframe
350
5A
  3
Basic
350
5B
  3
Brighten
350
5C
  3
ColorChange
350
5D
  3
Conceptual
350
5E
  3
Dim
350
5F
  3
EdgeColorOff
350
60
  3
Facepattern
350
61
  3
Flat
350
62
  3
FlatWithEdges
350
63
  3
Gouraud
350
64
  3
GouraudWithEdges
350
65
  3
Hidden
350
66
  3
JitterOff
350
67
  3
Linepattern
350
68
  3
Modeling
350
69
  3
OverhangOff
350
6A
  3
Realistic
350
6B
  3
Shaded
350
6C
  3
Shaded with edges
350
6D
  3
Shades of Gray
350
6E
  3
Sketchy
350
6F
  3
Thicken
350
70
  3
Wireframe
350
71
  3
X-Ray
350
72
  0
LAYOUT
  5
1A
330
D
100
AcDbPlotSettings
  1

  4
A3
  6

 40
7.5
 41
20.0
 42
7.5
 43
20.0
 44
420.0
 45
297.0
 46
0.0
 47
0.0
 48
0.0
 49
0.0
140
0.0
141
0.0
142
1.0
143
1.0
 70
1024
 72
1
 73
0
 74
5
  7

 75
16
 76
0
 77
2
 78
300
147
1.0
148
0.0
149
0.0
100
AcDbLayout
  1
Model
 70
1
 71
0
 10
0.0
 20
0.0
 11
420.0
 21
297.0
 12
0.0
 22
0.0
 32
0.0
 14
1e+20
 24
1e+20
 34
1e+20
 15
-1e+20
 25
-1e+20
 35
-1e+20
146
0.0
 13
0.0
 23
0.0
 33
0.0
 16
1.0
 26
0.0
 36
0.0
 17
0.0
 27
1.0
 37
0.0
 76
1
330
17
  0
LAYOUT
  5
1E
330
D
100
AcDbPlotSettings
  1

  4
A3
  6

 40
7.5
 41
20.0
 42
7.5
 43
20.0
 44
420.0
 45
297.0
 46
0.0
 47
0.0
 48
0.0
 49
0.0
140
0.0
141
0.0
142
1.0
143
1.0
 70
0
 72
1
 73
0
 74
5
  7

 75
16
 76
0
 77
2
 78
300
147
1.0
148
0.0
149
0.0
100
AcDbLayout
  1
Layout1
 70
1
 71
1
 10
0.0
 20
0.0
 11
420.0
 21
297.0
 12
0.0
 22
0.0
 32
0.0
 14
1e+20
 24
1e+20
 34
1e+20
 15
-1e+20
 25
-1e+20
 35
-1e+20
146
0.0
 13
0.0
 23
0.0
 33
0.0
 16
1.0
 26
0.0
 36
0.0
 17
0.0
 27
1.0
 37
0.0
 76
1
330
1B
  0
MATERIAL
  5
1F
102
{ACAD_REACTORS
330
E
102
}
330
E
100
AcDbMaterial
  1
ByBlock
  2

 70
0
 40
1.0
 71
1
 41
1.0
 91
-1023410177
 42
1.0
 72
1
  3

 73
1
 74
1
 75
1
 44
0.5
 73
0
 45
1.0
 46
1.0
 77
1
  4

 78
1
 79
1
170
1
 48
1.0
171
1
  6

172
1
173
1
174
1
140
1.0
141
1.0
175
1
  7

176
1
177
1
178
1
143
1.0
179
1
  8

270
1
271
1
272
1
145
1.0
146
1.0
273
1
  9

274
1
275
1
276
1
 42
1.0
 72
1
  3

 73
1
 74
1
 75
1
 94
63
  0
MATERIAL
  5
20
102
{ACAD_REACTORS
330
E
102
}
330
E
100
AcDbMaterial
  1
ByLayer
  2

 70
0
 40
1.0
 71
1
 41
1.0
 91
-1023410177
 42
1.0
 72
1
  3

 73
1
 74
1
 75
1
 44
0.5
 73
0
 45
1.0
 46
1.0
 77
1
  4

 78
1
 79
1
170
1
 48
1.0
171
1
  6

172
1
173
1
174
1
140
1.0
141
1.0
175
1
  7

176
1
177
1
178
1
143
1.0
179
1
  8

270
1
271
1
272
1
145
1.0
146
1.0
273
1
  9

274
1
275
1
276
1
 42
1.0
 72
1
  3

 73
1
 74
1
 75
1
 94
63
  0
MATERIAL
  5
21
102
{ACAD_REACTORS
330
E
102
}
330
E
100
AcDbMaterial
  1
Global
  2

 70
0
 40
1.0
 71
1
 41
1.0
 91
-1023410177
 42
1.0
 72
1
  3

 73
1
 74
1
 75
1
 44
0.5
 73
0
 45
1.0
 46
1.0
 77
1
  4

 78
1
 79
1
170
1
 48
1.0
171
1
  6

172
1
173
1
174
1
140
1.0
141
1.0
175
1
  7

176
1
177
1
178
1
143
1.0
179
1
  8

270
1
271
1
272
1
145
1.0
146
1.0
273
1
  9

274
1
275
1
276
1
 42
1.0
 72
1
  3

 73
1
 74
1
 75
1
 94
63
  0
MLINESTYLE
  5
22
102
{ACAD_REACTORS
330
10
102
}
330
10
100
AcDbMlineStyle
  2
Standard
 70
0
  3

 62
256
 51
90.0
 52
90.0
 71
2
 49
0.5
 62
256
  6
BYLAYER
 49
-0.5
 62
256
  6
BYLAYER
  0
MLEADERSTYLE
  5
2C
102
{ACAD_REACTORS
330
F
102
}
330
F
100
AcDbMLeaderStyle
179
2
170
2
171
1
172
0
 90
2
 40
0.0
 41
0.0
173
1
 91
-1056964608
 92
-2
290
1
 42
2.0
291
1
 43
8.0
  3
Standard
 44
4.0
300

342
29
174
1
175
1
176
0
178
1
 93
-1056964608
 45
4.0
292
0
297
0
 46
4.0
 94
-1056964608
 47
1.0
 49
1.0
140
1.0
294
1
141
0.0
177
0
142
1.0
295
0
296
0
143
3.75
271
0
272
9
273
9
  0
DICTIONARY
  5
2D
330
A
100
AcDbDictionary
280
1
281
1
  3
CREATED_BY_EZDXF
350
2E
  3
WRITTEN_BY_EZDXF
350
177
  0
DICTIONARYVAR
  5
2E
330
2D
100
DictionaryVariables
280
0
  1
1.4.4 @ 2026-10-04T13:13:22.580259+00:00
  0
VISUALSTYLE
  5
5A
102
{ACAD_REACTORS
330
16
102
}
330
16
100
AcDbVisualStyle
  2
2dWireframe
 70
4
177
3
291
0
 70
58
 90
2
176
1
 90
2
176
1
 90
0
176
1
 90
0
176
1
 40
0.6
176
1
 40
30.0
176
1
 62
7
420
16777215
176
1
 90
1
176
1
 90
4
176
1
 62
7
176
1
 62
257
176
1
 90
1
176
1
 90
1
176
1
 40
1.0
176
1
 90
8
176
1
 62
7
176
1
 40
1.0
176
1
 90
1
176
1
 90
6
176
1
 90
2
176
1
 62
7
176
1
 90
5
176
1
 90
0
176
1
 90
0
176
1
290
0
176
1
 90
1
176
1
 40
0.0
176
1
 90
0
176
1
290
1
176
1
290
1
176
1
290
0
176
1
290
0
176
1
290
0
176
1
290
0
176
1
290
0
176
1
290
0
176
1
290
0
176
1
 90
50
176
1
 40
0.0
176
1
 40
1.0
176
1
 90
0
176
1
 62
18
420
0
176
1
 90
50
176
1
 90
3
176
1
 62
5
420
255
176
1
290
0
176
1
 90
50
176
1
 90
50
176
1
 90
50
176
1
290
0
176
1
 90
50
176
1
 62
256
176
0
 40
1.0
176
0
 90
2
176
1
  1
strokes_ogs.tif
176
1
290
0
176
1
 40
1.0
176
1
 40
1.0
176
1
  0
VISUALSTYLE
  5
5B
102
{ACAD_REACTORS
330
16
102
}
330
16
100
AcDbVisualStyle
  2
Basic
 70
7
177
3
291
1
 70
58
 90
2
176
1
 90
2
176
1
 90
0
176
1
 90
1
176
1
 40
0.6
176
1
 40
30.0
176
1
 62
7
420
16777215
176
1
 90
1
176
1
 90
4
176
1
 62
7
176
1
 62
257
176
1
 90
1
176
1
 90
1
176
1
 40
1.0
176
1
 90
8
176
1
 62
7
176
1
 40
1.0
176
1
 90
1
176
1
 90
6
176
1
 90
2
176
1
 62
7
176
1
 90
5
176
1
 90
0
176
1
 90
0
176
1
290
0
176
1
 90
1
176
1
 40
0.0
176
1
 90
0
176
1
290
0
176
1
290
1
176
1
290
1
176
1
290
0
176
1
290
0
176
1
290
0
176
1
290
0
176
1
290
0
176
1
290
0
176
1
 90
50
176
1
 40
0.0
176
1
 40
1.0
176
1
 90
0
176
1
 62
18
420
0
176
1
 90
50
176
1
 90
3
176
1
 62
5
420
255
176
1
290
0
176
1
 90
50
176
1
 90
50
176
1
 90
50
176
1
290
0
176
1
 90
50
176
1
 62
256
176
0
 40
1.0
176
0
 90
2
176
1
  1
strokes_ogs.tif
176
1
290
0
176
1
 40
1.0
176
1
 40
1.0
176
1
  0
VISUALSTYLE
  5
5C
102
{ACAD_REACTORS
330
16
102
}
330
16
100
AcDbVisualStyle
  2
Brighten
 70
12
177
3
291
1
 70
58
 90
2
176
1
 90
2
176
1
 90
0
176
1
 90
2
176
1
 40
0.6
176
1
 40
30.0
176
1
 62
7
420
16777215
176
1
 90
1
176
1
 90
4
176
1
 62
7
176
1
 62
257
176
1
 90
1
176
1
 90
1
176
1
 40
1.0
176
1
 90
8
176
1
 62
7
176
1
 40
1.0
176
1
 90
1
176
1
 90
6
176
1
 90
2
176
1
 62
7
176
1
 90
5
176
1
 90
0
176
1
 90
0
176
1
290
0
176
1
 90
1
176
1
 40
0.0
176
1
 90
0
176
1
290
0
176
1
290
1
176
1
290
1
176
1
290
0
176
1
290
0
176
1
290
0
176
1
290
0
176
1
290
0
176
1
290
0
176
1
 90
50
176
1
 40
0.0
176
1
 40
1.0
176
1
 90
0
176
1
 62
18
420
0
176
1
 90
50
176
1
 90
3
176
1
 62
5
420
255
176
1
290
0
176
1
 90
50
176
1
 90
50
176
1
 90
50
176
1
290
0
176
1
 90
50
176
1
 62
256
176
0
 40
1.0
176
0
 90
2
176
1
  1
strokes_ogs.tif
176
1
290
0
176
1
 40
1.0
176
1
 40
1.0
176
1
  0
VISUALSTYLE
  5
5D
102
{ACAD_REACTORS
330
16
102
}
330
16
100
AcDbVisualStyle
  2
ColorChange
 70
16
177
3
291
1
 70
58
 90
2
176
1
 90
2
176
1
 90
0
176
1
 90
2
176
1
 40
0.6
176
1
 40
30.0
176
1
 62
7
420
16777215
176
1
 90
1
176
1
 90
4
176
1
 62
7
176
1
 62
257
176
1
 90
1
176
1
 90
1
176
1
 40
1.0
176
1
 90
8
176
1
 62
7
176
1
 40
1.0
176
1
 90
1
176
1
 90
6
176
1
 90
2
176
1
 62
7
176
1
 90
5
176
1
 90
0
176
1
 90
0
176
1
290
0
176
1
 90
1
176
1
 40
0.0
176
1
 90
0
176
1
290
0
176
1
290
1
176
1
290
1
176
1
290
0
176
1
290
0
176
1
290
0
176
1
290
0
176
1
290
0
176
1
290
0
176
1
 90
50
176
1
 40
0.0
176
1
 40
1.0
176
1
 90
0
176
1
 62
18
420
0
176
1
 90
50
176
1
 90
3
176
1
 62
5
420
255
176
1
290
0
176
1
 90
50
176
1
 90
50
176
1
 90
50
176
1
290
0
176
1
 90
50
176
1
 62
256
176
0
 40
1.0
176
0
 90
2
176
1
  1
strokes_ogs.tif
176
1
290
0
176
1
 40
1.0
176
1
 40
1.0
176
1
  0
VISUALSTYLE
  5
5E
102
{ACAD_REACTORS
330
16
102
}
330
16
100
AcDbVisualStyle
  2
Conceptual
 70
9
177
3
291
0
 70
58
 90
2
176
1
 90
2
176
1
 90
0
176
1
 90
3
176
1
 40
0.6
176
1
 40
30.0
176
1
 62
7
420
16777215
176
1
 90
1
176
1
 90
4
176
1
 62
7
176
1
 62
257
176
1
 90
1
176
1
 90
1
176
1
 40
1.0
176
1
 90
8
176
1
 62
7
176
1
 40
1.0
176
1
 90
1
176
1
 90
6
176
1
 90
2
176
1
 62
7
176
1
 90
5
176
1
 90
0
176
1
 90
0
176
1
290
0
176
1
 90
1
176
1
 40
0.0
176
1
 90
0
176
1
290
0
176
1
290
1
176
1
290
1
176
1
290
0
176
1
290
0
176
1
290
0
176
1
290
0
176
1
290
0
176
1
290
0
176
1
 90
50
176
1
 40
0.0
176
1
 40
1.0
176
1
 90
0
176
1
 62
18
420
0
176
1
 90
50
176
1
 90
3
176
1
 62
5
420
255
176
1
290
0
176
1
 90
50
176
1
 90
50
176
1
 90
50
176
1
290
0
176
1
 90
50
176
1
 62
256
176
0
 40
1.0
176
0
 90
2
176
1
  1
strokes_ogs.tif
176
1
290
0
176
1
 40
1.0
176
1
 40
1.0
176
1
  0
VISUALSTYLE
  5
5F
102
{ACAD_REACTORS
330
16
102
}
330
16
100
AcDbVisualStyle
  2
Dim
 70
11
177
3
291
1
 70
58
 90
2
176
1
 90
2
176
1
 90
0
176
1
 90
2
176
1
 40
0.6
176
1
 40
30.0
176
1
 62
7
420
16777215
176
1
 90
1
176
1
 90
4
176
1
 62
7
176
1
 62
257
176
1
 90
1
176
1
 90
1
176
1
 40
1.0
176
1
 90
8
176
1
 62
7
176
1
 40
1.0
176
1
 90
1
176
1
 90
6
176
1
 90
2
176
1
 62
7
176
1
 90
5
176
1
 90
0
176
1
 90
0
176
1
290
0
176
1
 90
1
176
1
 40
0.0
176
1
 90
0
176
1
290
0
176
1
290
1
176
1
290
1
176
1
290
0
176
1
290
0
176
1
290
0
176
1
290
0
176
1
290
0
176
1
290
0
176
1
 90
50
176
1
 40
0.0
176
1
 40
1.0
176
1
 90
0
176
1
 62
18
420
0
176
1
 90
50
176
1
 90
3
176
1
 62
5
420
255
176
1
290
0
176
1
 90
50
176
1
 90
50
176
1
 90
50
176
1
290
0
176
1
 90
50
176
1
 62
256
176
0
 40
1.0
176
0
 90
2
176
1
  1
strokes_ogs.tif
176
1
290
0
176
1
 40
1.0
176
1
 40
1.0
176
1
  0
VISUALSTYLE
  5
60
102
{ACAD_REACTORS
330
16
102
}
330
16
100
AcDbVisualStyle
  2
EdgeColorOff
 70
22
177
3
291
1
 70
58
 90
2
176
1
 90
2
176
1
 90
0
176
1
 90
2
176
1
 40
0.6
176
1
 40
30.0
176
1
 62
7
420
16777215
176
1
 90
1
176
1
 90
4
176
1
 62
7
176
1
 62
257
176
1
 90
1
176
1
 90
1
176
1
 40
1.0
176
1
 90
8
176
1
 62
7
176
1
 40
1.0
176
1
 90
1
176
1
 90
6
176
1
 90
2
176
1
 62
7
176
1
 90
5
176
1
 90
0
176
1
 90
0
176
1
290
0
176
1
 90
1
176
1
 40
0.0
176
1
 90
0
176
1
290
0
176
1
290
1
176
1
290
1
176
1
290
0
176
1
290
0
176
1
290
0
176
1
290
0
176
1
290
0
176
1
290
0
176
1
 90
50
176
1
 40
0.0
176
1
 40
1.0
176
1
 90
0
176
1
 62
18
420
0
176
1
 90
50
176
1
 90
3
176
1
 62
5
420
255
176
1
290
0
176
1
 90
50
176
1
 90
50
176
1
 90
50
176
1
290
0
176
1
 90
50
176
1
 62
256
176
0
 40
1.0
176
0
 90
2
176
1
  1
strokes_ogs.tif
176
1
290
0
176
1
 40
1.0
176
1
 40
1.0
176
1
  0
VISUALSTYLE
  5
61
102
{ACAD_REACTORS
330
16
102
}
330
16
100
AcDbVisualStyle
  2
Facepattern
 70
15
177
3
291
1
 70
58
 90
2
176
1
 90
2
176
1
 90
0
176
1
 90
2
176
1
 40
0.6
176
1
 40
30.0
176
1
 62
7
420
16777215
176
1
 90
1
176
1
 90
4
176
1
 62
7
176
1
 62
257
176
1
 90
1
176
1
 90
1
176
1
 40
1.0
176
1
 90
8
176
1
 62
7
176
1
 40
1.0
176
1
 90
1
176
1
 90
6
176
1
 90
2
176
1
 62
7
176
1
 90
5
176
1
 90
0
176
1
 90
0
176
1
290
0
176
1
 90
1
176
1
 40
0.0
176
1
 90
0
176
1
290
0
176
1
290
1
176
1
290
1
176
1
290
0
176
1
290
0
176
1
290
0
176
1
290
0
176
1
290
0
176
1
290
0
176
1
 90
50
176
1
 40
0.0
176
1
 40
1.0
176
1
 90
0
176
1
 62
18
420
0
176
1
 90
50
176
1
 90
3
176
1
 62
5
420
255
176
1
290
0
176
1
 90
50
176
1
 90
50
176
1
 90
50
176
1
290
0
176
1
 90
50
176
1
 62
256
176
0
 40
1.0
176
0
 90
2
176
1
  1
strokes_ogs.tif
176
1
290
0
176
1
 40
1.0
176
1
 40
1.0
176
1
  0
VISUALSTYLE
  5
62
102
{ACAD_REACTORS
330
16
102
}
330
16
100
AcDbVisualStyle
  2
Flat
 70
0
177
3
291
1
 70
58
 90
2
176
1
 90
2
176
1
 90
0
176
1
 90
2
176
1
 40
0.6
176
1
 40
30.0
176
1
 62
7
420
16777215
176
1
 90
1
176
1
 90
4
176
1
 62
7
176
1
 62
257
176
1
 90
1
176
1
 90
1
176
1
 40
1.0
176
1
 90
8
176
1
 62
7
176
1
 40
1.0
176
1
 90
1
176
1
 90
6
176
1
 90
2
176
1
 62
7
176
1
 90
5
176
1
 90
0
176
1
 90
0
176
1
290
0
176
1
 90
1
176
1
 40
0.0
176
1
 90
0
176
1
290
0
176
1
290
1
176
1
290
1
176
1
290
0
176
1
290
0
176
1
290
0
176
1
290
0
176
1
290
0
176
1
290
0
176
1
 90
50
176
1
 40
0.0
176
1
 40
1.0
176
1
 90
0
176
1
 62
18
420
0
176
1
 90
50
176
1
 90
3
176
1
 62
5
420
255
176
1
290
0
176
1
 90
50
176
1
 90
50
176
1
 90
50
176
1
290
0
176
1
 90
50
176
1
 62
256
176
0
 40
1.0
176
0
 90
2
176
1
  1
strokes_ogs.tif
176
1
290
0
176
1
 40
1.0
176
1
 40
1.0
176
1
  0
VISUALSTYLE
  5
63
102
{ACAD_REACTORS
330
16
102
}
330
16
100
AcDbVisualStyle
  2
FlatWithEdges
 70
1
177
3
291
1
 70
58
 90
2
176
1
 90
2
176
1
 90
0
176
1
 90
2
176
1
 40
0.6
176
1
 40
30.0
176
1
 62
7
420
16777215
176
1
 90
1
176
1
 90
4
176
1
 62
7
176
1
 62
257
176
1
 90
1
176
1
 90
1
176
1
 40
1.0
176
1
 90
8
176
1
 62
7
176
1
 40
1.0
176
1
 90
1
176
1
 90
6
176
1
 90
2
176
1
 62
7
176
1
 90
5
176
1
 90
0
176
1
 90
0
176
1
290
0
176
1
 90
1
176
1
 40
0.0
176
1
 90
0
176
1
290
0
176
1
290
1
176
1
290
1
176
1
290
0
176
1
290
0
176
1
290
0
176
1
290
0
176
1
290
0
176
1
290
0
176
1
 90
50
176
1
 40
0.0
176
1
 40
1.0
176
1
 90
0
176
1
 62
18
420
0
176
1
 90
50
176
1
 90
3
176
1
 62
5
420
255
176
1
290
0
176
1
 90
50
176
1
 90
50
176
1
 90
50
176
1
290
0
176
1
 90
50
176
1
 62
256
176
0
 40
1.0
176
0
 90
2
176
1
  1
strokes_ogs.tif
176
1
290
0
176
1
 40
1.0
176
1
 40
1.0
176
1
  0
VISUALSTYLE
  5
64
102
{ACAD_REACTORS
330
16
102
}
330
16
100
AcDbVisualStyle
  2
Gouraud
 70
2
177
3
291
1
 70
58
 90
2
176
1
 90
2
176
1
 90
0
176
1
 90
2
176
1
 40
0.6
176
1
 40
30.0
176
1
 62
7
420
16777215
176
1
 90
1
176
1
 90
4
176
1
 62
7
176
1
 62
257
176
1
 90
1
176
1
 90
1
176
1
 40
1.0
176
1
 90
8
176
1
 62
7
176
1
 40
1.0
176
1
 90
1
176
1
 90
6
176
1
 90
2
176
1
 62
7
176
1
 90
5
176
1
 90
0
176
1
 90
0
176
1
290
0
176
1
 90
1
176
1
 40
0.0
176
1
 90
0
176
1
290
0
176
1
290
1
176
1
290
1
176
1
290
0
176
1
290
0
176
1
290
0
176
1
290
0
176
1
290
0
176
1
290
0
176
1
 90
50
176
1
 40
0.0
176
1
 40
1.0
176
1
 90
0
176
1
 62
18
420
0
176
1
 90
50
176
1
 90
3
176
1
 62
5
420
255
176
1
290
0
176
1
 90
50
176
1
 90
50
176
1
 90
50
176
1
290
0
176
1
 90
50
176
1
 62
256
176
0
 40
1.0
176
0
 90
2
176
1
  1
strokes_ogs.tif
176
1
290
0
176
1
 40
1.0
176
1
 40
1.0
176
1
  0
VISUALSTYLE
  5
65
102
{ACAD_REACTORS
330
16
102
}
330
16
100
AcDbVisualStyle
  2
GouraudWithEdges
 70
3
177
3
291
1
 70
58
 90
2
176
1
 90
2
176
1
 90
0
176
1
 90
2
176
1
 40
0.6
176
1
 40
30.0
176
1
 62
7
420
16777215
176
1
 90
1
176
1
 90
4
176
1
 62
7
176
1
 62
257
176
1
 90
1
176
1
 90
1
176
1
 40
1.0
176
1
 90
8
176
1
 62
7
176
1
 40
1.0
176
1
 90
1
176
1
 90
6
176
1
 90
2
176
1
 62
7
176
1
 90
5
176
1
 90
0
176
1
 90
0
176
1
290
0
176
1
 90
1
176
1
 40
0.0
176
1
 90
0
176
1
290
0
176
1
290
1
176
1
290
1
176
1
290
0
176
1
290
0
176
1
290
0
176
1
290
0
176
1
290
0
176
1
290
0
176
1
 90
50
176
1
 40
0.0
176
1
 40
1.0
176
1
 90
0
176
1
 62
18
420
0
176
1
 90
50
176
1
 90
3
176
1
 62
5
420
255
176
1
290
0
176
1
 90
50
176
1
 90
50
176
1
 90
50
176
1
290
0
176
1
 90
50
176
1
 62
256
176
0
 40
1.0
176
0
 90
2
176
1
  1
strokes_ogs.tif
176
1
290
0
176
1
 40
1.0
176
1
 40
1.0
176
1
  0
VISUALSTYLE
  5
66
102
{ACAD_REACTORS
330
16
102
}
330
16
100
AcDbVisualStyle
  2
Hidden
 70
6
177
3
291
0
 70
58
 90
2
176
1
 90
2
176
1
 90
0
176
1
 90
1
176
1
 40
0.6
176
1
 40
30.0
176
1
 62
7
420
16777215
176
1
 90
1
176
1
 90
4
176
1
 62
7
176
1
 62
257
176
1
 90
1
176
1
 90
1
176
1
 40
1.0
176
1
 90
8
176
1
 62
7
176
1
 40
1.0
176
1
 90
1
176
1
 90
6
176
1
 90
2
176
1
 62
7
176
1
 90
5
176
1
 90
0
176
1
 90
0
176
1
290
0
176
1
 90
1
176
1
 40
0.0
176
1
 90
0
176
1
290
0
176
1
290
1
176
1
290
1
176
1
290
0
176
1
290
0
176
1
290
0
176
1
290
0
176
1
290
0
176
1
290
0
176
1
 90
50
176
1
 40
0.0
176
1
 40
1.0
176
1
 90
0
176
1
 62
18
420
0
176
1
 90
50
176
1
 90
3
176
1
 62
5
420
255
176
1
290
0
176
1
 90
50
176
1
 90
50
176
1
 90
50
176
1
290
0
176
1
 90
50
176
1
 62
256
176
0
 40
1.0
176
0
 90
2
176
1
  1
strokes_ogs.tif
176
1
290
0
176
1
 40
1.0
176
1
 40
1.0
176
1
  0
VISUALSTYLE
  5
67
102
{ACAD_REACTORS
330
16
102
}
330
16
100
AcDbVisualStyle
  2
JitterOff
 70
20
177
3
291
1
 70
58
 90
2
176
1
 90
2
176
1
 90
0
176
1
 90
2
176
1
 40
0.6
176
1
 40
30.0
176
1
 62
7
420
16777215
176
1
 90
1
176
1
 90
4
176
1
 62
7
176
1
 62
257
176
1
 90
1
176
1
 90
1
176
1
 40
1.0
176
1
 90
8
176
1
 62
7
176
1
 40
1.0
176
1
 90
1
176
1
 90
6
176
1
 90
2
176
1
 62
7
176
1
 90
5
176
1
 90
0
176
1
 90
0
176
1
290
0
176
1
 90
1
176
1
 40
0.0
176
1
 90
0
176
1
290
0
176
1
290
1
176
1
290
1
176
1
290
0
176
1
290
0
176
1
290
0
176
1
290
0
176
1
290
0
176
1
290
0
176
1
 90
50
176
1
 40
0.0
176
1
 40
1.0
176
1
 90
0
176
1
 62
18
420
0
176
1
 90
50
176
1
 90
3
176
1
 62
5
420
255
176
1
290
0
176
1
 90
50
176
1
 90
50
176
1
 90
50
176
1
290
0
176
1
 90
50
176
1
 62
256
176
0
 40
1.0
176
0
 90
2
176
1
  1
strokes_ogs.tif
176
1
290
0
176
1
 40
1.0
176
1
 40
1.0
176
1
  0
VISUALSTYLE
  5
68
102
{ACAD_REACTORS
330
16
102
}
330
16
100
AcDbVisualStyle
  2
Linepattern
 70
14
177
3
291
1
 70
58
 90
2
176
1
 90
2
176
1
 90
0
176
1
 90
2
176
1
 40
0.6
176
1
 40
30.0
176
1
 62
7
420
16777215
176
1
 90
1
176
1
 90
4
176
1
 62
7
176
1
 62
257
176
1
 90
1
176
1
 90
1
176
1
 40
1.0
176
1
 90
8
176
1
 62
7
176
1
 40
1.0
176
1
 90
1
176
1
 90
6
176
1
 90
2
176
1
 62
7
176
1
 90
5
176
1
 90
0
176
1
 90
0
176
1
290
0
176
1
 90
1
176
1
 40
0.0
176
1
 90
0
176
1
290
0
176
1
290
1
176
1
290
1
176
1
290
0
176
1
290
0
176
1
290
0
176
1
290
0
176
1
290
0
176
1
290
0
176
1
 90
50
176
1
 40
0.0
176
1
 40
1.0
176
1
 90
0
176
1
 62
18
420
0
176
1
 90
50
176
1
 90
3
176
1
 62
5
420
255
176
1
290
0
176
1
 90
50
176
1
 90
50
176
1
 90
50
176
1
290
0
176
1
 90
50
176
1
 62
256
176
0
 40
1.0
176
0
 90
2
176
1
  1
strokes_ogs.tif
176
1
290
0
176
1
 40
1.0
176
1
 40
1.0
176
1
  0
VISUALSTYLE
  5
69
102
{ACAD_REACTORS
330
16
102
}
330
16
100
AcDbVisualStyle
  2
Modeling
 70
10
177
3
291
0
 70
58
 90
2
176
1
 90
2
176
1
 90
0
176
1
 90
2
176
1
 40
0.6
176
1
 40
30.0
176
1
 62
7
420
16777215
176
1
 90
1
176
1
 90
4
176
1
 62
7
176
1
 62
257
176
1
 90
1
176
1
 90
1
176
1
 40
1.0
176
1
 90
8
176
1
 62
7
176
1
 40
1.0
176
1
 90
1
176
1
 90
6
176
1
 90
2
176
1
 62
7
176
1
 90
5
176
1
 90
0
176
1
 90
0
176
1
290
0
176
1
 90
1
176
1
 40
0.0
176
1
 90
0
176
1
290
0
176
1
290
1
176
1
290
1
176
1
290
0
176
1
290
0
176
1
290
0
176
1
290
0
176
1
290
0
176
1
290
0
176
1
 90
50
176
1
 40
0.0
176
1
 40
1.0
176
1
 90
0
176
1
 62
18
420
0
176
1
 90
50
176
1
 90
3
176
1
 62
5
420
255
176
1
290
0
176
1
 90
50
176
1
 90
50
176
1
 90
50
176
1
290
0
176
1
 90
50
176
1
 62
256
176
0
 40
1.0
176
0
 90
2
176
1
  1
strokes_ogs.tif
176
1
290
0
176
1
 40
1.0
176
1
 40
1.0
176
1
  0
VISUALSTYLE
  5
6A
102
{ACAD_REACTORS
330
16
102
}
330
16
100
AcDbVisualStyle
  2
OverhangOff
 70
21
177
3
291
1
 70
58
 90
2
176
1
 90
2
176
1
 90
0
176
1
 90
2
176
1
 40
0.6
176
1
 40
30.0
176
1
 62
7
420
16777215
176
1
 90
1
176
1
 90
4
176
1
 62
7
176
1
 62
257
176
1
 90
1
176
1
 90
1
176
1
 40
1.0
176
1
 90
8
176
1
 62
7
176
1
 40
1.0
176
1
 90
1
176
1
 90
6
176
1
 90
2
176
1
 62
7
176
1
 90
5
176
1
 90
0
176
1
 90
0
176
1
290
0
176
1
 90
1
176
1
 40
0.0
176
1
 90
0
176
1
290
0
176
1
290
1
176
1
290
1
176
1
290
0
176
1
290
0
176
1
290
0
176
1
290
0
176
1
290
0
176
1
290
0
176
1
 90
50
176
1
 40
0.0
176
1
 40
1.0
176
1
 90
0
176
1
 62
18
420
0
176
1
 90
50
176
1
 90
3
176
1
 62
5
420
255
176
1
290
0
176
1
 90
50
176
1
 90
50
176
1
 90
50
176
1
290
0
176
1
 90
50
176
1
 62
256
176
0
 40
1.0
176
0
 90
2
176
1
  1
strokes_ogs.tif
176
1
290
0
176
1
 40
1.0
176
1
 40
1.0
176
1
  0
VISUALSTYLE
  5
6B
102
{ACAD_REACTORS
330
16
102
}
330
16
100
AcDbVisualStyle
  2
Realistic
 70
8
177
3
291
0
 70
58
 90
2
176
1
 90
2
176
1
 90
0
176
1
 90
2
176
1
 40
0.6
176
1
 40
30.0
176
1
 62
7
420
16777215
176
1
 90
1
176
1
 90
4
176
1
 62
7
176
1
 62
257
176
1
 90
1
176
1
 90
1
176
1
 40
1.0
176
1
 90
8
176
1
 62
7
176
1
 40
1.0
176
1
 90
1
176
1
 90
6
176
1
 90
2
176
1
 62
7
176
1
 90
5
176
1
 90
0
176
1
 90
0
176
1
290
0
176
1
 90
1
176
1
 40
0.0
176
1
 90
0
176
1
290
0
176
1
290
1
176
1
290
1
176
1
290
0
176
1
290
0
176
1
290
0
176
1
290
0
176
1
290
0
176
1
290
0
176
1
 90
50
176
1
 40
0.0
176
1
 40
1.0
176
1
 90
0
176
1
 62
18
420
0
176
1
 90
50
176
1
 90
3
176
1
 62
5
420
255
176
1
290
0
176
1
 90
50
176
1
 90
50
176
1
 90
50
176
1
290
0
176
1
 90
50
176
1
 62
256
176
0
 40
1.0
176
0
 90
2
176
1
  1
strokes_ogs.tif
176
1
290
0
176
1
 40
1.0
176
1
 40
1.0
176
1
  0
VISUALSTYLE
  5
6C
102
{ACAD_REACTORS
330
16
102
}
330
16
100
AcDbVisualStyle
  2
Shaded
 70
27
177
3
291
0
 70
58
 90
2
176
1
 90
2
176
1
 90
0
176
1
 90
2
176
1
 40
0.6
176
1
 40
30.0
176
1
 62
7
420
16777215
176
1
 90
1
176
1
 90
4
176
1
 62
7
176
1
 62
257
176
1
 90
1
176
1
 90
1
176
1
 40
1.0
176
1
 90
8
176
1
 62
7
176
1
 40
1.0
176
1
 90
1
176
1
 90
6
176
1
 90
2
176
1
 62
7
176
1
 90
5
176
1
 90
0
176
1
 90
0
176
1
290
0
176
1
 90
1
176
1
 40
0.0
176
1
 90
0
176
1
290
0
176
1
290
1
176
1
290
1
176
1
290
0
176
1
290
0
176
1
290
0
176
1
290
0
176
1
290
0
176
1
290
0
176
1
 90
50
176
1
 40
0.0
176
1
 40
1.0
176
1
 90
0
176
1
 62
18
420
0
176
1
 90
50
176
1
 90
3
176
1
 62
5
420
255
176
1
290
0
176
1
 90
50
176
1
 90
50
176
1
 90
50
176
1
290
0
176
1
 90
50
176
1
 62
256
176
0
 40
1.0
176
0
 90
2
176
1
  1
strokes_ogs.tif
176
1
290
0
176
1
 40
1.0
176
1
 40
1.0
176
1
  0
VISUALSTYLE
  5
6D
102
{ACAD_REACTORS
330
16
102
}
330
16
100
AcDbVisualStyle
  2
Shaded with edges
 70
26
177
3
291
0
 70
58
 90
2
176
1
 90
2
176
1
 90
0
176
1
 90
2
176
1
 40
0.6
176
1
 40
30.0
176
1
 62
7
420
16777215
176
1
 90
1
176
1
 90
4
176
1
 62
7
176
1
 62
257
176
1
 90
1
176
1
 90
1
176
1
 40
1.0
176
1
 90
8
176
1
 62
7
176
1
 40
1.0
176
1
 90
1
176
1
 90
6
176
1
 90
2
176
1
 62
7
176
1
 90
5
176
1
 90
0
176
1
 90
0
176
1
290
0
176
1
 90
1
176
1
 40
0.0
176
1
 90
0
176
1
290
0
176
1
290
1
176
1
290
1
176
1
290
0
176
1
290
0
176
1
290
0
176
1
290
0
176
1
290
0
176
1
290
0
176
1
 90
50
176
1
 40
0.0
176
1
 40
1.0
176
1
 90
0
176
1
 62
18
420
0
176
1
 90
50
176
1
 90
3
176
1
 62
5
420
255
176
1
290
0
176
1
 90
50
176
1
 90
50
176
1
 90
50
176
1
290
0
176
1
 90
50
176
1
 62
256
176
0
 40
1.0
176
0
 90
2
176
1
  1
strokes_ogs.tif
176
1
290
0
176
1
 40
1.0
176
1
 40
1.0
176
1
  0
VISUALSTYLE
  5
6E
102
{ACAD_REACTORS
330
16
102
}
330
16
100
AcDbVisualStyle
  2
Shades of Gray
 70
23
177
3
291
0
 70
58
 90
2
176
1
 90
2
176
1
 90
0
176
1
 90
2
176
1
 40
0.6
176
1
 40
30.0
176
1
 62
7
420
16777215
176
1
 90
1
176
1
 90
4
176
1
 62
7
176
1
 62
257
176
1
 90
1
176
1
 90
1
176
1
 40
1.0
176
1
 90
8
176
1
 62
7
176
1
 40
1.0
176
1
 90
1
176
1
 90
6
176
1
 90
2
176
1
 62
7
176
1
 90
5
176
1
 90
0
176
1
 90
0
176
1
290
0
176
1
 90
1
176
1
 40
0.0
176
1
 90
0
176
1
290
0
176
1
290
1
176
1
290
1
176
1
290
0
176
1
290
0
176
1
290
0
176
1
290
0
176
1
290
0
176
1
290
0
176
1
 90
50
176
1
 40
0.0
176
1
 40
1.0
176
1
 90
0
176
1
 62
18
420
0
176
1
 90
50
176
1
 90
3
176
1
 62
5
420
255
176
1
290
0
176
1
 90
50
176
1
 90
50
176
1
 90
50
176
1
290
0
176
1
 90
50
176
1
 62
256
176
0
 40
1.0
176
0
 90
2
176
1
  1
strokes_ogs.tif
176
1
290
0
176
1
 40
1.0
176
1
 40
1.0
176
1
  0
VISUALSTYLE
  5
6F
102
{ACAD_REACTORS
330
16
102
}
330
16
100
AcDbVisualStyle
  2
Sketchy
 70
24
177
3
291
0
 70
58
 90
2
176
1
 90
2
176
1
 90
0
176
1
 90
1
176
1
 40
0.6
176
1
 40
30.0
176
1
 62
7
420
16777215
176
1
 90
1
176
1
 90
4
176
1
 62
7
176
1
 62
257
176
1
 90
1
176
1
 90
1
176
1
 40
1.0
176
1
 90
8
176
1
 62
7
176
1
 40
1.0
176
1
 90
1
176
1
 90
6
176
1
 90
2
176
1
 62
7
176
1
 90
5
176
1
 90
0
176
1
 90
0
176
1
290
0
176
1
 90
1
176
1
 40
0.0
176
1
 90
0
176
1
290
0
176
1
290
1
176
1
290
1
176
1
290
0
176
1
290
0
176
1
290
0
176
1
290
0
176
1
290
0
176
1
290
0
176
1
 90
50
176
1
 40
0.0
176
1
 40
1.0
176
1
 90
0
176
1
 62
18
420
0
176
1
 90
50
176
1
 90
3
176
1
 62
5
420
255
176
1
290
0
176
1
 90
50
176
1
 90
50
176
1
 90
50
176
1
290
0
176
1
 90
50
176
1
 62
256
176
0
 40
1.0
176
0
 90
2
176
1
  1
strokes_ogs.tif
176
1
290
0
176
1
 40
1.0
176
1
 40
1.0
176
1
  0
VISUALSTYLE
  5
70
102
{ACAD_REACTORS
330
16
102
}
330
16
100
AcDbVisualStyle
  2
Thicken
 70
13
177
3
291
1
 70
58
 90
2
176
1
 90
2
176
1
 90
0
176
1
 90
2
176
1
 40
0.6
176
1
 40
30.0
176
1
 62
7
420
16777215
176
1
 90
1
176
1
 90
4
176
1
 62
7
176
1
 62
257
176
1
 90
1
176
1
 90
1
176
1
 40
1.0
176
1
 90
8
176
1
 62
7
176
1
 40
1.0
176
1
 90
1
176
1
 90
6
176
1
 90
2
176
1
 62
7
176
1
 90
5
176
1
 90
0
176
1
 90
0
176
1
290
0
176
1
 90
1
176
1
 40
0.0
176
1
 90
0
176
1
290
0
176
1
290
1
176
1
290
1
176
1
290
0
176
1
290
0
176
1
290
0
176
1
290
0
176
1
290
0
176
1
290
0
176
1
 90
50
176
1
 40
0.0
176
1
 40
1.0
176
1
 90
0
176
1
 62
18
420
0
176
1
 90
50
176
1
 90
3
176
1
 62
5
420
255
176
1
290
0
176
1
 90
50
176
1
 90
50
176
1
 90
50
176
1
290
0
176
1
 90
50
176
1
 62
256
176
0
 40
1.0
176
0
 90
2
176
1
  1
strokes_ogs.tif
176
1
290
0
176
1
 40
1.0
176
1
 40
1.0
176
1
  0
VISUALSTYLE
  5
71
102
{ACAD_REACTORS
330
16
102
}
330
16
100
AcDbVisualStyle
  2
Wireframe
 70
5
177
3
291
0
 70
58
 90
2
176
1
 90
2
176
1
 90
0
176
1
 90
0
176
1
 40
0.6
176
1
 40
30.0
176
1
 62
7
420
16777215
176
1
 90
1
176
1
 90
4
176
1
 62
7
176
1
 62
257
176
1
 90
1
176
1
 90
1
176
1
 40
1.0
176
1
 90
8
176
1
 62
7
176
1
 40
1.0
176
1
 90
1
176
1
 90
6
176
1
 90
2
176
1
 62
7
176
1
 90
5
176
1
 90
0
176
1
 90
0
176
1
290
0
176
1
 90
1
176
1
 40
0.0
176
1
 90
0
176
1
290
0
176
1
290
1
176
1
290
1
176
1
290
0
176
1
290
0
176
1
290
0
176
1
290
0
176
1
290
0
176
1
290
0
176
1
 90
50
176
1
 40
0.0
176
1
 40
1.0
176
1
 90
0
176
1
 62
18
420
0
176
1
 90
50
176
1
 90
3
176
1
 62
5
420
255
176
1
290
0
176
1
 90
50
176
1
 90
50
176
1
 90
50
176
1
290
0
176
1
 90
50
176
1
 62
256
176
0
 40
1.0
176
0
 90
2
176
1
  1
strokes_ogs.tif
176
1
290
0
176
1
 40
1.0
176
1
 40
1.0
176
1
  0
VISUALSTYLE
  5
72
102
{ACAD_REACTORS
330
16
102
}
330
16
100
AcDbVisualStyle
  2
X-Ray
 70
25
177
3
291
0
 70
58
 90
2
176
1
 90
2
176
1
 90
0
176
1
 90
2
176
1
 40
0.5
176
1
 40
30.0
176
1
 62
7
420
16777215
176
1
 90
1
176
1
 90
4
176
1
 62
7
176
1
 62
257
176
1
 90
1
176
1
 90
1
176
1
 40
1.0
176
1
 90
8
176
1
 62
7
176
1
 40
1.0
176
1
 90
1
176
1
 90
6
176
1
 90
2
176
1
 62
7
176
1
 90
5
176
1
 90
0
176
1
 90
0
176
1
290
0
176
1
 90
1
176
1
 40
0.0
176
1
 90
0
176
1
290
0
176
1
290
1
176
1
290
1
176
1
290
0
176
1
290
0
176
1
290
0
176
1
290
0
176
1
290
0
176
1
290
0
176
1
 90
50
176
1
 40
0.0
176
1
 40
1.0
176
1
 90
0
176
1
 62
18
420
0
176
1
 90
50
176
1
 90
3
176
1
 62
5
420
255
176
1
290
0
176
1
 90
50
176
1
 90
50
176
1
 90
50
176
1
290
0
176
1
 90
50
176
1
 62
256
176
0
 40
1.0
176
0
 90
2
176
1
  1
strokes_ogs.tif
176
1
290
0
176
1
 40
1.0
176
1
 40
1.0
176
1
  0
DICTIONARYVAR
  5
177
330
2D
100
DictionaryVariables
280
0
  1
1.4.4 @ 2026-10-04T13:13:34.631253+00:00
  0
ENDSEC
  0
EOF
