  0
SECTION
  2
HEADER
  9
$ACADVER
  1
AC1032
  9
$ACADMAINTVER
 90
4
  9
$DWGCODEPAGE
  3
ANSI_1252
  9
$LASTSAVEDBY
  1
ezdxf
  9
$REQUIREDVERSIONS
160
0
  9
$INSBASE
 10
0.0
 20
0.0
 30
0.0
  9
$EXTMIN
 10
1e+20
 20
1e+20
 30
1e+20
  9
$EXTMAX
 10
-1e+20
 20
-1e+20
 30
-1e+20
  9
$LIMMIN
 10
0.0
 20
0.0
  9
$LIMMAX
 10
420.0
 20
297.0
  9
$ORTHOMODE
 70
0
  9
$REGENMODE
 70
1
  9
$FILLMODE
 70
1
  9
$QTEXTMODE
 70
0
  9
$MIRRTEXT
 70
1
  9
$LTSCALE
 40
200.0
  9
$ATTMODE
 70
1
  9
$TEXTSIZE
 40
2.5
  9
$TRACEWID
 40
1.0
  9
$TEXTSTYLE
  7
OpenSans
  9
$CLAYER
  8
0
  9
$CELTYPE
  6
ByLayer
  9
$CECOLOR
 62
256
  9
$CELTSCALE
 40
1.0
  9
$DISPSILH
 70
0
  9
$DIMSCALE
 40
1.0
  9
$DIMASZ
 40
0.175
  9
$DIMEXO
 40
0.125
  9
$DIMDLI
 40
3.75
  9
$DIMRND
 40
0.0
  9
$DIMDLE
 40
0.0
  9
$DIMEXE
 40
0.375
  9
$DIMTP
 40
0.0
  9
$DIMTM
 40
0.0
  9
$DIMTXT
 40
0.25
  9
$DIMCEN
 40
2.5
  9
$DIMTSZ
 40
0.0
  9
$DIMTOL
 70
0
  9
$DIMLIM
 70
0
  9
$DIMTIH
 70
0
  9
$DIMTOH
 70
0
  9
$DIMSE1
 70
0
  9
$DIMSE2
 70
0
  9
$DIMTAD
 70
1
  9
$DIMZIN
 70
12
  9
$DIMBLK
  1
ARCHTICK
  9
$DIMASO
 70
1
  9
$DIMSHO
 70
1
  9
$DIMPOST
  1

  9
$DIMAPOST
  1

  9
$DIMALT
 70
0
  9
$DIMALTD
 70
3
  9
$DIMALTF
 40
0.03937007874
  9
$DIMLFAC
 40
100.0
  9
$DIMTOFL
 70
1
  9
$DIMTVP
 40
0.0
  9
$DIMTIX
 70
0
  9
$DIMSOXD
 70
0
  9
$DIMSAH
 70
0
  9
$DIMBLK1
  1

  9
$DIMBLK2
  1

  9
$DIMSTYLE
  2
EZDXF
  9
$DIMCLRD
 70
0
  9
$DIMCLRE
 70
0
  9
$DIMCLRT
 70
0
  9
$DIMTFAC
 40
0.5
  9
$DIMGAP
 40
0.1
  9
$DIMJUST
 70
0
  9
$DIMSD1
 70
0
  9
$DIMSD2
 70
0
  9
$DIMTOLJ
 70
0
  9
$DIMTZIN
 70
8
  9
$DIMALTZ
 70
0
  9
$DIMALTTZ
 70
0
  9
$DIMUPT
 70
1
  9
$DIMDEC
 70
2
  9
$DIMTDEC
 70
2
  9
$DIMALTU
 70
2
  9
$DIMALTTD
 70
3
  9
$DIMTXSTY
  7
OpenSansCondensed-Light
  9
$DIMAUNIT
 70
0
  9
$DIMADEC
 70
2
  9
$DIMALTRND
 40
0.0
  9
$DIMAZIN
 70
3
  9
$DIMDSEP
 70
46
  9
$DIMATFIT
 70
3
  9
$DIMFRAC
 70
0
  9
$DIMLDRBLK
  1

  9
$DIMLUNIT
 70
2
  9
$DIMLWD
 70
-2
  9
$DIMLWE
 70
-2
  9
$DIMTMOVE
 70
2
  9
$DIMFXL
 40
1.0
  9
$DIMFXLON
 70
0
  9
$DIMJOGANG
 40
0.785398163397
  9
$DIMTFILL
 70
0
  9
$DIMTFILLCLR
 70
0
  9
$DIMARCSYM
 70
0
  9
$DIMLTYPE
  6

  9
$DIMLTEX1
  6

  9
$DIMLTEX2
  6

  9
$DIMTXTDIRECTION
 70
0
  9
$LUNITS
 70
2
  9
$LUPREC
 70
4
  9
$SKETCHINC
 40
1.0
  9
$FILLETRAD
 40
10.0
  9
$AUNITS
 70
0
  9
$AUPREC
 70
2
  9
$MENU
  1
.
  9
$ELEVATION
 40
0.0
  9
$PELEVATION
 40
0.0
  9
$THICKNESS
 40
0.0
  9
$LIMCHECK
 70
0
  9
$CHAMFERA
 40
0.0
  9
$CHAMFERB
 40
0.0
  9
$CHAMFERC
 40
0.0
  9
$CHAMFERD
 40
0.0
  9
$SKPOLY
 70
0
  9
$TDCREATE
 40
2461317.1283101854
  9
$TDUCREATE
 40
2458532.153996898
  9
$TDUPDATE
 40
2461317.1283333334
  9
$TDUUPDATE
 40
2458532.1544311
  9
$TDINDWG
 40
0.0
  9
$TDUSRTIMER
 40
0.0
  9
$USRTIMER
 70
1
  9
$ANGBASE
 50
0.0
  9
$ANGDIR
 70
0
  9
$PDMODE
 70
0
  9
$PDSIZE
 40
0.0
  9
$PLINEWID
 40
0.0
  9
$SPLFRAME
 70
0
  9
$SPLINETYPE
 70
6
  9
$SPLINESEGS
 70
8
  9
$HANDSEED
  5
16C
  9
$SURFTAB1
 70
6
  9
$SURFTAB2
 70
6
  9
$SURFTYPE
 70
6
  9
$SURFU
 70
6
  9
$SURFV
 70
6
  9
$UCSBASE
  2

  9
$UCSNAME
  2

  9
$UCSORG
 10
0.0
 20
0.0
 30
0.0
  9
$UCSXDIR
 10
1.0
 20
0.0
 30
0.0
  9
$UCSYDIR
 10
0.0
 20
1.0
 30
0.0
  9
$UCSORTHOREF
  2

  9
$UCSORTHOVIEW
 70
0
  9
$UCSORGTOP
 10
0.0
 20
0.0
 30
0.0
  9
$UCSORGBOTTOM
 10
0.0
 20
0.0
 30
0.0
  9
$UCSORGLEFT
 10
0.0
 20
0.0
 30
0.0
  9
$UCSORGRIGHT
 10
0.0
 20
0.0
 30
0.0
  9
$UCSORGFRONT
 10
0.0
 20
0.0
 30
0.0
  9
$UCSORGBACK
 10
0.0
 20
0.0
 30
0.0
  9
$PUCSBASE
  2

  9
$PUCSNAME
  2

  9
$PUCSORG
 10
0.0
 20
0.0
 30
0.0
  9
$PUCSXDIR
 10
1.0
 20
0.0
 30
0.0
  9
$PUCSYDIR
 10
0.0
 20
1.0
 30
0.0
  9
$PUCSORTHOREF
  2

  9
$PUCSORTHOVIEW
 70
0
  9
$PUCSORGTOP
 10
0.0
 20
0.0
 30
0.0
  9
$PUCSORGBOTTOM
 10
0.0
 20
0.0
 30
0.0
  9
$PUCSORGLEFT
 10
0.0
 20
0.0
 30
0.0
  9
$PUCSORGRIGHT
 10
0.0
 20
0.0
 30
0.0
  9
$PUCSORGFRONT
 10
0.0
 20
0.0
 30
0.0
  9
$PUCSORGBACK
 10
0.0
 20
0.0
 30
0.0
  9
$USERI1
 70
0
  9
$USERI2
 70
0
  9
$USERI3
 70
0
  9
$USERI4
 70
0
  9
$USERI5
 70
0
  9
$USERR1
 40
0.0
  9
$USERR2
 40
0.0
  9
$USERR3
 40
0.0
  9
$USERR4
 40
0.0
  9
$USERR5
 40
0.0
  9
$WORLDVIEW
 70
1
  9
$SHADEDGE
 70
3
  9
$SHADEDIF
 70
70
  9
$TILEMODE
 70
1
  9
$MAXACTVP
 70
64
  9
$PINSBASE
 10
0.0
 20
0.0
 30
0.0
  9
$PLIMCHECK
 70
0
  9
$PEXTMIN
 10
1e+20
 20
1e+20
 30
1e+20
  9
$PEXTMAX
 10
-1e+20
 20
-1e+20
 30
-1e+20
  9
$PLIMMIN
 10
0.0
 20
0.0
  9
$PLIMMAX
 10
420.0
 20
297.0
  9
$UNITMODE
 70
0
  9
$VISRETAIN
 70
1
  9
$PLINEGEN
 70
0
  9
$PSLTSCALE
 70
0
  9
$TREEDEPTH
 70
3020
  9
$CMLSTYLE
  2
Standard
  9
$CMLJUST
 70
0
  9
$CMLSCALE
 40
20.0
  9
$PROXYGRAPHICS
 70
1
  9
$MEASUREMENT
 70
1
  9
$CELWEIGHT
370
-1
  9
$ENDCAPS
280
0
  9
$JOINSTYLE
280
0
  9
$LWDISPLAY
290
0
  9
$INSUNITS
 70
4
  9
$HYPERLINKBASE
  1

  9
$STYLESHEET
  1

  9
$XEDIT
290
1
  9
$CEPSNTYPE
380
0
  9
$PSTYLEMODE
290
1
  9
$FINGERPRINTGUID
  2
{62684581-BC67-444F-A456-B62E66E1EB59}
  9
$VERSIONGUID
  2
{D41859B1-680B-4AFC-BDBB-B521722AD5D4}
  9
$EXTNAMES
290
1
  9
$PSVPSCALE
 40
0.0
  9
$OLESTARTUP
290
0
  9
$SORTENTS
280
127
  9
$INDEXCTL
280
0
  9
$HIDETEXT
280
1
  9
$XCLIPFRAME
280
1
  9
$HALOGAP
280
0
  9
$OBSCOLOR
 70
257
  9
$OBSLTYPE
280
0
  9
$INTERSECTIONDISPLAY
280
0
  9
$INTERSECTIONCOLOR
 70
257
  9
$DIMASSOC
280
2
  9
$PROJECTNAME
  1

  9
$CAMERADISPLAY
290
0
  9
$LENSLENGTH
 40
50.0
  9
$CAMERAHEIGHT
 40
0.0
  9
$STEPSPERSEC
 40
24.0
  9
$STEPSIZE
 40
100.0
  9
$3DDWFPREC
 40
2.0
  9
$PSOLWIDTH
 40
0.005
  9
$PSOLHEIGHT
 40
0.08
  9
$LOFTANG1
 40
1.570796326795
  9
$LOFTANG2
 40
1.570796326795
  9
$LOFTMAG1
 40
0.0
  9
$LOFTMAG2
 40
0.0
  9
$LOFTPARAM
 70
7
  9
$LOFTNORMALS
280
1
  9
$LATITUDE
 40
37.795
  9
$LONGITUDE
 40
-122.394
  9
$NORTHDIRECTION
 40
0.0
  9
$TIMEZONE
 70
-8000
  9
$LIGHTGLYPHDISPLAY
280
1
  9
$TILEMODELIGHTSYNCH
280
1
  9
$CMATERIAL
347
20
  9
$SOLIDHIST
280
0
  9
$SHOWHIST
280
1
  9
$DWFFRAME
280
2
  9
$DGNFRAME
280
2
  9
$REALWORLDSCALE
290
1
  9
$INTERFERECOLOR
 62
256
  9
$CSHADOW
280
0
  9
$SHADOWPLANELOCATION
 40
0.0
  0
ENDSEC
  0
SECTION
  2
CLASSES
  0
CLASS
  1
ACDBDICTIONARYWDFLT
  2
AcDbDictionaryWithDefault
  3
ObjectDBX Classes
 90
0
 91
0
280
0
281
0
  0
CLASS
  1
SUN
  2
AcDbSun
  3
SCENEOE
 90
1153
 91
0
280
0
281
0
  0
CLASS
  1
VISUALSTYLE
  2
AcDbVisualStyle
  3
ObjectDBX Classes
 90
4095
 91
0
280
0
281
0
  0
CLASS
  1
MATERIAL
  2
AcDbMaterial
  3
ObjectDBX Classes
 90
1153
 91
0
280
0
281
0
  0
CLASS
  1
SCALE
  2
AcDbScale
  3
ObjectDBX Classes
 90
1153
 91
0
280
0
281
0
  0
CLASS
  1
TABLESTYLE
  2
AcDbTableStyle
  3
ObjectDBX Classes
 90
4095
 91
0
280
0
281
0
  0
CLASS
  1
MLEADERSTYLE
  2
AcDbMLeaderStyle
  3
ACDB_MLEADERSTYLE_CLASS
 90
4095
 91
0
280
0
281
0
  0
CLASS
  1
DICTIONARYVAR
  2
AcDbDictionaryVar
  3
ObjectDBX Classes
 90
0
 91
0
280
0
281
0
  0
CLASS
  1
CELLSTYLEMAP
  2
AcDbCellStyleMap
  3
ObjectDBX Classes
 90
1152
 91
0
280
0
281
0
  0
CLASS
  1
MENTALRAYRENDERSETTINGS
  2
AcDbMentalRayRenderSettings
  3
SCENEOE
 90
1024
 91
0
280
0
281
0
  0
CLASS
  1
ACDBDETAILVIEWSTYLE
  2
AcDbDetailViewStyle
  3
ObjectDBX Classes
 90
1025
 91
0
280
0
281
0
  0
CLASS
  1
ACDBSECTIONVIEWSTYLE
  2
AcDbSectionViewStyle
  3
ObjectDBX Classes
 90
1025
 91
0
280
0
281
0
  0
CLASS
  1
RASTERVARIABLES
  2
AcDbRasterVariables
  3
ISM
 90
0
 91
0
280
0
281
0
  0
CLASS
  1
ACDBPLACEHOLDER
  2
AcDbPlaceHolder
  3
ObjectDBX Classes
 90
0
 91
0
280
0
281
0
  0
CLASS
  1
LAYOUT
  2
AcDbLayout
  3
ObjectDBX Classes
 90
0
 91
0
280
0
281
0
  0
ENDSEC
  0
SECTION
  2
TABLES
  0
TABLE
  2
VPORT
  5
8
330
0
100
AcDbSymbolTable
 70
1
  0
VPORT
  5
23
330
8
100
AcDbSymbolTableRecord
100
AcDbViewportTableRecord
  2
*Active
 70
0
 10
0.0
 20
0.0
 11
1.0
 21
1.0
 12
0.0
 22
0.0
 13
0.0
 23
0.0
 14
0.5
 24
0.5
 15
0.5
 25
0.5
 16
0.0
 26
0.0
 36
1.0
 17
0.0
 27
0.0
 37
0.0
 40
1000.0
 41
1.34
 42
50.0
 43
0.0
 44
0.0
 50
0.0
 51
0.0
 71
0
 72
1000
 73
1
 74
3
 75
0
 76
0
 77
0
 78
0
281
0
 65
0
146
0.0
  0
ENDTAB
  0
TABLE
  2
LTYPE
  5
2
330
0
100
AcDbSymbolTable
 70
21
  0
LTYPE
  5
24
330
2
100
AcDbSymbolTableRecord
100
AcDbLinetypeTableRecord
  2
ByBlock
 70
0
  3

 72
65
 73
0
 40
0.0
  0
LTYPE
  5
25
330
2
100
AcDbSymbolTableRecord
100
AcDbLinetypeTableRecord
  2
ByLayer
 70
0
  3

 72
65
 73
0
 40
0.0
  0
LTYPE
  5
26
330
2
100
AcDbSymbolTableRecord
100
AcDbLinetypeTableRecord
  2
Continuous
 70
0
  3

 72
65
 73
0
 40
0.0
  0
LTYPE
  5
2F
330
2
100
AcDbSymbolTableRecord
100
AcDbLinetypeTableRecord
  2
CENTER
 70
0
  3
Center ____ _ ____ _ ____ _ ____ _ ____ _ ____
 72
65
 73
4
 40
5.08
 49
3.175
 74
0
 49
-0.635
 74
0
 49
0.635
 74
0
 49
-0.635
 74
0
  0
LTYPE
  5
30
330
2
100
AcDbSymbolTableRecord
100
AcDbLinetypeTableRecord
  2
CENTERX2
 70
0
  3
Center (2x) ________  __  ________  __  ________
 72
65
 73
4
 40
8.89
 49
6.35
 74
0
 49
-0.635
 74
0
 49
1.27
 74
0
 49
-0.635
 74
0
  0
LTYPE
  5
31
330
2
100
AcDbSymbolTableRecord
100
AcDbLinetypeTableRecord
  2
CENTER2
 70
0
  3
Center (.5x) ____ _ ____ _ ____ _ ____ _ ____
 72
65
 73
4
 40
2.54
 49
1.587
 74
0
 49
-0.318
 74
0
 49
0.318
 74
0
 49
-0.318
 74
0
  0
LTYPE
  5
32
330
2
100
AcDbSymbolTableRecord
100
AcDbLinetypeTableRecord
  2
DASHED
 70
0
  3
Dashed __ __ __ __ __ __ __ __ __ __ __ __ __ _
 72
65
 73
2
 40
1.524
 49
1.27
 74
0
 49
-0.254
 74
0
  0
LTYPE
  5
33
330
2
100
AcDbSymbolTableRecord
100
AcDbLinetypeTableRecord
  2
DASHEDX2
 70
0
  3
Dashed (2x) ____  ____  ____  ____  ____  ____
 72
65
 73
2
 40
3.048
 49
2.54
 74
0
 49
-0.508
 74
0
  0
LTYPE
  5
34
330
2
100
AcDbSymbolTableRecord
100
AcDbLinetypeTableRecord
  2
DASHED2
 70
0
  3
Dashed (.5x) _ _ _ _ _ _ _ _ _ _ _ _ _ _
 72
65
 73
2
 40
0.762
 49
0.635
 74
0
 49
-0.127
 74
0
  0
LTYPE
  5
35
330
2
100
AcDbSymbolTableRecord
100
AcDbLinetypeTableRecord
  2
PHANTOM
 70
0
  3
Phantom ______  __  __  ______  __  __  ______
 72
65
 73
6
 40
6.35
 49
3.175
 74
0
 49
-0.635
 74
0
 49
0.635
 74
0
 49
-0.635
 74
0
 49
0.635
 74
0
 49
-0.635
 74
0
  0
LTYPE
  5
36
330
2
100
AcDbSymbolTableRecord
100
AcDbLinetypeTableRecord
  2
PHANTOMX2
 70
0
  3
Phantom (2x)____________    ____    ____    ____________
 72
65
 73
6
 40
10.795
 49
6.35
 74
0
 49
-0.635
 74
0
 49
1.27
 74
0
 49
-0.635
 74
0
 49
1.27
 74
0
 49
-0.635
 74
0
  0
LTYPE
  5
37
330
2
100
AcDbSymbolTableRecord
100
AcDbLinetypeTableRecord
  2
PHANTOM2
 70
0
  3
Phantom (.5x) ___ _ _ ___ _ _ ___ _ _ ___ _ _ ___
 72
65
 73
6
 40
3.175
 49
1.587
 74
0
 49
-0.318
 74
0
 49
0.318
 74
0
 49
-0.318
 74
0
 49
0.318
 74
0
 49
-0.318
 74
0
  0
LTYPE
  5
38
330
2
100
AcDbSymbolTableRecord
100
AcDbLinetypeTableRecord
  2
DASHDOT
 70
0
  3
Dash dot __ . __ . __ . __ . __ . __ . __ . __
 72
65
 73
4
 40
3.556
 49
2.54
 74
0
 49
-0.508
 74
0
 49
0.0
 74
0
 49
-0.508
 74
0
  0
LTYPE
  5
39
330
2
100
AcDbSymbolTableRecord
100
AcDbLinetypeTableRecord
  2
DASHDOTX2
 70
0
  3
Dash dot (2x) ____  .  ____  .  ____  .  ____
 72
65
 73
4
 40
6.096
 49
5.08
 74
0
 49
-0.508
 74
0
 49
0.0
 74
0
 49
-0.508
 74
0
  0
LTYPE
  5
3A
330
2
100
AcDbSymbolTableRecord
100
AcDbLinetypeTableRecord
  2
DASHDOT2
 70
0
  3
Dash dot (.5x) _ . _ . _ . _ . _ . _ . _ . _
 72
65
 73
4
 40
1.778
 49
1.27
 74
0
 49
-0.254
 74
0
 49
0.0
 74
0
 49
-0.254
 74
0
  0
LTYPE
  5
3B
330
2
100
AcDbSymbolTableRecord
100
AcDbLinetypeTableRecord
  2
DOT
 70
0
  3
Dot .  .  .  .  .  .  .  .  .  .  .  .  .  .  .  .
 72
65
 73
2
 40
0.508
 49
0.0
 74
0
 49
-0.508
 74
0
  0
LTYPE
  5
3C
330
2
100
AcDbSymbolTableRecord
100
AcDbLinetypeTableRecord
  2
DOTX2
 70
0
  3
Dot (2x) .    .    .    .    .    .    .    . 
 72
65
 73
2
 40
1.016
 49
0.0
 74
0
 49
-1.016
 74
0
  0
LTYPE
  5
3D
330
2
100
AcDbSymbolTableRecord
100
AcDbLinetypeTableRecord
  2
DOT2
 70
0
  3
Dot (.5) . . . . . . . . . . . . . . . . . . . 
 72
65
 73
2
 40
0.254
 49
0.0
 74
0
 49
-0.254
 74
0
  0
LTYPE
  5
3E
330
2
100
AcDbSymbolTableRecord
100
AcDbLinetypeTableRecord
  2
DIVIDE
 70
0
  3
Divide __ . . __ . . __ . . __ . . __ . . __
 72
65
 73
6
 40
4.064
 49
2.54
 74
0
 49
-0.508
 74
0
 49
0.0
 74
0
 49
-0.508
 74
0
 49
0.0
 74
0
 49
-0.508
 74
0
  0
LTYPE
  5
3F
330
2
100
AcDbSymbolTableRecord
100
AcDbLinetypeTableRecord
  2
DIVIDEX2
 70
0
  3
Divide (2x) ____  . .  ____  . .  ____  . .  ____
 72
65
 73
6
 40
6.604
 49
5.08
 74
0
 49
-0.508
 74
0
 49
0.0
 74
0
 49
-0.508
 74
0
 49
0.0
 74
0
 49
-0.508
 74
0
  0
LTYPE
  5
40
330
2
100
AcDbSymbolTableRecord
100
AcDbLinetypeTableRecord
  2
DIVIDE2
 70
0
  3
Divide(.5x) _ . _ . _ . _ . _ . _ . _ . _
 72
65
 73
6
 40
2.032
 49
1.27
 74
0
 49
-0.254
 74
0
 49
0.0
 74
0
 49
-0.254
 74
0
 49
0.0
 74
0
 49
-0.254
 74
0
  0
ENDTAB
  0
TABLE
  2
LAYER
  5
1
330
0
100
AcDbSymbolTable
 70
41
  0
LAYER
  5
27
330
1
100
AcDbSymbolTableRecord
100
AcDbLayerTableRecord
  2
0
 70
0
 62
7
  6
Continuous
370
-3
390
13
347
21
  0
LAYER
  5
28
330
1
100
AcDbSymbolTableRecord
100
AcDbLayerTableRecord
  2
Defpoints
 70
0
 62
7
  6
Continuous
290
0
370
-3
390
13
347
21
  0
LAYER
  5
8B
330
1
100
AcDbSymbolTableRecord
100
AcDbLayerTableRecord
  2
G-FRAME
 70
0
 62
7
  6
Continuous
370
70
390
13
347
21
1001
AcAecLayerStandard
1000

1000
図枠
  0
LAYER
  5
8D
330
1
100
AcDbSymbolTableRecord
100
AcDbLayerTableRecord
  2
G-TITLE
 70
0
 62
7
  6
Continuous
370
25
390
13
347
21
1001
AcAecLayerStandard
1000

1000
表題欄
  0
LAYER
  5
8E
330
1
100
AcDbSymbolTableRecord
100
AcDbLayerTableRecord
  2
G-TABLE
 70
0
 62
7
  6
Continuous
370
18
390
13
347
21
1001
AcAecLayerStandard
1000

1000
表
  0
LAYER
  5
8F
330
1
100
AcDbSymbolTableRecord
100
AcDbLayerTableRecord
  2
A-GRID
 70
0
 62
1
  6
CENTER
370
13
390
13
347
21
1001
AcAecLayerStandard
1000

1000
通り芯（一点鎖線・細線）
  0
LAYER
  5
90
330
1
100
AcDbSymbolTableRecord
100
AcDbLayerTableRecord
  2
A-GRID-SYMB
 70
0
 62
7
  6
Continuous
370
18
390
13
347
21
1001
AcAecLayerStandard
1000

1000
通り芯符号
  0
LAYER
  5
91
330
1
100
AcDbSymbolTableRecord
100
AcDbLayerTableRecord
  2
A-CUT
 70
0
 62
7
  6
Continuous
370
50
390
13
347
21
1001
AcAecLayerStandard
1000

1000
切断面 RC（太線）
  0
LAYER
  5
92
330
1
100
AcDbSymbolTableRecord
100
AcDbLayerTableRecord
  2
A-CUT-HATCH
 70
0
 62
8
  6
Continuous
370
9
390
13
347
21
1001
AcAecLayerStandard
1000

1000
切断面ハッチング
  0
LAYER
  5
93
330
1
100
AcDbSymbolTableRecord
100
AcDbLayerTableRecord
  2
A-CUT-LGS
 70
0
 62
7
  6
Continuous
370
35
390
13
347
21
1001
AcAecLayerStandard
1000

1000
切断面 軽量間仕切（中線）
  0
LAYER
  5
94
330
1
100
AcDbSymbolTableRecord
100
AcDbLayerTableRecord
  2
A-CUT-INS
 70
0
 62
9
  6
Continuous
370
9
390
13
347
21
1001
AcAecLayerStandard
1000

1000
切断面 断熱材ハッチング
  0
LAYER
  5
95
330
1
100
AcDbSymbolTableRecord
100
AcDbLayerTableRecord
  2
A-FENCE
 70
0
 62
7
  6
Continuous
370
35
390
13
347
21
1001
AcAecLayerStandard
1000

1000
RC塀
  0
LAYER
  5
96
330
1
100
AcDbSymbolTableRecord
100
AcDbLayerTableRecord
  2
A-PAVE
 70
0
 62
3
  6
Continuous
370
13
390
13
347
21
1001
AcAecLayerStandard
1000

1000
舗装（透水性 Dotcon+）
  0
LAYER
  5
97
330
1
100
AcDbSymbolTableRecord
100
AcDbLayerTableRecord
  2
A-DRAIN
 70
0
 62
5
  6
DASHED
370
25
390
13
347
21
1001
AcAecLayerStandard
1000

1000
雨水排水・浸透施設
  0
LAYER
  5
98
330
1
100
AcDbSymbolTableRecord
100
AcDbLayerTableRecord
  2
A-NEIGH
 70
0
 62
8
  6
Continuous
370
13
390
13
347
21
1001
AcAecLayerStandard
1000

1000
隣接建物（基盤地図情報）
  0
LAYER
  5
99
330
1
100
AcDbSymbolTableRecord
100
AcDbLayerTableRecord
  2
A-WATER
 70
0
 62
5
  6
Continuous
370
18
390
13
347
21
1001
AcAecLayerStandard
1000

1000
水路
  0
LAYER
  5
9A
330
1
100
AcDbSymbolTableRecord
100
AcDbLayerTableRecord
  2
A-TERRAIN
 70
0
 62
30
  6
Continuous
370
25
390
13
347
21
1001
AcAecLayerStandard
1000

1000
地形断面（DEM）
  0
LAYER
  5
9B
330
1
100
AcDbSymbolTableRecord
100
AcDbLayerTableRecord
  2
A-FLOOD
 70
0
 62
5
  6
DASHDOT
370
25
390
13
347
21
1001
AcAecLayerStandard
1000

1000
想定浸水深
  0
LAYER
  5
9C
330
1
100
AcDbSymbolTableRecord
100
AcDbLayerTableRecord
  2
A-VIS
 70
0
 62
7
  6
Continuous
370
18
390
13
347
21
1001
AcAecLayerStandard
1000

1000
見え掛り（細線）
  0
LAYER
  5
9D
330
1
100
AcDbSymbolTableRecord
100
AcDbLayerTableRecord
  2
A-HIDDEN
 70
0
 62
8
  6
HIDDEN
370
13
390
13
347
21
1001
AcAecLayerStandard
1000

1000
隠れ線（破線）
  0
LAYER
  5
9E
330
1
100
AcDbSymbolTableRecord
100
AcDbLayerTableRecord
  2
A-GLAZ
 70
0
 62
5
  6
Continuous
370
18
390
13
347
21
1001
AcAecLayerStandard
1000

1000
建具・ガラス
  0
LAYER
  5
9F
330
1
100
AcDbSymbolTableRecord
100
AcDbLayerTableRecord
  2
A-DOOR
 70
0
 62
5
  6
Continuous
370
18
390
13
347
21
1001
AcAecLayerStandard
1000

1000
扉・開き勝手
  0
LAYER
  5
A0
330
1
100
AcDbSymbolTableRecord
100
AcDbLayerTableRecord
  2
A-STRS
 70
0
 62
7
  6
Continuous
370
18
390
13
347
21
1001
AcAecLayerStandard
1000

1000
階段
  0
LAYER
  5
A1
330
1
100
AcDbSymbolTableRecord
100
AcDbLayerTableRecord
  2
A-ROOM
 70
0
 62
7
  6
Continuous
370
18
390
13
347
21
1001
AcAecLayerStandard
1000

1000
室名・面積
  0
LAYER
  5
A2
330
1
100
AcDbSymbolTableRecord
100
AcDbLayerTableRecord
  2
A-DIMS
 70
0
 62
7
  6
Continuous
370
13
390
13
347
21
1001
AcAecLayerStandard
1000

1000
寸法
  0
LAYER
  5
A3
330
1
100
AcDbSymbolTableRecord
100
AcDbLayerTableRecord
  2
A-TEXT
 70
0
 62
7
  6
Continuous
370
18
390
13
347
21
1001
AcAecLayerStandard
1000

1000
注記
  0
LAYER
  5
A4
330
1
100
AcDbSymbolTableRecord
100
AcDbLayerTableRecord
  2
A-SYMB
 70
0
 62
7
  6
Continuous
370
18
390
13
347
21
1001
AcAecLayerStandard
1000

1000
記号（方位・切断・レベル）
  0
LAYER
  5
A5
330
1
100
AcDbSymbolTableRecord
100
AcDbLayerTableRecord
  2
A-SITE
 70
0
 62
3
  6
PHANTOM
370
25
390
13
347
21
1001
AcAecLayerStandard
1000

1000
敷地境界線（二点鎖線）
  0
LAYER
  5
A6
330
1
100
AcDbSymbolTableRecord
100
AcDbLayerTableRecord
  2
A-ROAD
 70
0
 62
8
  6
Continuous
370
18
390
13
347
21
1001
AcAecLayerStandard
1000

1000
道路
  0
LAYER
  5
A7
330
1
100
AcDbSymbolTableRecord
100
AcDbLayerTableRecord
  2
A-GROUND
 70
0
 62
7
  6
Continuous
370
50
390
13
347
21
1001
AcAecLayerStandard
1000

1000
地盤面 GL
  0
LAYER
  5
A8
330
1
100
AcDbSymbolTableRecord
100
AcDbLayerTableRecord
  2
A-LEGAL
 70
0
 62
1
  6
DASHED
370
25
390
13
347
21
1001
AcAecLayerStandard
1000

1000
法規制ライン（斜線・延焼ライン）
  0
LAYER
  5
A9
330
1
100
AcDbSymbolTableRecord
100
AcDbLayerTableRecord
  2
A-LEGAL-TEXT
 70
0
 62
1
  6
Continuous
370
18
390
13
347
21
1001
AcAecLayerStandard
1000

1000
法規注記
  0
LAYER
  5
AA
330
1
100
AcDbSymbolTableRecord
100
AcDbLayerTableRecord
  2
A-FIRE
 70
0
 62
6
  6
DASHDOT
370
25
390
13
347
21
1001
AcAecLayerStandard
1000

1000
延焼のおそれのある部分
  0
LAYER
  5
AB
330
1
100
AcDbSymbolTableRecord
100
AcDbLayerTableRecord
  2
A-ALT
 70
0
 62
1
  6
Continuous
370
35
390
13
347
21
1001
AcAecLayerStandard
1000

1000
代替進入口
  0
LAYER
  5
AC
330
1
100
AcDbSymbolTableRecord
100
AcDbLayerTableRecord
  2
S-COLS
 70
0
 62
7
  6
Continuous
370
50
390
13
347
21
1001
AcAecLayerStandard
1000

1000
構造 柱
  0
LAYER
  5
AD
330
1
100
AcDbSymbolTableRecord
100
AcDbLayerTableRecord
  2
S-BEAM
 70
0
 62
7
  6
HIDDEN
370
25
390
13
347
21
1001
AcAecLayerStandard
1000

1000
構造 梁（伏図・隠れ）
  0
LAYER
  5
AE
330
1
100
AcDbSymbolTableRecord
100
AcDbLayerTableRecord
  2
S-BEAM-V
 70
0
 62
7
  6
Continuous
370
35
390
13
347
21
1001
AcAecLayerStandard
1000

1000
構造 梁（見え）
  0
LAYER
  5
AF
330
1
100
AcDbSymbolTableRecord
100
AcDbLayerTableRecord
  2
S-FNDN
 70
0
 62
7
  6
HIDDEN
370
25
390
13
347
21
1001
AcAecLayerStandard
1000

1000
構造 基礎
  0
LAYER
  5
B0
330
1
100
AcDbSymbolTableRecord
100
AcDbLayerTableRecord
  2
S-SLAB
 70
0
 62
7
  6
Continuous
370
18
390
13
347
21
1001
AcAecLayerStandard
1000

1000
構造 スラブ
  0
LAYER
  5
B1
330
1
100
AcDbSymbolTableRecord
100
AcDbLayerTableRecord
  2
S-REBAR
 70
0
 62
1
  6
Continuous
370
35
390
13
347
21
1001
AcAecLayerStandard
1000

1000
鉄筋
  0
LAYER
  5
B2
330
1
100
AcDbSymbolTableRecord
100
AcDbLayerTableRecord
  2
S-TEXT
 70
0
 62
7
  6
Continuous
370
18
390
13
347
21
1001
AcAecLayerStandard
1000

1000
構造 注記
  0
ENDTAB
  0
TABLE
  2
STYLE
  5
5
330
0
100
AcDbSymbolTable
 70
27
  0
STYLE
  5
29
330
5
100
AcDbSymbolTableRecord
100
AcDbTextStyleTableRecord
  2
Standard
 70
0
 40
0.0
 41
1.0
 50
0.0
 71
0
 42
2.5
  3
ipag.ttf
  4

  0
STYLE
  5
41
330
5
100
AcDbSymbolTableRecord
100
AcDbTextStyleTableRecord
  2
OpenSans-Light
 70
0
 40
0.0
 41
1.0
 50
0.0
 71
0
 42
2.5
  3
OpenSans-Light.ttf
  4

  0
STYLE
  5
42
330
5
100
AcDbSymbolTableRecord
100
AcDbTextStyleTableRecord
  2
OpenSans-Light-Italic
 70
0
 40
0.0
 41
1.0
 50
0.0
 71
0
 42
2.5
  3
OpenSans-LightItalic.ttf
  4

  0
STYLE
  5
43
330
5
100
AcDbSymbolTableRecord
100
AcDbTextStyleTableRecord
  2
OpenSans
 70
0
 40
0.0
 41
1.0
 50
0.0
 71
0
 42
2.5
  3
OpenSans-Regular.ttf
  4

  0
STYLE
  5
44
330
5
100
AcDbSymbolTableRecord
100
AcDbTextStyleTableRecord
  2
OpenSans-Italic
 70
0
 40
0.0
 41
1.0
 50
0.0
 71
0
 42
2.5
  3
OpenSans-Italic.ttf
  4

  0
STYLE
  5
45
330
5
100
AcDbSymbolTableRecord
100
AcDbTextStyleTableRecord
  2
OpenSans-SemiBold
 70
0
 40
0.0
 41
1.0
 50
0.0
 71
0
 42
2.5
  3
OpenSans-SemiBold.ttf
  4

  0
STYLE
  5
46
330
5
100
AcDbSymbolTableRecord
100
AcDbTextStyleTableRecord
  2
OpenSans-SemiBoldItalic
 70
0
 40
0.0
 41
1.0
 50
0.0
 71
0
 42
2.5
  3
OpenSans-SemiBoldItalic.ttf
  4

  0
STYLE
  5
47
330
5
100
AcDbSymbolTableRecord
100
AcDbTextStyleTableRecord
  2
OpenSans-Bold
 70
0
 40
0.0
 41
1.0
 50
0.0
 71
0
 42
2.5
  3
OpenSans-Bold.ttf
  4

  0
STYLE
  5
48
330
5
100
AcDbSymbolTableRecord
100
AcDbTextStyleTableRecord
  2
OpenSans-BoldItalic
 70
0
 40
0.0
 41
1.0
 50
0.0
 71
0
 42
2.5
  3
OpenSans-BoldItalic.ttf
  4

  0
STYLE
  5
49
330
5
100
AcDbSymbolTableRecord
100
AcDbTextStyleTableRecord
  2
OpenSans-ExtraBold
 70
0
 40
0.0
 41
1.0
 50
0.0
 71
0
 42
2.5
  3
OpenSans-ExtraBold.ttf
  4

  0
STYLE
  5
4A
330
5
100
AcDbSymbolTableRecord
100
AcDbTextStyleTableRecord
  2
OpenSans-ExtraBoldItalic
 70
0
 40
0.0
 41
1.0
 50
0.0
 71
0
 42
2.5
  3
OpenSans-ExtraBoldItalic.ttf
  4

  0
STYLE
  5
4B
330
5
100
AcDbSymbolTableRecord
100
AcDbTextStyleTableRecord
  2
OpenSansCondensed-Bold
 70
0
 40
0.0
 41
1.0
 50
0.0
 71
0
 42
2.5
  3
OpenSansCondensed-Bold.ttf
  4

  0
STYLE
  5
4C
330
5
100
AcDbSymbolTableRecord
100
AcDbTextStyleTableRecord
  2
OpenSansCondensed-Light
 70
0
 40
0.0
 41
1.0
 50
0.0
 71
0
 42
2.5
  3
OpenSansCondensed-Light.ttf
  4

  0
STYLE
  5
4D
330
5
100
AcDbSymbolTableRecord
100
AcDbTextStyleTableRecord
  2
OpenSansCondensed-Italic
 70
0
 40
0.0
 41
1.0
 50
0.0
 71
0
 42
2.5
  3
OpenSansCondensed-LightItalic.ttf
  4

  0
STYLE
  5
4E
330
5
100
AcDbSymbolTableRecord
100
AcDbTextStyleTableRecord
  2
LiberationSans
 70
0
 40
0.0
 41
1.0
 50
0.0
 71
0
 42
2.5
  3
LiberationSans-Regular.ttf
  4

  0
STYLE
  5
4F
330
5
100
AcDbSymbolTableRecord
100
AcDbTextStyleTableRecord
  2
LiberationSans-Bold
 70
0
 40
0.0
 41
1.0
 50
0.0
 71
0
 42
2.5
  3
LiberationSans-Bold.ttf
  4

  0
STYLE
  5
50
330
5
100
AcDbSymbolTableRecord
100
AcDbTextStyleTableRecord
  2
LiberationSans-BoldItalic
 70
0
 40
0.0
 41
1.0
 50
0.0
 71
0
 42
2.5
  3
LiberationSans-BoldItalic.ttf
  4

  0
STYLE
  5
51
330
5
100
AcDbSymbolTableRecord
100
AcDbTextStyleTableRecord
  2
LiberationSans-Italic
 70
0
 40
0.0
 41
1.0
 50
0.0
 71
0
 42
2.5
  3
LiberationSans-Italic.ttf
  4

  0
STYLE
  5
52
330
5
100
AcDbSymbolTableRecord
100
AcDbTextStyleTableRecord
  2
LiberationSerif
 70
0
 40
0.0
 41
1.0
 50
0.0
 71
0
 42
2.5
  3
LiberationSerif-Regular.ttf
  4

  0
STYLE
  5
53
330
5
100
AcDbSymbolTableRecord
100
AcDbTextStyleTableRecord
  2
LiberationSerif-Bold
 70
0
 40
0.0
 41
1.0
 50
0.0
 71
0
 42
2.5
  3
LiberationSerif-Bold.ttf
  4

  0
STYLE
  5
54
330
5
100
AcDbSymbolTableRecord
100
AcDbTextStyleTableRecord
  2
LiberationSerif-BoldItalic
 70
0
 40
0.0
 41
1.0
 50
0.0
 71
0
 42
2.5
  3
LiberationSerif-BoldItalic.ttf
  4

  0
STYLE
  5
55
330
5
100
AcDbSymbolTableRecord
100
AcDbTextStyleTableRecord
  2
LiberationSerif-Italic
 70
0
 40
0.0
 41
1.0
 50
0.0
 71
0
 42
2.5
  3
LiberationSerif-Italic.ttf
  4

  0
STYLE
  5
56
330
5
100
AcDbSymbolTableRecord
100
AcDbTextStyleTableRecord
  2
LiberationMono
 70
0
 40
0.0
 41
1.0
 50
0.0
 71
0
 42
2.5
  3
LiberationMono-Regular.ttf
  4

  0
STYLE
  5
57
330
5
100
AcDbSymbolTableRecord
100
AcDbTextStyleTableRecord
  2
LiberationMono-Bold
 70
0
 40
0.0
 41
1.0
 50
0.0
 71
0
 42
2.5
  3
LiberationMono-Bold.ttf
  4

  0
STYLE
  5
58
330
5
100
AcDbSymbolTableRecord
100
AcDbTextStyleTableRecord
  2
LiberationMono-BoldItalic
 70
0
 40
0.0
 41
1.0
 50
0.0
 71
0
 42
2.5
  3
LiberationMono-BoldItalic.ttf
  4

  0
STYLE
  5
59
330
5
100
AcDbSymbolTableRecord
100
AcDbTextStyleTableRecord
  2
LiberationMono-Italic
 70
0
 40
0.0
 41
1.0
 50
0.0
 71
0
 42
2.5
  3
LiberationMono-Italic.ttf
  4

  0
STYLE
  5
8A
330
5
100
AcDbSymbolTableRecord
100
AcDbTextStyleTableRecord
  2
JP
 70
0
 40
0.0
 41
1.0
 50
0.0
 71
0
 42
2.5
  3
ipag.ttf
  4

  0
ENDTAB
  0
TABLE
  2
VIEW
  5
7
330
0
100
AcDbSymbolTable
 70
0
  0
ENDTAB
  0
TABLE
  2
UCS
  5
6
330
0
100
AcDbSymbolTable
 70
0
  0
ENDTAB
  0
TABLE
  2
APPID
  5
3
330
0
100
AcDbSymbolTable
 70
4
  0
APPID
  5
2A
330
3
100
AcDbSymbolTableRecord
100
AcDbRegAppTableRecord
  2
ACAD
 70
0
  0
APPID
  5
8C
330
3
100
AcDbSymbolTableRecord
100
AcDbRegAppTableRecord
  2
AcAecLayerStandard
 70
0
  0
APPID
  5
169
330
3
100
AcDbSymbolTableRecord
100
AcDbRegAppTableRecord
  2
HATCHBACKGROUNDCOLOR
 70
0
  0
APPID
  5
16A
330
3
100
AcDbSymbolTableRecord
100
AcDbRegAppTableRecord
  2
EZDXF
 70
0
  0
ENDTAB
  0
TABLE
  2
DIMSTYLE
  5
4
330
0
100
AcDbSymbolTable
 70
13
100
AcDbDimStyleTable
  0
DIMSTYLE
105
2B
330
4
100
AcDbSymbolTableRecord
100
AcDbDimStyleTableRecord
  2
Standard
 70
0
 40
1.0
 41
2.5
 42
0.625
 43
3.75
 44
1.25
 45
0.0
 46
0.0
 47
0.0
 48
0.0
 49
2.5
140
2.5
141
2.5
142
0.0
143
0.03937007874
144
1.0
145
0.0
146
1.0
147
0.625
148
0.0
 69
0
 70
0
 71
0
 72
0
 73
0
 74
0
 75
0
 76
0
 77
1
 78
8
 79
3
170
0
171
3
172
1
173
0
174
0
175
0
176
0
177
0
178
0
179
2
271
2
272
2
273
2
274
3
275
0
276
0
277
2
278
44
279
0
280
0
281
0
282
0
283
0
284
8
285
0
286
0
288
0
289
3
290
0
371
-2
372
-2
  0
DIMSTYLE
105
73
330
4
100
AcDbSymbolTableRecord
100
AcDbDimStyleTableRecord
  2
EZDXF
 70
0
 40
1.0
 41
0.175
 42
0.125
 43
3.75
 44
0.375
 45
0.0
 46
0.0
 47
0.0
 48
0.0
 49
2.5
140
0.25
141
2.5
142
0.0
143
0.03937007874
144
100.0
145
0.0
146
0.5
147
0.1
148
0.0
 69
0
 70
0
 71
0
 72
0
 73
0
 74
0
 75
0
 76
0
 77
1
 78
12
 79
3
170
0
171
3
172
1
173
0
174
0
175
0
176
0
177
0
178
0
179
2
271
2
272
2
273
2
274
3
275
0
276
0
277
2
278
46
279
2
280
0
281
0
282
0
283
0
284
8
285
0
286
0
288
1
289
3
290
0
340
4C
342
74
371
-2
372
-2
  0
DIMSTYLE
105
7C
330
4
100
AcDbSymbolTableRecord
100
AcDbDimStyleTableRecord
  2
EZ_M_100_H25_CM
 70
0
 40
1.0
 41
0.25
 42
0.125
 43
3.75
 44
0.375
 45
0.0
 46
0.0
 47
0.0
 48
0.0
 49
2.5
140
0.25
141
2.5
142
0.125
143
0.03937007874
144
100.0
145
0.0
146
0.5
147
0.1
148
0.0
 69
0
 70
0
 71
0
 72
0
 73
0
 74
0
 75
0
 76
0
 77
1
 78
12
 79
3
170
0
171
3
172
1
173
0
174
0
175
0
176
0
177
0
178
0
179
2
271
2
272
2
273
2
274
3
275
0
276
0
277
2
278
46
279
2
280
0
281
0
282
0
283
0
284
8
285
0
286
0
288
1
289
3
290
0
340
4C
371
-2
372
-2
  0
DIMSTYLE
105
7D
330
4
100
AcDbSymbolTableRecord
100
AcDbDimStyleTableRecord
  2
EZ_M_50_H25_CM
 70
0
 40
1.0
 41
0.125
 42
0.0625
 43
3.75
 44
0.1875
 45
0.0
 46
0.0
 47
0.0
 48
0.0
 49
2.5
140
0.125
141
2.5
142
0.0625
143
0.03937007874
144
100.0
145
0.0
146
0.5
147
0.05
148
0.0
 69
0
 70
0
 71
0
 72
0
 73
0
 74
0
 75
0
 76
0
 77
1
 78
12
 79
3
170
0
171
3
172
1
173
0
174
0
175
0
176
0
177
0
178
0
179
2
271
2
272
2
273
2
274
3
275
0
276
0
277
2
278
46
279
2
280
0
281
0
282
0
283
0
284
8
285
0
286
0
288
1
289
3
290
0
340
4C
371
-2
372
-2
  0
DIMSTYLE
105
7E
330
4
100
AcDbSymbolTableRecord
100
AcDbDimStyleTableRecord
  2
EZ_M_25_H25_CM
 70
0
 40
1.0
 41
0.0625
 42
0.03125
 43
3.75
 44
0.09375
 45
0.0
 46
0.0
 47
0.0
 48
0.0
 49
2.5
140
0.0625
141
2.5
142
0.03125
143
0.03937007874
144
100.0
145
0.0
146
0.5
147
0.025
148
0.0
 69
0
 70
0
 71
0
 72
0
 73
0
 74
0
 75
0
 76
0
 77
1
 78
12
 79
3
170
0
171
3
172
1
173
0
174
0
175
0
176
0
177
0
178
0
179
2
271
2
272
2
273
2
274
3
275
0
276
0
277
2
278
46
279
2
280
0
281
0
282
0
283
0
284
8
285
0
286
0
288
1
289
3
290
0
340
4C
371
-2
372
-2
  0
DIMSTYLE
105
7F
330
4
100
AcDbSymbolTableRecord
100
AcDbDimStyleTableRecord
  2
EZ_M_20_H25_CM
 70
0
 40
1.0
 41
0.05
 42
0.025
 43
3.75
 44
0.07500000000000001
 45
0.0
 46
0.0
 47
0.0
 48
0.0
 49
2.5
140
0.05
141
2.5
142
0.025
143
0.03937007874
144
100.0
145
0.0
146
0.5
147
0.020000000000000004
148
0.0
 69
0
 70
0
 71
0
 72
0
 73
0
 74
0
 75
0
 76
0
 77
1
 78
12
 79
3
170
0
171
3
172
1
173
0
174
0
175
0
176
0
177
0
178
0
179
2
271
2
272
2
273
2
274
3
275
0
276
0
277
2
278
46
279
2
280
0
281
0
282
0
283
0
284
8
285
0
286
0
288
1
289
3
290
0
340
4C
371
-2
372
-2
  0
DIMSTYLE
105
80
330
4
100
AcDbSymbolTableRecord
100
AcDbDimStyleTableRecord
  2
EZ_M_10_H25_CM
 70
0
 40
1.0
 41
0.025
 42
0.0125
 43
3.75
 44
0.037500000000000006
 45
0.0
 46
0.0
 47
0.0
 48
0.0
 49
2.5
140
0.025
141
2.5
142
0.0125
143
0.03937007874
144
100.0
145
0.0
146
0.5
147
0.010000000000000002
148
0.0
 69
0
 70
0
 71
0
 72
0
 73
0
 74
0
 75
0
 76
0
 77
1
 78
12
 79
3
170
0
171
3
172
1
173
0
174
0
175
0
176
0
177
0
178
0
179
2
271
2
272
2
273
2
274
3
275
0
276
0
277
2
278
46
279
2
280
0
281
0
282
0
283
0
284
8
285
0
286
0
288
1
289
3
290
0
340
4C
371
-2
372
-2
  0
DIMSTYLE
105
81
330
4
100
AcDbSymbolTableRecord
100
AcDbDimStyleTableRecord
  2
EZ_M_5_H25_CM
 70
0
 40
1.0
 41
0.0125
 42
0.00625
 43
3.75
 44
0.018750000000000003
 45
0.0
 46
0.0
 47
0.0
 48
0.0
 49
2.5
140
0.0125
141
2.5
142
0.00625
143
0.03937007874
144
100.0
145
0.0
146
0.5
147
0.005000000000000001
148
0.0
 69
0
 70
0
 71
0
 72
0
 73
0
 74
0
 75
0
 76
0
 77
1
 78
12
 79
3
170
0
171
3
172
1
173
0
174
0
175
0
176
0
177
0
178
0
179
2
271
2
272
2
273
2
274
3
275
0
276
0
277
2
278
46
279
2
280
0
281
0
282
0
283
0
284
8
285
0
286
0
288
1
289
3
290
0
340
4C
371
-2
372
-2
  0
DIMSTYLE
105
82
330
4
100
AcDbSymbolTableRecord
100
AcDbDimStyleTableRecord
  2
EZ_M_1_H25_CM
 70
0
 40
1.0
 41
0.0025
 42
0.00125
 43
3.75
 44
0.00375
 45
0.0
 46
0.0
 47
0.0
 48
0.0
 49
2.5
140
0.0025
141
2.5
142
0.00125
143
0.03937007874
144
100.0
145
0.0
146
0.5
147
0.001
148
0.0
 69
0
 70
0
 71
0
 72
0
 73
0
 74
0
 75
0
 76
0
 77
1
 78
12
 79
3
170
0
171
3
172
1
173
0
174
0
175
0
176
0
177
0
178
0
179
2
271
2
272
2
273
2
274
3
275
0
276
0
277
2
278
46
279
2
280
0
281
0
282
0
283
0
284
8
285
0
286
0
288
1
289
3
290
0
340
4C
371
-2
372
-2
  0
DIMSTYLE
105
83
330
4
100
AcDbSymbolTableRecord
100
AcDbDimStyleTableRecord
  2
EZ_RADIUS
 70
0
 40
1.0
 41
0.25
 42
0.125
 43
3.75
 44
0.375
 45
0.0
 46
0.0
 47
0.0
 48
0.0
 49
2.5
140
0.25
141
0.0
142
0.0
143
0.03937007874
144
100.0
145
0.0
146
0.5
147
0.1
148
0.0
 69
0
 70
0
 71
0
 72
0
 73
0
 74
0
 75
0
 76
0
 77
1
 78
12
 79
3
170
0
171
3
172
0
173
0
174
0
175
0
176
0
177
0
178
0
179
2
271
2
272
2
273
2
274
3
275
0
276
0
277
2
278
46
279
1
280
0
281
0
282
0
283
0
284
8
285
0
286
0
288
1
289
3
290
0
340
4C
342
84
371
-2
372
-2
  0
DIMSTYLE
105
88
330
4
100
AcDbSymbolTableRecord
100
AcDbDimStyleTableRecord
  2
EZ_RADIUS_INSIDE
 70
0
 40
1.0
 41
0.25
 42
0.125
 43
3.75
 44
0.375
 45
0.0
 46
0.0
 47
0.0
 48
0.0
 49
2.5
140
0.25
141
0.0
142
0.0
143
0.03937007874
144
100.0
145
0.0
146
0.5
147
0.1
148
0.0
 69
0
 70
0
 71
0
 72
0
 73
0
 74
0
 75
0
 76
0
 77
0
 78
12
 79
3
170
0
171
3
172
0
173
0
174
1
175
0
176
0
177
0
178
0
179
2
271
2
272
2
273
2
274
3
275
0
276
0
277
2
278
46
279
0
280
0
281
0
282
0
283
0
284
8
285
0
286
0
288
1
289
0
290
0
340
4C
342
84
371
-2
372
-2
  0
DIMSTYLE
105
89
330
4
100
AcDbSymbolTableRecord
100
AcDbDimStyleTableRecord
  2
EZ_CURVED
 70
0
 40
1.0
 41
0.25
 42
0.125
 43
3.75
 44
0.375
 45
0.0
 46
0.0
 47
0.0
 48
0.0
 49
2.5
140
0.25
141
2.5
142
0.0
143
0.03937007874
144
100.0
145
0.0
146
0.5
147
0.1
148
0.0
 69
0
 70
0
 71
0
 72
0
 73
0
 74
0
 75
0
 76
0
 77
1
 78
12
 79
2
 90
2
170
0
171
3
172
1
173
0
174
0
175
0
176
0
177
0
178
0
179
2
271
2
272
2
273
2
274
3
275
0
276
0
277
2
278
46
279
2
280
0
281
0
282
0
283
0
284
8
285
0
286
0
288
1
289
3
290
0
340
4C
371
-2
372
-2
  0
DIMSTYLE
105
B3
330
4
100
AcDbSymbolTableRecord
100
AcDbDimStyleTableRecord
  2
JIS
 70
0
 40
400.0
 41
1.0
 42
1.0
 43
3.75
 44
1.0
 45
0.0
 46
0.0
 47
0.0
 48
0.0
 49
2.5
140
2.0
141
2.5
142
0.0
143
0.03937007874
144
1.0
145
0.0
146
1.0
147
0.6
148
0.0
 69
0
 70
0
 71
0
 72
0
 73
0
 74
0
 75
0
 76
0
 77
1
 78
8
 79
3
170
0
171
3
172
1
173
0
174
0
175
0
176
7
177
7
178
7
179
2
271
0
272
2
273
2
274
3
275
0
276
0
277
2
278
44
279
0
280
0
281
0
282
0
283
0
284
8
285
0
286
0
288
0
289
3
290
0
340
8A
342
16C
371
13
372
13
  0
ENDTAB
  0
TABLE
  2
BLOCK_RECORD
  5
9
330
0
100
AcDbSymbolTable
 70
6
  0
BLOCK_RECORD
  5
17
330
9
100
AcDbSymbolTableRecord
100
AcDbBlockTableRecord
  2
*Model_Space
340
1A
 70
0
280
1
281
0
  0
BLOCK_RECORD
  5
1B
330
9
100
AcDbSymbolTableRecord
100
AcDbBlockTableRecord
  2
*Paper_Space
340
1E
 70
0
280
1
281
0
  0
BLOCK_RECORD
  5
74
330
9
100
AcDbSymbolTableRecord
100
AcDbBlockTableRecord
  2
_ARCHTICK
340
0
 70
0
280
1
281
0
  0
BLOCK_RECORD
  5
78
330
9
100
AcDbSymbolTableRecord
100
AcDbBlockTableRecord
  2
_CLOSEDFILLED
340
0
 70
0
280
1
281
0
  0
BLOCK_RECORD
  5
84
330
9
100
AcDbSymbolTableRecord
100
AcDbBlockTableRecord
  2
_CLOSEDBLANK
340
0
 70
0
280
1
281
0
  0
BLOCK_RECORD
  5
16C
330
9
100
AcDbSymbolTableRecord
100
AcDbBlockTableRecord
  2
_DOT
340
0
 70
0
280
1
281
0
  0
ENDTAB
  0
ENDSEC
  0
SECTION
  2
BLOCKS
  0
BLOCK
  5
18
330
17
100
AcDbEntity
  8
0
100
AcDbBlockBegin
  2
*Model_Space
 70
0
 10
0.0
 20
0.0
 30
0.0
  3
*Model_Space
  1

  0
ENDBLK
  5
19
330
17
100
AcDbEntity
  8
0
100
AcDbBlockEnd
  0
BLOCK
  5
1C
330
1B
100
AcDbEntity
  8
0
100
AcDbBlockBegin
  2
*Paper_Space
 70
0
 10
0.0
 20
0.0
 30
0.0
  3
*Paper_Space
  1

  0
ENDBLK
  5
1D
330
1B
100
AcDbEntity
  8
0
100
AcDbBlockEnd
  0
BLOCK
  5
75
330
74
100
AcDbEntity
  8
0
100
AcDbBlockBegin
  2
_ARCHTICK
 70
0
 10
0.0
 20
0.0
 30
0.0
  3
_ARCHTICK
  1

  0
LWPOLYLINE
  5
77
330
74
100
AcDbEntity
  8
0
  6
BYBLOCK
 62
0
100
AcDbPolyline
 90
2
 70
0
 43
0.15
 10
-0.5
 20
-0.5
 10
0.5
 20
0.5
  0
ENDBLK
  5
76
330
74
100
AcDbEntity
  8
0
100
AcDbBlockEnd
  0
BLOCK
  5
79
330
78
100
AcDbEntity
  8
0
100
AcDbBlockBegin
  2
_CLOSEDFILLED
 70
0
 10
0.0
 20
0.0
 30
0.0
  3
_CLOSEDFILLED
  1

  0
SOLID
  5
7B
330
78
100
AcDbEntity
  8
0
  6
BYBLOCK
 62
0
100
AcDbTrace
 10
-1.0
 20
0.16439898372402537
 30
0.0
 11
0.0
 21
0.0
 31
0.0
 12
-1.0
 22
-0.16439898372402537
 32
0.0
 13
-1.0
 23
-0.16439898372402537
 33
0.0
  0
ENDBLK
  5
7A
330
78
100
AcDbEntity
  8
0
100
AcDbBlockEnd
  0
BLOCK
  5
85
330
84
100
AcDbEntity
  8
0
100
AcDbBlockBegin
  2
_CLOSEDBLANK
 70
0
 10
0.0
 20
0.0
 30
0.0
  3
_CLOSEDBLANK
  1

  0
LWPOLYLINE
  5
87
330
84
100
AcDbEntity
  8
0
  6
BYBLOCK
 62
0
100
AcDbPolyline
 90
3
 70
1
 10
-1.0
 20
0.16439898372402537
 10
0.0
 20
0.0
 10
-1.0
 20
-0.16439898372402537
  0
ENDBLK
  5
86
330
84
100
AcDbEntity
  8
0
100
AcDbBlockEnd
  0
BLOCK
  5
16D
330
16C
100
AcDbEntity
  8
0
100
AcDbBlockBegin
  2
_DOT
 70
0
 10
0.0
 20
0.0
 30
0.0
  3
_DOT
  1

  0
LINE
  5
16F
330
16C
100
AcDbEntity
  8
0
  6
BYBLOCK
 62
0
100
AcDbLine
 10
-0.5
 20
0.0
 30
0.0
 11
-1.0
 21
0.0
 31
0.0
  0
LWPOLYLINE
  5
170
330
16C
100
AcDbEntity
  8
0
  6
BYBLOCK
 62
0
100
AcDbPolyline
 90
2
 70
1
 43
0.5
 10
-0.25
 20
0.0
 42
1.0
 10
0.25
 20
0.0
 42
1.0
  0
ENDBLK
  5
16E
330
16C
100
AcDbEntity
  8
0
100
AcDbBlockEnd
  0
ENDSEC
  0
SECTION
  2
ENTITIES
  0
LWPOLYLINE
  5
B4
330
17
100
AcDbEntity
  8
G-FRAME
370
0
100
AcDbPolyline
 90
4
 70
1
 10
0.0
 20
0.0
 10
168000.0
 20
0.0
 10
168000.0
 20
118800.0
 10
0.0
 20
118800.0
  0
LWPOLYLINE
  5
B5
330
17
100
AcDbEntity
  8
G-FRAME
100
AcDbPolyline
 90
4
 70
1
 10
4000.0
 20
4000.0
 10
164000.0
 20
4000.0
 10
164000.0
 20
114800.0
 10
4000.0
 20
114800.0
  0
LWPOLYLINE
  5
B6
330
17
100
AcDbEntity
  8
G-TITLE
370
50
100
AcDbPolyline
 90
4
 70
1
 10
88000.0
 20
4000.0
 10
164000.0
 20
4000.0
 10
164000.0
 20
19200.0
 10
88000.0
 20
19200.0
  0
LINE
  5
B7
330
17
100
AcDbEntity
  8
G-TITLE
100
AcDbLine
 10
88000.0
 20
15200.0
 30
0.0
 11
164000.0
 21
15200.0
 31
0.0
  0
LINE
  5
B8
330
17
100
AcDbEntity
  8
G-TITLE
100
AcDbLine
 10
88000.0
 20
10800.0
 30
0.0
 11
164000.0
 21
10800.0
 31
0.0
  0
LINE
  5
B9
330
17
100
AcDbEntity
  8
G-TITLE
100
AcDbLine
 10
88000.0
 20
7600.0
 30
0.0
 11
164000.0
 21
7600.0
 31
0.0
  0
LINE
  5
BA
330
17
100
AcDbEntity
  8
G-TITLE
100
AcDbLine
 10
96800.0
 20
4000.0
 30
0.0
 11
96800.0
 21
19200.0
 31
0.0
  0
TEXT
  5
BB
330
17
100
AcDbEntity
  8
G-TITLE
100
AcDbText
 10
88800.0
 20
16600.0
 30
0.0
 40
880.0000000000001
  1
工事名称
  7
JP
 11
88800.0
 21
16600.0
 31
0.0
100
AcDbText
  0
TEXT
  5
BC
330
17
100
AcDbEntity
  8
G-TITLE
100
AcDbText
 10
97600.0
 20
16400.0
 30
0.0
 40
1360.0
  1
河沿要（仮称）新築計画
  7
JP
 11
97600.0
 21
16400.0
 31
0.0
100
AcDbText
  0
TEXT
  5
BD
330
17
100
AcDbEntity
  8
G-TITLE
100
AcDbText
 10
88800.0
 20
12400.0
 30
0.0
 40
880.0000000000001
  1
図面名称
  7
JP
 11
88800.0
 21
12400.0
 31
0.0
100
AcDbText
  0
TEXT
  5
BE
330
17
100
AcDbEntity
  8
G-TITLE
100
AcDbText
 10
97600.0
 20
12080.0
 30
0.0
 40
1760.0000000000002
  1
外構・雨水排水計画図
  7
JP
 11
97600.0
 21
12080.0
 31
0.0
100
AcDbText
  0
TEXT
  5
BF
330
17
100
AcDbEntity
  8
G-TITLE
100
AcDbText
 10
88800.0
 20
8640.0
 30
0.0
 40
880.0000000000001
  1
縮尺
  7
JP
 11
88800.0
 21
8640.0
 31
0.0
100
AcDbText
  0
LINE
  5
C0
330
17
100
AcDbEntity
  8
G-TITLE
100
AcDbLine
 10
96800.0
 20
7600.0
 30
0.0
 11
96800.0
 21
10800.0
 31
0.0
  0
TEXT
  5
C1
330
17
100
AcDbEntity
  8
G-TITLE
100
AcDbText
 10
97400.0
 20
8640.0
 30
0.0
 40
800.0
  1
A3
  7
JP
 11
97400.0
 21
8640.0
 31
0.0
100
AcDbText
  0
TEXT
  5
C2
330
17
100
AcDbEntity
  8
G-TITLE
100
AcDbText
 10
100800.0
 20
8560.0
 30
0.0
 40
1040.0
  1
1:400
  7
JP
 11
100800.0
 21
8560.0
 31
0.0
100
AcDbText
  0
LINE
  5
C3
330
17
100
AcDbEntity
  8
G-TITLE
100
AcDbLine
 10
112800.0
 20
7600.0
 30
0.0
 11
112800.0
 21
10800.0
 31
0.0
  0
TEXT
  5
C4
330
17
100
AcDbEntity
  8
G-TITLE
100
AcDbText
 10
113400.0
 20
8640.0
 30
0.0
 40
800.0
  1
日付
  7
JP
 11
113400.0
 21
8640.0
 31
0.0
100
AcDbText
  0
TEXT
  5
C5
330
17
100
AcDbEntity
  8
G-TITLE
100
AcDbText
 10
116800.0
 20
8560.0
 30
0.0
 40
1040.0
  1
2026-10-03
  7
JP
 11
116800.0
 21
8560.0
 31
0.0
100
AcDbText
  0
LINE
  5
C6
330
17
100
AcDbEntity
  8
G-TITLE
100
AcDbLine
 10
132800.0
 20
7600.0
 30
0.0
 11
132800.0
 21
10800.0
 31
0.0
  0
TEXT
  5
C7
330
17
100
AcDbEntity
  8
G-TITLE
100
AcDbText
 10
133400.0
 20
8640.0
 30
0.0
 40
800.0
  1
設計
  7
JP
 11
133400.0
 21
8640.0
 31
0.0
100
AcDbText
  0
TEXT
  5
C8
330
17
100
AcDbEntity
  8
G-TITLE
100
AcDbText
 10
136800.0
 20
8560.0
 30
0.0
 40
1040.0
  1
設計検討（仮）
  7
JP
 11
136800.0
 21
8560.0
 31
0.0
100
AcDbText
  0
TEXT
  5
C9
330
17
100
AcDbEntity
  8
G-TITLE
100
AcDbText
 10
88800.0
 20
5360.0
 30
0.0
 40
880.0000000000001
  1
段階
  7
JP
 11
88800.0
 21
5360.0
 31
0.0
100
AcDbText
  0
TEXT
  5
CA
330
17
100
AcDbEntity
  8
G-TITLE
100
AcDbText
 10
97600.0
 20
5360.0
 30
0.0
 40
760.0
  1
基本計画　／　本図は建築基準法令に基づく計画段階の検討図であり、確認申請・構造計算・関係機関協議により確定する
  7
JP
 11
97600.0
 21
5360.0
 31
0.0
100
AcDbText
  0
LINE
  5
CB
330
17
100
AcDbEntity
  8
G-TITLE
100
AcDbLine
 10
150400.0
 20
7600.0
 30
0.0
 11
150400.0
 21
15200.0
 31
0.0
  0
TEXT
  5
CC
330
17
100
AcDbEntity
  8
G-TITLE
100
AcDbText
 10
151000.0
 20
14000.0
 30
0.0
 40
800.0
  1
図番
  7
JP
 11
151000.0
 21
14000.0
 31
0.0
100
AcDbText
  0
TEXT
  5
CD
330
17
100
AcDbEntity
  8
G-TITLE
100
AcDbText
 10
157200.0
 20
11200.0
 30
0.0
 40
2400.0
  1
A-02
  7
JP
 72
1
 11
157200.0
 21
11200.0
 31
0.0
100
AcDbText
 73
1
  0
LWPOLYLINE
  5
CE
330
17
100
AcDbEntity
  8
A-NEIGH
370
9
100
AcDbPolyline
 90
5
 70
1
 10
111950.0
 20
17599.999999999996
 10
111950.0
 20
116800.0
 10
8050.0
 20
116800.0
 10
8050.0
 20
17599.999999999996
 10
111950.0
 20
17599.999999999996
  0
LWPOLYLINE
  5
CF
330
17
100
AcDbEntity
  8
A-NEIGH
100
AcDbPolyline
 90
5
 70
0
 10
37580.0
 20
53720.0
 10
36850.0
 20
51300.0
 10
33700.0
 20
52270.0
 10
34420.0
 20
54690.0
 10
37580.0
 20
53720.0
  0
LWPOLYLINE
  5
D0
330
17
100
AcDbEntity
  8
A-NEIGH
100
AcDbPolyline
 90
5
 70
0
 10
92280.0
 20
110850.0
 10
91550.0
 20
107810.0
 10
87670.0
 20
108660.0
 10
88400.0
 20
111820.0
 10
92280.0
 20
110850.0
  0
LWPOLYLINE
  5
D1
330
17
100
AcDbEntity
  8
A-NEIGH
100
AcDbPolyline
 90
5
 70
0
 10
55890.0
 20
51900.0
 10
54680.0
 20
47900.0
 10
52010.0
 20
48750.0
 10
53220.0
 20
52750.0
 10
55890.0
 20
51900.0
  0
LWPOLYLINE
  5
D2
330
17
100
AcDbEntity
  8
A-NEIGH
100
AcDbPolyline
 90
5
 70
0
 10
58560.0
 20
45470.0
 10
56860.0
 20
36380.0
 10
52370.0
 20
37230.0
 10
53950.0
 20
46320.0
 10
58560.0
 20
45470.0
  0
LWPOLYLINE
  5
D3
330
17
100
AcDbEntity
  8
A-NEIGH
100
AcDbPolyline
 90
7
 70
0
 10
62200.0
 20
42680.0
 10
61830.0
 20
41710.0
 10
63650.0
 20
41110.0
 10
61230.0
 20
32010.000000000004
 10
56500.0
 20
33100.0
 10
59410.0
 20
43530.0
 10
62200.0
 20
42680.0
  0
LWPOLYLINE
  5
D4
330
17
100
AcDbEntity
  8
A-NEIGH
100
AcDbPolyline
 90
5
 70
0
 10
110950.0
 20
81010.0
 10
109980.0
 20
78710.0
 10
105010.0
 20
80650.0
 10
105980.0
 20
82950.0
 10
110950.0
 20
81010.0
  0
LWPOLYLINE
  5
D5
330
17
100
AcDbEntity
  8
A-NEIGH
100
AcDbPolyline
 90
5
 70
0
 10
33820.0
 20
26920.000000000004
 10
32480.0
 20
21220.000000000004
 10
28120.0
 20
22190.000000000004
 10
29450.0
 20
27890.000000000004
 10
33820.0
 20
26920.000000000004
  0
LWPOLYLINE
  5
D6
330
17
100
AcDbEntity
  8
A-NEIGH
100
AcDbPolyline
 90
4
 70
0
 10
14170.0
 20
105390.0
 10
8830.000000000007
 20
87200.0
 10
18900.000000000007
 20
84160.0
 10
8050.0
 20
47903.304721030014
  0
LWPOLYLINE
  5
D7
330
17
100
AcDbEntity
  8
A-NEIGH
100
AcDbPolyline
 90
2
 70
0
 10
8050.0
 20
107202.64122137404
 10
14170.0
 20
105390.0
  0
LWPOLYLINE
  5
D8
330
17
100
AcDbEntity
  8
A-NEIGH
100
AcDbPolyline
 90
11
 70
0
 10
34790.0
 20
64640.0
 10
35270.0
 20
65610.0
 10
40120.0
 20
63790.0
 10
37700.0
 20
57600.0
 10
32599.999999999996
 20
59660.0
 10
31029.999999999996
 20
55780.0
 10
25810.0
 20
57840.0
 10
26050.0
 20
58570.0
 10
22780.0
 20
59790.0
 10
26050.0
 20
68030.0
 10
34790.0
 20
64640.0
  0
LWPOLYLINE
  5
D9
330
17
100
AcDbEntity
  8
A-NEIGH
100
AcDbPolyline
 90
11
 70
0
 10
47760.0
 20
61360.0
 10
45950.0
 20
56390.0
 10
45460.0
 20
56510.0
 10
44730.0
 20
54690.0
 10
41820.0
 20
55780.0
 10
40850.0
 20
53240.0
 10
38060.0
 20
54210.0
 10
39520.0
 20
58330.0
 10
38910.0
 20
58570.0
 10
40730.0
 20
63910.0
 10
47760.0
 20
61360.0
  0
LWPOLYLINE
  5
DA
330
17
100
AcDbEntity
  8
A-NEIGH
100
AcDbPolyline
 90
13
 70
0
 10
41210.0
 20
50690.0
 10
41090.0
 20
49110.0
 10
43280.0
 20
48870.0
 10
42550.0
 20
41110.0
 10
32720.0
 20
42080.0
 10
32720.0
 20
42810.0
 10
31390.000000000004
 20
43050.0
 10
31629.999999999996
 20
46690.0
 10
33210.0
 20
46570.0
 10
33450.0
 20
48380.0
 10
34420.0
 20
48260.0
 10
34670.0
 20
51300.0
 10
41210.0
 20
50690.0
  0
LWPOLYLINE
  5
DB
330
17
100
AcDbEntity
  8
A-NEIGH
100
AcDbPolyline
 90
3
 70
0
 10
63530.0
 20
115580.0
 10
58070.0
 20
116670.0
 10
58091.3698630137
 20
116800.0
  0
LWPOLYLINE
  5
DC
330
17
100
AcDbEntity
  8
A-NEIGH
100
AcDbPolyline
 90
2
 70
0
 10
63759.778420038536
 20
116800.0
 10
63530.0
 20
115580.0
  0
LWPOLYLINE
  5
DD
330
17
100
AcDbEntity
  8
A-NEIGH
100
AcDbPolyline
 90
5
 70
0
 10
84030.0
 20
112300.0
 10
78450.0
 20
113270.0
 10
78090.0
 20
111570.0
 10
72990.0
 20
112540.0
 10
73817.0744680851
 20
116800.0
  0
LWPOLYLINE
  5
DE
330
17
100
AcDbEntity
  8
A-NEIGH
100
AcDbPolyline
 90
2
 70
0
 10
84876.76339285714
 20
116800.0
 10
84030.0
 20
112300.0
  0
LWPOLYLINE
  5
DF
330
17
100
AcDbEntity
  8
A-NEIGH
100
AcDbPolyline
 90
8
 70
0
 10
107649.28571428572
 20
116800.0
 10
106220.0
 20
109030.0
 10
95670.0
 20
111330.0
 10
95790.0
 20
111700.0
 10
94220.0
 20
112060.0
 10
94700.0
 20
114730.0
 10
92400.0
 20
115210.0
 10
92710.59139784946
 20
116800.0
  0
LWPOLYLINE
  5
E0
330
17
100
AcDbEntity
  8
A-NEIGH
100
AcDbPolyline
 90
11
 70
0
 10
103920.0
 20
106120.0
 10
103310.0
 20
103690.0
 10
102460.0
 20
103930.0
 10
101370.0
 20
100170.0
 10
93130.0
 20
102600.0
 10
92760.0
 20
101630.0
 10
89370.0
 20
102600.0
 10
90700.0
 20
106970.0
 10
93730.0
 20
106120.0
 10
94460.0
 20
108780.0
 10
103920.0
 20
106120.0
  0
LWPOLYLINE
  5
E1
330
17
100
AcDbEntity
  8
A-NEIGH
100
AcDbPolyline
 90
7
 70
0
 10
108890.0
 20
50690.0
 10
106830.0
 20
41710.0
 10
96040.0
 20
44260.0
 10
97860.0
 20
52270.0
 10
100770.0
 20
51660.0
 10
101010.0
 20
52510.0
 10
108890.0
 20
50690.0
  0
LWPOLYLINE
  5
E2
330
17
100
AcDbEntity
  8
A-NEIGH
100
AcDbPolyline
 90
9
 70
0
 10
24600.0
 20
28860.000000000004
 10
23990.0
 20
25830.000000000004
 10
27150.000000000007
 20
25099.999999999996
 10
25690.0
 20
18789.999999999996
 10
13440.0
 20
21580.000000000004
 10
14900.000000000007
 20
28130.000000000004
 10
21450.0
 20
26670.000000000004
 10
22050.0
 20
29460.000000000004
 10
24600.0
 20
28860.000000000004
  0
LWPOLYLINE
  5
E3
330
17
100
AcDbEntity
  8
A-NEIGH
100
AcDbPolyline
 90
3
 70
0
 10
14508.494623655912
 20
17599.999999999996
 10
14530.0
 20
17700.00000000001
 10
14969.506172839567
 20
17599.999999999996
  0
LWPOLYLINE
  5
E4
330
17
100
AcDbEntity
  8
A-NEIGH
100
AcDbPolyline
 90
2
 70
0
 10
34060.0
 20
18310.000000000004
 10
33896.809605488845
 20
17599.999999999996
  0
LWPOLYLINE
  5
E5
330
17
100
AcDbEntity
  8
A-NEIGH
100
AcDbPolyline
 90
3
 70
0
 10
26573.924843423803
 20
17599.999999999996
 10
27150.000000000007
 20
20120.00000000001
 10
34060.0
 20
18310.000000000004
  0
LWPOLYLINE
  5
E6
330
17
100
AcDbEntity
  8
A-NEIGH
100
AcDbPolyline
 90
4
 70
0
 10
111950.0
 20
34505.22853957636
 10
109380.0
 20
34680.0
 10
110110.0
 20
48260.0
 10
111950.0
 20
48136.92307692308
  0
LWPOLYLINE
  5
E7
330
17
100
AcDbEntity
  8
A-ROAD
100
AcDbPolyline
 90
9
 70
0
 10
21721.150362318847
 20
116800.0
 10
32239.999999999996
 20
111330.0
 10
43280.0
 20
107090.0
 10
65470.0
 20
100170.0
 10
76390.0
 20
98350.0
 10
85240.0
 20
97510.0
 10
102950.0
 20
96780.0
 10
105130.0
 20
97750.0
 10
111606.38099106419
 20
116800.0
  0
LWPOLYLINE
  5
E8
330
17
100
AcDbEntity
  8
A-ROAD
100
AcDbPolyline
 90
6
 70
0
 10
55650.0
 20
99930.0
 10
54440.0
 20
99200.0
 10
41460.0
 20
102840.0
 10
40490.0
 20
104660.0
 10
26420.0
 20
109880.0
 10
13402.17821782179
 20
116800.0
  0
LWPOLYLINE
  5
E9
330
17
100
AcDbEntity
  8
A-ROAD
100
AcDbPolyline
 90
12
 70
0
 10
8050.0
 20
41167.61992619926
 10
75050.0
 20
26550.000000000004
 10
77240.0
 20
27520.000000000004
 10
79060.0
 20
29460.000000000004
 10
89120.0
 20
60630.0
 10
98100.0
 20
80040.0
 10
102950.0
 20
92530.0
 10
101860.0
 20
94110.0
 10
85000.0
 20
94840.0
 10
76150.0
 20
95690.0
 10
69840.0
 20
96540.0
 10
58560.0
 20
99080.0
  0
LWPOLYLINE
  5
EA
330
17
100
AcDbEntity
  8
A-ROAD
100
AcDbPolyline
 90
4
 70
0
 10
58560.0
 20
99080.0
 10
56740.0
 20
92650.0
 10
53830.0
 20
93500.0
 10
55650.0
 20
99930.0
  0
LWPOLYLINE
  5
EB
330
17
100
AcDbEntity
  8
A-ROAD
100
AcDbPolyline
 90
3
 70
0
 10
8050.0
 20
22049.213917525758
 10
11860.000000000007
 20
32620.000000000004
 10
8050.0
 20
33483.03867403316
  0
LWPOLYLINE
  5
EC
330
17
100
AcDbEntity
  8
A-ROAD
100
AcDbPolyline
 90
4
 70
0
 10
81169.13319238901
 20
17599.999999999996
 10
73600.0
 20
19399.999999999996
 10
14900.000000000007
 20
32010.000000000004
 10
9684.170842824606
 20
17599.999999999996
  0
LWPOLYLINE
  5
ED
330
17
100
AcDbEntity
  8
A-ROAD
100
AcDbPolyline
 90
5
 70
0
 10
111950.0
 20
100350.44134727062
 10
109380.0
 20
92530.0
 10
94220.0
 20
58570.0
 10
84760.0
 20
29100.000000000004
 10
111950.0
 20
22770.67218543046
  0
HATCH
  5
EE
330
17
100
AcDbEntity
  8
A-WATER
 62
7
100
AcDbHatch
 10
0.0
 20
0.0
 30
0.0
210
0.0
220
0.0
230
1.0
  2
ANSI31
 70
0
 71
0
 91
1
 92
3
 72
0
 73
1
 93
16
 10
11010.0
 20
113640.0
 10
24110.000000000007
 20
107210.0
 10
32599.999999999996
 20
103810.0
 10
57590.0
 20
95810.0
 10
74200.0
 20
91800.0
 10
81480.0
 20
90960.0
 10
93850.0
 20
90960.0
 10
93610.0
 20
88410.0
 10
81360.0
 20
88530.0
 10
73720.0
 20
89380.0
 10
56860.0
 20
93380.0
 10
32360.0
 20
101270.0
 10
22540.000000000007
 20
105150.0
 10
13800.0
 20
109270.0
 10
8050.0
 20
112550.64764841943
 10
8050.0
 20
115382.55367231638
 97
0
 75
1
 76
1
 52
0.0
 41
188.9763779527559
 77
0
 78
1
 53
45.0
 43
0.0
 44
0.0
 45
-424.2640687181
 46
424.2640687181
 79
0
 98
0
  0
LWPOLYLINE
  5
EF
330
17
100
AcDbEntity
  8
A-WATER
100
AcDbPolyline
 90
17
 70
1
 10
11010.0
 20
113640.0
 10
24110.000000000007
 20
107210.0
 10
32599.999999999996
 20
103810.0
 10
57590.0
 20
95810.0
 10
74200.0
 20
91800.0
 10
81480.0
 20
90960.0
 10
93850.0
 20
90960.0
 10
93610.0
 20
88410.0
 10
81360.0
 20
88530.0
 10
73720.0
 20
89380.0
 10
56860.0
 20
93380.0
 10
32360.0
 20
101270.0
 10
22540.000000000007
 20
105150.0
 10
13800.0
 20
109270.0
 10
8050.0
 20
112550.64764841943
 10
8050.0
 20
115382.55367231638
 10
11010.0
 20
113640.0
  0
HATCH
  5
F0
330
17
100
AcDbEntity
  8
A-WATER
 62
7
100
AcDbHatch
 10
0.0
 20
0.0
 30
0.0
210
0.0
220
0.0
230
1.0
  2
ANSI31
 70
0
 71
0
 91
1
 92
3
 72
0
 73
1
 93
4
 10
74540.35947712418
 20
17599.999999999996
 10
72698.31402831402
 20
17599.999999999996
 10
72870.0
 20
18179.999999999996
 10
74570.0
 20
17700.00000000001
 97
0
 75
1
 76
1
 52
0.0
 41
188.9763779527559
 77
0
 78
1
 53
45.0
 43
0.0
 44
0.0
 45
-424.2640687181
 46
424.2640687181
 79
0
 98
0
  0
LWPOLYLINE
  5
F1
330
17
100
AcDbEntity
  8
A-WATER
100
AcDbPolyline
 90
5
 70
1
 10
74540.35947712418
 20
17599.999999999996
 10
72698.31402831402
 20
17599.999999999996
 10
72870.0
 20
18179.999999999996
 10
74570.0
 20
17700.00000000001
 10
74540.35947712418
 20
17599.999999999996
  0
LWPOLYLINE
  5
F2
330
17
100
AcDbEntity
  8
A-HIDDEN
100
AcDbPolyline
 90
5
 70
1
 10
33570.0
 20
97260.0
 10
32000.000000000004
 20
94110.0
 10
17810.0
 20
100660.0
 10
19260.0
 20
103810.0
 10
33570.0
 20
97260.0
  0
LWPOLYLINE
  5
F3
330
17
100
AcDbEntity
  8
A-HIDDEN
100
AcDbPolyline
 90
17
 70
1
 10
75780.0
 20
86470.0
 10
75300.0
 20
84890.0
 10
86450.0
 20
81500.0
 10
87060.0
 20
81010.0
 10
88880.0
 20
78220.0
 10
89490.0
 20
75670.0
 10
89730.0
 20
73490.0
 10
89000.0
 20
68640.0
 10
87910.0
 20
66330.0
 10
85000.0
 20
62940.0
 10
81000.0
 20
60270.0
 10
78930.0
 20
59910.0
 10
68630.0
 20
63060.0
 10
67900.0
 20
60760.0
 10
44250.0
 20
67910.0
 10
52010.0
 20
93620.0
 10
75780.0
 20
86470.0
  0
LWPOLYLINE
  5
F4
330
17
100
AcDbEntity
  8
A-HIDDEN
100
AcDbPolyline
 90
9
 70
1
 10
91550.0
 20
85740.0
 10
94700.0
 20
87320.0
 10
97610.0
 20
81740.0
 10
95190.0
 20
80400.0
 10
96400.0
 20
78100.0
 10
90940.0
 20
75190.0
 10
85850.0
 20
85010.0
 10
90580.0
 20
87440.0
 10
91550.0
 20
85740.0
  0
LWPOLYLINE
  5
F5
330
17
100
AcDbEntity
  8
A-SITE
100
AcDbPolyline
 90
21
 70
1
 10
17050.0
 20
107800.0
 10
22550.0
 20
105100.0
 10
32349.999999999996
 20
101300.0
 10
56850.0
 20
93400.0
 10
73750.0
 20
89400.0
 10
81350.0
 20
88500.0
 10
93650.0
 20
88400.0
 10
93850.0
 20
91000.0
 10
102950.0
 20
92500.0
 10
98050.0
 20
80000.0
 10
89150.0
 20
60600.0
 10
79050.0
 20
29500.000000000004
 10
77250.0
 20
27500.000000000004
 10
75050.0
 20
26599.999999999996
 10
61450.0
 20
29564.102564102566
 10
66900.0
 20
50100.0
 10
49050.0
 20
55500.0
 10
48450.0
 20
62600.0
 10
41050.0
 20
65100.0
 10
35050.0
 20
65700.0
 10
24550.0
 20
68700.0
  0
HATCH
  5
F6
330
17
100
AcDbEntity
  8
A-PAVE
 62
7
100
AcDbHatch
 10
0.0
 20
0.0
 30
0.0
210
0.0
220
0.0
230
1.0
  2
NET
 70
0
 71
0
 91
1
 92
3
 72
0
 73
1
 93
4
 10
66345.0
 20
44195.0
 10
78045.0
 20
44195.0
 10
78045.0
 20
29095.000000000004
 10
66345.0
 20
29095.000000000004
 97
0
 75
1
 76
1
 52
0.0
 41
113.38582677165356
 77
0
 78
2
 53
0.0
 43
0.0
 44
0.0
 45
0.0
 46
360.0
 79
0
 53
90.0
 43
0.0
 44
0.0
 45
-360.0
 46
0.0
 79
0
 98
0
  0
LWPOLYLINE
  5
F7
330
17
100
AcDbEntity
  8
A-PAVE
100
AcDbPolyline
 90
5
 70
1
 10
66345.0
 20
44195.0
 10
78045.0
 20
44195.0
 10
78045.0
 20
29095.000000000004
 10
66345.0
 20
29095.000000000004
 10
66345.0
 20
44195.0
  0
LWPOLYLINE
  5
F8
330
17
100
AcDbEntity
  8
A-PAVE
100
AcDbPolyline
 90
32
 70
1
 10
65595.0
 20
44187.32921921325
 10
65595.0
 20
44597.91506743181
 10
67044.98125728488
 20
50061.523578179665
 10
67048.00242915015
 20
50075.60161960998
 10
67049.65988209803
 20
50089.90447176187
 10
67049.93834408227
 20
50104.30034578453
 10
67048.83524930802
 20
50118.65659570825
 10
67046.36076187337
 20
50132.8409406663
 10
67042.53768211577
 20
50146.722683752814
 10
67037.40123652585
 20
50160.173916285756
 10
67030.99875316482
 20
50173.070696378665
 10
67023.38922557572
 20
50185.29419096178
 10
67014.64276920722
 20
50196.73177072969
 10
67004.83997535826
 20
50207.2780479263
 10
66994.07116859643
 20
50216.83584740525
 10
66982.43557449244
 20
50225.31710201764
 10
66970.04040533927
 20
50232.64366407752
 10
66956.9998722803
 20
50238.7480254275
 10
66943.43413294895
 20
50243.57393947014
 10
65595.0
 20
50651.50359313536
 10
65595.0
 20
54845.0
 10
70095.0
 20
54845.0
 10
70095.0
 20
56850.0
 10
71595.0
 20
56850.0
 10
71595.0
 20
53345.0
 10
67095.0
 20
53345.0
 10
67095.0
 20
44002.670780786764
 10
65580.05959945353
 20
37942.90917860088
 10
64144.175006350466
 20
29216.433063703098
 10
62664.07767735599
 20
29459.973402668566
 10
64109.94040054647
 20
38247.09082139912
 10
65595.0
 20
44187.32921921325
  0
HATCH
  5
F9
330
17
100
AcDbEntity
  8
A-PAVE
 62
7
100
AcDbHatch
 10
0.0
 20
0.0
 30
0.0
210
0.0
220
0.0
230
1.0
  2
ANSI37
 70
0
 71
0
 91
1
 92
3
 72
0
 73
1
 93
31
 10
65595.0
 20
44187.32921921325
 10
65595.0
 20
44597.91506743181
 10
67044.98125728488
 20
50061.523578179665
 10
67048.00242915015
 20
50075.60161960998
 10
67049.65988209803
 20
50089.90447176187
 10
67049.93834408227
 20
50104.30034578453
 10
67048.83524930802
 20
50118.65659570825
 10
67046.36076187337
 20
50132.8409406663
 10
67042.53768211577
 20
50146.722683752814
 10
67037.40123652585
 20
50160.173916285756
 10
67030.99875316482
 20
50173.070696378665
 10
67023.38922557572
 20
50185.29419096178
 10
67014.64276920722
 20
50196.73177072969
 10
67004.83997535826
 20
50207.2780479263
 10
66994.07116859643
 20
50216.83584740525
 10
66982.43557449244
 20
50225.31710201764
 10
66970.04040533927
 20
50232.64366407752
 10
66956.9998722803
 20
50238.7480254275
 10
66943.43413294895
 20
50243.57393947014
 10
65595.0
 20
50651.50359313536
 10
65595.0
 20
54845.0
 10
70095.0
 20
54845.0
 10
70095.0
 20
56850.0
 10
71595.0
 20
56850.0
 10
71595.0
 20
53345.0
 10
67095.0
 20
53345.0
 10
67095.0
 20
44002.670780786764
 10
65580.05959945353
 20
37942.90917860088
 10
64144.175006350466
 20
29216.433063703098
 10
62664.07767735599
 20
29459.973402668566
 10
64109.94040054647
 20
38247.09082139912
 97
0
 75
1
 76
1
 52
0.0
 41
314.96062992125985
 77
0
 78
2
 53
45.0
 43
0.0
 44
0.0
 45
-707.1067811969
 46
707.1067811969
 79
0
 53
135.0
 43
0.0
 44
0.0
 45
-707.1067811969
 46
-707.1067811969
 79
0
 98
0
  0
HATCH
  5
FA
330
17
100
AcDbEntity
  8
A-CUT-HATCH
 62
7
100
AcDbHatch
 10
0.0
 20
0.0
 30
0.0
210
0.0
220
0.0
230
1.0
  2
ANSI31
 70
0
 71
0
 91
3
 92
3
 72
0
 73
1
 93
48
 10
73750.0
 20
89400.0
 10
81350.0
 20
88500.0
 10
93650.0
 20
88400.0
 10
93850.0
 20
91000.0
 10
102950.0
 20
92500.0
 10
98050.0
 20
80000.0
 10
89150.0
 20
60600.0
 10
80357.26766756819
 20
33525.34895657137
 10
80300.20157946696
 20
33543.88167328591
 10
80271.78810515715
 20
33551.59034870063
 10
80242.75586717243
 20
33556.476897237546
 10
80213.38446183526
 20
33558.49425876299
 10
80210.2902675469
 20
33558.402650259624
 10
89010.02744536567
 20
60654.62306908774
 10
97911.89423108517
 20
80058.6922424538
 10
102714.04723009796
 20
92309.08254605788
 10
93990.53084666253
 20
90871.14028505204
 10
93788.81747437872
 20
88248.8664453626
 10
81340.54186494712
 20
88350.0719381222
 10
73723.82006301825
 20
89252.05215150851
 10
56809.6453359153
 20
93255.4071165033
 10
32299.826555560692
 20
101158.57317220946
 10
22489.722388786176
 20
104962.49111442815
 10
17253.996062955237
 20
107532.75676529063
 10
24679.931693015715
 20
68818.87901390866
 10
35078.29195628799
 20
65847.91893868802
 10
41081.87345520812
 20
65247.56078879599
 10
48591.18555440958
 20
62710.631025552255
 10
49190.893202472034
 20
55614.09052347996
 10
67082.15787266042
 20
50201.60709384314
 10
61635.22187488836
 20
29677.25498555972
 10
62570.35248100118
 20
29473.444468842823
 10
62568.712879052044
 20
29470.81880019268
 10
62555.64199204633
 20
29444.438862514802
 10
62545.21973098745
 20
29416.90478048135
 10
62537.54646794678
 20
29388.481722353954
 10
62524.76948801928
 20
29329.85793209836
 10
61450.0
 20
29564.102564102566
 10
66900.0
 20
50100.0
 10
49050.0
 20
55500.0
 10
48450.0
 20
62600.0
 10
41050.0
 20
65100.0
 10
35050.0
 20
65700.0
 10
24550.0
 20
68700.0
 10
17050.0
 20
107800.0
 10
22550.0
 20
105100.0
 10
32349.999999999996
 20
101300.0
 10
56850.0
 20
93400.0
 97
0
 92
3
 72
0
 73
1
 93
18
 10
79050.0
 20
29500.000000000004
 10
77250.0
 20
27500.000000000004
 10
75050.0
 20
26599.999999999996
 10
74463.76209744404
 20
26727.769799275015
 10
74476.53907737153
 20
26786.39358953061
 10
74481.38944467627
 20
26815.43189416455
 10
74483.37020455647
 20
26844.805790557464
 10
74482.46228121169
 20
26874.23239202968
 10
74482.06400409964
 20
26877.30221380854
 10
75036.37240822213
 20
26756.491407781843
 10
77161.45449150697
 20
27625.843169125645
 10
78917.18102520455
 20
29576.650428789613
 10
79724.70884802863
 20
32063.19649708951
 10
79727.15880837757
 20
32061.304375343814
 10
79752.11109766811
 20
32045.6796366847
 10
79778.47472706733
 20
32032.575887453848
 10
79805.99580041229
 20
32022.119323919575
 10
79863.06188851353
 20
32003.586607205016
 97
0
 92
3
 72
0
 73
1
 93
12
 10
69036.15173128775
 20
28061.248793936178
 10
69023.08084428204
 20
28034.8688562583
 10
69012.65858322316
 20
28007.334774224848
 10
69004.98532018249
 20
27978.91171609746
 10
68992.20834025499
 20
27920.287925841858
 10
64283.48319568718
 20
28946.548534273305
 10
64296.26017561468
 20
29005.172324528907
 10
64301.11054291943
 20
29034.210629162848
 10
64303.09130279963
 20
29063.584525555754
 10
64302.18337945484
 20
29093.01112702797
 10
64301.78510234279
 20
29096.08094880683
 10
69037.79133323689
 20
28063.874462586322
 97
0
 75
1
 76
1
 52
0.0
 41
125.98425196850394
 77
0
 78
1
 53
45.0
 43
0.0
 44
0.0
 45
-282.8427124787
 46
282.8427124787
 79
0
 98
0
  0
LWPOLYLINE
  5
FB
330
17
100
AcDbEntity
  8
A-FENCE
100
AcDbPolyline
 90
49
 70
1
 10
73750.0
 20
89400.0
 10
81350.0
 20
88500.0
 10
93650.0
 20
88400.0
 10
93850.0
 20
91000.0
 10
102950.0
 20
92500.0
 10
98050.0
 20
80000.0
 10
89150.0
 20
60600.0
 10
80357.26766756819
 20
33525.34895657137
 10
80300.20157946696
 20
33543.88167328591
 10
80271.78810515715
 20
33551.59034870063
 10
80242.75586717243
 20
33556.476897237546
 10
80213.38446183526
 20
33558.49425876299
 10
80210.2902675469
 20
33558.402650259624
 10
89010.02744536567
 20
60654.62306908774
 10
97911.89423108517
 20
80058.6922424538
 10
102714.04723009796
 20
92309.08254605788
 10
93990.53084666253
 20
90871.14028505204
 10
93788.81747437872
 20
88248.8664453626
 10
81340.54186494712
 20
88350.0719381222
 10
73723.82006301825
 20
89252.05215150851
 10
56809.6453359153
 20
93255.4071165033
 10
32299.826555560692
 20
101158.57317220946
 10
22489.722388786176
 20
104962.49111442815
 10
17253.996062955237
 20
107532.75676529063
 10
24679.931693015715
 20
68818.87901390866
 10
35078.29195628799
 20
65847.91893868802
 10
41081.87345520812
 20
65247.56078879599
 10
48591.18555440958
 20
62710.631025552255
 10
49190.893202472034
 20
55614.09052347996
 10
67082.15787266042
 20
50201.60709384314
 10
61635.22187488836
 20
29677.25498555972
 10
62570.35248100118
 20
29473.444468842823
 10
62568.712879052044
 20
29470.81880019268
 10
62555.64199204633
 20
29444.438862514802
 10
62545.21973098745
 20
29416.90478048135
 10
62537.54646794678
 20
29388.481722353954
 10
62524.76948801928
 20
29329.85793209836
 10
61450.0
 20
29564.102564102566
 10
66900.0
 20
50100.0
 10
49050.0
 20
55500.0
 10
48450.0
 20
62600.0
 10
41050.0
 20
65100.0
 10
35050.0
 20
65700.0
 10
24550.0
 20
68700.0
 10
17050.0
 20
107800.0
 10
22550.0
 20
105100.0
 10
32349.999999999996
 20
101300.0
 10
56850.0
 20
93400.0
 10
73750.0
 20
89400.0
  0
LWPOLYLINE
  5
FC
330
17
100
AcDbEntity
  8
A-FENCE
100
AcDbPolyline
 90
19
 70
1
 10
79050.0
 20
29500.000000000004
 10
77250.0
 20
27500.000000000004
 10
75050.0
 20
26599.999999999996
 10
74463.76209744404
 20
26727.769799275015
 10
74476.53907737153
 20
26786.39358953061
 10
74481.38944467627
 20
26815.43189416455
 10
74483.37020455647
 20
26844.805790557464
 10
74482.46228121169
 20
26874.23239202968
 10
74482.06400409964
 20
26877.30221380854
 10
75036.37240822213
 20
26756.491407781843
 10
77161.45449150697
 20
27625.843169125645
 10
78917.18102520455
 20
29576.650428789613
 10
79724.70884802863
 20
32063.19649708951
 10
79727.15880837757
 20
32061.304375343814
 10
79752.11109766811
 20
32045.6796366847
 10
79778.47472706733
 20
32032.575887453848
 10
79805.99580041229
 20
32022.119323919575
 10
79863.06188851353
 20
32003.586607205016
 10
79050.0
 20
29500.000000000004
  0
LWPOLYLINE
  5
FD
330
17
100
AcDbEntity
  8
A-FENCE
100
AcDbPolyline
 90
13
 70
1
 10
69036.15173128775
 20
28061.248793936178
 10
69023.08084428204
 20
28034.8688562583
 10
69012.65858322316
 20
28007.334774224848
 10
69004.98532018249
 20
27978.91171609746
 10
68992.20834025499
 20
27920.287925841858
 10
64283.48319568718
 20
28946.548534273305
 10
64296.26017561468
 20
29005.172324528907
 10
64301.11054291943
 20
29034.210629162848
 10
64303.09130279963
 20
29063.584525555754
 10
64302.18337945484
 20
29093.01112702797
 10
64301.78510234279
 20
29096.08094880683
 10
69037.79133323689
 20
28063.874462586322
 10
69036.15173128775
 20
28061.248793936178
  0
LINE
  5
FE
330
17
100
AcDbEntity
  8
A-DOOR
370
35
100
AcDbLine
 10
74170.64314616604
 20
26791.654698912524
 30
0.0
 11
69285.32729153297
 21
27856.40302620435
 31
0.0
  0
TEXT
  5
FF
330
17
100
AcDbEntity
  8
A-TEXT
100
AcDbText
 10
71727.98521884951
 20
25824.02886255844
 30
0.0
 40
760.0
  1
車両門扉
  7
JP
 72
1
 11
71727.98521884951
 21
25824.02886255844
 31
0.0
100
AcDbText
 73
2
  0
LINE
  5
100
330
17
100
AcDbEntity
  8
A-DOOR
370
35
100
AcDbLine
 10
63990.3642444092
 20
29010.433433910814
 30
0.0
 11
62817.88843929726
 21
29265.97303246085
 31
0.0
  0
TEXT
  5
101
330
17
100
AcDbEntity
  8
A-TEXT
100
AcDbText
 10
63404.126341853225
 20
27638.20323318583
 30
0.0
 40
760.0
  1
門扉（人）
  7
JP
 72
1
 11
63404.126341853225
 21
27638.20323318583
 31
0.0
100
AcDbText
 73
2
  0
LINE
  5
102
330
17
100
AcDbEntity
  8
A-DOOR
370
35
100
AcDbLine
 10
80264.60408399545
 20
33240.018516065174
 30
0.0
 11
79955.72547208628
 21
32288.91704771121
 31
0.0
  0
TEXT
  5
103
330
17
100
AcDbEntity
  8
A-TEXT
100
AcDbText
 10
80110.16477804087
 20
31264.467781888194
 30
0.0
 40
760.0
  1
勝手口
  7
JP
 72
1
 11
80110.16477804087
 21
31264.467781888194
 31
0.0
100
AcDbText
 73
2
  0
LWPOLYLINE
  5
104
330
17
100
AcDbEntity
  8
A-VIS
370
9
100
AcDbPolyline
 90
9
 70
0
 10
61300.0
 20
59850.0
 10
61300.0
 20
59970.0
 10
61300.0
 20
77470.0
 10
61300.0
 20
77590.0
 10
79040.0
 20
77590.0
 10
79040.0
 20
77470.0
 10
79040.0
 20
59970.0
 10
79040.0
 20
59850.0
 10
61300.0
 20
59850.0
  0
LWPOLYLINE
  5
105
330
17
100
AcDbEntity
  8
A-VIS
370
9
100
AcDbPolyline
 90
5
 70
0
 10
78920.0
 20
59970.0
 10
78920.0
 20
77470.0
 10
61420.0
 20
77470.0
 10
61420.0
 20
59970.0
 10
78920.0
 20
59970.0
  0
LWPOLYLINE
  5
106
330
17
100
AcDbEntity
  8
A-VIS
370
9
100
AcDbPolyline
 90
9
 70
0
 10
61420.0
 20
59970.0
 10
61420.0
 20
60220.0
 10
61420.0
 20
77220.0
 10
61420.0
 20
77470.0
 10
78920.0
 20
77470.0
 10
78920.0
 20
77220.0
 10
78920.0
 20
60220.0
 10
78920.0
 20
59970.0
 10
61420.0
 20
59970.0
  0
LWPOLYLINE
  5
107
330
17
100
AcDbEntity
  8
A-VIS
370
9
100
AcDbPolyline
 90
5
 70
0
 10
78670.0
 20
60220.0
 10
78670.0
 20
77220.0
 10
61670.0
 20
77220.0
 10
61670.0
 20
60220.0
 10
78670.0
 20
60220.0
  0
LWPOLYLINE
  5
108
330
17
100
AcDbEntity
  8
A-STRS
370
9
100
AcDbPolyline
 90
7
 70
0
 10
69545.0
 20
58350.0
 10
69545.0
 20
59850.0
 10
70345.0
 20
59850.0
 10
71345.0
 20
59850.0
 10
72145.0
 20
59850.0
 10
72145.0
 20
58350.0
 10
69545.0
 20
58350.0
  0
LWPOLYLINE
  5
109
330
17
100
AcDbEntity
  8
A-STRS
370
9
100
AcDbPolyline
 90
5
 70
0
 10
69845.0
 20
58050.0
 10
69845.0
 20
58350.0
 10
71845.0
 20
58350.0
 10
71845.0
 20
58050.0
 10
69845.0
 20
58050.0
  0
LWPOLYLINE
  5
10A
330
17
100
AcDbEntity
  8
A-STRS
370
9
100
AcDbPolyline
 90
5
 70
0
 10
69845.0
 20
57750.0
 10
69845.0
 20
58050.0
 10
71845.0
 20
58050.0
 10
71845.0
 20
57750.0
 10
69845.0
 20
57750.0
  0
LWPOLYLINE
  5
10B
330
17
100
AcDbEntity
  8
A-STRS
370
9
100
AcDbPolyline
 90
5
 70
0
 10
69845.0
 20
57450.0
 10
69845.0
 20
57750.0
 10
71845.0
 20
57750.0
 10
71845.0
 20
57450.0
 10
69845.0
 20
57450.0
  0
LWPOLYLINE
  5
10C
330
17
100
AcDbEntity
  8
A-STRS
370
9
100
AcDbPolyline
 90
5
 70
0
 10
69845.0
 20
57150.0
 10
69845.0
 20
57450.0
 10
71845.0
 20
57450.0
 10
71845.0
 20
57150.0
 10
69845.0
 20
57150.0
  0
LWPOLYLINE
  5
10D
330
17
100
AcDbEntity
  8
A-STRS
370
9
100
AcDbPolyline
 90
5
 70
0
 10
69845.0
 20
56850.0
 10
69845.0
 20
57150.0
 10
71845.0
 20
57150.0
 10
71845.0
 20
56850.0
 10
69845.0
 20
56850.0
  0
LWPOLYLINE
  5
10E
330
17
100
AcDbEntity
  8
A-CUT
370
50
100
AcDbPolyline
 90
4
 70
1
 10
61300.0
 20
59850.0
 10
79040.0
 20
59850.0
 10
79040.0
 20
77590.0
 10
61300.0
 20
77590.0
  0
LWPOLYLINE
  5
10F
330
17
100
AcDbEntity
  8
A-HIDDEN
100
AcDbPolyline
 90
4
 70
1
 10
67545.0
 20
33595.0
 10
76545.0
 20
33595.0
 10
76545.0
 20
43595.0
 10
67545.0
 20
43595.0
  0
LWPOLYLINE
  5
110
330
17
100
AcDbEntity
  8
A-VIS
100
AcDbPolyline
 90
4
 70
1
 10
67845.0
 20
35595.0
 10
70445.0
 20
35595.0
 10
70445.0
 20
41095.0
 10
67845.0
 20
41095.0
  0
LWPOLYLINE
  5
111
330
17
100
AcDbEntity
  8
A-VIS
100
AcDbPolyline
 90
4
 70
1
 10
70645.0
 20
35595.0
 10
73245.0
 20
35595.0
 10
73245.0
 20
41095.0
 10
70645.0
 20
41095.0
  0
LWPOLYLINE
  5
112
330
17
100
AcDbEntity
  8
A-VIS
100
AcDbPolyline
 90
4
 70
1
 10
73445.0
 20
35595.0
 10
76045.0
 20
35595.0
 10
76045.0
 20
41095.0
 10
73445.0
 20
41095.0
  0
TEXT
  5
113
330
17
100
AcDbEntity
  8
A-TEXT
100
AcDbText
 10
78045.0
 20
38595.0
 30
0.0
 40
680.0
  1
ソーラーカーポート 約90m²／駐車3台
  7
JP
 11
78045.0
 21
38595.0
 31
0.0
100
AcDbText
 73
2
  0
TEXT
  5
114
330
17
100
AcDbEntity
  8
A-ROOM
100
AcDbText
 10
70170.0
 20
68720.0
 30
0.0
 40
800.0
  1
建物（壁式RC造 2階建て）
  7
JP
 72
1
 11
70170.0
 21
68720.0
 31
0.0
100
AcDbText
 73
2
  0
TEXT
  5
115
330
17
100
AcDbEntity
  8
A-TEXT
100
AcDbText
 10
78045.0
 20
32095.000000000004
 30
0.0
 40
680.0
  1
Dotcon+ 透水舗装
  7
JP
 11
78045.0
 21
32095.000000000004
 31
0.0
100
AcDbText
 73
2
  0
TEXT
  5
116
330
17
100
AcDbEntity
  8
A-TEXT
100
AcDbText
 10
67345.0
 20
48095.0
 30
0.0
 40
640.0
  1
アプローチ（透水性舗装）
  7
JP
 11
67345.0
 21
48095.0
 31
0.0
100
AcDbText
 73
2
  0
LWPOLYLINE
  5
117
330
17
100
AcDbEntity
  8
A-DRAIN
100
AcDbPolyline
 90
4
 70
1
 10
29545.0
 20
82095.0
 10
34545.0
 20
82095.0
 10
34545.0
 20
87095.0
 10
29545.0
 20
87095.0
  0
LINE
  5
118
330
17
100
AcDbEntity
  8
A-DRAIN
100
AcDbLine
 10
29545.0
 20
82095.0
 30
0.0
 11
34545.0
 21
87095.0
 31
0.0
  0
TEXT
  5
119
330
17
100
AcDbEntity
  8
A-TEXT
100
AcDbText
 10
32045.0
 20
80895.0
 30
0.0
 40
680.0
  1
地下雨水貯留槽 25m³
  7
JP
 72
1
 11
32045.0
 21
80895.0
 31
0.0
100
AcDbText
 73
2
  0
LWPOLYLINE
  5
11A
330
17
100
AcDbEntity
  8
A-DRAIN
370
35
100
AcDbPolyline
 90
3
 70
0
 10
19545.0
 20
105095.0
 10
32545.0
 20
99595.0
 10
55545.0
 20
91595.0
  0
LWPOLYLINE
  5
11B
330
17
100
AcDbEntity
  8
A-DRAIN
370
35
100
AcDbPolyline
 90
2
 70
0
 10
19045.0
 20
104595.0
 10
26045.0
 20
71595.0
  0
TEXT
  5
11C
330
17
100
AcDbEntity
  8
A-TEXT
100
AcDbText
 10
41545.0
 20
98095.0
 30
0.0
 40
680.0
  1
浸透トレンチ
  7
JP
 72
1
 11
41545.0
 21
98095.0
 31
0.0
100
AcDbText
 73
2
  0
CIRCLE
  5
11D
330
17
100
AcDbEntity
  8
A-DRAIN
100
AcDbCircle
 10
19545.0
 20
105095.0
 30
0.0
 40
360.0
  0
CIRCLE
  5
11E
330
17
100
AcDbEntity
  8
A-DRAIN
100
AcDbCircle
 10
32545.0
 20
99595.0
 30
0.0
 40
360.0
  0
CIRCLE
  5
11F
330
17
100
AcDbEntity
  8
A-DRAIN
100
AcDbCircle
 10
55545.0
 20
91595.0
 30
0.0
 40
360.0
  0
CIRCLE
  5
120
330
17
100
AcDbEntity
  8
A-DRAIN
100
AcDbCircle
 10
26045.0
 20
71595.0
 30
0.0
 40
360.0
  0
CIRCLE
  5
121
330
17
100
AcDbEntity
  8
A-DRAIN
100
AcDbCircle
 10
64545.0
 20
35095.0
 30
0.0
 40
360.0
  0
LWPOLYLINE
  5
122
330
17
100
AcDbEntity
  8
A-DRAIN
100
AcDbPolyline
 90
4
 70
1
 10
25445.0
 20
69795.0
 10
26445.0
 20
69795.0
 10
26445.0
 20
70795.0
 10
25445.0
 20
70795.0
  0
TEXT
  5
123
330
17
100
AcDbEntity
  8
A-TEXT
100
AcDbText
 10
26745.0
 20
70295.0
 30
0.0
 40
600.0
  1
排水口（フラップ弁）
  7
JP
 11
26745.0
 21
70295.0
 31
0.0
100
AcDbText
 73
2
  0
LWPOLYLINE
  5
124
330
17
100
AcDbEntity
  8
A-DRAIN
100
AcDbPolyline
 90
4
 70
1
 10
62045.0
 20
30395.000000000004
 10
63045.0
 20
30395.000000000004
 10
63045.0
 20
31395.000000000004
 10
62045.0
 20
31395.000000000004
  0
TEXT
  5
125
330
17
100
AcDbEntity
  8
A-TEXT
100
AcDbText
 10
63345.0
 20
30895.000000000004
 30
0.0
 40
600.0
  1
排水口（フラップ弁）
  7
JP
 11
63345.0
 21
30895.000000000004
 31
0.0
100
AcDbText
 73
2
  0
LWPOLYLINE
  5
126
330
17
100
AcDbEntity
  8
A-FLOOD
370
35
100
AcDbPolyline
 90
2
 70
0
 10
61545.0
 20
104095.0
 10
61545.0
 20
96095.0
  0
LINE
  5
127
330
17
100
AcDbEntity
  8
A-FLOOD
370
35
100
AcDbLine
 10
61545.0
 20
96095.0
 30
0.0
 11
60818.77631311675
 21
97050.30055825887
 31
0.0
  0
LINE
  5
128
330
17
100
AcDbEntity
  8
A-FLOOD
370
35
100
AcDbLine
 10
61545.0
 20
96095.0
 30
0.0
 11
62271.22368688325
 21
97050.30055825887
 31
0.0
  0
LWPOLYLINE
  5
129
330
17
100
AcDbEntity
  8
A-FLOOD
370
35
100
AcDbPolyline
 90
2
 70
0
 10
41545.0
 20
110095.0
 10
41545.0
 20
100095.0
  0
LINE
  5
12A
330
17
100
AcDbEntity
  8
A-FLOOD
370
35
100
AcDbLine
 10
41545.0
 20
100095.0
 30
0.0
 11
40818.77631311675
 21
101050.30055825887
 31
0.0
  0
LINE
  5
12B
330
17
100
AcDbEntity
  8
A-FLOOD
370
35
100
AcDbLine
 10
41545.0
 20
100095.0
 30
0.0
 11
42271.22368688325
 21
101050.30055825887
 31
0.0
  0
LWPOLYLINE
  5
12C
330
17
100
AcDbEntity
  8
A-FLOOD
370
35
100
AcDbPolyline
 90
2
 70
0
 10
91545.0
 20
82095.0
 10
83545.0
 20
78095.0
  0
LINE
  5
12D
330
17
100
AcDbEntity
  8
A-FLOOD
370
35
100
AcDbLine
 10
83545.0
 20
78095.0
 30
0.0
 11
84074.66968873584
 21
79171.77760973865
 31
0.0
  0
LINE
  5
12E
330
17
100
AcDbEntity
  8
A-FLOOD
370
35
100
AcDbLine
 10
83545.0
 20
78095.0
 30
0.0
 11
84724.22390103243
 21
77872.66918514548
 31
0.0
  0
LWPOLYLINE
  5
12F
330
17
100
AcDbEntity
  8
A-FLOOD
370
35
100
AcDbPolyline
 90
2
 70
0
 10
89545.0
 20
60095.0
 10
82545.0
 20
58095.0
  0
LINE
  5
130
330
17
100
AcDbEntity
  8
A-FLOOD
370
35
100
AcDbLine
 10
82545.0
 20
58095.0
 30
0.0
 11
83264.03537359419
 21
59055.722713128125
 31
0.0
  0
LINE
  5
131
330
17
100
AcDbEntity
  8
A-FLOOD
370
35
100
AcDbLine
 10
82545.0
 20
58095.0
 30
0.0
 11
83663.0533543269
 21
57659.15978056363
 31
0.0
  0
TEXT
  5
132
330
17
100
AcDbEntity
  8
A-LEGAL-TEXT
100
AcDbText
 10
75545.0
 20
105095.0
 30
0.0
 40
720.0
  1
表流水の流入（北・東の高い側）
  7
JP
 72
1
 11
75545.0
 21
105095.0
 31
0.0
100
AcDbText
 73
2
  0
TEXT
  5
133
330
17
100
AcDbEntity
  8
A-SYMB
100
AcDbText
 10
22436.00566337062
 20
105155.96085616351
 30
0.0
 40
560.0
  1
2.2
  7
JP
 72
1
 11
22436.00566337062
 21
105155.96085616351
 31
0.0
100
AcDbText
 73
2
  0
TEXT
  5
134
330
17
100
AcDbEntity
  8
A-SYMB
100
AcDbText
 10
35549.828215397836
 20
100268.2186570758
 30
0.0
 40
560.0
  1
2.5
  7
JP
 72
1
 11
35549.828215397836
 21
100268.2186570758
 31
0.0
100
AcDbText
 73
2
  0
TEXT
  5
135
330
17
100
AcDbEntity
  8
A-SYMB
100
AcDbText
 10
48874.26135592141
 20
95971.76878727431
 30
0.0
 40
560.0
  1
2.0
  7
JP
 72
1
 11
48874.26135592141
 21
95971.76878727431
 31
0.0
100
AcDbText
 73
2
  0
TEXT
  5
136
330
17
100
AcDbEntity
  8
A-SYMB
100
AcDbText
 10
62318.78591917005
 20
92105.61280019644
 30
0.0
 40
560.0
  1
2.1
  7
JP
 72
1
 11
62318.78591917005
 21
92105.61280019644
 31
0.0
100
AcDbText
 73
2
  0
TEXT
  5
137
330
17
100
AcDbEntity
  8
A-SYMB
100
AcDbText
 10
75987.32499198928
 20
89135.05361936969
 30
0.0
 40
560.0
  1
2.0
  7
JP
 72
1
 11
75987.32499198928
 21
89135.05361936969
 31
0.0
100
AcDbText
 73
2
  0
TEXT
  5
138
330
17
100
AcDbEntity
  8
A-SYMB
100
AcDbText
 10
89949.56984102912
 20
88430.08479804042
 30
0.0
 40
560.0
  1
3.0
  7
JP
 72
1
 11
89949.56984102912
 21
88430.08479804042
 31
0.0
100
AcDbText
 73
2
  0
TEXT
  5
139
330
17
100
AcDbEntity
  8
A-SYMB
100
AcDbText
 10
101439.35380967389
 20
92250.99238620998
 30
0.0
 40
560.0
  1
4.9
  7
JP
 72
1
 11
101439.35380967389
 21
92250.99238620998
 31
0.0
100
AcDbText
 73
2
  0
TEXT
  5
13A
330
17
100
AcDbEntity
  8
A-SYMB
100
AcDbText
 10
98399.31333964634
 20
80891.10545828147
 30
0.0
 40
560.0
  1
4.4
  7
JP
 72
1
 11
98399.31333964634
 21
80891.10545828147
 31
0.0
100
AcDbText
 73
2
  0
TEXT
  5
13B
330
17
100
AcDbEntity
  8
A-SYMB
100
AcDbText
 10
92611.4168638596
 20
68145.11091672767
 30
0.0
 40
560.0
  1
3.6
  7
JP
 72
1
 11
92611.4168638596
 21
68145.11091672767
 31
0.0
100
AcDbText
 73
2
  0
TEXT
  5
13C
330
17
100
AcDbEntity
  8
A-SYMB
100
AcDbText
 10
87389.76598987673
 20
55179.87349358083
 30
0.0
 40
560.0
  1
2.0
  7
JP
 72
1
 11
87389.76598987673
 21
55179.87349358083
 31
0.0
100
AcDbText
 73
2
  0
TEXT
  5
13D
330
17
100
AcDbEntity
  8
A-SYMB
100
AcDbText
 10
83065.46542314842
 20
41864.45293662533
 30
0.0
 40
560.0
  1
2.0
  7
JP
 72
1
 11
83065.46542314842
 21
41864.45293662533
 31
0.0
100
AcDbText
 73
2
  0
TEXT
  5
13E
330
17
100
AcDbEntity
  8
A-SYMB
100
AcDbText
 10
76896.46617763033
 20
27355.372527212403
 30
0.0
 40
560.0
  1
2.0
  7
JP
 72
1
 11
76896.46617763033
 21
27355.372527212403
 31
0.0
100
AcDbText
 73
2
  0
TEXT
  5
13F
330
17
100
AcDbEntity
  8
A-SYMB
100
AcDbText
 10
62631.22614988408
 20
34015.02716274833
 30
0.0
 40
560.0
  1
2.0
  7
JP
 72
1
 11
62631.22614988408
 21
34015.02716274833
 31
0.0
100
AcDbText
 73
2
  0
TEXT
  5
140
330
17
100
AcDbEntity
  8
A-SYMB
100
AcDbText
 10
66222.35885311471
 20
47546.61117600367
 30
0.0
 40
560.0
  1
2.0
  7
JP
 72
1
 11
66222.35885311471
 21
47546.61117600367
 31
0.0
100
AcDbText
 73
2
  0
TEXT
  5
141
330
17
100
AcDbEntity
  8
A-SYMB
100
AcDbText
 10
56028.36899671195
 20
53388.89677410395
 30
0.0
 40
560.0
  1
2.0
  7
JP
 72
1
 11
56028.36899671195
 21
53388.89677410395
 31
0.0
100
AcDbText
 73
2
  0
TEXT
  5
142
330
17
100
AcDbEntity
  8
A-SYMB
100
AcDbText
 10
48485.031146116446
 20
62185.46477095538
 30
0.0
 40
560.0
  1
2.0
  7
JP
 72
1
 11
48485.031146116446
 21
62185.46477095538
 31
0.0
100
AcDbText
 73
2
  0
TEXT
  5
143
330
17
100
AcDbEntity
  8
A-SYMB
100
AcDbText
 10
35305.553403312646
 20
65674.44465966873
 30
0.0
 40
560.0
  1
2.0
  7
JP
 72
1
 11
35305.553403312646
 21
65674.44465966873
 31
0.0
100
AcDbText
 73
2
  0
TEXT
  5
144
330
17
100
AcDbEntity
  8
A-SYMB
100
AcDbText
 10
24018.197478669666
 20
71472.46381120213
 30
0.0
 40
560.0
  1
2.0
  7
JP
 72
1
 11
24018.197478669666
 21
71472.46381120213
 31
0.0
100
AcDbText
 73
2
  0
TEXT
  5
145
330
17
100
AcDbEntity
  8
A-SYMB
100
AcDbText
 10
21380.85550999931
 20
85221.80660787027
 30
0.0
 40
560.0
  1
2.0
  7
JP
 72
1
 11
21380.85550999931
 21
85221.80660787027
 31
0.0
100
AcDbText
 73
2
  0
TEXT
  5
146
330
17
100
AcDbEntity
  8
A-SYMB
100
AcDbText
 10
18743.513541328954
 20
98971.14940453842
 30
0.0
 40
560.0
  1
2.0
  7
JP
 72
1
 11
18743.513541328954
 21
98971.14940453842
 31
0.0
100
AcDbText
 73
2
  0
TEXT
  5
147
330
17
100
AcDbEntity
  8
A-SYMB
100
AcDbText
 10
70145.0
 20
56795.0
 30
0.0
 40
640.0
  1
1FL GL+1,500
  7
JP
 72
1
 11
70145.0
 21
56795.0
 31
0.0
100
AcDbText
 73
2
  0
TEXT
  5
148
330
17
100
AcDbEntity
  8
A-SYMB
100
AcDbText
 10
46545.0
 20
70095.0
 30
0.0
 40
640.0
  1
FGL GL+450（現況維持）
  7
JP
 72
1
 11
46545.0
 21
70095.0
 31
0.0
100
AcDbText
 73
2
  0
TEXT
  5
149
330
17
100
AcDbEntity
  8
A-SYMB
100
AcDbText
 10
67545.0
 20
28295.000000000004
 30
0.0
 40
640.0
  1
設計GL±0（南側道路 TP+109.0）
  7
JP
 72
1
 11
67545.0
 21
28295.000000000004
 31
0.0
100
AcDbText
 73
2
  0
CIRCLE
  5
14A
330
17
100
AcDbEntity
  8
A-SYMB
100
AcDbCircle
 10
112800.0
 20
24000.0
 30
0.0
 40
2400.0
  0
LWPOLYLINE
  5
14B
330
17
100
AcDbEntity
  8
A-SYMB
100
AcDbPolyline
 90
4
 70
1
 10
112800.0
 20
26400.0
 10
111960.0
 20
22560.0
 10
112800.0
 20
23280.0
 10
113640.0
 20
22560.0
  0
HATCH
  5
14C
330
17
100
AcDbEntity
  8
A-SYMB
 62
7
100
AcDbHatch
 10
0.0
 20
0.0
 30
0.0
210
0.0
220
0.0
230
1.0
  2
SOLID
 70
1
 71
0
 91
1
 92
3
 72
0
 73
1
 93
3
 10
112800.0
 20
26400.0
 10
112800.0
 20
23280.0
 10
113640.0
 20
22560.0
 97
0
 75
0
 76
1
 98
0
  0
TEXT
  5
14D
330
17
100
AcDbEntity
  8
A-SYMB
100
AcDbText
 10
112800.0
 20
27000.0
 30
0.0
 40
1400.0
  1
N
  7
JP
 72
1
 11
112800.0
 21
27000.0
 31
0.0
100
AcDbText
 73
1
  0
TEXT
  5
14E
330
17
100
AcDbEntity
  8
A-TEXT
100
AcDbText
 10
7200.0
 20
8800.0
 30
0.0
 40
1600.0
  1
外構・雨水排水計画図
  7
JP
 11
7200.0
 21
8800.0
 31
0.0
100
AcDbText
 73
1
  0
LINE
  5
14F
330
17
100
AcDbEntity
  8
A-SYMB
370
50
100
AcDbLine
 10
7200.0
 20
8320.0
 30
0.0
 11
30479.999999999996
 21
8320.0
 31
0.0
  0
TEXT
  5
150
330
17
100
AcDbEntity
  8
A-TEXT
100
AcDbText
 10
30879.999999999996
 20
8800.0
 30
0.0
 40
1120.0
  1
S=1:400
  7
JP
 11
30879.999999999996
 21
8800.0
 31
0.0
100
AcDbText
 73
1
  0
LWPOLYLINE
  5
151
330
17
100
AcDbEntity
  8
A-FENCE
100
AcDbPolyline
 90
4
 70
1
 10
120000.0
 20
111800.0
 10
124800.0
 20
111800.0
 10
124800.0
 20
112200.0
 10
120000.0
 20
112200.0
  0
HATCH
  5
152
330
17
100
AcDbEntity
  8
A-CUT-HATCH
 62
7
100
AcDbHatch
 10
0.0
 20
0.0
 30
0.0
210
0.0
220
0.0
230
1.0
  2
ANSI31
 70
0
 71
0
 91
1
 92
3
 72
0
 73
1
 93
4
 10
124800.0
 20
111800.0
 10
124800.0
 20
112200.0
 10
120000.0
 20
112200.0
 10
120000.0
 20
111800.0
 97
0
 75
1
 76
1
 52
0.0
 41
125.98425196850394
 77
0
 78
1
 53
45.0
 43
0.0
 44
0.0
 45
-282.8427124787
 46
282.8427124787
 79
0
 98
0
  0
TEXT
  5
153
330
17
100
AcDbEntity
  8
A-TEXT
100
AcDbText
 10
126000.0
 20
111640.00000000001
 30
0.0
 40
800.0
  1
RC塀 t=150（数値=FGLからの天端高 m）
  7
JP
 11
126000.0
 21
111640.00000000001
 31
0.0
100
AcDbText
  0
HATCH
  5
154
330
17
100
AcDbEntity
  8
A-PAVE
 62
7
100
AcDbHatch
 10
0.0
 20
0.0
 30
0.0
210
0.0
220
0.0
230
1.0
  2
NET
 70
0
 71
0
 91
1
 92
3
 72
0
 73
1
 93
4
 10
124800.0
 20
109719.99999999999
 10
124800.0
 20
110599.99999999999
 10
120000.0
 20
110599.99999999999
 10
120000.0
 20
109719.99999999999
 97
0
 75
1
 76
1
 52
0.0
 41
151.18110236220474
 77
0
 78
2
 53
0.0
 43
0.0
 44
0.0
 45
0.0
 46
480.0
 79
0
 53
90.0
 43
0.0
 44
0.0
 45
-480.0
 46
0.0
 79
0
 98
0
  0
LWPOLYLINE
  5
155
330
17
100
AcDbEntity
  8
A-PAVE
100
AcDbPolyline
 90
4
 70
1
 10
120000.0
 20
109719.99999999999
 10
124800.0
 20
109719.99999999999
 10
124800.0
 20
110599.99999999999
 10
120000.0
 20
110599.99999999999
  0
TEXT
  5
156
330
17
100
AcDbEntity
  8
A-TEXT
100
AcDbText
 10
126000.0
 20
109800.0
 30
0.0
 40
800.0
  1
Dotcon+ 透水舗装
  7
JP
 11
126000.0
 21
109800.0
 31
0.0
100
AcDbText
  0
LINE
  5
157
330
17
100
AcDbEntity
  8
A-DRAIN
100
AcDbLine
 10
120000.0
 20
108319.99999999999
 30
0.0
 11
124800.0
 21
108319.99999999999
 31
0.0
  0
TEXT
  5
158
330
17
100
AcDbEntity
  8
A-TEXT
100
AcDbText
 10
126000.0
 20
107959.99999999999
 30
0.0
 40
800.0
  1
浸透トレンチ・浸透桝・貯留槽
  7
JP
 11
126000.0
 21
107959.99999999999
 31
0.0
100
AcDbText
  0
LINE
  5
159
330
17
100
AcDbEntity
  8
A-FLOOD
100
AcDbLine
 10
120000.0
 20
106479.99999999997
 30
0.0
 11
124800.0
 21
106479.99999999997
 31
0.0
  0
TEXT
  5
15A
330
17
100
AcDbEntity
  8
A-TEXT
100
AcDbText
 10
126000.0
 20
106119.99999999999
 30
0.0
 40
800.0
  1
表流水の流入方向
  7
JP
 11
126000.0
 21
106119.99999999999
 31
0.0
100
AcDbText
  0
LINE
  5
15B
330
17
100
AcDbEntity
  8
A-SITE
100
AcDbLine
 10
120000.0
 20
104639.99999999997
 30
0.0
 11
124800.0
 21
104639.99999999997
 31
0.0
  0
TEXT
  5
15C
330
17
100
AcDbEntity
  8
A-TEXT
100
AcDbText
 10
126000.0
 20
104279.99999999997
 30
0.0
 40
800.0
  1
敷地境界（推定）
  7
JP
 11
126000.0
 21
104279.99999999997
 31
0.0
100
AcDbText
  0
TEXT
  5
15D
330
17
100
AcDbEntity
  8
A-TEXT
100
AcDbText
 10
120000.0
 20
100800.0
 30
0.0
 40
1200.0
  1
内水対策
  7
JP
 11
120000.0
 21
100800.0
 31
0.0
100
AcDbText
  0
TEXT
  5
15E
330
17
100
AcDbEntity
  8
A-TEXT
100
AcDbText
 10
120400.0
 20
98600.0
 30
0.0
 40
840.0
  1
1. RC塀の基礎〜FGL+600を止水構造。門扉には着脱式止水板 H600
  7
JP
 11
120400.0
 21
98600.0
 31
0.0
100
AcDbText
  0
TEXT
  5
15F
330
17
100
AcDbEntity
  8
A-TEXT
100
AcDbText
 10
120400.0
 20
96680.0
 30
0.0
 40
840.0
  1
2. Dotcon+ 約177m² × 13L/m² ≒ 2.3m³ の一時貯留
  7
JP
 11
120400.0
 21
96680.0
 31
0.0
100
AcDbText
  0
TEXT
  5
160
330
17
100
AcDbEntity
  8
A-TEXT
100
AcDbText
 10
120400.0
 20
94759.99999999999
 30
0.0
 40
840.0
  1
3. 地下貯留槽 25m³＋浸透トレンチ・浸透桝（透水係数は地盤調査で確認）
  7
JP
 11
120400.0
 21
94759.99999999999
 31
0.0
100
AcDbText
  0
TEXT
  5
161
330
17
100
AcDbEntity
  8
A-TEXT
100
AcDbText
 10
120400.0
 20
92839.99999999999
 30
0.0
 40
840.0
  1
4. 塀の低い位置にフラップ弁付き排水口（道路側溝からの逆流防止）
  7
JP
 11
120400.0
 21
92839.99999999999
 31
0.0
100
AcDbText
  0
TEXT
  5
162
330
17
100
AcDbEntity
  8
A-TEXT
100
AcDbText
 10
120400.0
 20
90919.99999999999
 30
0.0
 40
840.0
  1
5. 建物: 1FL=GL+1,500、床下は設備ピット、逆流防止弁・排水ポンプ（非常
  7
JP
 11
120400.0
 21
90919.99999999999
 31
0.0
100
AcDbText
  0
TEXT
  5
163
330
17
100
AcDbEntity
  8
A-TEXT
100
AcDbText
 10
120400.0
 20
89399.99999999997
 30
0.0
 40
840.0
  1
電源）
  7
JP
 11
120400.0
 21
89399.99999999997
 31
0.0
100
AcDbText
  0
TEXT
  5
164
330
17
100
AcDbEntity
  8
A-TEXT
100
AcDbText
 10
120400.0
 20
87479.99999999997
 30
0.0
 40
840.0
  1
参考: 時間雨量50mmで敷地全体の流出量は約158m³/h。貯留・浸透は初期雨水
  7
JP
 11
120400.0
 21
87479.99999999997
 31
0.0
100
AcDbText
  0
TEXT
  5
165
330
17
100
AcDbEntity
  8
A-TEXT
100
AcDbText
 10
120400.0
 20
85959.99999999997
 30
0.0
 40
840.0
  1
の抑制が主目的で、超過分は止水と排水ポンプで対応
  7
JP
 11
120400.0
 21
85959.99999999997
 31
0.0
100
AcDbText
  0
TEXT
  5
166
330
17
100
AcDbEntity
  8
A-TEXT
100
AcDbText
 10
120000.0
 20
84039.99999999997
 30
0.0
 40
1200.0
  1
防犯
  7
JP
 11
120000.0
 21
84039.99999999997
 31
0.0
100
AcDbText
  0
TEXT
  5
167
330
17
100
AcDbEntity
  8
A-TEXT
100
AcDbText
 10
120400.0
 20
81839.99999999997
 30
0.0
 40
840.0
  1
RC塀 H2.0m（東側の坂道沿いは道路面+1.2m以上）。上部に侵入防止金物、セ
  7
JP
 11
120400.0
 21
81839.99999999997
 31
0.0
100
AcDbText
  0
TEXT
  5
168
330
17
100
AcDbEntity
  8
A-TEXT
100
AcDbText
 10
120400.0
 20
80319.99999999996
 30
0.0
 40
840.0
  1
ンサーライト・防犯カメラ、門扉は塀と同じ高さ
  7
JP
 11
120400.0
 21
80319.99999999996
 31
0.0
100
AcDbText
  0
ENDSEC
  0
SECTION
  2
OBJECTS
  0
DICTIONARY
  5
A
330
0
100
AcDbDictionary
281
1
  3
ACAD_COLOR
350
B
  3
ACAD_GROUP
350
C
  3
ACAD_LAYOUT
350
D
  3
ACAD_MATERIAL
350
E
  3
ACAD_MLEADERSTYLE
350
F
  3
ACAD_MLINESTYLE
350
10
  3
ACAD_PLOTSETTINGS
350
11
  3
ACAD_PLOTSTYLENAME
350
12
  3
ACAD_SCALELIST
350
14
  3
ACAD_TABLESTYLE
350
15
  3
ACAD_VISUALSTYLE
350
16
  3
EZDXF_META
350
2D
  0
DICTIONARY
  5
B
330
A
100
AcDbDictionary
281
1
  0
DICTIONARY
  5
C
330
A
100
AcDbDictionary
281
1
  0
DICTIONARY
  5
D
330
A
100
AcDbDictionary
281
1
  3
Model
350
1A
  3
Layout1
350
1E
  0
DICTIONARY
  5
E
330
A
100
AcDbDictionary
281
1
  3
ByBlock
350
1F
  3
ByLayer
350
20
  3
Global
350
21
  0
DICTIONARY
  5
F
330
A
100
AcDbDictionary
281
1
  3
Standard
350
2C
  0
DICTIONARY
  5
10
330
A
100
AcDbDictionary
281
1
  3
Standard
350
22
  0
DICTIONARY
  5
11
330
A
100
AcDbDictionary
281
1
  0
ACDBDICTIONARYWDFLT
  5
12
330
A
100
AcDbDictionary
281
1
  3
Normal
350
13
100
AcDbDictionaryWithDefault
340
13
  0
ACDBPLACEHOLDER
  5
13
330
12
  0
DICTIONARY
  5
14
330
A
100
AcDbDictionary
281
1
  0
DICTIONARY
  5
15
330
A
100
AcDbDictionary
281
1
  0
DICTIONARY
  5
16
330
A
100
AcDbDictionary
281
1
  3
2dWireframe
350
5A
  3
Basic
350
5B
  3
Brighten
350
5C
  3
ColorChange
350
5D
  3
Conceptual
350
5E
  3
Dim
350
5F
  3
EdgeColorOff
350
60
  3
Facepattern
350
61
  3
Flat
350
62
  3
FlatWithEdges
350
63
  3
Gouraud
350
64
  3
GouraudWithEdges
350
65
  3
Hidden
350
66
  3
JitterOff
350
67
  3
Linepattern
350
68
  3
Modeling
350
69
  3
OverhangOff
350
6A
  3
Realistic
350
6B
  3
Shaded
350
6C
  3
Shaded with edges
350
6D
  3
Shades of Gray
350
6E
  3
Sketchy
350
6F
  3
Thicken
350
70
  3
Wireframe
350
71
  3
X-Ray
350
72
  0
LAYOUT
  5
1A
330
D
100
AcDbPlotSettings
  1

  4
A3
  6

 40
7.5
 41
20.0
 42
7.5
 43
20.0
 44
420.0
 45
297.0
 46
0.0
 47
0.0
 48
0.0
 49
0.0
140
0.0
141
0.0
142
1.0
143
1.0
 70
1024
 72
1
 73
0
 74
5
  7

 75
16
 76
0
 77
2
 78
300
147
1.0
148
0.0
149
0.0
100
AcDbLayout
  1
Model
 70
1
 71
0
 10
0.0
 20
0.0
 11
420.0
 21
297.0
 12
0.0
 22
0.0
 32
0.0
 14
1e+20
 24
1e+20
 34
1e+20
 15
-1e+20
 25
-1e+20
 35
-1e+20
146
0.0
 13
0.0
 23
0.0
 33
0.0
 16
1.0
 26
0.0
 36
0.0
 17
0.0
 27
1.0
 37
0.0
 76
1
330
17
  0
LAYOUT
  5
1E
330
D
100
AcDbPlotSettings
  1

  4
A3
  6

 40
7.5
 41
20.0
 42
7.5
 43
20.0
 44
420.0
 45
297.0
 46
0.0
 47
0.0
 48
0.0
 49
0.0
140
0.0
141
0.0
142
1.0
143
1.0
 70
0
 72
1
 73
0
 74
5
  7

 75
16
 76
0
 77
2
 78
300
147
1.0
148
0.0
149
0.0
100
AcDbLayout
  1
Layout1
 70
1
 71
1
 10
0.0
 20
0.0
 11
420.0
 21
297.0
 12
0.0
 22
0.0
 32
0.0
 14
1e+20
 24
1e+20
 34
1e+20
 15
-1e+20
 25
-1e+20
 35
-1e+20
146
0.0
 13
0.0
 23
0.0
 33
0.0
 16
1.0
 26
0.0
 36
0.0
 17
0.0
 27
1.0
 37
0.0
 76
1
330
1B
  0
MATERIAL
  5
1F
102
{ACAD_REACTORS
330
E
102
}
330
E
100
AcDbMaterial
  1
ByBlock
  2

 70
0
 40
1.0
 71
1
 41
1.0
 91
-1023410177
 42
1.0
 72
1
  3

 73
1
 74
1
 75
1
 44
0.5
 73
0
 45
1.0
 46
1.0
 77
1
  4

 78
1
 79
1
170
1
 48
1.0
171
1
  6

172
1
173
1
174
1
140
1.0
141
1.0
175
1
  7

176
1
177
1
178
1
143
1.0
179
1
  8

270
1
271
1
272
1
145
1.0
146
1.0
273
1
  9

274
1
275
1
276
1
 42
1.0
 72
1
  3

 73
1
 74
1
 75
1
 94
63
  0
MATERIAL
  5
20
102
{ACAD_REACTORS
330
E
102
}
330
E
100
AcDbMaterial
  1
ByLayer
  2

 70
0
 40
1.0
 71
1
 41
1.0
 91
-1023410177
 42
1.0
 72
1
  3

 73
1
 74
1
 75
1
 44
0.5
 73
0
 45
1.0
 46
1.0
 77
1
  4

 78
1
 79
1
170
1
 48
1.0
171
1
  6

172
1
173
1
174
1
140
1.0
141
1.0
175
1
  7

176
1
177
1
178
1
143
1.0
179
1
  8

270
1
271
1
272
1
145
1.0
146
1.0
273
1
  9

274
1
275
1
276
1
 42
1.0
 72
1
  3

 73
1
 74
1
 75
1
 94
63
  0
MATERIAL
  5
21
102
{ACAD_REACTORS
330
E
102
}
330
E
100
AcDbMaterial
  1
Global
  2

 70
0
 40
1.0
 71
1
 41
1.0
 91
-1023410177
 42
1.0
 72
1
  3

 73
1
 74
1
 75
1
 44
0.5
 73
0
 45
1.0
 46
1.0
 77
1
  4

 78
1
 79
1
170
1
 48
1.0
171
1
  6

172
1
173
1
174
1
140
1.0
141
1.0
175
1
  7

176
1
177
1
178
1
143
1.0
179
1
  8

270
1
271
1
272
1
145
1.0
146
1.0
273
1
  9

274
1
275
1
276
1
 42
1.0
 72
1
  3

 73
1
 74
1
 75
1
 94
63
  0
MLINESTYLE
  5
22
102
{ACAD_REACTORS
330
10
102
}
330
10
100
AcDbMlineStyle
  2
Standard
 70
0
  3

 62
256
 51
90.0
 52
90.0
 71
2
 49
0.5
 62
256
  6
BYLAYER
 49
-0.5
 62
256
  6
BYLAYER
  0
MLEADERSTYLE
  5
2C
102
{ACAD_REACTORS
330
F
102
}
330
F
100
AcDbMLeaderStyle
179
2
170
2
171
1
172
0
 90
2
 40
0.0
 41
0.0
173
1
 91
-1056964608
 92
-2
290
1
 42
2.0
291
1
 43
8.0
  3
Standard
 44
4.0
300

342
29
174
1
175
1
176
0
178
1
 93
-1056964608
 45
4.0
292
0
297
0
 46
4.0
 94
-1056964608
 47
1.0
 49
1.0
140
1.0
294
1
141
0.0
177
0
142
1.0
295
0
296
0
143
3.75
271
0
272
9
273
9
  0
DICTIONARY
  5
2D
330
A
100
AcDbDictionary
280
1
281
1
  3
CREATED_BY_EZDXF
350
2E
  3
WRITTEN_BY_EZDXF
350
16B
  0
DICTIONARYVAR
  5
2E
330
2D
100
DictionaryVariables
280
0
  1
1.4.4 @ 2026-10-03T03:04:46.588249+00:00
  0
VISUALSTYLE
  5
5A
102
{ACAD_REACTORS
330
16
102
}
330
16
100
AcDbVisualStyle
  2
2dWireframe
 70
4
177
3
291
0
 70
58
 90
2
176
1
 90
2
176
1
 90
0
176
1
 90
0
176
1
 40
0.6
176
1
 40
30.0
176
1
 62
7
420
16777215
176
1
 90
1
176
1
 90
4
176
1
 62
7
176
1
 62
257
176
1
 90
1
176
1
 90
1
176
1
 40
1.0
176
1
 90
8
176
1
 62
7
176
1
 40
1.0
176
1
 90
1
176
1
 90
6
176
1
 90
2
176
1
 62
7
176
1
 90
5
176
1
 90
0
176
1
 90
0
176
1
290
0
176
1
 90
1
176
1
 40
0.0
176
1
 90
0
176
1
290
1
176
1
290
1
176
1
290
0
176
1
290
0
176
1
290
0
176
1
290
0
176
1
290
0
176
1
290
0
176
1
290
0
176
1
 90
50
176
1
 40
0.0
176
1
 40
1.0
176
1
 90
0
176
1
 62
18
420
0
176
1
 90
50
176
1
 90
3
176
1
 62
5
420
255
176
1
290
0
176
1
 90
50
176
1
 90
50
176
1
 90
50
176
1
290
0
176
1
 90
50
176
1
 62
256
176
0
 40
1.0
176
0
 90
2
176
1
  1
strokes_ogs.tif
176
1
290
0
176
1
 40
1.0
176
1
 40
1.0
176
1
  0
VISUALSTYLE
  5
5B
102
{ACAD_REACTORS
330
16
102
}
330
16
100
AcDbVisualStyle
  2
Basic
 70
7
177
3
291
1
 70
58
 90
2
176
1
 90
2
176
1
 90
0
176
1
 90
1
176
1
 40
0.6
176
1
 40
30.0
176
1
 62
7
420
16777215
176
1
 90
1
176
1
 90
4
176
1
 62
7
176
1
 62
257
176
1
 90
1
176
1
 90
1
176
1
 40
1.0
176
1
 90
8
176
1
 62
7
176
1
 40
1.0
176
1
 90
1
176
1
 90
6
176
1
 90
2
176
1
 62
7
176
1
 90
5
176
1
 90
0
176
1
 90
0
176
1
290
0
176
1
 90
1
176
1
 40
0.0
176
1
 90
0
176
1
290
0
176
1
290
1
176
1
290
1
176
1
290
0
176
1
290
0
176
1
290
0
176
1
290
0
176
1
290
0
176
1
290
0
176
1
 90
50
176
1
 40
0.0
176
1
 40
1.0
176
1
 90
0
176
1
 62
18
420
0
176
1
 90
50
176
1
 90
3
176
1
 62
5
420
255
176
1
290
0
176
1
 90
50
176
1
 90
50
176
1
 90
50
176
1
290
0
176
1
 90
50
176
1
 62
256
176
0
 40
1.0
176
0
 90
2
176
1
  1
strokes_ogs.tif
176
1
290
0
176
1
 40
1.0
176
1
 40
1.0
176
1
  0
VISUALSTYLE
  5
5C
102
{ACAD_REACTORS
330
16
102
}
330
16
100
AcDbVisualStyle
  2
Brighten
 70
12
177
3
291
1
 70
58
 90
2
176
1
 90
2
176
1
 90
0
176
1
 90
2
176
1
 40
0.6
176
1
 40
30.0
176
1
 62
7
420
16777215
176
1
 90
1
176
1
 90
4
176
1
 62
7
176
1
 62
257
176
1
 90
1
176
1
 90
1
176
1
 40
1.0
176
1
 90
8
176
1
 62
7
176
1
 40
1.0
176
1
 90
1
176
1
 90
6
176
1
 90
2
176
1
 62
7
176
1
 90
5
176
1
 90
0
176
1
 90
0
176
1
290
0
176
1
 90
1
176
1
 40
0.0
176
1
 90
0
176
1
290
0
176
1
290
1
176
1
290
1
176
1
290
0
176
1
290
0
176
1
290
0
176
1
290
0
176
1
290
0
176
1
290
0
176
1
 90
50
176
1
 40
0.0
176
1
 40
1.0
176
1
 90
0
176
1
 62
18
420
0
176
1
 90
50
176
1
 90
3
176
1
 62
5
420
255
176
1
290
0
176
1
 90
50
176
1
 90
50
176
1
 90
50
176
1
290
0
176
1
 90
50
176
1
 62
256
176
0
 40
1.0
176
0
 90
2
176
1
  1
strokes_ogs.tif
176
1
290
0
176
1
 40
1.0
176
1
 40
1.0
176
1
  0
VISUALSTYLE
  5
5D
102
{ACAD_REACTORS
330
16
102
}
330
16
100
AcDbVisualStyle
  2
ColorChange
 70
16
177
3
291
1
 70
58
 90
2
176
1
 90
2
176
1
 90
0
176
1
 90
2
176
1
 40
0.6
176
1
 40
30.0
176
1
 62
7
420
16777215
176
1
 90
1
176
1
 90
4
176
1
 62
7
176
1
 62
257
176
1
 90
1
176
1
 90
1
176
1
 40
1.0
176
1
 90
8
176
1
 62
7
176
1
 40
1.0
176
1
 90
1
176
1
 90
6
176
1
 90
2
176
1
 62
7
176
1
 90
5
176
1
 90
0
176
1
 90
0
176
1
290
0
176
1
 90
1
176
1
 40
0.0
176
1
 90
0
176
1
290
0
176
1
290
1
176
1
290
1
176
1
290
0
176
1
290
0
176
1
290
0
176
1
290
0
176
1
290
0
176
1
290
0
176
1
 90
50
176
1
 40
0.0
176
1
 40
1.0
176
1
 90
0
176
1
 62
18
420
0
176
1
 90
50
176
1
 90
3
176
1
 62
5
420
255
176
1
290
0
176
1
 90
50
176
1
 90
50
176
1
 90
50
176
1
290
0
176
1
 90
50
176
1
 62
256
176
0
 40
1.0
176
0
 90
2
176
1
  1
strokes_ogs.tif
176
1
290
0
176
1
 40
1.0
176
1
 40
1.0
176
1
  0
VISUALSTYLE
  5
5E
102
{ACAD_REACTORS
330
16
102
}
330
16
100
AcDbVisualStyle
  2
Conceptual
 70
9
177
3
291
0
 70
58
 90
2
176
1
 90
2
176
1
 90
0
176
1
 90
3
176
1
 40
0.6
176
1
 40
30.0
176
1
 62
7
420
16777215
176
1
 90
1
176
1
 90
4
176
1
 62
7
176
1
 62
257
176
1
 90
1
176
1
 90
1
176
1
 40
1.0
176
1
 90
8
176
1
 62
7
176
1
 40
1.0
176
1
 90
1
176
1
 90
6
176
1
 90
2
176
1
 62
7
176
1
 90
5
176
1
 90
0
176
1
 90
0
176
1
290
0
176
1
 90
1
176
1
 40
0.0
176
1
 90
0
176
1
290
0
176
1
290
1
176
1
290
1
176
1
290
0
176
1
290
0
176
1
290
0
176
1
290
0
176
1
290
0
176
1
290
0
176
1
 90
50
176
1
 40
0.0
176
1
 40
1.0
176
1
 90
0
176
1
 62
18
420
0
176
1
 90
50
176
1
 90
3
176
1
 62
5
420
255
176
1
290
0
176
1
 90
50
176
1
 90
50
176
1
 90
50
176
1
290
0
176
1
 90
50
176
1
 62
256
176
0
 40
1.0
176
0
 90
2
176
1
  1
strokes_ogs.tif
176
1
290
0
176
1
 40
1.0
176
1
 40
1.0
176
1
  0
VISUALSTYLE
  5
5F
102
{ACAD_REACTORS
330
16
102
}
330
16
100
AcDbVisualStyle
  2
Dim
 70
11
177
3
291
1
 70
58
 90
2
176
1
 90
2
176
1
 90
0
176
1
 90
2
176
1
 40
0.6
176
1
 40
30.0
176
1
 62
7
420
16777215
176
1
 90
1
176
1
 90
4
176
1
 62
7
176
1
 62
257
176
1
 90
1
176
1
 90
1
176
1
 40
1.0
176
1
 90
8
176
1
 62
7
176
1
 40
1.0
176
1
 90
1
176
1
 90
6
176
1
 90
2
176
1
 62
7
176
1
 90
5
176
1
 90
0
176
1
 90
0
176
1
290
0
176
1
 90
1
176
1
 40
0.0
176
1
 90
0
176
1
290
0
176
1
290
1
176
1
290
1
176
1
290
0
176
1
290
0
176
1
290
0
176
1
290
0
176
1
290
0
176
1
290
0
176
1
 90
50
176
1
 40
0.0
176
1
 40
1.0
176
1
 90
0
176
1
 62
18
420
0
176
1
 90
50
176
1
 90
3
176
1
 62
5
420
255
176
1
290
0
176
1
 90
50
176
1
 90
50
176
1
 90
50
176
1
290
0
176
1
 90
50
176
1
 62
256
176
0
 40
1.0
176
0
 90
2
176
1
  1
strokes_ogs.tif
176
1
290
0
176
1
 40
1.0
176
1
 40
1.0
176
1
  0
VISUALSTYLE
  5
60
102
{ACAD_REACTORS
330
16
102
}
330
16
100
AcDbVisualStyle
  2
EdgeColorOff
 70
22
177
3
291
1
 70
58
 90
2
176
1
 90
2
176
1
 90
0
176
1
 90
2
176
1
 40
0.6
176
1
 40
30.0
176
1
 62
7
420
16777215
176
1
 90
1
176
1
 90
4
176
1
 62
7
176
1
 62
257
176
1
 90
1
176
1
 90
1
176
1
 40
1.0
176
1
 90
8
176
1
 62
7
176
1
 40
1.0
176
1
 90
1
176
1
 90
6
176
1
 90
2
176
1
 62
7
176
1
 90
5
176
1
 90
0
176
1
 90
0
176
1
290
0
176
1
 90
1
176
1
 40
0.0
176
1
 90
0
176
1
290
0
176
1
290
1
176
1
290
1
176
1
290
0
176
1
290
0
176
1
290
0
176
1
290
0
176
1
290
0
176
1
290
0
176
1
 90
50
176
1
 40
0.0
176
1
 40
1.0
176
1
 90
0
176
1
 62
18
420
0
176
1
 90
50
176
1
 90
3
176
1
 62
5
420
255
176
1
290
0
176
1
 90
50
176
1
 90
50
176
1
 90
50
176
1
290
0
176
1
 90
50
176
1
 62
256
176
0
 40
1.0
176
0
 90
2
176
1
  1
strokes_ogs.tif
176
1
290
0
176
1
 40
1.0
176
1
 40
1.0
176
1
  0
VISUALSTYLE
  5
61
102
{ACAD_REACTORS
330
16
102
}
330
16
100
AcDbVisualStyle
  2
Facepattern
 70
15
177
3
291
1
 70
58
 90
2
176
1
 90
2
176
1
 90
0
176
1
 90
2
176
1
 40
0.6
176
1
 40
30.0
176
1
 62
7
420
16777215
176
1
 90
1
176
1
 90
4
176
1
 62
7
176
1
 62
257
176
1
 90
1
176
1
 90
1
176
1
 40
1.0
176
1
 90
8
176
1
 62
7
176
1
 40
1.0
176
1
 90
1
176
1
 90
6
176
1
 90
2
176
1
 62
7
176
1
 90
5
176
1
 90
0
176
1
 90
0
176
1
290
0
176
1
 90
1
176
1
 40
0.0
176
1
 90
0
176
1
290
0
176
1
290
1
176
1
290
1
176
1
290
0
176
1
290
0
176
1
290
0
176
1
290
0
176
1
290
0
176
1
290
0
176
1
 90
50
176
1
 40
0.0
176
1
 40
1.0
176
1
 90
0
176
1
 62
18
420
0
176
1
 90
50
176
1
 90
3
176
1
 62
5
420
255
176
1
290
0
176
1
 90
50
176
1
 90
50
176
1
 90
50
176
1
290
0
176
1
 90
50
176
1
 62
256
176
0
 40
1.0
176
0
 90
2
176
1
  1
strokes_ogs.tif
176
1
290
0
176
1
 40
1.0
176
1
 40
1.0
176
1
  0
VISUALSTYLE
  5
62
102
{ACAD_REACTORS
330
16
102
}
330
16
100
AcDbVisualStyle
  2
Flat
 70
0
177
3
291
1
 70
58
 90
2
176
1
 90
2
176
1
 90
0
176
1
 90
2
176
1
 40
0.6
176
1
 40
30.0
176
1
 62
7
420
16777215
176
1
 90
1
176
1
 90
4
176
1
 62
7
176
1
 62
257
176
1
 90
1
176
1
 90
1
176
1
 40
1.0
176
1
 90
8
176
1
 62
7
176
1
 40
1.0
176
1
 90
1
176
1
 90
6
176
1
 90
2
176
1
 62
7
176
1
 90
5
176
1
 90
0
176
1
 90
0
176
1
290
0
176
1
 90
1
176
1
 40
0.0
176
1
 90
0
176
1
290
0
176
1
290
1
176
1
290
1
176
1
290
0
176
1
290
0
176
1
290
0
176
1
290
0
176
1
290
0
176
1
290
0
176
1
 90
50
176
1
 40
0.0
176
1
 40
1.0
176
1
 90
0
176
1
 62
18
420
0
176
1
 90
50
176
1
 90
3
176
1
 62
5
420
255
176
1
290
0
176
1
 90
50
176
1
 90
50
176
1
 90
50
176
1
290
0
176
1
 90
50
176
1
 62
256
176
0
 40
1.0
176
0
 90
2
176
1
  1
strokes_ogs.tif
176
1
290
0
176
1
 40
1.0
176
1
 40
1.0
176
1
  0
VISUALSTYLE
  5
63
102
{ACAD_REACTORS
330
16
102
}
330
16
100
AcDbVisualStyle
  2
FlatWithEdges
 70
1
177
3
291
1
 70
58
 90
2
176
1
 90
2
176
1
 90
0
176
1
 90
2
176
1
 40
0.6
176
1
 40
30.0
176
1
 62
7
420
16777215
176
1
 90
1
176
1
 90
4
176
1
 62
7
176
1
 62
257
176
1
 90
1
176
1
 90
1
176
1
 40
1.0
176
1
 90
8
176
1
 62
7
176
1
 40
1.0
176
1
 90
1
176
1
 90
6
176
1
 90
2
176
1
 62
7
176
1
 90
5
176
1
 90
0
176
1
 90
0
176
1
290
0
176
1
 90
1
176
1
 40
0.0
176
1
 90
0
176
1
290
0
176
1
290
1
176
1
290
1
176
1
290
0
176
1
290
0
176
1
290
0
176
1
290
0
176
1
290
0
176
1
290
0
176
1
 90
50
176
1
 40
0.0
176
1
 40
1.0
176
1
 90
0
176
1
 62
18
420
0
176
1
 90
50
176
1
 90
3
176
1
 62
5
420
255
176
1
290
0
176
1
 90
50
176
1
 90
50
176
1
 90
50
176
1
290
0
176
1
 90
50
176
1
 62
256
176
0
 40
1.0
176
0
 90
2
176
1
  1
strokes_ogs.tif
176
1
290
0
176
1
 40
1.0
176
1
 40
1.0
176
1
  0
VISUALSTYLE
  5
64
102
{ACAD_REACTORS
330
16
102
}
330
16
100
AcDbVisualStyle
  2
Gouraud
 70
2
177
3
291
1
 70
58
 90
2
176
1
 90
2
176
1
 90
0
176
1
 90
2
176
1
 40
0.6
176
1
 40
30.0
176
1
 62
7
420
16777215
176
1
 90
1
176
1
 90
4
176
1
 62
7
176
1
 62
257
176
1
 90
1
176
1
 90
1
176
1
 40
1.0
176
1
 90
8
176
1
 62
7
176
1
 40
1.0
176
1
 90
1
176
1
 90
6
176
1
 90
2
176
1
 62
7
176
1
 90
5
176
1
 90
0
176
1
 90
0
176
1
290
0
176
1
 90
1
176
1
 40
0.0
176
1
 90
0
176
1
290
0
176
1
290
1
176
1
290
1
176
1
290
0
176
1
290
0
176
1
290
0
176
1
290
0
176
1
290
0
176
1
290
0
176
1
 90
50
176
1
 40
0.0
176
1
 40
1.0
176
1
 90
0
176
1
 62
18
420
0
176
1
 90
50
176
1
 90
3
176
1
 62
5
420
255
176
1
290
0
176
1
 90
50
176
1
 90
50
176
1
 90
50
176
1
290
0
176
1
 90
50
176
1
 62
256
176
0
 40
1.0
176
0
 90
2
176
1
  1
strokes_ogs.tif
176
1
290
0
176
1
 40
1.0
176
1
 40
1.0
176
1
  0
VISUALSTYLE
  5
65
102
{ACAD_REACTORS
330
16
102
}
330
16
100
AcDbVisualStyle
  2
GouraudWithEdges
 70
3
177
3
291
1
 70
58
 90
2
176
1
 90
2
176
1
 90
0
176
1
 90
2
176
1
 40
0.6
176
1
 40
30.0
176
1
 62
7
420
16777215
176
1
 90
1
176
1
 90
4
176
1
 62
7
176
1
 62
257
176
1
 90
1
176
1
 90
1
176
1
 40
1.0
176
1
 90
8
176
1
 62
7
176
1
 40
1.0
176
1
 90
1
176
1
 90
6
176
1
 90
2
176
1
 62
7
176
1
 90
5
176
1
 90
0
176
1
 90
0
176
1
290
0
176
1
 90
1
176
1
 40
0.0
176
1
 90
0
176
1
290
0
176
1
290
1
176
1
290
1
176
1
290
0
176
1
290
0
176
1
290
0
176
1
290
0
176
1
290
0
176
1
290
0
176
1
 90
50
176
1
 40
0.0
176
1
 40
1.0
176
1
 90
0
176
1
 62
18
420
0
176
1
 90
50
176
1
 90
3
176
1
 62
5
420
255
176
1
290
0
176
1
 90
50
176
1
 90
50
176
1
 90
50
176
1
290
0
176
1
 90
50
176
1
 62
256
176
0
 40
1.0
176
0
 90
2
176
1
  1
strokes_ogs.tif
176
1
290
0
176
1
 40
1.0
176
1
 40
1.0
176
1
  0
VISUALSTYLE
  5
66
102
{ACAD_REACTORS
330
16
102
}
330
16
100
AcDbVisualStyle
  2
Hidden
 70
6
177
3
291
0
 70
58
 90
2
176
1
 90
2
176
1
 90
0
176
1
 90
1
176
1
 40
0.6
176
1
 40
30.0
176
1
 62
7
420
16777215
176
1
 90
1
176
1
 90
4
176
1
 62
7
176
1
 62
257
176
1
 90
1
176
1
 90
1
176
1
 40
1.0
176
1
 90
8
176
1
 62
7
176
1
 40
1.0
176
1
 90
1
176
1
 90
6
176
1
 90
2
176
1
 62
7
176
1
 90
5
176
1
 90
0
176
1
 90
0
176
1
290
0
176
1
 90
1
176
1
 40
0.0
176
1
 90
0
176
1
290
0
176
1
290
1
176
1
290
1
176
1
290
0
176
1
290
0
176
1
290
0
176
1
290
0
176
1
290
0
176
1
290
0
176
1
 90
50
176
1
 40
0.0
176
1
 40
1.0
176
1
 90
0
176
1
 62
18
420
0
176
1
 90
50
176
1
 90
3
176
1
 62
5
420
255
176
1
290
0
176
1
 90
50
176
1
 90
50
176
1
 90
50
176
1
290
0
176
1
 90
50
176
1
 62
256
176
0
 40
1.0
176
0
 90
2
176
1
  1
strokes_ogs.tif
176
1
290
0
176
1
 40
1.0
176
1
 40
1.0
176
1
  0
VISUALSTYLE
  5
67
102
{ACAD_REACTORS
330
16
102
}
330
16
100
AcDbVisualStyle
  2
JitterOff
 70
20
177
3
291
1
 70
58
 90
2
176
1
 90
2
176
1
 90
0
176
1
 90
2
176
1
 40
0.6
176
1
 40
30.0
176
1
 62
7
420
16777215
176
1
 90
1
176
1
 90
4
176
1
 62
7
176
1
 62
257
176
1
 90
1
176
1
 90
1
176
1
 40
1.0
176
1
 90
8
176
1
 62
7
176
1
 40
1.0
176
1
 90
1
176
1
 90
6
176
1
 90
2
176
1
 62
7
176
1
 90
5
176
1
 90
0
176
1
 90
0
176
1
290
0
176
1
 90
1
176
1
 40
0.0
176
1
 90
0
176
1
290
0
176
1
290
1
176
1
290
1
176
1
290
0
176
1
290
0
176
1
290
0
176
1
290
0
176
1
290
0
176
1
290
0
176
1
 90
50
176
1
 40
0.0
176
1
 40
1.0
176
1
 90
0
176
1
 62
18
420
0
176
1
 90
50
176
1
 90
3
176
1
 62
5
420
255
176
1
290
0
176
1
 90
50
176
1
 90
50
176
1
 90
50
176
1
290
0
176
1
 90
50
176
1
 62
256
176
0
 40
1.0
176
0
 90
2
176
1
  1
strokes_ogs.tif
176
1
290
0
176
1
 40
1.0
176
1
 40
1.0
176
1
  0
VISUALSTYLE
  5
68
102
{ACAD_REACTORS
330
16
102
}
330
16
100
AcDbVisualStyle
  2
Linepattern
 70
14
177
3
291
1
 70
58
 90
2
176
1
 90
2
176
1
 90
0
176
1
 90
2
176
1
 40
0.6
176
1
 40
30.0
176
1
 62
7
420
16777215
176
1
 90
1
176
1
 90
4
176
1
 62
7
176
1
 62
257
176
1
 90
1
176
1
 90
1
176
1
 40
1.0
176
1
 90
8
176
1
 62
7
176
1
 40
1.0
176
1
 90
1
176
1
 90
6
176
1
 90
2
176
1
 62
7
176
1
 90
5
176
1
 90
0
176
1
 90
0
176
1
290
0
176
1
 90
1
176
1
 40
0.0
176
1
 90
0
176
1
290
0
176
1
290
1
176
1
290
1
176
1
290
0
176
1
290
0
176
1
290
0
176
1
290
0
176
1
290
0
176
1
290
0
176
1
 90
50
176
1
 40
0.0
176
1
 40
1.0
176
1
 90
0
176
1
 62
18
420
0
176
1
 90
50
176
1
 90
3
176
1
 62
5
420
255
176
1
290
0
176
1
 90
50
176
1
 90
50
176
1
 90
50
176
1
290
0
176
1
 90
50
176
1
 62
256
176
0
 40
1.0
176
0
 90
2
176
1
  1
strokes_ogs.tif
176
1
290
0
176
1
 40
1.0
176
1
 40
1.0
176
1
  0
VISUALSTYLE
  5
69
102
{ACAD_REACTORS
330
16
102
}
330
16
100
AcDbVisualStyle
  2
Modeling
 70
10
177
3
291
0
 70
58
 90
2
176
1
 90
2
176
1
 90
0
176
1
 90
2
176
1
 40
0.6
176
1
 40
30.0
176
1
 62
7
420
16777215
176
1
 90
1
176
1
 90
4
176
1
 62
7
176
1
 62
257
176
1
 90
1
176
1
 90
1
176
1
 40
1.0
176
1
 90
8
176
1
 62
7
176
1
 40
1.0
176
1
 90
1
176
1
 90
6
176
1
 90
2
176
1
 62
7
176
1
 90
5
176
1
 90
0
176
1
 90
0
176
1
290
0
176
1
 90
1
176
1
 40
0.0
176
1
 90
0
176
1
290
0
176
1
290
1
176
1
290
1
176
1
290
0
176
1
290
0
176
1
290
0
176
1
290
0
176
1
290
0
176
1
290
0
176
1
 90
50
176
1
 40
0.0
176
1
 40
1.0
176
1
 90
0
176
1
 62
18
420
0
176
1
 90
50
176
1
 90
3
176
1
 62
5
420
255
176
1
290
0
176
1
 90
50
176
1
 90
50
176
1
 90
50
176
1
290
0
176
1
 90
50
176
1
 62
256
176
0
 40
1.0
176
0
 90
2
176
1
  1
strokes_ogs.tif
176
1
290
0
176
1
 40
1.0
176
1
 40
1.0
176
1
  0
VISUALSTYLE
  5
6A
102
{ACAD_REACTORS
330
16
102
}
330
16
100
AcDbVisualStyle
  2
OverhangOff
 70
21
177
3
291
1
 70
58
 90
2
176
1
 90
2
176
1
 90
0
176
1
 90
2
176
1
 40
0.6
176
1
 40
30.0
176
1
 62
7
420
16777215
176
1
 90
1
176
1
 90
4
176
1
 62
7
176
1
 62
257
176
1
 90
1
176
1
 90
1
176
1
 40
1.0
176
1
 90
8
176
1
 62
7
176
1
 40
1.0
176
1
 90
1
176
1
 90
6
176
1
 90
2
176
1
 62
7
176
1
 90
5
176
1
 90
0
176
1
 90
0
176
1
290
0
176
1
 90
1
176
1
 40
0.0
176
1
 90
0
176
1
290
0
176
1
290
1
176
1
290
1
176
1
290
0
176
1
290
0
176
1
290
0
176
1
290
0
176
1
290
0
176
1
290
0
176
1
 90
50
176
1
 40
0.0
176
1
 40
1.0
176
1
 90
0
176
1
 62
18
420
0
176
1
 90
50
176
1
 90
3
176
1
 62
5
420
255
176
1
290
0
176
1
 90
50
176
1
 90
50
176
1
 90
50
176
1
290
0
176
1
 90
50
176
1
 62
256
176
0
 40
1.0
176
0
 90
2
176
1
  1
strokes_ogs.tif
176
1
290
0
176
1
 40
1.0
176
1
 40
1.0
176
1
  0
VISUALSTYLE
  5
6B
102
{ACAD_REACTORS
330
16
102
}
330
16
100
AcDbVisualStyle
  2
Realistic
 70
8
177
3
291
0
 70
58
 90
2
176
1
 90
2
176
1
 90
0
176
1
 90
2
176
1
 40
0.6
176
1
 40
30.0
176
1
 62
7
420
16777215
176
1
 90
1
176
1
 90
4
176
1
 62
7
176
1
 62
257
176
1
 90
1
176
1
 90
1
176
1
 40
1.0
176
1
 90
8
176
1
 62
7
176
1
 40
1.0
176
1
 90
1
176
1
 90
6
176
1
 90
2
176
1
 62
7
176
1
 90
5
176
1
 90
0
176
1
 90
0
176
1
290
0
176
1
 90
1
176
1
 40
0.0
176
1
 90
0
176
1
290
0
176
1
290
1
176
1
290
1
176
1
290
0
176
1
290
0
176
1
290
0
176
1
290
0
176
1
290
0
176
1
290
0
176
1
 90
50
176
1
 40
0.0
176
1
 40
1.0
176
1
 90
0
176
1
 62
18
420
0
176
1
 90
50
176
1
 90
3
176
1
 62
5
420
255
176
1
290
0
176
1
 90
50
176
1
 90
50
176
1
 90
50
176
1
290
0
176
1
 90
50
176
1
 62
256
176
0
 40
1.0
176
0
 90
2
176
1
  1
strokes_ogs.tif
176
1
290
0
176
1
 40
1.0
176
1
 40
1.0
176
1
  0
VISUALSTYLE
  5
6C
102
{ACAD_REACTORS
330
16
102
}
330
16
100
AcDbVisualStyle
  2
Shaded
 70
27
177
3
291
0
 70
58
 90
2
176
1
 90
2
176
1
 90
0
176
1
 90
2
176
1
 40
0.6
176
1
 40
30.0
176
1
 62
7
420
16777215
176
1
 90
1
176
1
 90
4
176
1
 62
7
176
1
 62
257
176
1
 90
1
176
1
 90
1
176
1
 40
1.0
176
1
 90
8
176
1
 62
7
176
1
 40
1.0
176
1
 90
1
176
1
 90
6
176
1
 90
2
176
1
 62
7
176
1
 90
5
176
1
 90
0
176
1
 90
0
176
1
290
0
176
1
 90
1
176
1
 40
0.0
176
1
 90
0
176
1
290
0
176
1
290
1
176
1
290
1
176
1
290
0
176
1
290
0
176
1
290
0
176
1
290
0
176
1
290
0
176
1
290
0
176
1
 90
50
176
1
 40
0.0
176
1
 40
1.0
176
1
 90
0
176
1
 62
18
420
0
176
1
 90
50
176
1
 90
3
176
1
 62
5
420
255
176
1
290
0
176
1
 90
50
176
1
 90
50
176
1
 90
50
176
1
290
0
176
1
 90
50
176
1
 62
256
176
0
 40
1.0
176
0
 90
2
176
1
  1
strokes_ogs.tif
176
1
290
0
176
1
 40
1.0
176
1
 40
1.0
176
1
  0
VISUALSTYLE
  5
6D
102
{ACAD_REACTORS
330
16
102
}
330
16
100
AcDbVisualStyle
  2
Shaded with edges
 70
26
177
3
291
0
 70
58
 90
2
176
1
 90
2
176
1
 90
0
176
1
 90
2
176
1
 40
0.6
176
1
 40
30.0
176
1
 62
7
420
16777215
176
1
 90
1
176
1
 90
4
176
1
 62
7
176
1
 62
257
176
1
 90
1
176
1
 90
1
176
1
 40
1.0
176
1
 90
8
176
1
 62
7
176
1
 40
1.0
176
1
 90
1
176
1
 90
6
176
1
 90
2
176
1
 62
7
176
1
 90
5
176
1
 90
0
176
1
 90
0
176
1
290
0
176
1
 90
1
176
1
 40
0.0
176
1
 90
0
176
1
290
0
176
1
290
1
176
1
290
1
176
1
290
0
176
1
290
0
176
1
290
0
176
1
290
0
176
1
290
0
176
1
290
0
176
1
 90
50
176
1
 40
0.0
176
1
 40
1.0
176
1
 90
0
176
1
 62
18
420
0
176
1
 90
50
176
1
 90
3
176
1
 62
5
420
255
176
1
290
0
176
1
 90
50
176
1
 90
50
176
1
 90
50
176
1
290
0
176
1
 90
50
176
1
 62
256
176
0
 40
1.0
176
0
 90
2
176
1
  1
strokes_ogs.tif
176
1
290
0
176
1
 40
1.0
176
1
 40
1.0
176
1
  0
VISUALSTYLE
  5
6E
102
{ACAD_REACTORS
330
16
102
}
330
16
100
AcDbVisualStyle
  2
Shades of Gray
 70
23
177
3
291
0
 70
58
 90
2
176
1
 90
2
176
1
 90
0
176
1
 90
2
176
1
 40
0.6
176
1
 40
30.0
176
1
 62
7
420
16777215
176
1
 90
1
176
1
 90
4
176
1
 62
7
176
1
 62
257
176
1
 90
1
176
1
 90
1
176
1
 40
1.0
176
1
 90
8
176
1
 62
7
176
1
 40
1.0
176
1
 90
1
176
1
 90
6
176
1
 90
2
176
1
 62
7
176
1
 90
5
176
1
 90
0
176
1
 90
0
176
1
290
0
176
1
 90
1
176
1
 40
0.0
176
1
 90
0
176
1
290
0
176
1
290
1
176
1
290
1
176
1
290
0
176
1
290
0
176
1
290
0
176
1
290
0
176
1
290
0
176
1
290
0
176
1
 90
50
176
1
 40
0.0
176
1
 40
1.0
176
1
 90
0
176
1
 62
18
420
0
176
1
 90
50
176
1
 90
3
176
1
 62
5
420
255
176
1
290
0
176
1
 90
50
176
1
 90
50
176
1
 90
50
176
1
290
0
176
1
 90
50
176
1
 62
256
176
0
 40
1.0
176
0
 90
2
176
1
  1
strokes_ogs.tif
176
1
290
0
176
1
 40
1.0
176
1
 40
1.0
176
1
  0
VISUALSTYLE
  5
6F
102
{ACAD_REACTORS
330
16
102
}
330
16
100
AcDbVisualStyle
  2
Sketchy
 70
24
177
3
291
0
 70
58
 90
2
176
1
 90
2
176
1
 90
0
176
1
 90
1
176
1
 40
0.6
176
1
 40
30.0
176
1
 62
7
420
16777215
176
1
 90
1
176
1
 90
4
176
1
 62
7
176
1
 62
257
176
1
 90
1
176
1
 90
1
176
1
 40
1.0
176
1
 90
8
176
1
 62
7
176
1
 40
1.0
176
1
 90
1
176
1
 90
6
176
1
 90
2
176
1
 62
7
176
1
 90
5
176
1
 90
0
176
1
 90
0
176
1
290
0
176
1
 90
1
176
1
 40
0.0
176
1
 90
0
176
1
290
0
176
1
290
1
176
1
290
1
176
1
290
0
176
1
290
0
176
1
290
0
176
1
290
0
176
1
290
0
176
1
290
0
176
1
 90
50
176
1
 40
0.0
176
1
 40
1.0
176
1
 90
0
176
1
 62
18
420
0
176
1
 90
50
176
1
 90
3
176
1
 62
5
420
255
176
1
290
0
176
1
 90
50
176
1
 90
50
176
1
 90
50
176
1
290
0
176
1
 90
50
176
1
 62
256
176
0
 40
1.0
176
0
 90
2
176
1
  1
strokes_ogs.tif
176
1
290
0
176
1
 40
1.0
176
1
 40
1.0
176
1
  0
VISUALSTYLE
  5
70
102
{ACAD_REACTORS
330
16
102
}
330
16
100
AcDbVisualStyle
  2
Thicken
 70
13
177
3
291
1
 70
58
 90
2
176
1
 90
2
176
1
 90
0
176
1
 90
2
176
1
 40
0.6
176
1
 40
30.0
176
1
 62
7
420
16777215
176
1
 90
1
176
1
 90
4
176
1
 62
7
176
1
 62
257
176
1
 90
1
176
1
 90
1
176
1
 40
1.0
176
1
 90
8
176
1
 62
7
176
1
 40
1.0
176
1
 90
1
176
1
 90
6
176
1
 90
2
176
1
 62
7
176
1
 90
5
176
1
 90
0
176
1
 90
0
176
1
290
0
176
1
 90
1
176
1
 40
0.0
176
1
 90
0
176
1
290
0
176
1
290
1
176
1
290
1
176
1
290
0
176
1
290
0
176
1
290
0
176
1
290
0
176
1
290
0
176
1
290
0
176
1
 90
50
176
1
 40
0.0
176
1
 40
1.0
176
1
 90
0
176
1
 62
18
420
0
176
1
 90
50
176
1
 90
3
176
1
 62
5
420
255
176
1
290
0
176
1
 90
50
176
1
 90
50
176
1
 90
50
176
1
290
0
176
1
 90
50
176
1
 62
256
176
0
 40
1.0
176
0
 90
2
176
1
  1
strokes_ogs.tif
176
1
290
0
176
1
 40
1.0
176
1
 40
1.0
176
1
  0
VISUALSTYLE
  5
71
102
{ACAD_REACTORS
330
16
102
}
330
16
100
AcDbVisualStyle
  2
Wireframe
 70
5
177
3
291
0
 70
58
 90
2
176
1
 90
2
176
1
 90
0
176
1
 90
0
176
1
 40
0.6
176
1
 40
30.0
176
1
 62
7
420
16777215
176
1
 90
1
176
1
 90
4
176
1
 62
7
176
1
 62
257
176
1
 90
1
176
1
 90
1
176
1
 40
1.0
176
1
 90
8
176
1
 62
7
176
1
 40
1.0
176
1
 90
1
176
1
 90
6
176
1
 90
2
176
1
 62
7
176
1
 90
5
176
1
 90
0
176
1
 90
0
176
1
290
0
176
1
 90
1
176
1
 40
0.0
176
1
 90
0
176
1
290
0
176
1
290
1
176
1
290
1
176
1
290
0
176
1
290
0
176
1
290
0
176
1
290
0
176
1
290
0
176
1
290
0
176
1
 90
50
176
1
 40
0.0
176
1
 40
1.0
176
1
 90
0
176
1
 62
18
420
0
176
1
 90
50
176
1
 90
3
176
1
 62
5
420
255
176
1
290
0
176
1
 90
50
176
1
 90
50
176
1
 90
50
176
1
290
0
176
1
 90
50
176
1
 62
256
176
0
 40
1.0
176
0
 90
2
176
1
  1
strokes_ogs.tif
176
1
290
0
176
1
 40
1.0
176
1
 40
1.0
176
1
  0
VISUALSTYLE
  5
72
102
{ACAD_REACTORS
330
16
102
}
330
16
100
AcDbVisualStyle
  2
X-Ray
 70
25
177
3
291
0
 70
58
 90
2
176
1
 90
2
176
1
 90
0
176
1
 90
2
176
1
 40
0.5
176
1
 40
30.0
176
1
 62
7
420
16777215
176
1
 90
1
176
1
 90
4
176
1
 62
7
176
1
 62
257
176
1
 90
1
176
1
 90
1
176
1
 40
1.0
176
1
 90
8
176
1
 62
7
176
1
 40
1.0
176
1
 90
1
176
1
 90
6
176
1
 90
2
176
1
 62
7
176
1
 90
5
176
1
 90
0
176
1
 90
0
176
1
290
0
176
1
 90
1
176
1
 40
0.0
176
1
 90
0
176
1
290
0
176
1
290
1
176
1
290
1
176
1
290
0
176
1
290
0
176
1
290
0
176
1
290
0
176
1
290
0
176
1
290
0
176
1
 90
50
176
1
 40
0.0
176
1
 40
1.0
176
1
 90
0
176
1
 62
18
420
0
176
1
 90
50
176
1
 90
3
176
1
 62
5
420
255
176
1
290
0
176
1
 90
50
176
1
 90
50
176
1
 90
50
176
1
290
0
176
1
 90
50
176
1
 62
256
176
0
 40
1.0
176
0
 90
2
176
1
  1
strokes_ogs.tif
176
1
290
0
176
1
 40
1.0
176
1
 40
1.0
176
1
  0
DICTIONARYVAR
  5
16B
330
2D
100
DictionaryVariables
280
0
  1
1.4.4 @ 2026-10-03T03:04:48.798284+00:00
  0
ENDSEC
  0
EOF
