  0
SECTION
  2
HEADER
  9
$ACADVER
  1
AC1032
  9
$ACADMAINTVER
 90
4
  9
$DWGCODEPAGE
  3
ANSI_1252
  9
$LASTSAVEDBY
  1
ezdxf
  9
$REQUIREDVERSIONS
160
0
  9
$INSBASE
 10
0.0
 20
0.0
 30
0.0
  9
$EXTMIN
 10
1e+20
 20
1e+20
 30
1e+20
  9
$EXTMAX
 10
-1e+20
 20
-1e+20
 30
-1e+20
  9
$LIMMIN
 10
0.0
 20
0.0
  9
$LIMMAX
 10
420.0
 20
297.0
  9
$ORTHOMODE
 70
0
  9
$REGENMODE
 70
1
  9
$FILLMODE
 70
1
  9
$QTEXTMODE
 70
0
  9
$MIRRTEXT
 70
1
  9
$LTSCALE
 40
50.0
  9
$ATTMODE
 70
1
  9
$TEXTSIZE
 40
2.5
  9
$TRACEWID
 40
1.0
  9
$TEXTSTYLE
  7
OpenSans
  9
$CLAYER
  8
0
  9
$CELTYPE
  6
ByLayer
  9
$CECOLOR
 62
256
  9
$CELTSCALE
 40
1.0
  9
$DISPSILH
 70
0
  9
$DIMSCALE
 40
1.0
  9
$DIMASZ
 40
0.175
  9
$DIMEXO
 40
0.125
  9
$DIMDLI
 40
3.75
  9
$DIMRND
 40
0.0
  9
$DIMDLE
 40
0.0
  9
$DIMEXE
 40
0.375
  9
$DIMTP
 40
0.0
  9
$DIMTM
 40
0.0
  9
$DIMTXT
 40
0.25
  9
$DIMCEN
 40
2.5
  9
$DIMTSZ
 40
0.0
  9
$DIMTOL
 70
0
  9
$DIMLIM
 70
0
  9
$DIMTIH
 70
0
  9
$DIMTOH
 70
0
  9
$DIMSE1
 70
0
  9
$DIMSE2
 70
0
  9
$DIMTAD
 70
1
  9
$DIMZIN
 70
12
  9
$DIMBLK
  1
ARCHTICK
  9
$DIMASO
 70
1
  9
$DIMSHO
 70
1
  9
$DIMPOST
  1

  9
$DIMAPOST
  1

  9
$DIMALT
 70
0
  9
$DIMALTD
 70
3
  9
$DIMALTF
 40
0.03937007874
  9
$DIMLFAC
 40
100.0
  9
$DIMTOFL
 70
1
  9
$DIMTVP
 40
0.0
  9
$DIMTIX
 70
0
  9
$DIMSOXD
 70
0
  9
$DIMSAH
 70
0
  9
$DIMBLK1
  1

  9
$DIMBLK2
  1

  9
$DIMSTYLE
  2
EZDXF
  9
$DIMCLRD
 70
0
  9
$DIMCLRE
 70
0
  9
$DIMCLRT
 70
0
  9
$DIMTFAC
 40
0.5
  9
$DIMGAP
 40
0.1
  9
$DIMJUST
 70
0
  9
$DIMSD1
 70
0
  9
$DIMSD2
 70
0
  9
$DIMTOLJ
 70
0
  9
$DIMTZIN
 70
8
  9
$DIMALTZ
 70
0
  9
$DIMALTTZ
 70
0
  9
$DIMUPT
 70
1
  9
$DIMDEC
 70
2
  9
$DIMTDEC
 70
2
  9
$DIMALTU
 70
2
  9
$DIMALTTD
 70
3
  9
$DIMTXSTY
  7
OpenSansCondensed-Light
  9
$DIMAUNIT
 70
0
  9
$DIMADEC
 70
2
  9
$DIMALTRND
 40
0.0
  9
$DIMAZIN
 70
3
  9
$DIMDSEP
 70
46
  9
$DIMATFIT
 70
3
  9
$DIMFRAC
 70
0
  9
$DIMLDRBLK
  1

  9
$DIMLUNIT
 70
2
  9
$DIMLWD
 70
-2
  9
$DIMLWE
 70
-2
  9
$DIMTMOVE
 70
2
  9
$DIMFXL
 40
1.0
  9
$DIMFXLON
 70
0
  9
$DIMJOGANG
 40
0.785398163397
  9
$DIMTFILL
 70
0
  9
$DIMTFILLCLR
 70
0
  9
$DIMARCSYM
 70
0
  9
$DIMLTYPE
  6

  9
$DIMLTEX1
  6

  9
$DIMLTEX2
  6

  9
$DIMTXTDIRECTION
 70
0
  9
$LUNITS
 70
2
  9
$LUPREC
 70
4
  9
$SKETCHINC
 40
1.0
  9
$FILLETRAD
 40
10.0
  9
$AUNITS
 70
0
  9
$AUPREC
 70
2
  9
$MENU
  1
.
  9
$ELEVATION
 40
0.0
  9
$PELEVATION
 40
0.0
  9
$THICKNESS
 40
0.0
  9
$LIMCHECK
 70
0
  9
$CHAMFERA
 40
0.0
  9
$CHAMFERB
 40
0.0
  9
$CHAMFERC
 40
0.0
  9
$CHAMFERD
 40
0.0
  9
$SKPOLY
 70
0
  9
$TDCREATE
 40
2461318.534108796
  9
$TDUCREATE
 40
2458532.153996898
  9
$TDUPDATE
 40
2461318.534247685
  9
$TDUUPDATE
 40
2458532.1544311
  9
$TDINDWG
 40
0.0
  9
$TDUSRTIMER
 40
0.0
  9
$USRTIMER
 70
1
  9
$ANGBASE
 50
0.0
  9
$ANGDIR
 70
0
  9
$PDMODE
 70
0
  9
$PDSIZE
 40
0.0
  9
$PLINEWID
 40
0.0
  9
$SPLFRAME
 70
0
  9
$SPLINETYPE
 70
6
  9
$SPLINESEGS
 70
8
  9
$HANDSEED
  5
3D3
  9
$SURFTAB1
 70
6
  9
$SURFTAB2
 70
6
  9
$SURFTYPE
 70
6
  9
$SURFU
 70
6
  9
$SURFV
 70
6
  9
$UCSBASE
  2

  9
$UCSNAME
  2

  9
$UCSORG
 10
0.0
 20
0.0
 30
0.0
  9
$UCSXDIR
 10
1.0
 20
0.0
 30
0.0
  9
$UCSYDIR
 10
0.0
 20
1.0
 30
0.0
  9
$UCSORTHOREF
  2

  9
$UCSORTHOVIEW
 70
0
  9
$UCSORGTOP
 10
0.0
 20
0.0
 30
0.0
  9
$UCSORGBOTTOM
 10
0.0
 20
0.0
 30
0.0
  9
$UCSORGLEFT
 10
0.0
 20
0.0
 30
0.0
  9
$UCSORGRIGHT
 10
0.0
 20
0.0
 30
0.0
  9
$UCSORGFRONT
 10
0.0
 20
0.0
 30
0.0
  9
$UCSORGBACK
 10
0.0
 20
0.0
 30
0.0
  9
$PUCSBASE
  2

  9
$PUCSNAME
  2

  9
$PUCSORG
 10
0.0
 20
0.0
 30
0.0
  9
$PUCSXDIR
 10
1.0
 20
0.0
 30
0.0
  9
$PUCSYDIR
 10
0.0
 20
1.0
 30
0.0
  9
$PUCSORTHOREF
  2

  9
$PUCSORTHOVIEW
 70
0
  9
$PUCSORGTOP
 10
0.0
 20
0.0
 30
0.0
  9
$PUCSORGBOTTOM
 10
0.0
 20
0.0
 30
0.0
  9
$PUCSORGLEFT
 10
0.0
 20
0.0
 30
0.0
  9
$PUCSORGRIGHT
 10
0.0
 20
0.0
 30
0.0
  9
$PUCSORGFRONT
 10
0.0
 20
0.0
 30
0.0
  9
$PUCSORGBACK
 10
0.0
 20
0.0
 30
0.0
  9
$USERI1
 70
0
  9
$USERI2
 70
0
  9
$USERI3
 70
0
  9
$USERI4
 70
0
  9
$USERI5
 70
0
  9
$USERR1
 40
0.0
  9
$USERR2
 40
0.0
  9
$USERR3
 40
0.0
  9
$USERR4
 40
0.0
  9
$USERR5
 40
0.0
  9
$WORLDVIEW
 70
1
  9
$SHADEDGE
 70
3
  9
$SHADEDIF
 70
70
  9
$TILEMODE
 70
1
  9
$MAXACTVP
 70
64
  9
$PINSBASE
 10
0.0
 20
0.0
 30
0.0
  9
$PLIMCHECK
 70
0
  9
$PEXTMIN
 10
1e+20
 20
1e+20
 30
1e+20
  9
$PEXTMAX
 10
-1e+20
 20
-1e+20
 30
-1e+20
  9
$PLIMMIN
 10
0.0
 20
0.0
  9
$PLIMMAX
 10
420.0
 20
297.0
  9
$UNITMODE
 70
0
  9
$VISRETAIN
 70
1
  9
$PLINEGEN
 70
0
  9
$PSLTSCALE
 70
0
  9
$TREEDEPTH
 70
3020
  9
$CMLSTYLE
  2
Standard
  9
$CMLJUST
 70
0
  9
$CMLSCALE
 40
20.0
  9
$PROXYGRAPHICS
 70
1
  9
$MEASUREMENT
 70
1
  9
$CELWEIGHT
370
-1
  9
$ENDCAPS
280
0
  9
$JOINSTYLE
280
0
  9
$LWDISPLAY
290
0
  9
$INSUNITS
 70
4
  9
$HYPERLINKBASE
  1

  9
$STYLESHEET
  1

  9
$XEDIT
290
1
  9
$CEPSNTYPE
380
0
  9
$PSTYLEMODE
290
1
  9
$FINGERPRINTGUID
  2
{D0818BD5-E3E3-4205-AC34-A6F600566045}
  9
$VERSIONGUID
  2
{EAF87D9F-7852-402A-96C6-A892C0A1D4F0}
  9
$EXTNAMES
290
1
  9
$PSVPSCALE
 40
0.0
  9
$OLESTARTUP
290
0
  9
$SORTENTS
280
127
  9
$INDEXCTL
280
0
  9
$HIDETEXT
280
1
  9
$XCLIPFRAME
280
1
  9
$HALOGAP
280
0
  9
$OBSCOLOR
 70
257
  9
$OBSLTYPE
280
0
  9
$INTERSECTIONDISPLAY
280
0
  9
$INTERSECTIONCOLOR
 70
257
  9
$DIMASSOC
280
2
  9
$PROJECTNAME
  1

  9
$CAMERADISPLAY
290
0
  9
$LENSLENGTH
 40
50.0
  9
$CAMERAHEIGHT
 40
0.0
  9
$STEPSPERSEC
 40
24.0
  9
$STEPSIZE
 40
100.0
  9
$3DDWFPREC
 40
2.0
  9
$PSOLWIDTH
 40
0.005
  9
$PSOLHEIGHT
 40
0.08
  9
$LOFTANG1
 40
1.570796326795
  9
$LOFTANG2
 40
1.570796326795
  9
$LOFTMAG1
 40
0.0
  9
$LOFTMAG2
 40
0.0
  9
$LOFTPARAM
 70
7
  9
$LOFTNORMALS
280
1
  9
$LATITUDE
 40
37.795
  9
$LONGITUDE
 40
-122.394
  9
$NORTHDIRECTION
 40
0.0
  9
$TIMEZONE
 70
-8000
  9
$LIGHTGLYPHDISPLAY
280
1
  9
$TILEMODELIGHTSYNCH
280
1
  9
$CMATERIAL
347
20
  9
$SOLIDHIST
280
0
  9
$SHOWHIST
280
1
  9
$DWFFRAME
280
2
  9
$DGNFRAME
280
2
  9
$REALWORLDSCALE
290
1
  9
$INTERFERECOLOR
 62
256
  9
$CSHADOW
280
0
  9
$SHADOWPLANELOCATION
 40
0.0
  0
ENDSEC
  0
SECTION
  2
CLASSES
  0
CLASS
  1
ACDBDICTIONARYWDFLT
  2
AcDbDictionaryWithDefault
  3
ObjectDBX Classes
 90
0
 91
0
280
0
281
0
  0
CLASS
  1
SUN
  2
AcDbSun
  3
SCENEOE
 90
1153
 91
0
280
0
281
0
  0
CLASS
  1
VISUALSTYLE
  2
AcDbVisualStyle
  3
ObjectDBX Classes
 90
4095
 91
0
280
0
281
0
  0
CLASS
  1
MATERIAL
  2
AcDbMaterial
  3
ObjectDBX Classes
 90
1153
 91
0
280
0
281
0
  0
CLASS
  1
SCALE
  2
AcDbScale
  3
ObjectDBX Classes
 90
1153
 91
0
280
0
281
0
  0
CLASS
  1
TABLESTYLE
  2
AcDbTableStyle
  3
ObjectDBX Classes
 90
4095
 91
0
280
0
281
0
  0
CLASS
  1
MLEADERSTYLE
  2
AcDbMLeaderStyle
  3
ACDB_MLEADERSTYLE_CLASS
 90
4095
 91
0
280
0
281
0
  0
CLASS
  1
DICTIONARYVAR
  2
AcDbDictionaryVar
  3
ObjectDBX Classes
 90
0
 91
0
280
0
281
0
  0
CLASS
  1
CELLSTYLEMAP
  2
AcDbCellStyleMap
  3
ObjectDBX Classes
 90
1152
 91
0
280
0
281
0
  0
CLASS
  1
MENTALRAYRENDERSETTINGS
  2
AcDbMentalRayRenderSettings
  3
SCENEOE
 90
1024
 91
0
280
0
281
0
  0
CLASS
  1
ACDBDETAILVIEWSTYLE
  2
AcDbDetailViewStyle
  3
ObjectDBX Classes
 90
1025
 91
0
280
0
281
0
  0
CLASS
  1
ACDBSECTIONVIEWSTYLE
  2
AcDbSectionViewStyle
  3
ObjectDBX Classes
 90
1025
 91
0
280
0
281
0
  0
CLASS
  1
RASTERVARIABLES
  2
AcDbRasterVariables
  3
ISM
 90
0
 91
0
280
0
281
0
  0
CLASS
  1
LAYOUT
  2
AcDbLayout
  3
ObjectDBX Classes
 90
0
 91
0
280
0
281
0
  0
CLASS
  1
ACDBPLACEHOLDER
  2
AcDbPlaceHolder
  3
ObjectDBX Classes
 90
0
 91
0
280
0
281
0
  0
ENDSEC
  0
SECTION
  2
TABLES
  0
TABLE
  2
VPORT
  5
8
330
0
100
AcDbSymbolTable
 70
1
  0
VPORT
  5
23
330
8
100
AcDbSymbolTableRecord
100
AcDbViewportTableRecord
  2
*Active
 70
0
 10
0.0
 20
0.0
 11
1.0
 21
1.0
 12
0.0
 22
0.0
 13
0.0
 23
0.0
 14
0.5
 24
0.5
 15
0.5
 25
0.5
 16
0.0
 26
0.0
 36
1.0
 17
0.0
 27
0.0
 37
0.0
 40
1000.0
 41
1.34
 42
50.0
 43
0.0
 44
0.0
 50
0.0
 51
0.0
 71
0
 72
1000
 73
1
 74
3
 75
0
 76
0
 77
0
 78
0
281
0
 65
0
146
0.0
  0
ENDTAB
  0
TABLE
  2
LTYPE
  5
2
330
0
100
AcDbSymbolTable
 70
21
  0
LTYPE
  5
24
330
2
100
AcDbSymbolTableRecord
100
AcDbLinetypeTableRecord
  2
ByBlock
 70
0
  3

 72
65
 73
0
 40
0.0
  0
LTYPE
  5
25
330
2
100
AcDbSymbolTableRecord
100
AcDbLinetypeTableRecord
  2
ByLayer
 70
0
  3

 72
65
 73
0
 40
0.0
  0
LTYPE
  5
26
330
2
100
AcDbSymbolTableRecord
100
AcDbLinetypeTableRecord
  2
Continuous
 70
0
  3

 72
65
 73
0
 40
0.0
  0
LTYPE
  5
2F
330
2
100
AcDbSymbolTableRecord
100
AcDbLinetypeTableRecord
  2
CENTER
 70
0
  3
Center ____ _ ____ _ ____ _ ____ _ ____ _ ____
 72
65
 73
4
 40
5.08
 49
3.175
 74
0
 49
-0.635
 74
0
 49
0.635
 74
0
 49
-0.635
 74
0
  0
LTYPE
  5
30
330
2
100
AcDbSymbolTableRecord
100
AcDbLinetypeTableRecord
  2
CENTERX2
 70
0
  3
Center (2x) ________  __  ________  __  ________
 72
65
 73
4
 40
8.89
 49
6.35
 74
0
 49
-0.635
 74
0
 49
1.27
 74
0
 49
-0.635
 74
0
  0
LTYPE
  5
31
330
2
100
AcDbSymbolTableRecord
100
AcDbLinetypeTableRecord
  2
CENTER2
 70
0
  3
Center (.5x) ____ _ ____ _ ____ _ ____ _ ____
 72
65
 73
4
 40
2.54
 49
1.587
 74
0
 49
-0.318
 74
0
 49
0.318
 74
0
 49
-0.318
 74
0
  0
LTYPE
  5
32
330
2
100
AcDbSymbolTableRecord
100
AcDbLinetypeTableRecord
  2
DASHED
 70
0
  3
Dashed __ __ __ __ __ __ __ __ __ __ __ __ __ _
 72
65
 73
2
 40
1.524
 49
1.27
 74
0
 49
-0.254
 74
0
  0
LTYPE
  5
33
330
2
100
AcDbSymbolTableRecord
100
AcDbLinetypeTableRecord
  2
DASHEDX2
 70
0
  3
Dashed (2x) ____  ____  ____  ____  ____  ____
 72
65
 73
2
 40
3.048
 49
2.54
 74
0
 49
-0.508
 74
0
  0
LTYPE
  5
34
330
2
100
AcDbSymbolTableRecord
100
AcDbLinetypeTableRecord
  2
DASHED2
 70
0
  3
Dashed (.5x) _ _ _ _ _ _ _ _ _ _ _ _ _ _
 72
65
 73
2
 40
0.762
 49
0.635
 74
0
 49
-0.127
 74
0
  0
LTYPE
  5
35
330
2
100
AcDbSymbolTableRecord
100
AcDbLinetypeTableRecord
  2
PHANTOM
 70
0
  3
Phantom ______  __  __  ______  __  __  ______
 72
65
 73
6
 40
6.35
 49
3.175
 74
0
 49
-0.635
 74
0
 49
0.635
 74
0
 49
-0.635
 74
0
 49
0.635
 74
0
 49
-0.635
 74
0
  0
LTYPE
  5
36
330
2
100
AcDbSymbolTableRecord
100
AcDbLinetypeTableRecord
  2
PHANTOMX2
 70
0
  3
Phantom (2x)____________    ____    ____    ____________
 72
65
 73
6
 40
10.795
 49
6.35
 74
0
 49
-0.635
 74
0
 49
1.27
 74
0
 49
-0.635
 74
0
 49
1.27
 74
0
 49
-0.635
 74
0
  0
LTYPE
  5
37
330
2
100
AcDbSymbolTableRecord
100
AcDbLinetypeTableRecord
  2
PHANTOM2
 70
0
  3
Phantom (.5x) ___ _ _ ___ _ _ ___ _ _ ___ _ _ ___
 72
65
 73
6
 40
3.175
 49
1.587
 74
0
 49
-0.318
 74
0
 49
0.318
 74
0
 49
-0.318
 74
0
 49
0.318
 74
0
 49
-0.318
 74
0
  0
LTYPE
  5
38
330
2
100
AcDbSymbolTableRecord
100
AcDbLinetypeTableRecord
  2
DASHDOT
 70
0
  3
Dash dot __ . __ . __ . __ . __ . __ . __ . __
 72
65
 73
4
 40
3.556
 49
2.54
 74
0
 49
-0.508
 74
0
 49
0.0
 74
0
 49
-0.508
 74
0
  0
LTYPE
  5
39
330
2
100
AcDbSymbolTableRecord
100
AcDbLinetypeTableRecord
  2
DASHDOTX2
 70
0
  3
Dash dot (2x) ____  .  ____  .  ____  .  ____
 72
65
 73
4
 40
6.096
 49
5.08
 74
0
 49
-0.508
 74
0
 49
0.0
 74
0
 49
-0.508
 74
0
  0
LTYPE
  5
3A
330
2
100
AcDbSymbolTableRecord
100
AcDbLinetypeTableRecord
  2
DASHDOT2
 70
0
  3
Dash dot (.5x) _ . _ . _ . _ . _ . _ . _ . _
 72
65
 73
4
 40
1.778
 49
1.27
 74
0
 49
-0.254
 74
0
 49
0.0
 74
0
 49
-0.254
 74
0
  0
LTYPE
  5
3B
330
2
100
AcDbSymbolTableRecord
100
AcDbLinetypeTableRecord
  2
DOT
 70
0
  3
Dot .  .  .  .  .  .  .  .  .  .  .  .  .  .  .  .
 72
65
 73
2
 40
0.508
 49
0.0
 74
0
 49
-0.508
 74
0
  0
LTYPE
  5
3C
330
2
100
AcDbSymbolTableRecord
100
AcDbLinetypeTableRecord
  2
DOTX2
 70
0
  3
Dot (2x) .    .    .    .    .    .    .    . 
 72
65
 73
2
 40
1.016
 49
0.0
 74
0
 49
-1.016
 74
0
  0
LTYPE
  5
3D
330
2
100
AcDbSymbolTableRecord
100
AcDbLinetypeTableRecord
  2
DOT2
 70
0
  3
Dot (.5) . . . . . . . . . . . . . . . . . . . 
 72
65
 73
2
 40
0.254
 49
0.0
 74
0
 49
-0.254
 74
0
  0
LTYPE
  5
3E
330
2
100
AcDbSymbolTableRecord
100
AcDbLinetypeTableRecord
  2
DIVIDE
 70
0
  3
Divide __ . . __ . . __ . . __ . . __ . . __
 72
65
 73
6
 40
4.064
 49
2.54
 74
0
 49
-0.508
 74
0
 49
0.0
 74
0
 49
-0.508
 74
0
 49
0.0
 74
0
 49
-0.508
 74
0
  0
LTYPE
  5
3F
330
2
100
AcDbSymbolTableRecord
100
AcDbLinetypeTableRecord
  2
DIVIDEX2
 70
0
  3
Divide (2x) ____  . .  ____  . .  ____  . .  ____
 72
65
 73
6
 40
6.604
 49
5.08
 74
0
 49
-0.508
 74
0
 49
0.0
 74
0
 49
-0.508
 74
0
 49
0.0
 74
0
 49
-0.508
 74
0
  0
LTYPE
  5
40
330
2
100
AcDbSymbolTableRecord
100
AcDbLinetypeTableRecord
  2
DIVIDE2
 70
0
  3
Divide(.5x) _ . _ . _ . _ . _ . _ . _ . _
 72
65
 73
6
 40
2.032
 49
1.27
 74
0
 49
-0.254
 74
0
 49
0.0
 74
0
 49
-0.254
 74
0
 49
0.0
 74
0
 49
-0.254
 74
0
  0
ENDTAB
  0
TABLE
  2
LAYER
  5
1
330
0
100
AcDbSymbolTable
 70
42
  0
LAYER
  5
27
330
1
100
AcDbSymbolTableRecord
100
AcDbLayerTableRecord
  2
0
 70
0
 62
7
  6
Continuous
370
-3
390
13
347
21
  0
LAYER
  5
28
330
1
100
AcDbSymbolTableRecord
100
AcDbLayerTableRecord
  2
Defpoints
 70
0
 62
7
  6
Continuous
290
0
370
-3
390
13
347
21
  0
LAYER
  5
8B
330
1
100
AcDbSymbolTableRecord
100
AcDbLayerTableRecord
  2
G-FRAME
 70
0
 62
7
  6
Continuous
370
70
390
13
347
21
1001
AcAecLayerStandard
1000

1000
図枠
  0
LAYER
  5
8D
330
1
100
AcDbSymbolTableRecord
100
AcDbLayerTableRecord
  2
G-TITLE
 70
0
 62
7
  6
Continuous
370
25
390
13
347
21
1001
AcAecLayerStandard
1000

1000
表題欄
  0
LAYER
  5
8E
330
1
100
AcDbSymbolTableRecord
100
AcDbLayerTableRecord
  2
G-TABLE
 70
0
 62
7
  6
Continuous
370
18
390
13
347
21
1001
AcAecLayerStandard
1000

1000
表
  0
LAYER
  5
8F
330
1
100
AcDbSymbolTableRecord
100
AcDbLayerTableRecord
  2
A-GRID
 70
0
 62
1
  6
CENTER
370
13
390
13
347
21
1001
AcAecLayerStandard
1000

1000
通り芯（一点鎖線・細線）
  0
LAYER
  5
90
330
1
100
AcDbSymbolTableRecord
100
AcDbLayerTableRecord
  2
A-GRID-SYMB
 70
0
 62
7
  6
Continuous
370
18
390
13
347
21
1001
AcAecLayerStandard
1000

1000
通り芯符号
  0
LAYER
  5
91
330
1
100
AcDbSymbolTableRecord
100
AcDbLayerTableRecord
  2
A-CUT
 70
0
 62
7
  6
Continuous
370
50
390
13
347
21
1001
AcAecLayerStandard
1000

1000
切断面 RC（太線）
  0
LAYER
  5
92
330
1
100
AcDbSymbolTableRecord
100
AcDbLayerTableRecord
  2
A-CUT-HATCH
 70
0
 62
8
  6
Continuous
370
9
390
13
347
21
1001
AcAecLayerStandard
1000

1000
切断面ハッチング
  0
LAYER
  5
93
330
1
100
AcDbSymbolTableRecord
100
AcDbLayerTableRecord
  2
A-CUT-LGS
 70
0
 62
7
  6
Continuous
370
35
390
13
347
21
1001
AcAecLayerStandard
1000

1000
切断面 軽量間仕切（中線）
  0
LAYER
  5
94
330
1
100
AcDbSymbolTableRecord
100
AcDbLayerTableRecord
  2
A-CUT-INS
 70
0
 62
9
  6
Continuous
370
9
390
13
347
21
1001
AcAecLayerStandard
1000

1000
切断面 断熱材ハッチング
  0
LAYER
  5
95
330
1
100
AcDbSymbolTableRecord
100
AcDbLayerTableRecord
  2
A-FENCE
 70
0
 62
7
  6
Continuous
370
35
390
13
347
21
1001
AcAecLayerStandard
1000

1000
RC塀
  0
LAYER
  5
96
330
1
100
AcDbSymbolTableRecord
100
AcDbLayerTableRecord
  2
A-PAVE
 70
0
 62
3
  6
Continuous
370
13
390
13
347
21
1001
AcAecLayerStandard
1000

1000
舗装（透水性 Dotcon+）
  0
LAYER
  5
97
330
1
100
AcDbSymbolTableRecord
100
AcDbLayerTableRecord
  2
A-DRAIN
 70
0
 62
5
  6
DASHED
370
25
390
13
347
21
1001
AcAecLayerStandard
1000

1000
雨水排水・浸透施設
  0
LAYER
  5
98
330
1
100
AcDbSymbolTableRecord
100
AcDbLayerTableRecord
  2
A-NEIGH
 70
0
 62
8
  6
Continuous
370
13
390
13
347
21
1001
AcAecLayerStandard
1000

1000
隣接建物（基盤地図情報）
  0
LAYER
  5
99
330
1
100
AcDbSymbolTableRecord
100
AcDbLayerTableRecord
  2
A-WATER
 70
0
 62
5
  6
Continuous
370
18
390
13
347
21
1001
AcAecLayerStandard
1000

1000
水路
  0
LAYER
  5
9A
330
1
100
AcDbSymbolTableRecord
100
AcDbLayerTableRecord
  2
A-TERRAIN
 70
0
 62
30
  6
Continuous
370
25
390
13
347
21
1001
AcAecLayerStandard
1000

1000
地形断面（DEM）
  0
LAYER
  5
9B
330
1
100
AcDbSymbolTableRecord
100
AcDbLayerTableRecord
  2
A-FLOOD
 70
0
 62
5
  6
DASHDOT
370
25
390
13
347
21
1001
AcAecLayerStandard
1000

1000
想定浸水深
  0
LAYER
  5
9C
330
1
100
AcDbSymbolTableRecord
100
AcDbLayerTableRecord
  2
A-FLOW
 70
0
 62
6
  6
DASHED
370
35
390
13
347
21
1001
AcAecLayerStandard
1000

1000
動線（回遊・家事・搬入）
  0
LAYER
  5
9D
330
1
100
AcDbSymbolTableRecord
100
AcDbLayerTableRecord
  2
A-VIS
 70
0
 62
7
  6
Continuous
370
18
390
13
347
21
1001
AcAecLayerStandard
1000

1000
見え掛り（細線）
  0
LAYER
  5
9E
330
1
100
AcDbSymbolTableRecord
100
AcDbLayerTableRecord
  2
A-HIDDEN
 70
0
 62
8
  6
HIDDEN
370
13
390
13
347
21
1001
AcAecLayerStandard
1000

1000
隠れ線（破線）
  0
LAYER
  5
9F
330
1
100
AcDbSymbolTableRecord
100
AcDbLayerTableRecord
  2
A-GLAZ
 70
0
 62
5
  6
Continuous
370
18
390
13
347
21
1001
AcAecLayerStandard
1000

1000
建具・ガラス
  0
LAYER
  5
A0
330
1
100
AcDbSymbolTableRecord
100
AcDbLayerTableRecord
  2
A-DOOR
 70
0
 62
5
  6
Continuous
370
18
390
13
347
21
1001
AcAecLayerStandard
1000

1000
扉・開き勝手
  0
LAYER
  5
A1
330
1
100
AcDbSymbolTableRecord
100
AcDbLayerTableRecord
  2
A-STRS
 70
0
 62
7
  6
Continuous
370
18
390
13
347
21
1001
AcAecLayerStandard
1000

1000
階段
  0
LAYER
  5
A2
330
1
100
AcDbSymbolTableRecord
100
AcDbLayerTableRecord
  2
A-ROOM
 70
0
 62
7
  6
Continuous
370
18
390
13
347
21
1001
AcAecLayerStandard
1000

1000
室名・面積
  0
LAYER
  5
A3
330
1
100
AcDbSymbolTableRecord
100
AcDbLayerTableRecord
  2
A-DIMS
 70
0
 62
7
  6
Continuous
370
13
390
13
347
21
1001
AcAecLayerStandard
1000

1000
寸法
  0
LAYER
  5
A4
330
1
100
AcDbSymbolTableRecord
100
AcDbLayerTableRecord
  2
A-TEXT
 70
0
 62
7
  6
Continuous
370
18
390
13
347
21
1001
AcAecLayerStandard
1000

1000
注記
  0
LAYER
  5
A5
330
1
100
AcDbSymbolTableRecord
100
AcDbLayerTableRecord
  2
A-SYMB
 70
0
 62
7
  6
Continuous
370
18
390
13
347
21
1001
AcAecLayerStandard
1000

1000
記号（方位・切断・レベル）
  0
LAYER
  5
A6
330
1
100
AcDbSymbolTableRecord
100
AcDbLayerTableRecord
  2
A-SITE
 70
0
 62
3
  6
PHANTOM
370
25
390
13
347
21
1001
AcAecLayerStandard
1000

1000
敷地境界線（二点鎖線）
  0
LAYER
  5
A7
330
1
100
AcDbSymbolTableRecord
100
AcDbLayerTableRecord
  2
A-ROAD
 70
0
 62
8
  6
Continuous
370
18
390
13
347
21
1001
AcAecLayerStandard
1000

1000
道路
  0
LAYER
  5
A8
330
1
100
AcDbSymbolTableRecord
100
AcDbLayerTableRecord
  2
A-GROUND
 70
0
 62
7
  6
Continuous
370
50
390
13
347
21
1001
AcAecLayerStandard
1000

1000
地盤面 GL
  0
LAYER
  5
A9
330
1
100
AcDbSymbolTableRecord
100
AcDbLayerTableRecord
  2
A-LEGAL
 70
0
 62
1
  6
DASHED
370
25
390
13
347
21
1001
AcAecLayerStandard
1000

1000
法規制ライン（斜線・延焼ライン）
  0
LAYER
  5
AA
330
1
100
AcDbSymbolTableRecord
100
AcDbLayerTableRecord
  2
A-LEGAL-TEXT
 70
0
 62
1
  6
Continuous
370
18
390
13
347
21
1001
AcAecLayerStandard
1000

1000
法規注記
  0
LAYER
  5
AB
330
1
100
AcDbSymbolTableRecord
100
AcDbLayerTableRecord
  2
A-FIRE
 70
0
 62
6
  6
DASHDOT
370
25
390
13
347
21
1001
AcAecLayerStandard
1000

1000
延焼のおそれのある部分
  0
LAYER
  5
AC
330
1
100
AcDbSymbolTableRecord
100
AcDbLayerTableRecord
  2
A-ALT
 70
0
 62
1
  6
Continuous
370
35
390
13
347
21
1001
AcAecLayerStandard
1000

1000
代替進入口
  0
LAYER
  5
AD
330
1
100
AcDbSymbolTableRecord
100
AcDbLayerTableRecord
  2
S-COLS
 70
0
 62
7
  6
Continuous
370
50
390
13
347
21
1001
AcAecLayerStandard
1000

1000
構造 柱
  0
LAYER
  5
AE
330
1
100
AcDbSymbolTableRecord
100
AcDbLayerTableRecord
  2
S-BEAM
 70
0
 62
7
  6
HIDDEN
370
25
390
13
347
21
1001
AcAecLayerStandard
1000

1000
構造 梁（伏図・隠れ）
  0
LAYER
  5
AF
330
1
100
AcDbSymbolTableRecord
100
AcDbLayerTableRecord
  2
S-BEAM-V
 70
0
 62
7
  6
Continuous
370
35
390
13
347
21
1001
AcAecLayerStandard
1000

1000
構造 梁（見え）
  0
LAYER
  5
B0
330
1
100
AcDbSymbolTableRecord
100
AcDbLayerTableRecord
  2
S-FNDN
 70
0
 62
7
  6
HIDDEN
370
25
390
13
347
21
1001
AcAecLayerStandard
1000

1000
構造 基礎
  0
LAYER
  5
B1
330
1
100
AcDbSymbolTableRecord
100
AcDbLayerTableRecord
  2
S-SLAB
 70
0
 62
7
  6
Continuous
370
18
390
13
347
21
1001
AcAecLayerStandard
1000

1000
構造 スラブ
  0
LAYER
  5
B2
330
1
100
AcDbSymbolTableRecord
100
AcDbLayerTableRecord
  2
S-REBAR
 70
0
 62
1
  6
Continuous
370
35
390
13
347
21
1001
AcAecLayerStandard
1000

1000
鉄筋
  0
LAYER
  5
B3
330
1
100
AcDbSymbolTableRecord
100
AcDbLayerTableRecord
  2
S-TEXT
 70
0
 62
7
  6
Continuous
370
18
390
13
347
21
1001
AcAecLayerStandard
1000

1000
構造 注記
  0
ENDTAB
  0
TABLE
  2
STYLE
  5
5
330
0
100
AcDbSymbolTable
 70
27
  0
STYLE
  5
29
330
5
100
AcDbSymbolTableRecord
100
AcDbTextStyleTableRecord
  2
Standard
 70
0
 40
0.0
 41
1.0
 50
0.0
 71
0
 42
2.5
  3
ipag.ttf
  4

  0
STYLE
  5
41
330
5
100
AcDbSymbolTableRecord
100
AcDbTextStyleTableRecord
  2
OpenSans-Light
 70
0
 40
0.0
 41
1.0
 50
0.0
 71
0
 42
2.5
  3
OpenSans-Light.ttf
  4

  0
STYLE
  5
42
330
5
100
AcDbSymbolTableRecord
100
AcDbTextStyleTableRecord
  2
OpenSans-Light-Italic
 70
0
 40
0.0
 41
1.0
 50
0.0
 71
0
 42
2.5
  3
OpenSans-LightItalic.ttf
  4

  0
STYLE
  5
43
330
5
100
AcDbSymbolTableRecord
100
AcDbTextStyleTableRecord
  2
OpenSans
 70
0
 40
0.0
 41
1.0
 50
0.0
 71
0
 42
2.5
  3
OpenSans-Regular.ttf
  4

  0
STYLE
  5
44
330
5
100
AcDbSymbolTableRecord
100
AcDbTextStyleTableRecord
  2
OpenSans-Italic
 70
0
 40
0.0
 41
1.0
 50
0.0
 71
0
 42
2.5
  3
OpenSans-Italic.ttf
  4

  0
STYLE
  5
45
330
5
100
AcDbSymbolTableRecord
100
AcDbTextStyleTableRecord
  2
OpenSans-SemiBold
 70
0
 40
0.0
 41
1.0
 50
0.0
 71
0
 42
2.5
  3
OpenSans-SemiBold.ttf
  4

  0
STYLE
  5
46
330
5
100
AcDbSymbolTableRecord
100
AcDbTextStyleTableRecord
  2
OpenSans-SemiBoldItalic
 70
0
 40
0.0
 41
1.0
 50
0.0
 71
0
 42
2.5
  3
OpenSans-SemiBoldItalic.ttf
  4

  0
STYLE
  5
47
330
5
100
AcDbSymbolTableRecord
100
AcDbTextStyleTableRecord
  2
OpenSans-Bold
 70
0
 40
0.0
 41
1.0
 50
0.0
 71
0
 42
2.5
  3
OpenSans-Bold.ttf
  4

  0
STYLE
  5
48
330
5
100
AcDbSymbolTableRecord
100
AcDbTextStyleTableRecord
  2
OpenSans-BoldItalic
 70
0
 40
0.0
 41
1.0
 50
0.0
 71
0
 42
2.5
  3
OpenSans-BoldItalic.ttf
  4

  0
STYLE
  5
49
330
5
100
AcDbSymbolTableRecord
100
AcDbTextStyleTableRecord
  2
OpenSans-ExtraBold
 70
0
 40
0.0
 41
1.0
 50
0.0
 71
0
 42
2.5
  3
OpenSans-ExtraBold.ttf
  4

  0
STYLE
  5
4A
330
5
100
AcDbSymbolTableRecord
100
AcDbTextStyleTableRecord
  2
OpenSans-ExtraBoldItalic
 70
0
 40
0.0
 41
1.0
 50
0.0
 71
0
 42
2.5
  3
OpenSans-ExtraBoldItalic.ttf
  4

  0
STYLE
  5
4B
330
5
100
AcDbSymbolTableRecord
100
AcDbTextStyleTableRecord
  2
OpenSansCondensed-Bold
 70
0
 40
0.0
 41
1.0
 50
0.0
 71
0
 42
2.5
  3
OpenSansCondensed-Bold.ttf
  4

  0
STYLE
  5
4C
330
5
100
AcDbSymbolTableRecord
100
AcDbTextStyleTableRecord
  2
OpenSansCondensed-Light
 70
0
 40
0.0
 41
1.0
 50
0.0
 71
0
 42
2.5
  3
OpenSansCondensed-Light.ttf
  4

  0
STYLE
  5
4D
330
5
100
AcDbSymbolTableRecord
100
AcDbTextStyleTableRecord
  2
OpenSansCondensed-Italic
 70
0
 40
0.0
 41
1.0
 50
0.0
 71
0
 42
2.5
  3
OpenSansCondensed-LightItalic.ttf
  4

  0
STYLE
  5
4E
330
5
100
AcDbSymbolTableRecord
100
AcDbTextStyleTableRecord
  2
LiberationSans
 70
0
 40
0.0
 41
1.0
 50
0.0
 71
0
 42
2.5
  3
LiberationSans-Regular.ttf
  4

  0
STYLE
  5
4F
330
5
100
AcDbSymbolTableRecord
100
AcDbTextStyleTableRecord
  2
LiberationSans-Bold
 70
0
 40
0.0
 41
1.0
 50
0.0
 71
0
 42
2.5
  3
LiberationSans-Bold.ttf
  4

  0
STYLE
  5
50
330
5
100
AcDbSymbolTableRecord
100
AcDbTextStyleTableRecord
  2
LiberationSans-BoldItalic
 70
0
 40
0.0
 41
1.0
 50
0.0
 71
0
 42
2.5
  3
LiberationSans-BoldItalic.ttf
  4

  0
STYLE
  5
51
330
5
100
AcDbSymbolTableRecord
100
AcDbTextStyleTableRecord
  2
LiberationSans-Italic
 70
0
 40
0.0
 41
1.0
 50
0.0
 71
0
 42
2.5
  3
LiberationSans-Italic.ttf
  4

  0
STYLE
  5
52
330
5
100
AcDbSymbolTableRecord
100
AcDbTextStyleTableRecord
  2
LiberationSerif
 70
0
 40
0.0
 41
1.0
 50
0.0
 71
0
 42
2.5
  3
LiberationSerif-Regular.ttf
  4

  0
STYLE
  5
53
330
5
100
AcDbSymbolTableRecord
100
AcDbTextStyleTableRecord
  2
LiberationSerif-Bold
 70
0
 40
0.0
 41
1.0
 50
0.0
 71
0
 42
2.5
  3
LiberationSerif-Bold.ttf
  4

  0
STYLE
  5
54
330
5
100
AcDbSymbolTableRecord
100
AcDbTextStyleTableRecord
  2
LiberationSerif-BoldItalic
 70
0
 40
0.0
 41
1.0
 50
0.0
 71
0
 42
2.5
  3
LiberationSerif-BoldItalic.ttf
  4

  0
STYLE
  5
55
330
5
100
AcDbSymbolTableRecord
100
AcDbTextStyleTableRecord
  2
LiberationSerif-Italic
 70
0
 40
0.0
 41
1.0
 50
0.0
 71
0
 42
2.5
  3
LiberationSerif-Italic.ttf
  4

  0
STYLE
  5
56
330
5
100
AcDbSymbolTableRecord
100
AcDbTextStyleTableRecord
  2
LiberationMono
 70
0
 40
0.0
 41
1.0
 50
0.0
 71
0
 42
2.5
  3
LiberationMono-Regular.ttf
  4

  0
STYLE
  5
57
330
5
100
AcDbSymbolTableRecord
100
AcDbTextStyleTableRecord
  2
LiberationMono-Bold
 70
0
 40
0.0
 41
1.0
 50
0.0
 71
0
 42
2.5
  3
LiberationMono-Bold.ttf
  4

  0
STYLE
  5
58
330
5
100
AcDbSymbolTableRecord
100
AcDbTextStyleTableRecord
  2
LiberationMono-BoldItalic
 70
0
 40
0.0
 41
1.0
 50
0.0
 71
0
 42
2.5
  3
LiberationMono-BoldItalic.ttf
  4

  0
STYLE
  5
59
330
5
100
AcDbSymbolTableRecord
100
AcDbTextStyleTableRecord
  2
LiberationMono-Italic
 70
0
 40
0.0
 41
1.0
 50
0.0
 71
0
 42
2.5
  3
LiberationMono-Italic.ttf
  4

  0
STYLE
  5
8A
330
5
100
AcDbSymbolTableRecord
100
AcDbTextStyleTableRecord
  2
JP
 70
0
 40
0.0
 41
1.0
 50
0.0
 71
0
 42
2.5
  3
ipag.ttf
  4

  0
ENDTAB
  0
TABLE
  2
VIEW
  5
7
330
0
100
AcDbSymbolTable
 70
0
  0
ENDTAB
  0
TABLE
  2
UCS
  5
6
330
0
100
AcDbSymbolTable
 70
0
  0
ENDTAB
  0
TABLE
  2
APPID
  5
3
330
0
100
AcDbSymbolTable
 70
4
  0
APPID
  5
2A
330
3
100
AcDbSymbolTableRecord
100
AcDbRegAppTableRecord
  2
ACAD
 70
0
  0
APPID
  5
8C
330
3
100
AcDbSymbolTableRecord
100
AcDbRegAppTableRecord
  2
AcAecLayerStandard
 70
0
  0
APPID
  5
3D0
330
3
100
AcDbSymbolTableRecord
100
AcDbRegAppTableRecord
  2
HATCHBACKGROUNDCOLOR
 70
0
  0
APPID
  5
3D1
330
3
100
AcDbSymbolTableRecord
100
AcDbRegAppTableRecord
  2
EZDXF
 70
0
  0
ENDTAB
  0
TABLE
  2
DIMSTYLE
  5
4
330
0
100
AcDbSymbolTable
 70
13
100
AcDbDimStyleTable
  0
DIMSTYLE
105
2B
330
4
100
AcDbSymbolTableRecord
100
AcDbDimStyleTableRecord
  2
Standard
 70
0
 40
1.0
 41
2.5
 42
0.625
 43
3.75
 44
1.25
 45
0.0
 46
0.0
 47
0.0
 48
0.0
 49
2.5
140
2.5
141
2.5
142
0.0
143
0.03937007874
144
1.0
145
0.0
146
1.0
147
0.625
148
0.0
 69
0
 70
0
 71
0
 72
0
 73
0
 74
0
 75
0
 76
0
 77
1
 78
8
 79
3
170
0
171
3
172
1
173
0
174
0
175
0
176
0
177
0
178
0
179
2
271
2
272
2
273
2
274
3
275
0
276
0
277
2
278
44
279
0
280
0
281
0
282
0
283
0
284
8
285
0
286
0
288
0
289
3
290
0
371
-2
372
-2
  0
DIMSTYLE
105
73
330
4
100
AcDbSymbolTableRecord
100
AcDbDimStyleTableRecord
  2
EZDXF
 70
0
 40
1.0
 41
0.175
 42
0.125
 43
3.75
 44
0.375
 45
0.0
 46
0.0
 47
0.0
 48
0.0
 49
2.5
140
0.25
141
2.5
142
0.0
143
0.03937007874
144
100.0
145
0.0
146
0.5
147
0.1
148
0.0
 69
0
 70
0
 71
0
 72
0
 73
0
 74
0
 75
0
 76
0
 77
1
 78
12
 79
3
170
0
171
3
172
1
173
0
174
0
175
0
176
0
177
0
178
0
179
2
271
2
272
2
273
2
274
3
275
0
276
0
277
2
278
46
279
2
280
0
281
0
282
0
283
0
284
8
285
0
286
0
288
1
289
3
290
0
340
4C
342
74
371
-2
372
-2
  0
DIMSTYLE
105
7C
330
4
100
AcDbSymbolTableRecord
100
AcDbDimStyleTableRecord
  2
EZ_M_100_H25_CM
 70
0
 40
1.0
 41
0.25
 42
0.125
 43
3.75
 44
0.375
 45
0.0
 46
0.0
 47
0.0
 48
0.0
 49
2.5
140
0.25
141
2.5
142
0.125
143
0.03937007874
144
100.0
145
0.0
146
0.5
147
0.1
148
0.0
 69
0
 70
0
 71
0
 72
0
 73
0
 74
0
 75
0
 76
0
 77
1
 78
12
 79
3
170
0
171
3
172
1
173
0
174
0
175
0
176
0
177
0
178
0
179
2
271
2
272
2
273
2
274
3
275
0
276
0
277
2
278
46
279
2
280
0
281
0
282
0
283
0
284
8
285
0
286
0
288
1
289
3
290
0
340
4C
371
-2
372
-2
  0
DIMSTYLE
105
7D
330
4
100
AcDbSymbolTableRecord
100
AcDbDimStyleTableRecord
  2
EZ_M_50_H25_CM
 70
0
 40
1.0
 41
0.125
 42
0.0625
 43
3.75
 44
0.1875
 45
0.0
 46
0.0
 47
0.0
 48
0.0
 49
2.5
140
0.125
141
2.5
142
0.0625
143
0.03937007874
144
100.0
145
0.0
146
0.5
147
0.05
148
0.0
 69
0
 70
0
 71
0
 72
0
 73
0
 74
0
 75
0
 76
0
 77
1
 78
12
 79
3
170
0
171
3
172
1
173
0
174
0
175
0
176
0
177
0
178
0
179
2
271
2
272
2
273
2
274
3
275
0
276
0
277
2
278
46
279
2
280
0
281
0
282
0
283
0
284
8
285
0
286
0
288
1
289
3
290
0
340
4C
371
-2
372
-2
  0
DIMSTYLE
105
7E
330
4
100
AcDbSymbolTableRecord
100
AcDbDimStyleTableRecord
  2
EZ_M_25_H25_CM
 70
0
 40
1.0
 41
0.0625
 42
0.03125
 43
3.75
 44
0.09375
 45
0.0
 46
0.0
 47
0.0
 48
0.0
 49
2.5
140
0.0625
141
2.5
142
0.03125
143
0.03937007874
144
100.0
145
0.0
146
0.5
147
0.025
148
0.0
 69
0
 70
0
 71
0
 72
0
 73
0
 74
0
 75
0
 76
0
 77
1
 78
12
 79
3
170
0
171
3
172
1
173
0
174
0
175
0
176
0
177
0
178
0
179
2
271
2
272
2
273
2
274
3
275
0
276
0
277
2
278
46
279
2
280
0
281
0
282
0
283
0
284
8
285
0
286
0
288
1
289
3
290
0
340
4C
371
-2
372
-2
  0
DIMSTYLE
105
7F
330
4
100
AcDbSymbolTableRecord
100
AcDbDimStyleTableRecord
  2
EZ_M_20_H25_CM
 70
0
 40
1.0
 41
0.05
 42
0.025
 43
3.75
 44
0.07500000000000001
 45
0.0
 46
0.0
 47
0.0
 48
0.0
 49
2.5
140
0.05
141
2.5
142
0.025
143
0.03937007874
144
100.0
145
0.0
146
0.5
147
0.020000000000000004
148
0.0
 69
0
 70
0
 71
0
 72
0
 73
0
 74
0
 75
0
 76
0
 77
1
 78
12
 79
3
170
0
171
3
172
1
173
0
174
0
175
0
176
0
177
0
178
0
179
2
271
2
272
2
273
2
274
3
275
0
276
0
277
2
278
46
279
2
280
0
281
0
282
0
283
0
284
8
285
0
286
0
288
1
289
3
290
0
340
4C
371
-2
372
-2
  0
DIMSTYLE
105
80
330
4
100
AcDbSymbolTableRecord
100
AcDbDimStyleTableRecord
  2
EZ_M_10_H25_CM
 70
0
 40
1.0
 41
0.025
 42
0.0125
 43
3.75
 44
0.037500000000000006
 45
0.0
 46
0.0
 47
0.0
 48
0.0
 49
2.5
140
0.025
141
2.5
142
0.0125
143
0.03937007874
144
100.0
145
0.0
146
0.5
147
0.010000000000000002
148
0.0
 69
0
 70
0
 71
0
 72
0
 73
0
 74
0
 75
0
 76
0
 77
1
 78
12
 79
3
170
0
171
3
172
1
173
0
174
0
175
0
176
0
177
0
178
0
179
2
271
2
272
2
273
2
274
3
275
0
276
0
277
2
278
46
279
2
280
0
281
0
282
0
283
0
284
8
285
0
286
0
288
1
289
3
290
0
340
4C
371
-2
372
-2
  0
DIMSTYLE
105
81
330
4
100
AcDbSymbolTableRecord
100
AcDbDimStyleTableRecord
  2
EZ_M_5_H25_CM
 70
0
 40
1.0
 41
0.0125
 42
0.00625
 43
3.75
 44
0.018750000000000003
 45
0.0
 46
0.0
 47
0.0
 48
0.0
 49
2.5
140
0.0125
141
2.5
142
0.00625
143
0.03937007874
144
100.0
145
0.0
146
0.5
147
0.005000000000000001
148
0.0
 69
0
 70
0
 71
0
 72
0
 73
0
 74
0
 75
0
 76
0
 77
1
 78
12
 79
3
170
0
171
3
172
1
173
0
174
0
175
0
176
0
177
0
178
0
179
2
271
2
272
2
273
2
274
3
275
0
276
0
277
2
278
46
279
2
280
0
281
0
282
0
283
0
284
8
285
0
286
0
288
1
289
3
290
0
340
4C
371
-2
372
-2
  0
DIMSTYLE
105
82
330
4
100
AcDbSymbolTableRecord
100
AcDbDimStyleTableRecord
  2
EZ_M_1_H25_CM
 70
0
 40
1.0
 41
0.0025
 42
0.00125
 43
3.75
 44
0.00375
 45
0.0
 46
0.0
 47
0.0
 48
0.0
 49
2.5
140
0.0025
141
2.5
142
0.00125
143
0.03937007874
144
100.0
145
0.0
146
0.5
147
0.001
148
0.0
 69
0
 70
0
 71
0
 72
0
 73
0
 74
0
 75
0
 76
0
 77
1
 78
12
 79
3
170
0
171
3
172
1
173
0
174
0
175
0
176
0
177
0
178
0
179
2
271
2
272
2
273
2
274
3
275
0
276
0
277
2
278
46
279
2
280
0
281
0
282
0
283
0
284
8
285
0
286
0
288
1
289
3
290
0
340
4C
371
-2
372
-2
  0
DIMSTYLE
105
83
330
4
100
AcDbSymbolTableRecord
100
AcDbDimStyleTableRecord
  2
EZ_RADIUS
 70
0
 40
1.0
 41
0.25
 42
0.125
 43
3.75
 44
0.375
 45
0.0
 46
0.0
 47
0.0
 48
0.0
 49
2.5
140
0.25
141
0.0
142
0.0
143
0.03937007874
144
100.0
145
0.0
146
0.5
147
0.1
148
0.0
 69
0
 70
0
 71
0
 72
0
 73
0
 74
0
 75
0
 76
0
 77
1
 78
12
 79
3
170
0
171
3
172
0
173
0
174
0
175
0
176
0
177
0
178
0
179
2
271
2
272
2
273
2
274
3
275
0
276
0
277
2
278
46
279
1
280
0
281
0
282
0
283
0
284
8
285
0
286
0
288
1
289
3
290
0
340
4C
342
84
371
-2
372
-2
  0
DIMSTYLE
105
88
330
4
100
AcDbSymbolTableRecord
100
AcDbDimStyleTableRecord
  2
EZ_RADIUS_INSIDE
 70
0
 40
1.0
 41
0.25
 42
0.125
 43
3.75
 44
0.375
 45
0.0
 46
0.0
 47
0.0
 48
0.0
 49
2.5
140
0.25
141
0.0
142
0.0
143
0.03937007874
144
100.0
145
0.0
146
0.5
147
0.1
148
0.0
 69
0
 70
0
 71
0
 72
0
 73
0
 74
0
 75
0
 76
0
 77
0
 78
12
 79
3
170
0
171
3
172
0
173
0
174
1
175
0
176
0
177
0
178
0
179
2
271
2
272
2
273
2
274
3
275
0
276
0
277
2
278
46
279
0
280
0
281
0
282
0
283
0
284
8
285
0
286
0
288
1
289
0
290
0
340
4C
342
84
371
-2
372
-2
  0
DIMSTYLE
105
89
330
4
100
AcDbSymbolTableRecord
100
AcDbDimStyleTableRecord
  2
EZ_CURVED
 70
0
 40
1.0
 41
0.25
 42
0.125
 43
3.75
 44
0.375
 45
0.0
 46
0.0
 47
0.0
 48
0.0
 49
2.5
140
0.25
141
2.5
142
0.0
143
0.03937007874
144
100.0
145
0.0
146
0.5
147
0.1
148
0.0
 69
0
 70
0
 71
0
 72
0
 73
0
 74
0
 75
0
 76
0
 77
1
 78
12
 79
2
 90
2
170
0
171
3
172
1
173
0
174
0
175
0
176
0
177
0
178
0
179
2
271
2
272
2
273
2
274
3
275
0
276
0
277
2
278
46
279
2
280
0
281
0
282
0
283
0
284
8
285
0
286
0
288
1
289
3
290
0
340
4C
371
-2
372
-2
  0
DIMSTYLE
105
B4
330
4
100
AcDbSymbolTableRecord
100
AcDbDimStyleTableRecord
  2
JIS
 70
0
 40
100.0
 41
1.0
 42
1.0
 43
3.75
 44
1.0
 45
0.0
 46
0.0
 47
0.0
 48
0.0
 49
2.5
140
2.0
141
2.5
142
0.0
143
0.03937007874
144
1.0
145
0.0
146
1.0
147
0.6
148
0.0
 69
0
 70
0
 71
0
 72
0
 73
0
 74
0
 75
0
 76
0
 77
1
 78
8
 79
3
170
0
171
3
172
1
173
0
174
0
175
0
176
7
177
7
178
7
179
2
271
0
272
2
273
2
274
3
275
0
276
0
277
2
278
44
279
0
280
0
281
0
282
0
283
0
284
8
285
0
286
0
288
0
289
3
290
0
340
8A
342
143
371
13
372
13
  0
ENDTAB
  0
TABLE
  2
BLOCK_RECORD
  5
9
330
0
100
AcDbSymbolTable
 70
36
  0
BLOCK_RECORD
  5
17
330
9
100
AcDbSymbolTableRecord
100
AcDbBlockTableRecord
  2
*Model_Space
340
1A
 70
0
280
1
281
0
  0
BLOCK_RECORD
  5
1B
330
9
100
AcDbSymbolTableRecord
100
AcDbBlockTableRecord
  2
*Paper_Space
340
1E
 70
0
280
1
281
0
  0
BLOCK_RECORD
  5
74
330
9
100
AcDbSymbolTableRecord
100
AcDbBlockTableRecord
  2
_ARCHTICK
340
0
 70
0
280
1
281
0
  0
BLOCK_RECORD
  5
78
330
9
100
AcDbSymbolTableRecord
100
AcDbBlockTableRecord
  2
_CLOSEDFILLED
340
0
 70
0
280
1
281
0
  0
BLOCK_RECORD
  5
84
330
9
100
AcDbSymbolTableRecord
100
AcDbBlockTableRecord
  2
_CLOSEDBLANK
340
0
 70
0
280
1
281
0
  0
BLOCK_RECORD
  5
13E
330
9
100
AcDbSymbolTableRecord
100
AcDbBlockTableRecord
  2
*D1
340
0
 70
0
280
1
281
0
  0
BLOCK_RECORD
  5
143
330
9
100
AcDbSymbolTableRecord
100
AcDbBlockTableRecord
  2
_DOT
340
0
 70
0
280
1
281
0
  0
BLOCK_RECORD
  5
152
330
9
100
AcDbSymbolTableRecord
100
AcDbBlockTableRecord
  2
*D2
340
0
 70
0
280
1
281
0
  0
BLOCK_RECORD
  5
161
330
9
100
AcDbSymbolTableRecord
100
AcDbBlockTableRecord
  2
*D3
340
0
 70
0
280
1
281
0
  0
BLOCK_RECORD
  5
170
330
9
100
AcDbSymbolTableRecord
100
AcDbBlockTableRecord
  2
*D4
340
0
 70
0
280
1
281
0
  0
BLOCK_RECORD
  5
17F
330
9
100
AcDbSymbolTableRecord
100
AcDbBlockTableRecord
  2
*D5
340
0
 70
0
280
1
281
0
  0
BLOCK_RECORD
  5
18E
330
9
100
AcDbSymbolTableRecord
100
AcDbBlockTableRecord
  2
*D6
340
0
 70
0
280
1
281
0
  0
BLOCK_RECORD
  5
19D
330
9
100
AcDbSymbolTableRecord
100
AcDbBlockTableRecord
  2
*D7
340
0
 70
0
280
1
281
0
  0
BLOCK_RECORD
  5
1AC
330
9
100
AcDbSymbolTableRecord
100
AcDbBlockTableRecord
  2
*D8
340
0
 70
0
280
1
281
0
  0
BLOCK_RECORD
  5
1BB
330
9
100
AcDbSymbolTableRecord
100
AcDbBlockTableRecord
  2
*D9
340
0
 70
0
280
1
281
0
  0
BLOCK_RECORD
  5
1CA
330
9
100
AcDbSymbolTableRecord
100
AcDbBlockTableRecord
  2
*D10
340
0
 70
0
280
1
281
0
  0
BLOCK_RECORD
  5
1D9
330
9
100
AcDbSymbolTableRecord
100
AcDbBlockTableRecord
  2
*D11
340
0
 70
0
280
1
281
0
  0
BLOCK_RECORD
  5
1E8
330
9
100
AcDbSymbolTableRecord
100
AcDbBlockTableRecord
  2
*D12
340
0
 70
0
280
1
281
0
  0
BLOCK_RECORD
  5
1F7
330
9
100
AcDbSymbolTableRecord
100
AcDbBlockTableRecord
  2
*D13
340
0
 70
0
280
1
281
0
  0
BLOCK_RECORD
  5
206
330
9
100
AcDbSymbolTableRecord
100
AcDbBlockTableRecord
  2
*D14
340
0
 70
0
280
1
281
0
  0
BLOCK_RECORD
  5
215
330
9
100
AcDbSymbolTableRecord
100
AcDbBlockTableRecord
  2
*D15
340
0
 70
0
280
1
281
0
  0
BLOCK_RECORD
  5
224
330
9
100
AcDbSymbolTableRecord
100
AcDbBlockTableRecord
  2
*D16
340
0
 70
0
280
1
281
0
  0
BLOCK_RECORD
  5
233
330
9
100
AcDbSymbolTableRecord
100
AcDbBlockTableRecord
  2
*D17
340
0
 70
0
280
1
281
0
  0
BLOCK_RECORD
  5
242
330
9
100
AcDbSymbolTableRecord
100
AcDbBlockTableRecord
  2
*D18
340
0
 70
0
280
1
281
0
  0
BLOCK_RECORD
  5
251
330
9
100
AcDbSymbolTableRecord
100
AcDbBlockTableRecord
  2
*D19
340
0
 70
0
280
1
281
0
  0
BLOCK_RECORD
  5
260
330
9
100
AcDbSymbolTableRecord
100
AcDbBlockTableRecord
  2
*D20
340
0
 70
0
280
1
281
0
  0
BLOCK_RECORD
  5
26F
330
9
100
AcDbSymbolTableRecord
100
AcDbBlockTableRecord
  2
*D21
340
0
 70
0
280
1
281
0
  0
BLOCK_RECORD
  5
27E
330
9
100
AcDbSymbolTableRecord
100
AcDbBlockTableRecord
  2
*D22
340
0
 70
0
280
1
281
0
  0
BLOCK_RECORD
  5
28D
330
9
100
AcDbSymbolTableRecord
100
AcDbBlockTableRecord
  2
*D23
340
0
 70
0
280
1
281
0
  0
BLOCK_RECORD
  5
29C
330
9
100
AcDbSymbolTableRecord
100
AcDbBlockTableRecord
  2
*D24
340
0
 70
0
280
1
281
0
  0
BLOCK_RECORD
  5
2AB
330
9
100
AcDbSymbolTableRecord
100
AcDbBlockTableRecord
  2
*D25
340
0
 70
0
280
1
281
0
  0
BLOCK_RECORD
  5
2BA
330
9
100
AcDbSymbolTableRecord
100
AcDbBlockTableRecord
  2
*D26
340
0
 70
0
280
1
281
0
  0
BLOCK_RECORD
  5
2C9
330
9
100
AcDbSymbolTableRecord
100
AcDbBlockTableRecord
  2
*D27
340
0
 70
0
280
1
281
0
  0
BLOCK_RECORD
  5
2D8
330
9
100
AcDbSymbolTableRecord
100
AcDbBlockTableRecord
  2
*D28
340
0
 70
0
280
1
281
0
  0
BLOCK_RECORD
  5
2E7
330
9
100
AcDbSymbolTableRecord
100
AcDbBlockTableRecord
  2
*D29
340
0
 70
0
280
1
281
0
  0
BLOCK_RECORD
  5
2F6
330
9
100
AcDbSymbolTableRecord
100
AcDbBlockTableRecord
  2
*D30
340
0
 70
0
280
1
281
0
  0
ENDTAB
  0
ENDSEC
  0
SECTION
  2
BLOCKS
  0
BLOCK
  5
18
330
17
100
AcDbEntity
  8
0
100
AcDbBlockBegin
  2
*Model_Space
 70
0
 10
0.0
 20
0.0
 30
0.0
  3
*Model_Space
  1

  0
ENDBLK
  5
19
330
17
100
AcDbEntity
  8
0
100
AcDbBlockEnd
  0
BLOCK
  5
1C
330
1B
100
AcDbEntity
  8
0
100
AcDbBlockBegin
  2
*Paper_Space
 70
0
 10
0.0
 20
0.0
 30
0.0
  3
*Paper_Space
  1

  0
ENDBLK
  5
1D
330
1B
100
AcDbEntity
  8
0
100
AcDbBlockEnd
  0
BLOCK
  5
75
330
74
100
AcDbEntity
  8
0
100
AcDbBlockBegin
  2
_ARCHTICK
 70
0
 10
0.0
 20
0.0
 30
0.0
  3
_ARCHTICK
  1

  0
LWPOLYLINE
  5
77
330
74
100
AcDbEntity
  8
0
  6
BYBLOCK
 62
0
100
AcDbPolyline
 90
2
 70
0
 43
0.15
 10
-0.5
 20
-0.5
 10
0.5
 20
0.5
  0
ENDBLK
  5
76
330
74
100
AcDbEntity
  8
0
100
AcDbBlockEnd
  0
BLOCK
  5
79
330
78
100
AcDbEntity
  8
0
100
AcDbBlockBegin
  2
_CLOSEDFILLED
 70
0
 10
0.0
 20
0.0
 30
0.0
  3
_CLOSEDFILLED
  1

  0
SOLID
  5
7B
330
78
100
AcDbEntity
  8
0
  6
BYBLOCK
 62
0
100
AcDbTrace
 10
-1.0
 20
0.16439898372402537
 30
0.0
 11
0.0
 21
0.0
 31
0.0
 12
-1.0
 22
-0.16439898372402537
 32
0.0
 13
-1.0
 23
-0.16439898372402537
 33
0.0
  0
ENDBLK
  5
7A
330
78
100
AcDbEntity
  8
0
100
AcDbBlockEnd
  0
BLOCK
  5
85
330
84
100
AcDbEntity
  8
0
100
AcDbBlockBegin
  2
_CLOSEDBLANK
 70
0
 10
0.0
 20
0.0
 30
0.0
  3
_CLOSEDBLANK
  1

  0
LWPOLYLINE
  5
87
330
84
100
AcDbEntity
  8
0
  6
BYBLOCK
 62
0
100
AcDbPolyline
 90
3
 70
1
 10
-1.0
 20
0.16439898372402537
 10
0.0
 20
0.0
 10
-1.0
 20
-0.16439898372402537
  0
ENDBLK
  5
86
330
84
100
AcDbEntity
  8
0
100
AcDbBlockEnd
  0
BLOCK
  5
13F
330
13E
100
AcDbEntity
  8
0
100
AcDbBlockBegin
  2
*D1
 70
1
 10
0.0
 20
0.0
 30
0.0
  3
*D1
  1

  0
LINE
  5
141
330
13E
100
AcDbEntity
  8
0
 62
7
370
13
100
AcDbLine
 10
5200.0
 20
6500.0
 30
0.0
 11
5200.0
 21
6500.0
 31
0.0
  0
LINE
  5
142
330
13E
100
AcDbEntity
  8
0
 62
7
370
13
100
AcDbLine
 10
6100.0
 20
6500.0
 30
0.0
 11
6100.0
 21
6500.0
 31
0.0
  0
INSERT
  5
148
330
13E
100
AcDbEntity
  8
A-DIMS
 62
7
100
AcDbBlockReference
  2
_DOT
 10
5200.0
 20
6400.0
 30
0.0
 41
100.0
 42
100.0
 50
180.0
  0
INSERT
  5
14A
330
13E
100
AcDbEntity
  8
A-DIMS
 62
7
100
AcDbBlockReference
  2
_DOT
 10
6100.0
 20
6400.0
 30
0.0
 41
100.0
 42
100.0
  0
LINE
  5
14C
330
13E
100
AcDbEntity
  8
0
 62
7
370
13
100
AcDbLine
 10
5300.0
 20
6400.0
 30
0.0
 11
6000.0
 21
6400.0
 31
0.0
  0
MTEXT
  5
14D
330
13E
100
AcDbEntity
  8
A-DIMS
 62
7
100
AcDbMText
 10
5650.0
 20
6560.0
 30
0.0
 40
200.0
 71
5
  1
900
  7
JP
  0
POINT
  5
14E
330
13E
100
AcDbEntity
  8
Defpoints
100
AcDbPoint
 10
5200.0
 20
6400.0
 30
0.0
  0
POINT
  5
14F
330
13E
100
AcDbEntity
  8
Defpoints
100
AcDbPoint
 10
5200.0
 20
6400.0
 30
0.0
  0
POINT
  5
150
330
13E
100
AcDbEntity
  8
Defpoints
100
AcDbPoint
 10
6100.0
 20
6400.0
 30
0.0
  0
ENDBLK
  5
140
330
13E
100
AcDbEntity
  8
0
100
AcDbBlockEnd
  0
BLOCK
  5
144
330
143
100
AcDbEntity
  8
0
100
AcDbBlockBegin
  2
_DOT
 70
0
 10
0.0
 20
0.0
 30
0.0
  3
_DOT
  1

  0
LINE
  5
146
330
143
100
AcDbEntity
  8
0
  6
BYBLOCK
 62
0
100
AcDbLine
 10
-0.5
 20
0.0
 30
0.0
 11
-1.0
 21
0.0
 31
0.0
  0
LWPOLYLINE
  5
147
330
143
100
AcDbEntity
  8
0
  6
BYBLOCK
 62
0
100
AcDbPolyline
 90
2
 70
1
 43
0.5
 10
-0.25
 20
0.0
 42
1.0
 10
0.25
 20
0.0
 42
1.0
  0
ENDBLK
  5
145
330
143
100
AcDbEntity
  8
0
100
AcDbBlockEnd
  0
BLOCK
  5
153
330
152
100
AcDbEntity
  8
0
100
AcDbBlockBegin
  2
*D2
 70
1
 10
0.0
 20
0.0
 30
0.0
  3
*D2
  1

  0
LINE
  5
155
330
152
100
AcDbEntity
  8
0
 62
7
370
13
100
AcDbLine
 10
6100.0
 20
6500.0
 30
0.0
 11
6100.0
 21
6500.0
 31
0.0
  0
LINE
  5
156
330
152
100
AcDbEntity
  8
0
 62
7
370
13
100
AcDbLine
 10
7100.0
 20
6500.0
 30
0.0
 11
7100.0
 21
6500.0
 31
0.0
  0
INSERT
  5
157
330
152
100
AcDbEntity
  8
A-DIMS
 62
7
100
AcDbBlockReference
  2
_DOT
 10
6100.0
 20
6400.0
 30
0.0
 41
100.0
 42
100.0
 50
180.0
  0
INSERT
  5
159
330
152
100
AcDbEntity
  8
A-DIMS
 62
7
100
AcDbBlockReference
  2
_DOT
 10
7100.0
 20
6400.0
 30
0.0
 41
100.0
 42
100.0
  0
LINE
  5
15B
330
152
100
AcDbEntity
  8
0
 62
7
370
13
100
AcDbLine
 10
6200.0
 20
6400.0
 30
0.0
 11
7000.0
 21
6400.0
 31
0.0
  0
MTEXT
  5
15C
330
152
100
AcDbEntity
  8
A-DIMS
 62
7
100
AcDbMText
 10
6600.0
 20
6560.0
 30
0.0
 40
200.0
 71
5
  1
1,000
  7
JP
  0
POINT
  5
15D
330
152
100
AcDbEntity
  8
Defpoints
100
AcDbPoint
 10
6100.0
 20
6400.0
 30
0.0
  0
POINT
  5
15E
330
152
100
AcDbEntity
  8
Defpoints
100
AcDbPoint
 10
6100.0
 20
6400.0
 30
0.0
  0
POINT
  5
15F
330
152
100
AcDbEntity
  8
Defpoints
100
AcDbPoint
 10
7100.0
 20
6400.0
 30
0.0
  0
ENDBLK
  5
154
330
152
100
AcDbEntity
  8
0
100
AcDbBlockEnd
  0
BLOCK
  5
162
330
161
100
AcDbEntity
  8
0
100
AcDbBlockBegin
  2
*D3
 70
1
 10
0.0
 20
0.0
 30
0.0
  3
*D3
  1

  0
LINE
  5
164
330
161
100
AcDbEntity
  8
0
 62
7
370
13
100
AcDbLine
 10
7100.0
 20
6500.0
 30
0.0
 11
7100.0
 21
6500.0
 31
0.0
  0
LINE
  5
165
330
161
100
AcDbEntity
  8
0
 62
7
370
13
100
AcDbLine
 10
9400.0
 20
6500.0
 30
0.0
 11
9400.0
 21
6500.0
 31
0.0
  0
INSERT
  5
166
330
161
100
AcDbEntity
  8
A-DIMS
 62
7
100
AcDbBlockReference
  2
_DOT
 10
7100.0
 20
6400.0
 30
0.0
 41
100.0
 42
100.0
 50
180.0
  0
INSERT
  5
168
330
161
100
AcDbEntity
  8
A-DIMS
 62
7
100
AcDbBlockReference
  2
_DOT
 10
9400.0
 20
6400.0
 30
0.0
 41
100.0
 42
100.0
  0
LINE
  5
16A
330
161
100
AcDbEntity
  8
0
 62
7
370
13
100
AcDbLine
 10
7200.0
 20
6400.0
 30
0.0
 11
9300.0
 21
6400.0
 31
0.0
  0
MTEXT
  5
16B
330
161
100
AcDbEntity
  8
A-DIMS
 62
7
100
AcDbMText
 10
8250.0
 20
6560.0
 30
0.0
 40
200.0
 71
5
  1
2,300
  7
JP
  0
POINT
  5
16C
330
161
100
AcDbEntity
  8
Defpoints
100
AcDbPoint
 10
7100.0
 20
6400.0
 30
0.0
  0
POINT
  5
16D
330
161
100
AcDbEntity
  8
Defpoints
100
AcDbPoint
 10
7100.0
 20
6400.0
 30
0.0
  0
POINT
  5
16E
330
161
100
AcDbEntity
  8
Defpoints
100
AcDbPoint
 10
9400.0
 20
6400.0
 30
0.0
  0
ENDBLK
  5
163
330
161
100
AcDbEntity
  8
0
100
AcDbBlockEnd
  0
BLOCK
  5
171
330
170
100
AcDbEntity
  8
0
100
AcDbBlockBegin
  2
*D4
 70
1
 10
0.0
 20
0.0
 30
0.0
  3
*D4
  1

  0
LINE
  5
173
330
170
100
AcDbEntity
  8
0
 62
7
370
13
100
AcDbLine
 10
9400.0
 20
6500.0
 30
0.0
 11
9400.0
 21
6500.0
 31
0.0
  0
LINE
  5
174
330
170
100
AcDbEntity
  8
0
 62
7
370
13
100
AcDbLine
 10
10400.0
 20
6500.0
 30
0.0
 11
10400.0
 21
6500.0
 31
0.0
  0
INSERT
  5
175
330
170
100
AcDbEntity
  8
A-DIMS
 62
7
100
AcDbBlockReference
  2
_DOT
 10
9400.0
 20
6400.0
 30
0.0
 41
100.0
 42
100.0
 50
180.0
  0
INSERT
  5
177
330
170
100
AcDbEntity
  8
A-DIMS
 62
7
100
AcDbBlockReference
  2
_DOT
 10
10400.0
 20
6400.0
 30
0.0
 41
100.0
 42
100.0
  0
LINE
  5
179
330
170
100
AcDbEntity
  8
0
 62
7
370
13
100
AcDbLine
 10
9500.0
 20
6400.0
 30
0.0
 11
10300.0
 21
6400.0
 31
0.0
  0
MTEXT
  5
17A
330
170
100
AcDbEntity
  8
A-DIMS
 62
7
100
AcDbMText
 10
9900.0
 20
6560.0
 30
0.0
 40
200.0
 71
5
  1
1,000
  7
JP
  0
POINT
  5
17B
330
170
100
AcDbEntity
  8
Defpoints
100
AcDbPoint
 10
9400.0
 20
6400.0
 30
0.0
  0
POINT
  5
17C
330
170
100
AcDbEntity
  8
Defpoints
100
AcDbPoint
 10
9400.0
 20
6400.0
 30
0.0
  0
POINT
  5
17D
330
170
100
AcDbEntity
  8
Defpoints
100
AcDbPoint
 10
10400.0
 20
6400.0
 30
0.0
  0
ENDBLK
  5
172
330
170
100
AcDbEntity
  8
0
100
AcDbBlockEnd
  0
BLOCK
  5
180
330
17F
100
AcDbEntity
  8
0
100
AcDbBlockBegin
  2
*D5
 70
1
 10
0.0
 20
0.0
 30
0.0
  3
*D5
  1

  0
LINE
  5
182
330
17F
100
AcDbEntity
  8
0
 62
7
370
13
100
AcDbLine
 10
10400.0
 20
6500.0
 30
0.0
 11
10400.0
 21
6500.0
 31
0.0
  0
LINE
  5
183
330
17F
100
AcDbEntity
  8
0
 62
7
370
13
100
AcDbLine
 10
11325.0
 20
6500.0
 30
0.0
 11
11325.0
 21
6500.0
 31
0.0
  0
INSERT
  5
184
330
17F
100
AcDbEntity
  8
A-DIMS
 62
7
100
AcDbBlockReference
  2
_DOT
 10
10400.0
 20
6400.0
 30
0.0
 41
100.0
 42
100.0
 50
180.0
  0
INSERT
  5
186
330
17F
100
AcDbEntity
  8
A-DIMS
 62
7
100
AcDbBlockReference
  2
_DOT
 10
11325.0
 20
6400.0
 30
0.0
 41
100.0
 42
100.0
  0
LINE
  5
188
330
17F
100
AcDbEntity
  8
0
 62
7
370
13
100
AcDbLine
 10
10500.0
 20
6400.0
 30
0.0
 11
11225.0
 21
6400.0
 31
0.0
  0
MTEXT
  5
189
330
17F
100
AcDbEntity
  8
A-DIMS
 62
7
100
AcDbMText
 10
10862.5
 20
6560.0
 30
0.0
 40
200.0
 71
5
  1
925
  7
JP
  0
POINT
  5
18A
330
17F
100
AcDbEntity
  8
Defpoints
100
AcDbPoint
 10
10400.0
 20
6400.0
 30
0.0
  0
POINT
  5
18B
330
17F
100
AcDbEntity
  8
Defpoints
100
AcDbPoint
 10
10400.0
 20
6400.0
 30
0.0
  0
POINT
  5
18C
330
17F
100
AcDbEntity
  8
Defpoints
100
AcDbPoint
 10
11325.0
 20
6400.0
 30
0.0
  0
ENDBLK
  5
181
330
17F
100
AcDbEntity
  8
0
100
AcDbBlockEnd
  0
BLOCK
  5
18F
330
18E
100
AcDbEntity
  8
0
100
AcDbBlockBegin
  2
*D6
 70
1
 10
0.0
 20
0.0
 30
0.0
  3
*D6
  1

  0
LINE
  5
191
330
18E
100
AcDbEntity
  8
0
 62
7
370
13
100
AcDbLine
 10
11325.0
 20
6500.0
 30
0.0
 11
11325.0
 21
6500.0
 31
0.0
  0
LINE
  5
192
330
18E
100
AcDbEntity
  8
0
 62
7
370
13
100
AcDbLine
 10
12400.0
 20
6500.0
 30
0.0
 11
12400.0
 21
6500.0
 31
0.0
  0
INSERT
  5
193
330
18E
100
AcDbEntity
  8
A-DIMS
 62
7
100
AcDbBlockReference
  2
_DOT
 10
11325.0
 20
6400.0
 30
0.0
 41
100.0
 42
100.0
 50
180.0
  0
INSERT
  5
195
330
18E
100
AcDbEntity
  8
A-DIMS
 62
7
100
AcDbBlockReference
  2
_DOT
 10
12400.0
 20
6400.0
 30
0.0
 41
100.0
 42
100.0
  0
LINE
  5
197
330
18E
100
AcDbEntity
  8
0
 62
7
370
13
100
AcDbLine
 10
11425.0
 20
6400.0
 30
0.0
 11
12300.0
 21
6400.0
 31
0.0
  0
MTEXT
  5
198
330
18E
100
AcDbEntity
  8
A-DIMS
 62
7
100
AcDbMText
 10
11862.5
 20
6560.0
 30
0.0
 40
200.0
 71
5
  1
1,075
  7
JP
  0
POINT
  5
199
330
18E
100
AcDbEntity
  8
Defpoints
100
AcDbPoint
 10
11325.0
 20
6400.0
 30
0.0
  0
POINT
  5
19A
330
18E
100
AcDbEntity
  8
Defpoints
100
AcDbPoint
 10
11325.0
 20
6400.0
 30
0.0
  0
POINT
  5
19B
330
18E
100
AcDbEntity
  8
Defpoints
100
AcDbPoint
 10
12400.0
 20
6400.0
 30
0.0
  0
ENDBLK
  5
190
330
18E
100
AcDbEntity
  8
0
100
AcDbBlockEnd
  0
BLOCK
  5
19E
330
19D
100
AcDbEntity
  8
0
100
AcDbBlockBegin
  2
*D7
 70
1
 10
0.0
 20
0.0
 30
0.0
  3
*D7
  1

  0
LINE
  5
1A0
330
19D
100
AcDbEntity
  8
0
 62
7
370
13
100
AcDbLine
 10
12400.0
 20
6500.0
 30
0.0
 11
12400.0
 21
6500.0
 31
0.0
  0
LINE
  5
1A1
330
19D
100
AcDbEntity
  8
0
 62
7
370
13
100
AcDbLine
 10
14000.0
 20
6500.0
 30
0.0
 11
14000.0
 21
6500.0
 31
0.0
  0
INSERT
  5
1A2
330
19D
100
AcDbEntity
  8
A-DIMS
 62
7
100
AcDbBlockReference
  2
_DOT
 10
12400.0
 20
6400.0
 30
0.0
 41
100.0
 42
100.0
 50
180.0
  0
INSERT
  5
1A4
330
19D
100
AcDbEntity
  8
A-DIMS
 62
7
100
AcDbBlockReference
  2
_DOT
 10
14000.0
 20
6400.0
 30
0.0
 41
100.0
 42
100.0
  0
LINE
  5
1A6
330
19D
100
AcDbEntity
  8
0
 62
7
370
13
100
AcDbLine
 10
12500.0
 20
6400.0
 30
0.0
 11
13900.0
 21
6400.0
 31
0.0
  0
MTEXT
  5
1A7
330
19D
100
AcDbEntity
  8
A-DIMS
 62
7
100
AcDbMText
 10
13200.0
 20
6560.0
 30
0.0
 40
200.0
 71
5
  1
1,600
  7
JP
  0
POINT
  5
1A8
330
19D
100
AcDbEntity
  8
Defpoints
100
AcDbPoint
 10
12400.0
 20
6400.0
 30
0.0
  0
POINT
  5
1A9
330
19D
100
AcDbEntity
  8
Defpoints
100
AcDbPoint
 10
12400.0
 20
6400.0
 30
0.0
  0
POINT
  5
1AA
330
19D
100
AcDbEntity
  8
Defpoints
100
AcDbPoint
 10
14000.0
 20
6400.0
 30
0.0
  0
ENDBLK
  5
19F
330
19D
100
AcDbEntity
  8
0
100
AcDbBlockEnd
  0
BLOCK
  5
1AD
330
1AC
100
AcDbEntity
  8
0
100
AcDbBlockBegin
  2
*D8
 70
1
 10
0.0
 20
0.0
 30
0.0
  3
*D8
  1

  0
LINE
  5
1AF
330
1AC
100
AcDbEntity
  8
0
 62
7
370
13
100
AcDbLine
 10
14000.0
 20
6500.0
 30
0.0
 11
14000.0
 21
6500.0
 31
0.0
  0
LINE
  5
1B0
330
1AC
100
AcDbEntity
  8
0
 62
7
370
13
100
AcDbLine
 10
17325.0
 20
6500.0
 30
0.0
 11
17325.0
 21
6500.0
 31
0.0
  0
INSERT
  5
1B1
330
1AC
100
AcDbEntity
  8
A-DIMS
 62
7
100
AcDbBlockReference
  2
_DOT
 10
14000.0
 20
6400.0
 30
0.0
 41
100.0
 42
100.0
 50
180.0
  0
INSERT
  5
1B3
330
1AC
100
AcDbEntity
  8
A-DIMS
 62
7
100
AcDbBlockReference
  2
_DOT
 10
17325.0
 20
6400.0
 30
0.0
 41
100.0
 42
100.0
  0
LINE
  5
1B5
330
1AC
100
AcDbEntity
  8
0
 62
7
370
13
100
AcDbLine
 10
14100.0
 20
6400.0
 30
0.0
 11
17225.0
 21
6400.0
 31
0.0
  0
MTEXT
  5
1B6
330
1AC
100
AcDbEntity
  8
A-DIMS
 62
7
100
AcDbMText
 10
15662.5
 20
6560.0
 30
0.0
 40
200.0
 71
5
  1
3,325
  7
JP
  0
POINT
  5
1B7
330
1AC
100
AcDbEntity
  8
Defpoints
100
AcDbPoint
 10
14000.0
 20
6400.0
 30
0.0
  0
POINT
  5
1B8
330
1AC
100
AcDbEntity
  8
Defpoints
100
AcDbPoint
 10
14000.0
 20
6400.0
 30
0.0
  0
POINT
  5
1B9
330
1AC
100
AcDbEntity
  8
Defpoints
100
AcDbPoint
 10
17325.0
 20
6400.0
 30
0.0
  0
ENDBLK
  5
1AE
330
1AC
100
AcDbEntity
  8
0
100
AcDbBlockEnd
  0
BLOCK
  5
1BC
330
1BB
100
AcDbEntity
  8
0
100
AcDbBlockBegin
  2
*D9
 70
1
 10
0.0
 20
0.0
 30
0.0
  3
*D9
  1

  0
LINE
  5
1BE
330
1BB
100
AcDbEntity
  8
0
 62
7
370
13
100
AcDbLine
 10
17325.0
 20
6500.0
 30
0.0
 11
17325.0
 21
6500.0
 31
0.0
  0
LINE
  5
1BF
330
1BB
100
AcDbEntity
  8
0
 62
7
370
13
100
AcDbLine
 10
23450.0
 20
6500.0
 30
0.0
 11
23450.0
 21
6500.0
 31
0.0
  0
INSERT
  5
1C0
330
1BB
100
AcDbEntity
  8
A-DIMS
 62
7
100
AcDbBlockReference
  2
_DOT
 10
17325.0
 20
6400.0
 30
0.0
 41
100.0
 42
100.0
 50
180.0
  0
INSERT
  5
1C2
330
1BB
100
AcDbEntity
  8
A-DIMS
 62
7
100
AcDbBlockReference
  2
_DOT
 10
23450.0
 20
6400.0
 30
0.0
 41
100.0
 42
100.0
  0
LINE
  5
1C4
330
1BB
100
AcDbEntity
  8
0
 62
7
370
13
100
AcDbLine
 10
17425.0
 20
6400.0
 30
0.0
 11
23350.0
 21
6400.0
 31
0.0
  0
MTEXT
  5
1C5
330
1BB
100
AcDbEntity
  8
A-DIMS
 62
7
100
AcDbMText
 10
20387.5
 20
6560.0
 30
0.0
 40
200.0
 71
5
  1
6,125
  7
JP
  0
POINT
  5
1C6
330
1BB
100
AcDbEntity
  8
Defpoints
100
AcDbPoint
 10
17325.0
 20
6400.0
 30
0.0
  0
POINT
  5
1C7
330
1BB
100
AcDbEntity
  8
Defpoints
100
AcDbPoint
 10
17325.0
 20
6400.0
 30
0.0
  0
POINT
  5
1C8
330
1BB
100
AcDbEntity
  8
Defpoints
100
AcDbPoint
 10
23450.0
 20
6400.0
 30
0.0
  0
ENDBLK
  5
1BD
330
1BB
100
AcDbEntity
  8
0
100
AcDbBlockEnd
  0
BLOCK
  5
1CB
330
1CA
100
AcDbEntity
  8
0
100
AcDbBlockBegin
  2
*D10
 70
1
 10
0.0
 20
0.0
 30
0.0
  3
*D10
  1

  0
LINE
  5
1CD
330
1CA
100
AcDbEntity
  8
0
 62
7
370
13
100
AcDbLine
 10
5200.0
 20
5950.0
 30
0.0
 11
5200.0
 21
5950.0
 31
0.0
  0
LINE
  5
1CE
330
1CA
100
AcDbEntity
  8
0
 62
7
370
13
100
AcDbLine
 10
11325.0
 20
5950.0
 30
0.0
 11
11325.0
 21
5950.0
 31
0.0
  0
INSERT
  5
1CF
330
1CA
100
AcDbEntity
  8
A-DIMS
 62
7
100
AcDbBlockReference
  2
_DOT
 10
5200.0
 20
5850.0
 30
0.0
 41
100.0
 42
100.0
 50
180.0
  0
INSERT
  5
1D1
330
1CA
100
AcDbEntity
  8
A-DIMS
 62
7
100
AcDbBlockReference
  2
_DOT
 10
11325.0
 20
5850.0
 30
0.0
 41
100.0
 42
100.0
  0
LINE
  5
1D3
330
1CA
100
AcDbEntity
  8
0
 62
7
370
13
100
AcDbLine
 10
5300.0
 20
5850.0
 30
0.0
 11
11225.0
 21
5850.0
 31
0.0
  0
MTEXT
  5
1D4
330
1CA
100
AcDbEntity
  8
A-DIMS
 62
7
100
AcDbMText
 10
8262.5
 20
6010.0
 30
0.0
 40
200.0
 71
5
  1
6,125
  7
JP
  0
POINT
  5
1D5
330
1CA
100
AcDbEntity
  8
Defpoints
100
AcDbPoint
 10
5200.0
 20
5850.0
 30
0.0
  0
POINT
  5
1D6
330
1CA
100
AcDbEntity
  8
Defpoints
100
AcDbPoint
 10
5200.0
 20
5850.0
 30
0.0
  0
POINT
  5
1D7
330
1CA
100
AcDbEntity
  8
Defpoints
100
AcDbPoint
 10
11325.0
 20
5850.0
 30
0.0
  0
ENDBLK
  5
1CC
330
1CA
100
AcDbEntity
  8
0
100
AcDbBlockEnd
  0
BLOCK
  5
1DA
330
1D9
100
AcDbEntity
  8
0
100
AcDbBlockBegin
  2
*D11
 70
1
 10
0.0
 20
0.0
 30
0.0
  3
*D11
  1

  0
LINE
  5
1DC
330
1D9
100
AcDbEntity
  8
0
 62
7
370
13
100
AcDbLine
 10
11325.0
 20
5950.0
 30
0.0
 11
11325.0
 21
5950.0
 31
0.0
  0
LINE
  5
1DD
330
1D9
100
AcDbEntity
  8
0
 62
7
370
13
100
AcDbLine
 10
17325.0
 20
5950.0
 30
0.0
 11
17325.0
 21
5950.0
 31
0.0
  0
INSERT
  5
1DE
330
1D9
100
AcDbEntity
  8
A-DIMS
 62
7
100
AcDbBlockReference
  2
_DOT
 10
11325.0
 20
5850.0
 30
0.0
 41
100.0
 42
100.0
 50
180.0
  0
INSERT
  5
1E0
330
1D9
100
AcDbEntity
  8
A-DIMS
 62
7
100
AcDbBlockReference
  2
_DOT
 10
17325.0
 20
5850.0
 30
0.0
 41
100.0
 42
100.0
  0
LINE
  5
1E2
330
1D9
100
AcDbEntity
  8
0
 62
7
370
13
100
AcDbLine
 10
11425.0
 20
5850.0
 30
0.0
 11
17225.0
 21
5850.0
 31
0.0
  0
MTEXT
  5
1E3
330
1D9
100
AcDbEntity
  8
A-DIMS
 62
7
100
AcDbMText
 10
14325.0
 20
6010.0
 30
0.0
 40
200.0
 71
5
  1
6,000
  7
JP
  0
POINT
  5
1E4
330
1D9
100
AcDbEntity
  8
Defpoints
100
AcDbPoint
 10
11325.0
 20
5850.0
 30
0.0
  0
POINT
  5
1E5
330
1D9
100
AcDbEntity
  8
Defpoints
100
AcDbPoint
 10
11325.0
 20
5850.0
 30
0.0
  0
POINT
  5
1E6
330
1D9
100
AcDbEntity
  8
Defpoints
100
AcDbPoint
 10
17325.0
 20
5850.0
 30
0.0
  0
ENDBLK
  5
1DB
330
1D9
100
AcDbEntity
  8
0
100
AcDbBlockEnd
  0
BLOCK
  5
1E9
330
1E8
100
AcDbEntity
  8
0
100
AcDbBlockBegin
  2
*D12
 70
1
 10
0.0
 20
0.0
 30
0.0
  3
*D12
  1

  0
LINE
  5
1EB
330
1E8
100
AcDbEntity
  8
0
 62
7
370
13
100
AcDbLine
 10
17325.0
 20
5950.0
 30
0.0
 11
17325.0
 21
5950.0
 31
0.0
  0
LINE
  5
1EC
330
1E8
100
AcDbEntity
  8
0
 62
7
370
13
100
AcDbLine
 10
23450.0
 20
5950.0
 30
0.0
 11
23450.0
 21
5950.0
 31
0.0
  0
INSERT
  5
1ED
330
1E8
100
AcDbEntity
  8
A-DIMS
 62
7
100
AcDbBlockReference
  2
_DOT
 10
17325.0
 20
5850.0
 30
0.0
 41
100.0
 42
100.0
 50
180.0
  0
INSERT
  5
1EF
330
1E8
100
AcDbEntity
  8
A-DIMS
 62
7
100
AcDbBlockReference
  2
_DOT
 10
23450.0
 20
5850.0
 30
0.0
 41
100.0
 42
100.0
  0
LINE
  5
1F1
330
1E8
100
AcDbEntity
  8
0
 62
7
370
13
100
AcDbLine
 10
17425.0
 20
5850.0
 30
0.0
 11
23350.0
 21
5850.0
 31
0.0
  0
MTEXT
  5
1F2
330
1E8
100
AcDbEntity
  8
A-DIMS
 62
7
100
AcDbMText
 10
20387.5
 20
6010.0
 30
0.0
 40
200.0
 71
5
  1
6,125
  7
JP
  0
POINT
  5
1F3
330
1E8
100
AcDbEntity
  8
Defpoints
100
AcDbPoint
 10
17325.0
 20
5850.0
 30
0.0
  0
POINT
  5
1F4
330
1E8
100
AcDbEntity
  8
Defpoints
100
AcDbPoint
 10
17325.0
 20
5850.0
 30
0.0
  0
POINT
  5
1F5
330
1E8
100
AcDbEntity
  8
Defpoints
100
AcDbPoint
 10
23450.0
 20
5850.0
 30
0.0
  0
ENDBLK
  5
1EA
330
1E8
100
AcDbEntity
  8
0
100
AcDbBlockEnd
  0
BLOCK
  5
1F8
330
1F7
100
AcDbEntity
  8
0
100
AcDbBlockBegin
  2
*D13
 70
1
 10
0.0
 20
0.0
 30
0.0
  3
*D13
  1

  0
LINE
  5
1FA
330
1F7
100
AcDbEntity
  8
0
 62
7
370
13
100
AcDbLine
 10
4955.0
 20
5400.0
 30
0.0
 11
4955.0
 21
5400.0
 31
0.0
  0
LINE
  5
1FB
330
1F7
100
AcDbEntity
  8
0
 62
7
370
13
100
AcDbLine
 10
23695.0
 20
5400.0
 30
0.0
 11
23695.0
 21
5400.0
 31
0.0
  0
INSERT
  5
1FC
330
1F7
100
AcDbEntity
  8
A-DIMS
 62
7
100
AcDbBlockReference
  2
_DOT
 10
4955.0
 20
5300.0
 30
0.0
 41
100.0
 42
100.0
 50
180.0
  0
INSERT
  5
1FE
330
1F7
100
AcDbEntity
  8
A-DIMS
 62
7
100
AcDbBlockReference
  2
_DOT
 10
23695.0
 20
5300.0
 30
0.0
 41
100.0
 42
100.0
  0
LINE
  5
200
330
1F7
100
AcDbEntity
  8
0
 62
7
370
13
100
AcDbLine
 10
5055.0
 20
5300.0
 30
0.0
 11
23595.0
 21
5300.0
 31
0.0
  0
MTEXT
  5
201
330
1F7
100
AcDbEntity
  8
A-DIMS
 62
7
100
AcDbMText
 10
14325.0
 20
5460.0
 30
0.0
 40
200.0
 71
5
  1
18,740
  7
JP
  0
POINT
  5
202
330
1F7
100
AcDbEntity
  8
Defpoints
100
AcDbPoint
 10
4955.0
 20
5300.0
 30
0.0
  0
POINT
  5
203
330
1F7
100
AcDbEntity
  8
Defpoints
100
AcDbPoint
 10
4955.0
 20
5300.0
 30
0.0
  0
POINT
  5
204
330
1F7
100
AcDbEntity
  8
Defpoints
100
AcDbPoint
 10
23695.0
 20
5300.0
 30
0.0
  0
ENDBLK
  5
1F9
330
1F7
100
AcDbEntity
  8
0
100
AcDbBlockEnd
  0
BLOCK
  5
207
330
206
100
AcDbEntity
  8
0
100
AcDbBlockBegin
  2
*D14
 70
1
 10
0.0
 20
0.0
 30
0.0
  3
*D14
  1

  0
LINE
  5
209
330
206
100
AcDbEntity
  8
0
 62
7
370
13
100
AcDbLine
 10
4200.0
 20
7300.0
 30
0.0
 11
4200.0
 21
7300.0
 31
0.0
  0
LINE
  5
20A
330
206
100
AcDbEntity
  8
0
 62
7
370
13
100
AcDbLine
 10
4200.0
 20
13425.0
 30
0.0
 11
4200.0
 21
13425.0
 31
0.0
  0
INSERT
  5
20B
330
206
100
AcDbEntity
  8
A-DIMS
 62
7
100
AcDbBlockReference
  2
_DOT
 10
4300.0
 20
7300.0
 30
0.0
 41
100.0
 42
100.0
 50
270.0
  0
INSERT
  5
20D
330
206
100
AcDbEntity
  8
A-DIMS
 62
7
100
AcDbBlockReference
  2
_DOT
 10
4300.0
 20
13425.0
 30
0.0
 41
100.0
 42
100.0
 50
90.0
  0
LINE
  5
20F
330
206
100
AcDbEntity
  8
0
 62
7
370
13
100
AcDbLine
 10
4300.0
 20
7400.0
 30
0.0
 11
4300.0
 21
13325.0
 31
0.0
  0
MTEXT
  5
210
330
206
100
AcDbEntity
  8
A-DIMS
 62
7
100
AcDbMText
 10
4140.0
 20
10362.5
 30
0.0
 40
200.0
 71
5
  1
6,125
  7
JP
 50
90.0
  0
POINT
  5
211
330
206
100
AcDbEntity
  8
Defpoints
100
AcDbPoint
 10
4300.0
 20
7300.0
 30
0.0
  0
POINT
  5
212
330
206
100
AcDbEntity
  8
Defpoints
100
AcDbPoint
 10
4300.0
 20
7300.0
 30
0.0
  0
POINT
  5
213
330
206
100
AcDbEntity
  8
Defpoints
100
AcDbPoint
 10
4300.0
 20
13425.0
 30
0.0
  0
ENDBLK
  5
208
330
206
100
AcDbEntity
  8
0
100
AcDbBlockEnd
  0
BLOCK
  5
216
330
215
100
AcDbEntity
  8
0
100
AcDbBlockBegin
  2
*D15
 70
1
 10
0.0
 20
0.0
 30
0.0
  3
*D15
  1

  0
LINE
  5
218
330
215
100
AcDbEntity
  8
0
 62
7
370
13
100
AcDbLine
 10
4200.0
 20
13425.0
 30
0.0
 11
4200.0
 21
13425.0
 31
0.0
  0
LINE
  5
219
330
215
100
AcDbEntity
  8
0
 62
7
370
13
100
AcDbLine
 10
4200.0
 20
14500.0
 30
0.0
 11
4200.0
 21
14500.0
 31
0.0
  0
INSERT
  5
21A
330
215
100
AcDbEntity
  8
A-DIMS
 62
7
100
AcDbBlockReference
  2
_DOT
 10
4300.0
 20
13425.0
 30
0.0
 41
100.0
 42
100.0
 50
270.0
  0
INSERT
  5
21C
330
215
100
AcDbEntity
  8
A-DIMS
 62
7
100
AcDbBlockReference
  2
_DOT
 10
4300.0
 20
14500.0
 30
0.0
 41
100.0
 42
100.0
 50
90.0
  0
LINE
  5
21E
330
215
100
AcDbEntity
  8
0
 62
7
370
13
100
AcDbLine
 10
4300.0
 20
13525.0
 30
0.0
 11
4300.0
 21
14400.0
 31
0.0
  0
MTEXT
  5
21F
330
215
100
AcDbEntity
  8
A-DIMS
 62
7
100
AcDbMText
 10
4140.0
 20
13962.5
 30
0.0
 40
200.0
 71
5
  1
1,075
  7
JP
 50
90.0
  0
POINT
  5
220
330
215
100
AcDbEntity
  8
Defpoints
100
AcDbPoint
 10
4300.0
 20
13425.0
 30
0.0
  0
POINT
  5
221
330
215
100
AcDbEntity
  8
Defpoints
100
AcDbPoint
 10
4300.0
 20
13425.0
 30
0.0
  0
POINT
  5
222
330
215
100
AcDbEntity
  8
Defpoints
100
AcDbPoint
 10
4300.0
 20
14500.0
 30
0.0
  0
ENDBLK
  5
217
330
215
100
AcDbEntity
  8
0
100
AcDbBlockEnd
  0
BLOCK
  5
225
330
224
100
AcDbEntity
  8
0
100
AcDbBlockBegin
  2
*D16
 70
1
 10
0.0
 20
0.0
 30
0.0
  3
*D16
  1

  0
LINE
  5
227
330
224
100
AcDbEntity
  8
0
 62
7
370
13
100
AcDbLine
 10
4200.0
 20
14500.0
 30
0.0
 11
4200.0
 21
14500.0
 31
0.0
  0
LINE
  5
228
330
224
100
AcDbEntity
  8
0
 62
7
370
13
100
AcDbLine
 10
4200.0
 20
16100.0
 30
0.0
 11
4200.0
 21
16100.0
 31
0.0
  0
INSERT
  5
229
330
224
100
AcDbEntity
  8
A-DIMS
 62
7
100
AcDbBlockReference
  2
_DOT
 10
4300.0
 20
14500.0
 30
0.0
 41
100.0
 42
100.0
 50
270.0
  0
INSERT
  5
22B
330
224
100
AcDbEntity
  8
A-DIMS
 62
7
100
AcDbBlockReference
  2
_DOT
 10
4300.0
 20
16100.0
 30
0.0
 41
100.0
 42
100.0
 50
90.0
  0
LINE
  5
22D
330
224
100
AcDbEntity
  8
0
 62
7
370
13
100
AcDbLine
 10
4300.0
 20
14600.0
 30
0.0
 11
4300.0
 21
16000.0
 31
0.0
  0
MTEXT
  5
22E
330
224
100
AcDbEntity
  8
A-DIMS
 62
7
100
AcDbMText
 10
4140.0
 20
15300.0
 30
0.0
 40
200.0
 71
5
  1
1,600
  7
JP
 50
90.0
  0
POINT
  5
22F
330
224
100
AcDbEntity
  8
Defpoints
100
AcDbPoint
 10
4300.0
 20
14500.0
 30
0.0
  0
POINT
  5
230
330
224
100
AcDbEntity
  8
Defpoints
100
AcDbPoint
 10
4300.0
 20
14500.0
 30
0.0
  0
POINT
  5
231
330
224
100
AcDbEntity
  8
Defpoints
100
AcDbPoint
 10
4300.0
 20
16100.0
 30
0.0
  0
ENDBLK
  5
226
330
224
100
AcDbEntity
  8
0
100
AcDbBlockEnd
  0
BLOCK
  5
234
330
233
100
AcDbEntity
  8
0
100
AcDbBlockBegin
  2
*D17
 70
1
 10
0.0
 20
0.0
 30
0.0
  3
*D17
  1

  0
LINE
  5
236
330
233
100
AcDbEntity
  8
0
 62
7
370
13
100
AcDbLine
 10
4200.0
 20
16100.0
 30
0.0
 11
4200.0
 21
16100.0
 31
0.0
  0
LINE
  5
237
330
233
100
AcDbEntity
  8
0
 62
7
370
13
100
AcDbLine
 10
4200.0
 20
17100.0
 30
0.0
 11
4200.0
 21
17100.0
 31
0.0
  0
INSERT
  5
238
330
233
100
AcDbEntity
  8
A-DIMS
 62
7
100
AcDbBlockReference
  2
_DOT
 10
4300.0
 20
16100.0
 30
0.0
 41
100.0
 42
100.0
 50
270.0
  0
INSERT
  5
23A
330
233
100
AcDbEntity
  8
A-DIMS
 62
7
100
AcDbBlockReference
  2
_DOT
 10
4300.0
 20
17100.0
 30
0.0
 41
100.0
 42
100.0
 50
90.0
  0
LINE
  5
23C
330
233
100
AcDbEntity
  8
0
 62
7
370
13
100
AcDbLine
 10
4300.0
 20
16200.0
 30
0.0
 11
4300.0
 21
17000.0
 31
0.0
  0
MTEXT
  5
23D
330
233
100
AcDbEntity
  8
A-DIMS
 62
7
100
AcDbMText
 10
4140.0
 20
16600.0
 30
0.0
 40
200.0
 71
5
  1
1,000
  7
JP
 50
90.0
  0
POINT
  5
23E
330
233
100
AcDbEntity
  8
Defpoints
100
AcDbPoint
 10
4300.0
 20
16100.0
 30
0.0
  0
POINT
  5
23F
330
233
100
AcDbEntity
  8
Defpoints
100
AcDbPoint
 10
4300.0
 20
16100.0
 30
0.0
  0
POINT
  5
240
330
233
100
AcDbEntity
  8
Defpoints
100
AcDbPoint
 10
4300.0
 20
17100.0
 30
0.0
  0
ENDBLK
  5
235
330
233
100
AcDbEntity
  8
0
100
AcDbBlockEnd
  0
BLOCK
  5
243
330
242
100
AcDbEntity
  8
0
100
AcDbBlockBegin
  2
*D18
 70
1
 10
0.0
 20
0.0
 30
0.0
  3
*D18
  1

  0
LINE
  5
245
330
242
100
AcDbEntity
  8
0
 62
7
370
13
100
AcDbLine
 10
4200.0
 20
17100.0
 30
0.0
 11
4200.0
 21
17100.0
 31
0.0
  0
LINE
  5
246
330
242
100
AcDbEntity
  8
0
 62
7
370
13
100
AcDbLine
 10
4200.0
 20
18100.0
 30
0.0
 11
4200.0
 21
18100.0
 31
0.0
  0
INSERT
  5
247
330
242
100
AcDbEntity
  8
A-DIMS
 62
7
100
AcDbBlockReference
  2
_DOT
 10
4300.0
 20
17100.0
 30
0.0
 41
100.0
 42
100.0
 50
270.0
  0
INSERT
  5
249
330
242
100
AcDbEntity
  8
A-DIMS
 62
7
100
AcDbBlockReference
  2
_DOT
 10
4300.0
 20
18100.0
 30
0.0
 41
100.0
 42
100.0
 50
90.0
  0
LINE
  5
24B
330
242
100
AcDbEntity
  8
0
 62
7
370
13
100
AcDbLine
 10
4300.0
 20
17200.0
 30
0.0
 11
4300.0
 21
18000.0
 31
0.0
  0
MTEXT
  5
24C
330
242
100
AcDbEntity
  8
A-DIMS
 62
7
100
AcDbMText
 10
4140.0
 20
17600.0
 30
0.0
 40
200.0
 71
5
  1
1,000
  7
JP
 50
90.0
  0
POINT
  5
24D
330
242
100
AcDbEntity
  8
Defpoints
100
AcDbPoint
 10
4300.0
 20
17100.0
 30
0.0
  0
POINT
  5
24E
330
242
100
AcDbEntity
  8
Defpoints
100
AcDbPoint
 10
4300.0
 20
17100.0
 30
0.0
  0
POINT
  5
24F
330
242
100
AcDbEntity
  8
Defpoints
100
AcDbPoint
 10
4300.0
 20
18100.0
 30
0.0
  0
ENDBLK
  5
244
330
242
100
AcDbEntity
  8
0
100
AcDbBlockEnd
  0
BLOCK
  5
252
330
251
100
AcDbEntity
  8
0
100
AcDbBlockBegin
  2
*D19
 70
1
 10
0.0
 20
0.0
 30
0.0
  3
*D19
  1

  0
LINE
  5
254
330
251
100
AcDbEntity
  8
0
 62
7
370
13
100
AcDbLine
 10
4200.0
 20
18100.0
 30
0.0
 11
4200.0
 21
18100.0
 31
0.0
  0
LINE
  5
255
330
251
100
AcDbEntity
  8
0
 62
7
370
13
100
AcDbLine
 10
4200.0
 20
19425.0
 30
0.0
 11
4200.0
 21
19425.0
 31
0.0
  0
INSERT
  5
256
330
251
100
AcDbEntity
  8
A-DIMS
 62
7
100
AcDbBlockReference
  2
_DOT
 10
4300.0
 20
18100.0
 30
0.0
 41
100.0
 42
100.0
 50
270.0
  0
INSERT
  5
258
330
251
100
AcDbEntity
  8
A-DIMS
 62
7
100
AcDbBlockReference
  2
_DOT
 10
4300.0
 20
19425.0
 30
0.0
 41
100.0
 42
100.0
 50
90.0
  0
LINE
  5
25A
330
251
100
AcDbEntity
  8
0
 62
7
370
13
100
AcDbLine
 10
4300.0
 20
18200.0
 30
0.0
 11
4300.0
 21
19325.0
 31
0.0
  0
MTEXT
  5
25B
330
251
100
AcDbEntity
  8
A-DIMS
 62
7
100
AcDbMText
 10
4140.0
 20
18762.5
 30
0.0
 40
200.0
 71
5
  1
1,325
  7
JP
 50
90.0
  0
POINT
  5
25C
330
251
100
AcDbEntity
  8
Defpoints
100
AcDbPoint
 10
4300.0
 20
18100.0
 30
0.0
  0
POINT
  5
25D
330
251
100
AcDbEntity
  8
Defpoints
100
AcDbPoint
 10
4300.0
 20
18100.0
 30
0.0
  0
POINT
  5
25E
330
251
100
AcDbEntity
  8
Defpoints
100
AcDbPoint
 10
4300.0
 20
19425.0
 30
0.0
  0
ENDBLK
  5
253
330
251
100
AcDbEntity
  8
0
100
AcDbBlockEnd
  0
BLOCK
  5
261
330
260
100
AcDbEntity
  8
0
100
AcDbBlockBegin
  2
*D20
 70
1
 10
0.0
 20
0.0
 30
0.0
  3
*D20
  1

  0
LINE
  5
263
330
260
100
AcDbEntity
  8
0
 62
7
370
13
100
AcDbLine
 10
4200.0
 20
19425.0
 30
0.0
 11
4200.0
 21
19425.0
 31
0.0
  0
LINE
  5
264
330
260
100
AcDbEntity
  8
0
 62
7
370
13
100
AcDbLine
 10
4200.0
 20
25550.0
 30
0.0
 11
4200.0
 21
25550.0
 31
0.0
  0
INSERT
  5
265
330
260
100
AcDbEntity
  8
A-DIMS
 62
7
100
AcDbBlockReference
  2
_DOT
 10
4300.0
 20
19425.0
 30
0.0
 41
100.0
 42
100.0
 50
270.0
  0
INSERT
  5
267
330
260
100
AcDbEntity
  8
A-DIMS
 62
7
100
AcDbBlockReference
  2
_DOT
 10
4300.0
 20
25550.0
 30
0.0
 41
100.0
 42
100.0
 50
90.0
  0
LINE
  5
269
330
260
100
AcDbEntity
  8
0
 62
7
370
13
100
AcDbLine
 10
4300.0
 20
19525.0
 30
0.0
 11
4300.0
 21
25450.0
 31
0.0
  0
MTEXT
  5
26A
330
260
100
AcDbEntity
  8
A-DIMS
 62
7
100
AcDbMText
 10
4140.0
 20
22487.5
 30
0.0
 40
200.0
 71
5
  1
6,125
  7
JP
 50
90.0
  0
POINT
  5
26B
330
260
100
AcDbEntity
  8
Defpoints
100
AcDbPoint
 10
4300.0
 20
19425.0
 30
0.0
  0
POINT
  5
26C
330
260
100
AcDbEntity
  8
Defpoints
100
AcDbPoint
 10
4300.0
 20
19425.0
 30
0.0
  0
POINT
  5
26D
330
260
100
AcDbEntity
  8
Defpoints
100
AcDbPoint
 10
4300.0
 20
25550.0
 30
0.0
  0
ENDBLK
  5
262
330
260
100
AcDbEntity
  8
0
100
AcDbBlockEnd
  0
BLOCK
  5
270
330
26F
100
AcDbEntity
  8
0
100
AcDbBlockBegin
  2
*D21
 70
1
 10
0.0
 20
0.0
 30
0.0
  3
*D21
  1

  0
LINE
  5
272
330
26F
100
AcDbEntity
  8
0
 62
7
370
13
100
AcDbLine
 10
3650.0
 20
7300.0
 30
0.0
 11
3650.0
 21
7300.0
 31
0.0
  0
LINE
  5
273
330
26F
100
AcDbEntity
  8
0
 62
7
370
13
100
AcDbLine
 10
3650.0
 20
13425.0
 30
0.0
 11
3650.0
 21
13425.0
 31
0.0
  0
INSERT
  5
274
330
26F
100
AcDbEntity
  8
A-DIMS
 62
7
100
AcDbBlockReference
  2
_DOT
 10
3750.0
 20
7300.0
 30
0.0
 41
100.0
 42
100.0
 50
270.0
  0
INSERT
  5
276
330
26F
100
AcDbEntity
  8
A-DIMS
 62
7
100
AcDbBlockReference
  2
_DOT
 10
3750.0
 20
13425.0
 30
0.0
 41
100.0
 42
100.0
 50
90.0
  0
LINE
  5
278
330
26F
100
AcDbEntity
  8
0
 62
7
370
13
100
AcDbLine
 10
3750.0
 20
7400.0
 30
0.0
 11
3750.0
 21
13325.0
 31
0.0
  0
MTEXT
  5
279
330
26F
100
AcDbEntity
  8
A-DIMS
 62
7
100
AcDbMText
 10
3590.0
 20
10362.5
 30
0.0
 40
200.0
 71
5
  1
6,125
  7
JP
 50
90.0
  0
POINT
  5
27A
330
26F
100
AcDbEntity
  8
Defpoints
100
AcDbPoint
 10
3750.0
 20
7300.0
 30
0.0
  0
POINT
  5
27B
330
26F
100
AcDbEntity
  8
Defpoints
100
AcDbPoint
 10
3750.0
 20
7300.0
 30
0.0
  0
POINT
  5
27C
330
26F
100
AcDbEntity
  8
Defpoints
100
AcDbPoint
 10
3750.0
 20
13425.0
 30
0.0
  0
ENDBLK
  5
271
330
26F
100
AcDbEntity
  8
0
100
AcDbBlockEnd
  0
BLOCK
  5
27F
330
27E
100
AcDbEntity
  8
0
100
AcDbBlockBegin
  2
*D22
 70
1
 10
0.0
 20
0.0
 30
0.0
  3
*D22
  1

  0
LINE
  5
281
330
27E
100
AcDbEntity
  8
0
 62
7
370
13
100
AcDbLine
 10
3650.0
 20
13425.0
 30
0.0
 11
3650.0
 21
13425.0
 31
0.0
  0
LINE
  5
282
330
27E
100
AcDbEntity
  8
0
 62
7
370
13
100
AcDbLine
 10
3650.0
 20
19425.0
 30
0.0
 11
3650.0
 21
19425.0
 31
0.0
  0
INSERT
  5
283
330
27E
100
AcDbEntity
  8
A-DIMS
 62
7
100
AcDbBlockReference
  2
_DOT
 10
3750.0
 20
13425.0
 30
0.0
 41
100.0
 42
100.0
 50
270.0
  0
INSERT
  5
285
330
27E
100
AcDbEntity
  8
A-DIMS
 62
7
100
AcDbBlockReference
  2
_DOT
 10
3750.0
 20
19425.0
 30
0.0
 41
100.0
 42
100.0
 50
90.0
  0
LINE
  5
287
330
27E
100
AcDbEntity
  8
0
 62
7
370
13
100
AcDbLine
 10
3750.0
 20
13525.0
 30
0.0
 11
3750.0
 21
19325.0
 31
0.0
  0
MTEXT
  5
288
330
27E
100
AcDbEntity
  8
A-DIMS
 62
7
100
AcDbMText
 10
3590.0
 20
16425.0
 30
0.0
 40
200.0
 71
5
  1
6,000
  7
JP
 50
90.0
  0
POINT
  5
289
330
27E
100
AcDbEntity
  8
Defpoints
100
AcDbPoint
 10
3750.0
 20
13425.0
 30
0.0
  0
POINT
  5
28A
330
27E
100
AcDbEntity
  8
Defpoints
100
AcDbPoint
 10
3750.0
 20
13425.0
 30
0.0
  0
POINT
  5
28B
330
27E
100
AcDbEntity
  8
Defpoints
100
AcDbPoint
 10
3750.0
 20
19425.0
 30
0.0
  0
ENDBLK
  5
280
330
27E
100
AcDbEntity
  8
0
100
AcDbBlockEnd
  0
BLOCK
  5
28E
330
28D
100
AcDbEntity
  8
0
100
AcDbBlockBegin
  2
*D23
 70
1
 10
0.0
 20
0.0
 30
0.0
  3
*D23
  1

  0
LINE
  5
290
330
28D
100
AcDbEntity
  8
0
 62
7
370
13
100
AcDbLine
 10
3650.0
 20
19425.0
 30
0.0
 11
3650.0
 21
19425.0
 31
0.0
  0
LINE
  5
291
330
28D
100
AcDbEntity
  8
0
 62
7
370
13
100
AcDbLine
 10
3650.0
 20
25550.0
 30
0.0
 11
3650.0
 21
25550.0
 31
0.0
  0
INSERT
  5
292
330
28D
100
AcDbEntity
  8
A-DIMS
 62
7
100
AcDbBlockReference
  2
_DOT
 10
3750.0
 20
19425.0
 30
0.0
 41
100.0
 42
100.0
 50
270.0
  0
INSERT
  5
294
330
28D
100
AcDbEntity
  8
A-DIMS
 62
7
100
AcDbBlockReference
  2
_DOT
 10
3750.0
 20
25550.0
 30
0.0
 41
100.0
 42
100.0
 50
90.0
  0
LINE
  5
296
330
28D
100
AcDbEntity
  8
0
 62
7
370
13
100
AcDbLine
 10
3750.0
 20
19525.0
 30
0.0
 11
3750.0
 21
25450.0
 31
0.0
  0
MTEXT
  5
297
330
28D
100
AcDbEntity
  8
A-DIMS
 62
7
100
AcDbMText
 10
3590.0
 20
22487.5
 30
0.0
 40
200.0
 71
5
  1
6,125
  7
JP
 50
90.0
  0
POINT
  5
298
330
28D
100
AcDbEntity
  8
Defpoints
100
AcDbPoint
 10
3750.0
 20
19425.0
 30
0.0
  0
POINT
  5
299
330
28D
100
AcDbEntity
  8
Defpoints
100
AcDbPoint
 10
3750.0
 20
19425.0
 30
0.0
  0
POINT
  5
29A
330
28D
100
AcDbEntity
  8
Defpoints
100
AcDbPoint
 10
3750.0
 20
25550.0
 30
0.0
  0
ENDBLK
  5
28F
330
28D
100
AcDbEntity
  8
0
100
AcDbBlockEnd
  0
BLOCK
  5
29D
330
29C
100
AcDbEntity
  8
0
100
AcDbBlockBegin
  2
*D24
 70
1
 10
0.0
 20
0.0
 30
0.0
  3
*D24
  1

  0
LINE
  5
29F
330
29C
100
AcDbEntity
  8
0
 62
7
370
13
100
AcDbLine
 10
3100.0
 20
7055.0
 30
0.0
 11
3100.0
 21
7055.0
 31
0.0
  0
LINE
  5
2A0
330
29C
100
AcDbEntity
  8
0
 62
7
370
13
100
AcDbLine
 10
3100.0
 20
25795.0
 30
0.0
 11
3100.0
 21
25795.0
 31
0.0
  0
INSERT
  5
2A1
330
29C
100
AcDbEntity
  8
A-DIMS
 62
7
100
AcDbBlockReference
  2
_DOT
 10
3200.0
 20
7055.0
 30
0.0
 41
100.0
 42
100.0
 50
270.0
  0
INSERT
  5
2A3
330
29C
100
AcDbEntity
  8
A-DIMS
 62
7
100
AcDbBlockReference
  2
_DOT
 10
3200.0
 20
25795.0
 30
0.0
 41
100.0
 42
100.0
 50
90.0
  0
LINE
  5
2A5
330
29C
100
AcDbEntity
  8
0
 62
7
370
13
100
AcDbLine
 10
3200.0
 20
7155.0
 30
0.0
 11
3200.0
 21
25695.0
 31
0.0
  0
MTEXT
  5
2A6
330
29C
100
AcDbEntity
  8
A-DIMS
 62
7
100
AcDbMText
 10
3040.0
 20
16425.0
 30
0.0
 40
200.0
 71
5
  1
18,740
  7
JP
 50
90.0
  0
POINT
  5
2A7
330
29C
100
AcDbEntity
  8
Defpoints
100
AcDbPoint
 10
3200.0
 20
7055.0
 30
0.0
  0
POINT
  5
2A8
330
29C
100
AcDbEntity
  8
Defpoints
100
AcDbPoint
 10
3200.0
 20
7055.0
 30
0.0
  0
POINT
  5
2A9
330
29C
100
AcDbEntity
  8
Defpoints
100
AcDbPoint
 10
3200.0
 20
25795.0
 30
0.0
  0
ENDBLK
  5
29E
330
29C
100
AcDbEntity
  8
0
100
AcDbBlockEnd
  0
BLOCK
  5
2AC
330
2AB
100
AcDbEntity
  8
0
100
AcDbBlockBegin
  2
*D25
 70
1
 10
0.0
 20
0.0
 30
0.0
  3
*D25
  1

  0
LINE
  5
2AE
330
2AB
100
AcDbEntity
  8
0
 62
7
370
13
100
AcDbLine
 10
5200.0
 20
26850.0
 30
0.0
 11
5200.0
 21
26850.0
 31
0.0
  0
LINE
  5
2AF
330
2AB
100
AcDbEntity
  8
0
 62
7
370
13
100
AcDbLine
 10
11325.0
 20
26850.0
 30
0.0
 11
11325.0
 21
26850.0
 31
0.0
  0
INSERT
  5
2B0
330
2AB
100
AcDbEntity
  8
A-DIMS
 62
7
100
AcDbBlockReference
  2
_DOT
 10
5200.0
 20
26750.0
 30
0.0
 41
100.0
 42
100.0
 50
180.0
  0
INSERT
  5
2B2
330
2AB
100
AcDbEntity
  8
A-DIMS
 62
7
100
AcDbBlockReference
  2
_DOT
 10
11325.0
 20
26750.0
 30
0.0
 41
100.0
 42
100.0
  0
LINE
  5
2B4
330
2AB
100
AcDbEntity
  8
0
 62
7
370
13
100
AcDbLine
 10
5300.0
 20
26750.0
 30
0.0
 11
11225.0
 21
26750.0
 31
0.0
  0
MTEXT
  5
2B5
330
2AB
100
AcDbEntity
  8
A-DIMS
 62
7
100
AcDbMText
 10
8262.5
 20
26910.0
 30
0.0
 40
200.0
 71
5
  1
6,125
  7
JP
  0
POINT
  5
2B6
330
2AB
100
AcDbEntity
  8
Defpoints
100
AcDbPoint
 10
5200.0
 20
26750.0
 30
0.0
  0
POINT
  5
2B7
330
2AB
100
AcDbEntity
  8
Defpoints
100
AcDbPoint
 10
5200.0
 20
26750.0
 30
0.0
  0
POINT
  5
2B8
330
2AB
100
AcDbEntity
  8
Defpoints
100
AcDbPoint
 10
11325.0
 20
26750.0
 30
0.0
  0
ENDBLK
  5
2AD
330
2AB
100
AcDbEntity
  8
0
100
AcDbBlockEnd
  0
BLOCK
  5
2BB
330
2BA
100
AcDbEntity
  8
0
100
AcDbBlockBegin
  2
*D26
 70
1
 10
0.0
 20
0.0
 30
0.0
  3
*D26
  1

  0
LINE
  5
2BD
330
2BA
100
AcDbEntity
  8
0
 62
7
370
13
100
AcDbLine
 10
11325.0
 20
26850.0
 30
0.0
 11
11325.0
 21
26850.0
 31
0.0
  0
LINE
  5
2BE
330
2BA
100
AcDbEntity
  8
0
 62
7
370
13
100
AcDbLine
 10
17325.0
 20
26850.0
 30
0.0
 11
17325.0
 21
26850.0
 31
0.0
  0
INSERT
  5
2BF
330
2BA
100
AcDbEntity
  8
A-DIMS
 62
7
100
AcDbBlockReference
  2
_DOT
 10
11325.0
 20
26750.0
 30
0.0
 41
100.0
 42
100.0
 50
180.0
  0
INSERT
  5
2C1
330
2BA
100
AcDbEntity
  8
A-DIMS
 62
7
100
AcDbBlockReference
  2
_DOT
 10
17325.0
 20
26750.0
 30
0.0
 41
100.0
 42
100.0
  0
LINE
  5
2C3
330
2BA
100
AcDbEntity
  8
0
 62
7
370
13
100
AcDbLine
 10
11425.0
 20
26750.0
 30
0.0
 11
17225.0
 21
26750.0
 31
0.0
  0
MTEXT
  5
2C4
330
2BA
100
AcDbEntity
  8
A-DIMS
 62
7
100
AcDbMText
 10
14325.0
 20
26910.0
 30
0.0
 40
200.0
 71
5
  1
6,000
  7
JP
  0
POINT
  5
2C5
330
2BA
100
AcDbEntity
  8
Defpoints
100
AcDbPoint
 10
11325.0
 20
26750.0
 30
0.0
  0
POINT
  5
2C6
330
2BA
100
AcDbEntity
  8
Defpoints
100
AcDbPoint
 10
11325.0
 20
26750.0
 30
0.0
  0
POINT
  5
2C7
330
2BA
100
AcDbEntity
  8
Defpoints
100
AcDbPoint
 10
17325.0
 20
26750.0
 30
0.0
  0
ENDBLK
  5
2BC
330
2BA
100
AcDbEntity
  8
0
100
AcDbBlockEnd
  0
BLOCK
  5
2CA
330
2C9
100
AcDbEntity
  8
0
100
AcDbBlockBegin
  2
*D27
 70
1
 10
0.0
 20
0.0
 30
0.0
  3
*D27
  1

  0
LINE
  5
2CC
330
2C9
100
AcDbEntity
  8
0
 62
7
370
13
100
AcDbLine
 10
17325.0
 20
26850.0
 30
0.0
 11
17325.0
 21
26850.0
 31
0.0
  0
LINE
  5
2CD
330
2C9
100
AcDbEntity
  8
0
 62
7
370
13
100
AcDbLine
 10
23450.0
 20
26850.0
 30
0.0
 11
23450.0
 21
26850.0
 31
0.0
  0
INSERT
  5
2CE
330
2C9
100
AcDbEntity
  8
A-DIMS
 62
7
100
AcDbBlockReference
  2
_DOT
 10
17325.0
 20
26750.0
 30
0.0
 41
100.0
 42
100.0
 50
180.0
  0
INSERT
  5
2D0
330
2C9
100
AcDbEntity
  8
A-DIMS
 62
7
100
AcDbBlockReference
  2
_DOT
 10
23450.0
 20
26750.0
 30
0.0
 41
100.0
 42
100.0
  0
LINE
  5
2D2
330
2C9
100
AcDbEntity
  8
0
 62
7
370
13
100
AcDbLine
 10
17425.0
 20
26750.0
 30
0.0
 11
23350.0
 21
26750.0
 31
0.0
  0
MTEXT
  5
2D3
330
2C9
100
AcDbEntity
  8
A-DIMS
 62
7
100
AcDbMText
 10
20387.5
 20
26910.0
 30
0.0
 40
200.0
 71
5
  1
6,125
  7
JP
  0
POINT
  5
2D4
330
2C9
100
AcDbEntity
  8
Defpoints
100
AcDbPoint
 10
17325.0
 20
26750.0
 30
0.0
  0
POINT
  5
2D5
330
2C9
100
AcDbEntity
  8
Defpoints
100
AcDbPoint
 10
17325.0
 20
26750.0
 30
0.0
  0
POINT
  5
2D6
330
2C9
100
AcDbEntity
  8
Defpoints
100
AcDbPoint
 10
23450.0
 20
26750.0
 30
0.0
  0
ENDBLK
  5
2CB
330
2C9
100
AcDbEntity
  8
0
100
AcDbBlockEnd
  0
BLOCK
  5
2D9
330
2D8
100
AcDbEntity
  8
0
100
AcDbBlockBegin
  2
*D28
 70
1
 10
0.0
 20
0.0
 30
0.0
  3
*D28
  1

  0
LINE
  5
2DB
330
2D8
100
AcDbEntity
  8
0
 62
7
370
13
100
AcDbLine
 10
24550.0
 20
7300.0
 30
0.0
 11
24550.0
 21
7300.0
 31
0.0
  0
LINE
  5
2DC
330
2D8
100
AcDbEntity
  8
0
 62
7
370
13
100
AcDbLine
 10
24550.0
 20
13425.0
 30
0.0
 11
24550.0
 21
13425.0
 31
0.0
  0
INSERT
  5
2DD
330
2D8
100
AcDbEntity
  8
A-DIMS
 62
7
100
AcDbBlockReference
  2
_DOT
 10
24650.0
 20
7300.0
 30
0.0
 41
100.0
 42
100.0
 50
270.0
  0
INSERT
  5
2DF
330
2D8
100
AcDbEntity
  8
A-DIMS
 62
7
100
AcDbBlockReference
  2
_DOT
 10
24650.0
 20
13425.0
 30
0.0
 41
100.0
 42
100.0
 50
90.0
  0
LINE
  5
2E1
330
2D8
100
AcDbEntity
  8
0
 62
7
370
13
100
AcDbLine
 10
24650.0
 20
7400.0
 30
0.0
 11
24650.0
 21
13325.0
 31
0.0
  0
MTEXT
  5
2E2
330
2D8
100
AcDbEntity
  8
A-DIMS
 62
7
100
AcDbMText
 10
24490.0
 20
10362.5
 30
0.0
 40
200.0
 71
5
  1
6,125
  7
JP
 50
90.0
  0
POINT
  5
2E3
330
2D8
100
AcDbEntity
  8
Defpoints
100
AcDbPoint
 10
24650.0
 20
7300.0
 30
0.0
  0
POINT
  5
2E4
330
2D8
100
AcDbEntity
  8
Defpoints
100
AcDbPoint
 10
24650.0
 20
7300.0
 30
0.0
  0
POINT
  5
2E5
330
2D8
100
AcDbEntity
  8
Defpoints
100
AcDbPoint
 10
24650.0
 20
13425.0
 30
0.0
  0
ENDBLK
  5
2DA
330
2D8
100
AcDbEntity
  8
0
100
AcDbBlockEnd
  0
BLOCK
  5
2E8
330
2E7
100
AcDbEntity
  8
0
100
AcDbBlockBegin
  2
*D29
 70
1
 10
0.0
 20
0.0
 30
0.0
  3
*D29
  1

  0
LINE
  5
2EA
330
2E7
100
AcDbEntity
  8
0
 62
7
370
13
100
AcDbLine
 10
24550.0
 20
13425.0
 30
0.0
 11
24550.0
 21
13425.0
 31
0.0
  0
LINE
  5
2EB
330
2E7
100
AcDbEntity
  8
0
 62
7
370
13
100
AcDbLine
 10
24550.0
 20
19425.0
 30
0.0
 11
24550.0
 21
19425.0
 31
0.0
  0
INSERT
  5
2EC
330
2E7
100
AcDbEntity
  8
A-DIMS
 62
7
100
AcDbBlockReference
  2
_DOT
 10
24650.0
 20
13425.0
 30
0.0
 41
100.0
 42
100.0
 50
270.0
  0
INSERT
  5
2EE
330
2E7
100
AcDbEntity
  8
A-DIMS
 62
7
100
AcDbBlockReference
  2
_DOT
 10
24650.0
 20
19425.0
 30
0.0
 41
100.0
 42
100.0
 50
90.0
  0
LINE
  5
2F0
330
2E7
100
AcDbEntity
  8
0
 62
7
370
13
100
AcDbLine
 10
24650.0
 20
13525.0
 30
0.0
 11
24650.0
 21
19325.0
 31
0.0
  0
MTEXT
  5
2F1
330
2E7
100
AcDbEntity
  8
A-DIMS
 62
7
100
AcDbMText
 10
24490.0
 20
16425.0
 30
0.0
 40
200.0
 71
5
  1
6,000
  7
JP
 50
90.0
  0
POINT
  5
2F2
330
2E7
100
AcDbEntity
  8
Defpoints
100
AcDbPoint
 10
24650.0
 20
13425.0
 30
0.0
  0
POINT
  5
2F3
330
2E7
100
AcDbEntity
  8
Defpoints
100
AcDbPoint
 10
24650.0
 20
13425.0
 30
0.0
  0
POINT
  5
2F4
330
2E7
100
AcDbEntity
  8
Defpoints
100
AcDbPoint
 10
24650.0
 20
19425.0
 30
0.0
  0
ENDBLK
  5
2E9
330
2E7
100
AcDbEntity
  8
0
100
AcDbBlockEnd
  0
BLOCK
  5
2F7
330
2F6
100
AcDbEntity
  8
0
100
AcDbBlockBegin
  2
*D30
 70
1
 10
0.0
 20
0.0
 30
0.0
  3
*D30
  1

  0
LINE
  5
2F9
330
2F6
100
AcDbEntity
  8
0
 62
7
370
13
100
AcDbLine
 10
24550.0
 20
19425.0
 30
0.0
 11
24550.0
 21
19425.0
 31
0.0
  0
LINE
  5
2FA
330
2F6
100
AcDbEntity
  8
0
 62
7
370
13
100
AcDbLine
 10
24550.0
 20
25550.0
 30
0.0
 11
24550.0
 21
25550.0
 31
0.0
  0
INSERT
  5
2FB
330
2F6
100
AcDbEntity
  8
A-DIMS
 62
7
100
AcDbBlockReference
  2
_DOT
 10
24650.0
 20
19425.0
 30
0.0
 41
100.0
 42
100.0
 50
270.0
  0
INSERT
  5
2FD
330
2F6
100
AcDbEntity
  8
A-DIMS
 62
7
100
AcDbBlockReference
  2
_DOT
 10
24650.0
 20
25550.0
 30
0.0
 41
100.0
 42
100.0
 50
90.0
  0
LINE
  5
2FF
330
2F6
100
AcDbEntity
  8
0
 62
7
370
13
100
AcDbLine
 10
24650.0
 20
19525.0
 30
0.0
 11
24650.0
 21
25450.0
 31
0.0
  0
MTEXT
  5
300
330
2F6
100
AcDbEntity
  8
A-DIMS
 62
7
100
AcDbMText
 10
24490.0
 20
22487.5
 30
0.0
 40
200.0
 71
5
  1
6,125
  7
JP
 50
90.0
  0
POINT
  5
301
330
2F6
100
AcDbEntity
  8
Defpoints
100
AcDbPoint
 10
24650.0
 20
19425.0
 30
0.0
  0
POINT
  5
302
330
2F6
100
AcDbEntity
  8
Defpoints
100
AcDbPoint
 10
24650.0
 20
19425.0
 30
0.0
  0
POINT
  5
303
330
2F6
100
AcDbEntity
  8
Defpoints
100
AcDbPoint
 10
24650.0
 20
25550.0
 30
0.0
  0
ENDBLK
  5
2F8
330
2F6
100
AcDbEntity
  8
0
100
AcDbBlockEnd
  0
ENDSEC
  0
SECTION
  2
ENTITIES
  0
LWPOLYLINE
  5
B5
330
17
100
AcDbEntity
  8
G-FRAME
370
0
100
AcDbPolyline
 90
4
 70
1
 10
0.0
 20
0.0
 10
42000.0
 20
0.0
 10
42000.0
 20
29700.0
 10
0.0
 20
29700.0
  0
LWPOLYLINE
  5
B6
330
17
100
AcDbEntity
  8
G-FRAME
100
AcDbPolyline
 90
4
 70
1
 10
1000.0
 20
1000.0
 10
41000.0
 20
1000.0
 10
41000.0
 20
28700.0
 10
1000.0
 20
28700.0
  0
LWPOLYLINE
  5
B7
330
17
100
AcDbEntity
  8
G-TITLE
370
50
100
AcDbPolyline
 90
4
 70
1
 10
22000.0
 20
1000.0
 10
41000.0
 20
1000.0
 10
41000.0
 20
4800.0
 10
22000.0
 20
4800.0
  0
LINE
  5
B8
330
17
100
AcDbEntity
  8
G-TITLE
100
AcDbLine
 10
22000.0
 20
3800.0
 30
0.0
 11
41000.0
 21
3800.0
 31
0.0
  0
LINE
  5
B9
330
17
100
AcDbEntity
  8
G-TITLE
100
AcDbLine
 10
22000.0
 20
2700.0
 30
0.0
 11
41000.0
 21
2700.0
 31
0.0
  0
LINE
  5
BA
330
17
100
AcDbEntity
  8
G-TITLE
100
AcDbLine
 10
22000.0
 20
1900.0
 30
0.0
 11
41000.0
 21
1900.0
 31
0.0
  0
LINE
  5
BB
330
17
100
AcDbEntity
  8
G-TITLE
100
AcDbLine
 10
24200.0
 20
1000.0
 30
0.0
 11
24200.0
 21
4800.0
 31
0.0
  0
TEXT
  5
BC
330
17
100
AcDbEntity
  8
G-TITLE
100
AcDbText
 10
22200.0
 20
4150.0
 30
0.0
 40
220.00000000000003
  1
工事名称
  7
JP
 11
22200.0
 21
4150.0
 31
0.0
100
AcDbText
  0
TEXT
  5
BD
330
17
100
AcDbEntity
  8
G-TITLE
100
AcDbText
 10
24400.0
 20
4100.0
 30
0.0
 40
340.0
  1
河沿要（仮称）新築計画
  7
JP
 11
24400.0
 21
4100.0
 31
0.0
100
AcDbText
  0
TEXT
  5
BE
330
17
100
AcDbEntity
  8
G-TITLE
100
AcDbText
 10
22200.0
 20
3100.0
 30
0.0
 40
220.00000000000003
  1
図面名称
  7
JP
 11
22200.0
 21
3100.0
 31
0.0
100
AcDbText
  0
TEXT
  5
BF
330
17
100
AcDbEntity
  8
G-TITLE
100
AcDbText
 10
24400.0
 20
3020.0
 30
0.0
 40
440.00000000000006
  1
2階平面図
  7
JP
 11
24400.0
 21
3020.0
 31
0.0
100
AcDbText
  0
TEXT
  5
C0
330
17
100
AcDbEntity
  8
G-TITLE
100
AcDbText
 10
22200.0
 20
2160.0
 30
0.0
 40
220.00000000000003
  1
縮尺
  7
JP
 11
22200.0
 21
2160.0
 31
0.0
100
AcDbText
  0
LINE
  5
C1
330
17
100
AcDbEntity
  8
G-TITLE
100
AcDbLine
 10
24200.0
 20
1900.0
 30
0.0
 11
24200.0
 21
2700.0
 31
0.0
  0
TEXT
  5
C2
330
17
100
AcDbEntity
  8
G-TITLE
100
AcDbText
 10
24350.0
 20
2160.0
 30
0.0
 40
200.0
  1
A3
  7
JP
 11
24350.0
 21
2160.0
 31
0.0
100
AcDbText
  0
TEXT
  5
C3
330
17
100
AcDbEntity
  8
G-TITLE
100
AcDbText
 10
25200.0
 20
2140.0
 30
0.0
 40
260.0
  1
1:100
  7
JP
 11
25200.0
 21
2140.0
 31
0.0
100
AcDbText
  0
LINE
  5
C4
330
17
100
AcDbEntity
  8
G-TITLE
100
AcDbLine
 10
28200.0
 20
1900.0
 30
0.0
 11
28200.0
 21
2700.0
 31
0.0
  0
TEXT
  5
C5
330
17
100
AcDbEntity
  8
G-TITLE
100
AcDbText
 10
28350.0
 20
2160.0
 30
0.0
 40
200.0
  1
日付
  7
JP
 11
28350.0
 21
2160.0
 31
0.0
100
AcDbText
  0
TEXT
  5
C6
330
17
100
AcDbEntity
  8
G-TITLE
100
AcDbText
 10
29200.0
 20
2140.0
 30
0.0
 40
260.0
  1
2026-10-03
  7
JP
 11
29200.0
 21
2140.0
 31
0.0
100
AcDbText
  0
LINE
  5
C7
330
17
100
AcDbEntity
  8
G-TITLE
100
AcDbLine
 10
33200.0
 20
1900.0
 30
0.0
 11
33200.0
 21
2700.0
 31
0.0
  0
TEXT
  5
C8
330
17
100
AcDbEntity
  8
G-TITLE
100
AcDbText
 10
33350.0
 20
2160.0
 30
0.0
 40
200.0
  1
設計
  7
JP
 11
33350.0
 21
2160.0
 31
0.0
100
AcDbText
  0
TEXT
  5
C9
330
17
100
AcDbEntity
  8
G-TITLE
100
AcDbText
 10
34200.0
 20
2140.0
 30
0.0
 40
260.0
  1
設計検討（仮）
  7
JP
 11
34200.0
 21
2140.0
 31
0.0
100
AcDbText
  0
TEXT
  5
CA
330
17
100
AcDbEntity
  8
G-TITLE
100
AcDbText
 10
22200.0
 20
1340.0
 30
0.0
 40
220.00000000000003
  1
段階
  7
JP
 11
22200.0
 21
1340.0
 31
0.0
100
AcDbText
  0
TEXT
  5
CB
330
17
100
AcDbEntity
  8
G-TITLE
100
AcDbText
 10
24400.0
 20
1340.0
 30
0.0
 40
190.0
  1
基本計画　／　本図は建築基準法令に基づく計画段階の検討図であり、確認申請・構造計算・関係機関協議により確定する
  7
JP
 11
24400.0
 21
1340.0
 31
0.0
100
AcDbText
  0
LINE
  5
CC
330
17
100
AcDbEntity
  8
G-TITLE
100
AcDbLine
 10
37600.0
 20
1900.0
 30
0.0
 11
37600.0
 21
3800.0
 31
0.0
  0
TEXT
  5
CD
330
17
100
AcDbEntity
  8
G-TITLE
100
AcDbText
 10
37750.0
 20
3500.0
 30
0.0
 40
200.0
  1
図番
  7
JP
 11
37750.0
 21
3500.0
 31
0.0
100
AcDbText
  0
TEXT
  5
CE
330
17
100
AcDbEntity
  8
G-TITLE
100
AcDbText
 10
39300.0
 20
2800.0
 30
0.0
 40
600.0
  1
A-04
  7
JP
 72
1
 11
39300.0
 21
2800.0
 31
0.0
100
AcDbText
 73
1
  0
HATCH
  5
CF
330
17
100
AcDbEntity
  8
A-CUT-HATCH
 62
7
100
AcDbHatch
 10
0.0
 20
0.0
 30
0.0
210
0.0
220
0.0
230
1.0
  2
ANSI31
 70
0
 71
0
 91
10
 92
3
 72
0
 73
1
 93
27
 10
14000.0
 20
7425.0
 10
17200.0
 20
7425.0
 10
17200.0
 20
13300.0
 10
14700.0
 20
13300.0
 10
14700.0
 20
13550.0
 10
17200.0
 20
13550.0
 10
17200.0
 20
13700.0
 10
17450.0
 20
13700.0
 10
17450.0
 20
13550.0
 10
19200.0
 20
13550.0
 10
19200.0
 20
13300.0
 10
17450.0
 20
13300.0
 10
17450.0
 20
7425.0
 10
23325.0
 20
7425.0
 10
23325.0
 20
13300.0
 10
20800.0
 20
13300.0
 10
20800.0
 20
13550.0
 10
23325.0
 20
13550.0
 10
23325.0
 20
19300.0
 10
22500.0
 20
19300.0
 10
22500.0
 20
19550.0
 10
23325.0
 20
19550.0
 10
23325.0
 20
22800.0
 10
23575.0
 20
22800.0
 10
23575.0
 20
7425.0
 10
23575.0
 20
7175.0
 10
14000.0
 20
7175.0
 97
0
 92
3
 72
0
 73
1
 93
7
 10
23575.0
 20
25675.0
 10
23575.0
 20
25425.0
 10
23575.0
 20
23800.0
 10
23325.0
 20
23800.0
 10
23325.0
 20
25425.0
 10
20800.0
 20
25425.0
 10
20800.0
 20
25675.0
 97
0
 92
3
 72
0
 73
1
 93
12
 10
21700.0
 20
19550.0
 10
21700.0
 20
19300.0
 10
17450.0
 20
19300.0
 10
17450.0
 20
14600.0
 10
17200.0
 20
14600.0
 10
17200.0
 20
19300.0
 10
17000.0
 20
19300.0
 10
17000.0
 20
19550.0
 10
17200.0
 20
19550.0
 10
17200.0
 20
20300.0
 10
17450.0
 20
20300.0
 10
17450.0
 20
19550.0
 97
0
 92
3
 72
0
 73
1
 93
19
 10
5325.0
 20
18100.0
 10
5075.0
 20
18100.0
 10
5075.0
 20
25425.0
 10
5075.0
 20
25675.0
 10
19200.0
 20
25675.0
 10
19200.0
 20
25425.0
 10
17450.0
 20
25425.0
 10
17450.0
 20
21100.0
 10
17200.0
 20
21100.0
 10
17200.0
 20
25425.0
 10
11450.0
 20
25425.0
 10
11450.0
 20
20700.0
 10
11200.0
 20
20700.0
 10
11200.0
 20
25425.0
 10
5325.0
 20
25425.0
 10
5325.0
 20
19550.0
 10
9700.0
 20
19550.0
 10
9700.0
 20
19300.0
 10
5325.0
 20
19300.0
 97
0
 92
3
 72
0
 73
1
 93
12
 10
11200.0
 20
14600.0
 10
11200.0
 20
19300.0
 10
10500.0
 20
19300.0
 10
10500.0
 20
19550.0
 10
11200.0
 20
19550.0
 10
11200.0
 20
19800.0
 10
11450.0
 20
19800.0
 10
11450.0
 20
19550.0
 10
16100.0
 20
19550.0
 10
16100.0
 20
19300.0
 10
11450.0
 20
19300.0
 10
11450.0
 20
14600.0
 97
0
 92
3
 72
0
 73
1
 93
12
 10
11450.0
 20
13200.0
 10
11200.0
 20
13200.0
 10
11200.0
 20
13300.0
 10
7000.0
 20
13300.0
 10
7000.0
 20
13550.0
 10
11200.0
 20
13550.0
 10
11200.0
 20
13700.0
 10
11450.0
 20
13700.0
 10
11450.0
 20
13550.0
 10
13700.0
 20
13550.0
 10
13700.0
 20
13300.0
 10
11450.0
 20
13300.0
 97
0
 92
3
 72
0
 73
1
 93
8
 10
11450.0
 20
12300.0
 10
11450.0
 20
7425.0
 10
12400.0
 20
7425.0
 10
12400.0
 20
7175.0
 10
10400.0
 20
7175.0
 10
10400.0
 20
7425.0
 10
11200.0
 20
7425.0
 10
11200.0
 20
12300.0
 97
0
 92
3
 72
0
 73
1
 93
4
 10
7100.0
 20
7175.0
 10
7100.0
 20
7425.0
 10
9400.0
 20
7425.0
 10
9400.0
 20
7175.0
 97
0
 92
3
 72
0
 73
1
 93
11
 10
5325.0
 20
14500.0
 10
5325.0
 20
13550.0
 10
6200.0
 20
13550.0
 10
6200.0
 20
13300.0
 10
5325.0
 20
13300.0
 10
5325.0
 20
7425.0
 10
6100.0
 20
7425.0
 10
6100.0
 20
7175.0
 10
5075.0
 20
7175.0
 10
5075.0
 20
7425.0
 10
5075.0
 20
14500.0
 97
0
 92
3
 72
0
 73
1
 93
4
 10
5075.0
 20
16100.0
 10
5075.0
 20
17100.0
 10
5325.0
 20
17100.0
 10
5325.0
 20
16100.0
 97
0
 75
1
 76
1
 52
0.0
 41
31.496062992125985
 77
0
 78
1
 53
45.0
 43
0.0
 44
0.0
 45
-70.7106781197
 46
70.7106781197
 79
0
 98
0
  0
LWPOLYLINE
  5
D0
330
17
100
AcDbEntity
  8
A-CUT
100
AcDbPolyline
 90
28
 70
0
 10
14000.0
 20
7425.0
 10
17200.0
 20
7425.0
 10
17200.0
 20
13300.0
 10
14700.0
 20
13300.0
 10
14700.0
 20
13550.0
 10
17200.0
 20
13550.0
 10
17200.0
 20
13700.0
 10
17450.0
 20
13700.0
 10
17450.0
 20
13550.0
 10
19200.0
 20
13550.0
 10
19200.0
 20
13300.0
 10
17450.0
 20
13300.0
 10
17450.0
 20
7425.0
 10
23325.0
 20
7425.0
 10
23325.0
 20
13300.0
 10
20800.0
 20
13300.0
 10
20800.0
 20
13550.0
 10
23325.0
 20
13550.0
 10
23325.0
 20
19300.0
 10
22500.0
 20
19300.0
 10
22500.0
 20
19550.0
 10
23325.0
 20
19550.0
 10
23325.0
 20
22800.0
 10
23575.0
 20
22800.0
 10
23575.0
 20
7425.0
 10
23575.0
 20
7175.0
 10
14000.0
 20
7175.0
 10
14000.0
 20
7425.0
  0
LWPOLYLINE
  5
D1
330
17
100
AcDbEntity
  8
A-CUT
100
AcDbPolyline
 90
8
 70
0
 10
23575.0
 20
25675.0
 10
23575.0
 20
25425.0
 10
23575.0
 20
23800.0
 10
23325.0
 20
23800.0
 10
23325.0
 20
25425.0
 10
20800.0
 20
25425.0
 10
20800.0
 20
25675.0
 10
23575.0
 20
25675.0
  0
LWPOLYLINE
  5
D2
330
17
100
AcDbEntity
  8
A-CUT
100
AcDbPolyline
 90
13
 70
0
 10
21700.0
 20
19550.0
 10
21700.0
 20
19300.0
 10
17450.0
 20
19300.0
 10
17450.0
 20
14600.0
 10
17200.0
 20
14600.0
 10
17200.0
 20
19300.0
 10
17000.0
 20
19300.0
 10
17000.0
 20
19550.0
 10
17200.0
 20
19550.0
 10
17200.0
 20
20300.0
 10
17450.0
 20
20300.0
 10
17450.0
 20
19550.0
 10
21700.0
 20
19550.0
  0
LWPOLYLINE
  5
D3
330
17
100
AcDbEntity
  8
A-CUT
100
AcDbPolyline
 90
20
 70
0
 10
5325.0
 20
18100.0
 10
5075.0
 20
18100.0
 10
5075.0
 20
25425.0
 10
5075.0
 20
25675.0
 10
19200.0
 20
25675.0
 10
19200.0
 20
25425.0
 10
17450.0
 20
25425.0
 10
17450.0
 20
21100.0
 10
17200.0
 20
21100.0
 10
17200.0
 20
25425.0
 10
11450.0
 20
25425.0
 10
11450.0
 20
20700.0
 10
11200.0
 20
20700.0
 10
11200.0
 20
25425.0
 10
5325.0
 20
25425.0
 10
5325.0
 20
19550.0
 10
9700.0
 20
19550.0
 10
9700.0
 20
19300.0
 10
5325.0
 20
19300.0
 10
5325.0
 20
18100.0
  0
LWPOLYLINE
  5
D4
330
17
100
AcDbEntity
  8
A-CUT
100
AcDbPolyline
 90
13
 70
0
 10
11200.0
 20
14600.0
 10
11200.0
 20
19300.0
 10
10500.0
 20
19300.0
 10
10500.0
 20
19550.0
 10
11200.0
 20
19550.0
 10
11200.0
 20
19800.0
 10
11450.0
 20
19800.0
 10
11450.0
 20
19550.0
 10
16100.0
 20
19550.0
 10
16100.0
 20
19300.0
 10
11450.0
 20
19300.0
 10
11450.0
 20
14600.0
 10
11200.0
 20
14600.0
  0
LWPOLYLINE
  5
D5
330
17
100
AcDbEntity
  8
A-CUT
100
AcDbPolyline
 90
13
 70
0
 10
11450.0
 20
13200.0
 10
11200.0
 20
13200.0
 10
11200.0
 20
13300.0
 10
7000.0
 20
13300.0
 10
7000.0
 20
13550.0
 10
11200.0
 20
13550.0
 10
11200.0
 20
13700.0
 10
11450.0
 20
13700.0
 10
11450.0
 20
13550.0
 10
13700.0
 20
13550.0
 10
13700.0
 20
13300.0
 10
11450.0
 20
13300.0
 10
11450.0
 20
13200.0
  0
LWPOLYLINE
  5
D6
330
17
100
AcDbEntity
  8
A-CUT
100
AcDbPolyline
 90
9
 70
0
 10
11450.0
 20
12300.0
 10
11450.0
 20
7425.0
 10
12400.0
 20
7425.0
 10
12400.0
 20
7175.0
 10
10400.0
 20
7175.0
 10
10400.0
 20
7425.0
 10
11200.0
 20
7425.0
 10
11200.0
 20
12300.0
 10
11450.0
 20
12300.0
  0
LWPOLYLINE
  5
D7
330
17
100
AcDbEntity
  8
A-CUT
100
AcDbPolyline
 90
5
 70
0
 10
7100.0
 20
7175.0
 10
7100.0
 20
7425.0
 10
9400.0
 20
7425.0
 10
9400.0
 20
7175.0
 10
7100.0
 20
7175.0
  0
LWPOLYLINE
  5
D8
330
17
100
AcDbEntity
  8
A-CUT
100
AcDbPolyline
 90
12
 70
0
 10
5325.0
 20
14500.0
 10
5325.0
 20
13550.0
 10
6200.0
 20
13550.0
 10
6200.0
 20
13300.0
 10
5325.0
 20
13300.0
 10
5325.0
 20
7425.0
 10
6100.0
 20
7425.0
 10
6100.0
 20
7175.0
 10
5075.0
 20
7175.0
 10
5075.0
 20
7425.0
 10
5075.0
 20
14500.0
 10
5325.0
 20
14500.0
  0
LWPOLYLINE
  5
D9
330
17
100
AcDbEntity
  8
A-CUT
100
AcDbPolyline
 90
5
 70
0
 10
5075.0
 20
16100.0
 10
5075.0
 20
17100.0
 10
5325.0
 20
17100.0
 10
5325.0
 20
16100.0
 10
5075.0
 20
16100.0
  0
HATCH
  5
DA
330
17
100
AcDbEntity
  8
A-CUT-INS
 62
7
100
AcDbHatch
 10
0.0
 20
0.0
 30
0.0
210
0.0
220
0.0
230
1.0
  2
ANSI37
 70
0
 71
0
 91
7
 92
3
 72
0
 73
1
 93
7
 10
23575.0
 20
7175.0
 10
23575.0
 20
22800.0
 10
23695.0
 20
22800.0
 10
23695.0
 20
7175.0
 10
23695.0
 20
7055.0
 10
14000.0
 20
7055.0
 10
14000.0
 20
7175.0
 97
0
 92
3
 72
0
 73
1
 93
7
 10
23575.0
 20
25675.0
 10
20800.0
 20
25675.0
 10
20800.0
 20
25795.0
 10
23695.0
 20
25795.0
 10
23695.0
 20
25675.0
 10
23695.0
 20
23800.0
 10
23575.0
 20
23800.0
 97
0
 92
3
 72
0
 73
1
 93
7
 10
4955.0
 20
25795.0
 10
19200.0
 20
25795.0
 10
19200.0
 20
25675.0
 10
5075.0
 20
25675.0
 10
5075.0
 20
18100.0
 10
4955.0
 20
18100.0
 10
4955.0
 20
25675.0
 97
0
 92
3
 72
0
 73
1
 93
4
 10
12400.0
 20
7175.0
 10
12400.0
 20
7055.0
 10
10400.0
 20
7055.0
 10
10400.0
 20
7175.0
 97
0
 92
3
 72
0
 73
1
 93
4
 10
9400.0
 20
7175.0
 10
9400.0
 20
7055.0
 10
7100.0
 20
7055.0
 10
7100.0
 20
7175.0
 97
0
 92
3
 72
0
 73
1
 93
7
 10
4955.0
 20
14500.0
 10
5075.0
 20
14500.0
 10
5075.0
 20
7175.0
 10
6100.0
 20
7175.0
 10
6100.0
 20
7055.0
 10
4955.0
 20
7055.0
 10
4955.0
 20
7175.0
 97
0
 92
3
 72
0
 73
1
 93
4
 10
5075.0
 20
16100.0
 10
4955.0
 20
16100.0
 10
4955.0
 20
17100.0
 10
5075.0
 20
17100.0
 97
0
 75
1
 76
1
 52
0.0
 41
18.897637795275593
 77
0
 78
2
 53
45.0
 43
0.0
 44
0.0
 45
-42.4264068718
 46
42.4264068718
 79
0
 53
135.0
 43
0.0
 44
0.0
 45
-42.4264068718
 46
-42.4264068718
 79
0
 98
0
  0
LWPOLYLINE
  5
DB
330
17
100
AcDbEntity
  8
A-CUT-LGS
370
18
100
AcDbPolyline
 90
8
 70
0
 10
23575.0
 20
7175.0
 10
23575.0
 20
22800.0
 10
23695.0
 20
22800.0
 10
23695.0
 20
7175.0
 10
23695.0
 20
7055.0
 10
14000.0
 20
7055.0
 10
14000.0
 20
7175.0
 10
23575.0
 20
7175.0
  0
LWPOLYLINE
  5
DC
330
17
100
AcDbEntity
  8
A-CUT-LGS
370
18
100
AcDbPolyline
 90
8
 70
0
 10
23575.0
 20
25675.0
 10
20800.0
 20
25675.0
 10
20800.0
 20
25795.0
 10
23695.0
 20
25795.0
 10
23695.0
 20
25675.0
 10
23695.0
 20
23800.0
 10
23575.0
 20
23800.0
 10
23575.0
 20
25675.0
  0
LWPOLYLINE
  5
DD
330
17
100
AcDbEntity
  8
A-CUT-LGS
370
18
100
AcDbPolyline
 90
8
 70
0
 10
4955.0
 20
25795.0
 10
19200.0
 20
25795.0
 10
19200.0
 20
25675.0
 10
5075.0
 20
25675.0
 10
5075.0
 20
18100.0
 10
4955.0
 20
18100.0
 10
4955.0
 20
25675.0
 10
4955.0
 20
25795.0
  0
LWPOLYLINE
  5
DE
330
17
100
AcDbEntity
  8
A-CUT-LGS
370
18
100
AcDbPolyline
 90
5
 70
0
 10
12400.0
 20
7175.0
 10
12400.0
 20
7055.0
 10
10400.0
 20
7055.0
 10
10400.0
 20
7175.0
 10
12400.0
 20
7175.0
  0
LWPOLYLINE
  5
DF
330
17
100
AcDbEntity
  8
A-CUT-LGS
370
18
100
AcDbPolyline
 90
5
 70
0
 10
9400.0
 20
7175.0
 10
9400.0
 20
7055.0
 10
7100.0
 20
7055.0
 10
7100.0
 20
7175.0
 10
9400.0
 20
7175.0
  0
LWPOLYLINE
  5
E0
330
17
100
AcDbEntity
  8
A-CUT-LGS
370
18
100
AcDbPolyline
 90
8
 70
0
 10
4955.0
 20
14500.0
 10
5075.0
 20
14500.0
 10
5075.0
 20
7175.0
 10
6100.0
 20
7175.0
 10
6100.0
 20
7055.0
 10
4955.0
 20
7055.0
 10
4955.0
 20
7175.0
 10
4955.0
 20
14500.0
  0
LWPOLYLINE
  5
E1
330
17
100
AcDbEntity
  8
A-CUT-LGS
370
18
100
AcDbPolyline
 90
5
 70
0
 10
5075.0
 20
16100.0
 10
4955.0
 20
16100.0
 10
4955.0
 20
17100.0
 10
5075.0
 20
17100.0
 10
5075.0
 20
16100.0
  0
LWPOLYLINE
  5
E2
330
17
100
AcDbEntity
  8
A-CUT-LGS
100
AcDbPolyline
 90
5
 70
0
 10
17450.0
 20
15400.0
 10
17450.0
 20
15500.0
 10
23325.0
 20
15500.0
 10
23325.0
 20
15400.0
 10
17450.0
 20
15400.0
  0
LWPOLYLINE
  5
E3
330
17
100
AcDbEntity
  8
A-CUT-LGS
100
AcDbPolyline
 90
9
 70
0
 10
13000.0
 20
12200.0
 10
17200.0
 20
12200.0
 10
17200.0
 20
12100.0
 10
15200.0
 20
12100.0
 10
15200.0
 20
11900.0
 10
15100.0
 20
11900.0
 10
15100.0
 20
12100.0
 10
13000.0
 20
12100.0
 10
13000.0
 20
12200.0
  0
LWPOLYLINE
  5
E4
330
17
100
AcDbEntity
  8
A-CUT-LGS
100
AcDbPolyline
 90
5
 70
0
 10
16300.0
 20
22800.0
 10
16300.0
 20
22900.0
 10
17200.0
 20
22900.0
 10
17200.0
 20
22800.0
 10
16300.0
 20
22800.0
  0
LWPOLYLINE
  5
E5
330
17
100
AcDbEntity
  8
A-CUT-LGS
100
AcDbPolyline
 90
9
 70
0
 10
15800.0
 20
17200.0
 10
15800.0
 20
19300.0
 10
15900.0
 20
19300.0
 10
15900.0
 20
17150.0
 10
15850.0
 20
17150.0
 10
15850.0
 20
17100.0
 10
15200.0
 20
17100.0
 10
15200.0
 20
17200.0
 10
15800.0
 20
17200.0
  0
LWPOLYLINE
  5
E6
330
17
100
AcDbEntity
  8
A-CUT-LGS
100
AcDbPolyline
 90
13
 70
0
 10
13000.0
 20
22100.0
 10
13000.0
 20
22200.0
 10
14700.0
 20
22200.0
 10
14700.0
 20
25425.0
 10
14800.0
 20
25425.0
 10
14800.0
 20
22900.0
 10
15500.0
 20
22900.0
 10
15500.0
 20
22800.0
 10
14800.0
 20
22800.0
 10
14800.0
 20
20600.0
 10
14700.0
 20
20600.0
 10
14700.0
 20
22100.0
 10
13000.0
 20
22100.0
  0
LWPOLYLINE
  5
E7
330
17
100
AcDbEntity
  8
A-CUT-LGS
100
AcDbPolyline
 90
5
 70
0
 10
15200.0
 20
7425.0
 10
15100.0
 20
7425.0
 10
15100.0
 20
11100.0
 10
15200.0
 20
11100.0
 10
15200.0
 20
7425.0
  0
LWPOLYLINE
  5
E8
330
17
100
AcDbEntity
  8
A-CUT-LGS
100
AcDbPolyline
 90
5
 70
0
 10
14700.0
 20
19550.0
 10
14700.0
 20
19800.0
 10
14800.0
 20
19800.0
 10
14800.0
 20
19550.0
 10
14700.0
 20
19550.0
  0
LWPOLYLINE
  5
E9
330
17
100
AcDbEntity
  8
A-CUT-LGS
100
AcDbPolyline
 90
9
 70
0
 10
13850.0
 20
17150.0
 10
13850.0
 20
19300.0
 10
13950.0
 20
19300.0
 10
13950.0
 20
17200.0
 10
14400.0
 20
17200.0
 10
14400.0
 20
17100.0
 10
13950.0
 20
17100.0
 10
13950.0
 20
17150.0
 10
13850.0
 20
17150.0
  0
LWPOLYLINE
  5
EA
330
17
100
AcDbEntity
  8
A-CUT-LGS
100
AcDbPolyline
 90
5
 70
0
 10
12200.0
 20
12100.0
 10
11450.0
 20
12100.0
 10
11450.0
 20
12200.0
 10
12200.0
 20
12200.0
 10
12200.0
 20
12100.0
  0
LWPOLYLINE
  5
EB
330
17
100
AcDbEntity
  8
A-CUT-LGS
100
AcDbPolyline
 90
5
 70
0
 10
12200.0
 20
22100.0
 10
11450.0
 20
22100.0
 10
11450.0
 20
22200.0
 10
12200.0
 20
22200.0
 10
12200.0
 20
22100.0
  0
LWPOLYLINE
  5
EC
330
17
100
AcDbEntity
  8
A-CUT-LGS
100
AcDbPolyline
 90
5
 70
0
 10
10200.0
 20
12100.0
 10
10200.0
 20
12200.0
 10
11200.0
 20
12200.0
 10
11200.0
 20
12100.0
 10
10200.0
 20
12100.0
  0
LWPOLYLINE
  5
ED
330
17
100
AcDbEntity
  8
A-CUT-LGS
100
AcDbPolyline
 90
13
 70
0
 10
7000.0
 20
12200.0
 10
9400.0
 20
12200.0
 10
9400.0
 20
12100.0
 10
8675.0
 20
12100.0
 10
8675.0
 20
7425.0
 10
8575.0
 20
7425.0
 10
8575.0
 20
12100.0
 10
8075.0
 20
12100.0
 10
8075.0
 20
7425.0
 10
7975.0
 20
7425.0
 10
7975.0
 20
12100.0
 10
7000.0
 20
12100.0
 10
7000.0
 20
12200.0
  0
LWPOLYLINE
  5
EE
330
17
100
AcDbEntity
  8
A-CUT-LGS
100
AcDbPolyline
 90
5
 70
0
 10
9100.0
 20
19550.0
 10
9100.0
 20
20300.0
 10
9200.0
 20
20300.0
 10
9200.0
 20
19550.0
 10
9100.0
 20
19550.0
  0
LWPOLYLINE
  5
EF
330
17
100
AcDbEntity
  8
A-CUT-LGS
100
AcDbPolyline
 90
5
 70
0
 10
9100.0
 20
21100.0
 10
9100.0
 20
25425.0
 10
9200.0
 20
25425.0
 10
9200.0
 20
21100.0
 10
9100.0
 20
21100.0
  0
LWPOLYLINE
  5
F0
330
17
100
AcDbEntity
  8
A-CUT-LGS
100
AcDbPolyline
 90
5
 70
0
 10
6200.0
 20
12100.0
 10
5325.0
 20
12100.0
 10
5325.0
 20
12200.0
 10
6200.0
 20
12200.0
 10
6200.0
 20
12100.0
  0
LWPOLYLINE
  5
F1
330
17
100
AcDbEntity
  8
A-VIS
100
AcDbPolyline
 90
5
 70
0
 10
5325.0
 20
14500.0
 10
5075.0
 20
14500.0
 10
5075.0
 20
16100.0
 10
5325.0
 20
16100.0
 10
5325.0
 20
14500.0
  0
LWPOLYLINE
  5
F2
330
17
100
AcDbEntity
  8
A-VIS
100
AcDbPolyline
 90
5
 70
0
 10
5325.0
 20
17100.0
 10
5075.0
 20
17100.0
 10
5075.0
 20
18100.0
 10
5325.0
 20
18100.0
 10
5325.0
 20
17100.0
  0
LWPOLYLINE
  5
F3
330
17
100
AcDbEntity
  8
A-VIS
100
AcDbPolyline
 90
5
 70
0
 10
7100.0
 20
7425.0
 10
7100.0
 20
7175.0
 10
6100.0
 20
7175.0
 10
6100.0
 20
7425.0
 10
7100.0
 20
7425.0
  0
LWPOLYLINE
  5
F4
330
17
100
AcDbEntity
  8
A-VIS
100
AcDbPolyline
 90
5
 70
0
 10
10400.0
 20
7175.0
 10
9400.0
 20
7175.0
 10
9400.0
 20
7425.0
 10
10400.0
 20
7425.0
 10
10400.0
 20
7175.0
  0
LWPOLYLINE
  5
F5
330
17
100
AcDbEntity
  8
A-VIS
100
AcDbPolyline
 90
5
 70
0
 10
14000.0
 20
7175.0
 10
12400.0
 20
7175.0
 10
12400.0
 20
7425.0
 10
14000.0
 20
7425.0
 10
14000.0
 20
7175.0
  0
LWPOLYLINE
  5
F6
330
17
100
AcDbEntity
  8
A-VIS
100
AcDbPolyline
 90
5
 70
0
 10
20800.0
 20
25425.0
 10
19200.0
 20
25425.0
 10
19200.0
 20
25675.0
 10
20800.0
 20
25675.0
 10
20800.0
 20
25425.0
  0
LWPOLYLINE
  5
F7
330
17
100
AcDbEntity
  8
A-VIS
100
AcDbPolyline
 90
5
 70
0
 10
23575.0
 20
22800.0
 10
23325.0
 20
22800.0
 10
23325.0
 20
23800.0
 10
23575.0
 20
23800.0
 10
23575.0
 20
22800.0
  0
LWPOLYLINE
  5
F8
330
17
100
AcDbEntity
  8
A-VIS
100
AcDbPolyline
 90
5
 70
0
 10
5075.0
 20
14500.0
 10
4955.0
 20
14500.0
 10
4955.0
 20
16100.0
 10
5075.0
 20
16100.0
 10
5075.0
 20
14500.0
  0
LWPOLYLINE
  5
F9
330
17
100
AcDbEntity
  8
A-VIS
100
AcDbPolyline
 90
5
 70
0
 10
5075.0
 20
17100.0
 10
4955.0
 20
17100.0
 10
4955.0
 20
18100.0
 10
5075.0
 20
18100.0
 10
5075.0
 20
17100.0
  0
LWPOLYLINE
  5
FA
330
17
100
AcDbEntity
  8
A-VIS
100
AcDbPolyline
 90
5
 70
0
 10
7100.0
 20
7175.0
 10
7100.0
 20
7055.0
 10
6100.0
 20
7055.0
 10
6100.0
 20
7175.0
 10
7100.0
 20
7175.0
  0
LWPOLYLINE
  5
FB
330
17
100
AcDbEntity
  8
A-VIS
100
AcDbPolyline
 90
5
 70
0
 10
10400.0
 20
7055.0
 10
9400.0
 20
7055.0
 10
9400.0
 20
7175.0
 10
10400.0
 20
7175.0
 10
10400.0
 20
7055.0
  0
LWPOLYLINE
  5
FC
330
17
100
AcDbEntity
  8
A-VIS
100
AcDbPolyline
 90
5
 70
0
 10
14000.0
 20
7055.0
 10
12400.0
 20
7055.0
 10
12400.0
 20
7175.0
 10
14000.0
 20
7175.0
 10
14000.0
 20
7055.0
  0
LWPOLYLINE
  5
FD
330
17
100
AcDbEntity
  8
A-VIS
100
AcDbPolyline
 90
5
 70
0
 10
20800.0
 20
25675.0
 10
19200.0
 20
25675.0
 10
19200.0
 20
25795.0
 10
20800.0
 20
25795.0
 10
20800.0
 20
25675.0
  0
LWPOLYLINE
  5
FE
330
17
100
AcDbEntity
  8
A-VIS
100
AcDbPolyline
 90
5
 70
0
 10
23695.0
 20
22800.0
 10
23575.0
 20
22800.0
 10
23575.0
 20
23800.0
 10
23695.0
 20
23800.0
 10
23695.0
 20
22800.0
  0
LWPOLYLINE
  5
FF
330
17
100
AcDbEntity
  8
A-VIS
100
AcDbPolyline
 90
4
 70
0
 10
9200.0
 20
22399.5
 10
9200.0
 20
22400.0
 10
11200.0
 20
22400.0
 10
11200.0
 20
22399.5
  0
LWPOLYLINE
  5
100
330
17
100
AcDbEntity
  8
A-VIS
100
AcDbPolyline
 90
5
 70
0
 10
11450.0
 20
15799.5
 10
11450.0
 20
15800.0
 10
13850.0
 20
15800.0
 10
13850.0
 20
17150.0
 10
13850.5
 20
17150.0
  0
LWPOLYLINE
  5
101
330
17
100
AcDbEntity
  8
A-STRS
100
AcDbPolyline
 90
5
 70
0
 10
10250.0
 20
22640.0
 10
11200.0
 20
22640.0
 10
11200.0
 20
22400.0
 10
10250.0
 20
22400.0
 10
10250.0
 20
22640.0
  0
LWPOLYLINE
  5
102
330
17
100
AcDbEntity
  8
A-STRS
100
AcDbPolyline
 90
5
 70
0
 10
12700.0
 20
16060.0
 10
13850.0
 20
16060.0
 10
13850.0
 20
15800.0
 10
12700.0
 20
15800.0
 10
12700.0
 20
16060.0
  0
LWPOLYLINE
  5
103
330
17
100
AcDbEntity
  8
A-STRS
100
AcDbPolyline
 90
5
 70
0
 10
10250.0
 20
22880.0
 10
11200.0
 20
22880.0
 10
11200.0
 20
22640.0
 10
10250.0
 20
22640.0
 10
10250.0
 20
22880.0
  0
LWPOLYLINE
  5
104
330
17
100
AcDbEntity
  8
A-STRS
100
AcDbPolyline
 90
5
 70
0
 10
12700.0
 20
16320.0
 10
13850.0
 20
16320.0
 10
13850.0
 20
16060.0
 10
12700.0
 20
16060.0
 10
12700.0
 20
16320.0
  0
LWPOLYLINE
  5
105
330
17
100
AcDbEntity
  8
A-STRS
100
AcDbPolyline
 90
5
 70
0
 10
10250.0
 20
23120.0
 10
11200.0
 20
23120.0
 10
11200.0
 20
22880.0
 10
10250.0
 20
22880.0
 10
10250.0
 20
23120.0
  0
LWPOLYLINE
  5
106
330
17
100
AcDbEntity
  8
A-STRS
100
AcDbPolyline
 90
5
 70
0
 10
12700.0
 20
16580.0
 10
13850.0
 20
16580.0
 10
13850.0
 20
16320.0
 10
12700.0
 20
16320.0
 10
12700.0
 20
16580.0
  0
LWPOLYLINE
  5
107
330
17
100
AcDbEntity
  8
A-VIS
100
AcDbPolyline
 90
8
 70
0
 10
12500.0
 20
5055.0
 10
12500.0
 20
7055.0
 10
13800.0
 20
7055.0
 10
14000.0
 20
7055.0
 10
14800.0
 20
7055.0
 10
16100.0
 20
7055.0
 10
16100.0
 20
5055.0
 10
12500.0
 20
5055.0
  0
LWPOLYLINE
  5
108
330
17
100
AcDbEntity
  8
A-STRS
100
AcDbPolyline
 90
5
 70
0
 10
10250.0
 20
23360.0
 10
11200.0
 20
23360.0
 10
11200.0
 20
23120.0
 10
10250.0
 20
23120.0
 10
10250.0
 20
23360.0
  0
LWPOLYLINE
  5
109
330
17
100
AcDbEntity
  8
A-STRS
100
AcDbPolyline
 90
5
 70
0
 10
12700.0
 20
16840.0
 10
13850.0
 20
16840.0
 10
13850.0
 20
16580.0
 10
12700.0
 20
16580.0
 10
12700.0
 20
16840.0
  0
LWPOLYLINE
  5
10A
330
17
100
AcDbEntity
  8
A-STRS
100
AcDbPolyline
 90
5
 70
0
 10
10250.0
 20
23600.0
 10
11200.0
 20
23600.0
 10
11200.0
 20
23360.0
 10
10250.0
 20
23360.0
 10
10250.0
 20
23600.0
  0
LWPOLYLINE
  5
10B
330
17
100
AcDbEntity
  8
A-STRS
100
AcDbPolyline
 90
5
 70
0
 10
12700.0
 20
17100.0
 10
13850.0
 20
17100.0
 10
13850.0
 20
16840.0
 10
12700.0
 20
16840.0
 10
12700.0
 20
17100.0
  0
LWPOLYLINE
  5
10C
330
17
100
AcDbEntity
  8
A-STRS
100
AcDbPolyline
 90
5
 70
0
 10
10250.0
 20
23840.0
 10
11200.0
 20
23840.0
 10
11200.0
 20
23600.0
 10
10250.0
 20
23600.0
 10
10250.0
 20
23840.0
  0
LWPOLYLINE
  5
10D
330
17
100
AcDbEntity
  8
A-STRS
100
AcDbPolyline
 90
6
 70
0
 10
12700.0
 20
17360.0
 10
13850.0
 20
17360.0
 10
13850.0
 20
17150.0
 10
13850.0
 20
17100.0
 10
12700.0
 20
17100.0
 10
12700.0
 20
17360.0
  0
LWPOLYLINE
  5
10E
330
17
100
AcDbEntity
  8
A-STRS
100
AcDbPolyline
 90
5
 70
0
 10
10250.0
 20
24080.0
 10
11200.0
 20
24080.0
 10
11200.0
 20
23840.0
 10
10250.0
 20
23840.0
 10
10250.0
 20
24080.0
  0
LWPOLYLINE
  5
10F
330
17
100
AcDbEntity
  8
A-STRS
100
AcDbPolyline
 90
5
 70
0
 10
12700.0
 20
17620.0
 10
13850.0
 20
17620.0
 10
13850.0
 20
17360.0
 10
12700.0
 20
17360.0
 10
12700.0
 20
17620.0
  0
LWPOLYLINE
  5
110
330
17
100
AcDbEntity
  8
A-STRS
100
AcDbPolyline
 90
5
 70
0
 10
10250.0
 20
24320.0
 10
11200.0
 20
24320.0
 10
11200.0
 20
24080.0
 10
10250.0
 20
24080.0
 10
10250.0
 20
24320.0
  0
LWPOLYLINE
  5
111
330
17
100
AcDbEntity
  8
A-STRS
100
AcDbPolyline
 90
5
 70
0
 10
12700.0
 20
17880.0
 10
13850.0
 20
17880.0
 10
13850.0
 20
17620.0
 10
12700.0
 20
17620.0
 10
12700.0
 20
17880.0
  0
LWPOLYLINE
  5
112
330
17
100
AcDbEntity
  8
A-VIS
100
AcDbPolyline
 90
5
 70
0
 10
11600.0
 20
620.0
 10
11600.0
 20
800.0
 10
16000.0
 20
800.0
 10
16000.0
 20
620.0
 10
11600.0
 20
620.0
  0
LWPOLYLINE
  5
113
330
17
100
AcDbEntity
  8
A-STRS
100
AcDbPolyline
 90
6
 70
0
 10
9200.0
 20
25425.0
 10
11200.0
 20
25425.0
 10
11200.0
 20
24320.0
 10
10250.0
 20
24320.0
 10
9200.0
 20
24320.0
 10
9200.0
 20
25425.0
  0
LWPOLYLINE
  5
114
330
17
100
AcDbEntity
  8
A-STRS
100
AcDbPolyline
 90
6
 70
0
 10
11450.0
 20
19300.0
 10
13850.0
 20
19300.0
 10
13850.0
 20
17880.0
 10
12700.0
 20
17880.0
 10
11450.0
 20
17880.0
 10
11450.0
 20
19300.0
  0
LINE
  5
115
330
17
100
AcDbEntity
  8
A-GRID
100
AcDbLine
 10
5200.0
 20
5360.0
 30
0.0
 11
5200.0
 21
27490.0
 31
0.0
  0
CIRCLE
  5
116
330
17
100
AcDbEntity
  8
A-GRID-SYMB
100
AcDbCircle
 10
5200.0
 20
5000.0
 30
0.0
 40
360.0
  0
TEXT
  5
117
330
17
100
AcDbEntity
  8
A-GRID-SYMB
100
AcDbText
 10
5200.0
 20
5000.0
 30
0.0
 40
300.0
  1
X1
  7
JP
 72
1
 11
5200.0
 21
5000.0
 31
0.0
100
AcDbText
 73
2
  0
CIRCLE
  5
118
330
17
100
AcDbEntity
  8
A-GRID-SYMB
100
AcDbCircle
 10
5200.0
 20
27850.0
 30
0.0
 40
360.0
  0
TEXT
  5
119
330
17
100
AcDbEntity
  8
A-GRID-SYMB
100
AcDbText
 10
5200.0
 20
27850.0
 30
0.0
 40
300.0
  1
X1
  7
JP
 72
1
 11
5200.0
 21
27850.0
 31
0.0
100
AcDbText
 73
2
  0
LINE
  5
11A
330
17
100
AcDbEntity
  8
A-GRID
100
AcDbLine
 10
11325.0
 20
5360.0
 30
0.0
 11
11325.0
 21
27490.0
 31
0.0
  0
CIRCLE
  5
11B
330
17
100
AcDbEntity
  8
A-GRID-SYMB
100
AcDbCircle
 10
11325.0
 20
5000.0
 30
0.0
 40
360.0
  0
TEXT
  5
11C
330
17
100
AcDbEntity
  8
A-GRID-SYMB
100
AcDbText
 10
11325.0
 20
5000.0
 30
0.0
 40
300.0
  1
X2
  7
JP
 72
1
 11
11325.0
 21
5000.0
 31
0.0
100
AcDbText
 73
2
  0
CIRCLE
  5
11D
330
17
100
AcDbEntity
  8
A-GRID-SYMB
100
AcDbCircle
 10
11325.0
 20
27850.0
 30
0.0
 40
360.0
  0
TEXT
  5
11E
330
17
100
AcDbEntity
  8
A-GRID-SYMB
100
AcDbText
 10
11325.0
 20
27850.0
 30
0.0
 40
300.0
  1
X2
  7
JP
 72
1
 11
11325.0
 21
27850.0
 31
0.0
100
AcDbText
 73
2
  0
LINE
  5
11F
330
17
100
AcDbEntity
  8
A-GRID
100
AcDbLine
 10
17325.0
 20
5360.0
 30
0.0
 11
17325.0
 21
27490.0
 31
0.0
  0
CIRCLE
  5
120
330
17
100
AcDbEntity
  8
A-GRID-SYMB
100
AcDbCircle
 10
17325.0
 20
5000.0
 30
0.0
 40
360.0
  0
TEXT
  5
121
330
17
100
AcDbEntity
  8
A-GRID-SYMB
100
AcDbText
 10
17325.0
 20
5000.0
 30
0.0
 40
300.0
  1
X3
  7
JP
 72
1
 11
17325.0
 21
5000.0
 31
0.0
100
AcDbText
 73
2
  0
CIRCLE
  5
122
330
17
100
AcDbEntity
  8
A-GRID-SYMB
100
AcDbCircle
 10
17325.0
 20
27850.0
 30
0.0
 40
360.0
  0
TEXT
  5
123
330
17
100
AcDbEntity
  8
A-GRID-SYMB
100
AcDbText
 10
17325.0
 20
27850.0
 30
0.0
 40
300.0
  1
X3
  7
JP
 72
1
 11
17325.0
 21
27850.0
 31
0.0
100
AcDbText
 73
2
  0
LINE
  5
124
330
17
100
AcDbEntity
  8
A-GRID
100
AcDbLine
 10
23450.0
 20
5360.0
 30
0.0
 11
23450.0
 21
27490.0
 31
0.0
  0
CIRCLE
  5
125
330
17
100
AcDbEntity
  8
A-GRID-SYMB
100
AcDbCircle
 10
23450.0
 20
5000.0
 30
0.0
 40
360.0
  0
TEXT
  5
126
330
17
100
AcDbEntity
  8
A-GRID-SYMB
100
AcDbText
 10
23450.0
 20
5000.0
 30
0.0
 40
300.0
  1
X4
  7
JP
 72
1
 11
23450.0
 21
5000.0
 31
0.0
100
AcDbText
 73
2
  0
CIRCLE
  5
127
330
17
100
AcDbEntity
  8
A-GRID-SYMB
100
AcDbCircle
 10
23450.0
 20
27850.0
 30
0.0
 40
360.0
  0
TEXT
  5
128
330
17
100
AcDbEntity
  8
A-GRID-SYMB
100
AcDbText
 10
23450.0
 20
27850.0
 30
0.0
 40
300.0
  1
X4
  7
JP
 72
1
 11
23450.0
 21
27850.0
 31
0.0
100
AcDbText
 73
2
  0
LINE
  5
129
330
17
100
AcDbEntity
  8
A-GRID
100
AcDbLine
 10
3260.0
 20
7300.0
 30
0.0
 11
25390.0
 21
7300.0
 31
0.0
  0
CIRCLE
  5
12A
330
17
100
AcDbEntity
  8
A-GRID-SYMB
100
AcDbCircle
 10
2900.0
 20
7300.0
 30
0.0
 40
360.0
  0
TEXT
  5
12B
330
17
100
AcDbEntity
  8
A-GRID-SYMB
100
AcDbText
 10
2900.0
 20
7300.0
 30
0.0
 40
300.0
  1
Y1
  7
JP
 72
1
 11
2900.0
 21
7300.0
 31
0.0
100
AcDbText
 73
2
  0
CIRCLE
  5
12C
330
17
100
AcDbEntity
  8
A-GRID-SYMB
100
AcDbCircle
 10
25750.0
 20
7300.0
 30
0.0
 40
360.0
  0
TEXT
  5
12D
330
17
100
AcDbEntity
  8
A-GRID-SYMB
100
AcDbText
 10
25750.0
 20
7300.0
 30
0.0
 40
300.0
  1
Y1
  7
JP
 72
1
 11
25750.0
 21
7300.0
 31
0.0
100
AcDbText
 73
2
  0
LINE
  5
12E
330
17
100
AcDbEntity
  8
A-GRID
100
AcDbLine
 10
3260.0
 20
13425.0
 30
0.0
 11
25390.0
 21
13425.0
 31
0.0
  0
CIRCLE
  5
12F
330
17
100
AcDbEntity
  8
A-GRID-SYMB
100
AcDbCircle
 10
2900.0
 20
13425.0
 30
0.0
 40
360.0
  0
TEXT
  5
130
330
17
100
AcDbEntity
  8
A-GRID-SYMB
100
AcDbText
 10
2900.0
 20
13425.0
 30
0.0
 40
300.0
  1
Y2
  7
JP
 72
1
 11
2900.0
 21
13425.0
 31
0.0
100
AcDbText
 73
2
  0
CIRCLE
  5
131
330
17
100
AcDbEntity
  8
A-GRID-SYMB
100
AcDbCircle
 10
25750.0
 20
13425.0
 30
0.0
 40
360.0
  0
TEXT
  5
132
330
17
100
AcDbEntity
  8
A-GRID-SYMB
100
AcDbText
 10
25750.0
 20
13425.0
 30
0.0
 40
300.0
  1
Y2
  7
JP
 72
1
 11
25750.0
 21
13425.0
 31
0.0
100
AcDbText
 73
2
  0
LINE
  5
133
330
17
100
AcDbEntity
  8
A-GRID
100
AcDbLine
 10
3260.0
 20
19425.0
 30
0.0
 11
25390.0
 21
19425.0
 31
0.0
  0
CIRCLE
  5
134
330
17
100
AcDbEntity
  8
A-GRID-SYMB
100
AcDbCircle
 10
2900.0
 20
19425.0
 30
0.0
 40
360.0
  0
TEXT
  5
135
330
17
100
AcDbEntity
  8
A-GRID-SYMB
100
AcDbText
 10
2900.0
 20
19425.0
 30
0.0
 40
300.0
  1
Y3
  7
JP
 72
1
 11
2900.0
 21
19425.0
 31
0.0
100
AcDbText
 73
2
  0
CIRCLE
  5
136
330
17
100
AcDbEntity
  8
A-GRID-SYMB
100
AcDbCircle
 10
25750.0
 20
19425.0
 30
0.0
 40
360.0
  0
TEXT
  5
137
330
17
100
AcDbEntity
  8
A-GRID-SYMB
100
AcDbText
 10
25750.0
 20
19425.0
 30
0.0
 40
300.0
  1
Y3
  7
JP
 72
1
 11
25750.0
 21
19425.0
 31
0.0
100
AcDbText
 73
2
  0
LINE
  5
138
330
17
100
AcDbEntity
  8
A-GRID
100
AcDbLine
 10
3260.0
 20
25550.0
 30
0.0
 11
25390.0
 21
25550.0
 31
0.0
  0
CIRCLE
  5
139
330
17
100
AcDbEntity
  8
A-GRID-SYMB
100
AcDbCircle
 10
2900.0
 20
25550.0
 30
0.0
 40
360.0
  0
TEXT
  5
13A
330
17
100
AcDbEntity
  8
A-GRID-SYMB
100
AcDbText
 10
2900.0
 20
25550.0
 30
0.0
 40
300.0
  1
Y4
  7
JP
 72
1
 11
2900.0
 21
25550.0
 31
0.0
100
AcDbText
 73
2
  0
CIRCLE
  5
13B
330
17
100
AcDbEntity
  8
A-GRID-SYMB
100
AcDbCircle
 10
25750.0
 20
25550.0
 30
0.0
 40
360.0
  0
TEXT
  5
13C
330
17
100
AcDbEntity
  8
A-GRID-SYMB
100
AcDbText
 10
25750.0
 20
25550.0
 30
0.0
 40
300.0
  1
Y4
  7
JP
 72
1
 11
25750.0
 21
25550.0
 31
0.0
100
AcDbText
 73
2
  0
DIMENSION
  5
13D
330
17
100
AcDbEntity
  8
A-DIMS
100
AcDbDimension
280
0
  2
*D1
  3
JIS
 10
5200.0
 20
6400.0
 30
0.0
 11
5650.0
 21
6560.0
 31
0.0
 70
32
 71
5
  1
900
100
AcDbAlignedDimension
 13
5200.0
 23
6400.0
 33
0.0
 14
6100.0
 24
6400.0
 34
0.0
 50
0.0
100
AcDbRotatedDimension
  0
DIMENSION
  5
151
330
17
100
AcDbEntity
  8
A-DIMS
100
AcDbDimension
280
0
  2
*D2
  3
JIS
 10
6100.0
 20
6400.0
 30
0.0
 11
6600.0
 21
6560.0
 31
0.0
 70
32
 71
5
  1
1,000
100
AcDbAlignedDimension
 13
6100.0
 23
6400.0
 33
0.0
 14
7100.0
 24
6400.0
 34
0.0
 50
0.0
100
AcDbRotatedDimension
  0
DIMENSION
  5
160
330
17
100
AcDbEntity
  8
A-DIMS
100
AcDbDimension
280
0
  2
*D3
  3
JIS
 10
7100.0
 20
6400.0
 30
0.0
 11
8250.0
 21
6560.0
 31
0.0
 70
32
 71
5
  1
2,300
100
AcDbAlignedDimension
 13
7100.0
 23
6400.0
 33
0.0
 14
9400.0
 24
6400.0
 34
0.0
 50
0.0
100
AcDbRotatedDimension
  0
DIMENSION
  5
16F
330
17
100
AcDbEntity
  8
A-DIMS
100
AcDbDimension
280
0
  2
*D4
  3
JIS
 10
9400.0
 20
6400.0
 30
0.0
 11
9900.0
 21
6560.0
 31
0.0
 70
32
 71
5
  1
1,000
100
AcDbAlignedDimension
 13
9400.0
 23
6400.0
 33
0.0
 14
10400.0
 24
6400.0
 34
0.0
 50
0.0
100
AcDbRotatedDimension
  0
DIMENSION
  5
17E
330
17
100
AcDbEntity
  8
A-DIMS
100
AcDbDimension
280
0
  2
*D5
  3
JIS
 10
10400.0
 20
6400.0
 30
0.0
 11
10862.5
 21
6560.0
 31
0.0
 70
32
 71
5
  1
925
100
AcDbAlignedDimension
 13
10400.0
 23
6400.0
 33
0.0
 14
11325.0
 24
6400.0
 34
0.0
 50
0.0
100
AcDbRotatedDimension
  0
DIMENSION
  5
18D
330
17
100
AcDbEntity
  8
A-DIMS
100
AcDbDimension
280
0
  2
*D6
  3
JIS
 10
11325.0
 20
6400.0
 30
0.0
 11
11862.5
 21
6560.0
 31
0.0
 70
32
 71
5
  1
1,075
100
AcDbAlignedDimension
 13
11325.0
 23
6400.0
 33
0.0
 14
12400.0
 24
6400.0
 34
0.0
 50
0.0
100
AcDbRotatedDimension
  0
DIMENSION
  5
19C
330
17
100
AcDbEntity
  8
A-DIMS
100
AcDbDimension
280
0
  2
*D7
  3
JIS
 10
12400.0
 20
6400.0
 30
0.0
 11
13200.0
 21
6560.0
 31
0.0
 70
32
 71
5
  1
1,600
100
AcDbAlignedDimension
 13
12400.0
 23
6400.0
 33
0.0
 14
14000.0
 24
6400.0
 34
0.0
 50
0.0
100
AcDbRotatedDimension
  0
DIMENSION
  5
1AB
330
17
100
AcDbEntity
  8
A-DIMS
100
AcDbDimension
280
0
  2
*D8
  3
JIS
 10
14000.0
 20
6400.0
 30
0.0
 11
15662.5
 21
6560.0
 31
0.0
 70
32
 71
5
  1
3,325
100
AcDbAlignedDimension
 13
14000.0
 23
6400.0
 33
0.0
 14
17325.0
 24
6400.0
 34
0.0
 50
0.0
100
AcDbRotatedDimension
  0
DIMENSION
  5
1BA
330
17
100
AcDbEntity
  8
A-DIMS
100
AcDbDimension
280
0
  2
*D9
  3
JIS
 10
17325.0
 20
6400.0
 30
0.0
 11
20387.5
 21
6560.0
 31
0.0
 70
32
 71
5
  1
6,125
100
AcDbAlignedDimension
 13
17325.0
 23
6400.0
 33
0.0
 14
23450.0
 24
6400.0
 34
0.0
 50
0.0
100
AcDbRotatedDimension
  0
DIMENSION
  5
1C9
330
17
100
AcDbEntity
  8
A-DIMS
100
AcDbDimension
280
0
  2
*D10
  3
JIS
 10
5200.0
 20
5850.0
 30
0.0
 11
8262.5
 21
6010.0
 31
0.0
 70
32
 71
5
  1
6,125
100
AcDbAlignedDimension
 13
5200.0
 23
5850.0
 33
0.0
 14
11325.0
 24
5850.0
 34
0.0
 50
0.0
100
AcDbRotatedDimension
  0
DIMENSION
  5
1D8
330
17
100
AcDbEntity
  8
A-DIMS
100
AcDbDimension
280
0
  2
*D11
  3
JIS
 10
11325.0
 20
5850.0
 30
0.0
 11
14325.0
 21
6010.0
 31
0.0
 70
32
 71
5
  1
6,000
100
AcDbAlignedDimension
 13
11325.0
 23
5850.0
 33
0.0
 14
17325.0
 24
5850.0
 34
0.0
 50
0.0
100
AcDbRotatedDimension
  0
DIMENSION
  5
1E7
330
17
100
AcDbEntity
  8
A-DIMS
100
AcDbDimension
280
0
  2
*D12
  3
JIS
 10
17325.0
 20
5850.0
 30
0.0
 11
20387.5
 21
6010.0
 31
0.0
 70
32
 71
5
  1
6,125
100
AcDbAlignedDimension
 13
17325.0
 23
5850.0
 33
0.0
 14
23450.0
 24
5850.0
 34
0.0
 50
0.0
100
AcDbRotatedDimension
  0
DIMENSION
  5
1F6
330
17
100
AcDbEntity
  8
A-DIMS
100
AcDbDimension
280
0
  2
*D13
  3
JIS
 10
4955.0
 20
5300.0
 30
0.0
 11
14325.0
 21
5460.0
 31
0.0
 70
32
 71
5
  1
18,740
100
AcDbAlignedDimension
 13
4955.0
 23
5300.0
 33
0.0
 14
23695.0
 24
5300.0
 34
0.0
 50
0.0
100
AcDbRotatedDimension
  0
DIMENSION
  5
205
330
17
100
AcDbEntity
  8
A-DIMS
100
AcDbDimension
280
0
  2
*D14
  3
JIS
 10
4300.0
 20
7300.0
 30
0.0
 11
4140.0
 21
10362.5
 31
0.0
 70
32
 71
5
  1
6,125
100
AcDbAlignedDimension
 13
4300.0
 23
7300.0
 33
0.0
 14
4300.0
 24
13425.0
 34
0.0
 50
90.0
100
AcDbRotatedDimension
  0
DIMENSION
  5
214
330
17
100
AcDbEntity
  8
A-DIMS
100
AcDbDimension
280
0
  2
*D15
  3
JIS
 10
4300.0
 20
13425.0
 30
0.0
 11
4140.0
 21
13962.5
 31
0.0
 70
32
 71
5
  1
1,075
100
AcDbAlignedDimension
 13
4300.0
 23
13425.0
 33
0.0
 14
4300.0
 24
14500.0
 34
0.0
 50
90.0
100
AcDbRotatedDimension
  0
DIMENSION
  5
223
330
17
100
AcDbEntity
  8
A-DIMS
100
AcDbDimension
280
0
  2
*D16
  3
JIS
 10
4300.0
 20
14500.0
 30
0.0
 11
4140.0
 21
15300.0
 31
0.0
 70
32
 71
5
  1
1,600
100
AcDbAlignedDimension
 13
4300.0
 23
14500.0
 33
0.0
 14
4300.0
 24
16100.0
 34
0.0
 50
90.0
100
AcDbRotatedDimension
  0
DIMENSION
  5
232
330
17
100
AcDbEntity
  8
A-DIMS
100
AcDbDimension
280
0
  2
*D17
  3
JIS
 10
4300.0
 20
16100.0
 30
0.0
 11
4140.0
 21
16600.0
 31
0.0
 70
32
 71
5
  1
1,000
100
AcDbAlignedDimension
 13
4300.0
 23
16100.0
 33
0.0
 14
4300.0
 24
17100.0
 34
0.0
 50
90.0
100
AcDbRotatedDimension
  0
DIMENSION
  5
241
330
17
100
AcDbEntity
  8
A-DIMS
100
AcDbDimension
280
0
  2
*D18
  3
JIS
 10
4300.0
 20
17100.0
 30
0.0
 11
4140.0
 21
17600.0
 31
0.0
 70
32
 71
5
  1
1,000
100
AcDbAlignedDimension
 13
4300.0
 23
17100.0
 33
0.0
 14
4300.0
 24
18100.0
 34
0.0
 50
90.0
100
AcDbRotatedDimension
  0
DIMENSION
  5
250
330
17
100
AcDbEntity
  8
A-DIMS
100
AcDbDimension
280
0
  2
*D19
  3
JIS
 10
4300.0
 20
18100.0
 30
0.0
 11
4140.0
 21
18762.5
 31
0.0
 70
32
 71
5
  1
1,325
100
AcDbAlignedDimension
 13
4300.0
 23
18100.0
 33
0.0
 14
4300.0
 24
19425.0
 34
0.0
 50
90.0
100
AcDbRotatedDimension
  0
DIMENSION
  5
25F
330
17
100
AcDbEntity
  8
A-DIMS
100
AcDbDimension
280
0
  2
*D20
  3
JIS
 10
4300.0
 20
19425.0
 30
0.0
 11
4140.0
 21
22487.5
 31
0.0
 70
32
 71
5
  1
6,125
100
AcDbAlignedDimension
 13
4300.0
 23
19425.0
 33
0.0
 14
4300.0
 24
25550.0
 34
0.0
 50
90.0
100
AcDbRotatedDimension
  0
DIMENSION
  5
26E
330
17
100
AcDbEntity
  8
A-DIMS
100
AcDbDimension
280
0
  2
*D21
  3
JIS
 10
3750.0
 20
7300.0
 30
0.0
 11
3590.0
 21
10362.5
 31
0.0
 70
32
 71
5
  1
6,125
100
AcDbAlignedDimension
 13
3750.0
 23
7300.0
 33
0.0
 14
3750.0
 24
13425.0
 34
0.0
 50
90.0
100
AcDbRotatedDimension
  0
DIMENSION
  5
27D
330
17
100
AcDbEntity
  8
A-DIMS
100
AcDbDimension
280
0
  2
*D22
  3
JIS
 10
3750.0
 20
13425.0
 30
0.0
 11
3590.0
 21
16425.0
 31
0.0
 70
32
 71
5
  1
6,000
100
AcDbAlignedDimension
 13
3750.0
 23
13425.0
 33
0.0
 14
3750.0
 24
19425.0
 34
0.0
 50
90.0
100
AcDbRotatedDimension
  0
DIMENSION
  5
28C
330
17
100
AcDbEntity
  8
A-DIMS
100
AcDbDimension
280
0
  2
*D23
  3
JIS
 10
3750.0
 20
19425.0
 30
0.0
 11
3590.0
 21
22487.5
 31
0.0
 70
32
 71
5
  1
6,125
100
AcDbAlignedDimension
 13
3750.0
 23
19425.0
 33
0.0
 14
3750.0
 24
25550.0
 34
0.0
 50
90.0
100
AcDbRotatedDimension
  0
DIMENSION
  5
29B
330
17
100
AcDbEntity
  8
A-DIMS
100
AcDbDimension
280
0
  2
*D24
  3
JIS
 10
3200.0
 20
7055.0
 30
0.0
 11
3040.0
 21
16425.0
 31
0.0
 70
32
 71
5
  1
18,740
100
AcDbAlignedDimension
 13
3200.0
 23
7055.0
 33
0.0
 14
3200.0
 24
25795.0
 34
0.0
 50
90.0
100
AcDbRotatedDimension
  0
DIMENSION
  5
2AA
330
17
100
AcDbEntity
  8
A-DIMS
100
AcDbDimension
280
0
  2
*D25
  3
JIS
 10
5200.0
 20
26750.0
 30
0.0
 11
8262.5
 21
26910.0
 31
0.0
 70
32
 71
5
  1
6,125
100
AcDbAlignedDimension
 13
5200.0
 23
26750.0
 33
0.0
 14
11325.0
 24
26750.0
 34
0.0
 50
0.0
100
AcDbRotatedDimension
  0
DIMENSION
  5
2B9
330
17
100
AcDbEntity
  8
A-DIMS
100
AcDbDimension
280
0
  2
*D26
  3
JIS
 10
11325.0
 20
26750.0
 30
0.0
 11
14325.0
 21
26910.0
 31
0.0
 70
32
 71
5
  1
6,000
100
AcDbAlignedDimension
 13
11325.0
 23
26750.0
 33
0.0
 14
17325.0
 24
26750.0
 34
0.0
 50
0.0
100
AcDbRotatedDimension
  0
DIMENSION
  5
2C8
330
17
100
AcDbEntity
  8
A-DIMS
100
AcDbDimension
280
0
  2
*D27
  3
JIS
 10
17325.0
 20
26750.0
 30
0.0
 11
20387.5
 21
26910.0
 31
0.0
 70
32
 71
5
  1
6,125
100
AcDbAlignedDimension
 13
17325.0
 23
26750.0
 33
0.0
 14
23450.0
 24
26750.0
 34
0.0
 50
0.0
100
AcDbRotatedDimension
  0
DIMENSION
  5
2D7
330
17
100
AcDbEntity
  8
A-DIMS
100
AcDbDimension
280
0
  2
*D28
  3
JIS
 10
24650.0
 20
7300.0
 30
0.0
 11
24490.0
 21
10362.5
 31
0.0
 70
32
 71
5
  1
6,125
100
AcDbAlignedDimension
 13
24650.0
 23
7300.0
 33
0.0
 14
24650.0
 24
13425.0
 34
0.0
 50
90.0
100
AcDbRotatedDimension
  0
DIMENSION
  5
2E6
330
17
100
AcDbEntity
  8
A-DIMS
100
AcDbDimension
280
0
  2
*D29
  3
JIS
 10
24650.0
 20
13425.0
 30
0.0
 11
24490.0
 21
16425.0
 31
0.0
 70
32
 71
5
  1
6,000
100
AcDbAlignedDimension
 13
24650.0
 23
13425.0
 33
0.0
 14
24650.0
 24
19425.0
 34
0.0
 50
90.0
100
AcDbRotatedDimension
  0
DIMENSION
  5
2F5
330
17
100
AcDbEntity
  8
A-DIMS
100
AcDbDimension
280
0
  2
*D30
  3
JIS
 10
24650.0
 20
19425.0
 30
0.0
 11
24490.0
 21
22487.5
 31
0.0
 70
32
 71
5
  1
6,125
100
AcDbAlignedDimension
 13
24650.0
 23
19425.0
 33
0.0
 14
24650.0
 24
25550.0
 34
0.0
 50
90.0
100
AcDbRotatedDimension
  0
LWPOLYLINE
  5
304
330
17
100
AcDbEntity
  8
A-GLAZ
370
25
100
AcDbPolyline
 90
2
 70
0
 10
6100.0
 20
7300.0
 10
7100.0
 20
7300.0
  0
LWPOLYLINE
  5
305
330
17
100
AcDbEntity
  8
A-TEXT
100
AcDbPolyline
 90
4
 70
1
 10
6239.2
 20
7925.0
 10
6960.8
 20
7925.0
 10
6960.8
 20
8225.0
 10
6239.2
 20
8225.0
  0
TEXT
  5
306
330
17
100
AcDbEntity
  8
A-TEXT
100
AcDbText
 10
6600.0
 20
8075.0
 30
0.0
 40
180.0
  1
AW-9
  7
JP
 72
1
 11
6600.0
 21
8075.0
 31
0.0
100
AcDbText
 73
2
  0
LWPOLYLINE
  5
307
330
17
100
AcDbEntity
  8
A-GLAZ
370
25
100
AcDbPolyline
 90
2
 70
0
 10
9400.0
 20
7300.0
 10
10400.0
 20
7300.0
  0
LWPOLYLINE
  5
308
330
17
100
AcDbEntity
  8
A-TEXT
100
AcDbPolyline
 90
4
 70
1
 10
9539.2
 20
7925.0
 10
10260.8
 20
7925.0
 10
10260.8
 20
8225.0
 10
9539.2
 20
8225.0
  0
TEXT
  5
309
330
17
100
AcDbEntity
  8
A-TEXT
100
AcDbText
 10
9900.0
 20
8075.0
 30
0.0
 40
180.0
  1
AW-9
  7
JP
 72
1
 11
9900.0
 21
8075.0
 31
0.0
100
AcDbText
 73
2
  0
LWPOLYLINE
  5
30A
330
17
100
AcDbEntity
  8
A-GLAZ
370
25
100
AcDbPolyline
 90
2
 70
0
 10
12400.0
 20
7300.0
 10
14000.0
 20
7300.0
  0
LWPOLYLINE
  5
30B
330
17
100
AcDbEntity
  8
A-TEXT
100
AcDbPolyline
 90
4
 70
1
 10
12839.2
 20
7925.0
 10
13560.8
 20
7925.0
 10
13560.8
 20
8225.0
 10
12839.2
 20
8225.0
  0
TEXT
  5
30C
330
17
100
AcDbEntity
  8
A-TEXT
100
AcDbText
 10
13200.0
 20
8075.0
 30
0.0
 40
180.0
  1
AW-4
  7
JP
 72
1
 11
13200.0
 21
8075.0
 31
0.0
100
AcDbText
 73
2
  0
LWPOLYLINE
  5
30D
330
17
100
AcDbEntity
  8
A-GLAZ
370
25
100
AcDbPolyline
 90
2
 70
0
 10
19200.0
 20
25550.0
 10
20800.0
 20
25550.0
  0
LWPOLYLINE
  5
30E
330
17
100
AcDbEntity
  8
A-TEXT
100
AcDbPolyline
 90
4
 70
1
 10
19639.2
 20
24625.0
 10
20360.8
 20
24625.0
 10
20360.8
 20
24925.0
 10
19639.2
 20
24925.0
  0
TEXT
  5
30F
330
17
100
AcDbEntity
  8
A-TEXT
100
AcDbText
 10
20000.0
 20
24775.0
 30
0.0
 40
180.0
  1
AW-5
  7
JP
 72
1
 11
20000.0
 21
24775.0
 31
0.0
100
AcDbText
 73
2
  0
LWPOLYLINE
  5
310
330
17
100
AcDbEntity
  8
A-GLAZ
370
25
100
AcDbPolyline
 90
2
 70
0
 10
5200.0
 20
14500.0
 10
5200.0
 20
16100.0
  0
LWPOLYLINE
  5
311
330
17
100
AcDbEntity
  8
A-TEXT
100
AcDbPolyline
 90
4
 70
1
 10
5614.2
 20
15150.0
 10
6335.8
 20
15150.0
 10
6335.8
 20
15450.0
 10
5614.2
 20
15450.0
  0
TEXT
  5
312
330
17
100
AcDbEntity
  8
A-TEXT
100
AcDbText
 10
5975.0
 20
15300.0
 30
0.0
 40
180.0
  1
AW-6
  7
JP
 72
1
 11
5975.0
 21
15300.0
 31
0.0
100
AcDbText
 73
2
  0
LWPOLYLINE
  5
313
330
17
100
AcDbEntity
  8
A-GLAZ
370
25
100
AcDbPolyline
 90
2
 70
0
 10
5200.0
 20
17100.0
 10
5200.0
 20
18100.0
  0
LWPOLYLINE
  5
314
330
17
100
AcDbEntity
  8
A-TEXT
100
AcDbPolyline
 90
4
 70
1
 10
5544.0
 20
17450.0
 10
6406.0
 20
17450.0
 10
6406.0
 20
17750.0
 10
5544.0
 20
17750.0
  0
TEXT
  5
315
330
17
100
AcDbEntity
  8
A-TEXT
100
AcDbText
 10
5975.0
 20
17600.0
 30
0.0
 40
180.0
  1
AW-10
  7
JP
 72
1
 11
5975.0
 21
17600.0
 31
0.0
100
AcDbText
 73
2
  0
LWPOLYLINE
  5
316
330
17
100
AcDbEntity
  8
A-GLAZ
370
25
100
AcDbPolyline
 90
2
 70
0
 10
23450.0
 20
22800.0
 10
23450.0
 20
23800.0
  0
LWPOLYLINE
  5
317
330
17
100
AcDbEntity
  8
A-TEXT
100
AcDbPolyline
 90
4
 70
1
 10
22314.2
 20
23150.0
 10
23035.8
 20
23150.0
 10
23035.8
 20
23450.0
 10
22314.2
 20
23450.0
  0
TEXT
  5
318
330
17
100
AcDbEntity
  8
A-TEXT
100
AcDbText
 10
22675.0
 20
23300.0
 30
0.0
 40
180.0
  1
AW-8
  7
JP
 72
1
 11
22675.0
 21
23300.0
 31
0.0
100
AcDbText
 73
2
  0
LINE
  5
319
330
17
100
AcDbEntity
  8
A-DOOR
370
35
100
AcDbLine
 10
11200.0
 20
13700.0
 30
0.0
 11
10300.0
 21
13700.0
 31
0.0
  0
ARC
  5
31A
330
17
100
AcDbEntity
  8
A-DOOR
100
AcDbCircle
 10
11200.0
 20
13700.0
 30
0.0
 40
900.0
100
AcDbArc
 50
90.0
 51
180.0
  0
LWPOLYLINE
  5
31B
330
17
100
AcDbEntity
  8
A-TEXT
100
AcDbPolyline
 90
4
 70
1
 10
11739.2
 20
14000.0
 10
12460.8
 20
14000.0
 10
12460.8
 20
14300.0
 10
11739.2
 20
14300.0
  0
TEXT
  5
31C
330
17
100
AcDbEntity
  8
A-TEXT
100
AcDbText
 10
12100.0
 20
14150.0
 30
0.0
 40
180.0
  1
WD-4
  7
JP
 72
1
 11
12100.0
 21
14150.0
 31
0.0
100
AcDbText
 73
2
  0
LINE
  5
31D
330
17
100
AcDbEntity
  8
A-DOOR
370
35
100
AcDbLine
 10
11200.0
 20
12300.0
 30
0.0
 11
10300.0
 21
12300.0
 31
0.0
  0
ARC
  5
31E
330
17
100
AcDbEntity
  8
A-DOOR
100
AcDbCircle
 10
11200.0
 20
12300.0
 30
0.0
 40
900.0
100
AcDbArc
 50
90.0
 51
180.0
  0
LWPOLYLINE
  5
31F
330
17
100
AcDbEntity
  8
A-TEXT
100
AcDbPolyline
 90
4
 70
1
 10
11739.2
 20
12600.0
 10
12460.8
 20
12600.0
 10
12460.8
 20
12900.0
 10
11739.2
 20
12900.0
  0
TEXT
  5
320
330
17
100
AcDbEntity
  8
A-TEXT
100
AcDbText
 10
12100.0
 20
12750.0
 30
0.0
 40
180.0
  1
WD-4
  7
JP
 72
1
 11
12100.0
 21
12750.0
 31
0.0
100
AcDbText
 73
2
  0
LWPOLYLINE
  5
321
330
17
100
AcDbEntity
  8
A-DOOR
370
35
100
AcDbPolyline
 90
2
 70
0
 10
11490.0
 20
19800.0
 10
11490.0
 20
20800.0
  0
LINE
  5
322
330
17
100
AcDbEntity
  8
A-DOOR
100
AcDbLine
 10
11490.0
 20
19800.0
 30
0.0
 11
11200.0
 21
19800.0
 31
0.0
  0
LWPOLYLINE
  5
323
330
17
100
AcDbEntity
  8
A-TEXT
100
AcDbPolyline
 90
4
 70
1
 10
10189.2
 20
20100.0
 10
10910.8
 20
20100.0
 10
10910.8
 20
20400.0
 10
10189.2
 20
20400.0
  0
TEXT
  5
324
330
17
100
AcDbEntity
  8
A-TEXT
100
AcDbText
 10
10550.0
 20
20250.0
 30
0.0
 40
180.0
  1
WD-3
  7
JP
 72
1
 11
10550.0
 21
20250.0
 31
0.0
100
AcDbText
 73
2
  0
LINE
  5
325
330
17
100
AcDbEntity
  8
A-DOOR
370
35
100
AcDbLine
 10
17450.0
 20
13700.0
 30
0.0
 11
18350.0
 21
13700.0
 31
0.0
  0
ARC
  5
326
330
17
100
AcDbEntity
  8
A-DOOR
100
AcDbCircle
 10
17450.0
 20
13700.0
 30
0.0
 40
900.0
100
AcDbArc
 50
0.0
 51
90.0
  0
LWPOLYLINE
  5
327
330
17
100
AcDbEntity
  8
A-TEXT
100
AcDbPolyline
 90
4
 70
1
 10
16119.0
 20
14000.0
 10
16981.0
 20
14000.0
 10
16981.0
 20
14300.0
 10
16119.0
 20
14300.0
  0
TEXT
  5
328
330
17
100
AcDbEntity
  8
A-TEXT
100
AcDbText
 10
16550.0
 20
14150.0
 30
0.0
 40
180.0
  1
SSD-3
  7
JP
 72
1
 11
16550.0
 21
14150.0
 31
0.0
100
AcDbText
 73
2
  0
LINE
  5
329
330
17
100
AcDbEntity
  8
A-DOOR
370
35
100
AcDbLine
 10
17450.0
 20
21100.0
 30
0.0
 11
18250.0
 21
21100.0
 31
0.0
  0
ARC
  5
32A
330
17
100
AcDbEntity
  8
A-DOOR
100
AcDbCircle
 10
17450.0
 20
21100.0
 30
0.0
 40
800.0
100
AcDbArc
 50
270.0
 51
0.0
  0
LWPOLYLINE
  5
32B
330
17
100
AcDbEntity
  8
A-TEXT
100
AcDbPolyline
 90
4
 70
1
 10
16189.2
 20
20550.0
 10
16910.8
 20
20550.0
 10
16910.8
 20
20850.0
 10
16189.2
 20
20850.0
  0
TEXT
  5
32C
330
17
100
AcDbEntity
  8
A-TEXT
100
AcDbText
 10
16550.0
 20
20700.0
 30
0.0
 40
180.0
  1
WD-5
  7
JP
 72
1
 11
16550.0
 21
20700.0
 31
0.0
100
AcDbText
 73
2
  0
LINE
  5
32D
330
17
100
AcDbEntity
  8
A-DOOR
370
35
100
AcDbLine
 10
13700.0
 20
13550.0
 30
0.0
 11
13700.0
 21
14550.0
 31
0.0
  0
ARC
  5
32E
330
17
100
AcDbEntity
  8
A-DOOR
100
AcDbCircle
 10
13700.0
 20
13550.0
 30
0.0
 40
1000.0
100
AcDbArc
 50
0.0
 51
90.0
  0
LWPOLYLINE
  5
32F
330
17
100
AcDbEntity
  8
A-TEXT
100
AcDbPolyline
 90
4
 70
1
 10
13839.2
 20
12500.0
 10
14560.8
 20
12500.0
 10
14560.8
 20
12800.0
 10
13839.2
 20
12800.0
  0
TEXT
  5
330
330
17
100
AcDbEntity
  8
A-TEXT
100
AcDbText
 10
14200.0
 20
12650.0
 30
0.0
 40
180.0
  1
WD-2
  7
JP
 72
1
 11
14200.0
 21
12650.0
 31
0.0
100
AcDbText
 73
2
  0
LINE
  5
331
330
17
100
AcDbEntity
  8
A-DOOR
370
35
100
AcDbLine
 10
6200.0
 20
13300.0
 30
0.0
 11
6200.0
 21
12500.0
 31
0.0
  0
ARC
  5
332
330
17
100
AcDbEntity
  8
A-DOOR
100
AcDbCircle
 10
6200.0
 20
13300.0
 30
0.0
 40
800.0
100
AcDbArc
 50
270.0
 51
0.0
  0
LWPOLYLINE
  5
333
330
17
100
AcDbEntity
  8
A-TEXT
100
AcDbPolyline
 90
4
 70
1
 10
6239.2
 20
14050.0
 10
6960.8
 20
14050.0
 10
6960.8
 20
14350.0
 10
6239.2
 20
14350.0
  0
TEXT
  5
334
330
17
100
AcDbEntity
  8
A-TEXT
100
AcDbText
 10
6600.0
 20
14200.0
 30
0.0
 40
180.0
  1
WD-5
  7
JP
 72
1
 11
6600.0
 21
14200.0
 31
0.0
100
AcDbText
 73
2
  0
LINE
  5
335
330
17
100
AcDbEntity
  8
A-DOOR
370
35
100
AcDbLine
 10
19200.0
 20
13550.0
 30
0.0
 11
19200.0
 21
14350.0
 31
0.0
  0
ARC
  5
336
330
17
100
AcDbEntity
  8
A-DOOR
100
AcDbCircle
 10
19200.0
 20
13550.0
 30
0.0
 40
800.0
100
AcDbArc
 50
0.0
 51
90.0
  0
LINE
  5
337
330
17
100
AcDbEntity
  8
A-DOOR
370
35
100
AcDbLine
 10
20800.0
 20
13550.0
 30
0.0
 11
20800.0
 21
14350.0
 31
0.0
  0
ARC
  5
338
330
17
100
AcDbEntity
  8
A-DOOR
100
AcDbCircle
 10
20800.0
 20
13550.0
 30
0.0
 40
800.0
100
AcDbArc
 50
90.0
 51
180.0
  0
LWPOLYLINE
  5
339
330
17
100
AcDbEntity
  8
A-TEXT
100
AcDbPolyline
 90
4
 70
1
 10
19569.0
 20
12500.0
 10
20431.0
 20
12500.0
 10
20431.0
 20
12800.0
 10
19569.0
 20
12800.0
  0
TEXT
  5
33A
330
17
100
AcDbEntity
  8
A-TEXT
100
AcDbText
 10
20000.0
 20
12650.0
 30
0.0
 40
180.0
  1
SSD-1
  7
JP
 72
1
 11
20000.0
 21
12650.0
 31
0.0
100
AcDbText
 73
2
  0
LINE
  5
33B
330
17
100
AcDbEntity
  8
A-DOOR
370
35
100
AcDbLine
 10
9700.0
 20
19550.0
 30
0.0
 11
9700.0
 21
20350.0
 31
0.0
  0
ARC
  5
33C
330
17
100
AcDbEntity
  8
A-DOOR
100
AcDbCircle
 10
9700.0
 20
19550.0
 30
0.0
 40
800.0
100
AcDbArc
 50
0.0
 51
90.0
  0
LWPOLYLINE
  5
33D
330
17
100
AcDbEntity
  8
A-TEXT
100
AcDbPolyline
 90
4
 70
1
 10
9739.2
 20
18500.0
 10
10460.8
 20
18500.0
 10
10460.8
 20
18800.0
 10
9739.2
 20
18800.0
  0
TEXT
  5
33E
330
17
100
AcDbEntity
  8
A-TEXT
100
AcDbText
 10
10100.0
 20
18650.0
 30
0.0
 40
180.0
  1
WD-5
  7
JP
 72
1
 11
10100.0
 21
18650.0
 31
0.0
100
AcDbText
 73
2
  0
LINE
  5
33F
330
17
100
AcDbEntity
  8
A-DOOR
370
35
100
AcDbLine
 10
21700.0
 20
19300.0
 30
0.0
 11
21700.0
 21
18500.0
 31
0.0
  0
ARC
  5
340
330
17
100
AcDbEntity
  8
A-DOOR
100
AcDbCircle
 10
21700.0
 20
19300.0
 30
0.0
 40
800.0
100
AcDbArc
 50
270.0
 51
0.0
  0
LWPOLYLINE
  5
341
330
17
100
AcDbEntity
  8
A-TEXT
100
AcDbPolyline
 90
4
 70
1
 10
21739.2
 20
20050.0
 10
22460.8
 20
20050.0
 10
22460.8
 20
20350.0
 10
21739.2
 20
20350.0
  0
TEXT
  5
342
330
17
100
AcDbEntity
  8
A-TEXT
100
AcDbText
 10
22100.0
 20
20200.0
 30
0.0
 40
180.0
  1
WD-5
  7
JP
 72
1
 11
22100.0
 21
20200.0
 31
0.0
100
AcDbText
 73
2
  0
LINE
  5
343
330
17
100
AcDbEntity
  8
A-DOOR
370
35
100
AcDbLine
 10
6200.0
 20
12100.0
 30
0.0
 11
6200.0
 21
11300.0
 31
0.0
  0
ARC
  5
344
330
17
100
AcDbEntity
  8
A-DOOR
100
AcDbCircle
 10
6200.0
 20
12100.0
 30
0.0
 40
800.0
100
AcDbArc
 50
270.0
 51
0.0
  0
LWPOLYLINE
  5
345
330
17
100
AcDbEntity
  8
A-TEXT
100
AcDbPolyline
 90
4
 70
1
 10
6239.2
 20
12700.0
 10
6960.8
 20
12700.0
 10
6960.8
 20
13000.0
 10
6239.2
 20
13000.0
  0
TEXT
  5
346
330
17
100
AcDbEntity
  8
A-TEXT
100
AcDbText
 10
6600.0
 20
12850.0
 30
0.0
 40
180.0
  1
WD-5
  7
JP
 72
1
 11
6600.0
 21
12850.0
 31
0.0
100
AcDbText
 73
2
  0
LINE
  5
347
330
17
100
AcDbEntity
  8
A-DOOR
370
35
100
AcDbLine
 10
9400.0
 20
12100.0
 30
0.0
 11
9400.0
 21
11300.0
 31
0.0
  0
ARC
  5
348
330
17
100
AcDbEntity
  8
A-DOOR
100
AcDbCircle
 10
9400.0
 20
12100.0
 30
0.0
 40
800.0
100
AcDbArc
 50
270.0
 51
0.0
  0
LWPOLYLINE
  5
349
330
17
100
AcDbEntity
  8
A-TEXT
100
AcDbPolyline
 90
4
 70
1
 10
9439.2
 20
12700.0
 10
10160.8
 20
12700.0
 10
10160.8
 20
13000.0
 10
9439.2
 20
13000.0
  0
TEXT
  5
34A
330
17
100
AcDbEntity
  8
A-TEXT
100
AcDbText
 10
9800.0
 20
12850.0
 30
0.0
 40
180.0
  1
WD-5
  7
JP
 72
1
 11
9800.0
 21
12850.0
 31
0.0
100
AcDbText
 73
2
  0
LINE
  5
34B
330
17
100
AcDbEntity
  8
A-DOOR
370
35
100
AcDbLine
 10
12200.0
 20
12100.0
 30
0.0
 11
12200.0
 21
11300.0
 31
0.0
  0
ARC
  5
34C
330
17
100
AcDbEntity
  8
A-DOOR
100
AcDbCircle
 10
12200.0
 20
12100.0
 30
0.0
 40
800.0
100
AcDbArc
 50
270.0
 51
0.0
  0
LWPOLYLINE
  5
34D
330
17
100
AcDbEntity
  8
A-TEXT
100
AcDbPolyline
 90
4
 70
1
 10
12239.2
 20
12700.0
 10
12960.8
 20
12700.0
 10
12960.8
 20
13000.0
 10
12239.2
 20
13000.0
  0
TEXT
  5
34E
330
17
100
AcDbEntity
  8
A-TEXT
100
AcDbText
 10
12600.0
 20
12850.0
 30
0.0
 40
180.0
  1
WD-5
  7
JP
 72
1
 11
12600.0
 21
12850.0
 31
0.0
100
AcDbText
 73
2
  0
LWPOLYLINE
  5
34F
330
17
100
AcDbEntity
  8
A-DOOR
370
35
100
AcDbPolyline
 90
2
 70
0
 10
15240.0
 20
11100.0
 10
15240.0
 20
12000.0
  0
LINE
  5
350
330
17
100
AcDbEntity
  8
A-DOOR
100
AcDbLine
 10
15240.0
 20
11100.0
 30
0.0
 11
15100.0
 21
11100.0
 31
0.0
  0
LWPOLYLINE
  5
351
330
17
100
AcDbEntity
  8
A-TEXT
100
AcDbPolyline
 90
4
 70
1
 10
14089.2
 20
11350.0
 10
14810.8
 20
11350.0
 10
14810.8
 20
11650.0
 10
14089.2
 20
11650.0
  0
TEXT
  5
352
330
17
100
AcDbEntity
  8
A-TEXT
100
AcDbText
 10
14450.0
 20
11500.0
 30
0.0
 40
180.0
  1
WD-6
  7
JP
 72
1
 11
14450.0
 21
11500.0
 31
0.0
100
AcDbText
 73
2
  0
LINE
  5
353
330
17
100
AcDbEntity
  8
A-DOOR
370
35
100
AcDbLine
 10
14400.0
 20
17200.0
 30
0.0
 11
14400.0
 21
18000.0
 31
0.0
  0
ARC
  5
354
330
17
100
AcDbEntity
  8
A-DOOR
100
AcDbCircle
 10
14400.0
 20
17200.0
 30
0.0
 40
800.0
100
AcDbArc
 50
0.0
 51
90.0
  0
LWPOLYLINE
  5
355
330
17
100
AcDbEntity
  8
A-TEXT
100
AcDbPolyline
 90
4
 70
1
 10
14439.2
 20
16300.0
 10
15160.8
 20
16300.0
 10
15160.8
 20
16600.0
 10
14439.2
 20
16600.0
  0
TEXT
  5
356
330
17
100
AcDbEntity
  8
A-TEXT
100
AcDbText
 10
14800.0
 20
16450.0
 30
0.0
 40
180.0
  1
WD-5
  7
JP
 72
1
 11
14800.0
 21
16450.0
 31
0.0
100
AcDbText
 73
2
  0
LWPOLYLINE
  5
357
330
17
100
AcDbEntity
  8
A-DOOR
370
35
100
AcDbPolyline
 90
2
 70
0
 10
9240.0
 20
20300.0
 10
9240.0
 20
21200.0
  0
LINE
  5
358
330
17
100
AcDbEntity
  8
A-DOOR
100
AcDbLine
 10
9240.0
 20
20300.0
 30
0.0
 11
9100.0
 21
20300.0
 31
0.0
  0
LWPOLYLINE
  5
359
330
17
100
AcDbEntity
  8
A-TEXT
100
AcDbPolyline
 90
4
 70
1
 10
8089.2
 20
20550.0
 10
8810.8
 20
20550.0
 10
8810.8
 20
20850.0
 10
8089.2
 20
20850.0
  0
TEXT
  5
35A
330
17
100
AcDbEntity
  8
A-TEXT
100
AcDbText
 10
8450.0
 20
20700.0
 30
0.0
 40
180.0
  1
WD-6
  7
JP
 72
1
 11
8450.0
 21
20700.0
 31
0.0
100
AcDbText
 73
2
  0
LWPOLYLINE
  5
35B
330
17
100
AcDbEntity
  8
A-DOOR
370
35
100
AcDbPolyline
 90
2
 70
0
 10
14840.0
 20
19800.0
 10
14840.0
 20
20700.0
  0
LINE
  5
35C
330
17
100
AcDbEntity
  8
A-DOOR
100
AcDbLine
 10
14840.0
 20
19800.0
 30
0.0
 11
14700.0
 21
19800.0
 31
0.0
  0
LWPOLYLINE
  5
35D
330
17
100
AcDbEntity
  8
A-TEXT
100
AcDbPolyline
 90
4
 70
1
 10
13689.2
 20
20050.0
 10
14410.8
 20
20050.0
 10
14410.8
 20
20350.0
 10
13689.2
 20
20350.0
  0
TEXT
  5
35E
330
17
100
AcDbEntity
  8
A-TEXT
100
AcDbText
 10
14050.0
 20
20200.0
 30
0.0
 40
180.0
  1
WD-6
  7
JP
 72
1
 11
14050.0
 21
20200.0
 31
0.0
100
AcDbText
 73
2
  0
LWPOLYLINE
  5
35F
330
17
100
AcDbEntity
  8
A-DOOR
370
35
100
AcDbPolyline
 90
2
 70
0
 10
12200.0
 20
22240.0
 10
13100.0
 20
22240.0
  0
LINE
  5
360
330
17
100
AcDbEntity
  8
A-DOOR
100
AcDbLine
 10
12200.0
 20
22240.0
 30
0.0
 11
12200.0
 21
22100.0
 31
0.0
  0
LWPOLYLINE
  5
361
330
17
100
AcDbEntity
  8
A-TEXT
100
AcDbPolyline
 90
4
 70
1
 10
12239.2
 20
21300.0
 10
12960.8
 20
21300.0
 10
12960.8
 20
21600.0
 10
12239.2
 20
21600.0
  0
TEXT
  5
362
330
17
100
AcDbEntity
  8
A-TEXT
100
AcDbText
 10
12600.0
 20
21450.0
 30
0.0
 40
180.0
  1
WD-6
  7
JP
 72
1
 11
12600.0
 21
21450.0
 31
0.0
100
AcDbText
 73
2
  0
LINE
  5
363
330
17
100
AcDbEntity
  8
A-DOOR
370
35
100
AcDbLine
 10
15500.0
 20
22900.0
 30
0.0
 11
15500.0
 21
23700.0
 31
0.0
  0
ARC
  5
364
330
17
100
AcDbEntity
  8
A-DOOR
100
AcDbCircle
 10
15500.0
 20
22900.0
 30
0.0
 40
800.0
100
AcDbArc
 50
0.0
 51
90.0
  0
LWPOLYLINE
  5
365
330
17
100
AcDbEntity
  8
A-TEXT
100
AcDbPolyline
 90
4
 70
1
 10
15539.2
 20
22000.0
 10
16260.8
 20
22000.0
 10
16260.8
 20
22300.0
 10
15539.2
 20
22300.0
  0
TEXT
  5
366
330
17
100
AcDbEntity
  8
A-TEXT
100
AcDbText
 10
15900.0
 20
22150.0
 30
0.0
 40
180.0
  1
WD-5
  7
JP
 72
1
 11
15900.0
 21
22150.0
 31
0.0
100
AcDbText
 73
2
  0
CIRCLE
  5
367
330
17
100
AcDbEntity
  8
A-STRS
100
AcDbCircle
 10
13275.0
 20
15950.0
 30
0.0
 40
50.0
  0
LWPOLYLINE
  5
368
330
17
100
AcDbEntity
  8
A-STRS
100
AcDbPolyline
 90
2
 70
0
 10
13275.0
 20
15950.0
 10
13275.0
 20
17680.0
  0
LWPOLYLINE
  5
369
330
17
100
AcDbEntity
  8
A-STRS
100
AcDbPolyline
 90
3
 70
0
 10
13155.0
 20
17430.0
 10
13275.0
 20
17680.0
 10
13395.0
 20
17430.0
  0
TEXT
  5
36A
330
17
100
AcDbEntity
  8
A-STRS
100
AcDbText
 10
13155.0
 20
16200.0
 30
0.0
 40
180.0
  1
DN
  7
JP
 72
2
 11
13155.0
 21
16200.0
 31
0.0
100
AcDbText
 73
2
  0
CIRCLE
  5
36B
330
17
100
AcDbEntity
  8
A-STRS
100
AcDbCircle
 10
10725.0
 20
22550.0
 30
0.0
 40
50.0
  0
LWPOLYLINE
  5
36C
330
17
100
AcDbEntity
  8
A-STRS
100
AcDbPolyline
 90
2
 70
0
 10
10725.0
 20
22550.0
 10
10725.0
 20
24120.0
  0
LWPOLYLINE
  5
36D
330
17
100
AcDbEntity
  8
A-STRS
100
AcDbPolyline
 90
3
 70
0
 10
10605.0
 20
23870.0
 10
10725.0
 20
24120.0
 10
10845.0
 20
23870.0
  0
TEXT
  5
36E
330
17
100
AcDbEntity
  8
A-STRS
100
AcDbText
 10
10605.0
 20
22800.0
 30
0.0
 40
180.0
  1
DN
  7
JP
 72
2
 11
10605.0
 21
22800.0
 31
0.0
100
AcDbText
 73
2
  0
TEXT
  5
36F
330
17
100
AcDbEntity
  8
A-ROOM
100
AcDbText
 10
6662.5
 20
9912.5
 30
0.0
 40
260.0
  1
居室B
  7
JP
 72
1
 11
6662.5
 21
9912.5
 31
0.0
100
AcDbText
 73
2
  0
TEXT
  5
370
330
17
100
AcDbEntity
  8
A-ROOM
100
AcDbText
 10
6662.5
 20
9477.5
 30
0.0
 40
160.0
  1
12.5m²（7.7畳）
  7
JP
 72
1
 11
6662.5
 21
9477.5
 31
0.0
100
AcDbText
 73
2
  0
TEXT
  5
371
330
17
100
AcDbEntity
  8
A-ROOM
100
AcDbText
 10
8325.0
 20
9912.5
 30
0.0
 40
200.0
  1
収納
  7
JP
 72
1
 11
8325.0
 21
9912.5
 31
0.0
100
AcDbText
 73
2
  0
TEXT
  5
372
330
17
100
AcDbEntity
  8
A-ROOM
100
AcDbText
 10
8325.0
 20
9522.5
 30
0.0
 40
160.0
  1
2.6m²
  7
JP
 72
1
 11
8325.0
 21
9522.5
 31
0.0
100
AcDbText
 73
2
  0
TEXT
  5
373
330
17
100
AcDbEntity
  8
A-ROOM
100
AcDbText
 10
9925.0
 20
9912.5
 30
0.0
 40
260.0
  1
居室C
  7
JP
 72
1
 11
9925.0
 21
9912.5
 31
0.0
100
AcDbText
 73
2
  0
TEXT
  5
374
330
17
100
AcDbEntity
  8
A-ROOM
100
AcDbText
 10
9925.0
 20
9477.5
 30
0.0
 40
160.0
  1
11.9m²（7.4畳）
  7
JP
 72
1
 11
9925.0
 21
9477.5
 31
0.0
100
AcDbText
 73
2
  0
TEXT
  5
375
330
17
100
AcDbEntity
  8
A-ROOM
100
AcDbText
 10
8262.5
 20
12900.0
 30
0.0
 40
200.0
  1
廊下
  7
JP
 72
1
 11
8262.5
 21
12900.0
 31
0.0
100
AcDbText
 73
2
  0
TEXT
  5
376
330
17
100
AcDbEntity
  8
A-ROOM
100
AcDbText
 10
8262.5
 20
12510.0
 30
0.0
 40
160.0
  1
6.5m²
  7
JP
 72
1
 11
8262.5
 21
12510.0
 31
0.0
100
AcDbText
 73
2
  0
TEXT
  5
377
330
17
100
AcDbEntity
  8
A-ROOM
100
AcDbText
 10
13275.0
 20
9912.5
 30
0.0
 40
260.0
  1
居室D
  7
JP
 72
1
 11
13275.0
 21
9912.5
 31
0.0
100
AcDbText
 73
2
  0
TEXT
  5
378
330
17
100
AcDbEntity
  8
A-ROOM
100
AcDbText
 10
13275.0
 20
9477.5
 30
0.0
 40
160.0
  1
17.1m²（10.5畳）
  7
JP
 72
1
 11
13275.0
 21
9477.5
 31
0.0
100
AcDbText
 73
2
  0
TEXT
  5
379
330
17
100
AcDbEntity
  8
A-ROOM
100
AcDbText
 10
16200.0
 20
9912.5
 30
0.0
 40
260.0
  1
WIC
  7
JP
 72
1
 11
16200.0
 21
9912.5
 31
0.0
100
AcDbText
 73
2
  0
TEXT
  5
37A
330
17
100
AcDbEntity
  8
A-ROOM
100
AcDbText
 10
16200.0
 20
9477.5
 30
0.0
 40
160.0
  1
9.3m²
  7
JP
 72
1
 11
16200.0
 21
9477.5
 31
0.0
100
AcDbText
 73
2
  0
TEXT
  5
37B
330
17
100
AcDbEntity
  8
A-ROOM
100
AcDbText
 10
14325.0
 20
12900.0
 30
0.0
 40
200.0
  1
廊下
  7
JP
 72
1
 11
14325.0
 21
12900.0
 31
0.0
100
AcDbText
 73
2
  0
TEXT
  5
37C
330
17
100
AcDbEntity
  8
A-ROOM
100
AcDbText
 10
14325.0
 20
12510.0
 30
0.0
 40
160.0
  1
6.3m²
  7
JP
 72
1
 11
14325.0
 21
12510.0
 31
0.0
100
AcDbText
 73
2
  0
TEXT
  5
37D
330
17
100
AcDbEntity
  8
A-ROOM
100
AcDbText
 10
20400.0
 20
10450.0
 30
0.0
 40
260.0
  1
シアター
  7
JP
 72
1
 11
20400.0
 21
10450.0
 31
0.0
100
AcDbText
 73
2
  0
TEXT
  5
37E
330
17
100
AcDbEntity
  8
A-ROOM
100
AcDbText
 10
20400.0
 20
10015.0
 30
0.0
 40
160.0
  1
34.5m²（21.3畳）
  7
JP
 72
1
 11
20400.0
 21
10015.0
 31
0.0
100
AcDbText
 73
2
  0
TEXT
  5
37F
330
17
100
AcDbEntity
  8
A-ROOM
100
AcDbText
 10
20387.5
 20
14625.0
 30
0.0
 40
260.0
  1
前室（音響ロック）
  7
JP
 72
1
 11
20387.5
 21
14625.0
 31
0.0
100
AcDbText
 73
2
  0
TEXT
  5
380
330
17
100
AcDbEntity
  8
A-ROOM
100
AcDbText
 10
20387.5
 20
14190.0
 30
0.0
 40
160.0
  1
10.9m²
  7
JP
 72
1
 11
20387.5
 21
14190.0
 31
0.0
100
AcDbText
 73
2
  0
TEXT
  5
381
330
17
100
AcDbEntity
  8
A-ROOM
100
AcDbText
 10
20387.5
 20
17550.0
 30
0.0
 40
260.0
  1
WIC（主寝室）
  7
JP
 72
1
 11
20387.5
 21
17550.0
 31
0.0
100
AcDbText
 73
2
  0
TEXT
  5
382
330
17
100
AcDbEntity
  8
A-ROOM
100
AcDbText
 10
20387.5
 20
17115.0
 30
0.0
 40
160.0
  1
22.3m²（13.8畳）
  7
JP
 72
1
 11
20387.5
 21
17115.0
 31
0.0
100
AcDbText
 73
2
  0
TEXT
  5
383
330
17
100
AcDbEntity
  8
A-ROOM
100
AcDbText
 10
8262.5
 20
16575.0
 30
0.0
 40
260.0
  1
図書室
  7
JP
 72
1
 11
8262.5
 21
16575.0
 31
0.0
100
AcDbText
 73
2
  0
TEXT
  5
384
330
17
100
AcDbEntity
  8
A-ROOM
100
AcDbText
 10
8262.5
 20
16140.0
 30
0.0
 40
160.0
  1
33.8m²（20.9畳）
  7
JP
 72
1
 11
8262.5
 21
16140.0
 31
0.0
100
AcDbText
 73
2
  0
TEXT
  5
385
330
17
100
AcDbEntity
  8
A-ROOM
100
AcDbText
 10
15200.0
 20
15050.0
 30
0.0
 40
260.0
  1
ホール・階段1
  7
JP
 72
1
 11
15200.0
 21
15050.0
 31
0.0
100
AcDbText
 73
2
  0
TEXT
  5
386
330
17
100
AcDbEntity
  8
A-ROOM
100
AcDbText
 10
15200.0
 20
14615.0
 30
0.0
 40
160.0
  1
20.4m²（12.6畳）
  7
JP
 72
1
 11
15200.0
 21
14615.0
 31
0.0
100
AcDbText
 73
2
  0
TEXT
  5
387
330
17
100
AcDbEntity
  8
A-ROOM
100
AcDbText
 10
14875.0
 20
18400.0
 30
0.0
 40
260.0
  1
トイレ（手洗い付）
  7
JP
 72
1
 11
14875.0
 21
18400.0
 31
0.0
100
AcDbText
 73
2
  0
TEXT
  5
388
330
17
100
AcDbEntity
  8
A-ROOM
100
AcDbText
 10
14875.0
 20
17965.0
 30
0.0
 40
160.0
  1
3.9m²
  7
JP
 72
1
 11
14875.0
 21
17965.0
 31
0.0
100
AcDbText
 73
2
  0
TEXT
  5
389
330
17
100
AcDbEntity
  8
A-ROOM
100
AcDbText
 10
7212.5
 20
22637.5
 30
0.0
 40
260.0
  1
ファミリークローゼット
  7
JP
 72
1
 11
7212.5
 21
22637.5
 31
0.0
100
AcDbText
 73
2
  0
TEXT
  5
38A
330
17
100
AcDbEntity
  8
A-ROOM
100
AcDbText
 10
7212.5
 20
22202.5
 30
0.0
 40
160.0
  1
22.2m²（13.7畳）
  7
JP
 72
1
 11
7212.5
 21
22202.5
 31
0.0
100
AcDbText
 73
2
  0
TEXT
  5
38B
330
17
100
AcDbEntity
  8
A-ROOM
100
AcDbText
 10
10200.0
 20
21075.0
 30
0.0
 40
260.0
  1
ホール・階段2
  7
JP
 72
1
 11
10200.0
 21
21075.0
 31
0.0
100
AcDbText
 73
2
  0
TEXT
  5
38C
330
17
100
AcDbEntity
  8
A-ROOM
100
AcDbText
 10
10200.0
 20
20640.0
 30
0.0
 40
160.0
  1
5.5m²
  7
JP
 72
1
 11
10200.0
 21
20640.0
 31
0.0
100
AcDbText
 73
2
  0
TEXT
  5
38D
330
17
100
AcDbEntity
  8
A-ROOM
100
AcDbText
 10
13075.0
 20
20975.0
 30
0.0
 40
260.0
  1
洗面・脱衣
  7
JP
 72
1
 11
13075.0
 21
20975.0
 31
0.0
100
AcDbText
 73
2
  0
TEXT
  5
38E
330
17
100
AcDbEntity
  8
A-ROOM
100
AcDbText
 10
13075.0
 20
20540.0
 30
0.0
 40
160.0
  1
8.3m²
  7
JP
 72
1
 11
13075.0
 21
20540.0
 31
0.0
100
AcDbText
 73
2
  0
TEXT
  5
38F
330
17
100
AcDbEntity
  8
A-ROOM
100
AcDbText
 10
13075.0
 20
23962.5
 30
0.0
 40
260.0
  1
シャワー
  7
JP
 72
1
 11
13075.0
 21
23962.5
 31
0.0
100
AcDbText
 73
2
  0
TEXT
  5
390
330
17
100
AcDbEntity
  8
A-ROOM
100
AcDbText
 10
13075.0
 20
23527.5
 30
0.0
 40
160.0
  1
10.5m²
  7
JP
 72
1
 11
13075.0
 21
23527.5
 31
0.0
100
AcDbText
 73
2
  0
TEXT
  5
391
330
17
100
AcDbEntity
  8
A-ROOM
100
AcDbText
 10
16000.0
 20
21325.0
 30
0.0
 40
260.0
  1
廊下
  7
JP
 72
1
 11
16000.0
 21
21325.0
 31
0.0
100
AcDbText
 73
2
  0
TEXT
  5
392
330
17
100
AcDbEntity
  8
A-ROOM
100
AcDbText
 10
16000.0
 20
20890.0
 30
0.0
 40
160.0
  1
7.8m²
  7
JP
 72
1
 11
16000.0
 21
20890.0
 31
0.0
100
AcDbText
 73
2
  0
TEXT
  5
393
330
17
100
AcDbEntity
  8
A-ROOM
100
AcDbText
 10
16000.0
 20
24312.5
 30
0.0
 40
260.0
  1
トイレ
  7
JP
 72
1
 11
16000.0
 21
24312.5
 31
0.0
100
AcDbText
 73
2
  0
TEXT
  5
394
330
17
100
AcDbEntity
  8
A-ROOM
100
AcDbText
 10
16000.0
 20
23877.5
 30
0.0
 40
160.0
  1
6.1m²
  7
JP
 72
1
 11
16000.0
 21
23877.5
 31
0.0
100
AcDbText
 73
2
  0
TEXT
  5
395
330
17
100
AcDbEntity
  8
A-ROOM
100
AcDbText
 10
20387.5
 20
22637.5
 30
0.0
 40
260.0
  1
主寝室
  7
JP
 72
1
 11
20387.5
 21
22637.5
 31
0.0
100
AcDbText
 73
2
  0
TEXT
  5
396
330
17
100
AcDbEntity
  8
A-ROOM
100
AcDbText
 10
20387.5
 20
22202.5
 30
0.0
 40
160.0
  1
34.5m²（21.3畳）
  7
JP
 72
1
 11
20387.5
 21
22202.5
 31
0.0
100
AcDbText
 73
2
  0
LWPOLYLINE
  5
397
330
17
100
AcDbEntity
  8
A-FLOW
100
AcDbPolyline
 90
6
 70
0
 10
14700.0
 20
14300.0
 10
8200.0
 20
14900.0
 10
6600.0
 20
12750.0
 10
14200.0
 20
12750.0
 10
14200.0
 20
14300.0
 10
14700.0
 20
14300.0
  0
LINE
  5
398
330
17
100
AcDbEntity
  8
A-FLOW
100
AcDbLine
 10
11450.0
 20
14600.0
 30
0.0
 11
11759.51688167642
 21
14763.399204273783
 31
0.0
  0
LINE
  5
399
330
17
100
AcDbEntity
  8
A-FLOW
100
AcDbLine
 10
11450.0
 20
14600.0
 30
0.0
 11
11724.375695378778
 21
14382.703019382661
 31
0.0
  0
LINE
  5
39A
330
17
100
AcDbEntity
  8
A-FLOW
100
AcDbLine
 10
7400.0
 20
13825.0
 30
0.0
 11
7421.6833073480275
 21
14174.327688828771
 31
0.0
  0
LINE
  5
39B
330
17
100
AcDbEntity
  8
A-FLOW
100
AcDbLine
 10
7400.0
 20
13825.0
 30
0.0
 11
7728.388816949062
 21
13946.081728195444
 31
0.0
  0
LINE
  5
39C
330
17
100
AcDbEntity
  8
A-FLOW
100
AcDbLine
 10
10400.0
 20
12750.0
 30
0.0
 11
10106.812554909433
 21
12558.84267724917
 31
0.0
  0
LINE
  5
39D
330
17
100
AcDbEntity
  8
A-FLOW
100
AcDbLine
 10
10400.0
 20
12750.0
 30
0.0
 11
10106.812554909433
 21
12941.15732275083
 31
0.0
  0
LINE
  5
39E
330
17
100
AcDbEntity
  8
A-FLOW
100
AcDbLine
 10
14200.0
 20
13525.0
 30
0.0
 11
14391.15732275083
 21
13231.812554909433
 31
0.0
  0
LINE
  5
39F
330
17
100
AcDbEntity
  8
A-FLOW
100
AcDbLine
 10
14200.0
 20
13525.0
 30
0.0
 11
14008.84267724917
 21
13231.812554909433
 31
0.0
  0
LINE
  5
3A0
330
17
100
AcDbEntity
  8
A-FLOW
100
AcDbLine
 10
14450.0
 20
14300.0
 30
0.0
 11
14156.812554909433
 21
14108.84267724917
 31
0.0
  0
LINE
  5
3A1
330
17
100
AcDbEntity
  8
A-FLOW
100
AcDbLine
 10
14450.0
 20
14300.0
 30
0.0
 11
14156.812554909433
 21
14491.15732275083
 31
0.0
  0
TEXT
  5
3A2
330
17
100
AcDbEntity
  8
A-FLOW
100
AcDbText
 10
14850.0
 20
14550.0
 30
0.0
 40
170.0
  1
回遊③
  7
JP
 11
14850.0
 21
14550.0
 31
0.0
100
AcDbText
  0
LWPOLYLINE
  5
3A3
330
17
100
AcDbEntity
  8
A-FLOW
100
AcDbPolyline
 90
7
 70
0
 10
16550.0
 20
16300.0
 10
16550.0
 20
20200.0
 10
12800.0
 20
20250.0
 10
10200.0
 20
20800.0
 10
10100.0
 20
17300.0
 10
12400.0
 20
14300.0
 10
16550.0
 20
16300.0
  0
LINE
  5
3A4
330
17
100
AcDbEntity
  8
A-FLOW
100
AcDbLine
 10
16550.0
 20
18250.0
 30
0.0
 11
16741.15732275083
 21
17956.812554909433
 31
0.0
  0
LINE
  5
3A5
330
17
100
AcDbEntity
  8
A-FLOW
100
AcDbLine
 10
16550.0
 20
18250.0
 30
0.0
 11
16358.84267724917
 21
17956.812554909433
 31
0.0
  0
LINE
  5
3A6
330
17
100
AcDbEntity
  8
A-FLOW
100
AcDbLine
 10
14675.0
 20
20225.0
 30
0.0
 11
14970.709925235358
 21
20412.231514754592
 31
0.0
  0
LINE
  5
3A7
330
17
100
AcDbEntity
  8
A-FLOW
100
AcDbLine
 10
14675.0
 20
20225.0
 30
0.0
 11
14965.612849681916
 21
20029.95084824651
 31
0.0
  0
LINE
  5
3A8
330
17
100
AcDbEntity
  8
A-FLOW
100
AcDbLine
 10
11500.0
 20
20525.0
 30
0.0
 11
11826.401500046888
 21
20651.341049414437
 31
0.0
  0
LINE
  5
3A9
330
17
100
AcDbEntity
  8
A-FLOW
100
AcDbLine
 10
11500.0
 20
20525.0
 30
0.0
 11
11747.278199678229
 21
20277.303629489863
 31
0.0
  0
LINE
  5
3AA
330
17
100
AcDbEntity
  8
A-FLOW
100
AcDbLine
 10
10150.0
 20
19050.0
 30
0.0
 11
9967.294020051033
 21
19348.52725987904
 31
0.0
  0
LINE
  5
3AB
330
17
100
AcDbEntity
  8
A-FLOW
100
AcDbLine
 10
10150.0
 20
19050.0
 30
0.0
 11
10349.45271423252
 21
19337.608440045282
 31
0.0
  0
LINE
  5
3AC
330
17
100
AcDbEntity
  8
A-FLOW
100
AcDbLine
 10
11250.0
 20
15800.0
 30
0.0
 11
10919.911842860063
 21
15916.369276512145
 31
0.0
  0
LINE
  5
3AD
330
17
100
AcDbEntity
  8
A-FLOW
100
AcDbLine
 10
11250.0
 20
15800.0
 30
0.0
 11
11223.319177545245
 21
16148.981566437453
 31
0.0
  0
LINE
  5
3AE
330
17
100
AcDbEntity
  8
A-FLOW
100
AcDbLine
 10
14475.0
 20
15300.0
 30
0.0
 11
14293.87311362308
 21
15000.51201855266
 31
0.0
  0
LINE
  5
3AF
330
17
100
AcDbEntity
  8
A-FLOW
100
AcDbLine
 10
14475.0
 20
15300.0
 30
0.0
 11
14127.894298638488
 21
15344.918059645686
 31
0.0
  0
TEXT
  5
3B0
330
17
100
AcDbEntity
  8
A-FLOW
100
AcDbText
 10
16700.0
 20
16550.0
 30
0.0
 40
170.0
  1
回遊④
  7
JP
 11
16700.0
 21
16550.0
 31
0.0
100
AcDbText
  0
CIRCLE
  5
3B1
330
17
100
AcDbEntity
  8
A-SYMB
100
AcDbCircle
 10
39500.0
 20
26800.0
 30
0.0
 40
700.0
  0
LWPOLYLINE
  5
3B2
330
17
100
AcDbEntity
  8
A-SYMB
100
AcDbPolyline
 90
4
 70
1
 10
39500.0
 20
27500.0
 10
39255.0
 20
26380.0
 10
39500.0
 20
26590.0
 10
39745.0
 20
26380.0
  0
HATCH
  5
3B3
330
17
100
AcDbEntity
  8
A-SYMB
 62
7
100
AcDbHatch
 10
0.0
 20
0.0
 30
0.0
210
0.0
220
0.0
230
1.0
  2
SOLID
 70
1
 71
0
 91
1
 92
3
 72
0
 73
1
 93
3
 10
39500.0
 20
27500.0
 10
39500.0
 20
26590.0
 10
39745.0
 20
26380.0
 97
0
 75
0
 76
1
 98
0
  0
TEXT
  5
3B4
330
17
100
AcDbEntity
  8
A-SYMB
100
AcDbText
 10
39500.0
 20
27650.0
 30
0.0
 40
350.0
  1
N
  7
JP
 72
1
 11
39500.0
 21
27650.0
 31
0.0
100
AcDbText
 73
1
  0
TEXT
  5
3B5
330
17
100
AcDbEntity
  8
A-TEXT
100
AcDbText
 10
2400.0
 20
2200.0
 30
0.0
 40
400.0
  1
2階平面図
  7
JP
 11
2400.0
 21
2200.0
 31
0.0
100
AcDbText
 73
1
  0
LINE
  5
3B6
330
17
100
AcDbEntity
  8
A-SYMB
370
50
100
AcDbLine
 10
2400.0
 20
2080.0
 30
0.0
 11
5220.0
 21
2080.0
 31
0.0
  0
TEXT
  5
3B7
330
17
100
AcDbEntity
  8
A-TEXT
100
AcDbText
 10
5320.0
 20
2200.0
 30
0.0
 40
280.0
  1
S=1:100
  7
JP
 11
5320.0
 21
2200.0
 31
0.0
100
AcDbText
 73
1
  0
TEXT
  5
3B8
330
17
100
AcDbEntity
  8
A-TEXT
100
AcDbText
 10
2400.0
 20
1500.0
 30
0.0
 40
240.0
  1
2FL = 設計GL+4,700（TP+113.70）／天井高 CH=2,600
  7
JP
 11
2400.0
 21
1500.0
 31
0.0
100
AcDbText
  0
TEXT
  5
3B9
330
17
100
AcDbEntity
  8
A-TEXT
100
AcDbText
 10
28400.0
 20
28200.0
 30
0.0
 40
300.0
  1
凡例
  7
JP
 11
28400.0
 21
28200.0
 31
0.0
100
AcDbText
  0
HATCH
  5
3BA
330
17
100
AcDbEntity
  8
A-CUT-HATCH
 62
7
100
AcDbHatch
 10
0.0
 20
0.0
 30
0.0
210
0.0
220
0.0
230
1.0
  2
ANSI31
 70
0
 71
0
 91
1
 92
3
 72
0
 73
1
 93
4
 10
29700.0
 20
27440.0
 10
29700.0
 20
27660.0
 10
28500.0
 20
27660.0
 10
28500.0
 20
27440.0
 97
0
 75
1
 76
1
 52
0.0
 41
31.496062992125985
 77
0
 78
1
 53
45.0
 43
0.0
 44
0.0
 45
-70.7106781197
 46
70.7106781197
 79
0
 98
0
  0
LWPOLYLINE
  5
3BB
330
17
100
AcDbEntity
  8
A-CUT
100
AcDbPolyline
 90
4
 70
1
 10
28500.0
 20
27440.0
 10
29700.0
 20
27440.0
 10
29700.0
 20
27660.0
 10
28500.0
 20
27660.0
  0
TEXT
  5
3BC
330
17
100
AcDbEntity
  8
A-TEXT
100
AcDbText
 10
30000.0
 20
27460.000000000004
 30
0.0
 40
200.0
  1
RC壁 t=250（耐力壁）
  7
JP
 11
30000.0
 21
27460.000000000004
 31
0.0
100
AcDbText
  0
HATCH
  5
3BD
330
17
100
AcDbEntity
  8
A-CUT-INS
 62
7
100
AcDbHatch
 10
0.0
 20
0.0
 30
0.0
210
0.0
220
0.0
230
1.0
  2
ANSI37
 70
0
 71
0
 91
1
 92
3
 72
0
 73
1
 93
4
 10
29700.0
 20
27029.999999999996
 10
29700.0
 20
27149.999999999996
 10
28500.0
 20
27149.999999999996
 10
28500.0
 20
27029.999999999996
 97
0
 75
1
 76
1
 52
0.0
 41
18.897637795275593
 77
0
 78
2
 53
45.0
 43
0.0
 44
0.0
 45
-42.4264068718
 46
42.4264068718
 79
0
 53
135.0
 43
0.0
 44
0.0
 45
-42.4264068718
 46
-42.4264068718
 79
0
 98
0
  0
LWPOLYLINE
  5
3BE
330
17
100
AcDbEntity
  8
A-CUT-LGS
370
18
100
AcDbPolyline
 90
4
 70
1
 10
28500.0
 20
27029.999999999996
 10
29700.0
 20
27029.999999999996
 10
29700.0
 20
27149.999999999996
 10
28500.0
 20
27149.999999999996
  0
TEXT
  5
3BF
330
17
100
AcDbEntity
  8
A-TEXT
100
AcDbText
 10
30000.0
 20
27000.0
 30
0.0
 40
200.0
  1
外断熱100＋外装20
  7
JP
 11
30000.0
 21
27000.0
 31
0.0
100
AcDbText
  0
LINE
  5
3C0
330
17
100
AcDbEntity
  8
A-CUT-LGS
100
AcDbLine
 10
28500.0
 20
26629.999999999996
 30
0.0
 11
29700.0
 21
26629.999999999996
 31
0.0
  0
TEXT
  5
3C1
330
17
100
AcDbEntity
  8
A-TEXT
100
AcDbText
 10
30000.0
 20
26539.999999999996
 30
0.0
 40
200.0
  1
乾式間仕切（LGS）t=100
  7
JP
 11
30000.0
 21
26539.999999999996
 31
0.0
100
AcDbText
  0
LINE
  5
3C2
330
17
100
AcDbEntity
  8
A-GRID
100
AcDbLine
 10
28500.0
 20
26169.999999999993
 30
0.0
 11
29700.0
 21
26169.999999999993
 31
0.0
  0
TEXT
  5
3C3
330
17
100
AcDbEntity
  8
A-TEXT
100
AcDbText
 10
30000.0
 20
26079.999999999996
 30
0.0
 40
200.0
  1
通り芯（壁芯）
  7
JP
 11
30000.0
 21
26079.999999999996
 31
0.0
100
AcDbText
  0
LINE
  5
3C4
330
17
100
AcDbEntity
  8
A-FLOW
100
AcDbLine
 10
28500.0
 20
25709.999999999993
 30
0.0
 11
29700.0
 21
25709.999999999993
 31
0.0
  0
TEXT
  5
3C5
330
17
100
AcDbEntity
  8
A-TEXT
100
AcDbText
 10
30000.0
 20
25619.999999999993
 30
0.0
 40
200.0
  1
動線（回遊・家事・搬入）
  7
JP
 11
30000.0
 21
25619.999999999993
 31
0.0
100
AcDbText
  0
TEXT
  5
3C6
330
17
100
AcDbEntity
  8
A-TEXT
100
AcDbText
 10
28400.0
 20
24949.999999999993
 30
0.0
 40
300.0
  1
計画の考え方（v4・B案 内寸18.0m角）
  7
JP
 11
28400.0
 21
24949.999999999993
 31
0.0
100
AcDbText
  0
TEXT
  5
3C7
330
17
100
AcDbEntity
  8
A-TEXT
100
AcDbText
 10
28500.0
 20
24399.999999999993
 30
0.0
 40
210.0
  1
回遊③: ホール→図書室→南廊下→ホール。回遊④: ホール→洗面→階段2ホール→図書
  7
JP
 11
28500.0
 21
24399.999999999993
 31
0.0
100
AcDbText
  0
TEXT
  5
3C8
330
17
100
AcDbEntity
  8
A-TEXT
100
AcDbText
 10
28500.0
 20
24019.99999999999
 30
0.0
 40
210.0
  1
室→ホール
  7
JP
 11
28500.0
 21
24019.99999999999
 31
0.0
100
AcDbText
  0
TEXT
  5
3C9
330
17
100
AcDbEntity
  8
A-TEXT
100
AcDbText
 10
28500.0
 20
23539.99999999999
 30
0.0
 40
210.0
  1
窓: FIX（樹脂枠・Low-E トリプル・合わせガラス UVカット、Uw≦0.90）。排煙は各居
  7
JP
 11
28500.0
 21
23539.99999999999
 31
0.0
100
AcDbText
  0
TEXT
  5
3CA
330
17
100
AcDbEntity
  8
A-TEXT
100
AcDbText
 10
28500.0
 20
23159.99999999999
 30
0.0
 40
210.0
  1
室の天井排煙口による機械排煙（A-10 参照）
  7
JP
 11
28500.0
 21
23159.99999999999
 31
0.0
100
AcDbText
  0
TEXT
  5
3CB
330
17
100
AcDbEntity
  8
A-TEXT
100
AcDbText
 10
28500.0
 20
22679.999999999985
 30
0.0
 40
210.0
  1
防音: シアターは前室（音響ロック）＋両開き遮音扉 Ts-40。主寝室とは前室・WIC の2
  7
JP
 11
28500.0
 21
22679.999999999985
 31
0.0
100
AcDbText
  0
TEXT
  5
3CC
330
17
100
AcDbEntity
  8
A-TEXT
100
AcDbText
 10
28500.0
 20
22299.999999999985
 30
0.0
 40
210.0
  1
層で分離
  7
JP
 11
28500.0
 21
22299.999999999985
 31
0.0
100
AcDbText
  0
TEXT
  5
3CD
330
17
100
AcDbEntity
  8
A-TEXT
100
AcDbText
 10
28500.0
 20
21819.999999999985
 30
0.0
 40
210.0
  1
居室B・C・D は収納・WIC を間に挟んで隣室と分離（戸境に収納）
  7
JP
 11
28500.0
 21
21819.999999999985
 31
0.0
100
AcDbText
  0
TEXT
  5
3CE
330
17
100
AcDbEntity
  8
A-TEXT
100
AcDbText
 10
28500.0
 20
21339.99999999998
 30
0.0
 40
210.0
  1
ファミリークローゼット: 1階ランドリーから階段2で直結
  7
JP
 11
28500.0
 21
21339.99999999998
 31
0.0
100
AcDbText
  0
TEXT
  5
3CF
330
17
100
AcDbEntity
  8
A-TEXT
100
AcDbText
 10
28500.0
 20
20859.99999999998
 30
0.0
 40
210.0
  1
寸法: mm、面積: 壁芯内法の概算
  7
JP
 11
28500.0
 21
20859.99999999998
 31
0.0
100
AcDbText
  0
ENDSEC
  0
SECTION
  2
OBJECTS
  0
DICTIONARY
  5
A
330
0
100
AcDbDictionary
281
1
  3
ACAD_COLOR
350
B
  3
ACAD_GROUP
350
C
  3
ACAD_LAYOUT
350
D
  3
ACAD_MATERIAL
350
E
  3
ACAD_MLEADERSTYLE
350
F
  3
ACAD_MLINESTYLE
350
10
  3
ACAD_PLOTSETTINGS
350
11
  3
ACAD_PLOTSTYLENAME
350
12
  3
ACAD_SCALELIST
350
14
  3
ACAD_TABLESTYLE
350
15
  3
ACAD_VISUALSTYLE
350
16
  3
EZDXF_META
350
2D
  0
DICTIONARY
  5
B
330
A
100
AcDbDictionary
281
1
  0
DICTIONARY
  5
C
330
A
100
AcDbDictionary
281
1
  0
DICTIONARY
  5
D
330
A
100
AcDbDictionary
281
1
  3
Model
350
1A
  3
Layout1
350
1E
  0
DICTIONARY
  5
E
330
A
100
AcDbDictionary
281
1
  3
ByBlock
350
1F
  3
ByLayer
350
20
  3
Global
350
21
  0
DICTIONARY
  5
F
330
A
100
AcDbDictionary
281
1
  3
Standard
350
2C
  0
DICTIONARY
  5
10
330
A
100
AcDbDictionary
281
1
  3
Standard
350
22
  0
DICTIONARY
  5
11
330
A
100
AcDbDictionary
281
1
  0
ACDBDICTIONARYWDFLT
  5
12
330
A
100
AcDbDictionary
281
1
  3
Normal
350
13
100
AcDbDictionaryWithDefault
340
13
  0
ACDBPLACEHOLDER
  5
13
330
12
  0
DICTIONARY
  5
14
330
A
100
AcDbDictionary
281
1
  0
DICTIONARY
  5
15
330
A
100
AcDbDictionary
281
1
  0
DICTIONARY
  5
16
330
A
100
AcDbDictionary
281
1
  3
2dWireframe
350
5A
  3
Basic
350
5B
  3
Brighten
350
5C
  3
ColorChange
350
5D
  3
Conceptual
350
5E
  3
Dim
350
5F
  3
EdgeColorOff
350
60
  3
Facepattern
350
61
  3
Flat
350
62
  3
FlatWithEdges
350
63
  3
Gouraud
350
64
  3
GouraudWithEdges
350
65
  3
Hidden
350
66
  3
JitterOff
350
67
  3
Linepattern
350
68
  3
Modeling
350
69
  3
OverhangOff
350
6A
  3
Realistic
350
6B
  3
Shaded
350
6C
  3
Shaded with edges
350
6D
  3
Shades of Gray
350
6E
  3
Sketchy
350
6F
  3
Thicken
350
70
  3
Wireframe
350
71
  3
X-Ray
350
72
  0
LAYOUT
  5
1A
330
D
100
AcDbPlotSettings
  1

  4
A3
  6

 40
7.5
 41
20.0
 42
7.5
 43
20.0
 44
420.0
 45
297.0
 46
0.0
 47
0.0
 48
0.0
 49
0.0
140
0.0
141
0.0
142
1.0
143
1.0
 70
1024
 72
1
 73
0
 74
5
  7

 75
16
 76
0
 77
2
 78
300
147
1.0
148
0.0
149
0.0
100
AcDbLayout
  1
Model
 70
1
 71
0
 10
0.0
 20
0.0
 11
420.0
 21
297.0
 12
0.0
 22
0.0
 32
0.0
 14
1e+20
 24
1e+20
 34
1e+20
 15
-1e+20
 25
-1e+20
 35
-1e+20
146
0.0
 13
0.0
 23
0.0
 33
0.0
 16
1.0
 26
0.0
 36
0.0
 17
0.0
 27
1.0
 37
0.0
 76
1
330
17
  0
LAYOUT
  5
1E
330
D
100
AcDbPlotSettings
  1

  4
A3
  6

 40
7.5
 41
20.0
 42
7.5
 43
20.0
 44
420.0
 45
297.0
 46
0.0
 47
0.0
 48
0.0
 49
0.0
140
0.0
141
0.0
142
1.0
143
1.0
 70
0
 72
1
 73
0
 74
5
  7

 75
16
 76
0
 77
2
 78
300
147
1.0
148
0.0
149
0.0
100
AcDbLayout
  1
Layout1
 70
1
 71
1
 10
0.0
 20
0.0
 11
420.0
 21
297.0
 12
0.0
 22
0.0
 32
0.0
 14
1e+20
 24
1e+20
 34
1e+20
 15
-1e+20
 25
-1e+20
 35
-1e+20
146
0.0
 13
0.0
 23
0.0
 33
0.0
 16
1.0
 26
0.0
 36
0.0
 17
0.0
 27
1.0
 37
0.0
 76
1
330
1B
  0
MATERIAL
  5
1F
102
{ACAD_REACTORS
330
E
102
}
330
E
100
AcDbMaterial
  1
ByBlock
  2

 70
0
 40
1.0
 71
1
 41
1.0
 91
-1023410177
 42
1.0
 72
1
  3

 73
1
 74
1
 75
1
 44
0.5
 73
0
 45
1.0
 46
1.0
 77
1
  4

 78
1
 79
1
170
1
 48
1.0
171
1
  6

172
1
173
1
174
1
140
1.0
141
1.0
175
1
  7

176
1
177
1
178
1
143
1.0
179
1
  8

270
1
271
1
272
1
145
1.0
146
1.0
273
1
  9

274
1
275
1
276
1
 42
1.0
 72
1
  3

 73
1
 74
1
 75
1
 94
63
  0
MATERIAL
  5
20
102
{ACAD_REACTORS
330
E
102
}
330
E
100
AcDbMaterial
  1
ByLayer
  2

 70
0
 40
1.0
 71
1
 41
1.0
 91
-1023410177
 42
1.0
 72
1
  3

 73
1
 74
1
 75
1
 44
0.5
 73
0
 45
1.0
 46
1.0
 77
1
  4

 78
1
 79
1
170
1
 48
1.0
171
1
  6

172
1
173
1
174
1
140
1.0
141
1.0
175
1
  7

176
1
177
1
178
1
143
1.0
179
1
  8

270
1
271
1
272
1
145
1.0
146
1.0
273
1
  9

274
1
275
1
276
1
 42
1.0
 72
1
  3

 73
1
 74
1
 75
1
 94
63
  0
MATERIAL
  5
21
102
{ACAD_REACTORS
330
E
102
}
330
E
100
AcDbMaterial
  1
Global
  2

 70
0
 40
1.0
 71
1
 41
1.0
 91
-1023410177
 42
1.0
 72
1
  3

 73
1
 74
1
 75
1
 44
0.5
 73
0
 45
1.0
 46
1.0
 77
1
  4

 78
1
 79
1
170
1
 48
1.0
171
1
  6

172
1
173
1
174
1
140
1.0
141
1.0
175
1
  7

176
1
177
1
178
1
143
1.0
179
1
  8

270
1
271
1
272
1
145
1.0
146
1.0
273
1
  9

274
1
275
1
276
1
 42
1.0
 72
1
  3

 73
1
 74
1
 75
1
 94
63
  0
MLINESTYLE
  5
22
102
{ACAD_REACTORS
330
10
102
}
330
10
100
AcDbMlineStyle
  2
Standard
 70
0
  3

 62
256
 51
90.0
 52
90.0
 71
2
 49
0.5
 62
256
  6
BYLAYER
 49
-0.5
 62
256
  6
BYLAYER
  0
MLEADERSTYLE
  5
2C
102
{ACAD_REACTORS
330
F
102
}
330
F
100
AcDbMLeaderStyle
179
2
170
2
171
1
172
0
 90
2
 40
0.0
 41
0.0
173
1
 91
-1056964608
 92
-2
290
1
 42
2.0
291
1
 43
8.0
  3
Standard
 44
4.0
300

342
29
174
1
175
1
176
0
178
1
 93
-1056964608
 45
4.0
292
0
297
0
 46
4.0
 94
-1056964608
 47
1.0
 49
1.0
140
1.0
294
1
141
0.0
177
0
142
1.0
295
0
296
0
143
3.75
271
0
272
9
273
9
  0
DICTIONARY
  5
2D
330
A
100
AcDbDictionary
280
1
281
1
  3
CREATED_BY_EZDXF
350
2E
  3
WRITTEN_BY_EZDXF
350
3D2
  0
DICTIONARYVAR
  5
2E
330
2D
100
DictionaryVariables
280
0
  1
1.4.4 @ 2026-10-04T12:49:07.804999+00:00
  0
VISUALSTYLE
  5
5A
102
{ACAD_REACTORS
330
16
102
}
330
16
100
AcDbVisualStyle
  2
2dWireframe
 70
4
177
3
291
0
 70
58
 90
2
176
1
 90
2
176
1
 90
0
176
1
 90
0
176
1
 40
0.6
176
1
 40
30.0
176
1
 62
7
420
16777215
176
1
 90
1
176
1
 90
4
176
1
 62
7
176
1
 62
257
176
1
 90
1
176
1
 90
1
176
1
 40
1.0
176
1
 90
8
176
1
 62
7
176
1
 40
1.0
176
1
 90
1
176
1
 90
6
176
1
 90
2
176
1
 62
7
176
1
 90
5
176
1
 90
0
176
1
 90
0
176
1
290
0
176
1
 90
1
176
1
 40
0.0
176
1
 90
0
176
1
290
1
176
1
290
1
176
1
290
0
176
1
290
0
176
1
290
0
176
1
290
0
176
1
290
0
176
1
290
0
176
1
290
0
176
1
 90
50
176
1
 40
0.0
176
1
 40
1.0
176
1
 90
0
176
1
 62
18
420
0
176
1
 90
50
176
1
 90
3
176
1
 62
5
420
255
176
1
290
0
176
1
 90
50
176
1
 90
50
176
1
 90
50
176
1
290
0
176
1
 90
50
176
1
 62
256
176
0
 40
1.0
176
0
 90
2
176
1
  1
strokes_ogs.tif
176
1
290
0
176
1
 40
1.0
176
1
 40
1.0
176
1
  0
VISUALSTYLE
  5
5B
102
{ACAD_REACTORS
330
16
102
}
330
16
100
AcDbVisualStyle
  2
Basic
 70
7
177
3
291
1
 70
58
 90
2
176
1
 90
2
176
1
 90
0
176
1
 90
1
176
1
 40
0.6
176
1
 40
30.0
176
1
 62
7
420
16777215
176
1
 90
1
176
1
 90
4
176
1
 62
7
176
1
 62
257
176
1
 90
1
176
1
 90
1
176
1
 40
1.0
176
1
 90
8
176
1
 62
7
176
1
 40
1.0
176
1
 90
1
176
1
 90
6
176
1
 90
2
176
1
 62
7
176
1
 90
5
176
1
 90
0
176
1
 90
0
176
1
290
0
176
1
 90
1
176
1
 40
0.0
176
1
 90
0
176
1
290
0
176
1
290
1
176
1
290
1
176
1
290
0
176
1
290
0
176
1
290
0
176
1
290
0
176
1
290
0
176
1
290
0
176
1
 90
50
176
1
 40
0.0
176
1
 40
1.0
176
1
 90
0
176
1
 62
18
420
0
176
1
 90
50
176
1
 90
3
176
1
 62
5
420
255
176
1
290
0
176
1
 90
50
176
1
 90
50
176
1
 90
50
176
1
290
0
176
1
 90
50
176
1
 62
256
176
0
 40
1.0
176
0
 90
2
176
1
  1
strokes_ogs.tif
176
1
290
0
176
1
 40
1.0
176
1
 40
1.0
176
1
  0
VISUALSTYLE
  5
5C
102
{ACAD_REACTORS
330
16
102
}
330
16
100
AcDbVisualStyle
  2
Brighten
 70
12
177
3
291
1
 70
58
 90
2
176
1
 90
2
176
1
 90
0
176
1
 90
2
176
1
 40
0.6
176
1
 40
30.0
176
1
 62
7
420
16777215
176
1
 90
1
176
1
 90
4
176
1
 62
7
176
1
 62
257
176
1
 90
1
176
1
 90
1
176
1
 40
1.0
176
1
 90
8
176
1
 62
7
176
1
 40
1.0
176
1
 90
1
176
1
 90
6
176
1
 90
2
176
1
 62
7
176
1
 90
5
176
1
 90
0
176
1
 90
0
176
1
290
0
176
1
 90
1
176
1
 40
0.0
176
1
 90
0
176
1
290
0
176
1
290
1
176
1
290
1
176
1
290
0
176
1
290
0
176
1
290
0
176
1
290
0
176
1
290
0
176
1
290
0
176
1
 90
50
176
1
 40
0.0
176
1
 40
1.0
176
1
 90
0
176
1
 62
18
420
0
176
1
 90
50
176
1
 90
3
176
1
 62
5
420
255
176
1
290
0
176
1
 90
50
176
1
 90
50
176
1
 90
50
176
1
290
0
176
1
 90
50
176
1
 62
256
176
0
 40
1.0
176
0
 90
2
176
1
  1
strokes_ogs.tif
176
1
290
0
176
1
 40
1.0
176
1
 40
1.0
176
1
  0
VISUALSTYLE
  5
5D
102
{ACAD_REACTORS
330
16
102
}
330
16
100
AcDbVisualStyle
  2
ColorChange
 70
16
177
3
291
1
 70
58
 90
2
176
1
 90
2
176
1
 90
0
176
1
 90
2
176
1
 40
0.6
176
1
 40
30.0
176
1
 62
7
420
16777215
176
1
 90
1
176
1
 90
4
176
1
 62
7
176
1
 62
257
176
1
 90
1
176
1
 90
1
176
1
 40
1.0
176
1
 90
8
176
1
 62
7
176
1
 40
1.0
176
1
 90
1
176
1
 90
6
176
1
 90
2
176
1
 62
7
176
1
 90
5
176
1
 90
0
176
1
 90
0
176
1
290
0
176
1
 90
1
176
1
 40
0.0
176
1
 90
0
176
1
290
0
176
1
290
1
176
1
290
1
176
1
290
0
176
1
290
0
176
1
290
0
176
1
290
0
176
1
290
0
176
1
290
0
176
1
 90
50
176
1
 40
0.0
176
1
 40
1.0
176
1
 90
0
176
1
 62
18
420
0
176
1
 90
50
176
1
 90
3
176
1
 62
5
420
255
176
1
290
0
176
1
 90
50
176
1
 90
50
176
1
 90
50
176
1
290
0
176
1
 90
50
176
1
 62
256
176
0
 40
1.0
176
0
 90
2
176
1
  1
strokes_ogs.tif
176
1
290
0
176
1
 40
1.0
176
1
 40
1.0
176
1
  0
VISUALSTYLE
  5
5E
102
{ACAD_REACTORS
330
16
102
}
330
16
100
AcDbVisualStyle
  2
Conceptual
 70
9
177
3
291
0
 70
58
 90
2
176
1
 90
2
176
1
 90
0
176
1
 90
3
176
1
 40
0.6
176
1
 40
30.0
176
1
 62
7
420
16777215
176
1
 90
1
176
1
 90
4
176
1
 62
7
176
1
 62
257
176
1
 90
1
176
1
 90
1
176
1
 40
1.0
176
1
 90
8
176
1
 62
7
176
1
 40
1.0
176
1
 90
1
176
1
 90
6
176
1
 90
2
176
1
 62
7
176
1
 90
5
176
1
 90
0
176
1
 90
0
176
1
290
0
176
1
 90
1
176
1
 40
0.0
176
1
 90
0
176
1
290
0
176
1
290
1
176
1
290
1
176
1
290
0
176
1
290
0
176
1
290
0
176
1
290
0
176
1
290
0
176
1
290
0
176
1
 90
50
176
1
 40
0.0
176
1
 40
1.0
176
1
 90
0
176
1
 62
18
420
0
176
1
 90
50
176
1
 90
3
176
1
 62
5
420
255
176
1
290
0
176
1
 90
50
176
1
 90
50
176
1
 90
50
176
1
290
0
176
1
 90
50
176
1
 62
256
176
0
 40
1.0
176
0
 90
2
176
1
  1
strokes_ogs.tif
176
1
290
0
176
1
 40
1.0
176
1
 40
1.0
176
1
  0
VISUALSTYLE
  5
5F
102
{ACAD_REACTORS
330
16
102
}
330
16
100
AcDbVisualStyle
  2
Dim
 70
11
177
3
291
1
 70
58
 90
2
176
1
 90
2
176
1
 90
0
176
1
 90
2
176
1
 40
0.6
176
1
 40
30.0
176
1
 62
7
420
16777215
176
1
 90
1
176
1
 90
4
176
1
 62
7
176
1
 62
257
176
1
 90
1
176
1
 90
1
176
1
 40
1.0
176
1
 90
8
176
1
 62
7
176
1
 40
1.0
176
1
 90
1
176
1
 90
6
176
1
 90
2
176
1
 62
7
176
1
 90
5
176
1
 90
0
176
1
 90
0
176
1
290
0
176
1
 90
1
176
1
 40
0.0
176
1
 90
0
176
1
290
0
176
1
290
1
176
1
290
1
176
1
290
0
176
1
290
0
176
1
290
0
176
1
290
0
176
1
290
0
176
1
290
0
176
1
 90
50
176
1
 40
0.0
176
1
 40
1.0
176
1
 90
0
176
1
 62
18
420
0
176
1
 90
50
176
1
 90
3
176
1
 62
5
420
255
176
1
290
0
176
1
 90
50
176
1
 90
50
176
1
 90
50
176
1
290
0
176
1
 90
50
176
1
 62
256
176
0
 40
1.0
176
0
 90
2
176
1
  1
strokes_ogs.tif
176
1
290
0
176
1
 40
1.0
176
1
 40
1.0
176
1
  0
VISUALSTYLE
  5
60
102
{ACAD_REACTORS
330
16
102
}
330
16
100
AcDbVisualStyle
  2
EdgeColorOff
 70
22
177
3
291
1
 70
58
 90
2
176
1
 90
2
176
1
 90
0
176
1
 90
2
176
1
 40
0.6
176
1
 40
30.0
176
1
 62
7
420
16777215
176
1
 90
1
176
1
 90
4
176
1
 62
7
176
1
 62
257
176
1
 90
1
176
1
 90
1
176
1
 40
1.0
176
1
 90
8
176
1
 62
7
176
1
 40
1.0
176
1
 90
1
176
1
 90
6
176
1
 90
2
176
1
 62
7
176
1
 90
5
176
1
 90
0
176
1
 90
0
176
1
290
0
176
1
 90
1
176
1
 40
0.0
176
1
 90
0
176
1
290
0
176
1
290
1
176
1
290
1
176
1
290
0
176
1
290
0
176
1
290
0
176
1
290
0
176
1
290
0
176
1
290
0
176
1
 90
50
176
1
 40
0.0
176
1
 40
1.0
176
1
 90
0
176
1
 62
18
420
0
176
1
 90
50
176
1
 90
3
176
1
 62
5
420
255
176
1
290
0
176
1
 90
50
176
1
 90
50
176
1
 90
50
176
1
290
0
176
1
 90
50
176
1
 62
256
176
0
 40
1.0
176
0
 90
2
176
1
  1
strokes_ogs.tif
176
1
290
0
176
1
 40
1.0
176
1
 40
1.0
176
1
  0
VISUALSTYLE
  5
61
102
{ACAD_REACTORS
330
16
102
}
330
16
100
AcDbVisualStyle
  2
Facepattern
 70
15
177
3
291
1
 70
58
 90
2
176
1
 90
2
176
1
 90
0
176
1
 90
2
176
1
 40
0.6
176
1
 40
30.0
176
1
 62
7
420
16777215
176
1
 90
1
176
1
 90
4
176
1
 62
7
176
1
 62
257
176
1
 90
1
176
1
 90
1
176
1
 40
1.0
176
1
 90
8
176
1
 62
7
176
1
 40
1.0
176
1
 90
1
176
1
 90
6
176
1
 90
2
176
1
 62
7
176
1
 90
5
176
1
 90
0
176
1
 90
0
176
1
290
0
176
1
 90
1
176
1
 40
0.0
176
1
 90
0
176
1
290
0
176
1
290
1
176
1
290
1
176
1
290
0
176
1
290
0
176
1
290
0
176
1
290
0
176
1
290
0
176
1
290
0
176
1
 90
50
176
1
 40
0.0
176
1
 40
1.0
176
1
 90
0
176
1
 62
18
420
0
176
1
 90
50
176
1
 90
3
176
1
 62
5
420
255
176
1
290
0
176
1
 90
50
176
1
 90
50
176
1
 90
50
176
1
290
0
176
1
 90
50
176
1
 62
256
176
0
 40
1.0
176
0
 90
2
176
1
  1
strokes_ogs.tif
176
1
290
0
176
1
 40
1.0
176
1
 40
1.0
176
1
  0
VISUALSTYLE
  5
62
102
{ACAD_REACTORS
330
16
102
}
330
16
100
AcDbVisualStyle
  2
Flat
 70
0
177
3
291
1
 70
58
 90
2
176
1
 90
2
176
1
 90
0
176
1
 90
2
176
1
 40
0.6
176
1
 40
30.0
176
1
 62
7
420
16777215
176
1
 90
1
176
1
 90
4
176
1
 62
7
176
1
 62
257
176
1
 90
1
176
1
 90
1
176
1
 40
1.0
176
1
 90
8
176
1
 62
7
176
1
 40
1.0
176
1
 90
1
176
1
 90
6
176
1
 90
2
176
1
 62
7
176
1
 90
5
176
1
 90
0
176
1
 90
0
176
1
290
0
176
1
 90
1
176
1
 40
0.0
176
1
 90
0
176
1
290
0
176
1
290
1
176
1
290
1
176
1
290
0
176
1
290
0
176
1
290
0
176
1
290
0
176
1
290
0
176
1
290
0
176
1
 90
50
176
1
 40
0.0
176
1
 40
1.0
176
1
 90
0
176
1
 62
18
420
0
176
1
 90
50
176
1
 90
3
176
1
 62
5
420
255
176
1
290
0
176
1
 90
50
176
1
 90
50
176
1
 90
50
176
1
290
0
176
1
 90
50
176
1
 62
256
176
0
 40
1.0
176
0
 90
2
176
1
  1
strokes_ogs.tif
176
1
290
0
176
1
 40
1.0
176
1
 40
1.0
176
1
  0
VISUALSTYLE
  5
63
102
{ACAD_REACTORS
330
16
102
}
330
16
100
AcDbVisualStyle
  2
FlatWithEdges
 70
1
177
3
291
1
 70
58
 90
2
176
1
 90
2
176
1
 90
0
176
1
 90
2
176
1
 40
0.6
176
1
 40
30.0
176
1
 62
7
420
16777215
176
1
 90
1
176
1
 90
4
176
1
 62
7
176
1
 62
257
176
1
 90
1
176
1
 90
1
176
1
 40
1.0
176
1
 90
8
176
1
 62
7
176
1
 40
1.0
176
1
 90
1
176
1
 90
6
176
1
 90
2
176
1
 62
7
176
1
 90
5
176
1
 90
0
176
1
 90
0
176
1
290
0
176
1
 90
1
176
1
 40
0.0
176
1
 90
0
176
1
290
0
176
1
290
1
176
1
290
1
176
1
290
0
176
1
290
0
176
1
290
0
176
1
290
0
176
1
290
0
176
1
290
0
176
1
 90
50
176
1
 40
0.0
176
1
 40
1.0
176
1
 90
0
176
1
 62
18
420
0
176
1
 90
50
176
1
 90
3
176
1
 62
5
420
255
176
1
290
0
176
1
 90
50
176
1
 90
50
176
1
 90
50
176
1
290
0
176
1
 90
50
176
1
 62
256
176
0
 40
1.0
176
0
 90
2
176
1
  1
strokes_ogs.tif
176
1
290
0
176
1
 40
1.0
176
1
 40
1.0
176
1
  0
VISUALSTYLE
  5
64
102
{ACAD_REACTORS
330
16
102
}
330
16
100
AcDbVisualStyle
  2
Gouraud
 70
2
177
3
291
1
 70
58
 90
2
176
1
 90
2
176
1
 90
0
176
1
 90
2
176
1
 40
0.6
176
1
 40
30.0
176
1
 62
7
420
16777215
176
1
 90
1
176
1
 90
4
176
1
 62
7
176
1
 62
257
176
1
 90
1
176
1
 90
1
176
1
 40
1.0
176
1
 90
8
176
1
 62
7
176
1
 40
1.0
176
1
 90
1
176
1
 90
6
176
1
 90
2
176
1
 62
7
176
1
 90
5
176
1
 90
0
176
1
 90
0
176
1
290
0
176
1
 90
1
176
1
 40
0.0
176
1
 90
0
176
1
290
0
176
1
290
1
176
1
290
1
176
1
290
0
176
1
290
0
176
1
290
0
176
1
290
0
176
1
290
0
176
1
290
0
176
1
 90
50
176
1
 40
0.0
176
1
 40
1.0
176
1
 90
0
176
1
 62
18
420
0
176
1
 90
50
176
1
 90
3
176
1
 62
5
420
255
176
1
290
0
176
1
 90
50
176
1
 90
50
176
1
 90
50
176
1
290
0
176
1
 90
50
176
1
 62
256
176
0
 40
1.0
176
0
 90
2
176
1
  1
strokes_ogs.tif
176
1
290
0
176
1
 40
1.0
176
1
 40
1.0
176
1
  0
VISUALSTYLE
  5
65
102
{ACAD_REACTORS
330
16
102
}
330
16
100
AcDbVisualStyle
  2
GouraudWithEdges
 70
3
177
3
291
1
 70
58
 90
2
176
1
 90
2
176
1
 90
0
176
1
 90
2
176
1
 40
0.6
176
1
 40
30.0
176
1
 62
7
420
16777215
176
1
 90
1
176
1
 90
4
176
1
 62
7
176
1
 62
257
176
1
 90
1
176
1
 90
1
176
1
 40
1.0
176
1
 90
8
176
1
 62
7
176
1
 40
1.0
176
1
 90
1
176
1
 90
6
176
1
 90
2
176
1
 62
7
176
1
 90
5
176
1
 90
0
176
1
 90
0
176
1
290
0
176
1
 90
1
176
1
 40
0.0
176
1
 90
0
176
1
290
0
176
1
290
1
176
1
290
1
176
1
290
0
176
1
290
0
176
1
290
0
176
1
290
0
176
1
290
0
176
1
290
0
176
1
 90
50
176
1
 40
0.0
176
1
 40
1.0
176
1
 90
0
176
1
 62
18
420
0
176
1
 90
50
176
1
 90
3
176
1
 62
5
420
255
176
1
290
0
176
1
 90
50
176
1
 90
50
176
1
 90
50
176
1
290
0
176
1
 90
50
176
1
 62
256
176
0
 40
1.0
176
0
 90
2
176
1
  1
strokes_ogs.tif
176
1
290
0
176
1
 40
1.0
176
1
 40
1.0
176
1
  0
VISUALSTYLE
  5
66
102
{ACAD_REACTORS
330
16
102
}
330
16
100
AcDbVisualStyle
  2
Hidden
 70
6
177
3
291
0
 70
58
 90
2
176
1
 90
2
176
1
 90
0
176
1
 90
1
176
1
 40
0.6
176
1
 40
30.0
176
1
 62
7
420
16777215
176
1
 90
1
176
1
 90
4
176
1
 62
7
176
1
 62
257
176
1
 90
1
176
1
 90
1
176
1
 40
1.0
176
1
 90
8
176
1
 62
7
176
1
 40
1.0
176
1
 90
1
176
1
 90
6
176
1
 90
2
176
1
 62
7
176
1
 90
5
176
1
 90
0
176
1
 90
0
176
1
290
0
176
1
 90
1
176
1
 40
0.0
176
1
 90
0
176
1
290
0
176
1
290
1
176
1
290
1
176
1
290
0
176
1
290
0
176
1
290
0
176
1
290
0
176
1
290
0
176
1
290
0
176
1
 90
50
176
1
 40
0.0
176
1
 40
1.0
176
1
 90
0
176
1
 62
18
420
0
176
1
 90
50
176
1
 90
3
176
1
 62
5
420
255
176
1
290
0
176
1
 90
50
176
1
 90
50
176
1
 90
50
176
1
290
0
176
1
 90
50
176
1
 62
256
176
0
 40
1.0
176
0
 90
2
176
1
  1
strokes_ogs.tif
176
1
290
0
176
1
 40
1.0
176
1
 40
1.0
176
1
  0
VISUALSTYLE
  5
67
102
{ACAD_REACTORS
330
16
102
}
330
16
100
AcDbVisualStyle
  2
JitterOff
 70
20
177
3
291
1
 70
58
 90
2
176
1
 90
2
176
1
 90
0
176
1
 90
2
176
1
 40
0.6
176
1
 40
30.0
176
1
 62
7
420
16777215
176
1
 90
1
176
1
 90
4
176
1
 62
7
176
1
 62
257
176
1
 90
1
176
1
 90
1
176
1
 40
1.0
176
1
 90
8
176
1
 62
7
176
1
 40
1.0
176
1
 90
1
176
1
 90
6
176
1
 90
2
176
1
 62
7
176
1
 90
5
176
1
 90
0
176
1
 90
0
176
1
290
0
176
1
 90
1
176
1
 40
0.0
176
1
 90
0
176
1
290
0
176
1
290
1
176
1
290
1
176
1
290
0
176
1
290
0
176
1
290
0
176
1
290
0
176
1
290
0
176
1
290
0
176
1
 90
50
176
1
 40
0.0
176
1
 40
1.0
176
1
 90
0
176
1
 62
18
420
0
176
1
 90
50
176
1
 90
3
176
1
 62
5
420
255
176
1
290
0
176
1
 90
50
176
1
 90
50
176
1
 90
50
176
1
290
0
176
1
 90
50
176
1
 62
256
176
0
 40
1.0
176
0
 90
2
176
1
  1
strokes_ogs.tif
176
1
290
0
176
1
 40
1.0
176
1
 40
1.0
176
1
  0
VISUALSTYLE
  5
68
102
{ACAD_REACTORS
330
16
102
}
330
16
100
AcDbVisualStyle
  2
Linepattern
 70
14
177
3
291
1
 70
58
 90
2
176
1
 90
2
176
1
 90
0
176
1
 90
2
176
1
 40
0.6
176
1
 40
30.0
176
1
 62
7
420
16777215
176
1
 90
1
176
1
 90
4
176
1
 62
7
176
1
 62
257
176
1
 90
1
176
1
 90
1
176
1
 40
1.0
176
1
 90
8
176
1
 62
7
176
1
 40
1.0
176
1
 90
1
176
1
 90
6
176
1
 90
2
176
1
 62
7
176
1
 90
5
176
1
 90
0
176
1
 90
0
176
1
290
0
176
1
 90
1
176
1
 40
0.0
176
1
 90
0
176
1
290
0
176
1
290
1
176
1
290
1
176
1
290
0
176
1
290
0
176
1
290
0
176
1
290
0
176
1
290
0
176
1
290
0
176
1
 90
50
176
1
 40
0.0
176
1
 40
1.0
176
1
 90
0
176
1
 62
18
420
0
176
1
 90
50
176
1
 90
3
176
1
 62
5
420
255
176
1
290
0
176
1
 90
50
176
1
 90
50
176
1
 90
50
176
1
290
0
176
1
 90
50
176
1
 62
256
176
0
 40
1.0
176
0
 90
2
176
1
  1
strokes_ogs.tif
176
1
290
0
176
1
 40
1.0
176
1
 40
1.0
176
1
  0
VISUALSTYLE
  5
69
102
{ACAD_REACTORS
330
16
102
}
330
16
100
AcDbVisualStyle
  2
Modeling
 70
10
177
3
291
0
 70
58
 90
2
176
1
 90
2
176
1
 90
0
176
1
 90
2
176
1
 40
0.6
176
1
 40
30.0
176
1
 62
7
420
16777215
176
1
 90
1
176
1
 90
4
176
1
 62
7
176
1
 62
257
176
1
 90
1
176
1
 90
1
176
1
 40
1.0
176
1
 90
8
176
1
 62
7
176
1
 40
1.0
176
1
 90
1
176
1
 90
6
176
1
 90
2
176
1
 62
7
176
1
 90
5
176
1
 90
0
176
1
 90
0
176
1
290
0
176
1
 90
1
176
1
 40
0.0
176
1
 90
0
176
1
290
0
176
1
290
1
176
1
290
1
176
1
290
0
176
1
290
0
176
1
290
0
176
1
290
0
176
1
290
0
176
1
290
0
176
1
 90
50
176
1
 40
0.0
176
1
 40
1.0
176
1
 90
0
176
1
 62
18
420
0
176
1
 90
50
176
1
 90
3
176
1
 62
5
420
255
176
1
290
0
176
1
 90
50
176
1
 90
50
176
1
 90
50
176
1
290
0
176
1
 90
50
176
1
 62
256
176
0
 40
1.0
176
0
 90
2
176
1
  1
strokes_ogs.tif
176
1
290
0
176
1
 40
1.0
176
1
 40
1.0
176
1
  0
VISUALSTYLE
  5
6A
102
{ACAD_REACTORS
330
16
102
}
330
16
100
AcDbVisualStyle
  2
OverhangOff
 70
21
177
3
291
1
 70
58
 90
2
176
1
 90
2
176
1
 90
0
176
1
 90
2
176
1
 40
0.6
176
1
 40
30.0
176
1
 62
7
420
16777215
176
1
 90
1
176
1
 90
4
176
1
 62
7
176
1
 62
257
176
1
 90
1
176
1
 90
1
176
1
 40
1.0
176
1
 90
8
176
1
 62
7
176
1
 40
1.0
176
1
 90
1
176
1
 90
6
176
1
 90
2
176
1
 62
7
176
1
 90
5
176
1
 90
0
176
1
 90
0
176
1
290
0
176
1
 90
1
176
1
 40
0.0
176
1
 90
0
176
1
290
0
176
1
290
1
176
1
290
1
176
1
290
0
176
1
290
0
176
1
290
0
176
1
290
0
176
1
290
0
176
1
290
0
176
1
 90
50
176
1
 40
0.0
176
1
 40
1.0
176
1
 90
0
176
1
 62
18
420
0
176
1
 90
50
176
1
 90
3
176
1
 62
5
420
255
176
1
290
0
176
1
 90
50
176
1
 90
50
176
1
 90
50
176
1
290
0
176
1
 90
50
176
1
 62
256
176
0
 40
1.0
176
0
 90
2
176
1
  1
strokes_ogs.tif
176
1
290
0
176
1
 40
1.0
176
1
 40
1.0
176
1
  0
VISUALSTYLE
  5
6B
102
{ACAD_REACTORS
330
16
102
}
330
16
100
AcDbVisualStyle
  2
Realistic
 70
8
177
3
291
0
 70
58
 90
2
176
1
 90
2
176
1
 90
0
176
1
 90
2
176
1
 40
0.6
176
1
 40
30.0
176
1
 62
7
420
16777215
176
1
 90
1
176
1
 90
4
176
1
 62
7
176
1
 62
257
176
1
 90
1
176
1
 90
1
176
1
 40
1.0
176
1
 90
8
176
1
 62
7
176
1
 40
1.0
176
1
 90
1
176
1
 90
6
176
1
 90
2
176
1
 62
7
176
1
 90
5
176
1
 90
0
176
1
 90
0
176
1
290
0
176
1
 90
1
176
1
 40
0.0
176
1
 90
0
176
1
290
0
176
1
290
1
176
1
290
1
176
1
290
0
176
1
290
0
176
1
290
0
176
1
290
0
176
1
290
0
176
1
290
0
176
1
 90
50
176
1
 40
0.0
176
1
 40
1.0
176
1
 90
0
176
1
 62
18
420
0
176
1
 90
50
176
1
 90
3
176
1
 62
5
420
255
176
1
290
0
176
1
 90
50
176
1
 90
50
176
1
 90
50
176
1
290
0
176
1
 90
50
176
1
 62
256
176
0
 40
1.0
176
0
 90
2
176
1
  1
strokes_ogs.tif
176
1
290
0
176
1
 40
1.0
176
1
 40
1.0
176
1
  0
VISUALSTYLE
  5
6C
102
{ACAD_REACTORS
330
16
102
}
330
16
100
AcDbVisualStyle
  2
Shaded
 70
27
177
3
291
0
 70
58
 90
2
176
1
 90
2
176
1
 90
0
176
1
 90
2
176
1
 40
0.6
176
1
 40
30.0
176
1
 62
7
420
16777215
176
1
 90
1
176
1
 90
4
176
1
 62
7
176
1
 62
257
176
1
 90
1
176
1
 90
1
176
1
 40
1.0
176
1
 90
8
176
1
 62
7
176
1
 40
1.0
176
1
 90
1
176
1
 90
6
176
1
 90
2
176
1
 62
7
176
1
 90
5
176
1
 90
0
176
1
 90
0
176
1
290
0
176
1
 90
1
176
1
 40
0.0
176
1
 90
0
176
1
290
0
176
1
290
1
176
1
290
1
176
1
290
0
176
1
290
0
176
1
290
0
176
1
290
0
176
1
290
0
176
1
290
0
176
1
 90
50
176
1
 40
0.0
176
1
 40
1.0
176
1
 90
0
176
1
 62
18
420
0
176
1
 90
50
176
1
 90
3
176
1
 62
5
420
255
176
1
290
0
176
1
 90
50
176
1
 90
50
176
1
 90
50
176
1
290
0
176
1
 90
50
176
1
 62
256
176
0
 40
1.0
176
0
 90
2
176
1
  1
strokes_ogs.tif
176
1
290
0
176
1
 40
1.0
176
1
 40
1.0
176
1
  0
VISUALSTYLE
  5
6D
102
{ACAD_REACTORS
330
16
102
}
330
16
100
AcDbVisualStyle
  2
Shaded with edges
 70
26
177
3
291
0
 70
58
 90
2
176
1
 90
2
176
1
 90
0
176
1
 90
2
176
1
 40
0.6
176
1
 40
30.0
176
1
 62
7
420
16777215
176
1
 90
1
176
1
 90
4
176
1
 62
7
176
1
 62
257
176
1
 90
1
176
1
 90
1
176
1
 40
1.0
176
1
 90
8
176
1
 62
7
176
1
 40
1.0
176
1
 90
1
176
1
 90
6
176
1
 90
2
176
1
 62
7
176
1
 90
5
176
1
 90
0
176
1
 90
0
176
1
290
0
176
1
 90
1
176
1
 40
0.0
176
1
 90
0
176
1
290
0
176
1
290
1
176
1
290
1
176
1
290
0
176
1
290
0
176
1
290
0
176
1
290
0
176
1
290
0
176
1
290
0
176
1
 90
50
176
1
 40
0.0
176
1
 40
1.0
176
1
 90
0
176
1
 62
18
420
0
176
1
 90
50
176
1
 90
3
176
1
 62
5
420
255
176
1
290
0
176
1
 90
50
176
1
 90
50
176
1
 90
50
176
1
290
0
176
1
 90
50
176
1
 62
256
176
0
 40
1.0
176
0
 90
2
176
1
  1
strokes_ogs.tif
176
1
290
0
176
1
 40
1.0
176
1
 40
1.0
176
1
  0
VISUALSTYLE
  5
6E
102
{ACAD_REACTORS
330
16
102
}
330
16
100
AcDbVisualStyle
  2
Shades of Gray
 70
23
177
3
291
0
 70
58
 90
2
176
1
 90
2
176
1
 90
0
176
1
 90
2
176
1
 40
0.6
176
1
 40
30.0
176
1
 62
7
420
16777215
176
1
 90
1
176
1
 90
4
176
1
 62
7
176
1
 62
257
176
1
 90
1
176
1
 90
1
176
1
 40
1.0
176
1
 90
8
176
1
 62
7
176
1
 40
1.0
176
1
 90
1
176
1
 90
6
176
1
 90
2
176
1
 62
7
176
1
 90
5
176
1
 90
0
176
1
 90
0
176
1
290
0
176
1
 90
1
176
1
 40
0.0
176
1
 90
0
176
1
290
0
176
1
290
1
176
1
290
1
176
1
290
0
176
1
290
0
176
1
290
0
176
1
290
0
176
1
290
0
176
1
290
0
176
1
 90
50
176
1
 40
0.0
176
1
 40
1.0
176
1
 90
0
176
1
 62
18
420
0
176
1
 90
50
176
1
 90
3
176
1
 62
5
420
255
176
1
290
0
176
1
 90
50
176
1
 90
50
176
1
 90
50
176
1
290
0
176
1
 90
50
176
1
 62
256
176
0
 40
1.0
176
0
 90
2
176
1
  1
strokes_ogs.tif
176
1
290
0
176
1
 40
1.0
176
1
 40
1.0
176
1
  0
VISUALSTYLE
  5
6F
102
{ACAD_REACTORS
330
16
102
}
330
16
100
AcDbVisualStyle
  2
Sketchy
 70
24
177
3
291
0
 70
58
 90
2
176
1
 90
2
176
1
 90
0
176
1
 90
1
176
1
 40
0.6
176
1
 40
30.0
176
1
 62
7
420
16777215
176
1
 90
1
176
1
 90
4
176
1
 62
7
176
1
 62
257
176
1
 90
1
176
1
 90
1
176
1
 40
1.0
176
1
 90
8
176
1
 62
7
176
1
 40
1.0
176
1
 90
1
176
1
 90
6
176
1
 90
2
176
1
 62
7
176
1
 90
5
176
1
 90
0
176
1
 90
0
176
1
290
0
176
1
 90
1
176
1
 40
0.0
176
1
 90
0
176
1
290
0
176
1
290
1
176
1
290
1
176
1
290
0
176
1
290
0
176
1
290
0
176
1
290
0
176
1
290
0
176
1
290
0
176
1
 90
50
176
1
 40
0.0
176
1
 40
1.0
176
1
 90
0
176
1
 62
18
420
0
176
1
 90
50
176
1
 90
3
176
1
 62
5
420
255
176
1
290
0
176
1
 90
50
176
1
 90
50
176
1
 90
50
176
1
290
0
176
1
 90
50
176
1
 62
256
176
0
 40
1.0
176
0
 90
2
176
1
  1
strokes_ogs.tif
176
1
290
0
176
1
 40
1.0
176
1
 40
1.0
176
1
  0
VISUALSTYLE
  5
70
102
{ACAD_REACTORS
330
16
102
}
330
16
100
AcDbVisualStyle
  2
Thicken
 70
13
177
3
291
1
 70
58
 90
2
176
1
 90
2
176
1
 90
0
176
1
 90
2
176
1
 40
0.6
176
1
 40
30.0
176
1
 62
7
420
16777215
176
1
 90
1
176
1
 90
4
176
1
 62
7
176
1
 62
257
176
1
 90
1
176
1
 90
1
176
1
 40
1.0
176
1
 90
8
176
1
 62
7
176
1
 40
1.0
176
1
 90
1
176
1
 90
6
176
1
 90
2
176
1
 62
7
176
1
 90
5
176
1
 90
0
176
1
 90
0
176
1
290
0
176
1
 90
1
176
1
 40
0.0
176
1
 90
0
176
1
290
0
176
1
290
1
176
1
290
1
176
1
290
0
176
1
290
0
176
1
290
0
176
1
290
0
176
1
290
0
176
1
290
0
176
1
 90
50
176
1
 40
0.0
176
1
 40
1.0
176
1
 90
0
176
1
 62
18
420
0
176
1
 90
50
176
1
 90
3
176
1
 62
5
420
255
176
1
290
0
176
1
 90
50
176
1
 90
50
176
1
 90
50
176
1
290
0
176
1
 90
50
176
1
 62
256
176
0
 40
1.0
176
0
 90
2
176
1
  1
strokes_ogs.tif
176
1
290
0
176
1
 40
1.0
176
1
 40
1.0
176
1
  0
VISUALSTYLE
  5
71
102
{ACAD_REACTORS
330
16
102
}
330
16
100
AcDbVisualStyle
  2
Wireframe
 70
5
177
3
291
0
 70
58
 90
2
176
1
 90
2
176
1
 90
0
176
1
 90
0
176
1
 40
0.6
176
1
 40
30.0
176
1
 62
7
420
16777215
176
1
 90
1
176
1
 90
4
176
1
 62
7
176
1
 62
257
176
1
 90
1
176
1
 90
1
176
1
 40
1.0
176
1
 90
8
176
1
 62
7
176
1
 40
1.0
176
1
 90
1
176
1
 90
6
176
1
 90
2
176
1
 62
7
176
1
 90
5
176
1
 90
0
176
1
 90
0
176
1
290
0
176
1
 90
1
176
1
 40
0.0
176
1
 90
0
176
1
290
0
176
1
290
1
176
1
290
1
176
1
290
0
176
1
290
0
176
1
290
0
176
1
290
0
176
1
290
0
176
1
290
0
176
1
 90
50
176
1
 40
0.0
176
1
 40
1.0
176
1
 90
0
176
1
 62
18
420
0
176
1
 90
50
176
1
 90
3
176
1
 62
5
420
255
176
1
290
0
176
1
 90
50
176
1
 90
50
176
1
 90
50
176
1
290
0
176
1
 90
50
176
1
 62
256
176
0
 40
1.0
176
0
 90
2
176
1
  1
strokes_ogs.tif
176
1
290
0
176
1
 40
1.0
176
1
 40
1.0
176
1
  0
VISUALSTYLE
  5
72
102
{ACAD_REACTORS
330
16
102
}
330
16
100
AcDbVisualStyle
  2
X-Ray
 70
25
177
3
291
0
 70
58
 90
2
176
1
 90
2
176
1
 90
0
176
1
 90
2
176
1
 40
0.5
176
1
 40
30.0
176
1
 62
7
420
16777215
176
1
 90
1
176
1
 90
4
176
1
 62
7
176
1
 62
257
176
1
 90
1
176
1
 90
1
176
1
 40
1.0
176
1
 90
8
176
1
 62
7
176
1
 40
1.0
176
1
 90
1
176
1
 90
6
176
1
 90
2
176
1
 62
7
176
1
 90
5
176
1
 90
0
176
1
 90
0
176
1
290
0
176
1
 90
1
176
1
 40
0.0
176
1
 90
0
176
1
290
0
176
1
290
1
176
1
290
1
176
1
290
0
176
1
290
0
176
1
290
0
176
1
290
0
176
1
290
0
176
1
290
0
176
1
 90
50
176
1
 40
0.0
176
1
 40
1.0
176
1
 90
0
176
1
 62
18
420
0
176
1
 90
50
176
1
 90
3
176
1
 62
5
420
255
176
1
290
0
176
1
 90
50
176
1
 90
50
176
1
 90
50
176
1
290
0
176
1
 90
50
176
1
 62
256
176
0
 40
1.0
176
0
 90
2
176
1
  1
strokes_ogs.tif
176
1
290
0
176
1
 40
1.0
176
1
 40
1.0
176
1
  0
DICTIONARYVAR
  5
3D2
330
2D
100
DictionaryVariables
280
0
  1
1.4.4 @ 2026-10-04T12:49:19.091589+00:00
  0
ENDSEC
  0
EOF
