  0
SECTION
  2
HEADER
  9
$ACADVER
  1
AC1032
  9
$ACADMAINTVER
 90
4
  9
$DWGCODEPAGE
  3
ANSI_1252
  9
$LASTSAVEDBY
  1
ezdxf
  9
$REQUIREDVERSIONS
160
0
  9
$INSBASE
 10
0.0
 20
0.0
 30
0.0
  9
$EXTMIN
 10
1e+20
 20
1e+20
 30
1e+20
  9
$EXTMAX
 10
-1e+20
 20
-1e+20
 30
-1e+20
  9
$LIMMIN
 10
0.0
 20
0.0
  9
$LIMMAX
 10
420.0
 20
297.0
  9
$ORTHOMODE
 70
0
  9
$REGENMODE
 70
1
  9
$FILLMODE
 70
1
  9
$QTEXTMODE
 70
0
  9
$MIRRTEXT
 70
1
  9
$LTSCALE
 40
100.0
  9
$ATTMODE
 70
1
  9
$TEXTSIZE
 40
2.5
  9
$TRACEWID
 40
1.0
  9
$TEXTSTYLE
  7
OpenSans
  9
$CLAYER
  8
0
  9
$CELTYPE
  6
ByLayer
  9
$CECOLOR
 62
256
  9
$CELTSCALE
 40
1.0
  9
$DISPSILH
 70
0
  9
$DIMSCALE
 40
1.0
  9
$DIMASZ
 40
0.175
  9
$DIMEXO
 40
0.125
  9
$DIMDLI
 40
3.75
  9
$DIMRND
 40
0.0
  9
$DIMDLE
 40
0.0
  9
$DIMEXE
 40
0.375
  9
$DIMTP
 40
0.0
  9
$DIMTM
 40
0.0
  9
$DIMTXT
 40
0.25
  9
$DIMCEN
 40
2.5
  9
$DIMTSZ
 40
0.0
  9
$DIMTOL
 70
0
  9
$DIMLIM
 70
0
  9
$DIMTIH
 70
0
  9
$DIMTOH
 70
0
  9
$DIMSE1
 70
0
  9
$DIMSE2
 70
0
  9
$DIMTAD
 70
1
  9
$DIMZIN
 70
12
  9
$DIMBLK
  1
ARCHTICK
  9
$DIMASO
 70
1
  9
$DIMSHO
 70
1
  9
$DIMPOST
  1

  9
$DIMAPOST
  1

  9
$DIMALT
 70
0
  9
$DIMALTD
 70
3
  9
$DIMALTF
 40
0.03937007874
  9
$DIMLFAC
 40
100.0
  9
$DIMTOFL
 70
1
  9
$DIMTVP
 40
0.0
  9
$DIMTIX
 70
0
  9
$DIMSOXD
 70
0
  9
$DIMSAH
 70
0
  9
$DIMBLK1
  1

  9
$DIMBLK2
  1

  9
$DIMSTYLE
  2
EZDXF
  9
$DIMCLRD
 70
0
  9
$DIMCLRE
 70
0
  9
$DIMCLRT
 70
0
  9
$DIMTFAC
 40
0.5
  9
$DIMGAP
 40
0.1
  9
$DIMJUST
 70
0
  9
$DIMSD1
 70
0
  9
$DIMSD2
 70
0
  9
$DIMTOLJ
 70
0
  9
$DIMTZIN
 70
8
  9
$DIMALTZ
 70
0
  9
$DIMALTTZ
 70
0
  9
$DIMUPT
 70
1
  9
$DIMDEC
 70
2
  9
$DIMTDEC
 70
2
  9
$DIMALTU
 70
2
  9
$DIMALTTD
 70
3
  9
$DIMTXSTY
  7
OpenSansCondensed-Light
  9
$DIMAUNIT
 70
0
  9
$DIMADEC
 70
2
  9
$DIMALTRND
 40
0.0
  9
$DIMAZIN
 70
3
  9
$DIMDSEP
 70
46
  9
$DIMATFIT
 70
3
  9
$DIMFRAC
 70
0
  9
$DIMLDRBLK
  1

  9
$DIMLUNIT
 70
2
  9
$DIMLWD
 70
-2
  9
$DIMLWE
 70
-2
  9
$DIMTMOVE
 70
2
  9
$DIMFXL
 40
1.0
  9
$DIMFXLON
 70
0
  9
$DIMJOGANG
 40
0.785398163397
  9
$DIMTFILL
 70
0
  9
$DIMTFILLCLR
 70
0
  9
$DIMARCSYM
 70
0
  9
$DIMLTYPE
  6

  9
$DIMLTEX1
  6

  9
$DIMLTEX2
  6

  9
$DIMTXTDIRECTION
 70
0
  9
$LUNITS
 70
2
  9
$LUPREC
 70
4
  9
$SKETCHINC
 40
1.0
  9
$FILLETRAD
 40
10.0
  9
$AUNITS
 70
0
  9
$AUPREC
 70
2
  9
$MENU
  1
.
  9
$ELEVATION
 40
0.0
  9
$PELEVATION
 40
0.0
  9
$THICKNESS
 40
0.0
  9
$LIMCHECK
 70
0
  9
$CHAMFERA
 40
0.0
  9
$CHAMFERB
 40
0.0
  9
$CHAMFERC
 40
0.0
  9
$CHAMFERD
 40
0.0
  9
$SKPOLY
 70
0
  9
$TDCREATE
 40
2461318.6607060186
  9
$TDUCREATE
 40
2458532.153996898
  9
$TDUPDATE
 40
2461318.6611342593
  9
$TDUUPDATE
 40
2458532.1544311
  9
$TDINDWG
 40
0.0
  9
$TDUSRTIMER
 40
0.0
  9
$USRTIMER
 70
1
  9
$ANGBASE
 50
0.0
  9
$ANGDIR
 70
0
  9
$PDMODE
 70
0
  9
$PDSIZE
 40
0.0
  9
$PLINEWID
 40
0.0
  9
$SPLFRAME
 70
0
  9
$SPLINETYPE
 70
6
  9
$SPLINESEGS
 70
8
  9
$HANDSEED
  5
1A2
  9
$SURFTAB1
 70
6
  9
$SURFTAB2
 70
6
  9
$SURFTYPE
 70
6
  9
$SURFU
 70
6
  9
$SURFV
 70
6
  9
$UCSBASE
  2

  9
$UCSNAME
  2

  9
$UCSORG
 10
0.0
 20
0.0
 30
0.0
  9
$UCSXDIR
 10
1.0
 20
0.0
 30
0.0
  9
$UCSYDIR
 10
0.0
 20
1.0
 30
0.0
  9
$UCSORTHOREF
  2

  9
$UCSORTHOVIEW
 70
0
  9
$UCSORGTOP
 10
0.0
 20
0.0
 30
0.0
  9
$UCSORGBOTTOM
 10
0.0
 20
0.0
 30
0.0
  9
$UCSORGLEFT
 10
0.0
 20
0.0
 30
0.0
  9
$UCSORGRIGHT
 10
0.0
 20
0.0
 30
0.0
  9
$UCSORGFRONT
 10
0.0
 20
0.0
 30
0.0
  9
$UCSORGBACK
 10
0.0
 20
0.0
 30
0.0
  9
$PUCSBASE
  2

  9
$PUCSNAME
  2

  9
$PUCSORG
 10
0.0
 20
0.0
 30
0.0
  9
$PUCSXDIR
 10
1.0
 20
0.0
 30
0.0
  9
$PUCSYDIR
 10
0.0
 20
1.0
 30
0.0
  9
$PUCSORTHOREF
  2

  9
$PUCSORTHOVIEW
 70
0
  9
$PUCSORGTOP
 10
0.0
 20
0.0
 30
0.0
  9
$PUCSORGBOTTOM
 10
0.0
 20
0.0
 30
0.0
  9
$PUCSORGLEFT
 10
0.0
 20
0.0
 30
0.0
  9
$PUCSORGRIGHT
 10
0.0
 20
0.0
 30
0.0
  9
$PUCSORGFRONT
 10
0.0
 20
0.0
 30
0.0
  9
$PUCSORGBACK
 10
0.0
 20
0.0
 30
0.0
  9
$USERI1
 70
0
  9
$USERI2
 70
0
  9
$USERI3
 70
0
  9
$USERI4
 70
0
  9
$USERI5
 70
0
  9
$USERR1
 40
0.0
  9
$USERR2
 40
0.0
  9
$USERR3
 40
0.0
  9
$USERR4
 40
0.0
  9
$USERR5
 40
0.0
  9
$WORLDVIEW
 70
1
  9
$SHADEDGE
 70
3
  9
$SHADEDIF
 70
70
  9
$TILEMODE
 70
1
  9
$MAXACTVP
 70
64
  9
$PINSBASE
 10
0.0
 20
0.0
 30
0.0
  9
$PLIMCHECK
 70
0
  9
$PEXTMIN
 10
1e+20
 20
1e+20
 30
1e+20
  9
$PEXTMAX
 10
-1e+20
 20
-1e+20
 30
-1e+20
  9
$PLIMMIN
 10
0.0
 20
0.0
  9
$PLIMMAX
 10
420.0
 20
297.0
  9
$UNITMODE
 70
0
  9
$VISRETAIN
 70
1
  9
$PLINEGEN
 70
0
  9
$PSLTSCALE
 70
0
  9
$TREEDEPTH
 70
3020
  9
$CMLSTYLE
  2
Standard
  9
$CMLJUST
 70
0
  9
$CMLSCALE
 40
20.0
  9
$PROXYGRAPHICS
 70
1
  9
$MEASUREMENT
 70
1
  9
$CELWEIGHT
370
-1
  9
$ENDCAPS
280
0
  9
$JOINSTYLE
280
0
  9
$LWDISPLAY
290
0
  9
$INSUNITS
 70
4
  9
$HYPERLINKBASE
  1

  9
$STYLESHEET
  1

  9
$XEDIT
290
1
  9
$CEPSNTYPE
380
0
  9
$PSTYLEMODE
290
1
  9
$FINGERPRINTGUID
  2
{8C5CA180-84A5-4364-A64F-11AAD144FED1}
  9
$VERSIONGUID
  2
{6CF6065E-C921-45BE-9E14-572D10A7A105}
  9
$EXTNAMES
290
1
  9
$PSVPSCALE
 40
0.0
  9
$OLESTARTUP
290
0
  9
$SORTENTS
280
127
  9
$INDEXCTL
280
0
  9
$HIDETEXT
280
1
  9
$XCLIPFRAME
280
1
  9
$HALOGAP
280
0
  9
$OBSCOLOR
 70
257
  9
$OBSLTYPE
280
0
  9
$INTERSECTIONDISPLAY
280
0
  9
$INTERSECTIONCOLOR
 70
257
  9
$DIMASSOC
280
2
  9
$PROJECTNAME
  1

  9
$CAMERADISPLAY
290
0
  9
$LENSLENGTH
 40
50.0
  9
$CAMERAHEIGHT
 40
0.0
  9
$STEPSPERSEC
 40
24.0
  9
$STEPSIZE
 40
100.0
  9
$3DDWFPREC
 40
2.0
  9
$PSOLWIDTH
 40
0.005
  9
$PSOLHEIGHT
 40
0.08
  9
$LOFTANG1
 40
1.570796326795
  9
$LOFTANG2
 40
1.570796326795
  9
$LOFTMAG1
 40
0.0
  9
$LOFTMAG2
 40
0.0
  9
$LOFTPARAM
 70
7
  9
$LOFTNORMALS
280
1
  9
$LATITUDE
 40
37.795
  9
$LONGITUDE
 40
-122.394
  9
$NORTHDIRECTION
 40
0.0
  9
$TIMEZONE
 70
-8000
  9
$LIGHTGLYPHDISPLAY
280
1
  9
$TILEMODELIGHTSYNCH
280
1
  9
$CMATERIAL
347
20
  9
$SOLIDHIST
280
0
  9
$SHOWHIST
280
1
  9
$DWFFRAME
280
2
  9
$DGNFRAME
280
2
  9
$REALWORLDSCALE
290
1
  9
$INTERFERECOLOR
 62
256
  9
$CSHADOW
280
0
  9
$SHADOWPLANELOCATION
 40
0.0
  0
ENDSEC
  0
SECTION
  2
CLASSES
  0
CLASS
  1
ACDBDICTIONARYWDFLT
  2
AcDbDictionaryWithDefault
  3
ObjectDBX Classes
 90
0
 91
0
280
0
281
0
  0
CLASS
  1
SUN
  2
AcDbSun
  3
SCENEOE
 90
1153
 91
0
280
0
281
0
  0
CLASS
  1
VISUALSTYLE
  2
AcDbVisualStyle
  3
ObjectDBX Classes
 90
4095
 91
0
280
0
281
0
  0
CLASS
  1
MATERIAL
  2
AcDbMaterial
  3
ObjectDBX Classes
 90
1153
 91
0
280
0
281
0
  0
CLASS
  1
SCALE
  2
AcDbScale
  3
ObjectDBX Classes
 90
1153
 91
0
280
0
281
0
  0
CLASS
  1
TABLESTYLE
  2
AcDbTableStyle
  3
ObjectDBX Classes
 90
4095
 91
0
280
0
281
0
  0
CLASS
  1
MLEADERSTYLE
  2
AcDbMLeaderStyle
  3
ACDB_MLEADERSTYLE_CLASS
 90
4095
 91
0
280
0
281
0
  0
CLASS
  1
DICTIONARYVAR
  2
AcDbDictionaryVar
  3
ObjectDBX Classes
 90
0
 91
0
280
0
281
0
  0
CLASS
  1
CELLSTYLEMAP
  2
AcDbCellStyleMap
  3
ObjectDBX Classes
 90
1152
 91
0
280
0
281
0
  0
CLASS
  1
MENTALRAYRENDERSETTINGS
  2
AcDbMentalRayRenderSettings
  3
SCENEOE
 90
1024
 91
0
280
0
281
0
  0
CLASS
  1
ACDBDETAILVIEWSTYLE
  2
AcDbDetailViewStyle
  3
ObjectDBX Classes
 90
1025
 91
0
280
0
281
0
  0
CLASS
  1
ACDBSECTIONVIEWSTYLE
  2
AcDbSectionViewStyle
  3
ObjectDBX Classes
 90
1025
 91
0
280
0
281
0
  0
CLASS
  1
RASTERVARIABLES
  2
AcDbRasterVariables
  3
ISM
 90
0
 91
0
280
0
281
0
  0
CLASS
  1
ACDBPLACEHOLDER
  2
AcDbPlaceHolder
  3
ObjectDBX Classes
 90
0
 91
0
280
0
281
0
  0
CLASS
  1
LAYOUT
  2
AcDbLayout
  3
ObjectDBX Classes
 90
0
 91
0
280
0
281
0
  0
ENDSEC
  0
SECTION
  2
TABLES
  0
TABLE
  2
VPORT
  5
8
330
0
100
AcDbSymbolTable
 70
1
  0
VPORT
  5
23
330
8
100
AcDbSymbolTableRecord
100
AcDbViewportTableRecord
  2
*Active
 70
0
 10
0.0
 20
0.0
 11
1.0
 21
1.0
 12
0.0
 22
0.0
 13
0.0
 23
0.0
 14
0.5
 24
0.5
 15
0.5
 25
0.5
 16
0.0
 26
0.0
 36
1.0
 17
0.0
 27
0.0
 37
0.0
 40
1000.0
 41
1.34
 42
50.0
 43
0.0
 44
0.0
 50
0.0
 51
0.0
 71
0
 72
1000
 73
1
 74
3
 75
0
 76
0
 77
0
 78
0
281
0
 65
0
146
0.0
  0
ENDTAB
  0
TABLE
  2
LTYPE
  5
2
330
0
100
AcDbSymbolTable
 70
21
  0
LTYPE
  5
24
330
2
100
AcDbSymbolTableRecord
100
AcDbLinetypeTableRecord
  2
ByBlock
 70
0
  3

 72
65
 73
0
 40
0.0
  0
LTYPE
  5
25
330
2
100
AcDbSymbolTableRecord
100
AcDbLinetypeTableRecord
  2
ByLayer
 70
0
  3

 72
65
 73
0
 40
0.0
  0
LTYPE
  5
26
330
2
100
AcDbSymbolTableRecord
100
AcDbLinetypeTableRecord
  2
Continuous
 70
0
  3

 72
65
 73
0
 40
0.0
  0
LTYPE
  5
2F
330
2
100
AcDbSymbolTableRecord
100
AcDbLinetypeTableRecord
  2
CENTER
 70
0
  3
Center ____ _ ____ _ ____ _ ____ _ ____ _ ____
 72
65
 73
4
 40
5.08
 49
3.175
 74
0
 49
-0.635
 74
0
 49
0.635
 74
0
 49
-0.635
 74
0
  0
LTYPE
  5
30
330
2
100
AcDbSymbolTableRecord
100
AcDbLinetypeTableRecord
  2
CENTERX2
 70
0
  3
Center (2x) ________  __  ________  __  ________
 72
65
 73
4
 40
8.89
 49
6.35
 74
0
 49
-0.635
 74
0
 49
1.27
 74
0
 49
-0.635
 74
0
  0
LTYPE
  5
31
330
2
100
AcDbSymbolTableRecord
100
AcDbLinetypeTableRecord
  2
CENTER2
 70
0
  3
Center (.5x) ____ _ ____ _ ____ _ ____ _ ____
 72
65
 73
4
 40
2.54
 49
1.587
 74
0
 49
-0.318
 74
0
 49
0.318
 74
0
 49
-0.318
 74
0
  0
LTYPE
  5
32
330
2
100
AcDbSymbolTableRecord
100
AcDbLinetypeTableRecord
  2
DASHED
 70
0
  3
Dashed __ __ __ __ __ __ __ __ __ __ __ __ __ _
 72
65
 73
2
 40
1.524
 49
1.27
 74
0
 49
-0.254
 74
0
  0
LTYPE
  5
33
330
2
100
AcDbSymbolTableRecord
100
AcDbLinetypeTableRecord
  2
DASHEDX2
 70
0
  3
Dashed (2x) ____  ____  ____  ____  ____  ____
 72
65
 73
2
 40
3.048
 49
2.54
 74
0
 49
-0.508
 74
0
  0
LTYPE
  5
34
330
2
100
AcDbSymbolTableRecord
100
AcDbLinetypeTableRecord
  2
DASHED2
 70
0
  3
Dashed (.5x) _ _ _ _ _ _ _ _ _ _ _ _ _ _
 72
65
 73
2
 40
0.762
 49
0.635
 74
0
 49
-0.127
 74
0
  0
LTYPE
  5
35
330
2
100
AcDbSymbolTableRecord
100
AcDbLinetypeTableRecord
  2
PHANTOM
 70
0
  3
Phantom ______  __  __  ______  __  __  ______
 72
65
 73
6
 40
6.35
 49
3.175
 74
0
 49
-0.635
 74
0
 49
0.635
 74
0
 49
-0.635
 74
0
 49
0.635
 74
0
 49
-0.635
 74
0
  0
LTYPE
  5
36
330
2
100
AcDbSymbolTableRecord
100
AcDbLinetypeTableRecord
  2
PHANTOMX2
 70
0
  3
Phantom (2x)____________    ____    ____    ____________
 72
65
 73
6
 40
10.795
 49
6.35
 74
0
 49
-0.635
 74
0
 49
1.27
 74
0
 49
-0.635
 74
0
 49
1.27
 74
0
 49
-0.635
 74
0
  0
LTYPE
  5
37
330
2
100
AcDbSymbolTableRecord
100
AcDbLinetypeTableRecord
  2
PHANTOM2
 70
0
  3
Phantom (.5x) ___ _ _ ___ _ _ ___ _ _ ___ _ _ ___
 72
65
 73
6
 40
3.175
 49
1.587
 74
0
 49
-0.318
 74
0
 49
0.318
 74
0
 49
-0.318
 74
0
 49
0.318
 74
0
 49
-0.318
 74
0
  0
LTYPE
  5
38
330
2
100
AcDbSymbolTableRecord
100
AcDbLinetypeTableRecord
  2
DASHDOT
 70
0
  3
Dash dot __ . __ . __ . __ . __ . __ . __ . __
 72
65
 73
4
 40
3.556
 49
2.54
 74
0
 49
-0.508
 74
0
 49
0.0
 74
0
 49
-0.508
 74
0
  0
LTYPE
  5
39
330
2
100
AcDbSymbolTableRecord
100
AcDbLinetypeTableRecord
  2
DASHDOTX2
 70
0
  3
Dash dot (2x) ____  .  ____  .  ____  .  ____
 72
65
 73
4
 40
6.096
 49
5.08
 74
0
 49
-0.508
 74
0
 49
0.0
 74
0
 49
-0.508
 74
0
  0
LTYPE
  5
3A
330
2
100
AcDbSymbolTableRecord
100
AcDbLinetypeTableRecord
  2
DASHDOT2
 70
0
  3
Dash dot (.5x) _ . _ . _ . _ . _ . _ . _ . _
 72
65
 73
4
 40
1.778
 49
1.27
 74
0
 49
-0.254
 74
0
 49
0.0
 74
0
 49
-0.254
 74
0
  0
LTYPE
  5
3B
330
2
100
AcDbSymbolTableRecord
100
AcDbLinetypeTableRecord
  2
DOT
 70
0
  3
Dot .  .  .  .  .  .  .  .  .  .  .  .  .  .  .  .
 72
65
 73
2
 40
0.508
 49
0.0
 74
0
 49
-0.508
 74
0
  0
LTYPE
  5
3C
330
2
100
AcDbSymbolTableRecord
100
AcDbLinetypeTableRecord
  2
DOTX2
 70
0
  3
Dot (2x) .    .    .    .    .    .    .    . 
 72
65
 73
2
 40
1.016
 49
0.0
 74
0
 49
-1.016
 74
0
  0
LTYPE
  5
3D
330
2
100
AcDbSymbolTableRecord
100
AcDbLinetypeTableRecord
  2
DOT2
 70
0
  3
Dot (.5) . . . . . . . . . . . . . . . . . . . 
 72
65
 73
2
 40
0.254
 49
0.0
 74
0
 49
-0.254
 74
0
  0
LTYPE
  5
3E
330
2
100
AcDbSymbolTableRecord
100
AcDbLinetypeTableRecord
  2
DIVIDE
 70
0
  3
Divide __ . . __ . . __ . . __ . . __ . . __
 72
65
 73
6
 40
4.064
 49
2.54
 74
0
 49
-0.508
 74
0
 49
0.0
 74
0
 49
-0.508
 74
0
 49
0.0
 74
0
 49
-0.508
 74
0
  0
LTYPE
  5
3F
330
2
100
AcDbSymbolTableRecord
100
AcDbLinetypeTableRecord
  2
DIVIDEX2
 70
0
  3
Divide (2x) ____  . .  ____  . .  ____  . .  ____
 72
65
 73
6
 40
6.604
 49
5.08
 74
0
 49
-0.508
 74
0
 49
0.0
 74
0
 49
-0.508
 74
0
 49
0.0
 74
0
 49
-0.508
 74
0
  0
LTYPE
  5
40
330
2
100
AcDbSymbolTableRecord
100
AcDbLinetypeTableRecord
  2
DIVIDE2
 70
0
  3
Divide(.5x) _ . _ . _ . _ . _ . _ . _ . _
 72
65
 73
6
 40
2.032
 49
1.27
 74
0
 49
-0.254
 74
0
 49
0.0
 74
0
 49
-0.254
 74
0
 49
0.0
 74
0
 49
-0.254
 74
0
  0
ENDTAB
  0
TABLE
  2
LAYER
  5
1
330
0
100
AcDbSymbolTable
 70
42
  0
LAYER
  5
27
330
1
100
AcDbSymbolTableRecord
100
AcDbLayerTableRecord
  2
0
 70
0
 62
7
  6
Continuous
370
-3
390
13
347
21
  0
LAYER
  5
28
330
1
100
AcDbSymbolTableRecord
100
AcDbLayerTableRecord
  2
Defpoints
 70
0
 62
7
  6
Continuous
290
0
370
-3
390
13
347
21
  0
LAYER
  5
8B
330
1
100
AcDbSymbolTableRecord
100
AcDbLayerTableRecord
  2
G-FRAME
 70
0
 62
7
  6
Continuous
370
70
390
13
347
21
1001
AcAecLayerStandard
1000

1000
図枠
  0
LAYER
  5
8D
330
1
100
AcDbSymbolTableRecord
100
AcDbLayerTableRecord
  2
G-TITLE
 70
0
 62
7
  6
Continuous
370
25
390
13
347
21
1001
AcAecLayerStandard
1000

1000
表題欄
  0
LAYER
  5
8E
330
1
100
AcDbSymbolTableRecord
100
AcDbLayerTableRecord
  2
G-TABLE
 70
0
 62
7
  6
Continuous
370
18
390
13
347
21
1001
AcAecLayerStandard
1000

1000
表
  0
LAYER
  5
8F
330
1
100
AcDbSymbolTableRecord
100
AcDbLayerTableRecord
  2
A-GRID
 70
0
 62
1
  6
CENTER
370
13
390
13
347
21
1001
AcAecLayerStandard
1000

1000
通り芯（一点鎖線・細線）
  0
LAYER
  5
90
330
1
100
AcDbSymbolTableRecord
100
AcDbLayerTableRecord
  2
A-GRID-SYMB
 70
0
 62
7
  6
Continuous
370
18
390
13
347
21
1001
AcAecLayerStandard
1000

1000
通り芯符号
  0
LAYER
  5
91
330
1
100
AcDbSymbolTableRecord
100
AcDbLayerTableRecord
  2
A-CUT
 70
0
 62
7
  6
Continuous
370
50
390
13
347
21
1001
AcAecLayerStandard
1000

1000
切断面 RC（太線）
  0
LAYER
  5
92
330
1
100
AcDbSymbolTableRecord
100
AcDbLayerTableRecord
  2
A-CUT-HATCH
 70
0
 62
8
  6
Continuous
370
9
390
13
347
21
1001
AcAecLayerStandard
1000

1000
切断面ハッチング
  0
LAYER
  5
93
330
1
100
AcDbSymbolTableRecord
100
AcDbLayerTableRecord
  2
A-CUT-LGS
 70
0
 62
7
  6
Continuous
370
35
390
13
347
21
1001
AcAecLayerStandard
1000

1000
切断面 軽量間仕切（中線）
  0
LAYER
  5
94
330
1
100
AcDbSymbolTableRecord
100
AcDbLayerTableRecord
  2
A-CUT-INS
 70
0
 62
9
  6
Continuous
370
9
390
13
347
21
1001
AcAecLayerStandard
1000

1000
切断面 断熱材ハッチング
  0
LAYER
  5
95
330
1
100
AcDbSymbolTableRecord
100
AcDbLayerTableRecord
  2
A-FENCE
 70
0
 62
7
  6
Continuous
370
35
390
13
347
21
1001
AcAecLayerStandard
1000

1000
RC塀
  0
LAYER
  5
96
330
1
100
AcDbSymbolTableRecord
100
AcDbLayerTableRecord
  2
A-PAVE
 70
0
 62
3
  6
Continuous
370
13
390
13
347
21
1001
AcAecLayerStandard
1000

1000
舗装（透水性 Dotcon+）
  0
LAYER
  5
97
330
1
100
AcDbSymbolTableRecord
100
AcDbLayerTableRecord
  2
A-DRAIN
 70
0
 62
5
  6
DASHED
370
25
390
13
347
21
1001
AcAecLayerStandard
1000

1000
雨水排水・浸透施設
  0
LAYER
  5
98
330
1
100
AcDbSymbolTableRecord
100
AcDbLayerTableRecord
  2
A-NEIGH
 70
0
 62
8
  6
Continuous
370
13
390
13
347
21
1001
AcAecLayerStandard
1000

1000
隣接建物（基盤地図情報）
  0
LAYER
  5
99
330
1
100
AcDbSymbolTableRecord
100
AcDbLayerTableRecord
  2
A-WATER
 70
0
 62
5
  6
Continuous
370
18
390
13
347
21
1001
AcAecLayerStandard
1000

1000
水路
  0
LAYER
  5
9A
330
1
100
AcDbSymbolTableRecord
100
AcDbLayerTableRecord
  2
A-TERRAIN
 70
0
 62
30
  6
Continuous
370
25
390
13
347
21
1001
AcAecLayerStandard
1000

1000
地形断面（DEM）
  0
LAYER
  5
9B
330
1
100
AcDbSymbolTableRecord
100
AcDbLayerTableRecord
  2
A-FLOOD
 70
0
 62
5
  6
DASHDOT
370
25
390
13
347
21
1001
AcAecLayerStandard
1000

1000
想定浸水深
  0
LAYER
  5
9C
330
1
100
AcDbSymbolTableRecord
100
AcDbLayerTableRecord
  2
A-FLOW
 70
0
 62
6
  6
DASHED
370
35
390
13
347
21
1001
AcAecLayerStandard
1000

1000
動線（回遊・家事・搬入）
  0
LAYER
  5
9D
330
1
100
AcDbSymbolTableRecord
100
AcDbLayerTableRecord
  2
A-VIS
 70
0
 62
7
  6
Continuous
370
18
390
13
347
21
1001
AcAecLayerStandard
1000

1000
見え掛り（細線）
  0
LAYER
  5
9E
330
1
100
AcDbSymbolTableRecord
100
AcDbLayerTableRecord
  2
A-HIDDEN
 70
0
 62
8
  6
HIDDEN
370
13
390
13
347
21
1001
AcAecLayerStandard
1000

1000
隠れ線（破線）
  0
LAYER
  5
9F
330
1
100
AcDbSymbolTableRecord
100
AcDbLayerTableRecord
  2
A-GLAZ
 70
0
 62
5
  6
Continuous
370
18
390
13
347
21
1001
AcAecLayerStandard
1000

1000
建具・ガラス
  0
LAYER
  5
A0
330
1
100
AcDbSymbolTableRecord
100
AcDbLayerTableRecord
  2
A-DOOR
 70
0
 62
5
  6
Continuous
370
18
390
13
347
21
1001
AcAecLayerStandard
1000

1000
扉・開き勝手
  0
LAYER
  5
A1
330
1
100
AcDbSymbolTableRecord
100
AcDbLayerTableRecord
  2
A-STRS
 70
0
 62
7
  6
Continuous
370
18
390
13
347
21
1001
AcAecLayerStandard
1000

1000
階段
  0
LAYER
  5
A2
330
1
100
AcDbSymbolTableRecord
100
AcDbLayerTableRecord
  2
A-ROOM
 70
0
 62
7
  6
Continuous
370
18
390
13
347
21
1001
AcAecLayerStandard
1000

1000
室名・面積
  0
LAYER
  5
A3
330
1
100
AcDbSymbolTableRecord
100
AcDbLayerTableRecord
  2
A-DIMS
 70
0
 62
7
  6
Continuous
370
13
390
13
347
21
1001
AcAecLayerStandard
1000

1000
寸法
  0
LAYER
  5
A4
330
1
100
AcDbSymbolTableRecord
100
AcDbLayerTableRecord
  2
A-TEXT
 70
0
 62
7
  6
Continuous
370
18
390
13
347
21
1001
AcAecLayerStandard
1000

1000
注記
  0
LAYER
  5
A5
330
1
100
AcDbSymbolTableRecord
100
AcDbLayerTableRecord
  2
A-SYMB
 70
0
 62
7
  6
Continuous
370
18
390
13
347
21
1001
AcAecLayerStandard
1000

1000
記号（方位・切断・レベル）
  0
LAYER
  5
A6
330
1
100
AcDbSymbolTableRecord
100
AcDbLayerTableRecord
  2
A-SITE
 70
0
 62
3
  6
PHANTOM
370
25
390
13
347
21
1001
AcAecLayerStandard
1000

1000
敷地境界線（二点鎖線）
  0
LAYER
  5
A7
330
1
100
AcDbSymbolTableRecord
100
AcDbLayerTableRecord
  2
A-ROAD
 70
0
 62
8
  6
Continuous
370
18
390
13
347
21
1001
AcAecLayerStandard
1000

1000
道路
  0
LAYER
  5
A8
330
1
100
AcDbSymbolTableRecord
100
AcDbLayerTableRecord
  2
A-GROUND
 70
0
 62
7
  6
Continuous
370
50
390
13
347
21
1001
AcAecLayerStandard
1000

1000
地盤面 GL
  0
LAYER
  5
A9
330
1
100
AcDbSymbolTableRecord
100
AcDbLayerTableRecord
  2
A-LEGAL
 70
0
 62
1
  6
DASHED
370
25
390
13
347
21
1001
AcAecLayerStandard
1000

1000
法規制ライン（斜線・延焼ライン）
  0
LAYER
  5
AA
330
1
100
AcDbSymbolTableRecord
100
AcDbLayerTableRecord
  2
A-LEGAL-TEXT
 70
0
 62
1
  6
Continuous
370
18
390
13
347
21
1001
AcAecLayerStandard
1000

1000
法規注記
  0
LAYER
  5
AB
330
1
100
AcDbSymbolTableRecord
100
AcDbLayerTableRecord
  2
A-FIRE
 70
0
 62
6
  6
DASHDOT
370
25
390
13
347
21
1001
AcAecLayerStandard
1000

1000
延焼のおそれのある部分
  0
LAYER
  5
AC
330
1
100
AcDbSymbolTableRecord
100
AcDbLayerTableRecord
  2
A-ALT
 70
0
 62
1
  6
Continuous
370
35
390
13
347
21
1001
AcAecLayerStandard
1000

1000
代替進入口
  0
LAYER
  5
AD
330
1
100
AcDbSymbolTableRecord
100
AcDbLayerTableRecord
  2
S-COLS
 70
0
 62
7
  6
Continuous
370
50
390
13
347
21
1001
AcAecLayerStandard
1000

1000
構造 柱
  0
LAYER
  5
AE
330
1
100
AcDbSymbolTableRecord
100
AcDbLayerTableRecord
  2
S-BEAM
 70
0
 62
7
  6
HIDDEN
370
25
390
13
347
21
1001
AcAecLayerStandard
1000

1000
構造 梁（伏図・隠れ）
  0
LAYER
  5
AF
330
1
100
AcDbSymbolTableRecord
100
AcDbLayerTableRecord
  2
S-BEAM-V
 70
0
 62
7
  6
Continuous
370
35
390
13
347
21
1001
AcAecLayerStandard
1000

1000
構造 梁（見え）
  0
LAYER
  5
B0
330
1
100
AcDbSymbolTableRecord
100
AcDbLayerTableRecord
  2
S-FNDN
 70
0
 62
7
  6
HIDDEN
370
25
390
13
347
21
1001
AcAecLayerStandard
1000

1000
構造 基礎
  0
LAYER
  5
B1
330
1
100
AcDbSymbolTableRecord
100
AcDbLayerTableRecord
  2
S-SLAB
 70
0
 62
7
  6
Continuous
370
18
390
13
347
21
1001
AcAecLayerStandard
1000

1000
構造 スラブ
  0
LAYER
  5
B2
330
1
100
AcDbSymbolTableRecord
100
AcDbLayerTableRecord
  2
S-REBAR
 70
0
 62
1
  6
Continuous
370
35
390
13
347
21
1001
AcAecLayerStandard
1000

1000
鉄筋
  0
LAYER
  5
B3
330
1
100
AcDbSymbolTableRecord
100
AcDbLayerTableRecord
  2
S-TEXT
 70
0
 62
7
  6
Continuous
370
18
390
13
347
21
1001
AcAecLayerStandard
1000

1000
構造 注記
  0
ENDTAB
  0
TABLE
  2
STYLE
  5
5
330
0
100
AcDbSymbolTable
 70
27
  0
STYLE
  5
29
330
5
100
AcDbSymbolTableRecord
100
AcDbTextStyleTableRecord
  2
Standard
 70
0
 40
0.0
 41
1.0
 50
0.0
 71
0
 42
2.5
  3
ipag.ttf
  4

  0
STYLE
  5
41
330
5
100
AcDbSymbolTableRecord
100
AcDbTextStyleTableRecord
  2
OpenSans-Light
 70
0
 40
0.0
 41
1.0
 50
0.0
 71
0
 42
2.5
  3
OpenSans-Light.ttf
  4

  0
STYLE
  5
42
330
5
100
AcDbSymbolTableRecord
100
AcDbTextStyleTableRecord
  2
OpenSans-Light-Italic
 70
0
 40
0.0
 41
1.0
 50
0.0
 71
0
 42
2.5
  3
OpenSans-LightItalic.ttf
  4

  0
STYLE
  5
43
330
5
100
AcDbSymbolTableRecord
100
AcDbTextStyleTableRecord
  2
OpenSans
 70
0
 40
0.0
 41
1.0
 50
0.0
 71
0
 42
2.5
  3
OpenSans-Regular.ttf
  4

  0
STYLE
  5
44
330
5
100
AcDbSymbolTableRecord
100
AcDbTextStyleTableRecord
  2
OpenSans-Italic
 70
0
 40
0.0
 41
1.0
 50
0.0
 71
0
 42
2.5
  3
OpenSans-Italic.ttf
  4

  0
STYLE
  5
45
330
5
100
AcDbSymbolTableRecord
100
AcDbTextStyleTableRecord
  2
OpenSans-SemiBold
 70
0
 40
0.0
 41
1.0
 50
0.0
 71
0
 42
2.5
  3
OpenSans-SemiBold.ttf
  4

  0
STYLE
  5
46
330
5
100
AcDbSymbolTableRecord
100
AcDbTextStyleTableRecord
  2
OpenSans-SemiBoldItalic
 70
0
 40
0.0
 41
1.0
 50
0.0
 71
0
 42
2.5
  3
OpenSans-SemiBoldItalic.ttf
  4

  0
STYLE
  5
47
330
5
100
AcDbSymbolTableRecord
100
AcDbTextStyleTableRecord
  2
OpenSans-Bold
 70
0
 40
0.0
 41
1.0
 50
0.0
 71
0
 42
2.5
  3
OpenSans-Bold.ttf
  4

  0
STYLE
  5
48
330
5
100
AcDbSymbolTableRecord
100
AcDbTextStyleTableRecord
  2
OpenSans-BoldItalic
 70
0
 40
0.0
 41
1.0
 50
0.0
 71
0
 42
2.5
  3
OpenSans-BoldItalic.ttf
  4

  0
STYLE
  5
49
330
5
100
AcDbSymbolTableRecord
100
AcDbTextStyleTableRecord
  2
OpenSans-ExtraBold
 70
0
 40
0.0
 41
1.0
 50
0.0
 71
0
 42
2.5
  3
OpenSans-ExtraBold.ttf
  4

  0
STYLE
  5
4A
330
5
100
AcDbSymbolTableRecord
100
AcDbTextStyleTableRecord
  2
OpenSans-ExtraBoldItalic
 70
0
 40
0.0
 41
1.0
 50
0.0
 71
0
 42
2.5
  3
OpenSans-ExtraBoldItalic.ttf
  4

  0
STYLE
  5
4B
330
5
100
AcDbSymbolTableRecord
100
AcDbTextStyleTableRecord
  2
OpenSansCondensed-Bold
 70
0
 40
0.0
 41
1.0
 50
0.0
 71
0
 42
2.5
  3
OpenSansCondensed-Bold.ttf
  4

  0
STYLE
  5
4C
330
5
100
AcDbSymbolTableRecord
100
AcDbTextStyleTableRecord
  2
OpenSansCondensed-Light
 70
0
 40
0.0
 41
1.0
 50
0.0
 71
0
 42
2.5
  3
OpenSansCondensed-Light.ttf
  4

  0
STYLE
  5
4D
330
5
100
AcDbSymbolTableRecord
100
AcDbTextStyleTableRecord
  2
OpenSansCondensed-Italic
 70
0
 40
0.0
 41
1.0
 50
0.0
 71
0
 42
2.5
  3
OpenSansCondensed-LightItalic.ttf
  4

  0
STYLE
  5
4E
330
5
100
AcDbSymbolTableRecord
100
AcDbTextStyleTableRecord
  2
LiberationSans
 70
0
 40
0.0
 41
1.0
 50
0.0
 71
0
 42
2.5
  3
LiberationSans-Regular.ttf
  4

  0
STYLE
  5
4F
330
5
100
AcDbSymbolTableRecord
100
AcDbTextStyleTableRecord
  2
LiberationSans-Bold
 70
0
 40
0.0
 41
1.0
 50
0.0
 71
0
 42
2.5
  3
LiberationSans-Bold.ttf
  4

  0
STYLE
  5
50
330
5
100
AcDbSymbolTableRecord
100
AcDbTextStyleTableRecord
  2
LiberationSans-BoldItalic
 70
0
 40
0.0
 41
1.0
 50
0.0
 71
0
 42
2.5
  3
LiberationSans-BoldItalic.ttf
  4

  0
STYLE
  5
51
330
5
100
AcDbSymbolTableRecord
100
AcDbTextStyleTableRecord
  2
LiberationSans-Italic
 70
0
 40
0.0
 41
1.0
 50
0.0
 71
0
 42
2.5
  3
LiberationSans-Italic.ttf
  4

  0
STYLE
  5
52
330
5
100
AcDbSymbolTableRecord
100
AcDbTextStyleTableRecord
  2
LiberationSerif
 70
0
 40
0.0
 41
1.0
 50
0.0
 71
0
 42
2.5
  3
LiberationSerif-Regular.ttf
  4

  0
STYLE
  5
53
330
5
100
AcDbSymbolTableRecord
100
AcDbTextStyleTableRecord
  2
LiberationSerif-Bold
 70
0
 40
0.0
 41
1.0
 50
0.0
 71
0
 42
2.5
  3
LiberationSerif-Bold.ttf
  4

  0
STYLE
  5
54
330
5
100
AcDbSymbolTableRecord
100
AcDbTextStyleTableRecord
  2
LiberationSerif-BoldItalic
 70
0
 40
0.0
 41
1.0
 50
0.0
 71
0
 42
2.5
  3
LiberationSerif-BoldItalic.ttf
  4

  0
STYLE
  5
55
330
5
100
AcDbSymbolTableRecord
100
AcDbTextStyleTableRecord
  2
LiberationSerif-Italic
 70
0
 40
0.0
 41
1.0
 50
0.0
 71
0
 42
2.5
  3
LiberationSerif-Italic.ttf
  4

  0
STYLE
  5
56
330
5
100
AcDbSymbolTableRecord
100
AcDbTextStyleTableRecord
  2
LiberationMono
 70
0
 40
0.0
 41
1.0
 50
0.0
 71
0
 42
2.5
  3
LiberationMono-Regular.ttf
  4

  0
STYLE
  5
57
330
5
100
AcDbSymbolTableRecord
100
AcDbTextStyleTableRecord
  2
LiberationMono-Bold
 70
0
 40
0.0
 41
1.0
 50
0.0
 71
0
 42
2.5
  3
LiberationMono-Bold.ttf
  4

  0
STYLE
  5
58
330
5
100
AcDbSymbolTableRecord
100
AcDbTextStyleTableRecord
  2
LiberationMono-BoldItalic
 70
0
 40
0.0
 41
1.0
 50
0.0
 71
0
 42
2.5
  3
LiberationMono-BoldItalic.ttf
  4

  0
STYLE
  5
59
330
5
100
AcDbSymbolTableRecord
100
AcDbTextStyleTableRecord
  2
LiberationMono-Italic
 70
0
 40
0.0
 41
1.0
 50
0.0
 71
0
 42
2.5
  3
LiberationMono-Italic.ttf
  4

  0
STYLE
  5
8A
330
5
100
AcDbSymbolTableRecord
100
AcDbTextStyleTableRecord
  2
JP
 70
0
 40
0.0
 41
1.0
 50
0.0
 71
0
 42
2.5
  3
ipag.ttf
  4

  0
ENDTAB
  0
TABLE
  2
VIEW
  5
7
330
0
100
AcDbSymbolTable
 70
0
  0
ENDTAB
  0
TABLE
  2
UCS
  5
6
330
0
100
AcDbSymbolTable
 70
0
  0
ENDTAB
  0
TABLE
  2
APPID
  5
3
330
0
100
AcDbSymbolTable
 70
4
  0
APPID
  5
2A
330
3
100
AcDbSymbolTableRecord
100
AcDbRegAppTableRecord
  2
ACAD
 70
0
  0
APPID
  5
8C
330
3
100
AcDbSymbolTableRecord
100
AcDbRegAppTableRecord
  2
AcAecLayerStandard
 70
0
  0
APPID
  5
19F
330
3
100
AcDbSymbolTableRecord
100
AcDbRegAppTableRecord
  2
HATCHBACKGROUNDCOLOR
 70
0
  0
APPID
  5
1A0
330
3
100
AcDbSymbolTableRecord
100
AcDbRegAppTableRecord
  2
EZDXF
 70
0
  0
ENDTAB
  0
TABLE
  2
DIMSTYLE
  5
4
330
0
100
AcDbSymbolTable
 70
13
100
AcDbDimStyleTable
  0
DIMSTYLE
105
2B
330
4
100
AcDbSymbolTableRecord
100
AcDbDimStyleTableRecord
  2
Standard
 70
0
 40
1.0
 41
2.5
 42
0.625
 43
3.75
 44
1.25
 45
0.0
 46
0.0
 47
0.0
 48
0.0
 49
2.5
140
2.5
141
2.5
142
0.0
143
0.03937007874
144
1.0
145
0.0
146
1.0
147
0.625
148
0.0
 69
0
 70
0
 71
0
 72
0
 73
0
 74
0
 75
0
 76
0
 77
1
 78
8
 79
3
170
0
171
3
172
1
173
0
174
0
175
0
176
0
177
0
178
0
179
2
271
2
272
2
273
2
274
3
275
0
276
0
277
2
278
44
279
0
280
0
281
0
282
0
283
0
284
8
285
0
286
0
288
0
289
3
290
0
371
-2
372
-2
  0
DIMSTYLE
105
73
330
4
100
AcDbSymbolTableRecord
100
AcDbDimStyleTableRecord
  2
EZDXF
 70
0
 40
1.0
 41
0.175
 42
0.125
 43
3.75
 44
0.375
 45
0.0
 46
0.0
 47
0.0
 48
0.0
 49
2.5
140
0.25
141
2.5
142
0.0
143
0.03937007874
144
100.0
145
0.0
146
0.5
147
0.1
148
0.0
 69
0
 70
0
 71
0
 72
0
 73
0
 74
0
 75
0
 76
0
 77
1
 78
12
 79
3
170
0
171
3
172
1
173
0
174
0
175
0
176
0
177
0
178
0
179
2
271
2
272
2
273
2
274
3
275
0
276
0
277
2
278
46
279
2
280
0
281
0
282
0
283
0
284
8
285
0
286
0
288
1
289
3
290
0
340
4C
342
74
371
-2
372
-2
  0
DIMSTYLE
105
7C
330
4
100
AcDbSymbolTableRecord
100
AcDbDimStyleTableRecord
  2
EZ_M_100_H25_CM
 70
0
 40
1.0
 41
0.25
 42
0.125
 43
3.75
 44
0.375
 45
0.0
 46
0.0
 47
0.0
 48
0.0
 49
2.5
140
0.25
141
2.5
142
0.125
143
0.03937007874
144
100.0
145
0.0
146
0.5
147
0.1
148
0.0
 69
0
 70
0
 71
0
 72
0
 73
0
 74
0
 75
0
 76
0
 77
1
 78
12
 79
3
170
0
171
3
172
1
173
0
174
0
175
0
176
0
177
0
178
0
179
2
271
2
272
2
273
2
274
3
275
0
276
0
277
2
278
46
279
2
280
0
281
0
282
0
283
0
284
8
285
0
286
0
288
1
289
3
290
0
340
4C
371
-2
372
-2
  0
DIMSTYLE
105
7D
330
4
100
AcDbSymbolTableRecord
100
AcDbDimStyleTableRecord
  2
EZ_M_50_H25_CM
 70
0
 40
1.0
 41
0.125
 42
0.0625
 43
3.75
 44
0.1875
 45
0.0
 46
0.0
 47
0.0
 48
0.0
 49
2.5
140
0.125
141
2.5
142
0.0625
143
0.03937007874
144
100.0
145
0.0
146
0.5
147
0.05
148
0.0
 69
0
 70
0
 71
0
 72
0
 73
0
 74
0
 75
0
 76
0
 77
1
 78
12
 79
3
170
0
171
3
172
1
173
0
174
0
175
0
176
0
177
0
178
0
179
2
271
2
272
2
273
2
274
3
275
0
276
0
277
2
278
46
279
2
280
0
281
0
282
0
283
0
284
8
285
0
286
0
288
1
289
3
290
0
340
4C
371
-2
372
-2
  0
DIMSTYLE
105
7E
330
4
100
AcDbSymbolTableRecord
100
AcDbDimStyleTableRecord
  2
EZ_M_25_H25_CM
 70
0
 40
1.0
 41
0.0625
 42
0.03125
 43
3.75
 44
0.09375
 45
0.0
 46
0.0
 47
0.0
 48
0.0
 49
2.5
140
0.0625
141
2.5
142
0.03125
143
0.03937007874
144
100.0
145
0.0
146
0.5
147
0.025
148
0.0
 69
0
 70
0
 71
0
 72
0
 73
0
 74
0
 75
0
 76
0
 77
1
 78
12
 79
3
170
0
171
3
172
1
173
0
174
0
175
0
176
0
177
0
178
0
179
2
271
2
272
2
273
2
274
3
275
0
276
0
277
2
278
46
279
2
280
0
281
0
282
0
283
0
284
8
285
0
286
0
288
1
289
3
290
0
340
4C
371
-2
372
-2
  0
DIMSTYLE
105
7F
330
4
100
AcDbSymbolTableRecord
100
AcDbDimStyleTableRecord
  2
EZ_M_20_H25_CM
 70
0
 40
1.0
 41
0.05
 42
0.025
 43
3.75
 44
0.07500000000000001
 45
0.0
 46
0.0
 47
0.0
 48
0.0
 49
2.5
140
0.05
141
2.5
142
0.025
143
0.03937007874
144
100.0
145
0.0
146
0.5
147
0.020000000000000004
148
0.0
 69
0
 70
0
 71
0
 72
0
 73
0
 74
0
 75
0
 76
0
 77
1
 78
12
 79
3
170
0
171
3
172
1
173
0
174
0
175
0
176
0
177
0
178
0
179
2
271
2
272
2
273
2
274
3
275
0
276
0
277
2
278
46
279
2
280
0
281
0
282
0
283
0
284
8
285
0
286
0
288
1
289
3
290
0
340
4C
371
-2
372
-2
  0
DIMSTYLE
105
80
330
4
100
AcDbSymbolTableRecord
100
AcDbDimStyleTableRecord
  2
EZ_M_10_H25_CM
 70
0
 40
1.0
 41
0.025
 42
0.0125
 43
3.75
 44
0.037500000000000006
 45
0.0
 46
0.0
 47
0.0
 48
0.0
 49
2.5
140
0.025
141
2.5
142
0.0125
143
0.03937007874
144
100.0
145
0.0
146
0.5
147
0.010000000000000002
148
0.0
 69
0
 70
0
 71
0
 72
0
 73
0
 74
0
 75
0
 76
0
 77
1
 78
12
 79
3
170
0
171
3
172
1
173
0
174
0
175
0
176
0
177
0
178
0
179
2
271
2
272
2
273
2
274
3
275
0
276
0
277
2
278
46
279
2
280
0
281
0
282
0
283
0
284
8
285
0
286
0
288
1
289
3
290
0
340
4C
371
-2
372
-2
  0
DIMSTYLE
105
81
330
4
100
AcDbSymbolTableRecord
100
AcDbDimStyleTableRecord
  2
EZ_M_5_H25_CM
 70
0
 40
1.0
 41
0.0125
 42
0.00625
 43
3.75
 44
0.018750000000000003
 45
0.0
 46
0.0
 47
0.0
 48
0.0
 49
2.5
140
0.0125
141
2.5
142
0.00625
143
0.03937007874
144
100.0
145
0.0
146
0.5
147
0.005000000000000001
148
0.0
 69
0
 70
0
 71
0
 72
0
 73
0
 74
0
 75
0
 76
0
 77
1
 78
12
 79
3
170
0
171
3
172
1
173
0
174
0
175
0
176
0
177
0
178
0
179
2
271
2
272
2
273
2
274
3
275
0
276
0
277
2
278
46
279
2
280
0
281
0
282
0
283
0
284
8
285
0
286
0
288
1
289
3
290
0
340
4C
371
-2
372
-2
  0
DIMSTYLE
105
82
330
4
100
AcDbSymbolTableRecord
100
AcDbDimStyleTableRecord
  2
EZ_M_1_H25_CM
 70
0
 40
1.0
 41
0.0025
 42
0.00125
 43
3.75
 44
0.00375
 45
0.0
 46
0.0
 47
0.0
 48
0.0
 49
2.5
140
0.0025
141
2.5
142
0.00125
143
0.03937007874
144
100.0
145
0.0
146
0.5
147
0.001
148
0.0
 69
0
 70
0
 71
0
 72
0
 73
0
 74
0
 75
0
 76
0
 77
1
 78
12
 79
3
170
0
171
3
172
1
173
0
174
0
175
0
176
0
177
0
178
0
179
2
271
2
272
2
273
2
274
3
275
0
276
0
277
2
278
46
279
2
280
0
281
0
282
0
283
0
284
8
285
0
286
0
288
1
289
3
290
0
340
4C
371
-2
372
-2
  0
DIMSTYLE
105
83
330
4
100
AcDbSymbolTableRecord
100
AcDbDimStyleTableRecord
  2
EZ_RADIUS
 70
0
 40
1.0
 41
0.25
 42
0.125
 43
3.75
 44
0.375
 45
0.0
 46
0.0
 47
0.0
 48
0.0
 49
2.5
140
0.25
141
0.0
142
0.0
143
0.03937007874
144
100.0
145
0.0
146
0.5
147
0.1
148
0.0
 69
0
 70
0
 71
0
 72
0
 73
0
 74
0
 75
0
 76
0
 77
1
 78
12
 79
3
170
0
171
3
172
0
173
0
174
0
175
0
176
0
177
0
178
0
179
2
271
2
272
2
273
2
274
3
275
0
276
0
277
2
278
46
279
1
280
0
281
0
282
0
283
0
284
8
285
0
286
0
288
1
289
3
290
0
340
4C
342
84
371
-2
372
-2
  0
DIMSTYLE
105
88
330
4
100
AcDbSymbolTableRecord
100
AcDbDimStyleTableRecord
  2
EZ_RADIUS_INSIDE
 70
0
 40
1.0
 41
0.25
 42
0.125
 43
3.75
 44
0.375
 45
0.0
 46
0.0
 47
0.0
 48
0.0
 49
2.5
140
0.25
141
0.0
142
0.0
143
0.03937007874
144
100.0
145
0.0
146
0.5
147
0.1
148
0.0
 69
0
 70
0
 71
0
 72
0
 73
0
 74
0
 75
0
 76
0
 77
0
 78
12
 79
3
170
0
171
3
172
0
173
0
174
1
175
0
176
0
177
0
178
0
179
2
271
2
272
2
273
2
274
3
275
0
276
0
277
2
278
46
279
0
280
0
281
0
282
0
283
0
284
8
285
0
286
0
288
1
289
0
290
0
340
4C
342
84
371
-2
372
-2
  0
DIMSTYLE
105
89
330
4
100
AcDbSymbolTableRecord
100
AcDbDimStyleTableRecord
  2
EZ_CURVED
 70
0
 40
1.0
 41
0.25
 42
0.125
 43
3.75
 44
0.375
 45
0.0
 46
0.0
 47
0.0
 48
0.0
 49
2.5
140
0.25
141
2.5
142
0.0
143
0.03937007874
144
100.0
145
0.0
146
0.5
147
0.1
148
0.0
 69
0
 70
0
 71
0
 72
0
 73
0
 74
0
 75
0
 76
0
 77
1
 78
12
 79
2
 90
2
170
0
171
3
172
1
173
0
174
0
175
0
176
0
177
0
178
0
179
2
271
2
272
2
273
2
274
3
275
0
276
0
277
2
278
46
279
2
280
0
281
0
282
0
283
0
284
8
285
0
286
0
288
1
289
3
290
0
340
4C
371
-2
372
-2
  0
DIMSTYLE
105
B4
330
4
100
AcDbSymbolTableRecord
100
AcDbDimStyleTableRecord
  2
JIS
 70
0
 40
200.0
 41
1.0
 42
1.0
 43
3.75
 44
1.0
 45
0.0
 46
0.0
 47
0.0
 48
0.0
 49
2.5
140
2.0
141
2.5
142
0.0
143
0.03937007874
144
1.0
145
0.0
146
1.0
147
0.6
148
0.0
 69
0
 70
0
 71
0
 72
0
 73
0
 74
0
 75
0
 76
0
 77
1
 78
8
 79
3
170
0
171
3
172
1
173
0
174
0
175
0
176
7
177
7
178
7
179
2
271
0
272
2
273
2
274
3
275
0
276
0
277
2
278
44
279
0
280
0
281
0
282
0
283
0
284
8
285
0
286
0
288
0
289
3
290
0
340
8A
342
1A2
371
13
372
13
  0
ENDTAB
  0
TABLE
  2
BLOCK_RECORD
  5
9
330
0
100
AcDbSymbolTable
 70
6
  0
BLOCK_RECORD
  5
17
330
9
100
AcDbSymbolTableRecord
100
AcDbBlockTableRecord
  2
*Model_Space
340
1A
 70
0
280
1
281
0
  0
BLOCK_RECORD
  5
1B
330
9
100
AcDbSymbolTableRecord
100
AcDbBlockTableRecord
  2
*Paper_Space
340
1E
 70
0
280
1
281
0
  0
BLOCK_RECORD
  5
74
330
9
100
AcDbSymbolTableRecord
100
AcDbBlockTableRecord
  2
_ARCHTICK
340
0
 70
0
280
1
281
0
  0
BLOCK_RECORD
  5
78
330
9
100
AcDbSymbolTableRecord
100
AcDbBlockTableRecord
  2
_CLOSEDFILLED
340
0
 70
0
280
1
281
0
  0
BLOCK_RECORD
  5
84
330
9
100
AcDbSymbolTableRecord
100
AcDbBlockTableRecord
  2
_CLOSEDBLANK
340
0
 70
0
280
1
281
0
  0
BLOCK_RECORD
  5
1A2
330
9
100
AcDbSymbolTableRecord
100
AcDbBlockTableRecord
  2
_DOT
340
0
 70
0
280
1
281
0
  0
ENDTAB
  0
ENDSEC
  0
SECTION
  2
BLOCKS
  0
BLOCK
  5
18
330
17
100
AcDbEntity
  8
0
100
AcDbBlockBegin
  2
*Model_Space
 70
0
 10
0.0
 20
0.0
 30
0.0
  3
*Model_Space
  1

  0
ENDBLK
  5
19
330
17
100
AcDbEntity
  8
0
100
AcDbBlockEnd
  0
BLOCK
  5
1C
330
1B
100
AcDbEntity
  8
0
100
AcDbBlockBegin
  2
*Paper_Space
 70
0
 10
0.0
 20
0.0
 30
0.0
  3
*Paper_Space
  1

  0
ENDBLK
  5
1D
330
1B
100
AcDbEntity
  8
0
100
AcDbBlockEnd
  0
BLOCK
  5
75
330
74
100
AcDbEntity
  8
0
100
AcDbBlockBegin
  2
_ARCHTICK
 70
0
 10
0.0
 20
0.0
 30
0.0
  3
_ARCHTICK
  1

  0
LWPOLYLINE
  5
77
330
74
100
AcDbEntity
  8
0
  6
BYBLOCK
 62
0
100
AcDbPolyline
 90
2
 70
0
 43
0.15
 10
-0.5
 20
-0.5
 10
0.5
 20
0.5
  0
ENDBLK
  5
76
330
74
100
AcDbEntity
  8
0
100
AcDbBlockEnd
  0
BLOCK
  5
79
330
78
100
AcDbEntity
  8
0
100
AcDbBlockBegin
  2
_CLOSEDFILLED
 70
0
 10
0.0
 20
0.0
 30
0.0
  3
_CLOSEDFILLED
  1

  0
SOLID
  5
7B
330
78
100
AcDbEntity
  8
0
  6
BYBLOCK
 62
0
100
AcDbTrace
 10
-1.0
 20
0.16439898372402537
 30
0.0
 11
0.0
 21
0.0
 31
0.0
 12
-1.0
 22
-0.16439898372402537
 32
0.0
 13
-1.0
 23
-0.16439898372402537
 33
0.0
  0
ENDBLK
  5
7A
330
78
100
AcDbEntity
  8
0
100
AcDbBlockEnd
  0
BLOCK
  5
85
330
84
100
AcDbEntity
  8
0
100
AcDbBlockBegin
  2
_CLOSEDBLANK
 70
0
 10
0.0
 20
0.0
 30
0.0
  3
_CLOSEDBLANK
  1

  0
LWPOLYLINE
  5
87
330
84
100
AcDbEntity
  8
0
  6
BYBLOCK
 62
0
100
AcDbPolyline
 90
3
 70
1
 10
-1.0
 20
0.16439898372402537
 10
0.0
 20
0.0
 10
-1.0
 20
-0.16439898372402537
  0
ENDBLK
  5
86
330
84
100
AcDbEntity
  8
0
100
AcDbBlockEnd
  0
BLOCK
  5
1A3
330
1A2
100
AcDbEntity
  8
0
100
AcDbBlockBegin
  2
_DOT
 70
0
 10
0.0
 20
0.0
 30
0.0
  3
_DOT
  1

  0
LINE
  5
1A5
330
1A2
100
AcDbEntity
  8
0
  6
BYBLOCK
 62
0
100
AcDbLine
 10
-0.5
 20
0.0
 30
0.0
 11
-1.0
 21
0.0
 31
0.0
  0
LWPOLYLINE
  5
1A6
330
1A2
100
AcDbEntity
  8
0
  6
BYBLOCK
 62
0
100
AcDbPolyline
 90
2
 70
1
 43
0.5
 10
-0.25
 20
0.0
 42
1.0
 10
0.25
 20
0.0
 42
1.0
  0
ENDBLK
  5
1A4
330
1A2
100
AcDbEntity
  8
0
100
AcDbBlockEnd
  0
ENDSEC
  0
SECTION
  2
ENTITIES
  0
LWPOLYLINE
  5
B5
330
17
100
AcDbEntity
  8
G-FRAME
370
0
100
AcDbPolyline
 90
4
 70
1
 10
0.0
 20
0.0
 10
84000.0
 20
0.0
 10
84000.0
 20
59400.0
 10
0.0
 20
59400.0
  0
LWPOLYLINE
  5
B6
330
17
100
AcDbEntity
  8
G-FRAME
100
AcDbPolyline
 90
4
 70
1
 10
2000.0
 20
2000.0
 10
82000.0
 20
2000.0
 10
82000.0
 20
57400.0
 10
2000.0
 20
57400.0
  0
LWPOLYLINE
  5
B7
330
17
100
AcDbEntity
  8
G-TITLE
370
50
100
AcDbPolyline
 90
4
 70
1
 10
44000.0
 20
2000.0
 10
82000.0
 20
2000.0
 10
82000.0
 20
9600.0
 10
44000.0
 20
9600.0
  0
LINE
  5
B8
330
17
100
AcDbEntity
  8
G-TITLE
100
AcDbLine
 10
44000.0
 20
7600.0
 30
0.0
 11
82000.0
 21
7600.0
 31
0.0
  0
LINE
  5
B9
330
17
100
AcDbEntity
  8
G-TITLE
100
AcDbLine
 10
44000.0
 20
5400.0
 30
0.0
 11
82000.0
 21
5400.0
 31
0.0
  0
LINE
  5
BA
330
17
100
AcDbEntity
  8
G-TITLE
100
AcDbLine
 10
44000.0
 20
3800.0
 30
0.0
 11
82000.0
 21
3800.0
 31
0.0
  0
LINE
  5
BB
330
17
100
AcDbEntity
  8
G-TITLE
100
AcDbLine
 10
48400.0
 20
2000.0
 30
0.0
 11
48400.0
 21
9600.0
 31
0.0
  0
TEXT
  5
BC
330
17
100
AcDbEntity
  8
G-TITLE
100
AcDbText
 10
44400.0
 20
8300.0
 30
0.0
 40
440.00000000000006
  1
工事名称
  7
JP
 11
44400.0
 21
8300.0
 31
0.0
100
AcDbText
  0
TEXT
  5
BD
330
17
100
AcDbEntity
  8
G-TITLE
100
AcDbText
 10
48800.0
 20
8200.0
 30
0.0
 40
680.0
  1
河沿要（仮称）新築計画
  7
JP
 11
48800.0
 21
8200.0
 31
0.0
100
AcDbText
  0
TEXT
  5
BE
330
17
100
AcDbEntity
  8
G-TITLE
100
AcDbText
 10
44400.0
 20
6200.0
 30
0.0
 40
440.00000000000006
  1
図面名称
  7
JP
 11
44400.0
 21
6200.0
 31
0.0
100
AcDbText
  0
TEXT
  5
BF
330
17
100
AcDbEntity
  8
G-TITLE
100
AcDbText
 10
48800.0
 20
6040.0
 30
0.0
 40
880.0000000000001
  1
Wi-Fi 電波計画
  7
JP
 11
48800.0
 21
6040.0
 31
0.0
100
AcDbText
  0
TEXT
  5
C0
330
17
100
AcDbEntity
  8
G-TITLE
100
AcDbText
 10
44400.0
 20
4320.0
 30
0.0
 40
440.00000000000006
  1
縮尺
  7
JP
 11
44400.0
 21
4320.0
 31
0.0
100
AcDbText
  0
LINE
  5
C1
330
17
100
AcDbEntity
  8
G-TITLE
100
AcDbLine
 10
48400.0
 20
3800.0
 30
0.0
 11
48400.0
 21
5400.0
 31
0.0
  0
TEXT
  5
C2
330
17
100
AcDbEntity
  8
G-TITLE
100
AcDbText
 10
48700.0
 20
4320.0
 30
0.0
 40
400.0
  1
A3
  7
JP
 11
48700.0
 21
4320.0
 31
0.0
100
AcDbText
  0
TEXT
  5
C3
330
17
100
AcDbEntity
  8
G-TITLE
100
AcDbText
 10
50400.0
 20
4280.0
 30
0.0
 40
520.0
  1
1:200
  7
JP
 11
50400.0
 21
4280.0
 31
0.0
100
AcDbText
  0
LINE
  5
C4
330
17
100
AcDbEntity
  8
G-TITLE
100
AcDbLine
 10
56400.0
 20
3800.0
 30
0.0
 11
56400.0
 21
5400.0
 31
0.0
  0
TEXT
  5
C5
330
17
100
AcDbEntity
  8
G-TITLE
100
AcDbText
 10
56700.0
 20
4320.0
 30
0.0
 40
400.0
  1
日付
  7
JP
 11
56700.0
 21
4320.0
 31
0.0
100
AcDbText
  0
TEXT
  5
C6
330
17
100
AcDbEntity
  8
G-TITLE
100
AcDbText
 10
58400.0
 20
4280.0
 30
0.0
 40
520.0
  1
2026-10-03
  7
JP
 11
58400.0
 21
4280.0
 31
0.0
100
AcDbText
  0
LINE
  5
C7
330
17
100
AcDbEntity
  8
G-TITLE
100
AcDbLine
 10
66400.0
 20
3800.0
 30
0.0
 11
66400.0
 21
5400.0
 31
0.0
  0
TEXT
  5
C8
330
17
100
AcDbEntity
  8
G-TITLE
100
AcDbText
 10
66700.0
 20
4320.0
 30
0.0
 40
400.0
  1
設計
  7
JP
 11
66700.0
 21
4320.0
 31
0.0
100
AcDbText
  0
TEXT
  5
C9
330
17
100
AcDbEntity
  8
G-TITLE
100
AcDbText
 10
68400.0
 20
4280.0
 30
0.0
 40
520.0
  1
設計検討（仮）
  7
JP
 11
68400.0
 21
4280.0
 31
0.0
100
AcDbText
  0
TEXT
  5
CA
330
17
100
AcDbEntity
  8
G-TITLE
100
AcDbText
 10
44400.0
 20
2680.0
 30
0.0
 40
440.00000000000006
  1
段階
  7
JP
 11
44400.0
 21
2680.0
 31
0.0
100
AcDbText
  0
TEXT
  5
CB
330
17
100
AcDbEntity
  8
G-TITLE
100
AcDbText
 10
48800.0
 20
2680.0
 30
0.0
 40
380.0
  1
基本計画　／　本図は建築基準法令に基づく計画段階の検討図であり、確認申請・構造計算・関係機関協議により確定する
  7
JP
 11
48800.0
 21
2680.0
 31
0.0
100
AcDbText
  0
LINE
  5
CC
330
17
100
AcDbEntity
  8
G-TITLE
100
AcDbLine
 10
75200.0
 20
3800.0
 30
0.0
 11
75200.0
 21
7600.0
 31
0.0
  0
TEXT
  5
CD
330
17
100
AcDbEntity
  8
G-TITLE
100
AcDbText
 10
75500.0
 20
7000.0
 30
0.0
 40
400.0
  1
図番
  7
JP
 11
75500.0
 21
7000.0
 31
0.0
100
AcDbText
  0
TEXT
  5
CE
330
17
100
AcDbEntity
  8
G-TITLE
100
AcDbText
 10
78600.0
 20
5600.0
 30
0.0
 40
1200.0
  1
E-01
  7
JP
 72
1
 11
78600.0
 21
5600.0
 31
0.0
100
AcDbText
 73
1
  0
TEXT
  5
CF
330
17
100
AcDbEntity
  8
A-TEXT
100
AcDbText
 10
2400.0
 20
56000.0
 30
0.0
 40
720.0
  1
館内 Wi-Fi 電波計画 — 5GHz 帯で受信 -67dBm 以上を床面の98%以上（壁の減衰込みの概算）
  7
JP
 11
2400.0
 21
56000.0
 31
0.0
100
AcDbText
  0
HATCH
  5
D0
330
17
100
AcDbEntity
  8
A-CUT-HATCH
 62
3
100
AcDbHatch
 10
0.0
 20
0.0
 30
0.0
210
0.0
220
0.0
230
1.0
  2
SOLID
 70
1
 71
0
 91
4
 92
3
 72
0
 73
1
 93
263
 10
4400.0
 20
33000.0
 10
4400.0
 20
33500.0
 10
4900.0
 20
33500.0
 10
4900.0
 20
34000.0
 10
4900.0
 20
34500.0
 10
5400.0
 20
34500.0
 10
5400.0
 20
35000.0
 10
5900.0
 20
35000.0
 10
5900.0
 20
35500.0
 10
5900.0
 20
36000.0
 10
6200.0
 20
36000.0
 10
6400.0
 20
36000.0
 10
6400.0
 20
36500.0
 10
5900.0
 20
36500.0
 10
5400.0
 20
36500.0
 10
4900.0
 20
36500.0
 10
4900.0
 20
37000.0
 10
4900.0
 20
37500.0
 10
4900.0
 20
38000.0
 10
4900.0
 20
38500.0
 10
4900.0
 20
39000.0
 10
4900.0
 20
39500.0
 10
4900.0
 20
40000.0
 10
4900.0
 20
40500.0
 10
4900.0
 20
41000.0
 10
4900.0
 20
41500.0
 10
4900.0
 20
42000.0
 10
4900.0
 20
42500.0
 10
4900.0
 20
43000.0
 10
4900.0
 20
43500.0
 10
4900.0
 20
44000.0
 10
4900.0
 20
44500.0
 10
4900.0
 20
45000.0
 10
4900.0
 20
45500.0
 10
4900.0
 20
46000.0
 10
4900.0
 20
46500.0
 10
4900.0
 20
47000.0
 10
4900.0
 20
47500.0
 10
4900.0
 20
48000.0
 10
5400.0
 20
48000.0
 10
5900.0
 20
48000.0
 10
6400.0
 20
48000.0
 10
6900.0
 20
48000.0
 10
7400.0
 20
48000.0
 10
7900.0
 20
48000.0
 10
8400.0
 20
48000.0
 10
8900.0
 20
48000.0
 10
8900.0
 20
47500.0
 10
9400.0
 20
47500.0
 10
9900.0
 20
47500.0
 10
9900.0
 20
48000.0
 10
10400.0
 20
48000.0
 10
10400.0
 20
47500.0
 10
10400.0
 20
47000.0
 10
10400.0
 20
46500.0
 10
10400.0
 20
46000.0
 10
10400.0
 20
45500.0
 10
10400.0
 20
45000.0
 10
10400.0
 20
44500.0
 10
10400.0
 20
44000.0
 10
10400.0
 20
43500.0
 10
10400.0
 20
43400.0
 10
10650.0
 20
43400.0
 10
10650.0
 20
43500.0
 10
10900.0
 20
43500.0
 10
10900.0
 20
44000.0
 10
10900.0
 20
44500.0
 10
10900.0
 20
45000.0
 10
10900.0
 20
45500.0
 10
10900.0
 20
46000.0
 10
10900.0
 20
46500.0
 10
10900.0
 20
47000.0
 10
10900.0
 20
47500.0
 10
10900.0
 20
48000.0
 10
11400.0
 20
48000.0
 10
11900.0
 20
48000.0
 10
12400.0
 20
48000.0
 10
12900.0
 20
48000.0
 10
13400.0
 20
48000.0
 10
13900.0
 20
48000.0
 10
14400.0
 20
48000.0
 10
14900.0
 20
48000.0
 10
15400.0
 20
48000.0
 10
15900.0
 20
48000.0
 10
16400.0
 20
48000.0
 10
16400.0
 20
47500.0
 10
16400.0
 20
47000.0
 10
16400.0
 20
46500.0
 10
16400.0
 20
46000.0
 10
16400.0
 20
45500.0
 10
16400.0
 20
45000.0
 10
16400.0
 20
44500.0
 10
16400.0
 20
44000.0
 10
16400.0
 20
43800.0
 10
16400.0
 20
43500.0
 10
16900.0
 20
43500.0
 10
16900.0
 20
44000.0
 10
16900.0
 20
44500.0
 10
16900.0
 20
45000.0
 10
16900.0
 20
45500.0
 10
16900.0
 20
46000.0
 10
16900.0
 20
46500.0
 10
16900.0
 20
47000.0
 10
16900.0
 20
47500.0
 10
16900.0
 20
48000.0
 10
17400.0
 20
48000.0
 10
17900.0
 20
48000.0
 10
18400.0
 20
48000.0
 10
18900.0
 20
48000.0
 10
19400.0
 20
48000.0
 10
19900.0
 20
48000.0
 10
20400.0
 20
48000.0
 10
20900.0
 20
48000.0
 10
21400.0
 20
48000.0
 10
21900.0
 20
48000.0
 10
22400.0
 20
48000.0
 10
22400.0
 20
47500.0
 10
22400.0
 20
47000.0
 10
22400.0
 20
46500.0
 10
22400.0
 20
46000.0
 10
22400.0
 20
45500.0
 10
22400.0
 20
45000.0
 10
22400.0
 20
44500.0
 10
22400.0
 20
44000.0
 10
22400.0
 20
43500.0
 10
22400.0
 20
43000.0
 10
22400.0
 20
42500.0
 10
21900.0
 20
42500.0
 10
21400.0
 20
42500.0
 10
20900.0
 20
42500.0
 10
20400.0
 20
42500.0
 10
19900.0
 20
42500.0
 10
19400.0
 20
42500.0
 10
18900.0
 20
42500.0
 10
18400.0
 20
42500.0
 10
17900.0
 20
42500.0
 10
17400.0
 20
42500.0
 10
16900.0
 20
42500.0
 10
16900.0
 20
43000.0
 10
16650.0
 20
43000.0
 10
16400.0
 20
43000.0
 10
16400.0
 20
42500.0
 10
15900.0
 20
42500.0
 10
15900.0
 20
42000.0
 10
16200.0
 20
42000.0
 10
16400.0
 20
42000.0
 10
16400.0
 20
41500.0
 10
16400.0
 20
41000.0
 10
16400.0
 20
40500.0
 10
16400.0
 20
40100.0
 10
16400.0
 20
40000.0
 10
16900.0
 20
40000.0
 10
16900.0
 20
40500.0
 10
16900.0
 20
41000.0
 10
16900.0
 20
41500.0
 10
16900.0
 20
42000.0
 10
17400.0
 20
42000.0
 10
17900.0
 20
42000.0
 10
18400.0
 20
42000.0
 10
18900.0
 20
42000.0
 10
19400.0
 20
42000.0
 10
19900.0
 20
42000.0
 10
20400.0
 20
42000.0
 10
20900.0
 20
42000.0
 10
21400.0
 20
42000.0
 10
21900.0
 20
42000.0
 10
22400.0
 20
42000.0
 10
22400.0
 20
41500.0
 10
22400.0
 20
41000.0
 10
22400.0
 20
40500.0
 10
22400.0
 20
40000.0
 10
22400.0
 20
39500.0
 10
22400.0
 20
39000.0
 10
22400.0
 20
38500.0
 10
22400.0
 20
38000.0
 10
22400.0
 20
37500.0
 10
22400.0
 20
37000.0
 10
22400.0
 20
36500.0
 10
21900.0
 20
36500.0
 10
21900.0
 20
36000.0
 10
22200.0
 20
36000.0
 10
22400.0
 20
36000.0
 10
22400.0
 20
35500.0
 10
22400.0
 20
35000.0
 10
22400.0
 20
34500.0
 10
22400.0
 20
34000.0
 10
22400.0
 20
33500.0
 10
22400.0
 20
33000.0
 10
22400.0
 20
32500.0
 10
22400.0
 20
32000.0
 10
22400.0
 20
31500.0
 10
22400.0
 20
31000.0
 10
22400.0
 20
30500.0
 10
21900.0
 20
30500.0
 10
21400.0
 20
30500.0
 10
20900.0
 20
30500.0
 10
20400.0
 20
30500.0
 10
19900.0
 20
30500.0
 10
19400.0
 20
30500.0
 10
18900.0
 20
30500.0
 10
18400.0
 20
30500.0
 10
17900.0
 20
30500.0
 10
17400.0
 20
30500.0
 10
16900.0
 20
30500.0
 10
16900.0
 20
31000.0
 10
16900.0
 20
31500.0
 10
16900.0
 20
32000.0
 10
16900.0
 20
32500.0
 10
16900.0
 20
33000.0
 10
16650.0
 20
33000.0
 10
16400.0
 20
33000.0
 10
16400.0
 20
32500.0
 10
16400.0
 20
32000.0
 10
16400.0
 20
31500.0
 10
16400.0
 20
31000.0
 10
16400.0
 20
30500.0
 10
15900.0
 20
30500.0
 10
15400.0
 20
30500.0
 10
14900.0
 20
30500.0
 10
14400.0
 20
30500.0
 10
13900.0
 20
30500.0
 10
13900.0
 20
30000.0
 10
13400.0
 20
30000.0
 10
13000.0
 20
30000.0
 10
13000.0
 20
30125.0
 10
12900.0
 20
30125.0
 10
12900.0
 20
30500.0
 10
12400.0
 20
30500.0
 10
11900.0
 20
30500.0
 10
11400.0
 20
30500.0
 10
10900.0
 20
30500.0
 10
10900.0
 20
31000.0
 10
10900.0
 20
31500.0
 10
10900.0
 20
32000.0
 10
10900.0
 20
32500.0
 10
10900.0
 20
33000.0
 10
10400.0
 20
33000.0
 10
10400.0
 20
32800.0
 10
10400.0
 20
32500.0
 10
10400.0
 20
32000.0
 10
10400.0
 20
31500.0
 10
10400.0
 20
31000.0
 10
10400.0
 20
30500.0
 10
9900.0
 20
30500.0
 10
9400.0
 20
30500.0
 10
8900.0
 20
30500.0
 10
8400.0
 20
30500.0
 10
7900.0
 20
30500.0
 10
7900.0
 20
30125.0
 10
7900.0
 20
30000.0
 10
7400.0
 20
30000.0
 10
6900.0
 20
30000.0
 10
6400.0
 20
30000.0
 10
5900.0
 20
30000.0
 10
5900.0
 20
30125.0
 10
5900.0
 20
30500.0
 10
5400.0
 20
30500.0
 10
4900.0
 20
30500.0
 10
4900.0
 20
31000.0
 10
4900.0
 20
31500.0
 10
4900.0
 20
32000.0
 10
4900.0
 20
32500.0
 10
4400.0
 20
32500.0
 97
0
 92
3
 72
0
 73
1
 93
68
 10
11900.0
 20
42500.0
 10
11400.0
 20
42500.0
 10
10900.0
 20
42500.0
 10
10650.0
 20
42500.0
 10
10400.0
 20
42500.0
 10
9900.0
 20
42500.0
 10
9400.0
 20
42500.0
 10
8900.0
 20
42500.0
 10
8400.0
 20
42500.0
 10
7900.0
 20
42500.0
 10
7400.0
 20
42500.0
 10
6900.0
 20
42500.0
 10
6400.0
 20
42500.0
 10
5900.0
 20
42500.0
 10
5400.0
 20
42500.0
 10
5400.0
 20
42000.0
 10
5700.0
 20
42000.0
 10
5900.0
 20
42000.0
 10
6400.0
 20
42000.0
 10
6900.0
 20
42000.0
 10
7400.0
 20
42000.0
 10
7900.0
 20
42000.0
 10
8400.0
 20
42000.0
 10
8900.0
 20
42000.0
 10
9400.0
 20
42000.0
 10
9900.0
 20
42000.0
 10
10400.0
 20
42000.0
 10
10400.0
 20
41500.0
 10
10400.0
 20
41000.0
 10
10400.0
 20
40500.0
 10
10400.0
 20
40000.0
 10
10400.0
 20
39500.0
 10
10400.0
 20
39000.0
 10
10400.0
 20
38500.0
 10
10400.0
 20
38000.0
 10
10400.0
 20
37500.0
 10
10400.0
 20
37300.0
 10
10400.0
 20
37000.0
 10
10900.0
 20
37000.0
 10
10900.0
 20
37500.0
 10
10900.0
 20
38000.0
 10
10900.0
 20
38500.0
 10
10900.0
 20
39000.0
 10
10900.0
 20
39500.0
 10
10900.0
 20
40000.0
 10
10900.0
 20
40500.0
 10
11400.0
 20
40500.0
 10
11400.0
 20
41000.0
 10
11400.0
 20
41500.0
 10
10900.0
 20
41500.0
 10
10900.0
 20
42000.0
 10
11400.0
 20
42000.0
 10
11900.0
 20
42000.0
 10
12400.0
 20
42000.0
 10
12900.0
 20
42000.0
 10
13400.0
 20
42000.0
 10
13900.0
 20
42000.0
 10
14400.0
 20
42000.0
 10
14900.0
 20
42000.0
 10
15300.0
 20
42000.0
 10
15400.0
 20
42000.0
 10
15400.0
 20
42500.0
 10
14900.0
 20
42500.0
 10
14400.0
 20
42500.0
 10
13900.0
 20
42500.0
 10
13400.0
 20
42500.0
 10
12900.0
 20
42500.0
 10
12400.0
 20
42500.0
 97
0
 92
3
 72
0
 73
1
 93
23
 10
10900.0
 20
36500.0
 10
10400.0
 20
36500.0
 10
9900.0
 20
36500.0
 10
9900.0
 20
36000.0
 10
10200.0
 20
36000.0
 10
10400.0
 20
36000.0
 10
10400.0
 20
35500.0
 10
10400.0
 20
35000.0
 10
10400.0
 20
34500.0
 10
10400.0
 20
34000.0
 10
10650.0
 20
34000.0
 10
10900.0
 20
34000.0
 10
10900.0
 20
34500.0
 10
10900.0
 20
35000.0
 10
10900.0
 20
35500.0
 10
10900.0
 20
36000.0
 10
11400.0
 20
36000.0
 10
11900.0
 20
36000.0
 10
11900.0
 20
36250.0
 10
11900.0
 20
36500.0
 10
11400.0
 20
36500.0
 10
11400.0
 20
37000.0
 10
10900.0
 20
37000.0
 97
0
 92
3
 72
0
 73
1
 93
36
 10
15400.0
 20
36500.0
 10
14900.0
 20
36500.0
 10
14900.0
 20
36250.0
 10
14900.0
 20
36000.0
 10
15400.0
 20
36000.0
 10
15900.0
 20
36000.0
 10
16400.0
 20
36000.0
 10
16400.0
 20
35500.0
 10
16400.0
 20
35000.0
 10
16400.0
 20
34500.0
 10
16400.0
 20
34000.0
 10
16650.0
 20
34000.0
 10
16900.0
 20
34000.0
 10
16900.0
 20
34500.0
 10
16900.0
 20
35000.0
 10
16900.0
 20
35500.0
 10
16900.0
 20
36000.0
 10
17000.0
 20
36000.0
 10
17000.0
 20
36250.0
 10
16900.0
 20
36250.0
 10
16900.0
 20
36500.0
 10
16900.0
 20
37000.0
 10
16900.0
 20
37500.0
 10
16900.0
 20
38000.0
 10
16900.0
 20
38500.0
 10
16900.0
 20
39000.0
 10
16900.0
 20
39500.0
 10
16400.0
 20
39500.0
 10
16400.0
 20
39300.0
 10
16400.0
 20
39000.0
 10
16400.0
 20
38500.0
 10
16400.0
 20
38000.0
 10
15900.0
 20
38000.0
 10
15900.0
 20
37500.0
 10
15400.0
 20
37500.0
 10
15400.0
 20
37000.0
 97
0
 75
1
 76
1
 98
0
  0
HATCH
  5
D1
330
17
100
AcDbEntity
  8
A-CUT-HATCH
 62
4
100
AcDbHatch
 10
0.0
 20
0.0
 30
0.0
210
0.0
220
0.0
230
1.0
  2
SOLID
 70
1
 71
0
 91
6
 92
3
 72
0
 73
1
 93
4
 10
5400.0
 20
35000.0
 10
5400.0
 20
34500.0
 10
4900.0
 20
34500.0
 10
4900.0
 20
35000.0
 97
0
 92
3
 72
0
 73
1
 93
6
 10
5900.0
 20
36000.0
 10
5900.0
 20
35500.0
 10
5900.0
 20
35000.0
 10
5400.0
 20
35000.0
 10
5400.0
 20
35500.0
 10
5400.0
 20
36000.0
 97
0
 92
3
 72
0
 73
1
 93
4
 10
11400.0
 20
36500.0
 10
10900.0
 20
36500.0
 10
10900.0
 20
37000.0
 10
11400.0
 20
37000.0
 97
0
 92
3
 72
0
 73
1
 93
6
 10
10900.0
 20
40500.0
 10
10900.0
 20
41000.0
 10
10900.0
 20
41500.0
 10
11400.0
 20
41500.0
 10
11400.0
 20
41000.0
 10
11400.0
 20
40500.0
 97
0
 92
3
 72
0
 73
1
 93
6
 10
8900.0
 20
48000.0
 10
9400.0
 20
48000.0
 10
9900.0
 20
48000.0
 10
9900.0
 20
47500.0
 10
9400.0
 20
47500.0
 10
8900.0
 20
47500.0
 97
0
 92
3
 72
0
 73
1
 93
10
 10
15400.0
 20
36500.0
 10
15400.0
 20
37000.0
 10
15400.0
 20
37500.0
 10
15900.0
 20
37500.0
 10
15900.0
 20
38000.0
 10
16400.0
 20
38000.0
 10
16400.0
 20
37500.0
 10
16400.0
 20
37000.0
 10
16400.0
 20
36500.0
 10
15900.0
 20
36500.0
 97
0
 75
1
 76
1
 98
0
  0
HATCH
  5
D2
330
17
100
AcDbEntity
  8
A-CUT-HATCH
 62
2
100
AcDbHatch
 10
0.0
 20
0.0
 30
0.0
210
0.0
220
0.0
230
1.0
  2
SOLID
 70
1
 71
0
 91
1
 92
3
 72
0
 73
1
 93
6
 10
4900.0
 20
35000.0
 10
4900.0
 20
35500.0
 10
4900.0
 20
36000.0
 10
5400.0
 20
36000.0
 10
5400.0
 20
35500.0
 10
5400.0
 20
35000.0
 97
0
 75
1
 76
1
 98
0
  0
LWPOLYLINE
  5
D3
330
17
100
AcDbEntity
  8
A-CUT-LGS
370
18
100
AcDbPolyline
 90
4
 70
1
 10
11800.0
 20
38500.0
 10
11900.0
 20
38500.0
 10
11900.0
 20
40580.0
 10
11800.0
 20
40580.0
  0
LWPOLYLINE
  5
D4
330
17
100
AcDbEntity
  8
A-CUT-LGS
370
18
100
AcDbPolyline
 90
4
 70
1
 10
9350.0
 20
45100.0
 10
9450.0
 20
45100.0
 10
9450.0
 20
47020.0
 10
9350.0
 20
47020.0
  0
LWPOLYLINE
  5
D5
330
17
100
AcDbEntity
  8
A-CUT
370
35
100
AcDbPolyline
 90
4
 70
1
 10
4275.0
 20
29875.0
 10
5900.0
 20
29875.0
 10
5900.0
 20
30125.0
 10
4275.0
 20
30125.0
  0
LWPOLYLINE
  5
D6
330
17
100
AcDbEntity
  8
A-CUT
370
35
100
AcDbPolyline
 90
4
 70
1
 10
7900.0
 20
29875.0
 10
13000.0
 20
29875.0
 10
13000.0
 20
30125.0
 10
7900.0
 20
30125.0
  0
LWPOLYLINE
  5
D7
330
17
100
AcDbEntity
  8
A-CUT
370
35
100
AcDbPolyline
 90
4
 70
1
 10
14000.0
 20
29875.0
 10
22775.0
 20
29875.0
 10
22775.0
 20
30125.0
 10
14000.0
 20
30125.0
  0
LWPOLYLINE
  5
D8
330
17
100
AcDbEntity
  8
A-CUT
370
35
100
AcDbPolyline
 90
4
 70
1
 10
4275.0
 20
48125.0
 10
22775.0
 20
48125.0
 10
22775.0
 20
48375.0
 10
4275.0
 20
48375.0
  0
LWPOLYLINE
  5
D9
330
17
100
AcDbEntity
  8
A-CUT
370
35
100
AcDbPolyline
 90
4
 70
1
 10
4275.0
 20
30125.0
 10
4525.0
 20
30125.0
 10
4525.0
 20
32400.0
 10
4275.0
 20
32400.0
  0
LWPOLYLINE
  5
DA
330
17
100
AcDbEntity
  8
A-CUT
370
35
100
AcDbPolyline
 90
4
 70
1
 10
4275.0
 20
33600.0
 10
4525.0
 20
33600.0
 10
4525.0
 20
48125.0
 10
4275.0
 20
48125.0
  0
LWPOLYLINE
  5
DB
330
17
100
AcDbEntity
  8
A-CUT
370
35
100
AcDbPolyline
 90
4
 70
1
 10
22525.0
 20
30125.0
 10
22775.0
 20
30125.0
 10
22775.0
 20
30700.0
 10
22525.0
 20
30700.0
  0
LWPOLYLINE
  5
DC
330
17
100
AcDbEntity
  8
A-CUT
370
35
100
AcDbPolyline
 90
4
 70
1
 10
22525.0
 20
30700.0
 10
22775.0
 20
30700.0
 10
22775.0
 20
32900.0
 10
22525.0
 20
32900.0
  0
LWPOLYLINE
  5
DD
330
17
100
AcDbEntity
  8
A-CUT
370
35
100
AcDbPolyline
 90
4
 70
1
 10
22525.0
 20
32900.0
 10
22775.0
 20
32900.0
 10
22775.0
 20
33400.0
 10
22525.0
 20
33400.0
  0
LWPOLYLINE
  5
DE
330
17
100
AcDbEntity
  8
A-CUT
370
35
100
AcDbPolyline
 90
4
 70
1
 10
22525.0
 20
33400.0
 10
22775.0
 20
33400.0
 10
22775.0
 20
35600.0
 10
22525.0
 20
35600.0
  0
LWPOLYLINE
  5
DF
330
17
100
AcDbEntity
  8
A-CUT
370
35
100
AcDbPolyline
 90
4
 70
1
 10
22525.0
 20
35600.0
 10
22775.0
 20
35600.0
 10
22775.0
 20
45500.0
 10
22525.0
 20
45500.0
  0
LWPOLYLINE
  5
E0
330
17
100
AcDbEntity
  8
A-CUT
370
35
100
AcDbPolyline
 90
4
 70
1
 10
22525.0
 20
46700.0
 10
22775.0
 20
46700.0
 10
22775.0
 20
48125.0
 10
22525.0
 20
48125.0
  0
LWPOLYLINE
  5
E1
330
17
100
AcDbEntity
  8
A-CUT
370
35
100
AcDbPolyline
 90
4
 70
1
 10
10400.0
 20
30125.0
 10
10650.0
 20
30125.0
 10
10650.0
 20
32800.0
 10
10400.0
 20
32800.0
  0
LWPOLYLINE
  5
E2
330
17
100
AcDbEntity
  8
A-CUT
370
35
100
AcDbPolyline
 90
4
 70
1
 10
10400.0
 20
34000.0
 10
10650.0
 20
34000.0
 10
10650.0
 20
36400.0
 10
10400.0
 20
36400.0
  0
LWPOLYLINE
  5
E3
330
17
100
AcDbEntity
  8
A-CUT
370
35
100
AcDbPolyline
 90
4
 70
1
 10
10400.0
 20
37300.0
 10
10650.0
 20
37300.0
 10
10650.0
 20
42500.0
 10
10400.0
 20
42500.0
  0
LWPOLYLINE
  5
E4
330
17
100
AcDbEntity
  8
A-CUT
370
35
100
AcDbPolyline
 90
4
 70
1
 10
10400.0
 20
43400.0
 10
10650.0
 20
43400.0
 10
10650.0
 20
48125.0
 10
10400.0
 20
48125.0
  0
LWPOLYLINE
  5
E5
330
17
100
AcDbEntity
  8
A-CUT
370
35
100
AcDbPolyline
 90
4
 70
1
 10
16400.0
 20
30125.0
 10
16650.0
 20
30125.0
 10
16650.0
 20
33000.0
 10
16400.0
 20
33000.0
  0
LWPOLYLINE
  5
E6
330
17
100
AcDbEntity
  8
A-CUT
370
35
100
AcDbPolyline
 90
4
 70
1
 10
16400.0
 20
34000.0
 10
16650.0
 20
34000.0
 10
16650.0
 20
39300.0
 10
16400.0
 20
39300.0
  0
LWPOLYLINE
  5
E7
330
17
100
AcDbEntity
  8
A-CUT
370
35
100
AcDbPolyline
 90
4
 70
1
 10
16400.0
 20
40100.0
 10
16650.0
 20
40100.0
 10
16650.0
 20
43000.0
 10
16400.0
 20
43000.0
  0
LWPOLYLINE
  5
E8
330
17
100
AcDbEntity
  8
A-CUT
370
35
100
AcDbPolyline
 90
4
 70
1
 10
16400.0
 20
43800.0
 10
16650.0
 20
43800.0
 10
16650.0
 20
48125.0
 10
16400.0
 20
48125.0
  0
LWPOLYLINE
  5
E9
330
17
100
AcDbEntity
  8
A-CUT
370
35
100
AcDbPolyline
 90
4
 70
1
 10
4525.0
 20
36000.0
 10
6200.0
 20
36000.0
 10
6200.0
 20
36250.0
 10
4525.0
 20
36250.0
  0
LWPOLYLINE
  5
EA
330
17
100
AcDbEntity
  8
A-CUT
370
35
100
AcDbPolyline
 90
4
 70
1
 10
10200.0
 20
36000.0
 10
11900.0
 20
36000.0
 10
11900.0
 20
36250.0
 10
10200.0
 20
36250.0
  0
LWPOLYLINE
  5
EB
330
17
100
AcDbEntity
  8
A-CUT
370
35
100
AcDbPolyline
 90
4
 70
1
 10
14900.0
 20
36000.0
 10
17000.0
 20
36000.0
 10
17000.0
 20
36250.0
 10
14900.0
 20
36250.0
  0
LWPOLYLINE
  5
EC
330
17
100
AcDbEntity
  8
A-CUT
370
35
100
AcDbPolyline
 90
4
 70
1
 10
22200.0
 20
36000.0
 10
22525.0
 20
36000.0
 10
22525.0
 20
36250.0
 10
22200.0
 20
36250.0
  0
LWPOLYLINE
  5
ED
330
17
100
AcDbEntity
  8
A-CUT
370
35
100
AcDbPolyline
 90
4
 70
1
 10
4525.0
 20
42000.0
 10
4700.0
 20
42000.0
 10
4700.0
 20
42250.0
 10
4525.0
 20
42250.0
  0
LWPOLYLINE
  5
EE
330
17
100
AcDbEntity
  8
A-CUT
370
35
100
AcDbPolyline
 90
4
 70
1
 10
5700.0
 20
42000.0
 10
15300.0
 20
42000.0
 10
15300.0
 20
42250.0
 10
5700.0
 20
42250.0
  0
LWPOLYLINE
  5
EF
330
17
100
AcDbEntity
  8
A-CUT
370
35
100
AcDbPolyline
 90
4
 70
1
 10
16200.0
 20
42000.0
 10
22525.0
 20
42000.0
 10
22525.0
 20
42250.0
 10
16200.0
 20
42250.0
  0
LWPOLYLINE
  5
F0
330
17
100
AcDbEntity
  8
A-CUT-LGS
370
18
100
AcDbPolyline
 90
4
 70
1
 10
5900.0
 20
36250.0
 10
6000.0
 20
36250.0
 10
6000.0
 20
40800.0
 10
5900.0
 20
40800.0
  0
LWPOLYLINE
  5
F1
330
17
100
AcDbEntity
  8
A-CUT-LGS
370
18
100
AcDbPolyline
 90
4
 70
1
 10
5900.0
 20
41600.0
 10
6000.0
 20
41600.0
 10
6000.0
 20
42000.0
 10
5900.0
 20
42000.0
  0
LWPOLYLINE
  5
F2
330
17
100
AcDbEntity
  8
A-CUT-LGS
370
18
100
AcDbPolyline
 90
4
 70
1
 10
13150.0
 20
39800.0
 10
13600.0
 20
39800.0
 10
13600.0
 20
39900.0
 10
13150.0
 20
39900.0
  0
LWPOLYLINE
  5
F3
330
17
100
AcDbEntity
  8
A-CUT-LGS
370
18
100
AcDbPolyline
 90
4
 70
1
 10
14400.0
 20
39800.0
 10
15050.0
 20
39800.0
 10
15050.0
 20
39900.0
 10
14400.0
 20
39900.0
  0
LWPOLYLINE
  5
F4
330
17
100
AcDbEntity
  8
A-CUT-LGS
370
18
100
AcDbPolyline
 90
4
 70
1
 10
13050.0
 20
39850.0
 10
13150.0
 20
39850.0
 10
13150.0
 20
42000.0
 10
13050.0
 20
42000.0
  0
LWPOLYLINE
  5
F5
330
17
100
AcDbEntity
  8
A-CUT-LGS
370
18
100
AcDbPolyline
 90
4
 70
1
 10
15000.0
 20
39850.0
 10
15100.0
 20
39850.0
 10
15100.0
 20
42000.0
 10
15000.0
 20
42000.0
  0
LWPOLYLINE
  5
F6
330
17
100
AcDbEntity
  8
A-CUT-LGS
370
18
100
AcDbPolyline
 90
4
 70
1
 10
16650.0
 20
38900.0
 10
22525.0
 20
38900.0
 10
22525.0
 20
39000.0
 10
16650.0
 20
39000.0
  0
LWPOLYLINE
  5
F7
330
17
100
AcDbEntity
  8
A-CUT-LGS
370
18
100
AcDbPolyline
 90
4
 70
1
 10
19500.0
 20
39000.0
 10
19600.0
 20
39000.0
 10
19600.0
 20
40000.0
 10
19500.0
 20
40000.0
  0
LWPOLYLINE
  5
F8
330
17
100
AcDbEntity
  8
A-CUT-LGS
370
18
100
AcDbPolyline
 90
4
 70
1
 10
19500.0
 20
40800.0
 10
19600.0
 20
40800.0
 10
19600.0
 20
42000.0
 10
19500.0
 20
42000.0
  0
LWPOLYLINE
  5
F9
330
17
100
AcDbEntity
  8
A-CUT-LGS
370
18
100
AcDbPolyline
 90
4
 70
1
 10
4525.0
 20
45000.0
 10
5400.0
 20
45000.0
 10
5400.0
 20
45100.0
 10
4525.0
 20
45100.0
  0
LWPOLYLINE
  5
FA
330
17
100
AcDbEntity
  8
A-CUT-LGS
370
18
100
AcDbPolyline
 90
4
 70
1
 10
6200.0
 20
45000.0
 10
8350.0
 20
45000.0
 10
8350.0
 20
45100.0
 10
6200.0
 20
45100.0
  0
LWPOLYLINE
  5
FB
330
17
100
AcDbEntity
  8
A-CUT-LGS
370
18
100
AcDbPolyline
 90
4
 70
1
 10
8300.0
 20
45100.0
 10
8400.0
 20
45100.0
 10
8400.0
 20
48125.0
 10
8300.0
 20
48125.0
  0
LWPOLYLINE
  5
FC
330
17
100
AcDbEntity
  8
A-CUT-LGS
370
18
100
AcDbPolyline
 90
4
 70
1
 10
13900.0
 20
42250.0
 10
14000.0
 20
42250.0
 10
14000.0
 20
42500.0
 10
13900.0
 20
42500.0
  0
LWPOLYLINE
  5
FD
330
17
100
AcDbEntity
  8
A-CUT-LGS
370
18
100
AcDbPolyline
 90
4
 70
1
 10
13900.0
 20
43300.0
 10
14000.0
 20
43300.0
 10
14000.0
 20
48125.0
 10
13900.0
 20
48125.0
  0
LWPOLYLINE
  5
FE
330
17
100
AcDbEntity
  8
A-CUT-LGS
370
18
100
AcDbPolyline
 90
4
 70
1
 10
10650.0
 20
44800.0
 10
11400.0
 20
44800.0
 10
11400.0
 20
44900.0
 10
10650.0
 20
44900.0
  0
LWPOLYLINE
  5
FF
330
17
100
AcDbEntity
  8
A-CUT-LGS
370
18
100
AcDbPolyline
 90
4
 70
1
 10
12200.0
 20
44800.0
 10
13900.0
 20
44800.0
 10
13900.0
 20
44900.0
 10
12200.0
 20
44900.0
  0
LWPOLYLINE
  5
100
330
17
100
AcDbEntity
  8
A-CUT-LGS
370
18
100
AcDbPolyline
 90
4
 70
1
 10
14000.0
 20
45500.0
 10
14700.0
 20
45500.0
 10
14700.0
 20
45600.0
 10
14000.0
 20
45600.0
  0
LWPOLYLINE
  5
101
330
17
100
AcDbEntity
  8
A-CUT-LGS
370
18
100
AcDbPolyline
 90
4
 70
1
 10
15500.0
 20
45500.0
 10
16400.0
 20
45500.0
 10
16400.0
 20
45600.0
 10
15500.0
 20
45600.0
  0
LWPOLYLINE
  5
102
330
17
100
AcDbEntity
  8
A-CUT-LGS
370
18
100
AcDbPolyline
 90
4
 70
1
 10
17900.0
 20
42250.0
 10
18000.0
 20
42250.0
 10
18000.0
 20
42800.0
 10
17900.0
 20
42800.0
  0
LWPOLYLINE
  5
103
330
17
100
AcDbEntity
  8
A-CUT-LGS
370
18
100
AcDbPolyline
 90
4
 70
1
 10
17900.0
 20
43600.0
 10
18000.0
 20
43600.0
 10
18000.0
 20
45500.0
 10
17900.0
 20
45500.0
  0
LWPOLYLINE
  5
104
330
17
100
AcDbEntity
  8
A-CUT-LGS
370
18
100
AcDbPolyline
 90
4
 70
1
 10
17900.0
 20
46300.0
 10
18000.0
 20
46300.0
 10
18000.0
 20
48125.0
 10
17900.0
 20
48125.0
  0
LWPOLYLINE
  5
105
330
17
100
AcDbEntity
  8
A-CUT-LGS
370
18
100
AcDbPolyline
 90
4
 70
1
 10
18000.0
 20
44200.0
 10
22525.0
 20
44200.0
 10
22525.0
 20
44300.0
 10
18000.0
 20
44300.0
  0
CIRCLE
  5
106
330
17
100
AcDbEntity
  8
A-CUT
370
35
100
AcDbCircle
 10
13525.0
 20
34200.0
 30
0.0
 40
320.0
  0
TEXT
  5
107
330
17
100
AcDbEntity
  8
A-TEXT
100
AcDbText
 10
13525.0
 20
34200.0
 30
0.0
 40
280.0
  1
AP1-1
  7
JP
 72
1
 11
13525.0
 21
34200.0
 31
0.0
100
AcDbText
 73
2
  0
CIRCLE
  5
108
330
17
100
AcDbEntity
  8
A-CUT
370
35
100
AcDbCircle
 10
7462.5
 20
43625.0
 30
0.0
 40
320.0
  0
TEXT
  5
109
330
17
100
AcDbEntity
  8
A-TEXT
100
AcDbText
 10
7462.5
 20
43625.0
 30
0.0
 40
280.0
  1
AP1-2
  7
JP
 72
1
 11
7462.5
 21
43625.0
 31
0.0
100
AcDbText
 73
2
  0
CIRCLE
  5
10A
330
17
100
AcDbEntity
  8
A-CUT
370
35
100
AcDbCircle
 10
19587.5
 20
34512.5
 30
0.0
 40
320.0
  0
TEXT
  5
10B
330
17
100
AcDbEntity
  8
A-TEXT
100
AcDbText
 10
19587.5
 20
34512.5
 30
0.0
 40
280.0
  1
AP1-3
  7
JP
 72
1
 11
19587.5
 21
34512.5
 31
0.0
100
AcDbText
 73
2
  0
CIRCLE
  5
10C
330
17
100
AcDbEntity
  8
A-CUT
370
35
100
AcDbCircle
 10
17275.0
 20
45187.5
 30
0.0
 40
320.0
  0
TEXT
  5
10D
330
17
100
AcDbEntity
  8
A-TEXT
100
AcDbText
 10
17275.0
 20
45187.5
 30
0.0
 40
280.0
  1
AP1-4
  7
JP
 72
1
 11
17275.0
 21
45187.5
 31
0.0
100
AcDbText
 73
2
  0
CIRCLE
  5
10E
330
17
100
AcDbEntity
  8
A-CUT
370
35
100
AcDbCircle
 10
8200.0
 20
39125.0
 30
0.0
 40
320.0
  0
TEXT
  5
10F
330
17
100
AcDbEntity
  8
A-TEXT
100
AcDbText
 10
8200.0
 20
39125.0
 30
0.0
 40
280.0
  1
AP1-5
  7
JP
 72
1
 11
8200.0
 21
39125.0
 31
0.0
100
AcDbText
 73
2
  0
CIRCLE
  5
110
330
17
100
AcDbEntity
  8
A-CUT
370
35
100
AcDbCircle
 10
12275.0
 20
43525.0
 30
0.0
 40
320.0
  0
TEXT
  5
111
330
17
100
AcDbEntity
  8
A-TEXT
100
AcDbText
 10
12275.0
 20
43525.0
 30
0.0
 40
280.0
  1
AP1-6
  7
JP
 72
1
 11
12275.0
 21
43525.0
 31
0.0
100
AcDbText
 73
2
  0
TEXT
  5
112
330
17
100
AcDbEntity
  8
A-TEXT
100
AcDbText
 10
4400.0
 20
28500.0
 30
0.0
 40
520.0
  1
1階（AP 6台・目標を満たす面積 100%）
  7
JP
 11
4400.0
 21
28500.0
 31
0.0
100
AcDbText
 73
3
  0
HATCH
  5
113
330
17
100
AcDbEntity
  8
A-CUT-HATCH
 62
3
100
AcDbHatch
 10
0.0
 20
0.0
 30
0.0
210
0.0
220
0.0
230
1.0
  2
SOLID
 70
1
 71
0
 91
6
 92
3
 72
0
 73
1
 93
336
 10
27300.0
 20
32500.0
 10
27300.0
 20
33000.0
 10
27300.0
 20
33500.0
 10
27300.0
 20
34000.0
 10
27300.0
 20
34500.0
 10
27300.0
 20
35000.0
 10
27300.0
 20
35500.0
 10
27300.0
 20
36000.0
 10
27800.0
 20
36000.0
 10
27800.0
 20
36250.0
 10
27800.0
 20
36500.0
 10
27300.0
 20
36500.0
 10
27300.0
 20
37000.0
 10
26925.0
 20
37000.0
 10
26925.0
 20
37200.0
 10
26800.0
 20
37200.0
 10
26800.0
 20
37500.0
 10
27300.0
 20
37500.0
 10
27800.0
 20
37500.0
 10
28300.0
 20
37500.0
 10
28800.0
 20
37500.0
 10
29300.0
 20
37500.0
 10
29300.0
 20
38000.0
 10
29800.0
 20
38000.0
 10
30300.0
 20
38000.0
 10
30800.0
 20
38000.0
 10
30800.0
 20
37500.0
 10
31300.0
 20
37500.0
 10
31800.0
 20
37500.0
 10
32300.0
 20
37500.0
 10
32800.0
 20
37500.0
 10
32800.0
 20
37300.0
 10
32800.0
 20
37000.0
 10
33300.0
 20
37000.0
 10
33300.0
 20
37500.0
 10
33800.0
 20
37500.0
 10
34300.0
 20
37500.0
 10
34300.0
 20
38000.0
 10
33800.0
 20
38000.0
 10
33800.0
 20
38500.0
 10
33300.0
 20
38500.0
 10
33300.0
 20
39000.0
 10
33300.0
 20
39500.0
 10
33300.0
 20
40000.0
 10
33300.0
 20
40500.0
 10
33300.0
 20
41000.0
 10
33300.0
 20
41500.0
 10
33300.0
 20
42000.0
 10
33800.0
 20
42000.0
 10
34300.0
 20
42000.0
 10
34800.0
 20
42000.0
 10
35300.0
 20
42000.0
 10
35800.0
 20
42000.0
 10
36300.0
 20
42000.0
 10
36800.0
 20
42000.0
 10
37300.0
 20
42000.0
 10
37700.0
 20
42000.0
 10
37800.0
 20
42000.0
 10
37800.0
 20
42500.0
 10
37300.0
 20
42500.0
 10
36800.0
 20
42500.0
 10
36300.0
 20
42500.0
 10
35800.0
 20
42500.0
 10
35300.0
 20
42500.0
 10
34800.0
 20
42500.0
 10
34300.0
 20
42500.0
 10
33800.0
 20
42500.0
 10
33300.0
 20
42500.0
 10
33050.0
 20
42500.0
 10
32800.0
 20
42500.0
 10
32300.0
 20
42500.0
 10
31800.0
 20
42500.0
 10
31800.0
 20
42000.0
 10
31300.0
 20
42000.0
 10
31300.0
 20
42250.0
 10
31300.0
 20
42500.0
 10
30800.0
 20
42500.0
 10
30300.0
 20
42500.0
 10
29800.0
 20
42500.0
 10
29300.0
 20
42500.0
 10
28800.0
 20
42500.0
 10
28300.0
 20
42500.0
 10
27800.0
 20
42500.0
 10
27300.0
 20
42500.0
 10
27300.0
 20
43000.0
 10
27300.0
 20
43500.0
 10
27300.0
 20
44000.0
 10
27300.0
 20
44500.0
 10
27300.0
 20
45000.0
 10
27300.0
 20
45500.0
 10
27300.0
 20
46000.0
 10
27300.0
 20
46500.0
 10
27300.0
 20
47000.0
 10
27300.0
 20
47500.0
 10
27300.0
 20
48000.0
 10
27800.0
 20
48000.0
 10
28300.0
 20
48000.0
 10
28800.0
 20
48000.0
 10
29300.0
 20
48000.0
 10
29800.0
 20
48000.0
 10
30300.0
 20
48000.0
 10
30800.0
 20
48000.0
 10
31300.0
 20
48000.0
 10
31800.0
 20
48000.0
 10
32300.0
 20
48000.0
 10
32800.0
 20
48000.0
 10
32800.0
 20
47500.0
 10
32800.0
 20
47000.0
 10
32800.0
 20
46500.0
 10
32800.0
 20
46000.0
 10
32800.0
 20
45500.0
 10
32800.0
 20
45000.0
 10
32800.0
 20
44500.0
 10
32800.0
 20
44000.0
 10
32800.0
 20
43500.0
 10
32800.0
 20
43400.0
 10
33050.0
 20
43400.0
 10
33050.0
 20
43500.0
 10
33300.0
 20
43500.0
 10
33300.0
 20
44000.0
 10
33300.0
 20
44500.0
 10
33300.0
 20
45000.0
 10
33300.0
 20
45500.0
 10
33300.0
 20
46000.0
 10
33300.0
 20
46500.0
 10
33300.0
 20
47000.0
 10
33300.0
 20
47500.0
 10
33300.0
 20
48000.0
 10
33800.0
 20
48000.0
 10
34300.0
 20
48000.0
 10
34800.0
 20
48000.0
 10
35300.0
 20
48000.0
 10
35800.0
 20
48000.0
 10
36300.0
 20
48000.0
 10
36800.0
 20
48000.0
 10
37300.0
 20
48000.0
 10
37800.0
 20
48000.0
 10
38300.0
 20
48000.0
 10
38800.0
 20
48000.0
 10
38800.0
 20
47500.0
 10
38800.0
 20
47000.0
 10
38800.0
 20
46500.0
 10
38800.0
 20
46000.0
 10
38800.0
 20
45500.0
 10
38800.0
 20
45000.0
 10
38800.0
 20
44500.0
 10
38800.0
 20
44000.0
 10
38800.0
 20
43800.0
 10
38800.0
 20
43500.0
 10
39300.0
 20
43500.0
 10
39300.0
 20
44000.0
 10
39300.0
 20
44500.0
 10
39300.0
 20
45000.0
 10
39300.0
 20
45500.0
 10
39300.0
 20
46000.0
 10
39300.0
 20
46500.0
 10
39300.0
 20
47000.0
 10
39300.0
 20
47500.0
 10
39300.0
 20
48000.0
 10
39800.0
 20
48000.0
 10
40300.0
 20
48000.0
 10
40800.0
 20
48000.0
 10
41300.0
 20
48000.0
 10
41800.0
 20
48000.0
 10
42300.0
 20
48000.0
 10
42800.0
 20
48000.0
 10
43300.0
 20
48000.0
 10
43800.0
 20
48000.0
 10
44300.0
 20
48000.0
 10
44800.0
 20
48000.0
 10
44800.0
 20
47500.0
 10
44800.0
 20
47000.0
 10
44800.0
 20
46500.0
 10
44800.0
 20
46000.0
 10
44800.0
 20
45500.0
 10
44800.0
 20
45000.0
 10
44800.0
 20
44500.0
 10
44800.0
 20
44000.0
 10
44800.0
 20
43500.0
 10
44800.0
 20
43000.0
 10
44800.0
 20
42500.0
 10
44300.0
 20
42500.0
 10
43800.0
 20
42500.0
 10
43800.0
 20
42000.0
 10
44100.0
 20
42000.0
 10
44300.0
 20
42000.0
 10
44800.0
 20
42000.0
 10
44800.0
 20
41500.0
 10
44800.0
 20
41000.0
 10
44800.0
 20
40500.0
 10
44800.0
 20
40000.0
 10
44800.0
 20
39500.0
 10
44800.0
 20
39000.0
 10
44800.0
 20
38500.0
 10
44800.0
 20
38000.0
 10
44800.0
 20
37500.0
 10
44800.0
 20
37000.0
 10
44800.0
 20
36500.0
 10
44300.0
 20
36500.0
 10
43800.0
 20
36500.0
 10
43300.0
 20
36500.0
 10
42800.0
 20
36500.0
 10
42300.0
 20
36500.0
 10
42300.0
 20
36000.0
 10
42400.0
 20
36000.0
 10
42800.0
 20
36000.0
 10
43300.0
 20
36000.0
 10
43800.0
 20
36000.0
 10
43800.0
 20
35500.0
 10
43300.0
 20
35500.0
 10
43300.0
 20
35000.0
 10
42800.0
 20
35000.0
 10
42800.0
 20
34500.0
 10
42800.0
 20
34000.0
 10
43300.0
 20
34000.0
 10
43300.0
 20
33500.0
 10
43300.0
 20
33000.0
 10
43300.0
 20
32500.0
 10
43800.0
 20
32500.0
 10
43800.0
 20
32000.0
 10
43800.0
 20
31500.0
 10
44300.0
 20
31500.0
 10
44300.0
 20
31000.0
 10
44300.0
 20
30500.0
 10
43800.0
 20
30500.0
 10
43300.0
 20
30500.0
 10
42800.0
 20
30500.0
 10
42300.0
 20
30500.0
 10
41800.0
 20
30500.0
 10
41300.0
 20
30500.0
 10
40800.0
 20
30500.0
 10
40300.0
 20
30500.0
 10
39800.0
 20
30500.0
 10
39300.0
 20
30500.0
 10
39300.0
 20
31000.0
 10
39300.0
 20
31500.0
 10
39300.0
 20
32000.0
 10
39300.0
 20
32500.0
 10
39300.0
 20
33000.0
 10
39300.0
 20
33500.0
 10
39300.0
 20
34000.0
 10
39300.0
 20
34500.0
 10
39300.0
 20
35000.0
 10
39800.0
 20
35000.0
 10
39800.0
 20
35500.0
 10
39800.0
 20
36000.0
 10
40300.0
 20
36000.0
 10
40800.0
 20
36000.0
 10
40800.0
 20
36250.0
 10
40800.0
 20
36500.0
 10
40300.0
 20
36500.0
 10
39800.0
 20
36500.0
 10
39300.0
 20
36500.0
 10
38800.0
 20
36500.0
 10
38300.0
 20
36500.0
 10
37800.0
 20
36500.0
 10
37300.0
 20
36500.0
 10
36800.0
 20
36500.0
 10
36300.0
 20
36500.0
 10
36300.0
 20
36250.0
 10
36300.0
 20
36000.0
 10
36800.0
 20
36000.0
 10
37300.0
 20
36000.0
 10
37800.0
 20
36000.0
 10
38300.0
 20
36000.0
 10
38800.0
 20
36000.0
 10
38800.0
 20
35500.0
 10
38800.0
 20
35000.0
 10
38800.0
 20
34500.0
 10
38800.0
 20
34000.0
 10
38800.0
 20
33500.0
 10
38800.0
 20
33000.0
 10
38800.0
 20
32500.0
 10
38800.0
 20
32000.0
 10
38800.0
 20
31500.0
 10
38800.0
 20
31000.0
 10
38800.0
 20
30500.0
 10
38300.0
 20
30500.0
 10
37800.0
 20
30500.0
 10
37300.0
 20
30500.0
 10
36800.0
 20
30500.0
 10
36300.0
 20
30500.0
 10
35800.0
 20
30500.0
 10
35800.0
 20
30125.0
 10
35600.0
 20
30125.0
 10
35600.0
 20
30000.0
 10
35300.0
 20
30000.0
 10
34800.0
 20
30000.0
 10
34300.0
 20
30000.0
 10
34000.0
 20
30000.0
 10
34000.0
 20
30125.0
 10
33800.0
 20
30125.0
 10
33800.0
 20
30500.0
 10
33300.0
 20
30500.0
 10
33300.0
 20
31000.0
 10
33300.0
 20
31500.0
 10
33300.0
 20
32000.0
 10
33300.0
 20
32500.0
 10
33300.0
 20
33000.0
 10
33300.0
 20
33500.0
 10
33300.0
 20
34000.0
 10
33300.0
 20
34500.0
 10
33300.0
 20
35000.0
 10
33050.0
 20
35000.0
 10
32800.0
 20
35000.0
 10
32800.0
 20
34500.0
 10
32800.0
 20
34000.0
 10
32800.0
 20
33500.0
 10
32800.0
 20
33000.0
 10
32800.0
 20
32500.0
 10
32800.0
 20
32000.0
 10
32800.0
 20
31500.0
 10
32800.0
 20
31000.0
 10
32800.0
 20
30500.0
 10
32300.0
 20
30500.0
 10
31800.0
 20
30500.0
 10
31800.0
 20
30000.0
 10
31300.0
 20
30000.0
 10
31000.0
 20
30000.0
 10
31000.0
 20
30125.0
 10
30800.0
 20
30125.0
 10
30800.0
 20
30500.0
 10
30300.0
 20
30500.0
 10
29800.0
 20
30500.0
 10
29300.0
 20
30500.0
 10
28800.0
 20
30500.0
 10
28800.0
 20
30125.0
 10
28700.0
 20
30125.0
 10
28700.0
 20
30000.0
 10
28300.0
 20
30000.0
 10
27800.0
 20
30000.0
 10
27800.0
 20
30500.0
 10
27300.0
 20
30500.0
 10
27300.0
 20
31000.0
 10
27300.0
 20
31500.0
 10
27300.0
 20
32000.0
 97
0
 92
3
 72
0
 73
1
 93
35
 10
31800.0
 20
36500.0
 10
31300.0
 20
36500.0
 10
30800.0
 20
36500.0
 10
30300.0
 20
36500.0
 10
29800.0
 20
36500.0
 10
29300.0
 20
36500.0
 10
28800.0
 20
36500.0
 10
28300.0
 20
36500.0
 10
28300.0
 20
36000.0
 10
28600.0
 20
36000.0
 10
28800.0
 20
36000.0
 10
29300.0
 20
36000.0
 10
29800.0
 20
36000.0
 10
30300.0
 20
36000.0
 10
30800.0
 20
36000.0
 10
31300.0
 20
36000.0
 10
31800.0
 20
36000.0
 10
32300.0
 20
36000.0
 10
32800.0
 20
36000.0
 10
32800.0
 20
35900.0
 10
33050.0
 20
35900.0
 10
33050.0
 20
36000.0
 10
33300.0
 20
36000.0
 10
33800.0
 20
36000.0
 10
34300.0
 20
36000.0
 10
34800.0
 20
36000.0
 10
35300.0
 20
36000.0
 10
35300.0
 20
36250.0
 10
35300.0
 20
36500.0
 10
34800.0
 20
36500.0
 10
34300.0
 20
36500.0
 10
33800.0
 20
36500.0
 10
33300.0
 20
36500.0
 10
32800.0
 20
36500.0
 10
32300.0
 20
36500.0
 97
0
 92
3
 72
0
 73
1
 93
48
 10
39300.0
 20
43000.0
 10
39050.0
 20
43000.0
 10
38800.0
 20
43000.0
 10
38800.0
 20
42500.0
 10
38300.0
 20
42500.0
 10
38300.0
 20
42000.0
 10
38600.0
 20
42000.0
 10
38800.0
 20
42000.0
 10
38800.0
 20
41500.0
 10
38800.0
 20
41000.0
 10
38800.0
 20
40500.0
 10
38800.0
 20
40000.0
 10
38800.0
 20
39500.0
 10
38800.0
 20
39000.0
 10
38800.0
 20
38500.0
 10
38800.0
 20
38000.0
 10
38800.0
 20
37500.0
 10
38800.0
 20
37300.0
 10
38800.0
 20
37000.0
 10
39300.0
 20
37000.0
 10
39300.0
 20
37500.0
 10
39300.0
 20
38000.0
 10
39300.0
 20
38500.0
 10
39300.0
 20
39000.0
 10
39300.0
 20
39500.0
 10
39300.0
 20
40000.0
 10
39300.0
 20
40500.0
 10
39300.0
 20
41000.0
 10
39300.0
 20
41500.0
 10
39300.0
 20
42000.0
 10
39800.0
 20
42000.0
 10
40300.0
 20
42000.0
 10
40800.0
 20
42000.0
 10
41300.0
 20
42000.0
 10
41800.0
 20
42000.0
 10
42300.0
 20
42000.0
 10
42800.0
 20
42000.0
 10
43300.0
 20
42000.0
 10
43300.0
 20
42250.0
 10
43300.0
 20
42500.0
 10
42800.0
 20
42500.0
 10
42300.0
 20
42500.0
 10
41800.0
 20
42500.0
 10
41300.0
 20
42500.0
 10
40800.0
 20
42500.0
 10
40300.0
 20
42500.0
 10
39800.0
 20
42500.0
 10
39300.0
 20
42500.0
 97
0
 92
3
 72
0
 73
1
 93
10
 10
36800.0
 20
38000.0
 10
36800.0
 20
37500.0
 10
37300.0
 20
37500.0
 10
37800.0
 20
37500.0
 10
37800.0
 20
38000.0
 10
37800.0
 20
38500.0
 10
37800.0
 20
39000.0
 10
37300.0
 20
39000.0
 10
37300.0
 20
38500.0
 10
37300.0
 20
38000.0
 97
0
 92
3
 72
0
 73
1
 93
4
 10
32800.0
 20
41500.0
 10
32800.0
 20
41000.0
 10
32300.0
 20
41000.0
 10
32300.0
 20
41500.0
 97
0
 92
3
 72
0
 73
1
 93
5
 10
32100.0
 20
42000.0
 10
32300.0
 20
42000.0
 10
32300.0
 20
41500.0
 10
31800.0
 20
41500.0
 10
31800.0
 20
42000.0
 97
0
 75
1
 76
1
 98
0
  0
HATCH
  5
114
330
17
100
AcDbEntity
  8
A-CUT-HATCH
 62
4
100
AcDbHatch
 10
0.0
 20
0.0
 30
0.0
210
0.0
220
0.0
230
1.0
  2
SOLID
 70
1
 71
0
 91
5
 92
3
 72
0
 73
1
 93
50
 10
27300.0
 20
40000.0
 10
26800.0
 20
40000.0
 10
26800.0
 20
40500.0
 10
26800.0
 20
40800.0
 10
26925.0
 20
40800.0
 10
26925.0
 20
41000.0
 10
27300.0
 20
41000.0
 10
27300.0
 20
41500.0
 10
27300.0
 20
42000.0
 10
27800.0
 20
42000.0
 10
28300.0
 20
42000.0
 10
28800.0
 20
42000.0
 10
29300.0
 20
42000.0
 10
29800.0
 20
42000.0
 10
30300.0
 20
42000.0
 10
30800.0
 20
42000.0
 10
30800.0
 20
41500.0
 10
31300.0
 20
41500.0
 10
31300.0
 20
41000.0
 10
31800.0
 20
41000.0
 10
31800.0
 20
40500.0
 10
32300.0
 20
40500.0
 10
32300.0
 20
40000.0
 10
32800.0
 20
40000.0
 10
32800.0
 20
39500.0
 10
32800.0
 20
39000.0
 10
32800.0
 20
38500.0
 10
32800.0
 20
38000.0
 10
32800.0
 20
37500.0
 10
32300.0
 20
37500.0
 10
31800.0
 20
37500.0
 10
31300.0
 20
37500.0
 10
30800.0
 20
37500.0
 10
30800.0
 20
38000.0
 10
30300.0
 20
38000.0
 10
29800.0
 20
38000.0
 10
29300.0
 20
38000.0
 10
29300.0
 20
37500.0
 10
28800.0
 20
37500.0
 10
28300.0
 20
37500.0
 10
27800.0
 20
37500.0
 10
27300.0
 20
37500.0
 10
26800.0
 20
37500.0
 10
26800.0
 20
38000.0
 10
26800.0
 20
38500.0
 10
26800.0
 20
38800.0
 10
26925.0
 20
38800.0
 10
26925.0
 20
39000.0
 10
27300.0
 20
39000.0
 10
27300.0
 20
39500.0
 97
0
 92
3
 72
0
 73
1
 93
24
 10
43300.0
 20
34000.0
 10
42800.0
 20
34000.0
 10
42800.0
 20
34500.0
 10
42800.0
 20
35000.0
 10
43300.0
 20
35000.0
 10
43300.0
 20
35500.0
 10
43800.0
 20
35500.0
 10
43800.0
 20
36000.0
 10
44300.0
 20
36000.0
 10
44800.0
 20
36000.0
 10
44800.0
 20
35500.0
 10
44800.0
 20
35000.0
 10
44800.0
 20
34500.0
 10
44800.0
 20
34000.0
 10
44800.0
 20
33500.0
 10
44800.0
 20
33000.0
 10
44800.0
 20
32500.0
 10
44300.0
 20
32500.0
 10
44300.0
 20
32000.0
 10
43800.0
 20
32000.0
 10
43800.0
 20
32500.0
 10
43800.0
 20
33000.0
 10
43800.0
 20
33500.0
 10
43300.0
 20
33500.0
 97
0
 92
3
 72
0
 73
1
 93
6
 10
39800.0
 20
36000.0
 10
39800.0
 20
35500.0
 10
39800.0
 20
35000.0
 10
39300.0
 20
35000.0
 10
39300.0
 20
35500.0
 10
39300.0
 20
36000.0
 97
0
 92
3
 72
0
 73
1
 93
10
 10
37300.0
 20
38500.0
 10
37300.0
 20
39000.0
 10
37800.0
 20
39000.0
 10
37800.0
 20
38500.0
 10
37800.0
 20
38000.0
 10
37800.0
 20
37500.0
 10
37300.0
 20
37500.0
 10
36800.0
 20
37500.0
 10
36800.0
 20
38000.0
 10
37300.0
 20
38000.0
 97
0
 92
3
 72
0
 73
1
 93
6
 10
33800.0
 20
38000.0
 10
34300.0
 20
38000.0
 10
34300.0
 20
37500.0
 10
33800.0
 20
37500.0
 10
33300.0
 20
37500.0
 10
33300.0
 20
38000.0
 97
0
 75
1
 76
1
 98
0
  0
HATCH
  5
115
330
17
100
AcDbEntity
  8
A-CUT-HATCH
 62
2
100
AcDbHatch
 10
0.0
 20
0.0
 30
0.0
210
0.0
220
0.0
230
1.0
  2
SOLID
 70
1
 71
0
 91
5
 92
3
 72
0
 73
1
 93
16
 10
31800.0
 20
40500.0
 10
31800.0
 20
41000.0
 10
31300.0
 20
41000.0
 10
31300.0
 20
41500.0
 10
30800.0
 20
41500.0
 10
30800.0
 20
42000.0
 10
31300.0
 20
42000.0
 10
31800.0
 20
42000.0
 10
31800.0
 20
41500.0
 10
32300.0
 20
41500.0
 10
32300.0
 20
41000.0
 10
32800.0
 20
41000.0
 10
32800.0
 20
40500.0
 10
32800.0
 20
40000.0
 10
32300.0
 20
40000.0
 10
32300.0
 20
40500.0
 97
0
 92
3
 72
0
 73
1
 93
4
 10
32300.0
 20
41500.0
 10
32300.0
 20
42000.0
 10
32800.0
 20
42000.0
 10
32800.0
 20
41500.0
 97
0
 92
3
 72
0
 73
1
 93
12
 10
43800.0
 20
31500.0
 10
43800.0
 20
32000.0
 10
44300.0
 20
32000.0
 10
44300.0
 20
32500.0
 10
44800.0
 20
32500.0
 10
44800.0
 20
32000.0
 10
44800.0
 20
31500.0
 10
44800.0
 20
31000.0
 10
44800.0
 20
30500.0
 10
44300.0
 20
30500.0
 10
44300.0
 20
31000.0
 10
44300.0
 20
31500.0
 97
0
 92
3
 72
0
 73
1
 93
6
 10
43800.0
 20
33000.0
 10
43800.0
 20
32500.0
 10
43300.0
 20
32500.0
 10
43300.0
 20
33000.0
 10
43300.0
 20
33500.0
 10
43800.0
 20
33500.0
 97
0
 92
3
 72
0
 73
1
 93
4
 10
33300.0
 20
38000.0
 10
33300.0
 20
38500.0
 10
33800.0
 20
38500.0
 10
33800.0
 20
38000.0
 97
0
 75
1
 76
1
 98
0
  0
LWPOLYLINE
  5
116
330
17
100
AcDbEntity
  8
A-CUT
370
35
100
AcDbPolyline
 90
4
 70
1
 10
26675.0
 20
29875.0
 10
27700.0
 20
29875.0
 10
27700.0
 20
30125.0
 10
26675.0
 20
30125.0
  0
LWPOLYLINE
  5
117
330
17
100
AcDbEntity
  8
A-CUT
370
35
100
AcDbPolyline
 90
4
 70
1
 10
28700.0
 20
29875.0
 10
31000.0
 20
29875.0
 10
31000.0
 20
30125.0
 10
28700.0
 20
30125.0
  0
LWPOLYLINE
  5
118
330
17
100
AcDbEntity
  8
A-CUT
370
35
100
AcDbPolyline
 90
4
 70
1
 10
32000.0
 20
29875.0
 10
34000.0
 20
29875.0
 10
34000.0
 20
30125.0
 10
32000.0
 20
30125.0
  0
LWPOLYLINE
  5
119
330
17
100
AcDbEntity
  8
A-CUT
370
35
100
AcDbPolyline
 90
4
 70
1
 10
35600.0
 20
29875.0
 10
45175.0
 20
29875.0
 10
45175.0
 20
30125.0
 10
35600.0
 20
30125.0
  0
LWPOLYLINE
  5
11A
330
17
100
AcDbEntity
  8
A-CUT
370
35
100
AcDbPolyline
 90
4
 70
1
 10
26675.0
 20
48125.0
 10
40800.0
 20
48125.0
 10
40800.0
 20
48375.0
 10
26675.0
 20
48375.0
  0
LWPOLYLINE
  5
11B
330
17
100
AcDbEntity
  8
A-CUT
370
35
100
AcDbPolyline
 90
4
 70
1
 10
42400.0
 20
48125.0
 10
45175.0
 20
48125.0
 10
45175.0
 20
48375.0
 10
42400.0
 20
48375.0
  0
LWPOLYLINE
  5
11C
330
17
100
AcDbEntity
  8
A-CUT
370
35
100
AcDbPolyline
 90
4
 70
1
 10
26675.0
 20
30125.0
 10
26925.0
 20
30125.0
 10
26925.0
 20
37200.0
 10
26675.0
 20
37200.0
  0
LWPOLYLINE
  5
11D
330
17
100
AcDbEntity
  8
A-CUT
370
35
100
AcDbPolyline
 90
4
 70
1
 10
26675.0
 20
38800.0
 10
26925.0
 20
38800.0
 10
26925.0
 20
39800.0
 10
26675.0
 20
39800.0
  0
LWPOLYLINE
  5
11E
330
17
100
AcDbEntity
  8
A-CUT
370
35
100
AcDbPolyline
 90
4
 70
1
 10
26675.0
 20
40800.0
 10
26925.0
 20
40800.0
 10
26925.0
 20
48125.0
 10
26675.0
 20
48125.0
  0
LWPOLYLINE
  5
11F
330
17
100
AcDbEntity
  8
A-CUT
370
35
100
AcDbPolyline
 90
4
 70
1
 10
44925.0
 20
30125.0
 10
45175.0
 20
30125.0
 10
45175.0
 20
45500.0
 10
44925.0
 20
45500.0
  0
LWPOLYLINE
  5
120
330
17
100
AcDbEntity
  8
A-CUT
370
35
100
AcDbPolyline
 90
4
 70
1
 10
44925.0
 20
46500.0
 10
45175.0
 20
46500.0
 10
45175.0
 20
48125.0
 10
44925.0
 20
48125.0
  0
LWPOLYLINE
  5
121
330
17
100
AcDbEntity
  8
A-CUT
370
35
100
AcDbPolyline
 90
4
 70
1
 10
32800.0
 20
30125.0
 10
33050.0
 20
30125.0
 10
33050.0
 20
35000.0
 10
32800.0
 20
35000.0
  0
LWPOLYLINE
  5
122
330
17
100
AcDbEntity
  8
A-CUT
370
35
100
AcDbPolyline
 90
4
 70
1
 10
32800.0
 20
35900.0
 10
33050.0
 20
35900.0
 10
33050.0
 20
36400.0
 10
32800.0
 20
36400.0
  0
LWPOLYLINE
  5
123
330
17
100
AcDbEntity
  8
A-CUT
370
35
100
AcDbPolyline
 90
4
 70
1
 10
32800.0
 20
37300.0
 10
33050.0
 20
37300.0
 10
33050.0
 20
42500.0
 10
32800.0
 20
42500.0
  0
LWPOLYLINE
  5
124
330
17
100
AcDbEntity
  8
A-CUT
370
35
100
AcDbPolyline
 90
4
 70
1
 10
32800.0
 20
43400.0
 10
33050.0
 20
43400.0
 10
33050.0
 20
48125.0
 10
32800.0
 20
48125.0
  0
LWPOLYLINE
  5
125
330
17
100
AcDbEntity
  8
A-CUT
370
35
100
AcDbPolyline
 90
4
 70
1
 10
38800.0
 20
30125.0
 10
39050.0
 20
30125.0
 10
39050.0
 20
36400.0
 10
38800.0
 20
36400.0
  0
LWPOLYLINE
  5
126
330
17
100
AcDbEntity
  8
A-CUT
370
35
100
AcDbPolyline
 90
4
 70
1
 10
38800.0
 20
37300.0
 10
39050.0
 20
37300.0
 10
39050.0
 20
43000.0
 10
38800.0
 20
43000.0
  0
LWPOLYLINE
  5
127
330
17
100
AcDbEntity
  8
A-CUT
370
35
100
AcDbPolyline
 90
4
 70
1
 10
38800.0
 20
43800.0
 10
39050.0
 20
43800.0
 10
39050.0
 20
48125.0
 10
38800.0
 20
48125.0
  0
LWPOLYLINE
  5
128
330
17
100
AcDbEntity
  8
A-CUT
370
35
100
AcDbPolyline
 90
4
 70
1
 10
26925.0
 20
36000.0
 10
27800.0
 20
36000.0
 10
27800.0
 20
36250.0
 10
26925.0
 20
36250.0
  0
LWPOLYLINE
  5
129
330
17
100
AcDbEntity
  8
A-CUT
370
35
100
AcDbPolyline
 90
4
 70
1
 10
28600.0
 20
36000.0
 10
35300.0
 20
36000.0
 10
35300.0
 20
36250.0
 10
28600.0
 20
36250.0
  0
LWPOLYLINE
  5
12A
330
17
100
AcDbEntity
  8
A-CUT
370
35
100
AcDbPolyline
 90
4
 70
1
 10
36300.0
 20
36000.0
 10
40800.0
 20
36000.0
 10
40800.0
 20
36250.0
 10
36300.0
 20
36250.0
  0
LWPOLYLINE
  5
12B
330
17
100
AcDbEntity
  8
A-CUT
370
35
100
AcDbPolyline
 90
4
 70
1
 10
42400.0
 20
36000.0
 10
44925.0
 20
36000.0
 10
44925.0
 20
36250.0
 10
42400.0
 20
36250.0
  0
LWPOLYLINE
  5
12C
330
17
100
AcDbEntity
  8
A-CUT
370
35
100
AcDbPolyline
 90
4
 70
1
 10
26925.0
 20
42000.0
 10
31300.0
 20
42000.0
 10
31300.0
 20
42250.0
 10
26925.0
 20
42250.0
  0
LWPOLYLINE
  5
12D
330
17
100
AcDbEntity
  8
A-CUT
370
35
100
AcDbPolyline
 90
4
 70
1
 10
32100.0
 20
42000.0
 10
37700.0
 20
42000.0
 10
37700.0
 20
42250.0
 10
32100.0
 20
42250.0
  0
LWPOLYLINE
  5
12E
330
17
100
AcDbEntity
  8
A-CUT
370
35
100
AcDbPolyline
 90
4
 70
1
 10
38600.0
 20
42000.0
 10
43300.0
 20
42000.0
 10
43300.0
 20
42250.0
 10
38600.0
 20
42250.0
  0
LWPOLYLINE
  5
12F
330
17
100
AcDbEntity
  8
A-CUT
370
35
100
AcDbPolyline
 90
4
 70
1
 10
44100.0
 20
42000.0
 10
44925.0
 20
42000.0
 10
44925.0
 20
42250.0
 10
44100.0
 20
42250.0
  0
LWPOLYLINE
  5
130
330
17
100
AcDbEntity
  8
A-CUT-LGS
370
18
100
AcDbPolyline
 90
4
 70
1
 10
29575.0
 20
30125.0
 10
29675.0
 20
30125.0
 10
29675.0
 20
34800.0
 10
29575.0
 20
34800.0
  0
LWPOLYLINE
  5
131
330
17
100
AcDbEntity
  8
A-CUT-LGS
370
18
100
AcDbPolyline
 90
4
 70
1
 10
30175.0
 20
30125.0
 10
30275.0
 20
30125.0
 10
30275.0
 20
34800.0
 10
30175.0
 20
34800.0
  0
LWPOLYLINE
  5
132
330
17
100
AcDbEntity
  8
A-CUT-LGS
370
18
100
AcDbPolyline
 90
4
 70
1
 10
26925.0
 20
34800.0
 10
27800.0
 20
34800.0
 10
27800.0
 20
34900.0
 10
26925.0
 20
34900.0
  0
LWPOLYLINE
  5
133
330
17
100
AcDbEntity
  8
A-CUT-LGS
370
18
100
AcDbPolyline
 90
4
 70
1
 10
28600.0
 20
34800.0
 10
31000.0
 20
34800.0
 10
31000.0
 20
34900.0
 10
28600.0
 20
34900.0
  0
LWPOLYLINE
  5
134
330
17
100
AcDbEntity
  8
A-CUT-LGS
370
18
100
AcDbPolyline
 90
4
 70
1
 10
31800.0
 20
34800.0
 10
32800.0
 20
34800.0
 10
32800.0
 20
34900.0
 10
31800.0
 20
34900.0
  0
LWPOLYLINE
  5
135
330
17
100
AcDbEntity
  8
A-CUT-LGS
370
18
100
AcDbPolyline
 90
4
 70
1
 10
33050.0
 20
34800.0
 10
33800.0
 20
34800.0
 10
33800.0
 20
34900.0
 10
33050.0
 20
34900.0
  0
LWPOLYLINE
  5
136
330
17
100
AcDbEntity
  8
A-CUT-LGS
370
18
100
AcDbPolyline
 90
4
 70
1
 10
34600.0
 20
34800.0
 10
38800.0
 20
34800.0
 10
38800.0
 20
34900.0
 10
34600.0
 20
34900.0
  0
LWPOLYLINE
  5
137
330
17
100
AcDbEntity
  8
A-CUT-LGS
370
18
100
AcDbPolyline
 90
4
 70
1
 10
36700.0
 20
30125.0
 10
36800.0
 20
30125.0
 10
36800.0
 20
33800.0
 10
36700.0
 20
33800.0
  0
LWPOLYLINE
  5
138
330
17
100
AcDbEntity
  8
A-CUT-LGS
370
18
100
AcDbPolyline
 90
4
 70
1
 10
36700.0
 20
34600.0
 10
36800.0
 20
34600.0
 10
36800.0
 20
34800.0
 10
36700.0
 20
34800.0
  0
LWPOLYLINE
  5
139
330
17
100
AcDbEntity
  8
A-CUT-LGS
370
18
100
AcDbPolyline
 90
4
 70
1
 10
39050.0
 20
38100.0
 10
44925.0
 20
38100.0
 10
44925.0
 20
38200.0
 10
39050.0
 20
38200.0
  0
LWPOLYLINE
  5
13A
330
17
100
AcDbEntity
  8
A-CUT-LGS
370
18
100
AcDbPolyline
 90
4
 70
1
 10
35550.0
 20
39800.0
 10
36000.0
 20
39800.0
 10
36000.0
 20
39900.0
 10
35550.0
 20
39900.0
  0
LWPOLYLINE
  5
13B
330
17
100
AcDbEntity
  8
A-CUT-LGS
370
18
100
AcDbPolyline
 90
4
 70
1
 10
36800.0
 20
39800.0
 10
37450.0
 20
39800.0
 10
37450.0
 20
39900.0
 10
36800.0
 20
39900.0
  0
LWPOLYLINE
  5
13C
330
17
100
AcDbEntity
  8
A-CUT-LGS
370
18
100
AcDbPolyline
 90
4
 70
1
 10
35450.0
 20
39850.0
 10
35550.0
 20
39850.0
 10
35550.0
 20
42000.0
 10
35450.0
 20
42000.0
  0
LWPOLYLINE
  5
13D
330
17
100
AcDbEntity
  8
A-CUT-LGS
370
18
100
AcDbPolyline
 90
4
 70
1
 10
37400.0
 20
39850.0
 10
37500.0
 20
39850.0
 10
37500.0
 20
42000.0
 10
37400.0
 20
42000.0
  0
LWPOLYLINE
  5
13E
330
17
100
AcDbEntity
  8
A-CUT-LGS
370
18
100
AcDbPolyline
 90
4
 70
1
 10
30700.0
 20
42250.0
 10
30800.0
 20
42250.0
 10
30800.0
 20
43000.0
 10
30700.0
 20
43000.0
  0
LWPOLYLINE
  5
13F
330
17
100
AcDbEntity
  8
A-CUT-LGS
370
18
100
AcDbPolyline
 90
4
 70
1
 10
30700.0
 20
43800.0
 10
30800.0
 20
43800.0
 10
30800.0
 20
48125.0
 10
30700.0
 20
48125.0
  0
LWPOLYLINE
  5
140
330
17
100
AcDbEntity
  8
A-CUT-LGS
370
18
100
AcDbPolyline
 90
4
 70
1
 10
36300.0
 20
42250.0
 10
36400.0
 20
42250.0
 10
36400.0
 20
42500.0
 10
36300.0
 20
42500.0
  0
LWPOLYLINE
  5
141
330
17
100
AcDbEntity
  8
A-CUT-LGS
370
18
100
AcDbPolyline
 90
4
 70
1
 10
36300.0
 20
43300.0
 10
36400.0
 20
43300.0
 10
36400.0
 20
48125.0
 10
36300.0
 20
48125.0
  0
LWPOLYLINE
  5
142
330
17
100
AcDbEntity
  8
A-CUT-LGS
370
18
100
AcDbPolyline
 90
4
 70
1
 10
33050.0
 20
44800.0
 10
33800.0
 20
44800.0
 10
33800.0
 20
44900.0
 10
33050.0
 20
44900.0
  0
LWPOLYLINE
  5
143
330
17
100
AcDbEntity
  8
A-CUT-LGS
370
18
100
AcDbPolyline
 90
4
 70
1
 10
34600.0
 20
44800.0
 10
36300.0
 20
44800.0
 10
36300.0
 20
44900.0
 10
34600.0
 20
44900.0
  0
LWPOLYLINE
  5
144
330
17
100
AcDbEntity
  8
A-CUT-LGS
370
18
100
AcDbPolyline
 90
4
 70
1
 10
36400.0
 20
45500.0
 10
37100.0
 20
45500.0
 10
37100.0
 20
45600.0
 10
36400.0
 20
45600.0
  0
LWPOLYLINE
  5
145
330
17
100
AcDbEntity
  8
A-CUT-LGS
370
18
100
AcDbPolyline
 90
4
 70
1
 10
37900.0
 20
45500.0
 10
38800.0
 20
45500.0
 10
38800.0
 20
45600.0
 10
37900.0
 20
45600.0
  0
CIRCLE
  5
146
330
17
100
AcDbEntity
  8
A-CUT
370
35
100
AcDbCircle
 10
41987.5
 20
37175.0
 30
0.0
 40
320.0
  0
TEXT
  5
147
330
17
100
AcDbEntity
  8
A-TEXT
100
AcDbText
 10
41987.5
 20
37175.0
 30
0.0
 40
280.0
  1
AP2-1
  7
JP
 72
1
 11
41987.5
 21
37175.0
 31
0.0
100
AcDbText
 73
2
  0
CIRCLE
  5
148
330
17
100
AcDbEntity
  8
A-CUT
370
35
100
AcDbCircle
 10
35925.0
 20
35450.0
 30
0.0
 40
320.0
  0
TEXT
  5
149
330
17
100
AcDbEntity
  8
A-TEXT
100
AcDbText
 10
35925.0
 20
35450.0
 30
0.0
 40
280.0
  1
AP2-2
  7
JP
 72
1
 11
35925.0
 21
35450.0
 31
0.0
100
AcDbText
 73
2
  0
CIRCLE
  5
14A
330
17
100
AcDbEntity
  8
A-CUT
370
35
100
AcDbCircle
 10
37600.0
 20
43875.0
 30
0.0
 40
320.0
  0
TEXT
  5
14B
330
17
100
AcDbEntity
  8
A-TEXT
100
AcDbText
 10
37600.0
 20
43875.0
 30
0.0
 40
280.0
  1
AP2-3
  7
JP
 72
1
 11
37600.0
 21
43875.0
 31
0.0
100
AcDbText
 73
2
  0
CIRCLE
  5
14C
330
17
100
AcDbEntity
  8
A-CUT
370
35
100
AcDbCircle
 10
29862.5
 20
35450.0
 30
0.0
 40
320.0
  0
TEXT
  5
14D
330
17
100
AcDbEntity
  8
A-TEXT
100
AcDbText
 10
29862.5
 20
35450.0
 30
0.0
 40
280.0
  1
AP2-4
  7
JP
 72
1
 11
29862.5
 21
35450.0
 31
0.0
100
AcDbText
 73
2
  0
CIRCLE
  5
14E
330
17
100
AcDbEntity
  8
A-CUT
370
35
100
AcDbCircle
 10
28812.5
 20
45187.5
 30
0.0
 40
320.0
  0
TEXT
  5
14F
330
17
100
AcDbEntity
  8
A-TEXT
100
AcDbText
 10
28812.5
 20
45187.5
 30
0.0
 40
280.0
  1
AP2-5
  7
JP
 72
1
 11
28812.5
 21
45187.5
 31
0.0
100
AcDbText
 73
2
  0
CIRCLE
  5
150
330
17
100
AcDbEntity
  8
A-CUT
370
35
100
AcDbCircle
 10
41987.5
 20
45187.5
 30
0.0
 40
320.0
  0
TEXT
  5
151
330
17
100
AcDbEntity
  8
A-TEXT
100
AcDbText
 10
41987.5
 20
45187.5
 30
0.0
 40
280.0
  1
AP2-6
  7
JP
 72
1
 11
41987.5
 21
45187.5
 31
0.0
100
AcDbText
 73
2
  0
TEXT
  5
152
330
17
100
AcDbEntity
  8
A-TEXT
100
AcDbText
 10
26800.0
 20
28500.0
 30
0.0
 40
520.0
  1
2階（AP 6台・目標を満たす面積 99%）
  7
JP
 11
26800.0
 21
28500.0
 31
0.0
100
AcDbText
 73
3
  0
HATCH
  5
153
330
17
100
AcDbEntity
  8
A-CUT-HATCH
 62
3
100
AcDbHatch
 10
0.0
 20
0.0
 30
0.0
210
0.0
220
0.0
230
1.0
  2
SOLID
 70
1
 71
0
 91
1
 92
3
 72
0
 73
1
 93
4
 10
5600.0
 20
25600.0
 10
5600.0
 20
26300.0
 10
4400.0
 20
26300.0
 10
4400.0
 20
25600.0
 97
0
 75
1
 76
1
 98
0
  0
TEXT
  5
154
330
17
100
AcDbEntity
  8
A-TEXT
100
AcDbText
 10
6000.0
 20
25700.0
 30
0.0
 40
400.0
  1
−60dBm 以上（高速）
  7
JP
 11
6000.0
 21
25700.0
 31
0.0
100
AcDbText
  0
HATCH
  5
155
330
17
100
AcDbEntity
  8
A-CUT-HATCH
 62
4
100
AcDbHatch
 10
0.0
 20
0.0
 30
0.0
210
0.0
220
0.0
230
1.0
  2
SOLID
 70
1
 71
0
 91
1
 92
3
 72
0
 73
1
 93
4
 10
5600.0
 20
24500.0
 10
5600.0
 20
25200.0
 10
4400.0
 20
25200.0
 10
4400.0
 20
24500.0
 97
0
 75
1
 76
1
 98
0
  0
TEXT
  5
156
330
17
100
AcDbEntity
  8
A-TEXT
100
AcDbText
 10
6000.0
 20
24600.0
 30
0.0
 40
400.0
  1
-67〜−60dBm（快適）
  7
JP
 11
6000.0
 21
24600.0
 31
0.0
100
AcDbText
  0
HATCH
  5
157
330
17
100
AcDbEntity
  8
A-CUT-HATCH
 62
2
100
AcDbHatch
 10
0.0
 20
0.0
 30
0.0
210
0.0
220
0.0
230
1.0
  2
SOLID
 70
1
 71
0
 91
1
 92
3
 72
0
 73
1
 93
4
 10
5600.0
 20
23400.0
 10
5600.0
 20
24100.0
 10
4400.0
 20
24100.0
 10
4400.0
 20
23400.0
 97
0
 75
1
 76
1
 98
0
  0
TEXT
  5
158
330
17
100
AcDbEntity
  8
A-TEXT
100
AcDbText
 10
6000.0
 20
23500.0
 30
0.0
 40
400.0
  1
−75〜-67dBm（つながるが遅い）
  7
JP
 11
6000.0
 21
23500.0
 31
0.0
100
AcDbText
  0
HATCH
  5
159
330
17
100
AcDbEntity
  8
A-CUT-HATCH
 62
1
100
AcDbHatch
 10
0.0
 20
0.0
 30
0.0
210
0.0
220
0.0
230
1.0
  2
SOLID
 70
1
 71
0
 91
1
 92
3
 72
0
 73
1
 93
4
 10
5600.0
 20
22300.0
 10
5600.0
 20
23000.0
 10
4400.0
 20
23000.0
 10
4400.0
 20
22300.0
 97
0
 75
1
 76
1
 98
0
  0
TEXT
  5
15A
330
17
100
AcDbEntity
  8
A-TEXT
100
AcDbText
 10
6000.0
 20
22400.0
 30
0.0
 40
400.0
  1
−75dBm 未満（不安定）
  7
JP
 11
6000.0
 21
22400.0
 31
0.0
100
AcDbText
  0
TEXT
  5
15B
330
17
100
AcDbEntity
  8
A-TEXT
100
AcDbText
 10
50000.0
 20
54200.0
 30
0.0
 40
560.0
  1
(1) アクセスポイント
  7
JP
 11
50000.0
 21
54200.0
 31
0.0
100
AcDbText
  0
LWPOLYLINE
  5
15C
330
17
100
AcDbEntity
  8
G-TABLE
370
35
100
AcDbPolyline
 90
2
 70
0
 10
50000.0
 20
53600.0
 10
68800.0
 20
53600.0
  0
TEXT
  5
15D
330
17
100
AcDbEntity
  8
A-TEXT
100
AcDbText
 10
50200.0
 20
52980.00000000001
 30
0.0
 40
380.0
  1
AP
  7
JP
 11
50200.0
 21
52980.00000000001
 31
0.0
100
AcDbText
  0
TEXT
  5
15E
330
17
100
AcDbEntity
  8
A-TEXT
100
AcDbText
 10
53800.0
 20
52980.00000000001
 30
0.0
 40
380.0
  1
設置位置（天井）
  7
JP
 11
53800.0
 21
52980.00000000001
 31
0.0
100
AcDbText
  0
TEXT
  5
15F
330
17
100
AcDbEntity
  8
A-TEXT
100
AcDbText
 10
66600.0
 20
52980.00000000001
 30
0.0
 40
380.0
  1
階
  7
JP
 11
66600.0
 21
52980.00000000001
 31
0.0
100
AcDbText
  0
LWPOLYLINE
  5
160
330
17
100
AcDbEntity
  8
G-TABLE
370
35
100
AcDbPolyline
 90
2
 70
0
 10
50000.0
 20
52679.99999999999
 10
68800.0
 20
52679.99999999999
  0
TEXT
  5
161
330
17
100
AcDbEntity
  8
A-TEXT
100
AcDbText
 10
50200.0
 20
52060.0
 30
0.0
 40
380.0
  1
AP1-1
  7
JP
 11
50200.0
 21
52060.0
 31
0.0
100
AcDbText
  0
TEXT
  5
162
330
17
100
AcDbEntity
  8
A-TEXT
100
AcDbText
 10
53800.0
 20
52060.0
 30
0.0
 40
380.0
  1
ホール
  7
JP
 11
53800.0
 21
52060.0
 31
0.0
100
AcDbText
  0
TEXT
  5
163
330
17
100
AcDbEntity
  8
A-TEXT
100
AcDbText
 10
66600.0
 20
52060.0
 30
0.0
 40
380.0
  1
1F
  7
JP
 11
66600.0
 21
52060.0
 31
0.0
100
AcDbText
  0
LWPOLYLINE
  5
164
330
17
100
AcDbEntity
  8
G-TABLE
370
18
100
AcDbPolyline
 90
2
 70
0
 10
50000.0
 20
51759.99999999999
 10
68800.0
 20
51759.99999999999
  0
TEXT
  5
165
330
17
100
AcDbEntity
  8
A-TEXT
100
AcDbText
 10
50200.0
 20
51139.99999999999
 30
0.0
 40
380.0
  1
AP1-2
  7
JP
 11
50200.0
 21
51139.99999999999
 31
0.0
100
AcDbText
  0
TEXT
  5
166
330
17
100
AcDbEntity
  8
A-TEXT
100
AcDbText
 10
53800.0
 20
51139.99999999999
 30
0.0
 40
380.0
  1
ランドリー・室内干し
  7
JP
 11
53800.0
 21
51139.99999999999
 31
0.0
100
AcDbText
  0
TEXT
  5
167
330
17
100
AcDbEntity
  8
A-TEXT
100
AcDbText
 10
66600.0
 20
51139.99999999999
 30
0.0
 40
380.0
  1
1F
  7
JP
 11
66600.0
 21
51139.99999999999
 31
0.0
100
AcDbText
  0
LWPOLYLINE
  5
168
330
17
100
AcDbEntity
  8
G-TABLE
370
18
100
AcDbPolyline
 90
2
 70
0
 10
50000.0
 20
50839.99999999999
 10
68800.0
 20
50839.99999999999
  0
TEXT
  5
169
330
17
100
AcDbEntity
  8
A-TEXT
100
AcDbText
 10
50200.0
 20
50219.99999999999
 30
0.0
 40
380.0
  1
AP1-3
  7
JP
 11
50200.0
 21
50219.99999999999
 31
0.0
100
AcDbText
  0
TEXT
  5
16A
330
17
100
AcDbEntity
  8
A-TEXT
100
AcDbText
 10
53800.0
 20
50219.99999999999
 30
0.0
 40
380.0
  1
ジム
  7
JP
 11
53800.0
 21
50219.99999999999
 31
0.0
100
AcDbText
  0
TEXT
  5
16B
330
17
100
AcDbEntity
  8
A-TEXT
100
AcDbText
 10
66600.0
 20
50219.99999999999
 30
0.0
 40
380.0
  1
1F
  7
JP
 11
66600.0
 21
50219.99999999999
 31
0.0
100
AcDbText
  0
LWPOLYLINE
  5
16C
330
17
100
AcDbEntity
  8
G-TABLE
370
18
100
AcDbPolyline
 90
2
 70
0
 10
50000.0
 20
49919.99999999999
 10
68800.0
 20
49919.99999999999
  0
TEXT
  5
16D
330
17
100
AcDbEntity
  8
A-TEXT
100
AcDbText
 10
50200.0
 20
49299.99999999999
 30
0.0
 40
380.0
  1
AP1-4
  7
JP
 11
50200.0
 21
49299.99999999999
 31
0.0
100
AcDbText
  0
TEXT
  5
16E
330
17
100
AcDbEntity
  8
A-TEXT
100
AcDbText
 10
53800.0
 20
49299.99999999999
 30
0.0
 40
380.0
  1
廊下
  7
JP
 11
53800.0
 21
49299.99999999999
 31
0.0
100
AcDbText
  0
TEXT
  5
16F
330
17
100
AcDbEntity
  8
A-TEXT
100
AcDbText
 10
66600.0
 20
49299.99999999999
 30
0.0
 40
380.0
  1
1F
  7
JP
 11
66600.0
 21
49299.99999999999
 31
0.0
100
AcDbText
  0
LWPOLYLINE
  5
170
330
17
100
AcDbEntity
  8
G-TABLE
370
18
100
AcDbPolyline
 90
2
 70
0
 10
50000.0
 20
48999.99999999999
 10
68800.0
 20
48999.99999999999
  0
TEXT
  5
171
330
17
100
AcDbEntity
  8
A-TEXT
100
AcDbText
 10
50200.0
 20
48379.99999999999
 30
0.0
 40
380.0
  1
AP1-5
  7
JP
 11
50200.0
 21
48379.99999999999
 31
0.0
100
AcDbText
  0
TEXT
  5
172
330
17
100
AcDbEntity
  8
A-TEXT
100
AcDbText
 10
53800.0
 20
48379.99999999999
 30
0.0
 40
380.0
  1
キッチン
  7
JP
 11
53800.0
 21
48379.99999999999
 31
0.0
100
AcDbText
  0
TEXT
  5
173
330
17
100
AcDbEntity
  8
A-TEXT
100
AcDbText
 10
66600.0
 20
48379.99999999999
 30
0.0
 40
380.0
  1
1F
  7
JP
 11
66600.0
 21
48379.99999999999
 31
0.0
100
AcDbText
  0
LWPOLYLINE
  5
174
330
17
100
AcDbEntity
  8
G-TABLE
370
18
100
AcDbPolyline
 90
2
 70
0
 10
50000.0
 20
48079.99999999999
 10
68800.0
 20
48079.99999999999
  0
TEXT
  5
175
330
17
100
AcDbEntity
  8
A-TEXT
100
AcDbText
 10
50200.0
 20
47460.0
 30
0.0
 40
380.0
  1
AP1-6
  7
JP
 11
50200.0
 21
47460.0
 31
0.0
100
AcDbText
  0
TEXT
  5
176
330
17
100
AcDbEntity
  8
A-TEXT
100
AcDbText
 10
53800.0
 20
47460.0
 30
0.0
 40
380.0
  1
洗面・脱衣
  7
JP
 11
53800.0
 21
47460.0
 31
0.0
100
AcDbText
  0
TEXT
  5
177
330
17
100
AcDbEntity
  8
A-TEXT
100
AcDbText
 10
66600.0
 20
47460.0
 30
0.0
 40
380.0
  1
1F
  7
JP
 11
66600.0
 21
47460.0
 31
0.0
100
AcDbText
  0
LWPOLYLINE
  5
178
330
17
100
AcDbEntity
  8
G-TABLE
370
18
100
AcDbPolyline
 90
2
 70
0
 10
50000.0
 20
47160.0
 10
68800.0
 20
47160.0
  0
TEXT
  5
179
330
17
100
AcDbEntity
  8
A-TEXT
100
AcDbText
 10
50200.0
 20
46540.0
 30
0.0
 40
380.0
  1
AP2-1
  7
JP
 11
50200.0
 21
46540.0
 31
0.0
100
AcDbText
  0
TEXT
  5
17A
330
17
100
AcDbEntity
  8
A-TEXT
100
AcDbText
 10
53800.0
 20
46540.0
 30
0.0
 40
380.0
  1
前室（音響ロック）
  7
JP
 11
53800.0
 21
46540.0
 31
0.0
100
AcDbText
  0
TEXT
  5
17B
330
17
100
AcDbEntity
  8
A-TEXT
100
AcDbText
 10
66600.0
 20
46540.0
 30
0.0
 40
380.0
  1
2F
  7
JP
 11
66600.0
 21
46540.0
 31
0.0
100
AcDbText
  0
LWPOLYLINE
  5
17C
330
17
100
AcDbEntity
  8
G-TABLE
370
18
100
AcDbPolyline
 90
2
 70
0
 10
50000.0
 20
46240.0
 10
68800.0
 20
46240.0
  0
TEXT
  5
17D
330
17
100
AcDbEntity
  8
A-TEXT
100
AcDbText
 10
50200.0
 20
45620.0
 30
0.0
 40
380.0
  1
AP2-2
  7
JP
 11
50200.0
 21
45620.0
 31
0.0
100
AcDbText
  0
TEXT
  5
17E
330
17
100
AcDbEntity
  8
A-TEXT
100
AcDbText
 10
53800.0
 20
45620.0
 30
0.0
 40
380.0
  1
廊下
  7
JP
 11
53800.0
 21
45620.0
 31
0.0
100
AcDbText
  0
TEXT
  5
17F
330
17
100
AcDbEntity
  8
A-TEXT
100
AcDbText
 10
66600.0
 20
45620.0
 30
0.0
 40
380.0
  1
2F
  7
JP
 11
66600.0
 21
45620.0
 31
0.0
100
AcDbText
  0
LWPOLYLINE
  5
180
330
17
100
AcDbEntity
  8
G-TABLE
370
18
100
AcDbPolyline
 90
2
 70
0
 10
50000.0
 20
45320.0
 10
68800.0
 20
45320.0
  0
TEXT
  5
181
330
17
100
AcDbEntity
  8
A-TEXT
100
AcDbText
 10
50200.0
 20
44700.0
 30
0.0
 40
380.0
  1
AP2-3
  7
JP
 11
50200.0
 21
44700.0
 31
0.0
100
AcDbText
  0
TEXT
  5
182
330
17
100
AcDbEntity
  8
A-TEXT
100
AcDbText
 10
53800.0
 20
44700.0
 30
0.0
 40
380.0
  1
廊下
  7
JP
 11
53800.0
 21
44700.0
 31
0.0
100
AcDbText
  0
TEXT
  5
183
330
17
100
AcDbEntity
  8
A-TEXT
100
AcDbText
 10
66600.0
 20
44700.0
 30
0.0
 40
380.0
  1
2F
  7
JP
 11
66600.0
 21
44700.0
 31
0.0
100
AcDbText
  0
LWPOLYLINE
  5
184
330
17
100
AcDbEntity
  8
G-TABLE
370
18
100
AcDbPolyline
 90
2
 70
0
 10
50000.0
 20
44400.0
 10
68800.0
 20
44400.0
  0
TEXT
  5
185
330
17
100
AcDbEntity
  8
A-TEXT
100
AcDbText
 10
50200.0
 20
43780.0
 30
0.0
 40
380.0
  1
AP2-4
  7
JP
 11
50200.0
 21
43780.0
 31
0.0
100
AcDbText
  0
TEXT
  5
186
330
17
100
AcDbEntity
  8
A-TEXT
100
AcDbText
 10
53800.0
 20
43780.0
 30
0.0
 40
380.0
  1
廊下
  7
JP
 11
53800.0
 21
43780.0
 31
0.0
100
AcDbText
  0
TEXT
  5
187
330
17
100
AcDbEntity
  8
A-TEXT
100
AcDbText
 10
66600.0
 20
43780.0
 30
0.0
 40
380.0
  1
2F
  7
JP
 11
66600.0
 21
43780.0
 31
0.0
100
AcDbText
  0
LWPOLYLINE
  5
188
330
17
100
AcDbEntity
  8
G-TABLE
370
18
100
AcDbPolyline
 90
2
 70
0
 10
50000.0
 20
43480.0
 10
68800.0
 20
43480.0
  0
TEXT
  5
189
330
17
100
AcDbEntity
  8
A-TEXT
100
AcDbText
 10
50200.0
 20
42860.0
 30
0.0
 40
380.0
  1
AP2-5
  7
JP
 11
50200.0
 21
42860.0
 31
0.0
100
AcDbText
  0
TEXT
  5
18A
330
17
100
AcDbEntity
  8
A-TEXT
100
AcDbText
 10
53800.0
 20
42860.0
 30
0.0
 40
380.0
  1
ファミリークローゼット
  7
JP
 11
53800.0
 21
42860.0
 31
0.0
100
AcDbText
  0
TEXT
  5
18B
330
17
100
AcDbEntity
  8
A-TEXT
100
AcDbText
 10
66600.0
 20
42860.0
 30
0.0
 40
380.0
  1
2F
  7
JP
 11
66600.0
 21
42860.0
 31
0.0
100
AcDbText
  0
LWPOLYLINE
  5
18C
330
17
100
AcDbEntity
  8
G-TABLE
370
18
100
AcDbPolyline
 90
2
 70
0
 10
50000.0
 20
42560.0
 10
68800.0
 20
42560.0
  0
TEXT
  5
18D
330
17
100
AcDbEntity
  8
A-TEXT
100
AcDbText
 10
50200.0
 20
41940.0
 30
0.0
 40
380.0
  1
AP2-6
  7
JP
 11
50200.0
 21
41940.0
 31
0.0
100
AcDbText
  0
TEXT
  5
18E
330
17
100
AcDbEntity
  8
A-TEXT
100
AcDbText
 10
53800.0
 20
41940.0
 30
0.0
 40
380.0
  1
主寝室
  7
JP
 11
53800.0
 21
41940.0
 31
0.0
100
AcDbText
  0
TEXT
  5
18F
330
17
100
AcDbEntity
  8
A-TEXT
100
AcDbText
 10
66600.0
 20
41940.0
 30
0.0
 40
380.0
  1
2F
  7
JP
 11
66600.0
 21
41940.0
 31
0.0
100
AcDbText
  0
LWPOLYLINE
  5
190
330
17
100
AcDbEntity
  8
G-TABLE
370
18
100
AcDbPolyline
 90
2
 70
0
 10
50000.0
 20
41640.0
 10
68800.0
 20
41640.0
  0
LWPOLYLINE
  5
191
330
17
100
AcDbEntity
  8
G-TABLE
100
AcDbPolyline
 90
2
 70
0
 10
50000.0
 20
53600.0
 10
50000.0
 20
41640.0
  0
LWPOLYLINE
  5
192
330
17
100
AcDbEntity
  8
G-TABLE
100
AcDbPolyline
 90
2
 70
0
 10
53600.0
 20
53600.0
 10
53600.0
 20
41640.0
  0
LWPOLYLINE
  5
193
330
17
100
AcDbEntity
  8
G-TABLE
100
AcDbPolyline
 90
2
 70
0
 10
66400.0
 20
53600.0
 10
66400.0
 20
41640.0
  0
LWPOLYLINE
  5
194
330
17
100
AcDbEntity
  8
G-TABLE
100
AcDbPolyline
 90
2
 70
0
 10
68800.0
 20
53600.0
 10
68800.0
 20
41640.0
  0
TEXT
  5
195
330
17
100
AcDbEntity
  8
A-TEXT
100
AcDbText
 10
50000.0
 20
40440.0
 30
0.0
 40
600.0
  1
計画の考え方
  7
JP
 11
50000.0
 21
40440.0
 31
0.0
100
AcDbText
  0
TEXT
  5
196
330
17
100
AcDbEntity
  8
A-TEXT
100
AcDbText
 10
50200.0
 20
39340.0
 30
0.0
 40
420.0
  1
機器: Wi-Fi 7（6GHz/5GHz/2.4GHz）天井埋込 AP・PoE＋・有線バックホール（Cat6A）。各 AP は PoE＋の
  7
JP
 11
50200.0
 21
39340.0
 31
0.0
100
AcDbText
  0
TEXT
  5
197
330
17
100
AcDbEntity
  8
A-TEXT
100
AcDbText
 10
50200.0
 20
38580.0
 30
0.0
 40
420.0
  1
有線（Cat6A）で機械室（東系統）のネットワークラックに集める（無線中継に頼らない）
  7
JP
 11
50200.0
 21
38580.0
 31
0.0
100
AcDbText
  0
TEXT
  5
198
330
17
100
AcDbEntity
  8
A-TEXT
100
AcDbText
 10
50200.0
 20
37620.0
 30
0.0
 40
420.0
  1
壁式 RC は内部の耐力壁も RC 250mm で、5GHz は1枚で約25dB 減衰する。床スラブも厚いため、各階に AP を
  7
JP
 11
50200.0
 21
37620.0
 31
0.0
100
AcDbText
  0
TEXT
  5
199
330
17
100
AcDbEntity
  8
A-TEXT
100
AcDbText
 10
50200.0
 20
36860.0
 30
0.0
 40
420.0
  1
置き、RC 壁で囲まれた区画ごとに電波を届ける
  7
JP
 11
50200.0
 21
36860.0
 31
0.0
100
AcDbText
  0
TEXT
  5
19A
330
17
100
AcDbEntity
  8
A-TEXT
100
AcDbText
 10
50200.0
 20
35899.99999999999
 30
0.0
 40
420.0
  1
計算: 送信 20dBm、自由空間損失＋通過する壁の減衰（RC 25dB・間仕切 4dB・扉 4dB）。0.5m メッシュで受
  7
JP
 11
50200.0
 21
35899.99999999999
 31
0.0
100
AcDbText
  0
TEXT
  5
19B
330
17
100
AcDbEntity
  8
A-TEXT
100
AcDbText
 10
50200.0
 20
35139.99999999999
 30
0.0
 40
420.0
  1
信強度を求め、目標を満たす面積が最大になる位置に AP を1台ずつ追加
  7
JP
 11
50200.0
 21
35139.99999999999
 31
0.0
100
AcDbText
  0
TEXT
  5
19C
330
17
100
AcDbEntity
  8
A-TEXT
100
AcDbText
 10
50200.0
 20
34179.99999999999
 30
0.0
 40
420.0
  1
シアター・ジムは遮音のため扉が重く、それぞれ室内に AP を置くと安定する（必要に応じて実施設計で追加）。
  7
JP
 11
50200.0
 21
34179.99999999999
 31
0.0
100
AcDbText
  0
TEXT
  5
19D
330
17
100
AcDbEntity
  8
A-TEXT
100
AcDbText
 10
50200.0
 20
33419.999999999985
 30
0.0
 40
420.0
  1
外構（菜園・駐車場）は屋外用 AP を別途
  7
JP
 11
50200.0
 21
33419.999999999985
 31
0.0
100
AcDbText
  0
TEXT
  5
19E
330
17
100
AcDbEntity
  8
A-TEXT
100
AcDbText
 10
50200.0
 20
32459.999999999985
 30
0.0
 40
420.0
  1
実施設計で、機種の送信出力・アンテナ特性を用いて現地測定（竣工後のサイトサーベイ）で確認する
  7
JP
 11
50200.0
 21
32459.999999999985
 31
0.0
100
AcDbText
  0
ENDSEC
  0
SECTION
  2
OBJECTS
  0
DICTIONARY
  5
A
330
0
100
AcDbDictionary
281
1
  3
ACAD_COLOR
350
B
  3
ACAD_GROUP
350
C
  3
ACAD_LAYOUT
350
D
  3
ACAD_MATERIAL
350
E
  3
ACAD_MLEADERSTYLE
350
F
  3
ACAD_MLINESTYLE
350
10
  3
ACAD_PLOTSETTINGS
350
11
  3
ACAD_PLOTSTYLENAME
350
12
  3
ACAD_SCALELIST
350
14
  3
ACAD_TABLESTYLE
350
15
  3
ACAD_VISUALSTYLE
350
16
  3
EZDXF_META
350
2D
  0
DICTIONARY
  5
B
330
A
100
AcDbDictionary
281
1
  0
DICTIONARY
  5
C
330
A
100
AcDbDictionary
281
1
  0
DICTIONARY
  5
D
330
A
100
AcDbDictionary
281
1
  3
Model
350
1A
  3
Layout1
350
1E
  0
DICTIONARY
  5
E
330
A
100
AcDbDictionary
281
1
  3
ByBlock
350
1F
  3
ByLayer
350
20
  3
Global
350
21
  0
DICTIONARY
  5
F
330
A
100
AcDbDictionary
281
1
  3
Standard
350
2C
  0
DICTIONARY
  5
10
330
A
100
AcDbDictionary
281
1
  3
Standard
350
22
  0
DICTIONARY
  5
11
330
A
100
AcDbDictionary
281
1
  0
ACDBDICTIONARYWDFLT
  5
12
330
A
100
AcDbDictionary
281
1
  3
Normal
350
13
100
AcDbDictionaryWithDefault
340
13
  0
ACDBPLACEHOLDER
  5
13
330
12
  0
DICTIONARY
  5
14
330
A
100
AcDbDictionary
281
1
  0
DICTIONARY
  5
15
330
A
100
AcDbDictionary
281
1
  0
DICTIONARY
  5
16
330
A
100
AcDbDictionary
281
1
  3
2dWireframe
350
5A
  3
Basic
350
5B
  3
Brighten
350
5C
  3
ColorChange
350
5D
  3
Conceptual
350
5E
  3
Dim
350
5F
  3
EdgeColorOff
350
60
  3
Facepattern
350
61
  3
Flat
350
62
  3
FlatWithEdges
350
63
  3
Gouraud
350
64
  3
GouraudWithEdges
350
65
  3
Hidden
350
66
  3
JitterOff
350
67
  3
Linepattern
350
68
  3
Modeling
350
69
  3
OverhangOff
350
6A
  3
Realistic
350
6B
  3
Shaded
350
6C
  3
Shaded with edges
350
6D
  3
Shades of Gray
350
6E
  3
Sketchy
350
6F
  3
Thicken
350
70
  3
Wireframe
350
71
  3
X-Ray
350
72
  0
LAYOUT
  5
1A
330
D
100
AcDbPlotSettings
  1

  4
A3
  6

 40
7.5
 41
20.0
 42
7.5
 43
20.0
 44
420.0
 45
297.0
 46
0.0
 47
0.0
 48
0.0
 49
0.0
140
0.0
141
0.0
142
1.0
143
1.0
 70
1024
 72
1
 73
0
 74
5
  7

 75
16
 76
0
 77
2
 78
300
147
1.0
148
0.0
149
0.0
100
AcDbLayout
  1
Model
 70
1
 71
0
 10
0.0
 20
0.0
 11
420.0
 21
297.0
 12
0.0
 22
0.0
 32
0.0
 14
1e+20
 24
1e+20
 34
1e+20
 15
-1e+20
 25
-1e+20
 35
-1e+20
146
0.0
 13
0.0
 23
0.0
 33
0.0
 16
1.0
 26
0.0
 36
0.0
 17
0.0
 27
1.0
 37
0.0
 76
1
330
17
  0
LAYOUT
  5
1E
330
D
100
AcDbPlotSettings
  1

  4
A3
  6

 40
7.5
 41
20.0
 42
7.5
 43
20.0
 44
420.0
 45
297.0
 46
0.0
 47
0.0
 48
0.0
 49
0.0
140
0.0
141
0.0
142
1.0
143
1.0
 70
0
 72
1
 73
0
 74
5
  7

 75
16
 76
0
 77
2
 78
300
147
1.0
148
0.0
149
0.0
100
AcDbLayout
  1
Layout1
 70
1
 71
1
 10
0.0
 20
0.0
 11
420.0
 21
297.0
 12
0.0
 22
0.0
 32
0.0
 14
1e+20
 24
1e+20
 34
1e+20
 15
-1e+20
 25
-1e+20
 35
-1e+20
146
0.0
 13
0.0
 23
0.0
 33
0.0
 16
1.0
 26
0.0
 36
0.0
 17
0.0
 27
1.0
 37
0.0
 76
1
330
1B
  0
MATERIAL
  5
1F
102
{ACAD_REACTORS
330
E
102
}
330
E
100
AcDbMaterial
  1
ByBlock
  2

 70
0
 40
1.0
 71
1
 41
1.0
 91
-1023410177
 42
1.0
 72
1
  3

 73
1
 74
1
 75
1
 44
0.5
 73
0
 45
1.0
 46
1.0
 77
1
  4

 78
1
 79
1
170
1
 48
1.0
171
1
  6

172
1
173
1
174
1
140
1.0
141
1.0
175
1
  7

176
1
177
1
178
1
143
1.0
179
1
  8

270
1
271
1
272
1
145
1.0
146
1.0
273
1
  9

274
1
275
1
276
1
 42
1.0
 72
1
  3

 73
1
 74
1
 75
1
 94
63
  0
MATERIAL
  5
20
102
{ACAD_REACTORS
330
E
102
}
330
E
100
AcDbMaterial
  1
ByLayer
  2

 70
0
 40
1.0
 71
1
 41
1.0
 91
-1023410177
 42
1.0
 72
1
  3

 73
1
 74
1
 75
1
 44
0.5
 73
0
 45
1.0
 46
1.0
 77
1
  4

 78
1
 79
1
170
1
 48
1.0
171
1
  6

172
1
173
1
174
1
140
1.0
141
1.0
175
1
  7

176
1
177
1
178
1
143
1.0
179
1
  8

270
1
271
1
272
1
145
1.0
146
1.0
273
1
  9

274
1
275
1
276
1
 42
1.0
 72
1
  3

 73
1
 74
1
 75
1
 94
63
  0
MATERIAL
  5
21
102
{ACAD_REACTORS
330
E
102
}
330
E
100
AcDbMaterial
  1
Global
  2

 70
0
 40
1.0
 71
1
 41
1.0
 91
-1023410177
 42
1.0
 72
1
  3

 73
1
 74
1
 75
1
 44
0.5
 73
0
 45
1.0
 46
1.0
 77
1
  4

 78
1
 79
1
170
1
 48
1.0
171
1
  6

172
1
173
1
174
1
140
1.0
141
1.0
175
1
  7

176
1
177
1
178
1
143
1.0
179
1
  8

270
1
271
1
272
1
145
1.0
146
1.0
273
1
  9

274
1
275
1
276
1
 42
1.0
 72
1
  3

 73
1
 74
1
 75
1
 94
63
  0
MLINESTYLE
  5
22
102
{ACAD_REACTORS
330
10
102
}
330
10
100
AcDbMlineStyle
  2
Standard
 70
0
  3

 62
256
 51
90.0
 52
90.0
 71
2
 49
0.5
 62
256
  6
BYLAYER
 49
-0.5
 62
256
  6
BYLAYER
  0
MLEADERSTYLE
  5
2C
102
{ACAD_REACTORS
330
F
102
}
330
F
100
AcDbMLeaderStyle
179
2
170
2
171
1
172
0
 90
2
 40
0.0
 41
0.0
173
1
 91
-1056964608
 92
-2
290
1
 42
2.0
291
1
 43
8.0
  3
Standard
 44
4.0
300

342
29
174
1
175
1
176
0
178
1
 93
-1056964608
 45
4.0
292
0
297
0
 46
4.0
 94
-1056964608
 47
1.0
 49
1.0
140
1.0
294
1
141
0.0
177
0
142
1.0
295
0
296
0
143
3.75
271
0
272
9
273
9
  0
DICTIONARY
  5
2D
330
A
100
AcDbDictionary
280
1
281
1
  3
CREATED_BY_EZDXF
350
2E
  3
WRITTEN_BY_EZDXF
350
1A1
  0
DICTIONARYVAR
  5
2E
330
2D
100
DictionaryVariables
280
0
  1
1.4.4 @ 2026-10-04T15:51:25.879043+00:00
  0
VISUALSTYLE
  5
5A
102
{ACAD_REACTORS
330
16
102
}
330
16
100
AcDbVisualStyle
  2
2dWireframe
 70
4
177
3
291
0
 70
58
 90
2
176
1
 90
2
176
1
 90
0
176
1
 90
0
176
1
 40
0.6
176
1
 40
30.0
176
1
 62
7
420
16777215
176
1
 90
1
176
1
 90
4
176
1
 62
7
176
1
 62
257
176
1
 90
1
176
1
 90
1
176
1
 40
1.0
176
1
 90
8
176
1
 62
7
176
1
 40
1.0
176
1
 90
1
176
1
 90
6
176
1
 90
2
176
1
 62
7
176
1
 90
5
176
1
 90
0
176
1
 90
0
176
1
290
0
176
1
 90
1
176
1
 40
0.0
176
1
 90
0
176
1
290
1
176
1
290
1
176
1
290
0
176
1
290
0
176
1
290
0
176
1
290
0
176
1
290
0
176
1
290
0
176
1
290
0
176
1
 90
50
176
1
 40
0.0
176
1
 40
1.0
176
1
 90
0
176
1
 62
18
420
0
176
1
 90
50
176
1
 90
3
176
1
 62
5
420
255
176
1
290
0
176
1
 90
50
176
1
 90
50
176
1
 90
50
176
1
290
0
176
1
 90
50
176
1
 62
256
176
0
 40
1.0
176
0
 90
2
176
1
  1
strokes_ogs.tif
176
1
290
0
176
1
 40
1.0
176
1
 40
1.0
176
1
  0
VISUALSTYLE
  5
5B
102
{ACAD_REACTORS
330
16
102
}
330
16
100
AcDbVisualStyle
  2
Basic
 70
7
177
3
291
1
 70
58
 90
2
176
1
 90
2
176
1
 90
0
176
1
 90
1
176
1
 40
0.6
176
1
 40
30.0
176
1
 62
7
420
16777215
176
1
 90
1
176
1
 90
4
176
1
 62
7
176
1
 62
257
176
1
 90
1
176
1
 90
1
176
1
 40
1.0
176
1
 90
8
176
1
 62
7
176
1
 40
1.0
176
1
 90
1
176
1
 90
6
176
1
 90
2
176
1
 62
7
176
1
 90
5
176
1
 90
0
176
1
 90
0
176
1
290
0
176
1
 90
1
176
1
 40
0.0
176
1
 90
0
176
1
290
0
176
1
290
1
176
1
290
1
176
1
290
0
176
1
290
0
176
1
290
0
176
1
290
0
176
1
290
0
176
1
290
0
176
1
 90
50
176
1
 40
0.0
176
1
 40
1.0
176
1
 90
0
176
1
 62
18
420
0
176
1
 90
50
176
1
 90
3
176
1
 62
5
420
255
176
1
290
0
176
1
 90
50
176
1
 90
50
176
1
 90
50
176
1
290
0
176
1
 90
50
176
1
 62
256
176
0
 40
1.0
176
0
 90
2
176
1
  1
strokes_ogs.tif
176
1
290
0
176
1
 40
1.0
176
1
 40
1.0
176
1
  0
VISUALSTYLE
  5
5C
102
{ACAD_REACTORS
330
16
102
}
330
16
100
AcDbVisualStyle
  2
Brighten
 70
12
177
3
291
1
 70
58
 90
2
176
1
 90
2
176
1
 90
0
176
1
 90
2
176
1
 40
0.6
176
1
 40
30.0
176
1
 62
7
420
16777215
176
1
 90
1
176
1
 90
4
176
1
 62
7
176
1
 62
257
176
1
 90
1
176
1
 90
1
176
1
 40
1.0
176
1
 90
8
176
1
 62
7
176
1
 40
1.0
176
1
 90
1
176
1
 90
6
176
1
 90
2
176
1
 62
7
176
1
 90
5
176
1
 90
0
176
1
 90
0
176
1
290
0
176
1
 90
1
176
1
 40
0.0
176
1
 90
0
176
1
290
0
176
1
290
1
176
1
290
1
176
1
290
0
176
1
290
0
176
1
290
0
176
1
290
0
176
1
290
0
176
1
290
0
176
1
 90
50
176
1
 40
0.0
176
1
 40
1.0
176
1
 90
0
176
1
 62
18
420
0
176
1
 90
50
176
1
 90
3
176
1
 62
5
420
255
176
1
290
0
176
1
 90
50
176
1
 90
50
176
1
 90
50
176
1
290
0
176
1
 90
50
176
1
 62
256
176
0
 40
1.0
176
0
 90
2
176
1
  1
strokes_ogs.tif
176
1
290
0
176
1
 40
1.0
176
1
 40
1.0
176
1
  0
VISUALSTYLE
  5
5D
102
{ACAD_REACTORS
330
16
102
}
330
16
100
AcDbVisualStyle
  2
ColorChange
 70
16
177
3
291
1
 70
58
 90
2
176
1
 90
2
176
1
 90
0
176
1
 90
2
176
1
 40
0.6
176
1
 40
30.0
176
1
 62
7
420
16777215
176
1
 90
1
176
1
 90
4
176
1
 62
7
176
1
 62
257
176
1
 90
1
176
1
 90
1
176
1
 40
1.0
176
1
 90
8
176
1
 62
7
176
1
 40
1.0
176
1
 90
1
176
1
 90
6
176
1
 90
2
176
1
 62
7
176
1
 90
5
176
1
 90
0
176
1
 90
0
176
1
290
0
176
1
 90
1
176
1
 40
0.0
176
1
 90
0
176
1
290
0
176
1
290
1
176
1
290
1
176
1
290
0
176
1
290
0
176
1
290
0
176
1
290
0
176
1
290
0
176
1
290
0
176
1
 90
50
176
1
 40
0.0
176
1
 40
1.0
176
1
 90
0
176
1
 62
18
420
0
176
1
 90
50
176
1
 90
3
176
1
 62
5
420
255
176
1
290
0
176
1
 90
50
176
1
 90
50
176
1
 90
50
176
1
290
0
176
1
 90
50
176
1
 62
256
176
0
 40
1.0
176
0
 90
2
176
1
  1
strokes_ogs.tif
176
1
290
0
176
1
 40
1.0
176
1
 40
1.0
176
1
  0
VISUALSTYLE
  5
5E
102
{ACAD_REACTORS
330
16
102
}
330
16
100
AcDbVisualStyle
  2
Conceptual
 70
9
177
3
291
0
 70
58
 90
2
176
1
 90
2
176
1
 90
0
176
1
 90
3
176
1
 40
0.6
176
1
 40
30.0
176
1
 62
7
420
16777215
176
1
 90
1
176
1
 90
4
176
1
 62
7
176
1
 62
257
176
1
 90
1
176
1
 90
1
176
1
 40
1.0
176
1
 90
8
176
1
 62
7
176
1
 40
1.0
176
1
 90
1
176
1
 90
6
176
1
 90
2
176
1
 62
7
176
1
 90
5
176
1
 90
0
176
1
 90
0
176
1
290
0
176
1
 90
1
176
1
 40
0.0
176
1
 90
0
176
1
290
0
176
1
290
1
176
1
290
1
176
1
290
0
176
1
290
0
176
1
290
0
176
1
290
0
176
1
290
0
176
1
290
0
176
1
 90
50
176
1
 40
0.0
176
1
 40
1.0
176
1
 90
0
176
1
 62
18
420
0
176
1
 90
50
176
1
 90
3
176
1
 62
5
420
255
176
1
290
0
176
1
 90
50
176
1
 90
50
176
1
 90
50
176
1
290
0
176
1
 90
50
176
1
 62
256
176
0
 40
1.0
176
0
 90
2
176
1
  1
strokes_ogs.tif
176
1
290
0
176
1
 40
1.0
176
1
 40
1.0
176
1
  0
VISUALSTYLE
  5
5F
102
{ACAD_REACTORS
330
16
102
}
330
16
100
AcDbVisualStyle
  2
Dim
 70
11
177
3
291
1
 70
58
 90
2
176
1
 90
2
176
1
 90
0
176
1
 90
2
176
1
 40
0.6
176
1
 40
30.0
176
1
 62
7
420
16777215
176
1
 90
1
176
1
 90
4
176
1
 62
7
176
1
 62
257
176
1
 90
1
176
1
 90
1
176
1
 40
1.0
176
1
 90
8
176
1
 62
7
176
1
 40
1.0
176
1
 90
1
176
1
 90
6
176
1
 90
2
176
1
 62
7
176
1
 90
5
176
1
 90
0
176
1
 90
0
176
1
290
0
176
1
 90
1
176
1
 40
0.0
176
1
 90
0
176
1
290
0
176
1
290
1
176
1
290
1
176
1
290
0
176
1
290
0
176
1
290
0
176
1
290
0
176
1
290
0
176
1
290
0
176
1
 90
50
176
1
 40
0.0
176
1
 40
1.0
176
1
 90
0
176
1
 62
18
420
0
176
1
 90
50
176
1
 90
3
176
1
 62
5
420
255
176
1
290
0
176
1
 90
50
176
1
 90
50
176
1
 90
50
176
1
290
0
176
1
 90
50
176
1
 62
256
176
0
 40
1.0
176
0
 90
2
176
1
  1
strokes_ogs.tif
176
1
290
0
176
1
 40
1.0
176
1
 40
1.0
176
1
  0
VISUALSTYLE
  5
60
102
{ACAD_REACTORS
330
16
102
}
330
16
100
AcDbVisualStyle
  2
EdgeColorOff
 70
22
177
3
291
1
 70
58
 90
2
176
1
 90
2
176
1
 90
0
176
1
 90
2
176
1
 40
0.6
176
1
 40
30.0
176
1
 62
7
420
16777215
176
1
 90
1
176
1
 90
4
176
1
 62
7
176
1
 62
257
176
1
 90
1
176
1
 90
1
176
1
 40
1.0
176
1
 90
8
176
1
 62
7
176
1
 40
1.0
176
1
 90
1
176
1
 90
6
176
1
 90
2
176
1
 62
7
176
1
 90
5
176
1
 90
0
176
1
 90
0
176
1
290
0
176
1
 90
1
176
1
 40
0.0
176
1
 90
0
176
1
290
0
176
1
290
1
176
1
290
1
176
1
290
0
176
1
290
0
176
1
290
0
176
1
290
0
176
1
290
0
176
1
290
0
176
1
 90
50
176
1
 40
0.0
176
1
 40
1.0
176
1
 90
0
176
1
 62
18
420
0
176
1
 90
50
176
1
 90
3
176
1
 62
5
420
255
176
1
290
0
176
1
 90
50
176
1
 90
50
176
1
 90
50
176
1
290
0
176
1
 90
50
176
1
 62
256
176
0
 40
1.0
176
0
 90
2
176
1
  1
strokes_ogs.tif
176
1
290
0
176
1
 40
1.0
176
1
 40
1.0
176
1
  0
VISUALSTYLE
  5
61
102
{ACAD_REACTORS
330
16
102
}
330
16
100
AcDbVisualStyle
  2
Facepattern
 70
15
177
3
291
1
 70
58
 90
2
176
1
 90
2
176
1
 90
0
176
1
 90
2
176
1
 40
0.6
176
1
 40
30.0
176
1
 62
7
420
16777215
176
1
 90
1
176
1
 90
4
176
1
 62
7
176
1
 62
257
176
1
 90
1
176
1
 90
1
176
1
 40
1.0
176
1
 90
8
176
1
 62
7
176
1
 40
1.0
176
1
 90
1
176
1
 90
6
176
1
 90
2
176
1
 62
7
176
1
 90
5
176
1
 90
0
176
1
 90
0
176
1
290
0
176
1
 90
1
176
1
 40
0.0
176
1
 90
0
176
1
290
0
176
1
290
1
176
1
290
1
176
1
290
0
176
1
290
0
176
1
290
0
176
1
290
0
176
1
290
0
176
1
290
0
176
1
 90
50
176
1
 40
0.0
176
1
 40
1.0
176
1
 90
0
176
1
 62
18
420
0
176
1
 90
50
176
1
 90
3
176
1
 62
5
420
255
176
1
290
0
176
1
 90
50
176
1
 90
50
176
1
 90
50
176
1
290
0
176
1
 90
50
176
1
 62
256
176
0
 40
1.0
176
0
 90
2
176
1
  1
strokes_ogs.tif
176
1
290
0
176
1
 40
1.0
176
1
 40
1.0
176
1
  0
VISUALSTYLE
  5
62
102
{ACAD_REACTORS
330
16
102
}
330
16
100
AcDbVisualStyle
  2
Flat
 70
0
177
3
291
1
 70
58
 90
2
176
1
 90
2
176
1
 90
0
176
1
 90
2
176
1
 40
0.6
176
1
 40
30.0
176
1
 62
7
420
16777215
176
1
 90
1
176
1
 90
4
176
1
 62
7
176
1
 62
257
176
1
 90
1
176
1
 90
1
176
1
 40
1.0
176
1
 90
8
176
1
 62
7
176
1
 40
1.0
176
1
 90
1
176
1
 90
6
176
1
 90
2
176
1
 62
7
176
1
 90
5
176
1
 90
0
176
1
 90
0
176
1
290
0
176
1
 90
1
176
1
 40
0.0
176
1
 90
0
176
1
290
0
176
1
290
1
176
1
290
1
176
1
290
0
176
1
290
0
176
1
290
0
176
1
290
0
176
1
290
0
176
1
290
0
176
1
 90
50
176
1
 40
0.0
176
1
 40
1.0
176
1
 90
0
176
1
 62
18
420
0
176
1
 90
50
176
1
 90
3
176
1
 62
5
420
255
176
1
290
0
176
1
 90
50
176
1
 90
50
176
1
 90
50
176
1
290
0
176
1
 90
50
176
1
 62
256
176
0
 40
1.0
176
0
 90
2
176
1
  1
strokes_ogs.tif
176
1
290
0
176
1
 40
1.0
176
1
 40
1.0
176
1
  0
VISUALSTYLE
  5
63
102
{ACAD_REACTORS
330
16
102
}
330
16
100
AcDbVisualStyle
  2
FlatWithEdges
 70
1
177
3
291
1
 70
58
 90
2
176
1
 90
2
176
1
 90
0
176
1
 90
2
176
1
 40
0.6
176
1
 40
30.0
176
1
 62
7
420
16777215
176
1
 90
1
176
1
 90
4
176
1
 62
7
176
1
 62
257
176
1
 90
1
176
1
 90
1
176
1
 40
1.0
176
1
 90
8
176
1
 62
7
176
1
 40
1.0
176
1
 90
1
176
1
 90
6
176
1
 90
2
176
1
 62
7
176
1
 90
5
176
1
 90
0
176
1
 90
0
176
1
290
0
176
1
 90
1
176
1
 40
0.0
176
1
 90
0
176
1
290
0
176
1
290
1
176
1
290
1
176
1
290
0
176
1
290
0
176
1
290
0
176
1
290
0
176
1
290
0
176
1
290
0
176
1
 90
50
176
1
 40
0.0
176
1
 40
1.0
176
1
 90
0
176
1
 62
18
420
0
176
1
 90
50
176
1
 90
3
176
1
 62
5
420
255
176
1
290
0
176
1
 90
50
176
1
 90
50
176
1
 90
50
176
1
290
0
176
1
 90
50
176
1
 62
256
176
0
 40
1.0
176
0
 90
2
176
1
  1
strokes_ogs.tif
176
1
290
0
176
1
 40
1.0
176
1
 40
1.0
176
1
  0
VISUALSTYLE
  5
64
102
{ACAD_REACTORS
330
16
102
}
330
16
100
AcDbVisualStyle
  2
Gouraud
 70
2
177
3
291
1
 70
58
 90
2
176
1
 90
2
176
1
 90
0
176
1
 90
2
176
1
 40
0.6
176
1
 40
30.0
176
1
 62
7
420
16777215
176
1
 90
1
176
1
 90
4
176
1
 62
7
176
1
 62
257
176
1
 90
1
176
1
 90
1
176
1
 40
1.0
176
1
 90
8
176
1
 62
7
176
1
 40
1.0
176
1
 90
1
176
1
 90
6
176
1
 90
2
176
1
 62
7
176
1
 90
5
176
1
 90
0
176
1
 90
0
176
1
290
0
176
1
 90
1
176
1
 40
0.0
176
1
 90
0
176
1
290
0
176
1
290
1
176
1
290
1
176
1
290
0
176
1
290
0
176
1
290
0
176
1
290
0
176
1
290
0
176
1
290
0
176
1
 90
50
176
1
 40
0.0
176
1
 40
1.0
176
1
 90
0
176
1
 62
18
420
0
176
1
 90
50
176
1
 90
3
176
1
 62
5
420
255
176
1
290
0
176
1
 90
50
176
1
 90
50
176
1
 90
50
176
1
290
0
176
1
 90
50
176
1
 62
256
176
0
 40
1.0
176
0
 90
2
176
1
  1
strokes_ogs.tif
176
1
290
0
176
1
 40
1.0
176
1
 40
1.0
176
1
  0
VISUALSTYLE
  5
65
102
{ACAD_REACTORS
330
16
102
}
330
16
100
AcDbVisualStyle
  2
GouraudWithEdges
 70
3
177
3
291
1
 70
58
 90
2
176
1
 90
2
176
1
 90
0
176
1
 90
2
176
1
 40
0.6
176
1
 40
30.0
176
1
 62
7
420
16777215
176
1
 90
1
176
1
 90
4
176
1
 62
7
176
1
 62
257
176
1
 90
1
176
1
 90
1
176
1
 40
1.0
176
1
 90
8
176
1
 62
7
176
1
 40
1.0
176
1
 90
1
176
1
 90
6
176
1
 90
2
176
1
 62
7
176
1
 90
5
176
1
 90
0
176
1
 90
0
176
1
290
0
176
1
 90
1
176
1
 40
0.0
176
1
 90
0
176
1
290
0
176
1
290
1
176
1
290
1
176
1
290
0
176
1
290
0
176
1
290
0
176
1
290
0
176
1
290
0
176
1
290
0
176
1
 90
50
176
1
 40
0.0
176
1
 40
1.0
176
1
 90
0
176
1
 62
18
420
0
176
1
 90
50
176
1
 90
3
176
1
 62
5
420
255
176
1
290
0
176
1
 90
50
176
1
 90
50
176
1
 90
50
176
1
290
0
176
1
 90
50
176
1
 62
256
176
0
 40
1.0
176
0
 90
2
176
1
  1
strokes_ogs.tif
176
1
290
0
176
1
 40
1.0
176
1
 40
1.0
176
1
  0
VISUALSTYLE
  5
66
102
{ACAD_REACTORS
330
16
102
}
330
16
100
AcDbVisualStyle
  2
Hidden
 70
6
177
3
291
0
 70
58
 90
2
176
1
 90
2
176
1
 90
0
176
1
 90
1
176
1
 40
0.6
176
1
 40
30.0
176
1
 62
7
420
16777215
176
1
 90
1
176
1
 90
4
176
1
 62
7
176
1
 62
257
176
1
 90
1
176
1
 90
1
176
1
 40
1.0
176
1
 90
8
176
1
 62
7
176
1
 40
1.0
176
1
 90
1
176
1
 90
6
176
1
 90
2
176
1
 62
7
176
1
 90
5
176
1
 90
0
176
1
 90
0
176
1
290
0
176
1
 90
1
176
1
 40
0.0
176
1
 90
0
176
1
290
0
176
1
290
1
176
1
290
1
176
1
290
0
176
1
290
0
176
1
290
0
176
1
290
0
176
1
290
0
176
1
290
0
176
1
 90
50
176
1
 40
0.0
176
1
 40
1.0
176
1
 90
0
176
1
 62
18
420
0
176
1
 90
50
176
1
 90
3
176
1
 62
5
420
255
176
1
290
0
176
1
 90
50
176
1
 90
50
176
1
 90
50
176
1
290
0
176
1
 90
50
176
1
 62
256
176
0
 40
1.0
176
0
 90
2
176
1
  1
strokes_ogs.tif
176
1
290
0
176
1
 40
1.0
176
1
 40
1.0
176
1
  0
VISUALSTYLE
  5
67
102
{ACAD_REACTORS
330
16
102
}
330
16
100
AcDbVisualStyle
  2
JitterOff
 70
20
177
3
291
1
 70
58
 90
2
176
1
 90
2
176
1
 90
0
176
1
 90
2
176
1
 40
0.6
176
1
 40
30.0
176
1
 62
7
420
16777215
176
1
 90
1
176
1
 90
4
176
1
 62
7
176
1
 62
257
176
1
 90
1
176
1
 90
1
176
1
 40
1.0
176
1
 90
8
176
1
 62
7
176
1
 40
1.0
176
1
 90
1
176
1
 90
6
176
1
 90
2
176
1
 62
7
176
1
 90
5
176
1
 90
0
176
1
 90
0
176
1
290
0
176
1
 90
1
176
1
 40
0.0
176
1
 90
0
176
1
290
0
176
1
290
1
176
1
290
1
176
1
290
0
176
1
290
0
176
1
290
0
176
1
290
0
176
1
290
0
176
1
290
0
176
1
 90
50
176
1
 40
0.0
176
1
 40
1.0
176
1
 90
0
176
1
 62
18
420
0
176
1
 90
50
176
1
 90
3
176
1
 62
5
420
255
176
1
290
0
176
1
 90
50
176
1
 90
50
176
1
 90
50
176
1
290
0
176
1
 90
50
176
1
 62
256
176
0
 40
1.0
176
0
 90
2
176
1
  1
strokes_ogs.tif
176
1
290
0
176
1
 40
1.0
176
1
 40
1.0
176
1
  0
VISUALSTYLE
  5
68
102
{ACAD_REACTORS
330
16
102
}
330
16
100
AcDbVisualStyle
  2
Linepattern
 70
14
177
3
291
1
 70
58
 90
2
176
1
 90
2
176
1
 90
0
176
1
 90
2
176
1
 40
0.6
176
1
 40
30.0
176
1
 62
7
420
16777215
176
1
 90
1
176
1
 90
4
176
1
 62
7
176
1
 62
257
176
1
 90
1
176
1
 90
1
176
1
 40
1.0
176
1
 90
8
176
1
 62
7
176
1
 40
1.0
176
1
 90
1
176
1
 90
6
176
1
 90
2
176
1
 62
7
176
1
 90
5
176
1
 90
0
176
1
 90
0
176
1
290
0
176
1
 90
1
176
1
 40
0.0
176
1
 90
0
176
1
290
0
176
1
290
1
176
1
290
1
176
1
290
0
176
1
290
0
176
1
290
0
176
1
290
0
176
1
290
0
176
1
290
0
176
1
 90
50
176
1
 40
0.0
176
1
 40
1.0
176
1
 90
0
176
1
 62
18
420
0
176
1
 90
50
176
1
 90
3
176
1
 62
5
420
255
176
1
290
0
176
1
 90
50
176
1
 90
50
176
1
 90
50
176
1
290
0
176
1
 90
50
176
1
 62
256
176
0
 40
1.0
176
0
 90
2
176
1
  1
strokes_ogs.tif
176
1
290
0
176
1
 40
1.0
176
1
 40
1.0
176
1
  0
VISUALSTYLE
  5
69
102
{ACAD_REACTORS
330
16
102
}
330
16
100
AcDbVisualStyle
  2
Modeling
 70
10
177
3
291
0
 70
58
 90
2
176
1
 90
2
176
1
 90
0
176
1
 90
2
176
1
 40
0.6
176
1
 40
30.0
176
1
 62
7
420
16777215
176
1
 90
1
176
1
 90
4
176
1
 62
7
176
1
 62
257
176
1
 90
1
176
1
 90
1
176
1
 40
1.0
176
1
 90
8
176
1
 62
7
176
1
 40
1.0
176
1
 90
1
176
1
 90
6
176
1
 90
2
176
1
 62
7
176
1
 90
5
176
1
 90
0
176
1
 90
0
176
1
290
0
176
1
 90
1
176
1
 40
0.0
176
1
 90
0
176
1
290
0
176
1
290
1
176
1
290
1
176
1
290
0
176
1
290
0
176
1
290
0
176
1
290
0
176
1
290
0
176
1
290
0
176
1
 90
50
176
1
 40
0.0
176
1
 40
1.0
176
1
 90
0
176
1
 62
18
420
0
176
1
 90
50
176
1
 90
3
176
1
 62
5
420
255
176
1
290
0
176
1
 90
50
176
1
 90
50
176
1
 90
50
176
1
290
0
176
1
 90
50
176
1
 62
256
176
0
 40
1.0
176
0
 90
2
176
1
  1
strokes_ogs.tif
176
1
290
0
176
1
 40
1.0
176
1
 40
1.0
176
1
  0
VISUALSTYLE
  5
6A
102
{ACAD_REACTORS
330
16
102
}
330
16
100
AcDbVisualStyle
  2
OverhangOff
 70
21
177
3
291
1
 70
58
 90
2
176
1
 90
2
176
1
 90
0
176
1
 90
2
176
1
 40
0.6
176
1
 40
30.0
176
1
 62
7
420
16777215
176
1
 90
1
176
1
 90
4
176
1
 62
7
176
1
 62
257
176
1
 90
1
176
1
 90
1
176
1
 40
1.0
176
1
 90
8
176
1
 62
7
176
1
 40
1.0
176
1
 90
1
176
1
 90
6
176
1
 90
2
176
1
 62
7
176
1
 90
5
176
1
 90
0
176
1
 90
0
176
1
290
0
176
1
 90
1
176
1
 40
0.0
176
1
 90
0
176
1
290
0
176
1
290
1
176
1
290
1
176
1
290
0
176
1
290
0
176
1
290
0
176
1
290
0
176
1
290
0
176
1
290
0
176
1
 90
50
176
1
 40
0.0
176
1
 40
1.0
176
1
 90
0
176
1
 62
18
420
0
176
1
 90
50
176
1
 90
3
176
1
 62
5
420
255
176
1
290
0
176
1
 90
50
176
1
 90
50
176
1
 90
50
176
1
290
0
176
1
 90
50
176
1
 62
256
176
0
 40
1.0
176
0
 90
2
176
1
  1
strokes_ogs.tif
176
1
290
0
176
1
 40
1.0
176
1
 40
1.0
176
1
  0
VISUALSTYLE
  5
6B
102
{ACAD_REACTORS
330
16
102
}
330
16
100
AcDbVisualStyle
  2
Realistic
 70
8
177
3
291
0
 70
58
 90
2
176
1
 90
2
176
1
 90
0
176
1
 90
2
176
1
 40
0.6
176
1
 40
30.0
176
1
 62
7
420
16777215
176
1
 90
1
176
1
 90
4
176
1
 62
7
176
1
 62
257
176
1
 90
1
176
1
 90
1
176
1
 40
1.0
176
1
 90
8
176
1
 62
7
176
1
 40
1.0
176
1
 90
1
176
1
 90
6
176
1
 90
2
176
1
 62
7
176
1
 90
5
176
1
 90
0
176
1
 90
0
176
1
290
0
176
1
 90
1
176
1
 40
0.0
176
1
 90
0
176
1
290
0
176
1
290
1
176
1
290
1
176
1
290
0
176
1
290
0
176
1
290
0
176
1
290
0
176
1
290
0
176
1
290
0
176
1
 90
50
176
1
 40
0.0
176
1
 40
1.0
176
1
 90
0
176
1
 62
18
420
0
176
1
 90
50
176
1
 90
3
176
1
 62
5
420
255
176
1
290
0
176
1
 90
50
176
1
 90
50
176
1
 90
50
176
1
290
0
176
1
 90
50
176
1
 62
256
176
0
 40
1.0
176
0
 90
2
176
1
  1
strokes_ogs.tif
176
1
290
0
176
1
 40
1.0
176
1
 40
1.0
176
1
  0
VISUALSTYLE
  5
6C
102
{ACAD_REACTORS
330
16
102
}
330
16
100
AcDbVisualStyle
  2
Shaded
 70
27
177
3
291
0
 70
58
 90
2
176
1
 90
2
176
1
 90
0
176
1
 90
2
176
1
 40
0.6
176
1
 40
30.0
176
1
 62
7
420
16777215
176
1
 90
1
176
1
 90
4
176
1
 62
7
176
1
 62
257
176
1
 90
1
176
1
 90
1
176
1
 40
1.0
176
1
 90
8
176
1
 62
7
176
1
 40
1.0
176
1
 90
1
176
1
 90
6
176
1
 90
2
176
1
 62
7
176
1
 90
5
176
1
 90
0
176
1
 90
0
176
1
290
0
176
1
 90
1
176
1
 40
0.0
176
1
 90
0
176
1
290
0
176
1
290
1
176
1
290
1
176
1
290
0
176
1
290
0
176
1
290
0
176
1
290
0
176
1
290
0
176
1
290
0
176
1
 90
50
176
1
 40
0.0
176
1
 40
1.0
176
1
 90
0
176
1
 62
18
420
0
176
1
 90
50
176
1
 90
3
176
1
 62
5
420
255
176
1
290
0
176
1
 90
50
176
1
 90
50
176
1
 90
50
176
1
290
0
176
1
 90
50
176
1
 62
256
176
0
 40
1.0
176
0
 90
2
176
1
  1
strokes_ogs.tif
176
1
290
0
176
1
 40
1.0
176
1
 40
1.0
176
1
  0
VISUALSTYLE
  5
6D
102
{ACAD_REACTORS
330
16
102
}
330
16
100
AcDbVisualStyle
  2
Shaded with edges
 70
26
177
3
291
0
 70
58
 90
2
176
1
 90
2
176
1
 90
0
176
1
 90
2
176
1
 40
0.6
176
1
 40
30.0
176
1
 62
7
420
16777215
176
1
 90
1
176
1
 90
4
176
1
 62
7
176
1
 62
257
176
1
 90
1
176
1
 90
1
176
1
 40
1.0
176
1
 90
8
176
1
 62
7
176
1
 40
1.0
176
1
 90
1
176
1
 90
6
176
1
 90
2
176
1
 62
7
176
1
 90
5
176
1
 90
0
176
1
 90
0
176
1
290
0
176
1
 90
1
176
1
 40
0.0
176
1
 90
0
176
1
290
0
176
1
290
1
176
1
290
1
176
1
290
0
176
1
290
0
176
1
290
0
176
1
290
0
176
1
290
0
176
1
290
0
176
1
 90
50
176
1
 40
0.0
176
1
 40
1.0
176
1
 90
0
176
1
 62
18
420
0
176
1
 90
50
176
1
 90
3
176
1
 62
5
420
255
176
1
290
0
176
1
 90
50
176
1
 90
50
176
1
 90
50
176
1
290
0
176
1
 90
50
176
1
 62
256
176
0
 40
1.0
176
0
 90
2
176
1
  1
strokes_ogs.tif
176
1
290
0
176
1
 40
1.0
176
1
 40
1.0
176
1
  0
VISUALSTYLE
  5
6E
102
{ACAD_REACTORS
330
16
102
}
330
16
100
AcDbVisualStyle
  2
Shades of Gray
 70
23
177
3
291
0
 70
58
 90
2
176
1
 90
2
176
1
 90
0
176
1
 90
2
176
1
 40
0.6
176
1
 40
30.0
176
1
 62
7
420
16777215
176
1
 90
1
176
1
 90
4
176
1
 62
7
176
1
 62
257
176
1
 90
1
176
1
 90
1
176
1
 40
1.0
176
1
 90
8
176
1
 62
7
176
1
 40
1.0
176
1
 90
1
176
1
 90
6
176
1
 90
2
176
1
 62
7
176
1
 90
5
176
1
 90
0
176
1
 90
0
176
1
290
0
176
1
 90
1
176
1
 40
0.0
176
1
 90
0
176
1
290
0
176
1
290
1
176
1
290
1
176
1
290
0
176
1
290
0
176
1
290
0
176
1
290
0
176
1
290
0
176
1
290
0
176
1
 90
50
176
1
 40
0.0
176
1
 40
1.0
176
1
 90
0
176
1
 62
18
420
0
176
1
 90
50
176
1
 90
3
176
1
 62
5
420
255
176
1
290
0
176
1
 90
50
176
1
 90
50
176
1
 90
50
176
1
290
0
176
1
 90
50
176
1
 62
256
176
0
 40
1.0
176
0
 90
2
176
1
  1
strokes_ogs.tif
176
1
290
0
176
1
 40
1.0
176
1
 40
1.0
176
1
  0
VISUALSTYLE
  5
6F
102
{ACAD_REACTORS
330
16
102
}
330
16
100
AcDbVisualStyle
  2
Sketchy
 70
24
177
3
291
0
 70
58
 90
2
176
1
 90
2
176
1
 90
0
176
1
 90
1
176
1
 40
0.6
176
1
 40
30.0
176
1
 62
7
420
16777215
176
1
 90
1
176
1
 90
4
176
1
 62
7
176
1
 62
257
176
1
 90
1
176
1
 90
1
176
1
 40
1.0
176
1
 90
8
176
1
 62
7
176
1
 40
1.0
176
1
 90
1
176
1
 90
6
176
1
 90
2
176
1
 62
7
176
1
 90
5
176
1
 90
0
176
1
 90
0
176
1
290
0
176
1
 90
1
176
1
 40
0.0
176
1
 90
0
176
1
290
0
176
1
290
1
176
1
290
1
176
1
290
0
176
1
290
0
176
1
290
0
176
1
290
0
176
1
290
0
176
1
290
0
176
1
 90
50
176
1
 40
0.0
176
1
 40
1.0
176
1
 90
0
176
1
 62
18
420
0
176
1
 90
50
176
1
 90
3
176
1
 62
5
420
255
176
1
290
0
176
1
 90
50
176
1
 90
50
176
1
 90
50
176
1
290
0
176
1
 90
50
176
1
 62
256
176
0
 40
1.0
176
0
 90
2
176
1
  1
strokes_ogs.tif
176
1
290
0
176
1
 40
1.0
176
1
 40
1.0
176
1
  0
VISUALSTYLE
  5
70
102
{ACAD_REACTORS
330
16
102
}
330
16
100
AcDbVisualStyle
  2
Thicken
 70
13
177
3
291
1
 70
58
 90
2
176
1
 90
2
176
1
 90
0
176
1
 90
2
176
1
 40
0.6
176
1
 40
30.0
176
1
 62
7
420
16777215
176
1
 90
1
176
1
 90
4
176
1
 62
7
176
1
 62
257
176
1
 90
1
176
1
 90
1
176
1
 40
1.0
176
1
 90
8
176
1
 62
7
176
1
 40
1.0
176
1
 90
1
176
1
 90
6
176
1
 90
2
176
1
 62
7
176
1
 90
5
176
1
 90
0
176
1
 90
0
176
1
290
0
176
1
 90
1
176
1
 40
0.0
176
1
 90
0
176
1
290
0
176
1
290
1
176
1
290
1
176
1
290
0
176
1
290
0
176
1
290
0
176
1
290
0
176
1
290
0
176
1
290
0
176
1
 90
50
176
1
 40
0.0
176
1
 40
1.0
176
1
 90
0
176
1
 62
18
420
0
176
1
 90
50
176
1
 90
3
176
1
 62
5
420
255
176
1
290
0
176
1
 90
50
176
1
 90
50
176
1
 90
50
176
1
290
0
176
1
 90
50
176
1
 62
256
176
0
 40
1.0
176
0
 90
2
176
1
  1
strokes_ogs.tif
176
1
290
0
176
1
 40
1.0
176
1
 40
1.0
176
1
  0
VISUALSTYLE
  5
71
102
{ACAD_REACTORS
330
16
102
}
330
16
100
AcDbVisualStyle
  2
Wireframe
 70
5
177
3
291
0
 70
58
 90
2
176
1
 90
2
176
1
 90
0
176
1
 90
0
176
1
 40
0.6
176
1
 40
30.0
176
1
 62
7
420
16777215
176
1
 90
1
176
1
 90
4
176
1
 62
7
176
1
 62
257
176
1
 90
1
176
1
 90
1
176
1
 40
1.0
176
1
 90
8
176
1
 62
7
176
1
 40
1.0
176
1
 90
1
176
1
 90
6
176
1
 90
2
176
1
 62
7
176
1
 90
5
176
1
 90
0
176
1
 90
0
176
1
290
0
176
1
 90
1
176
1
 40
0.0
176
1
 90
0
176
1
290
0
176
1
290
1
176
1
290
1
176
1
290
0
176
1
290
0
176
1
290
0
176
1
290
0
176
1
290
0
176
1
290
0
176
1
 90
50
176
1
 40
0.0
176
1
 40
1.0
176
1
 90
0
176
1
 62
18
420
0
176
1
 90
50
176
1
 90
3
176
1
 62
5
420
255
176
1
290
0
176
1
 90
50
176
1
 90
50
176
1
 90
50
176
1
290
0
176
1
 90
50
176
1
 62
256
176
0
 40
1.0
176
0
 90
2
176
1
  1
strokes_ogs.tif
176
1
290
0
176
1
 40
1.0
176
1
 40
1.0
176
1
  0
VISUALSTYLE
  5
72
102
{ACAD_REACTORS
330
16
102
}
330
16
100
AcDbVisualStyle
  2
X-Ray
 70
25
177
3
291
0
 70
58
 90
2
176
1
 90
2
176
1
 90
0
176
1
 90
2
176
1
 40
0.5
176
1
 40
30.0
176
1
 62
7
420
16777215
176
1
 90
1
176
1
 90
4
176
1
 62
7
176
1
 62
257
176
1
 90
1
176
1
 90
1
176
1
 40
1.0
176
1
 90
8
176
1
 62
7
176
1
 40
1.0
176
1
 90
1
176
1
 90
6
176
1
 90
2
176
1
 62
7
176
1
 90
5
176
1
 90
0
176
1
 90
0
176
1
290
0
176
1
 90
1
176
1
 40
0.0
176
1
 90
0
176
1
290
0
176
1
290
1
176
1
290
1
176
1
290
0
176
1
290
0
176
1
290
0
176
1
290
0
176
1
290
0
176
1
290
0
176
1
 90
50
176
1
 40
0.0
176
1
 40
1.0
176
1
 90
0
176
1
 62
18
420
0
176
1
 90
50
176
1
 90
3
176
1
 62
5
420
255
176
1
290
0
176
1
 90
50
176
1
 90
50
176
1
 90
50
176
1
290
0
176
1
 90
50
176
1
 62
256
176
0
 40
1.0
176
0
 90
2
176
1
  1
strokes_ogs.tif
176
1
290
0
176
1
 40
1.0
176
1
 40
1.0
176
1
  0
DICTIONARYVAR
  5
1A1
330
2D
100
DictionaryVariables
280
0
  1
1.4.4 @ 2026-10-04T15:52:02.333681+00:00
  0
ENDSEC
  0
EOF
