  0
SECTION
  2
HEADER
  9
$ACADVER
  1
AC1032
  9
$ACADMAINTVER
 90
4
  9
$DWGCODEPAGE
  3
ANSI_1252
  9
$LASTSAVEDBY
  1
ezdxf
  9
$REQUIREDVERSIONS
160
0
  9
$INSBASE
 10
0.0
 20
0.0
 30
0.0
  9
$EXTMIN
 10
1e+20
 20
1e+20
 30
1e+20
  9
$EXTMAX
 10
-1e+20
 20
-1e+20
 30
-1e+20
  9
$LIMMIN
 10
0.0
 20
0.0
  9
$LIMMAX
 10
420.0
 20
297.0
  9
$ORTHOMODE
 70
0
  9
$REGENMODE
 70
1
  9
$FILLMODE
 70
1
  9
$QTEXTMODE
 70
0
  9
$MIRRTEXT
 70
1
  9
$LTSCALE
 40
250.0
  9
$ATTMODE
 70
1
  9
$TEXTSIZE
 40
2.5
  9
$TRACEWID
 40
1.0
  9
$TEXTSTYLE
  7
OpenSans
  9
$CLAYER
  8
0
  9
$CELTYPE
  6
ByLayer
  9
$CECOLOR
 62
256
  9
$CELTSCALE
 40
1.0
  9
$DISPSILH
 70
0
  9
$DIMSCALE
 40
1.0
  9
$DIMASZ
 40
0.175
  9
$DIMEXO
 40
0.125
  9
$DIMDLI
 40
3.75
  9
$DIMRND
 40
0.0
  9
$DIMDLE
 40
0.0
  9
$DIMEXE
 40
0.375
  9
$DIMTP
 40
0.0
  9
$DIMTM
 40
0.0
  9
$DIMTXT
 40
0.25
  9
$DIMCEN
 40
2.5
  9
$DIMTSZ
 40
0.0
  9
$DIMTOL
 70
0
  9
$DIMLIM
 70
0
  9
$DIMTIH
 70
0
  9
$DIMTOH
 70
0
  9
$DIMSE1
 70
0
  9
$DIMSE2
 70
0
  9
$DIMTAD
 70
1
  9
$DIMZIN
 70
12
  9
$DIMBLK
  1
ARCHTICK
  9
$DIMASO
 70
1
  9
$DIMSHO
 70
1
  9
$DIMPOST
  1

  9
$DIMAPOST
  1

  9
$DIMALT
 70
0
  9
$DIMALTD
 70
3
  9
$DIMALTF
 40
0.03937007874
  9
$DIMLFAC
 40
100.0
  9
$DIMTOFL
 70
1
  9
$DIMTVP
 40
0.0
  9
$DIMTIX
 70
0
  9
$DIMSOXD
 70
0
  9
$DIMSAH
 70
0
  9
$DIMBLK1
  1

  9
$DIMBLK2
  1

  9
$DIMSTYLE
  2
EZDXF
  9
$DIMCLRD
 70
0
  9
$DIMCLRE
 70
0
  9
$DIMCLRT
 70
0
  9
$DIMTFAC
 40
0.5
  9
$DIMGAP
 40
0.1
  9
$DIMJUST
 70
0
  9
$DIMSD1
 70
0
  9
$DIMSD2
 70
0
  9
$DIMTOLJ
 70
0
  9
$DIMTZIN
 70
8
  9
$DIMALTZ
 70
0
  9
$DIMALTTZ
 70
0
  9
$DIMUPT
 70
1
  9
$DIMDEC
 70
2
  9
$DIMTDEC
 70
2
  9
$DIMALTU
 70
2
  9
$DIMALTTD
 70
3
  9
$DIMTXSTY
  7
OpenSansCondensed-Light
  9
$DIMAUNIT
 70
0
  9
$DIMADEC
 70
2
  9
$DIMALTRND
 40
0.0
  9
$DIMAZIN
 70
3
  9
$DIMDSEP
 70
46
  9
$DIMATFIT
 70
3
  9
$DIMFRAC
 70
0
  9
$DIMLDRBLK
  1

  9
$DIMLUNIT
 70
2
  9
$DIMLWD
 70
-2
  9
$DIMLWE
 70
-2
  9
$DIMTMOVE
 70
2
  9
$DIMFXL
 40
1.0
  9
$DIMFXLON
 70
0
  9
$DIMJOGANG
 40
0.785398163397
  9
$DIMTFILL
 70
0
  9
$DIMTFILLCLR
 70
0
  9
$DIMARCSYM
 70
0
  9
$DIMLTYPE
  6

  9
$DIMLTEX1
  6

  9
$DIMLTEX2
  6

  9
$DIMTXTDIRECTION
 70
0
  9
$LUNITS
 70
2
  9
$LUPREC
 70
4
  9
$SKETCHINC
 40
1.0
  9
$FILLETRAD
 40
10.0
  9
$AUNITS
 70
0
  9
$AUPREC
 70
2
  9
$MENU
  1
.
  9
$ELEVATION
 40
0.0
  9
$PELEVATION
 40
0.0
  9
$THICKNESS
 40
0.0
  9
$LIMCHECK
 70
0
  9
$CHAMFERA
 40
0.0
  9
$CHAMFERB
 40
0.0
  9
$CHAMFERC
 40
0.0
  9
$CHAMFERD
 40
0.0
  9
$SKPOLY
 70
0
  9
$TDCREATE
 40
2461318.6607407406
  9
$TDUCREATE
 40
2458532.153996898
  9
$TDUPDATE
 40
2461318.6611574073
  9
$TDUUPDATE
 40
2458532.1544311
  9
$TDINDWG
 40
0.0
  9
$TDUSRTIMER
 40
0.0
  9
$USRTIMER
 70
1
  9
$ANGBASE
 50
0.0
  9
$ANGDIR
 70
0
  9
$PDMODE
 70
0
  9
$PDSIZE
 40
0.0
  9
$PLINEWID
 40
0.0
  9
$SPLFRAME
 70
0
  9
$SPLINETYPE
 70
6
  9
$SPLINESEGS
 70
8
  9
$HANDSEED
  5
161
  9
$SURFTAB1
 70
6
  9
$SURFTAB2
 70
6
  9
$SURFTYPE
 70
6
  9
$SURFU
 70
6
  9
$SURFV
 70
6
  9
$UCSBASE
  2

  9
$UCSNAME
  2

  9
$UCSORG
 10
0.0
 20
0.0
 30
0.0
  9
$UCSXDIR
 10
1.0
 20
0.0
 30
0.0
  9
$UCSYDIR
 10
0.0
 20
1.0
 30
0.0
  9
$UCSORTHOREF
  2

  9
$UCSORTHOVIEW
 70
0
  9
$UCSORGTOP
 10
0.0
 20
0.0
 30
0.0
  9
$UCSORGBOTTOM
 10
0.0
 20
0.0
 30
0.0
  9
$UCSORGLEFT
 10
0.0
 20
0.0
 30
0.0
  9
$UCSORGRIGHT
 10
0.0
 20
0.0
 30
0.0
  9
$UCSORGFRONT
 10
0.0
 20
0.0
 30
0.0
  9
$UCSORGBACK
 10
0.0
 20
0.0
 30
0.0
  9
$PUCSBASE
  2

  9
$PUCSNAME
  2

  9
$PUCSORG
 10
0.0
 20
0.0
 30
0.0
  9
$PUCSXDIR
 10
1.0
 20
0.0
 30
0.0
  9
$PUCSYDIR
 10
0.0
 20
1.0
 30
0.0
  9
$PUCSORTHOREF
  2

  9
$PUCSORTHOVIEW
 70
0
  9
$PUCSORGTOP
 10
0.0
 20
0.0
 30
0.0
  9
$PUCSORGBOTTOM
 10
0.0
 20
0.0
 30
0.0
  9
$PUCSORGLEFT
 10
0.0
 20
0.0
 30
0.0
  9
$PUCSORGRIGHT
 10
0.0
 20
0.0
 30
0.0
  9
$PUCSORGFRONT
 10
0.0
 20
0.0
 30
0.0
  9
$PUCSORGBACK
 10
0.0
 20
0.0
 30
0.0
  9
$USERI1
 70
0
  9
$USERI2
 70
0
  9
$USERI3
 70
0
  9
$USERI4
 70
0
  9
$USERI5
 70
0
  9
$USERR1
 40
0.0
  9
$USERR2
 40
0.0
  9
$USERR3
 40
0.0
  9
$USERR4
 40
0.0
  9
$USERR5
 40
0.0
  9
$WORLDVIEW
 70
1
  9
$SHADEDGE
 70
3
  9
$SHADEDIF
 70
70
  9
$TILEMODE
 70
1
  9
$MAXACTVP
 70
64
  9
$PINSBASE
 10
0.0
 20
0.0
 30
0.0
  9
$PLIMCHECK
 70
0
  9
$PEXTMIN
 10
1e+20
 20
1e+20
 30
1e+20
  9
$PEXTMAX
 10
-1e+20
 20
-1e+20
 30
-1e+20
  9
$PLIMMIN
 10
0.0
 20
0.0
  9
$PLIMMAX
 10
420.0
 20
297.0
  9
$UNITMODE
 70
0
  9
$VISRETAIN
 70
1
  9
$PLINEGEN
 70
0
  9
$PSLTSCALE
 70
0
  9
$TREEDEPTH
 70
3020
  9
$CMLSTYLE
  2
Standard
  9
$CMLJUST
 70
0
  9
$CMLSCALE
 40
20.0
  9
$PROXYGRAPHICS
 70
1
  9
$MEASUREMENT
 70
1
  9
$CELWEIGHT
370
-1
  9
$ENDCAPS
280
0
  9
$JOINSTYLE
280
0
  9
$LWDISPLAY
290
0
  9
$INSUNITS
 70
4
  9
$HYPERLINKBASE
  1

  9
$STYLESHEET
  1

  9
$XEDIT
290
1
  9
$CEPSNTYPE
380
0
  9
$PSTYLEMODE
290
1
  9
$FINGERPRINTGUID
  2
{2795DAEF-71F3-4820-A7F5-5473DE90E461}
  9
$VERSIONGUID
  2
{40B2C492-0DEC-42FE-9A46-0265FE591E4B}
  9
$EXTNAMES
290
1
  9
$PSVPSCALE
 40
0.0
  9
$OLESTARTUP
290
0
  9
$SORTENTS
280
127
  9
$INDEXCTL
280
0
  9
$HIDETEXT
280
1
  9
$XCLIPFRAME
280
1
  9
$HALOGAP
280
0
  9
$OBSCOLOR
 70
257
  9
$OBSLTYPE
280
0
  9
$INTERSECTIONDISPLAY
280
0
  9
$INTERSECTIONCOLOR
 70
257
  9
$DIMASSOC
280
2
  9
$PROJECTNAME
  1

  9
$CAMERADISPLAY
290
0
  9
$LENSLENGTH
 40
50.0
  9
$CAMERAHEIGHT
 40
0.0
  9
$STEPSPERSEC
 40
24.0
  9
$STEPSIZE
 40
100.0
  9
$3DDWFPREC
 40
2.0
  9
$PSOLWIDTH
 40
0.005
  9
$PSOLHEIGHT
 40
0.08
  9
$LOFTANG1
 40
1.570796326795
  9
$LOFTANG2
 40
1.570796326795
  9
$LOFTMAG1
 40
0.0
  9
$LOFTMAG2
 40
0.0
  9
$LOFTPARAM
 70
7
  9
$LOFTNORMALS
280
1
  9
$LATITUDE
 40
37.795
  9
$LONGITUDE
 40
-122.394
  9
$NORTHDIRECTION
 40
0.0
  9
$TIMEZONE
 70
-8000
  9
$LIGHTGLYPHDISPLAY
280
1
  9
$TILEMODELIGHTSYNCH
280
1
  9
$CMATERIAL
347
20
  9
$SOLIDHIST
280
0
  9
$SHOWHIST
280
1
  9
$DWFFRAME
280
2
  9
$DGNFRAME
280
2
  9
$REALWORLDSCALE
290
1
  9
$INTERFERECOLOR
 62
256
  9
$CSHADOW
280
0
  9
$SHADOWPLANELOCATION
 40
0.0
  0
ENDSEC
  0
SECTION
  2
CLASSES
  0
CLASS
  1
ACDBDICTIONARYWDFLT
  2
AcDbDictionaryWithDefault
  3
ObjectDBX Classes
 90
0
 91
0
280
0
281
0
  0
CLASS
  1
SUN
  2
AcDbSun
  3
SCENEOE
 90
1153
 91
0
280
0
281
0
  0
CLASS
  1
VISUALSTYLE
  2
AcDbVisualStyle
  3
ObjectDBX Classes
 90
4095
 91
0
280
0
281
0
  0
CLASS
  1
MATERIAL
  2
AcDbMaterial
  3
ObjectDBX Classes
 90
1153
 91
0
280
0
281
0
  0
CLASS
  1
SCALE
  2
AcDbScale
  3
ObjectDBX Classes
 90
1153
 91
0
280
0
281
0
  0
CLASS
  1
TABLESTYLE
  2
AcDbTableStyle
  3
ObjectDBX Classes
 90
4095
 91
0
280
0
281
0
  0
CLASS
  1
MLEADERSTYLE
  2
AcDbMLeaderStyle
  3
ACDB_MLEADERSTYLE_CLASS
 90
4095
 91
0
280
0
281
0
  0
CLASS
  1
DICTIONARYVAR
  2
AcDbDictionaryVar
  3
ObjectDBX Classes
 90
0
 91
0
280
0
281
0
  0
CLASS
  1
CELLSTYLEMAP
  2
AcDbCellStyleMap
  3
ObjectDBX Classes
 90
1152
 91
0
280
0
281
0
  0
CLASS
  1
MENTALRAYRENDERSETTINGS
  2
AcDbMentalRayRenderSettings
  3
SCENEOE
 90
1024
 91
0
280
0
281
0
  0
CLASS
  1
ACDBDETAILVIEWSTYLE
  2
AcDbDetailViewStyle
  3
ObjectDBX Classes
 90
1025
 91
0
280
0
281
0
  0
CLASS
  1
ACDBSECTIONVIEWSTYLE
  2
AcDbSectionViewStyle
  3
ObjectDBX Classes
 90
1025
 91
0
280
0
281
0
  0
CLASS
  1
RASTERVARIABLES
  2
AcDbRasterVariables
  3
ISM
 90
0
 91
0
280
0
281
0
  0
CLASS
  1
ACDBPLACEHOLDER
  2
AcDbPlaceHolder
  3
ObjectDBX Classes
 90
0
 91
0
280
0
281
0
  0
CLASS
  1
LAYOUT
  2
AcDbLayout
  3
ObjectDBX Classes
 90
0
 91
0
280
0
281
0
  0
ENDSEC
  0
SECTION
  2
TABLES
  0
TABLE
  2
VPORT
  5
8
330
0
100
AcDbSymbolTable
 70
1
  0
VPORT
  5
23
330
8
100
AcDbSymbolTableRecord
100
AcDbViewportTableRecord
  2
*Active
 70
0
 10
0.0
 20
0.0
 11
1.0
 21
1.0
 12
0.0
 22
0.0
 13
0.0
 23
0.0
 14
0.5
 24
0.5
 15
0.5
 25
0.5
 16
0.0
 26
0.0
 36
1.0
 17
0.0
 27
0.0
 37
0.0
 40
1000.0
 41
1.34
 42
50.0
 43
0.0
 44
0.0
 50
0.0
 51
0.0
 71
0
 72
1000
 73
1
 74
3
 75
0
 76
0
 77
0
 78
0
281
0
 65
0
146
0.0
  0
ENDTAB
  0
TABLE
  2
LTYPE
  5
2
330
0
100
AcDbSymbolTable
 70
21
  0
LTYPE
  5
24
330
2
100
AcDbSymbolTableRecord
100
AcDbLinetypeTableRecord
  2
ByBlock
 70
0
  3

 72
65
 73
0
 40
0.0
  0
LTYPE
  5
25
330
2
100
AcDbSymbolTableRecord
100
AcDbLinetypeTableRecord
  2
ByLayer
 70
0
  3

 72
65
 73
0
 40
0.0
  0
LTYPE
  5
26
330
2
100
AcDbSymbolTableRecord
100
AcDbLinetypeTableRecord
  2
Continuous
 70
0
  3

 72
65
 73
0
 40
0.0
  0
LTYPE
  5
2F
330
2
100
AcDbSymbolTableRecord
100
AcDbLinetypeTableRecord
  2
CENTER
 70
0
  3
Center ____ _ ____ _ ____ _ ____ _ ____ _ ____
 72
65
 73
4
 40
5.08
 49
3.175
 74
0
 49
-0.635
 74
0
 49
0.635
 74
0
 49
-0.635
 74
0
  0
LTYPE
  5
30
330
2
100
AcDbSymbolTableRecord
100
AcDbLinetypeTableRecord
  2
CENTERX2
 70
0
  3
Center (2x) ________  __  ________  __  ________
 72
65
 73
4
 40
8.89
 49
6.35
 74
0
 49
-0.635
 74
0
 49
1.27
 74
0
 49
-0.635
 74
0
  0
LTYPE
  5
31
330
2
100
AcDbSymbolTableRecord
100
AcDbLinetypeTableRecord
  2
CENTER2
 70
0
  3
Center (.5x) ____ _ ____ _ ____ _ ____ _ ____
 72
65
 73
4
 40
2.54
 49
1.587
 74
0
 49
-0.318
 74
0
 49
0.318
 74
0
 49
-0.318
 74
0
  0
LTYPE
  5
32
330
2
100
AcDbSymbolTableRecord
100
AcDbLinetypeTableRecord
  2
DASHED
 70
0
  3
Dashed __ __ __ __ __ __ __ __ __ __ __ __ __ _
 72
65
 73
2
 40
1.524
 49
1.27
 74
0
 49
-0.254
 74
0
  0
LTYPE
  5
33
330
2
100
AcDbSymbolTableRecord
100
AcDbLinetypeTableRecord
  2
DASHEDX2
 70
0
  3
Dashed (2x) ____  ____  ____  ____  ____  ____
 72
65
 73
2
 40
3.048
 49
2.54
 74
0
 49
-0.508
 74
0
  0
LTYPE
  5
34
330
2
100
AcDbSymbolTableRecord
100
AcDbLinetypeTableRecord
  2
DASHED2
 70
0
  3
Dashed (.5x) _ _ _ _ _ _ _ _ _ _ _ _ _ _
 72
65
 73
2
 40
0.762
 49
0.635
 74
0
 49
-0.127
 74
0
  0
LTYPE
  5
35
330
2
100
AcDbSymbolTableRecord
100
AcDbLinetypeTableRecord
  2
PHANTOM
 70
0
  3
Phantom ______  __  __  ______  __  __  ______
 72
65
 73
6
 40
6.35
 49
3.175
 74
0
 49
-0.635
 74
0
 49
0.635
 74
0
 49
-0.635
 74
0
 49
0.635
 74
0
 49
-0.635
 74
0
  0
LTYPE
  5
36
330
2
100
AcDbSymbolTableRecord
100
AcDbLinetypeTableRecord
  2
PHANTOMX2
 70
0
  3
Phantom (2x)____________    ____    ____    ____________
 72
65
 73
6
 40
10.795
 49
6.35
 74
0
 49
-0.635
 74
0
 49
1.27
 74
0
 49
-0.635
 74
0
 49
1.27
 74
0
 49
-0.635
 74
0
  0
LTYPE
  5
37
330
2
100
AcDbSymbolTableRecord
100
AcDbLinetypeTableRecord
  2
PHANTOM2
 70
0
  3
Phantom (.5x) ___ _ _ ___ _ _ ___ _ _ ___ _ _ ___
 72
65
 73
6
 40
3.175
 49
1.587
 74
0
 49
-0.318
 74
0
 49
0.318
 74
0
 49
-0.318
 74
0
 49
0.318
 74
0
 49
-0.318
 74
0
  0
LTYPE
  5
38
330
2
100
AcDbSymbolTableRecord
100
AcDbLinetypeTableRecord
  2
DASHDOT
 70
0
  3
Dash dot __ . __ . __ . __ . __ . __ . __ . __
 72
65
 73
4
 40
3.556
 49
2.54
 74
0
 49
-0.508
 74
0
 49
0.0
 74
0
 49
-0.508
 74
0
  0
LTYPE
  5
39
330
2
100
AcDbSymbolTableRecord
100
AcDbLinetypeTableRecord
  2
DASHDOTX2
 70
0
  3
Dash dot (2x) ____  .  ____  .  ____  .  ____
 72
65
 73
4
 40
6.096
 49
5.08
 74
0
 49
-0.508
 74
0
 49
0.0
 74
0
 49
-0.508
 74
0
  0
LTYPE
  5
3A
330
2
100
AcDbSymbolTableRecord
100
AcDbLinetypeTableRecord
  2
DASHDOT2
 70
0
  3
Dash dot (.5x) _ . _ . _ . _ . _ . _ . _ . _
 72
65
 73
4
 40
1.778
 49
1.27
 74
0
 49
-0.254
 74
0
 49
0.0
 74
0
 49
-0.254
 74
0
  0
LTYPE
  5
3B
330
2
100
AcDbSymbolTableRecord
100
AcDbLinetypeTableRecord
  2
DOT
 70
0
  3
Dot .  .  .  .  .  .  .  .  .  .  .  .  .  .  .  .
 72
65
 73
2
 40
0.508
 49
0.0
 74
0
 49
-0.508
 74
0
  0
LTYPE
  5
3C
330
2
100
AcDbSymbolTableRecord
100
AcDbLinetypeTableRecord
  2
DOTX2
 70
0
  3
Dot (2x) .    .    .    .    .    .    .    . 
 72
65
 73
2
 40
1.016
 49
0.0
 74
0
 49
-1.016
 74
0
  0
LTYPE
  5
3D
330
2
100
AcDbSymbolTableRecord
100
AcDbLinetypeTableRecord
  2
DOT2
 70
0
  3
Dot (.5) . . . . . . . . . . . . . . . . . . . 
 72
65
 73
2
 40
0.254
 49
0.0
 74
0
 49
-0.254
 74
0
  0
LTYPE
  5
3E
330
2
100
AcDbSymbolTableRecord
100
AcDbLinetypeTableRecord
  2
DIVIDE
 70
0
  3
Divide __ . . __ . . __ . . __ . . __ . . __
 72
65
 73
6
 40
4.064
 49
2.54
 74
0
 49
-0.508
 74
0
 49
0.0
 74
0
 49
-0.508
 74
0
 49
0.0
 74
0
 49
-0.508
 74
0
  0
LTYPE
  5
3F
330
2
100
AcDbSymbolTableRecord
100
AcDbLinetypeTableRecord
  2
DIVIDEX2
 70
0
  3
Divide (2x) ____  . .  ____  . .  ____  . .  ____
 72
65
 73
6
 40
6.604
 49
5.08
 74
0
 49
-0.508
 74
0
 49
0.0
 74
0
 49
-0.508
 74
0
 49
0.0
 74
0
 49
-0.508
 74
0
  0
LTYPE
  5
40
330
2
100
AcDbSymbolTableRecord
100
AcDbLinetypeTableRecord
  2
DIVIDE2
 70
0
  3
Divide(.5x) _ . _ . _ . _ . _ . _ . _ . _
 72
65
 73
6
 40
2.032
 49
1.27
 74
0
 49
-0.254
 74
0
 49
0.0
 74
0
 49
-0.254
 74
0
 49
0.0
 74
0
 49
-0.254
 74
0
  0
ENDTAB
  0
TABLE
  2
LAYER
  5
1
330
0
100
AcDbSymbolTable
 70
42
  0
LAYER
  5
27
330
1
100
AcDbSymbolTableRecord
100
AcDbLayerTableRecord
  2
0
 70
0
 62
7
  6
Continuous
370
-3
390
13
347
21
  0
LAYER
  5
28
330
1
100
AcDbSymbolTableRecord
100
AcDbLayerTableRecord
  2
Defpoints
 70
0
 62
7
  6
Continuous
290
0
370
-3
390
13
347
21
  0
LAYER
  5
8B
330
1
100
AcDbSymbolTableRecord
100
AcDbLayerTableRecord
  2
G-FRAME
 70
0
 62
7
  6
Continuous
370
70
390
13
347
21
1001
AcAecLayerStandard
1000

1000
図枠
  0
LAYER
  5
8D
330
1
100
AcDbSymbolTableRecord
100
AcDbLayerTableRecord
  2
G-TITLE
 70
0
 62
7
  6
Continuous
370
25
390
13
347
21
1001
AcAecLayerStandard
1000

1000
表題欄
  0
LAYER
  5
8E
330
1
100
AcDbSymbolTableRecord
100
AcDbLayerTableRecord
  2
G-TABLE
 70
0
 62
7
  6
Continuous
370
18
390
13
347
21
1001
AcAecLayerStandard
1000

1000
表
  0
LAYER
  5
8F
330
1
100
AcDbSymbolTableRecord
100
AcDbLayerTableRecord
  2
A-GRID
 70
0
 62
1
  6
CENTER
370
13
390
13
347
21
1001
AcAecLayerStandard
1000

1000
通り芯（一点鎖線・細線）
  0
LAYER
  5
90
330
1
100
AcDbSymbolTableRecord
100
AcDbLayerTableRecord
  2
A-GRID-SYMB
 70
0
 62
7
  6
Continuous
370
18
390
13
347
21
1001
AcAecLayerStandard
1000

1000
通り芯符号
  0
LAYER
  5
91
330
1
100
AcDbSymbolTableRecord
100
AcDbLayerTableRecord
  2
A-CUT
 70
0
 62
7
  6
Continuous
370
50
390
13
347
21
1001
AcAecLayerStandard
1000

1000
切断面 RC（太線）
  0
LAYER
  5
92
330
1
100
AcDbSymbolTableRecord
100
AcDbLayerTableRecord
  2
A-CUT-HATCH
 70
0
 62
8
  6
Continuous
370
9
390
13
347
21
1001
AcAecLayerStandard
1000

1000
切断面ハッチング
  0
LAYER
  5
93
330
1
100
AcDbSymbolTableRecord
100
AcDbLayerTableRecord
  2
A-CUT-LGS
 70
0
 62
7
  6
Continuous
370
35
390
13
347
21
1001
AcAecLayerStandard
1000

1000
切断面 軽量間仕切（中線）
  0
LAYER
  5
94
330
1
100
AcDbSymbolTableRecord
100
AcDbLayerTableRecord
  2
A-CUT-INS
 70
0
 62
9
  6
Continuous
370
9
390
13
347
21
1001
AcAecLayerStandard
1000

1000
切断面 断熱材ハッチング
  0
LAYER
  5
95
330
1
100
AcDbSymbolTableRecord
100
AcDbLayerTableRecord
  2
A-FENCE
 70
0
 62
7
  6
Continuous
370
35
390
13
347
21
1001
AcAecLayerStandard
1000

1000
RC塀
  0
LAYER
  5
96
330
1
100
AcDbSymbolTableRecord
100
AcDbLayerTableRecord
  2
A-PAVE
 70
0
 62
3
  6
Continuous
370
13
390
13
347
21
1001
AcAecLayerStandard
1000

1000
舗装（透水性 Dotcon+）
  0
LAYER
  5
97
330
1
100
AcDbSymbolTableRecord
100
AcDbLayerTableRecord
  2
A-DRAIN
 70
0
 62
5
  6
DASHED
370
25
390
13
347
21
1001
AcAecLayerStandard
1000

1000
雨水排水・浸透施設
  0
LAYER
  5
98
330
1
100
AcDbSymbolTableRecord
100
AcDbLayerTableRecord
  2
A-NEIGH
 70
0
 62
8
  6
Continuous
370
13
390
13
347
21
1001
AcAecLayerStandard
1000

1000
隣接建物（基盤地図情報）
  0
LAYER
  5
99
330
1
100
AcDbSymbolTableRecord
100
AcDbLayerTableRecord
  2
A-WATER
 70
0
 62
5
  6
Continuous
370
18
390
13
347
21
1001
AcAecLayerStandard
1000

1000
水路
  0
LAYER
  5
9A
330
1
100
AcDbSymbolTableRecord
100
AcDbLayerTableRecord
  2
A-TERRAIN
 70
0
 62
30
  6
Continuous
370
25
390
13
347
21
1001
AcAecLayerStandard
1000

1000
地形断面（DEM）
  0
LAYER
  5
9B
330
1
100
AcDbSymbolTableRecord
100
AcDbLayerTableRecord
  2
A-FLOOD
 70
0
 62
5
  6
DASHDOT
370
25
390
13
347
21
1001
AcAecLayerStandard
1000

1000
想定浸水深
  0
LAYER
  5
9C
330
1
100
AcDbSymbolTableRecord
100
AcDbLayerTableRecord
  2
A-FLOW
 70
0
 62
6
  6
DASHED
370
35
390
13
347
21
1001
AcAecLayerStandard
1000

1000
動線（回遊・家事・搬入）
  0
LAYER
  5
9D
330
1
100
AcDbSymbolTableRecord
100
AcDbLayerTableRecord
  2
A-VIS
 70
0
 62
7
  6
Continuous
370
18
390
13
347
21
1001
AcAecLayerStandard
1000

1000
見え掛り（細線）
  0
LAYER
  5
9E
330
1
100
AcDbSymbolTableRecord
100
AcDbLayerTableRecord
  2
A-HIDDEN
 70
0
 62
8
  6
HIDDEN
370
13
390
13
347
21
1001
AcAecLayerStandard
1000

1000
隠れ線（破線）
  0
LAYER
  5
9F
330
1
100
AcDbSymbolTableRecord
100
AcDbLayerTableRecord
  2
A-GLAZ
 70
0
 62
5
  6
Continuous
370
18
390
13
347
21
1001
AcAecLayerStandard
1000

1000
建具・ガラス
  0
LAYER
  5
A0
330
1
100
AcDbSymbolTableRecord
100
AcDbLayerTableRecord
  2
A-DOOR
 70
0
 62
5
  6
Continuous
370
18
390
13
347
21
1001
AcAecLayerStandard
1000

1000
扉・開き勝手
  0
LAYER
  5
A1
330
1
100
AcDbSymbolTableRecord
100
AcDbLayerTableRecord
  2
A-STRS
 70
0
 62
7
  6
Continuous
370
18
390
13
347
21
1001
AcAecLayerStandard
1000

1000
階段
  0
LAYER
  5
A2
330
1
100
AcDbSymbolTableRecord
100
AcDbLayerTableRecord
  2
A-ROOM
 70
0
 62
7
  6
Continuous
370
18
390
13
347
21
1001
AcAecLayerStandard
1000

1000
室名・面積
  0
LAYER
  5
A3
330
1
100
AcDbSymbolTableRecord
100
AcDbLayerTableRecord
  2
A-DIMS
 70
0
 62
7
  6
Continuous
370
13
390
13
347
21
1001
AcAecLayerStandard
1000

1000
寸法
  0
LAYER
  5
A4
330
1
100
AcDbSymbolTableRecord
100
AcDbLayerTableRecord
  2
A-TEXT
 70
0
 62
7
  6
Continuous
370
18
390
13
347
21
1001
AcAecLayerStandard
1000

1000
注記
  0
LAYER
  5
A5
330
1
100
AcDbSymbolTableRecord
100
AcDbLayerTableRecord
  2
A-SYMB
 70
0
 62
7
  6
Continuous
370
18
390
13
347
21
1001
AcAecLayerStandard
1000

1000
記号（方位・切断・レベル）
  0
LAYER
  5
A6
330
1
100
AcDbSymbolTableRecord
100
AcDbLayerTableRecord
  2
A-SITE
 70
0
 62
3
  6
PHANTOM
370
25
390
13
347
21
1001
AcAecLayerStandard
1000

1000
敷地境界線（二点鎖線）
  0
LAYER
  5
A7
330
1
100
AcDbSymbolTableRecord
100
AcDbLayerTableRecord
  2
A-ROAD
 70
0
 62
8
  6
Continuous
370
18
390
13
347
21
1001
AcAecLayerStandard
1000

1000
道路
  0
LAYER
  5
A8
330
1
100
AcDbSymbolTableRecord
100
AcDbLayerTableRecord
  2
A-GROUND
 70
0
 62
7
  6
Continuous
370
50
390
13
347
21
1001
AcAecLayerStandard
1000

1000
地盤面 GL
  0
LAYER
  5
A9
330
1
100
AcDbSymbolTableRecord
100
AcDbLayerTableRecord
  2
A-LEGAL
 70
0
 62
1
  6
DASHED
370
25
390
13
347
21
1001
AcAecLayerStandard
1000

1000
法規制ライン（斜線・延焼ライン）
  0
LAYER
  5
AA
330
1
100
AcDbSymbolTableRecord
100
AcDbLayerTableRecord
  2
A-LEGAL-TEXT
 70
0
 62
1
  6
Continuous
370
18
390
13
347
21
1001
AcAecLayerStandard
1000

1000
法規注記
  0
LAYER
  5
AB
330
1
100
AcDbSymbolTableRecord
100
AcDbLayerTableRecord
  2
A-FIRE
 70
0
 62
6
  6
DASHDOT
370
25
390
13
347
21
1001
AcAecLayerStandard
1000

1000
延焼のおそれのある部分
  0
LAYER
  5
AC
330
1
100
AcDbSymbolTableRecord
100
AcDbLayerTableRecord
  2
A-ALT
 70
0
 62
1
  6
Continuous
370
35
390
13
347
21
1001
AcAecLayerStandard
1000

1000
代替進入口
  0
LAYER
  5
AD
330
1
100
AcDbSymbolTableRecord
100
AcDbLayerTableRecord
  2
S-COLS
 70
0
 62
7
  6
Continuous
370
50
390
13
347
21
1001
AcAecLayerStandard
1000

1000
構造 柱
  0
LAYER
  5
AE
330
1
100
AcDbSymbolTableRecord
100
AcDbLayerTableRecord
  2
S-BEAM
 70
0
 62
7
  6
HIDDEN
370
25
390
13
347
21
1001
AcAecLayerStandard
1000

1000
構造 梁（伏図・隠れ）
  0
LAYER
  5
AF
330
1
100
AcDbSymbolTableRecord
100
AcDbLayerTableRecord
  2
S-BEAM-V
 70
0
 62
7
  6
Continuous
370
35
390
13
347
21
1001
AcAecLayerStandard
1000

1000
構造 梁（見え）
  0
LAYER
  5
B0
330
1
100
AcDbSymbolTableRecord
100
AcDbLayerTableRecord
  2
S-FNDN
 70
0
 62
7
  6
HIDDEN
370
25
390
13
347
21
1001
AcAecLayerStandard
1000

1000
構造 基礎
  0
LAYER
  5
B1
330
1
100
AcDbSymbolTableRecord
100
AcDbLayerTableRecord
  2
S-SLAB
 70
0
 62
7
  6
Continuous
370
18
390
13
347
21
1001
AcAecLayerStandard
1000

1000
構造 スラブ
  0
LAYER
  5
B2
330
1
100
AcDbSymbolTableRecord
100
AcDbLayerTableRecord
  2
S-REBAR
 70
0
 62
1
  6
Continuous
370
35
390
13
347
21
1001
AcAecLayerStandard
1000

1000
鉄筋
  0
LAYER
  5
B3
330
1
100
AcDbSymbolTableRecord
100
AcDbLayerTableRecord
  2
S-TEXT
 70
0
 62
7
  6
Continuous
370
18
390
13
347
21
1001
AcAecLayerStandard
1000

1000
構造 注記
  0
ENDTAB
  0
TABLE
  2
STYLE
  5
5
330
0
100
AcDbSymbolTable
 70
27
  0
STYLE
  5
29
330
5
100
AcDbSymbolTableRecord
100
AcDbTextStyleTableRecord
  2
Standard
 70
0
 40
0.0
 41
1.0
 50
0.0
 71
0
 42
2.5
  3
ipag.ttf
  4

  0
STYLE
  5
41
330
5
100
AcDbSymbolTableRecord
100
AcDbTextStyleTableRecord
  2
OpenSans-Light
 70
0
 40
0.0
 41
1.0
 50
0.0
 71
0
 42
2.5
  3
OpenSans-Light.ttf
  4

  0
STYLE
  5
42
330
5
100
AcDbSymbolTableRecord
100
AcDbTextStyleTableRecord
  2
OpenSans-Light-Italic
 70
0
 40
0.0
 41
1.0
 50
0.0
 71
0
 42
2.5
  3
OpenSans-LightItalic.ttf
  4

  0
STYLE
  5
43
330
5
100
AcDbSymbolTableRecord
100
AcDbTextStyleTableRecord
  2
OpenSans
 70
0
 40
0.0
 41
1.0
 50
0.0
 71
0
 42
2.5
  3
OpenSans-Regular.ttf
  4

  0
STYLE
  5
44
330
5
100
AcDbSymbolTableRecord
100
AcDbTextStyleTableRecord
  2
OpenSans-Italic
 70
0
 40
0.0
 41
1.0
 50
0.0
 71
0
 42
2.5
  3
OpenSans-Italic.ttf
  4

  0
STYLE
  5
45
330
5
100
AcDbSymbolTableRecord
100
AcDbTextStyleTableRecord
  2
OpenSans-SemiBold
 70
0
 40
0.0
 41
1.0
 50
0.0
 71
0
 42
2.5
  3
OpenSans-SemiBold.ttf
  4

  0
STYLE
  5
46
330
5
100
AcDbSymbolTableRecord
100
AcDbTextStyleTableRecord
  2
OpenSans-SemiBoldItalic
 70
0
 40
0.0
 41
1.0
 50
0.0
 71
0
 42
2.5
  3
OpenSans-SemiBoldItalic.ttf
  4

  0
STYLE
  5
47
330
5
100
AcDbSymbolTableRecord
100
AcDbTextStyleTableRecord
  2
OpenSans-Bold
 70
0
 40
0.0
 41
1.0
 50
0.0
 71
0
 42
2.5
  3
OpenSans-Bold.ttf
  4

  0
STYLE
  5
48
330
5
100
AcDbSymbolTableRecord
100
AcDbTextStyleTableRecord
  2
OpenSans-BoldItalic
 70
0
 40
0.0
 41
1.0
 50
0.0
 71
0
 42
2.5
  3
OpenSans-BoldItalic.ttf
  4

  0
STYLE
  5
49
330
5
100
AcDbSymbolTableRecord
100
AcDbTextStyleTableRecord
  2
OpenSans-ExtraBold
 70
0
 40
0.0
 41
1.0
 50
0.0
 71
0
 42
2.5
  3
OpenSans-ExtraBold.ttf
  4

  0
STYLE
  5
4A
330
5
100
AcDbSymbolTableRecord
100
AcDbTextStyleTableRecord
  2
OpenSans-ExtraBoldItalic
 70
0
 40
0.0
 41
1.0
 50
0.0
 71
0
 42
2.5
  3
OpenSans-ExtraBoldItalic.ttf
  4

  0
STYLE
  5
4B
330
5
100
AcDbSymbolTableRecord
100
AcDbTextStyleTableRecord
  2
OpenSansCondensed-Bold
 70
0
 40
0.0
 41
1.0
 50
0.0
 71
0
 42
2.5
  3
OpenSansCondensed-Bold.ttf
  4

  0
STYLE
  5
4C
330
5
100
AcDbSymbolTableRecord
100
AcDbTextStyleTableRecord
  2
OpenSansCondensed-Light
 70
0
 40
0.0
 41
1.0
 50
0.0
 71
0
 42
2.5
  3
OpenSansCondensed-Light.ttf
  4

  0
STYLE
  5
4D
330
5
100
AcDbSymbolTableRecord
100
AcDbTextStyleTableRecord
  2
OpenSansCondensed-Italic
 70
0
 40
0.0
 41
1.0
 50
0.0
 71
0
 42
2.5
  3
OpenSansCondensed-LightItalic.ttf
  4

  0
STYLE
  5
4E
330
5
100
AcDbSymbolTableRecord
100
AcDbTextStyleTableRecord
  2
LiberationSans
 70
0
 40
0.0
 41
1.0
 50
0.0
 71
0
 42
2.5
  3
LiberationSans-Regular.ttf
  4

  0
STYLE
  5
4F
330
5
100
AcDbSymbolTableRecord
100
AcDbTextStyleTableRecord
  2
LiberationSans-Bold
 70
0
 40
0.0
 41
1.0
 50
0.0
 71
0
 42
2.5
  3
LiberationSans-Bold.ttf
  4

  0
STYLE
  5
50
330
5
100
AcDbSymbolTableRecord
100
AcDbTextStyleTableRecord
  2
LiberationSans-BoldItalic
 70
0
 40
0.0
 41
1.0
 50
0.0
 71
0
 42
2.5
  3
LiberationSans-BoldItalic.ttf
  4

  0
STYLE
  5
51
330
5
100
AcDbSymbolTableRecord
100
AcDbTextStyleTableRecord
  2
LiberationSans-Italic
 70
0
 40
0.0
 41
1.0
 50
0.0
 71
0
 42
2.5
  3
LiberationSans-Italic.ttf
  4

  0
STYLE
  5
52
330
5
100
AcDbSymbolTableRecord
100
AcDbTextStyleTableRecord
  2
LiberationSerif
 70
0
 40
0.0
 41
1.0
 50
0.0
 71
0
 42
2.5
  3
LiberationSerif-Regular.ttf
  4

  0
STYLE
  5
53
330
5
100
AcDbSymbolTableRecord
100
AcDbTextStyleTableRecord
  2
LiberationSerif-Bold
 70
0
 40
0.0
 41
1.0
 50
0.0
 71
0
 42
2.5
  3
LiberationSerif-Bold.ttf
  4

  0
STYLE
  5
54
330
5
100
AcDbSymbolTableRecord
100
AcDbTextStyleTableRecord
  2
LiberationSerif-BoldItalic
 70
0
 40
0.0
 41
1.0
 50
0.0
 71
0
 42
2.5
  3
LiberationSerif-BoldItalic.ttf
  4

  0
STYLE
  5
55
330
5
100
AcDbSymbolTableRecord
100
AcDbTextStyleTableRecord
  2
LiberationSerif-Italic
 70
0
 40
0.0
 41
1.0
 50
0.0
 71
0
 42
2.5
  3
LiberationSerif-Italic.ttf
  4

  0
STYLE
  5
56
330
5
100
AcDbSymbolTableRecord
100
AcDbTextStyleTableRecord
  2
LiberationMono
 70
0
 40
0.0
 41
1.0
 50
0.0
 71
0
 42
2.5
  3
LiberationMono-Regular.ttf
  4

  0
STYLE
  5
57
330
5
100
AcDbSymbolTableRecord
100
AcDbTextStyleTableRecord
  2
LiberationMono-Bold
 70
0
 40
0.0
 41
1.0
 50
0.0
 71
0
 42
2.5
  3
LiberationMono-Bold.ttf
  4

  0
STYLE
  5
58
330
5
100
AcDbSymbolTableRecord
100
AcDbTextStyleTableRecord
  2
LiberationMono-BoldItalic
 70
0
 40
0.0
 41
1.0
 50
0.0
 71
0
 42
2.5
  3
LiberationMono-BoldItalic.ttf
  4

  0
STYLE
  5
59
330
5
100
AcDbSymbolTableRecord
100
AcDbTextStyleTableRecord
  2
LiberationMono-Italic
 70
0
 40
0.0
 41
1.0
 50
0.0
 71
0
 42
2.5
  3
LiberationMono-Italic.ttf
  4

  0
STYLE
  5
8A
330
5
100
AcDbSymbolTableRecord
100
AcDbTextStyleTableRecord
  2
JP
 70
0
 40
0.0
 41
1.0
 50
0.0
 71
0
 42
2.5
  3
ipag.ttf
  4

  0
ENDTAB
  0
TABLE
  2
VIEW
  5
7
330
0
100
AcDbSymbolTable
 70
0
  0
ENDTAB
  0
TABLE
  2
UCS
  5
6
330
0
100
AcDbSymbolTable
 70
0
  0
ENDTAB
  0
TABLE
  2
APPID
  5
3
330
0
100
AcDbSymbolTable
 70
4
  0
APPID
  5
2A
330
3
100
AcDbSymbolTableRecord
100
AcDbRegAppTableRecord
  2
ACAD
 70
0
  0
APPID
  5
8C
330
3
100
AcDbSymbolTableRecord
100
AcDbRegAppTableRecord
  2
AcAecLayerStandard
 70
0
  0
APPID
  5
15E
330
3
100
AcDbSymbolTableRecord
100
AcDbRegAppTableRecord
  2
HATCHBACKGROUNDCOLOR
 70
0
  0
APPID
  5
15F
330
3
100
AcDbSymbolTableRecord
100
AcDbRegAppTableRecord
  2
EZDXF
 70
0
  0
ENDTAB
  0
TABLE
  2
DIMSTYLE
  5
4
330
0
100
AcDbSymbolTable
 70
13
100
AcDbDimStyleTable
  0
DIMSTYLE
105
2B
330
4
100
AcDbSymbolTableRecord
100
AcDbDimStyleTableRecord
  2
Standard
 70
0
 40
1.0
 41
2.5
 42
0.625
 43
3.75
 44
1.25
 45
0.0
 46
0.0
 47
0.0
 48
0.0
 49
2.5
140
2.5
141
2.5
142
0.0
143
0.03937007874
144
1.0
145
0.0
146
1.0
147
0.625
148
0.0
 69
0
 70
0
 71
0
 72
0
 73
0
 74
0
 75
0
 76
0
 77
1
 78
8
 79
3
170
0
171
3
172
1
173
0
174
0
175
0
176
0
177
0
178
0
179
2
271
2
272
2
273
2
274
3
275
0
276
0
277
2
278
44
279
0
280
0
281
0
282
0
283
0
284
8
285
0
286
0
288
0
289
3
290
0
371
-2
372
-2
  0
DIMSTYLE
105
73
330
4
100
AcDbSymbolTableRecord
100
AcDbDimStyleTableRecord
  2
EZDXF
 70
0
 40
1.0
 41
0.175
 42
0.125
 43
3.75
 44
0.375
 45
0.0
 46
0.0
 47
0.0
 48
0.0
 49
2.5
140
0.25
141
2.5
142
0.0
143
0.03937007874
144
100.0
145
0.0
146
0.5
147
0.1
148
0.0
 69
0
 70
0
 71
0
 72
0
 73
0
 74
0
 75
0
 76
0
 77
1
 78
12
 79
3
170
0
171
3
172
1
173
0
174
0
175
0
176
0
177
0
178
0
179
2
271
2
272
2
273
2
274
3
275
0
276
0
277
2
278
46
279
2
280
0
281
0
282
0
283
0
284
8
285
0
286
0
288
1
289
3
290
0
340
4C
342
74
371
-2
372
-2
  0
DIMSTYLE
105
7C
330
4
100
AcDbSymbolTableRecord
100
AcDbDimStyleTableRecord
  2
EZ_M_100_H25_CM
 70
0
 40
1.0
 41
0.25
 42
0.125
 43
3.75
 44
0.375
 45
0.0
 46
0.0
 47
0.0
 48
0.0
 49
2.5
140
0.25
141
2.5
142
0.125
143
0.03937007874
144
100.0
145
0.0
146
0.5
147
0.1
148
0.0
 69
0
 70
0
 71
0
 72
0
 73
0
 74
0
 75
0
 76
0
 77
1
 78
12
 79
3
170
0
171
3
172
1
173
0
174
0
175
0
176
0
177
0
178
0
179
2
271
2
272
2
273
2
274
3
275
0
276
0
277
2
278
46
279
2
280
0
281
0
282
0
283
0
284
8
285
0
286
0
288
1
289
3
290
0
340
4C
371
-2
372
-2
  0
DIMSTYLE
105
7D
330
4
100
AcDbSymbolTableRecord
100
AcDbDimStyleTableRecord
  2
EZ_M_50_H25_CM
 70
0
 40
1.0
 41
0.125
 42
0.0625
 43
3.75
 44
0.1875
 45
0.0
 46
0.0
 47
0.0
 48
0.0
 49
2.5
140
0.125
141
2.5
142
0.0625
143
0.03937007874
144
100.0
145
0.0
146
0.5
147
0.05
148
0.0
 69
0
 70
0
 71
0
 72
0
 73
0
 74
0
 75
0
 76
0
 77
1
 78
12
 79
3
170
0
171
3
172
1
173
0
174
0
175
0
176
0
177
0
178
0
179
2
271
2
272
2
273
2
274
3
275
0
276
0
277
2
278
46
279
2
280
0
281
0
282
0
283
0
284
8
285
0
286
0
288
1
289
3
290
0
340
4C
371
-2
372
-2
  0
DIMSTYLE
105
7E
330
4
100
AcDbSymbolTableRecord
100
AcDbDimStyleTableRecord
  2
EZ_M_25_H25_CM
 70
0
 40
1.0
 41
0.0625
 42
0.03125
 43
3.75
 44
0.09375
 45
0.0
 46
0.0
 47
0.0
 48
0.0
 49
2.5
140
0.0625
141
2.5
142
0.03125
143
0.03937007874
144
100.0
145
0.0
146
0.5
147
0.025
148
0.0
 69
0
 70
0
 71
0
 72
0
 73
0
 74
0
 75
0
 76
0
 77
1
 78
12
 79
3
170
0
171
3
172
1
173
0
174
0
175
0
176
0
177
0
178
0
179
2
271
2
272
2
273
2
274
3
275
0
276
0
277
2
278
46
279
2
280
0
281
0
282
0
283
0
284
8
285
0
286
0
288
1
289
3
290
0
340
4C
371
-2
372
-2
  0
DIMSTYLE
105
7F
330
4
100
AcDbSymbolTableRecord
100
AcDbDimStyleTableRecord
  2
EZ_M_20_H25_CM
 70
0
 40
1.0
 41
0.05
 42
0.025
 43
3.75
 44
0.07500000000000001
 45
0.0
 46
0.0
 47
0.0
 48
0.0
 49
2.5
140
0.05
141
2.5
142
0.025
143
0.03937007874
144
100.0
145
0.0
146
0.5
147
0.020000000000000004
148
0.0
 69
0
 70
0
 71
0
 72
0
 73
0
 74
0
 75
0
 76
0
 77
1
 78
12
 79
3
170
0
171
3
172
1
173
0
174
0
175
0
176
0
177
0
178
0
179
2
271
2
272
2
273
2
274
3
275
0
276
0
277
2
278
46
279
2
280
0
281
0
282
0
283
0
284
8
285
0
286
0
288
1
289
3
290
0
340
4C
371
-2
372
-2
  0
DIMSTYLE
105
80
330
4
100
AcDbSymbolTableRecord
100
AcDbDimStyleTableRecord
  2
EZ_M_10_H25_CM
 70
0
 40
1.0
 41
0.025
 42
0.0125
 43
3.75
 44
0.037500000000000006
 45
0.0
 46
0.0
 47
0.0
 48
0.0
 49
2.5
140
0.025
141
2.5
142
0.0125
143
0.03937007874
144
100.0
145
0.0
146
0.5
147
0.010000000000000002
148
0.0
 69
0
 70
0
 71
0
 72
0
 73
0
 74
0
 75
0
 76
0
 77
1
 78
12
 79
3
170
0
171
3
172
1
173
0
174
0
175
0
176
0
177
0
178
0
179
2
271
2
272
2
273
2
274
3
275
0
276
0
277
2
278
46
279
2
280
0
281
0
282
0
283
0
284
8
285
0
286
0
288
1
289
3
290
0
340
4C
371
-2
372
-2
  0
DIMSTYLE
105
81
330
4
100
AcDbSymbolTableRecord
100
AcDbDimStyleTableRecord
  2
EZ_M_5_H25_CM
 70
0
 40
1.0
 41
0.0125
 42
0.00625
 43
3.75
 44
0.018750000000000003
 45
0.0
 46
0.0
 47
0.0
 48
0.0
 49
2.5
140
0.0125
141
2.5
142
0.00625
143
0.03937007874
144
100.0
145
0.0
146
0.5
147
0.005000000000000001
148
0.0
 69
0
 70
0
 71
0
 72
0
 73
0
 74
0
 75
0
 76
0
 77
1
 78
12
 79
3
170
0
171
3
172
1
173
0
174
0
175
0
176
0
177
0
178
0
179
2
271
2
272
2
273
2
274
3
275
0
276
0
277
2
278
46
279
2
280
0
281
0
282
0
283
0
284
8
285
0
286
0
288
1
289
3
290
0
340
4C
371
-2
372
-2
  0
DIMSTYLE
105
82
330
4
100
AcDbSymbolTableRecord
100
AcDbDimStyleTableRecord
  2
EZ_M_1_H25_CM
 70
0
 40
1.0
 41
0.0025
 42
0.00125
 43
3.75
 44
0.00375
 45
0.0
 46
0.0
 47
0.0
 48
0.0
 49
2.5
140
0.0025
141
2.5
142
0.00125
143
0.03937007874
144
100.0
145
0.0
146
0.5
147
0.001
148
0.0
 69
0
 70
0
 71
0
 72
0
 73
0
 74
0
 75
0
 76
0
 77
1
 78
12
 79
3
170
0
171
3
172
1
173
0
174
0
175
0
176
0
177
0
178
0
179
2
271
2
272
2
273
2
274
3
275
0
276
0
277
2
278
46
279
2
280
0
281
0
282
0
283
0
284
8
285
0
286
0
288
1
289
3
290
0
340
4C
371
-2
372
-2
  0
DIMSTYLE
105
83
330
4
100
AcDbSymbolTableRecord
100
AcDbDimStyleTableRecord
  2
EZ_RADIUS
 70
0
 40
1.0
 41
0.25
 42
0.125
 43
3.75
 44
0.375
 45
0.0
 46
0.0
 47
0.0
 48
0.0
 49
2.5
140
0.25
141
0.0
142
0.0
143
0.03937007874
144
100.0
145
0.0
146
0.5
147
0.1
148
0.0
 69
0
 70
0
 71
0
 72
0
 73
0
 74
0
 75
0
 76
0
 77
1
 78
12
 79
3
170
0
171
3
172
0
173
0
174
0
175
0
176
0
177
0
178
0
179
2
271
2
272
2
273
2
274
3
275
0
276
0
277
2
278
46
279
1
280
0
281
0
282
0
283
0
284
8
285
0
286
0
288
1
289
3
290
0
340
4C
342
84
371
-2
372
-2
  0
DIMSTYLE
105
88
330
4
100
AcDbSymbolTableRecord
100
AcDbDimStyleTableRecord
  2
EZ_RADIUS_INSIDE
 70
0
 40
1.0
 41
0.25
 42
0.125
 43
3.75
 44
0.375
 45
0.0
 46
0.0
 47
0.0
 48
0.0
 49
2.5
140
0.25
141
0.0
142
0.0
143
0.03937007874
144
100.0
145
0.0
146
0.5
147
0.1
148
0.0
 69
0
 70
0
 71
0
 72
0
 73
0
 74
0
 75
0
 76
0
 77
0
 78
12
 79
3
170
0
171
3
172
0
173
0
174
1
175
0
176
0
177
0
178
0
179
2
271
2
272
2
273
2
274
3
275
0
276
0
277
2
278
46
279
0
280
0
281
0
282
0
283
0
284
8
285
0
286
0
288
1
289
0
290
0
340
4C
342
84
371
-2
372
-2
  0
DIMSTYLE
105
89
330
4
100
AcDbSymbolTableRecord
100
AcDbDimStyleTableRecord
  2
EZ_CURVED
 70
0
 40
1.0
 41
0.25
 42
0.125
 43
3.75
 44
0.375
 45
0.0
 46
0.0
 47
0.0
 48
0.0
 49
2.5
140
0.25
141
2.5
142
0.0
143
0.03937007874
144
100.0
145
0.0
146
0.5
147
0.1
148
0.0
 69
0
 70
0
 71
0
 72
0
 73
0
 74
0
 75
0
 76
0
 77
1
 78
12
 79
2
 90
2
170
0
171
3
172
1
173
0
174
0
175
0
176
0
177
0
178
0
179
2
271
2
272
2
273
2
274
3
275
0
276
0
277
2
278
46
279
2
280
0
281
0
282
0
283
0
284
8
285
0
286
0
288
1
289
3
290
0
340
4C
371
-2
372
-2
  0
DIMSTYLE
105
B4
330
4
100
AcDbSymbolTableRecord
100
AcDbDimStyleTableRecord
  2
JIS
 70
0
 40
500.0
 41
1.0
 42
1.0
 43
3.75
 44
1.0
 45
0.0
 46
0.0
 47
0.0
 48
0.0
 49
2.5
140
2.0
141
2.5
142
0.0
143
0.03937007874
144
1.0
145
0.0
146
1.0
147
0.6
148
0.0
 69
0
 70
0
 71
0
 72
0
 73
0
 74
0
 75
0
 76
0
 77
1
 78
8
 79
3
170
0
171
3
172
1
173
0
174
0
175
0
176
7
177
7
178
7
179
2
271
0
272
2
273
2
274
3
275
0
276
0
277
2
278
44
279
0
280
0
281
0
282
0
283
0
284
8
285
0
286
0
288
0
289
3
290
0
340
8A
342
161
371
13
372
13
  0
ENDTAB
  0
TABLE
  2
BLOCK_RECORD
  5
9
330
0
100
AcDbSymbolTable
 70
6
  0
BLOCK_RECORD
  5
17
330
9
100
AcDbSymbolTableRecord
100
AcDbBlockTableRecord
  2
*Model_Space
340
1A
 70
0
280
1
281
0
  0
BLOCK_RECORD
  5
1B
330
9
100
AcDbSymbolTableRecord
100
AcDbBlockTableRecord
  2
*Paper_Space
340
1E
 70
0
280
1
281
0
  0
BLOCK_RECORD
  5
74
330
9
100
AcDbSymbolTableRecord
100
AcDbBlockTableRecord
  2
_ARCHTICK
340
0
 70
0
280
1
281
0
  0
BLOCK_RECORD
  5
78
330
9
100
AcDbSymbolTableRecord
100
AcDbBlockTableRecord
  2
_CLOSEDFILLED
340
0
 70
0
280
1
281
0
  0
BLOCK_RECORD
  5
84
330
9
100
AcDbSymbolTableRecord
100
AcDbBlockTableRecord
  2
_CLOSEDBLANK
340
0
 70
0
280
1
281
0
  0
BLOCK_RECORD
  5
161
330
9
100
AcDbSymbolTableRecord
100
AcDbBlockTableRecord
  2
_DOT
340
0
 70
0
280
1
281
0
  0
ENDTAB
  0
ENDSEC
  0
SECTION
  2
BLOCKS
  0
BLOCK
  5
18
330
17
100
AcDbEntity
  8
0
100
AcDbBlockBegin
  2
*Model_Space
 70
0
 10
0.0
 20
0.0
 30
0.0
  3
*Model_Space
  1

  0
ENDBLK
  5
19
330
17
100
AcDbEntity
  8
0
100
AcDbBlockEnd
  0
BLOCK
  5
1C
330
1B
100
AcDbEntity
  8
0
100
AcDbBlockBegin
  2
*Paper_Space
 70
0
 10
0.0
 20
0.0
 30
0.0
  3
*Paper_Space
  1

  0
ENDBLK
  5
1D
330
1B
100
AcDbEntity
  8
0
100
AcDbBlockEnd
  0
BLOCK
  5
75
330
74
100
AcDbEntity
  8
0
100
AcDbBlockBegin
  2
_ARCHTICK
 70
0
 10
0.0
 20
0.0
 30
0.0
  3
_ARCHTICK
  1

  0
LWPOLYLINE
  5
77
330
74
100
AcDbEntity
  8
0
  6
BYBLOCK
 62
0
100
AcDbPolyline
 90
2
 70
0
 43
0.15
 10
-0.5
 20
-0.5
 10
0.5
 20
0.5
  0
ENDBLK
  5
76
330
74
100
AcDbEntity
  8
0
100
AcDbBlockEnd
  0
BLOCK
  5
79
330
78
100
AcDbEntity
  8
0
100
AcDbBlockBegin
  2
_CLOSEDFILLED
 70
0
 10
0.0
 20
0.0
 30
0.0
  3
_CLOSEDFILLED
  1

  0
SOLID
  5
7B
330
78
100
AcDbEntity
  8
0
  6
BYBLOCK
 62
0
100
AcDbTrace
 10
-1.0
 20
0.16439898372402537
 30
0.0
 11
0.0
 21
0.0
 31
0.0
 12
-1.0
 22
-0.16439898372402537
 32
0.0
 13
-1.0
 23
-0.16439898372402537
 33
0.0
  0
ENDBLK
  5
7A
330
78
100
AcDbEntity
  8
0
100
AcDbBlockEnd
  0
BLOCK
  5
85
330
84
100
AcDbEntity
  8
0
100
AcDbBlockBegin
  2
_CLOSEDBLANK
 70
0
 10
0.0
 20
0.0
 30
0.0
  3
_CLOSEDBLANK
  1

  0
LWPOLYLINE
  5
87
330
84
100
AcDbEntity
  8
0
  6
BYBLOCK
 62
0
100
AcDbPolyline
 90
3
 70
1
 10
-1.0
 20
0.16439898372402537
 10
0.0
 20
0.0
 10
-1.0
 20
-0.16439898372402537
  0
ENDBLK
  5
86
330
84
100
AcDbEntity
  8
0
100
AcDbBlockEnd
  0
BLOCK
  5
162
330
161
100
AcDbEntity
  8
0
100
AcDbBlockBegin
  2
_DOT
 70
0
 10
0.0
 20
0.0
 30
0.0
  3
_DOT
  1

  0
LINE
  5
164
330
161
100
AcDbEntity
  8
0
  6
BYBLOCK
 62
0
100
AcDbLine
 10
-0.5
 20
0.0
 30
0.0
 11
-1.0
 21
0.0
 31
0.0
  0
LWPOLYLINE
  5
165
330
161
100
AcDbEntity
  8
0
  6
BYBLOCK
 62
0
100
AcDbPolyline
 90
2
 70
1
 43
0.5
 10
-0.25
 20
0.0
 42
1.0
 10
0.25
 20
0.0
 42
1.0
  0
ENDBLK
  5
163
330
161
100
AcDbEntity
  8
0
100
AcDbBlockEnd
  0
ENDSEC
  0
SECTION
  2
ENTITIES
  0
LWPOLYLINE
  5
B5
330
17
100
AcDbEntity
  8
G-FRAME
370
0
100
AcDbPolyline
 90
4
 70
1
 10
0.0
 20
0.0
 10
210000.0
 20
0.0
 10
210000.0
 20
148500.0
 10
0.0
 20
148500.0
  0
LWPOLYLINE
  5
B6
330
17
100
AcDbEntity
  8
G-FRAME
100
AcDbPolyline
 90
4
 70
1
 10
5000.0
 20
5000.0
 10
205000.0
 20
5000.0
 10
205000.0
 20
143500.0
 10
5000.0
 20
143500.0
  0
LWPOLYLINE
  5
B7
330
17
100
AcDbEntity
  8
G-TITLE
370
50
100
AcDbPolyline
 90
4
 70
1
 10
110000.0
 20
5000.0
 10
205000.0
 20
5000.0
 10
205000.0
 20
24000.0
 10
110000.0
 20
24000.0
  0
LINE
  5
B8
330
17
100
AcDbEntity
  8
G-TITLE
100
AcDbLine
 10
110000.0
 20
19000.0
 30
0.0
 11
205000.0
 21
19000.0
 31
0.0
  0
LINE
  5
B9
330
17
100
AcDbEntity
  8
G-TITLE
100
AcDbLine
 10
110000.0
 20
13500.0
 30
0.0
 11
205000.0
 21
13500.0
 31
0.0
  0
LINE
  5
BA
330
17
100
AcDbEntity
  8
G-TITLE
100
AcDbLine
 10
110000.0
 20
9500.0
 30
0.0
 11
205000.0
 21
9500.0
 31
0.0
  0
LINE
  5
BB
330
17
100
AcDbEntity
  8
G-TITLE
100
AcDbLine
 10
121000.0
 20
5000.0
 30
0.0
 11
121000.0
 21
24000.0
 31
0.0
  0
TEXT
  5
BC
330
17
100
AcDbEntity
  8
G-TITLE
100
AcDbText
 10
111000.0
 20
20750.0
 30
0.0
 40
1100.0
  1
工事名称
  7
JP
 11
111000.0
 21
20750.0
 31
0.0
100
AcDbText
  0
TEXT
  5
BD
330
17
100
AcDbEntity
  8
G-TITLE
100
AcDbText
 10
122000.0
 20
20500.0
 30
0.0
 40
1700.0
  1
河沿要（仮称）新築計画
  7
JP
 11
122000.0
 21
20500.0
 31
0.0
100
AcDbText
  0
TEXT
  5
BE
330
17
100
AcDbEntity
  8
G-TITLE
100
AcDbText
 10
111000.0
 20
15500.0
 30
0.0
 40
1100.0
  1
図面名称
  7
JP
 11
111000.0
 21
15500.0
 31
0.0
100
AcDbText
  0
TEXT
  5
BF
330
17
100
AcDbEntity
  8
G-TITLE
100
AcDbText
 10
122000.0
 20
15100.0
 30
0.0
 40
2200.0
  1
外構照明・防虫計画図
  7
JP
 11
122000.0
 21
15100.0
 31
0.0
100
AcDbText
  0
TEXT
  5
C0
330
17
100
AcDbEntity
  8
G-TITLE
100
AcDbText
 10
111000.0
 20
10800.0
 30
0.0
 40
1100.0
  1
縮尺
  7
JP
 11
111000.0
 21
10800.0
 31
0.0
100
AcDbText
  0
LINE
  5
C1
330
17
100
AcDbEntity
  8
G-TITLE
100
AcDbLine
 10
121000.0
 20
9500.0
 30
0.0
 11
121000.0
 21
13500.0
 31
0.0
  0
TEXT
  5
C2
330
17
100
AcDbEntity
  8
G-TITLE
100
AcDbText
 10
121750.0
 20
10800.0
 30
0.0
 40
1000.0
  1
A3
  7
JP
 11
121750.0
 21
10800.0
 31
0.0
100
AcDbText
  0
TEXT
  5
C3
330
17
100
AcDbEntity
  8
G-TITLE
100
AcDbText
 10
126000.0
 20
10700.0
 30
0.0
 40
1300.0
  1
1:500
  7
JP
 11
126000.0
 21
10700.0
 31
0.0
100
AcDbText
  0
LINE
  5
C4
330
17
100
AcDbEntity
  8
G-TITLE
100
AcDbLine
 10
141000.0
 20
9500.0
 30
0.0
 11
141000.0
 21
13500.0
 31
0.0
  0
TEXT
  5
C5
330
17
100
AcDbEntity
  8
G-TITLE
100
AcDbText
 10
141750.0
 20
10800.0
 30
0.0
 40
1000.0
  1
日付
  7
JP
 11
141750.0
 21
10800.0
 31
0.0
100
AcDbText
  0
TEXT
  5
C6
330
17
100
AcDbEntity
  8
G-TITLE
100
AcDbText
 10
146000.0
 20
10700.0
 30
0.0
 40
1300.0
  1
2026-10-03
  7
JP
 11
146000.0
 21
10700.0
 31
0.0
100
AcDbText
  0
LINE
  5
C7
330
17
100
AcDbEntity
  8
G-TITLE
100
AcDbLine
 10
166000.0
 20
9500.0
 30
0.0
 11
166000.0
 21
13500.0
 31
0.0
  0
TEXT
  5
C8
330
17
100
AcDbEntity
  8
G-TITLE
100
AcDbText
 10
166750.0
 20
10800.0
 30
0.0
 40
1000.0
  1
設計
  7
JP
 11
166750.0
 21
10800.0
 31
0.0
100
AcDbText
  0
TEXT
  5
C9
330
17
100
AcDbEntity
  8
G-TITLE
100
AcDbText
 10
171000.0
 20
10700.0
 30
0.0
 40
1300.0
  1
設計検討（仮）
  7
JP
 11
171000.0
 21
10700.0
 31
0.0
100
AcDbText
  0
TEXT
  5
CA
330
17
100
AcDbEntity
  8
G-TITLE
100
AcDbText
 10
111000.0
 20
6700.0
 30
0.0
 40
1100.0
  1
段階
  7
JP
 11
111000.0
 21
6700.0
 31
0.0
100
AcDbText
  0
TEXT
  5
CB
330
17
100
AcDbEntity
  8
G-TITLE
100
AcDbText
 10
122000.0
 20
6700.0
 30
0.0
 40
950.0
  1
基本計画　／　本図は建築基準法令に基づく計画段階の検討図であり、確認申請・構造計算・関係機関協議により確定する
  7
JP
 11
122000.0
 21
6700.0
 31
0.0
100
AcDbText
  0
LINE
  5
CC
330
17
100
AcDbEntity
  8
G-TITLE
100
AcDbLine
 10
188000.0
 20
9500.0
 30
0.0
 11
188000.0
 21
19000.0
 31
0.0
  0
TEXT
  5
CD
330
17
100
AcDbEntity
  8
G-TITLE
100
AcDbText
 10
188750.0
 20
17500.0
 30
0.0
 40
1000.0
  1
図番
  7
JP
 11
188750.0
 21
17500.0
 31
0.0
100
AcDbText
  0
TEXT
  5
CE
330
17
100
AcDbEntity
  8
G-TITLE
100
AcDbText
 10
196500.0
 20
14000.0
 30
0.0
 40
3000.0
  1
E-03
  7
JP
 72
1
 11
196500.0
 21
14000.0
 31
0.0
100
AcDbText
 73
1
  0
LWPOLYLINE
  5
CF
330
17
100
AcDbEntity
  8
A-NEIGH
370
9
100
AcDbPolyline
 90
5
 70
1
 10
98925.10090234884
 20
34837.0267696925
 10
98925.10090234884
 20
123162.97323030749
 10
11074.899097651152
 20
123162.97323030749
 10
11074.899097651152
 20
34837.0267696925
 10
98925.10090234884
 20
34837.0267696925
  0
LWPOLYLINE
  5
D0
330
17
100
AcDbEntity
  8
A-NEIGH
100
AcDbPolyline
 90
3
 70
0
 10
21119.90496804292
 20
104059.16145247969
 10
20255.72460055268
 20
100647.33022974248
 10
11074.899097651152
 20
102682.49131828241
  0
LWPOLYLINE
  5
D1
330
17
100
AcDbEntity
  8
A-NEIGH
100
AcDbPolyline
 90
2
 70
0
 10
11074.899097651152
 20
106252.23626546821
 10
21119.90496804292
 20
104059.16145247969
  0
LWPOLYLINE
  5
D2
330
17
100
AcDbEntity
  8
A-NEIGH
100
AcDbPolyline
 90
5
 70
0
 10
34297.75029519654
 20
62367.96223089798
 10
34099.10664038801
 20
59848.07320588035
 10
30814.876376468786
 20
60125.97889772042
 10
31003.74878668315
 20
62643.74124009109
 10
34297.75029519654
 20
62367.96223089798
  0
LWPOLYLINE
  5
D3
330
17
100
AcDbEntity
  8
A-NEIGH
100
AcDbPolyline
 90
5
 70
0
 10
52575.95538886929
 20
64483.55164135449
 10
52244.30785176129
 20
60317.72520340365
 10
49454.617520125816
 20
60580.456727168064
 10
49786.26505723382
 20
64746.2831651189
 10
52575.95538886929
 20
64483.55164135449
  0
LWPOLYLINE
  5
D4
330
17
100
AcDbEntity
  8
A-NEIGH
100
AcDbPolyline
 90
5
 70
0
 10
56552.33463751199
 20
58768.46563404334
 10
56824.37758259555
 20
49524.86824795873
 10
52256.32073482117
 20
49400.54352997527
 10
51867.02285460758
 20
58618.62072429628
 10
56552.33463751199
 20
58768.46563404334
  0
LWPOLYLINE
  5
D5
330
17
100
AcDbEntity
  8
A-NEIGH
100
AcDbPolyline
 90
7
 70
0
 10
60702.41212829341
 20
56816.40087576573
 10
60547.16429506485
 20
55789.9028921935
 10
62453.13177002175
 20
55590.684458291194
 10
62023.77178697205
 20
46184.19467703083
 10
57170.164685410404
 20
46243.33944578025
 10
57795.46686152789
 20
57053.61220776655
 10
60702.41212829341
 20
56816.40087576573
  0
LWPOLYLINE
  5
D6
330
17
100
AcDbEntity
  8
A-NEIGH
100
AcDbPolyline
 90
4
 70
0
 10
98925.10090234884
 20
102311.12191464932
 10
94458.09622540296
 20
103022.14501149138
 10
94916.76994223516
 20
105475.81948490615
 10
98925.10090234884
 20
104837.80450651655
  0
LWPOLYLINE
  5
D7
330
17
100
AcDbEntity
  8
A-NEIGH
100
AcDbPolyline
 90
2
 70
0
 10
36323.27182165855
 20
35381.39404326363
 10
36314.23982915591
 20
34837.0267696925
  0
LWPOLYLINE
  5
D8
330
17
100
AcDbEntity
  8
A-NEIGH
100
AcDbPolyline
 90
3
 70
0
 10
31838.54788582713
 20
34837.0267696925
 10
31846.949717250624
 20
35399.84445217379
 10
36323.27182165855
 20
35381.39404326363
  0
LWPOLYLINE
  5
D9
330
17
100
AcDbEntity
  8
A-NEIGH
100
AcDbPolyline
 90
11
 70
0
 10
29249.23560293591
 20
72444.81686922777
 10
29511.967126700318
 20
73494.70836191662
 10
34638.07699662054
 20
72747.78292955642
 10
33589.85236330364
 20
66184.72532519946
 10
28168.420995001976
 20
67112.99356164559
 10
27459.488460740267
 20
62987.86148353399
 10
21920.802157308575
 20
63890.609528216526
 10
22000.06419434011
 20
64654.95076711811
 10
18545.41192911669
 20
65151.617382048826
 10
19988.222410309925
 20
73898.54815320272
 10
29249.23560293591
 20
72444.81686922777
  0
LWPOLYLINE
  5
DA
330
17
100
AcDbEntity
  8
A-NEIGH
100
AcDbPolyline
 90
11
 70
0
 10
42620.09174977908
 20
71998.15603545544
 10
41908.45775377663
 20
66756.91791305217
 10
41404.14657689871
 20
66769.96539848085
 10
41077.90196327219
 20
64836.3510491134
 10
38002.66137784945
 20
65282.5520596107
 10
37595.02804454444
 20
62594.36771593584
 10
34662.56258601534
 20
62948.83398306669
 10
35212.97104621398
 20
67285.08242232172
 10
34565.88474244243
 20
67389.86465111686
 10
35208.6027251013
 20
72994.7655061514
 10
42620.09174977908
 20
71998.15603545544
  0
LWPOLYLINE
  5
DB
330
17
100
AcDbEntity
  8
A-NEIGH
100
AcDbPolyline
 90
13
 70
0
 10
38489.09692491098
 20
60179.260919713335
 10
38707.85784800163
 20
58609.88408207091
 10
40898.800797652
 20
58841.11771149647
 10
41835.80567632351
 20
51103.384073192174
 10
32024.38402349888
 20
49960.66575685871
 10
31869.136190270336
 20
50673.966612233104
 10
30518.520275718565
 20
50625.62769044666
 10
29978.91766248288
 20
54233.401106251644
 10
31548.294500125292
 20
54452.1620293423
 10
31397.87481128446
 20
56271.79768441422
 10
32371.20572868252
 20
56360.83096603992
 10
31968.975318858997
 20
59384.45638884168
 10
38489.09692491098
 20
60179.260919713335
  0
LWPOLYLINE
  5
DC
330
17
100
AcDbEntity
  8
A-NEIGH
100
AcDbPolyline
 90
6
 70
0
 10
86875.2227254237
 20
123162.97323030749
 10
86750.07866624682
 20
121321.50197581504
 10
78181.78923743809
 20
121943.527911098
 10
78026.54140420955
 20
120917.02992752579
 10
74507.80127003025
 20
121143.89523583866
 10
74671.98151472321
 20
123162.97323030749
  0
LWPOLYLINE
  5
DD
330
17
100
AcDbEntity
  8
A-NEIGH
100
AcDbPolyline
 90
6
 70
0
 10
98925.10090234884
 20
65459.35032401411
 10
93432.28797674325
 20
65556.95159897872
 10
93507.1816926621
 20
73770.77476065658
 10
96480.34151103045
 20
73793.59349067946
 10
96534.08335629838
 20
74675.18966471107
 10
98925.10090234884
 20
74644.87156086761
  0
LWPOLYLINE
  5
DE
330
17
100
AcDbEntity
  8
A-NEIGH
100
AcDbPolyline
 90
2
 70
0
 10
26901.60787232254
 20
35316.21409402958
 10
26909.103111777364
 20
34837.0267696925
  0
LWPOLYLINE
  5
DF
330
17
100
AcDbEntity
  8
A-NEIGH
100
AcDbPolyline
 90
3
 70
0
 10
24283.635582772262
 20
34837.0267696925
 10
24282.339541991267
 20
35360.18469470334
 10
26901.60787232254
 20
35316.21409402958
  0
LWPOLYLINE
  5
E0
330
17
100
AcDbEntity
  8
A-ROAD
100
AcDbPolyline
 90
9
 70
0
 10
11074.899097651152
 20
119087.18469575673
 10
16828.08695273667
 20
117524.45380443006
 10
28517.254427013842
 20
115729.30373875293
 10
51671.31057317731
 20
113686.71127320579
 10
62728.56591175859
 20
114230.68220755417
 10
71554.75871994402
 20
115292.01180420915
 10
89014.88072944724
 20
118345.06591661216
 10
90938.72383422051
 20
119756.4934592853
 10
91326.69857634413
 20
123162.97323030749
  0
LWPOLYLINE
  5
E1
330
17
100
AcDbEntity
  8
A-ROAD
100
AcDbPolyline
 90
6
 70
0
 10
42126.98876522978
 20
111363.79904362475
 10
41099.91600256378
 20
110393.16958796742
 10
27642.72803583564
 20
111189.4685444829
 10
26307.8610684533
 20
112761.54684386606
 10
11449.591582739977
 20
114869.894037741
 10
11074.899097651152
 20
114975.32406240457
  0
LWPOLYLINE
  5
E2
330
17
100
AcDbEntity
  8
A-ROAD
100
AcDbPolyline
 90
12
 70
0
 10
11074.899097651152
 20
43821.14227108667
 10
76688.80054135832
 20
43788.17054672165
 10
78622.41489072576
 20
45201.72477204176
 10
79988.20497335317
 20
47484.40246505857
 10
83189.20722449383
 20
80080.81460793392
 10
87835.89385229659
 20
100956.56138219326
 10
89918.72085440795
 20
114192.28696409002
 10
88517.63933542275
 20
115504.33520144949
 10
71888.07311642396
 20
112632.04911403861
 10
63059.75362559156
 20
111580.4907619778
 10
56713.33026167829
 20
111069.10980224647
 10
45151.18896712533
 20
111152.10790338754
  0
LWPOLYLINE
  5
E3
330
17
100
AcDbEntity
  8
A-ROAD
100
AcDbPolyline
 90
4
 70
0
 10
45151.18896712533
 20
111152.10790338754
 10
44740.27939298579
 20
104482.14138758849
 10
41716.07919109025
 20
104693.8325278257
 10
42126.98876522978
 20
111363.79904362475
  0
LWPOLYLINE
  5
E4
330
17
100
AcDbEntity
  8
A-ROAD
100
AcDbPolyline
 90
3
 70
0
 10
13462.260920958925
 20
34837.0267696925
 10
13653.409584090903
 20
36280.80836920228
 10
11074.899097651152
 20
36302.61074671639
  0
LWPOLYLINE
  5
E5
330
17
100
AcDbEntity
  8
A-ROAD
100
AcDbPolyline
 90
4
 70
0
 10
98925.10090234884
 20
36069.10841559311
 10
76792.54816778464
 20
36493.36167808013
 10
16753.595582183454
 20
36331.27397363568
 10
16553.70510510232
 20
34837.0267696925
  0
LWPOLYLINE
  5
E6
330
17
100
AcDbEntity
  8
A-ROAD
100
AcDbPolyline
 90
5
 70
0
 10
96989.10543579479
 20
123162.97323030749
 10
96201.6311284591
 20
115559.74390608937
 10
88610.63859279548
 20
79152.54637148781
 10
85634.37496732075
 20
48344.84676843928
 10
98925.10090234884
 20
48153.39917001216
  0
HATCH
  5
E7
330
17
100
AcDbEntity
  8
A-WATER
 62
7
100
AcDbHatch
 10
0.0
 20
0.0
 30
0.0
210
0.0
220
0.0
230
1.0
  2
ANSI31
 70
0
 71
0
 91
1
 92
3
 72
0
 73
1
 93
12
 10
18779.11710864548
 20
110253.03844490516
 10
44898.803467048856
 20
107750.62270433828
 10
61981.64047939837
 20
107364.77349868731
 10
69273.74788629914
 20
108092.21391976858
 10
81360.77744928717
 20
110722.92035406595
 10
81668.5716540035
 20
108180.21259902549
 10
69673.27683438193
 20
105692.28129162171
 10
62027.27793944409
 20
104898.05153984384
 10
44702.28649488729
 20
105220.96243472648
 10
19084.784630714876
 20
107720.10193445886
 10
11074.899097651152
 20
109029.01591382158
 10
11074.899097651152
 20
111548.62955226676
 97
0
 75
1
 76
1
 52
0.0
 41
236.2204724409449
 77
0
 78
1
 53
45.0
 43
0.0
 44
0.0
 45
-530.3300858976
 46
530.3300858976
 79
0
 98
0
  0
LWPOLYLINE
  5
E8
330
17
100
AcDbEntity
  8
A-WATER
100
AcDbPolyline
 90
13
 70
1
 10
18779.11710864548
 20
110253.03844490516
 10
44898.803467048856
 20
107750.62270433828
 10
61981.64047939837
 20
107364.77349868731
 10
69273.74788629914
 20
108092.21391976858
 10
81360.77744928717
 20
110722.92035406595
 10
81668.5716540035
 20
108180.21259902549
 10
69673.27683438193
 20
105692.28129162171
 10
62027.27793944409
 20
104898.05153984384
 10
44702.28649488729
 20
105220.96243472648
 10
19084.784630714876
 20
107720.10193445886
 10
11074.899097651152
 20
109029.01591382158
 10
11074.899097651152
 20
111548.62955226676
 10
18779.11710864548
 20
110253.03844490516
  0
HATCH
  5
E9
330
17
100
AcDbEntity
  8
A-WATER
 62
7
100
AcDbHatch
 10
0.0
 20
0.0
 30
0.0
210
0.0
220
0.0
230
1.0
  2
ANSI31
 70
0
 71
0
 91
1
 92
3
 72
0
 73
1
 93
4
 10
78086.98606072484
 20
34837.0267696925
 10
76315.9543046284
 20
34837.0267696925
 10
76338.70259534015
 20
35146.022004362865
 10
78101.89494340339
 20
35038.53831382702
 97
0
 75
1
 76
1
 52
0.0
 41
236.2204724409449
 77
0
 78
1
 53
45.0
 43
0.0
 44
0.0
 45
-530.3300858976
 46
530.3300858976
 79
0
 98
0
  0
LWPOLYLINE
  5
EA
330
17
100
AcDbEntity
  8
A-WATER
100
AcDbPolyline
 90
5
 70
1
 10
78086.98606072484
 20
34837.0267696925
 10
76315.9543046284
 20
34837.0267696925
 10
76338.70259534015
 20
35146.022004362865
 10
78101.89494340339
 20
35038.53831382702
 10
78086.98606072484
 20
34837.0267696925
  0
LWPOLYLINE
  5
EB
330
17
100
AcDbEntity
  8
A-HIDDEN
100
AcDbPolyline
 90
17
 70
1
 10
64659.01897611027
 20
102492.71598821552
 10
64526.0150938108
 20
100846.77857528231
 10
76141.8982336317
 20
99905.57780922623
 10
76842.15160357741
 20
99556.51446557688
 10
79213.86257821992
 20
97217.39346555137
 10
80352.2125734407
 20
94855.45373550305
 10
81050.33926073943
 20
92776.3627975012
 10
81368.47948914373
 20
87882.06133610033
 10
80794.67751982846
 20
85393.09542632778
 10
78672.19076024664
 20
81461.778858637
 10
75331.51718931877
 20
78002.18349320712
 10
73385.4301336164
 20
77210.19537989498
 10
62651.14316782713
 20
78097.65430068312
 10
62426.979321255
 20
75695.02021079551
 10
37797.407763462514
 20
77651.85563555147
 10
39912.192483187755
 20
104424.03122120787
 10
64659.01897611027
 20
102492.71598821552
  0
LWPOLYLINE
  5
EC
330
17
100
AcDbEntity
  8
A-HIDDEN
100
AcDbPolyline
 90
9
 70
1
 10
80223.51953434455
 20
105133.19366710709
 10
82965.44572328734
 20
107346.9553467803
 10
86995.56681719798
 20
102513.46551350079
 10
84915.90110010239
 20
100689.46153731618
 10
86587.35870479919
 20
98699.40388094005
 10
81871.1238066497
 20
94694.80297879301
 10
74809.15794889632
 20
103207.68370296186
 10
78914.1727587258
 20
106588.01703136021
 10
80223.51953434455
 20
105133.19366710709
  0
LWPOLYLINE
  5
ED
330
17
100
AcDbEntity
  8
A-SITE
100
AcDbPolyline
 90
17
 70
1
 10
22765.152646063605
 20
105010.82319804246
 10
44688.261884999185
 20
105238.37824126784
 10
62052.33830793266
 20
104923.9740769731
 10
69669.88563772866
 20
105660.84087519225
 10
81709.78331502715
 20
108178.94808501916
 10
81352.27071869929
 20
110762.00533244264
 10
89925.10090234884
 20
114162.97323030749
 10
87795.5443599136
 20
100906.84299058176
 10
83224.90100621725
 20
80057.88092209233
 10
79969.92699817114
 20
47521.36076078829
 10
78636.43950061385
 20
45184.30896550038
 10
76678.16712812347
 20
43837.0267696925
 10
62759.776416550536
 20
43837.02676969251
 10
63716.89856350416
 20
65066.205208713895
 10
47378.80282295852
 20
65603.91105094014
 10
44318.10414860827
 20
72613.3420995225
 10
20074.899097651152
 20
73876.47663600178
  0
HATCH
  5
EE
330
17
100
AcDbEntity
  8
A-CUT-HATCH
 62
7
100
AcDbHatch
 10
0.0
 20
0.0
 30
0.0
210
0.0
220
0.0
230
1.0
  2
ANSI31
 70
0
 71
0
 91
5
 92
3
 72
0
 73
1
 93
30
 10
44318.10414860827
 20
72613.3420995225
 10
20224.783240574765
 20
73868.66727923564
 10
20224.34223957387
 20
73863.56356772708
 10
20074.899097651152
 20
73876.47663600178
 10
20082.703904266073
 20
74026.27344836341
 10
20087.819694160196
 20
74026.00690229892
 10
22765.152646063605
 20
105010.82319804246
 10
44688.261884999185
 20
105238.37824126784
 10
62052.33830793266
 20
104923.9740769731
 10
69669.88563772866
 20
105660.84087519225
 10
81709.78331502715
 20
108178.94808501916
 10
81740.49092469481
 20
108032.12491685932
 10
69700.59324739632
 20
105514.01770703238
 10
69672.59888541787
 20
105647.8679467864
 10
69671.1617417164
 20
105647.64882671376
 10
69684.32814635268
 20
105511.53778096897
 10
62066.78081655668
 20
104774.67098274981
 10
62053.54103904212
 20
104911.54053922457
 10
62052.112165224215
 20
104911.4845500589
 10
62049.622764956104
 20
104773.9986595663
 10
44687.682430685876
 20
105088.36414658537
 10
22902.87321551877
 20
104862.24461451595
 10
20237.70383708381
 20
74018.1975455328
 10
44325.90895522319
 20
72763.13891188413
 10
44318.10414860827
 20
72613.3420995225
 10
44455.57040128483
 20
72673.36733900613
 10
47478.37669801319
 20
65750.71517213242
 10
63721.83256756794
 20
65216.124038765025
 10
63716.89856350416
 20
65066.205208713895
 10
47378.80282295852
 20
65603.91105094014
 97
0
 92
3
 72
0
 73
1
 93
13
 10
63716.89856350416
 20
65066.205208713895
 10
63866.7463447545
 20
65059.4492887654
 10
63097.03244640038
 20
47987.02676969251
 10
63604.44055450648
 20
47987.02676969251
 10
63604.44055450648
 20
47837.02676969251
 10
63090.269663636296
 20
47837.02676969251
 10
63089.963086647665
 20
47830.22682506934
 10
63089.963086647665
 20
47830.22682506934
 10
62909.84962389301
 20
43835.270849744
 10
62760.00184264267
 20
43842.02676969251
 10
62940.1172902594
 20
47837.02676969249
 10
62940.1172902594
 20
47987.02676969251
 10
62946.88007302348
 20
47987.02676969251
 97
0
 92
3
 72
0
 73
1
 93
19
 10
81709.78331502715
 20
108178.94808501916
 10
81352.27071869929
 20
110762.00533244264
 10
89762.83639502629
 20
114098.60051225
 10
89776.99978399731
 20
114186.7652193589
 10
89925.10090234884
 20
114162.97323030749
 10
89980.41439761594
 20
114023.5443335847
 10
89897.41227056312
 20
113990.6161682631
 10
87795.5443599136
 20
100906.84299058176
 10
83224.90100621725
 20
80057.88092209233
 10
80361.86082814528
 20
51439.10724027727
 10
80212.60585016837
 20
51454.03880245656
 10
83075.64602824034
 20
80072.81248427162
 10
83212.70553731377
 20
80059.10096449699
 10
83212.92897562227
 20
80060.505507522
 10
83078.38059138655
 20
80090.00206836459
 10
87648.11585776655
 20
100934.82190204179
 10
89735.14776324056
 20
113926.24345020563
 10
81516.9912182431
 20
110665.97980442957
 10
81858.36690049931
 20
108199.51305835333
 97
0
 92
3
 72
0
 73
1
 93
12
 10
79850.75768401327
 20
47837.02676969251
 10
76614.44055450648
 20
47837.02676969251
 10
76614.44055450648
 20
47987.02676969251
 10
79865.76377866587
 20
47987.02676969251
 10
80112.06666482781
 20
50449.05528407874
 10
80261.32164280472
 20
50434.12372189945
 10
79969.92699817114
 20
47521.36076078829
 10
78636.43950061385
 20
45184.30896550038
 10
76682.2840188895
 20
43839.859171205724
 10
76597.26313692496
 20
43963.43687805437
 10
78523.15667009192
 20
45288.44258446569
 10
79823.84521554488
 20
47568.01138869489
 97
0
 92
3
 72
0
 73
1
 93
4
 10
71604.44055450648
 20
47987.02676969251
 10
71604.44055450648
 20
47837.02676969251
 10
64814.44055450648
 20
47837.02676969251
 10
64814.44055450648
 20
47987.02676969251
 97
0
 75
1
 76
1
 52
0.0
 41
157.48031496062993
 77
0
 78
1
 53
45.0
 43
0.0
 44
0.0
 45
-353.5533905984
 46
353.5533905984
 79
0
 98
0
  0
LWPOLYLINE
  5
EF
330
17
100
AcDbEntity
  8
A-FENCE
100
AcDbPolyline
 90
31
 70
1
 10
44318.10414860827
 20
72613.3420995225
 10
20224.783240574765
 20
73868.66727923564
 10
20224.34223957387
 20
73863.56356772708
 10
20074.899097651152
 20
73876.47663600178
 10
20082.703904266073
 20
74026.27344836341
 10
20087.819694160196
 20
74026.00690229892
 10
22765.152646063605
 20
105010.82319804246
 10
44688.261884999185
 20
105238.37824126784
 10
62052.33830793266
 20
104923.9740769731
 10
69669.88563772866
 20
105660.84087519225
 10
81709.78331502715
 20
108178.94808501916
 10
81740.49092469481
 20
108032.12491685932
 10
69700.59324739632
 20
105514.01770703238
 10
69672.59888541787
 20
105647.8679467864
 10
69671.1617417164
 20
105647.64882671376
 10
69684.32814635268
 20
105511.53778096897
 10
62066.78081655668
 20
104774.67098274981
 10
62053.54103904212
 20
104911.54053922457
 10
62052.112165224215
 20
104911.4845500589
 10
62049.622764956104
 20
104773.9986595663
 10
44687.682430685876
 20
105088.36414658537
 10
22902.87321551877
 20
104862.24461451595
 10
20237.70383708381
 20
74018.1975455328
 10
44325.90895522319
 20
72763.13891188413
 10
44318.10414860827
 20
72613.3420995225
 10
44455.57040128483
 20
72673.36733900613
 10
47478.37669801319
 20
65750.71517213242
 10
63721.83256756794
 20
65216.124038765025
 10
63716.89856350416
 20
65066.205208713895
 10
47378.80282295852
 20
65603.91105094014
 10
44318.10414860827
 20
72613.3420995225
  0
LWPOLYLINE
  5
F0
330
17
100
AcDbEntity
  8
A-FENCE
100
AcDbPolyline
 90
14
 70
1
 10
63716.89856350416
 20
65066.205208713895
 10
63866.7463447545
 20
65059.4492887654
 10
63097.03244640038
 20
47987.02676969251
 10
63604.44055450648
 20
47987.02676969251
 10
63604.44055450648
 20
47837.02676969251
 10
63090.269663636296
 20
47837.02676969251
 10
63089.963086647665
 20
47830.22682506934
 10
63089.963086647665
 20
47830.22682506934
 10
62909.84962389301
 20
43835.270849744
 10
62760.00184264267
 20
43842.02676969251
 10
62940.1172902594
 20
47837.02676969249
 10
62940.1172902594
 20
47987.02676969251
 10
62946.88007302348
 20
47987.02676969251
 10
63716.89856350416
 20
65066.205208713895
  0
LWPOLYLINE
  5
F1
330
17
100
AcDbEntity
  8
A-FENCE
100
AcDbPolyline
 90
20
 70
1
 10
81709.78331502715
 20
108178.94808501916
 10
81352.27071869929
 20
110762.00533244264
 10
89762.83639502629
 20
114098.60051225
 10
89776.99978399731
 20
114186.7652193589
 10
89925.10090234884
 20
114162.97323030749
 10
89980.41439761594
 20
114023.5443335847
 10
89897.41227056312
 20
113990.6161682631
 10
87795.5443599136
 20
100906.84299058176
 10
83224.90100621725
 20
80057.88092209233
 10
80361.86082814528
 20
51439.10724027727
 10
80212.60585016837
 20
51454.03880245656
 10
83075.64602824034
 20
80072.81248427162
 10
83212.70553731377
 20
80059.10096449699
 10
83212.92897562227
 20
80060.505507522
 10
83078.38059138655
 20
80090.00206836459
 10
87648.11585776655
 20
100934.82190204179
 10
89735.14776324056
 20
113926.24345020563
 10
81516.9912182431
 20
110665.97980442957
 10
81858.36690049931
 20
108199.51305835333
 10
81709.78331502715
 20
108178.94808501916
  0
LWPOLYLINE
  5
F2
330
17
100
AcDbEntity
  8
A-FENCE
100
AcDbPolyline
 90
13
 70
1
 10
79850.75768401327
 20
47837.02676969251
 10
76614.44055450648
 20
47837.02676969251
 10
76614.44055450648
 20
47987.02676969251
 10
79865.76377866587
 20
47987.02676969251
 10
80112.06666482781
 20
50449.05528407874
 10
80261.32164280472
 20
50434.12372189945
 10
79969.92699817114
 20
47521.36076078829
 10
78636.43950061385
 20
45184.30896550038
 10
76682.2840188895
 20
43839.859171205724
 10
76597.26313692496
 20
43963.43687805437
 10
78523.15667009192
 20
45288.44258446569
 10
79823.84521554488
 20
47568.01138869489
 10
79850.75768401327
 20
47837.02676969251
  0
LWPOLYLINE
  5
F3
330
17
100
AcDbEntity
  8
A-FENCE
100
AcDbPolyline
 90
5
 70
1
 10
71604.44055450648
 20
47987.02676969251
 10
71604.44055450648
 20
47837.02676969251
 10
64814.44055450648
 20
47837.02676969251
 10
64814.44055450648
 20
47987.02676969251
 10
71604.44055450648
 20
47987.02676969251
  0
LINE
  5
F4
330
17
100
AcDbEntity
  8
A-DOOR
370
35
100
AcDbLine
 10
71609.44055450648
 20
47837.02676969251
 30
0.0
 11
76609.44055450648
 21
47837.02676969251
 31
0.0
  0
LINE
  5
F5
330
17
100
AcDbEntity
  8
A-DOOR
370
35
100
AcDbLine
 10
63609.44055450648
 20
47837.02676969251
 30
0.0
 11
64809.44055450648
 21
47837.02676969251
 31
0.0
  0
LINE
  5
F6
330
17
100
AcDbEntity
  8
A-DOOR
370
35
100
AcDbLine
 10
80361.36310940598
 20
51434.13207434471
 30
0.0
 11
80261.81936154403
 21
50439.09888783201
 31
0.0
  0
LWPOLYLINE
  5
F7
330
17
100
AcDbEntity
  8
A-CUT
370
50
100
AcDbPolyline
 90
4
 70
1
 10
53964.44055450648
 20
75180.58423067283
 10
72704.44055450648
 20
75180.58423067283
 10
72704.44055450648
 20
93920.58423067283
 10
53964.44055450648
 20
93920.58423067283
  0
LWPOLYLINE
  5
F8
330
17
100
AcDbEntity
  8
A-PAVE
100
AcDbPolyline
 90
13
 70
1
 10
66559.44055450648
 20
66640.68140048132
 10
66559.44055450648
 20
70375.58423067283
 10
62559.44055450648
 20
70375.58423067283
 10
62559.44055450648
 20
72280.58423067283
 10
64059.44055450648
 20
72280.58423067283
 10
64059.44055450648
 20
71875.58423067283
 10
68059.44055450648
 20
71875.58423067283
 10
68059.44055450648
 20
66210.48706086434
 10
65550.52821065106
 20
62196.22731069566
 10
64958.789326122685
 20
48005.779074140744
 10
63460.09178289029
 20
48068.27446524426
 10
64068.3528983619
 20
62654.94115065001
 10
66559.44055450648
 20
66640.68140048132
  0
LWPOLYLINE
  5
F9
330
17
100
AcDbEntity
  8
A-HIDDEN
100
AcDbPolyline
 90
4
 70
1
 10
67209.44055450648
 20
56025.58423067284
 10
76009.44055450648
 20
56025.58423067284
 10
76009.44055450648
 20
62125.58423067284
 10
67209.44055450648
 20
62125.58423067284
  0
LWPOLYLINE
  5
FA
330
17
100
AcDbEntity
  8
A-HIDDEN
100
AcDbPolyline
 90
4
 70
1
 10
27209.440554506484
 20
86425.58423067283
 10
45209.44055450648
 20
86425.58423067283
 10
45209.44055450648
 20
96425.58423067283
 10
27209.440554506484
 20
96425.58423067283
  0
HATCH
  5
FB
330
17
100
AcDbEntity
  8
A-PAVE
 62
7
100
AcDbHatch
 10
0.0
 20
0.0
 30
0.0
210
0.0
220
0.0
230
1.0
  2
DOTS
 70
0
 71
0
 91
2
 92
3
 72
0
 73
1
 93
4
 10
52964.44055450648
 20
74180.58423067283
 10
52964.44055450648
 20
94920.58423067283
 10
73704.44055450648
 20
94920.58423067283
 10
73704.44055450648
 20
74180.58423067283
 97
0
 92
3
 72
0
 73
1
 93
4
 10
72704.44055450648
 20
93920.58423067283
 10
53964.44055450648
 20
93920.58423067283
 10
53964.44055450648
 20
75180.58423067283
 10
72704.44055450648
 20
75180.58423067283
 97
0
 75
1
 76
1
 52
0.0
 41
157.48031496062993
 77
0
 78
1
 53
0.0
 43
0.0
 44
0.0
 45
125.0
 46
250.0
 79
2
 49
0.0
 49
-250.0
 98
0
  0
CIRCLE
  5
FC
330
17
100
AcDbEntity
  8
A-FLOOD
370
35
100
AcDbCircle
 10
63322.76083489615
 20
49575.304727290444
 30
0.0
 40
450.0
  0
LINE
  5
FD
330
17
100
AcDbEntity
  8
A-FLOOD
100
AcDbLine
 10
62872.76083489615
 20
49575.304727290444
 30
0.0
 11
63772.76083489615
 21
49575.304727290444
 31
0.0
  0
CIRCLE
  5
FE
330
17
100
AcDbEntity
  8
A-FLOOD
370
35
100
AcDbCircle
 10
63572.74239931023
 20
55570.094900220014
 30
0.0
 40
450.0
  0
LINE
  5
FF
330
17
100
AcDbEntity
  8
A-FLOOD
100
AcDbLine
 10
63122.74239931023
 20
55570.094900220014
 30
0.0
 11
64022.74239931023
 21
55570.094900220014
 31
0.0
  0
CIRCLE
  5
100
330
17
100
AcDbEntity
  8
A-FLOOD
370
35
100
AcDbCircle
 10
63822.72396372432
 20
61564.885073149606
 30
0.0
 40
450.0
  0
LINE
  5
101
330
17
100
AcDbEntity
  8
A-FLOOD
100
AcDbLine
 10
63372.72396372432
 20
61564.885073149606
 30
0.0
 11
64272.72396372432
 21
61564.885073149606
 31
0.0
  0
CIRCLE
  5
102
330
17
100
AcDbEntity
  8
A-FLOOD
370
35
100
AcDbCircle
 10
66359.44055450648
 20
66807.53169658355
 30
0.0
 40
450.0
  0
LINE
  5
103
330
17
100
AcDbEntity
  8
A-FLOOD
100
AcDbLine
 10
65909.44055450648
 20
66807.53169658355
 30
0.0
 11
66809.44055450648
 21
66807.53169658355
 31
0.0
  0
CIRCLE
  5
104
330
17
100
AcDbEntity
  8
A-FLOOD
370
35
100
AcDbCircle
 10
65627.49308859577
 20
70175.58423067283
 30
0.0
 40
450.0
  0
LINE
  5
105
330
17
100
AcDbEntity
  8
A-FLOOD
100
AcDbLine
 10
65177.49308859577
 20
70175.58423067283
 30
0.0
 11
66077.49308859577
 21
70175.58423067283
 31
0.0
  0
CIRCLE
  5
106
330
17
100
AcDbEntity
  8
A-FLOOD
370
35
100
AcDbCircle
 10
62209.44055450648
 20
73730.58423067283
 30
0.0
 40
450.0
  0
LINE
  5
107
330
17
100
AcDbEntity
  8
A-FLOOD
100
AcDbLine
 10
61759.44055450648
 20
73730.58423067283
 30
0.0
 11
62659.44055450648
 21
73730.58423067283
 31
0.0
  0
CIRCLE
  5
108
330
17
100
AcDbEntity
  8
A-FLOOD
370
35
100
AcDbCircle
 10
64409.44055450648
 20
73730.58423067283
 30
0.0
 40
450.0
  0
LINE
  5
109
330
17
100
AcDbEntity
  8
A-FLOOD
100
AcDbLine
 10
63959.44055450648
 20
73730.58423067283
 30
0.0
 11
64859.44055450648
 21
73730.58423067283
 31
0.0
  0
CIRCLE
  5
10A
330
17
100
AcDbEntity
  8
A-FLOOD
370
35
100
AcDbCircle
 10
68809.44055450648
 20
59075.58423067284
 30
0.0
 40
450.0
  0
LINE
  5
10B
330
17
100
AcDbEntity
  8
A-FLOOD
100
AcDbLine
 10
68359.44055450648
 20
59075.58423067284
 30
0.0
 11
69259.44055450648
 21
59075.58423067284
 31
0.0
  0
CIRCLE
  5
10C
330
17
100
AcDbEntity
  8
A-FLOOD
370
35
100
AcDbCircle
 10
71609.44055450648
 20
59075.58423067284
 30
0.0
 40
450.0
  0
LINE
  5
10D
330
17
100
AcDbEntity
  8
A-FLOOD
100
AcDbLine
 10
71159.44055450648
 20
59075.58423067284
 30
0.0
 11
72059.44055450648
 21
59075.58423067284
 31
0.0
  0
CIRCLE
  5
10E
330
17
100
AcDbEntity
  8
A-FLOOD
370
35
100
AcDbCircle
 10
74409.44055450648
 20
59075.58423067284
 30
0.0
 40
450.0
  0
LINE
  5
10F
330
17
100
AcDbEntity
  8
A-FLOOD
100
AcDbLine
 10
73959.44055450648
 20
59075.58423067284
 30
0.0
 11
74859.44055450648
 21
59075.58423067284
 31
0.0
  0
CIRCLE
  5
110
330
17
100
AcDbEntity
  8
A-FLOOD
370
35
100
AcDbCircle
 10
74109.44055450648
 20
48437.02676969251
 30
0.0
 40
450.0
  0
LINE
  5
111
330
17
100
AcDbEntity
  8
A-FLOOD
100
AcDbLine
 10
73659.44055450648
 20
48437.02676969251
 30
0.0
 11
74559.44055450648
 21
48437.02676969251
 31
0.0
  0
CIRCLE
  5
112
330
17
100
AcDbEntity
  8
A-FLOOD
370
35
100
AcDbCircle
 10
64209.44055450648
 20
48437.02676969251
 30
0.0
 40
450.0
  0
LINE
  5
113
330
17
100
AcDbEntity
  8
A-FLOOD
100
AcDbLine
 10
63759.44055450648
 20
48437.02676969251
 30
0.0
 11
64659.44055450648
 21
48437.02676969251
 31
0.0
  0
TEXT
  5
114
330
17
100
AcDbEntity
  8
A-TEXT
100
AcDbText
 10
69709.44055450648
 20
66425.58423067283
 30
0.0
 40
800.0
  1
外構照明 12台（2200K・下向き・人感センサー）
  7
JP
 11
69709.44055450648
 21
66425.58423067283
 31
0.0
100
AcDbText
 73
2
  0
TEXT
  5
115
330
17
100
AcDbEntity
  8
A-TEXT
100
AcDbText
 10
44209.44055450648
 20
108425.58423067283
 30
0.0
 40
800.0
  1
北側（水路側）は照明なし
  7
JP
 72
1
 11
44209.44055450648
 21
108425.58423067283
 31
0.0
100
AcDbText
 73
2
  0
TEXT
  5
116
330
17
100
AcDbEntity
  8
A-TEXT
100
AcDbText
 10
63334.44055450648
 20
96420.58423067283
 30
0.0
 40
750.0
  1
建物まわり 防草砂利帯 幅1.0m
  7
JP
 72
1
 11
63334.44055450648
 21
96420.58423067283
 31
0.0
100
AcDbText
 73
2
  0
LWPOLYLINE
  5
117
330
17
100
AcDbEntity
  8
A-DRAIN
100
AcDbPolyline
 90
4
 70
1
 10
30709.440554506484
 20
97425.58423067283
 10
35709.44055450648
 20
97425.58423067283
 10
35709.44055450648
 20
102425.58423067283
 10
30709.440554506484
 20
102425.58423067283
  0
TEXT
  5
118
330
17
100
AcDbEntity
  8
A-TEXT
100
AcDbText
 10
33209.44055450648
 20
103925.58423067283
 30
0.0
 40
750.0
  1
貯留槽（密閉・防虫網）
  7
JP
 72
1
 11
33209.44055450648
 21
103925.58423067283
 31
0.0
100
AcDbText
 73
2
  0
CIRCLE
  5
119
330
17
100
AcDbEntity
  8
A-SYMB
100
AcDbCircle
 10
102500.0
 20
30000.0
 30
0.0
 40
3000.0
  0
LWPOLYLINE
  5
11A
330
17
100
AcDbEntity
  8
A-SYMB
100
AcDbPolyline
 90
4
 70
1
 10
101861.99520591009
 20
32931.37337825094
 10
101856.82219406612
 20
28017.87429511797
 10
102691.40143822697
 20
29120.58798652472
 10
103908.78355884177
 20
28464.47765098091
  0
HATCH
  5
11B
330
17
100
AcDbEntity
  8
A-SYMB
 62
7
100
AcDbHatch
 10
0.0
 20
0.0
 30
0.0
210
0.0
220
0.0
230
1.0
  2
SOLID
 70
1
 71
0
 91
1
 92
3
 72
0
 73
1
 93
3
 10
101861.99520591009
 20
32931.37337825094
 10
102691.40143822697
 20
29120.58798652472
 10
103908.78355884177
 20
28464.47765098091
 97
0
 75
0
 76
1
 98
0
  0
TEXT
  5
11C
330
17
100
AcDbEntity
  8
A-SYMB
100
AcDbText
 10
101628.06011474378
 20
34006.21028360961
 30
0.0
 40
1750.0
  1
N
 50
12.278765370963004
  7
JP
 72
1
 11
101628.06011474378
 21
34006.21028360961
 31
0.0
100
AcDbText
 73
2
  0
TEXT
  5
11D
330
17
100
AcDbEntity
  8
A-SYMB
100
AcDbText
 10
102500.0
 20
25750.0
 30
0.0
 40
800.0
  1
真北 12.3°西振れ（建物は南側道路に平行）
  7
JP
 72
1
 11
102500.0
 21
25750.0
 31
0.0
100
AcDbText
 73
3
  0
TEXT
  5
11E
330
17
100
AcDbEntity
  8
A-TEXT
100
AcDbText
 10
9000.0
 20
11000.0
 30
0.0
 40
2000.0
  1
外構照明・防虫計画図
  7
JP
 11
9000.0
 21
11000.0
 31
0.0
100
AcDbText
 73
1
  0
LINE
  5
11F
330
17
100
AcDbEntity
  8
A-SYMB
370
50
100
AcDbLine
 10
9000.0
 20
10400.0
 30
0.0
 11
38099.99999999999
 21
10400.0
 31
0.0
  0
TEXT
  5
120
330
17
100
AcDbEntity
  8
A-TEXT
100
AcDbText
 10
38599.99999999999
 20
11000.0
 30
0.0
 40
1400.0
  1
S=1:500
  7
JP
 11
38599.99999999999
 21
11000.0
 31
0.0
100
AcDbText
 73
1
  0
TEXT
  5
121
330
17
100
AcDbEntity
  8
A-TEXT
100
AcDbText
 10
111000.0
 20
135500.0
 30
0.0
 40
1400.0
  1
防虫の工夫
  7
JP
 11
111000.0
 21
135500.0
 31
0.0
100
AcDbText
  0
LWPOLYLINE
  5
122
330
17
100
AcDbEntity
  8
G-TABLE
370
35
100
AcDbPolyline
 90
2
 70
0
 10
111000.0
 20
134000.0
 10
203000.0
 20
134000.0
  0
TEXT
  5
123
330
17
100
AcDbEntity
  8
A-TEXT
100
AcDbText
 10
111500.0
 20
132500.0
 30
0.0
 40
900.0
  1
項目
  7
JP
 11
111500.0
 21
132500.0
 31
0.0
100
AcDbText
  0
TEXT
  5
124
330
17
100
AcDbEntity
  8
A-TEXT
100
AcDbText
 10
123500.0
 20
132500.0
 30
0.0
 40
900.0
  1
虫を寄せない・発生させない工夫
  7
JP
 11
123500.0
 21
132500.0
 31
0.0
100
AcDbText
  0
LWPOLYLINE
  5
125
330
17
100
AcDbEntity
  8
G-TABLE
370
35
100
AcDbPolyline
 90
2
 70
0
 10
111000.0
 20
131400.0
 10
203000.0
 20
131400.0
  0
TEXT
  5
126
330
17
100
AcDbEntity
  8
A-TEXT
100
AcDbText
 10
111500.0
 20
129900.0
 30
0.0
 40
900.0
  1
光の色
  7
JP
 11
111500.0
 21
129900.0
 31
0.0
100
AcDbText
  0
TEXT
  5
127
330
17
100
AcDbEntity
  8
A-TEXT
100
AcDbText
 10
123500.0
 20
129900.0
 30
0.0
 40
900.0
  1
外構照明は 2200K（アンバー寄り）の LED。虫が集まりやすい紫外線・青色光をほとんど含まない
  7
JP
 11
123500.0
 21
129900.0
 31
0.0
100
AcDbText
  0
LWPOLYLINE
  5
128
330
17
100
AcDbEntity
  8
G-TABLE
370
18
100
AcDbPolyline
 90
2
 70
0
 10
111000.0
 20
128800.00000000001
 10
203000.0
 20
128800.00000000001
  0
TEXT
  5
129
330
17
100
AcDbEntity
  8
A-TEXT
100
AcDbText
 10
111500.0
 20
127300.00000000001
 30
0.0
 40
900.0
  1
光の向き
  7
JP
 11
111500.0
 21
127300.00000000001
 31
0.0
100
AcDbText
  0
TEXT
  5
12A
330
17
100
AcDbEntity
  8
A-TEXT
100
AcDbText
 10
123500.0
 20
127300.00000000001
 30
0.0
 40
900.0
  1
上向きの光なし（全カットオフ）。H600 のボラードと足元灯で地面だけを照らす。玄関ドアの真上・窓際に光源を置かない
  7
JP
 11
123500.0
 21
127300.00000000001
 31
0.0
100
AcDbText
  0
LWPOLYLINE
  5
12B
330
17
100
AcDbEntity
  8
G-TABLE
370
18
100
AcDbPolyline
 90
2
 70
0
 10
111000.0
 20
126200.00000000001
 10
203000.0
 20
126200.00000000001
  0
TEXT
  5
12C
330
17
100
AcDbEntity
  8
A-TEXT
100
AcDbText
 10
111500.0
 20
124700.00000000001
 30
0.0
 40
900.0
  1
点灯時間
  7
JP
 11
111500.0
 21
124700.00000000001
 31
0.0
100
AcDbText
  0
TEXT
  5
12D
330
17
100
AcDbEntity
  8
A-TEXT
100
AcDbText
 10
123500.0
 20
124700.00000000001
 30
0.0
 40
900.0
  1
人感センサー＋タイマー。必要なときに必要な所だけ点ける。北側（水路側）には照明を設けない
  7
JP
 11
123500.0
 21
124700.00000000001
 31
0.0
100
AcDbText
  0
LWPOLYLINE
  5
12E
330
17
100
AcDbEntity
  8
G-TABLE
370
18
100
AcDbPolyline
 90
2
 70
0
 10
111000.0
 20
123600.00000000003
 10
203000.0
 20
123600.00000000003
  0
TEXT
  5
12F
330
17
100
AcDbEntity
  8
A-TEXT
100
AcDbText
 10
111500.0
 20
122100.00000000003
 30
0.0
 40
900.0
  1
室内の光漏れ
  7
JP
 11
111500.0
 21
122100.00000000003
 31
0.0
100
AcDbText
  0
TEXT
  5
130
330
17
100
AcDbEntity
  8
A-TEXT
100
AcDbText
 10
123500.0
 20
122100.00000000003
 30
0.0
 40
900.0
  1
日没後は外付けスクリーンを自動で下ろし（bot 制御）、室内の光を外に出さない
  7
JP
 11
123500.0
 21
122100.00000000003
 31
0.0
100
AcDbText
  0
LWPOLYLINE
  5
131
330
17
100
AcDbEntity
  8
G-TABLE
370
18
100
AcDbPolyline
 90
2
 70
0
 10
111000.0
 20
121000.00000000003
 10
203000.0
 20
121000.00000000003
  0
TEXT
  5
132
330
17
100
AcDbEntity
  8
A-TEXT
100
AcDbText
 10
111500.0
 20
119500.00000000003
 30
0.0
 40
900.0
  1
たまり水
  7
JP
 11
111500.0
 21
119500.00000000003
 31
0.0
100
AcDbText
  0
TEXT
  5
133
330
17
100
AcDbEntity
  8
A-TEXT
100
AcDbText
 10
123500.0
 20
119500.00000000003
 30
0.0
 40
900.0
  1
地下貯留槽は密閉・通気口と越流管に防虫網。樋・パーゴラの雨どいは勾配をとり水を溜めない。透水舗装で水たまりをつくらない
  7
JP
 11
123500.0
 21
119500.00000000003
 31
0.0
100
AcDbText
  0
LWPOLYLINE
  5
134
330
17
100
AcDbEntity
  8
G-TABLE
370
18
100
AcDbPolyline
 90
2
 70
0
 10
111000.0
 20
118400.00000000003
 10
203000.0
 20
118400.00000000003
  0
TEXT
  5
135
330
17
100
AcDbEntity
  8
A-TEXT
100
AcDbText
 10
111500.0
 20
116900.00000000003
 30
0.0
 40
900.0
  1
建物まわり
  7
JP
 11
111500.0
 21
116900.00000000003
 31
0.0
100
AcDbText
  0
TEXT
  5
136
330
17
100
AcDbEntity
  8
A-TEXT
100
AcDbText
 10
123500.0
 20
116900.00000000003
 30
0.0
 40
900.0
  1
外壁の足元に幅1.0m の防草砂利帯（草・落ち葉・湿気を建物に寄せない）
  7
JP
 11
123500.0
 21
116900.00000000003
 31
0.0
100
AcDbText
  0
LWPOLYLINE
  5
137
330
17
100
AcDbEntity
  8
G-TABLE
370
18
100
AcDbPolyline
 90
2
 70
0
 10
111000.0
 20
115800.00000000004
 10
203000.0
 20
115800.00000000004
  0
TEXT
  5
138
330
17
100
AcDbEntity
  8
A-TEXT
100
AcDbText
 10
111500.0
 20
114300.00000000004
 30
0.0
 40
900.0
  1
菜園・ごみ
  7
JP
 11
111500.0
 21
114300.00000000004
 31
0.0
100
AcDbText
  0
TEXT
  5
139
330
17
100
AcDbEntity
  8
A-TEXT
100
AcDbText
 10
123500.0
 20
114300.00000000004
 30
0.0
 40
900.0
  1
堆肥は密閉式コンポスト。生ごみは蓋付きの保管庫。作物には防虫ネット
  7
JP
 11
123500.0
 21
114300.00000000004
 31
0.0
100
AcDbText
  0
LWPOLYLINE
  5
13A
330
17
100
AcDbEntity
  8
G-TABLE
370
18
100
AcDbPolyline
 90
2
 70
0
 10
111000.0
 20
113200.00000000004
 10
203000.0
 20
113200.00000000004
  0
TEXT
  5
13B
330
17
100
AcDbEntity
  8
A-TEXT
100
AcDbText
 10
111500.0
 20
111700.00000000004
 30
0.0
 40
900.0
  1
換気・排水
  7
JP
 11
111500.0
 21
111700.00000000004
 31
0.0
100
AcDbText
  0
TEXT
  5
13C
330
17
100
AcDbEntity
  8
A-TEXT
100
AcDbText
 10
123500.0
 20
111700.00000000004
 30
0.0
 40
900.0
  1
給排気フードに防虫網（全熱交換のフィルターと併用）。排水はトラップで封水、床下ピットは密閉
  7
JP
 11
123500.0
 21
111700.00000000004
 31
0.0
100
AcDbText
  0
LWPOLYLINE
  5
13D
330
17
100
AcDbEntity
  8
G-TABLE
370
18
100
AcDbPolyline
 90
2
 70
0
 10
111000.0
 20
110600.00000000006
 10
203000.0
 20
110600.00000000006
  0
TEXT
  5
13E
330
17
100
AcDbEntity
  8
A-TEXT
100
AcDbText
 10
111500.0
 20
109100.00000000006
 30
0.0
 40
900.0
  1
開口部
  7
JP
 11
111500.0
 21
109100.00000000006
 31
0.0
100
AcDbText
  0
TEXT
  5
13F
330
17
100
AcDbEntity
  8
A-TEXT
100
AcDbText
 10
123500.0
 20
109100.00000000006
 30
0.0
 40
900.0
  1
窓は FIX（網戸不要）。玄関ドアは気密パッキン。玄関の明かりは庇下の低い足元灯
  7
JP
 11
123500.0
 21
109100.00000000006
 31
0.0
100
AcDbText
  0
LWPOLYLINE
  5
140
330
17
100
AcDbEntity
  8
G-TABLE
370
18
100
AcDbPolyline
 90
2
 70
0
 10
111000.0
 20
108000.00000000006
 10
203000.0
 20
108000.00000000006
  0
LWPOLYLINE
  5
141
330
17
100
AcDbEntity
  8
G-TABLE
100
AcDbPolyline
 90
2
 70
0
 10
111000.0
 20
134000.0
 10
111000.0
 20
108000.00000000006
  0
LWPOLYLINE
  5
142
330
17
100
AcDbEntity
  8
G-TABLE
100
AcDbPolyline
 90
2
 70
0
 10
123000.0
 20
134000.0
 10
123000.0
 20
108000.00000000006
  0
LWPOLYLINE
  5
143
330
17
100
AcDbEntity
  8
G-TABLE
100
AcDbPolyline
 90
2
 70
0
 10
203000.0
 20
134000.0
 10
203000.0
 20
108000.00000000006
  0
TEXT
  5
144
330
17
100
AcDbEntity
  8
A-TEXT
100
AcDbText
 10
111000.0
 20
105000.00000000006
 30
0.0
 40
1400.0
  1
外構照明の器具
  7
JP
 11
111000.0
 21
105000.00000000006
 31
0.0
100
AcDbText
  0
LWPOLYLINE
  5
145
330
17
100
AcDbEntity
  8
G-TABLE
370
35
100
AcDbPolyline
 90
2
 70
0
 10
111000.0
 20
103500.00000000006
 10
203000.0
 20
103500.00000000006
  0
TEXT
  5
146
330
17
100
AcDbEntity
  8
A-TEXT
100
AcDbText
 10
111500.0
 20
101950.00000000006
 30
0.0
 40
950.0
  1
器具
  7
JP
 11
111500.0
 21
101950.00000000006
 31
0.0
100
AcDbText
  0
TEXT
  5
147
330
17
100
AcDbEntity
  8
A-TEXT
100
AcDbText
 10
141500.0
 20
101950.00000000006
 30
0.0
 40
950.0
  1
台数
  7
JP
 11
141500.0
 21
101950.00000000006
 31
0.0
100
AcDbText
  0
TEXT
  5
148
330
17
100
AcDbEntity
  8
A-TEXT
100
AcDbText
 10
149500.0
 20
101950.00000000006
 30
0.0
 40
950.0
  1
仕様
  7
JP
 11
149500.0
 21
101950.00000000006
 31
0.0
100
AcDbText
  0
LWPOLYLINE
  5
149
330
17
100
AcDbEntity
  8
G-TABLE
370
35
100
AcDbPolyline
 90
2
 70
0
 10
111000.0
 20
101000.00000000006
 10
203000.0
 20
101000.00000000006
  0
TEXT
  5
14A
330
17
100
AcDbEntity
  8
A-TEXT
100
AcDbText
 10
111500.0
 20
99450.00000000006
 30
0.0
 40
950.0
  1
ボラード
  7
JP
 11
111500.0
 21
99450.00000000006
 31
0.0
100
AcDbText
  0
TEXT
  5
14B
330
17
100
AcDbEntity
  8
A-TEXT
100
AcDbText
 10
141500.0
 20
99450.00000000006
 30
0.0
 40
950.0
  1
5
  7
JP
 11
141500.0
 21
99450.00000000006
 31
0.0
100
AcDbText
  0
TEXT
  5
14C
330
17
100
AcDbEntity
  8
A-TEXT
100
AcDbText
 10
149500.0
 20
99450.00000000006
 30
0.0
 40
950.0
  1
2200K・全カットオフ・人感・H600
  7
JP
 11
149500.0
 21
99450.00000000006
 31
0.0
100
AcDbText
  0
LWPOLYLINE
  5
14D
330
17
100
AcDbEntity
  8
G-TABLE
370
18
100
AcDbPolyline
 90
2
 70
0
 10
111000.0
 20
98500.00000000006
 10
203000.0
 20
98500.00000000006
  0
TEXT
  5
14E
330
17
100
AcDbEntity
  8
A-TEXT
100
AcDbText
 10
111500.0
 20
96950.00000000006
 30
0.0
 40
950.0
  1
足元灯
  7
JP
 11
111500.0
 21
96950.00000000006
 31
0.0
100
AcDbText
  0
TEXT
  5
14F
330
17
100
AcDbEntity
  8
A-TEXT
100
AcDbText
 10
141500.0
 20
96950.00000000006
 30
0.0
 40
950.0
  1
2
  7
JP
 11
141500.0
 21
96950.00000000006
 31
0.0
100
AcDbText
  0
TEXT
  5
150
330
17
100
AcDbEntity
  8
A-TEXT
100
AcDbText
 10
149500.0
 20
96950.00000000006
 30
0.0
 40
950.0
  1
2200K・全カットオフ・人感
  7
JP
 11
149500.0
 21
96950.00000000006
 31
0.0
100
AcDbText
  0
LWPOLYLINE
  5
151
330
17
100
AcDbEntity
  8
G-TABLE
370
18
100
AcDbPolyline
 90
2
 70
0
 10
111000.0
 20
96000.00000000006
 10
203000.0
 20
96000.00000000006
  0
TEXT
  5
152
330
17
100
AcDbEntity
  8
A-TEXT
100
AcDbText
 10
111500.0
 20
94450.00000000006
 30
0.0
 40
950.0
  1
カーポート下 ダウンライト
  7
JP
 11
111500.0
 21
94450.00000000006
 31
0.0
100
AcDbText
  0
TEXT
  5
153
330
17
100
AcDbEntity
  8
A-TEXT
100
AcDbText
 10
141500.0
 20
94450.00000000006
 30
0.0
 40
950.0
  1
3
  7
JP
 11
141500.0
 21
94450.00000000006
 31
0.0
100
AcDbText
  0
TEXT
  5
154
330
17
100
AcDbEntity
  8
A-TEXT
100
AcDbText
 10
149500.0
 20
94450.00000000006
 30
0.0
 40
950.0
  1
2200K・全カットオフ・人感
  7
JP
 11
149500.0
 21
94450.00000000006
 31
0.0
100
AcDbText
  0
LWPOLYLINE
  5
155
330
17
100
AcDbEntity
  8
G-TABLE
370
18
100
AcDbPolyline
 90
2
 70
0
 10
111000.0
 20
93500.00000000006
 10
203000.0
 20
93500.00000000006
  0
TEXT
  5
156
330
17
100
AcDbEntity
  8
A-TEXT
100
AcDbText
 10
111500.0
 20
91950.00000000006
 30
0.0
 40
950.0
  1
門灯
  7
JP
 11
111500.0
 21
91950.00000000006
 31
0.0
100
AcDbText
  0
TEXT
  5
157
330
17
100
AcDbEntity
  8
A-TEXT
100
AcDbText
 10
141500.0
 20
91950.00000000006
 30
0.0
 40
950.0
  1
2
  7
JP
 11
141500.0
 21
91950.00000000006
 31
0.0
100
AcDbText
  0
TEXT
  5
158
330
17
100
AcDbEntity
  8
A-TEXT
100
AcDbText
 10
149500.0
 20
91950.00000000006
 30
0.0
 40
950.0
  1
2200K・全カットオフ・人感
  7
JP
 11
149500.0
 21
91950.00000000006
 31
0.0
100
AcDbText
  0
LWPOLYLINE
  5
159
330
17
100
AcDbEntity
  8
G-TABLE
370
18
100
AcDbPolyline
 90
2
 70
0
 10
111000.0
 20
91000.00000000006
 10
203000.0
 20
91000.00000000006
  0
LWPOLYLINE
  5
15A
330
17
100
AcDbEntity
  8
G-TABLE
100
AcDbPolyline
 90
2
 70
0
 10
111000.0
 20
103500.00000000006
 10
111000.0
 20
91000.00000000006
  0
LWPOLYLINE
  5
15B
330
17
100
AcDbEntity
  8
G-TABLE
100
AcDbPolyline
 90
2
 70
0
 10
141000.0
 20
103500.00000000006
 10
141000.0
 20
91000.00000000006
  0
LWPOLYLINE
  5
15C
330
17
100
AcDbEntity
  8
G-TABLE
100
AcDbPolyline
 90
2
 70
0
 10
149000.0
 20
103500.00000000006
 10
149000.0
 20
91000.00000000006
  0
LWPOLYLINE
  5
15D
330
17
100
AcDbEntity
  8
G-TABLE
100
AcDbPolyline
 90
2
 70
0
 10
203000.0
 20
103500.00000000006
 10
203000.0
 20
91000.00000000006
  0
ENDSEC
  0
SECTION
  2
OBJECTS
  0
DICTIONARY
  5
A
330
0
100
AcDbDictionary
281
1
  3
ACAD_COLOR
350
B
  3
ACAD_GROUP
350
C
  3
ACAD_LAYOUT
350
D
  3
ACAD_MATERIAL
350
E
  3
ACAD_MLEADERSTYLE
350
F
  3
ACAD_MLINESTYLE
350
10
  3
ACAD_PLOTSETTINGS
350
11
  3
ACAD_PLOTSTYLENAME
350
12
  3
ACAD_SCALELIST
350
14
  3
ACAD_TABLESTYLE
350
15
  3
ACAD_VISUALSTYLE
350
16
  3
EZDXF_META
350
2D
  0
DICTIONARY
  5
B
330
A
100
AcDbDictionary
281
1
  0
DICTIONARY
  5
C
330
A
100
AcDbDictionary
281
1
  0
DICTIONARY
  5
D
330
A
100
AcDbDictionary
281
1
  3
Model
350
1A
  3
Layout1
350
1E
  0
DICTIONARY
  5
E
330
A
100
AcDbDictionary
281
1
  3
ByBlock
350
1F
  3
ByLayer
350
20
  3
Global
350
21
  0
DICTIONARY
  5
F
330
A
100
AcDbDictionary
281
1
  3
Standard
350
2C
  0
DICTIONARY
  5
10
330
A
100
AcDbDictionary
281
1
  3
Standard
350
22
  0
DICTIONARY
  5
11
330
A
100
AcDbDictionary
281
1
  0
ACDBDICTIONARYWDFLT
  5
12
330
A
100
AcDbDictionary
281
1
  3
Normal
350
13
100
AcDbDictionaryWithDefault
340
13
  0
ACDBPLACEHOLDER
  5
13
330
12
  0
DICTIONARY
  5
14
330
A
100
AcDbDictionary
281
1
  0
DICTIONARY
  5
15
330
A
100
AcDbDictionary
281
1
  0
DICTIONARY
  5
16
330
A
100
AcDbDictionary
281
1
  3
2dWireframe
350
5A
  3
Basic
350
5B
  3
Brighten
350
5C
  3
ColorChange
350
5D
  3
Conceptual
350
5E
  3
Dim
350
5F
  3
EdgeColorOff
350
60
  3
Facepattern
350
61
  3
Flat
350
62
  3
FlatWithEdges
350
63
  3
Gouraud
350
64
  3
GouraudWithEdges
350
65
  3
Hidden
350
66
  3
JitterOff
350
67
  3
Linepattern
350
68
  3
Modeling
350
69
  3
OverhangOff
350
6A
  3
Realistic
350
6B
  3
Shaded
350
6C
  3
Shaded with edges
350
6D
  3
Shades of Gray
350
6E
  3
Sketchy
350
6F
  3
Thicken
350
70
  3
Wireframe
350
71
  3
X-Ray
350
72
  0
LAYOUT
  5
1A
330
D
100
AcDbPlotSettings
  1

  4
A3
  6

 40
7.5
 41
20.0
 42
7.5
 43
20.0
 44
420.0
 45
297.0
 46
0.0
 47
0.0
 48
0.0
 49
0.0
140
0.0
141
0.0
142
1.0
143
1.0
 70
1024
 72
1
 73
0
 74
5
  7

 75
16
 76
0
 77
2
 78
300
147
1.0
148
0.0
149
0.0
100
AcDbLayout
  1
Model
 70
1
 71
0
 10
0.0
 20
0.0
 11
420.0
 21
297.0
 12
0.0
 22
0.0
 32
0.0
 14
1e+20
 24
1e+20
 34
1e+20
 15
-1e+20
 25
-1e+20
 35
-1e+20
146
0.0
 13
0.0
 23
0.0
 33
0.0
 16
1.0
 26
0.0
 36
0.0
 17
0.0
 27
1.0
 37
0.0
 76
1
330
17
  0
LAYOUT
  5
1E
330
D
100
AcDbPlotSettings
  1

  4
A3
  6

 40
7.5
 41
20.0
 42
7.5
 43
20.0
 44
420.0
 45
297.0
 46
0.0
 47
0.0
 48
0.0
 49
0.0
140
0.0
141
0.0
142
1.0
143
1.0
 70
0
 72
1
 73
0
 74
5
  7

 75
16
 76
0
 77
2
 78
300
147
1.0
148
0.0
149
0.0
100
AcDbLayout
  1
Layout1
 70
1
 71
1
 10
0.0
 20
0.0
 11
420.0
 21
297.0
 12
0.0
 22
0.0
 32
0.0
 14
1e+20
 24
1e+20
 34
1e+20
 15
-1e+20
 25
-1e+20
 35
-1e+20
146
0.0
 13
0.0
 23
0.0
 33
0.0
 16
1.0
 26
0.0
 36
0.0
 17
0.0
 27
1.0
 37
0.0
 76
1
330
1B
  0
MATERIAL
  5
1F
102
{ACAD_REACTORS
330
E
102
}
330
E
100
AcDbMaterial
  1
ByBlock
  2

 70
0
 40
1.0
 71
1
 41
1.0
 91
-1023410177
 42
1.0
 72
1
  3

 73
1
 74
1
 75
1
 44
0.5
 73
0
 45
1.0
 46
1.0
 77
1
  4

 78
1
 79
1
170
1
 48
1.0
171
1
  6

172
1
173
1
174
1
140
1.0
141
1.0
175
1
  7

176
1
177
1
178
1
143
1.0
179
1
  8

270
1
271
1
272
1
145
1.0
146
1.0
273
1
  9

274
1
275
1
276
1
 42
1.0
 72
1
  3

 73
1
 74
1
 75
1
 94
63
  0
MATERIAL
  5
20
102
{ACAD_REACTORS
330
E
102
}
330
E
100
AcDbMaterial
  1
ByLayer
  2

 70
0
 40
1.0
 71
1
 41
1.0
 91
-1023410177
 42
1.0
 72
1
  3

 73
1
 74
1
 75
1
 44
0.5
 73
0
 45
1.0
 46
1.0
 77
1
  4

 78
1
 79
1
170
1
 48
1.0
171
1
  6

172
1
173
1
174
1
140
1.0
141
1.0
175
1
  7

176
1
177
1
178
1
143
1.0
179
1
  8

270
1
271
1
272
1
145
1.0
146
1.0
273
1
  9

274
1
275
1
276
1
 42
1.0
 72
1
  3

 73
1
 74
1
 75
1
 94
63
  0
MATERIAL
  5
21
102
{ACAD_REACTORS
330
E
102
}
330
E
100
AcDbMaterial
  1
Global
  2

 70
0
 40
1.0
 71
1
 41
1.0
 91
-1023410177
 42
1.0
 72
1
  3

 73
1
 74
1
 75
1
 44
0.5
 73
0
 45
1.0
 46
1.0
 77
1
  4

 78
1
 79
1
170
1
 48
1.0
171
1
  6

172
1
173
1
174
1
140
1.0
141
1.0
175
1
  7

176
1
177
1
178
1
143
1.0
179
1
  8

270
1
271
1
272
1
145
1.0
146
1.0
273
1
  9

274
1
275
1
276
1
 42
1.0
 72
1
  3

 73
1
 74
1
 75
1
 94
63
  0
MLINESTYLE
  5
22
102
{ACAD_REACTORS
330
10
102
}
330
10
100
AcDbMlineStyle
  2
Standard
 70
0
  3

 62
256
 51
90.0
 52
90.0
 71
2
 49
0.5
 62
256
  6
BYLAYER
 49
-0.5
 62
256
  6
BYLAYER
  0
MLEADERSTYLE
  5
2C
102
{ACAD_REACTORS
330
F
102
}
330
F
100
AcDbMLeaderStyle
179
2
170
2
171
1
172
0
 90
2
 40
0.0
 41
0.0
173
1
 91
-1056964608
 92
-2
290
1
 42
2.0
291
1
 43
8.0
  3
Standard
 44
4.0
300

342
29
174
1
175
1
176
0
178
1
 93
-1056964608
 45
4.0
292
0
297
0
 46
4.0
 94
-1056964608
 47
1.0
 49
1.0
140
1.0
294
1
141
0.0
177
0
142
1.0
295
0
296
0
143
3.75
271
0
272
9
273
9
  0
DICTIONARY
  5
2D
330
A
100
AcDbDictionary
280
1
281
1
  3
CREATED_BY_EZDXF
350
2E
  3
WRITTEN_BY_EZDXF
350
160
  0
DICTIONARYVAR
  5
2E
330
2D
100
DictionaryVariables
280
0
  1
1.4.4 @ 2026-10-04T15:51:28.478388+00:00
  0
VISUALSTYLE
  5
5A
102
{ACAD_REACTORS
330
16
102
}
330
16
100
AcDbVisualStyle
  2
2dWireframe
 70
4
177
3
291
0
 70
58
 90
2
176
1
 90
2
176
1
 90
0
176
1
 90
0
176
1
 40
0.6
176
1
 40
30.0
176
1
 62
7
420
16777215
176
1
 90
1
176
1
 90
4
176
1
 62
7
176
1
 62
257
176
1
 90
1
176
1
 90
1
176
1
 40
1.0
176
1
 90
8
176
1
 62
7
176
1
 40
1.0
176
1
 90
1
176
1
 90
6
176
1
 90
2
176
1
 62
7
176
1
 90
5
176
1
 90
0
176
1
 90
0
176
1
290
0
176
1
 90
1
176
1
 40
0.0
176
1
 90
0
176
1
290
1
176
1
290
1
176
1
290
0
176
1
290
0
176
1
290
0
176
1
290
0
176
1
290
0
176
1
290
0
176
1
290
0
176
1
 90
50
176
1
 40
0.0
176
1
 40
1.0
176
1
 90
0
176
1
 62
18
420
0
176
1
 90
50
176
1
 90
3
176
1
 62
5
420
255
176
1
290
0
176
1
 90
50
176
1
 90
50
176
1
 90
50
176
1
290
0
176
1
 90
50
176
1
 62
256
176
0
 40
1.0
176
0
 90
2
176
1
  1
strokes_ogs.tif
176
1
290
0
176
1
 40
1.0
176
1
 40
1.0
176
1
  0
VISUALSTYLE
  5
5B
102
{ACAD_REACTORS
330
16
102
}
330
16
100
AcDbVisualStyle
  2
Basic
 70
7
177
3
291
1
 70
58
 90
2
176
1
 90
2
176
1
 90
0
176
1
 90
1
176
1
 40
0.6
176
1
 40
30.0
176
1
 62
7
420
16777215
176
1
 90
1
176
1
 90
4
176
1
 62
7
176
1
 62
257
176
1
 90
1
176
1
 90
1
176
1
 40
1.0
176
1
 90
8
176
1
 62
7
176
1
 40
1.0
176
1
 90
1
176
1
 90
6
176
1
 90
2
176
1
 62
7
176
1
 90
5
176
1
 90
0
176
1
 90
0
176
1
290
0
176
1
 90
1
176
1
 40
0.0
176
1
 90
0
176
1
290
0
176
1
290
1
176
1
290
1
176
1
290
0
176
1
290
0
176
1
290
0
176
1
290
0
176
1
290
0
176
1
290
0
176
1
 90
50
176
1
 40
0.0
176
1
 40
1.0
176
1
 90
0
176
1
 62
18
420
0
176
1
 90
50
176
1
 90
3
176
1
 62
5
420
255
176
1
290
0
176
1
 90
50
176
1
 90
50
176
1
 90
50
176
1
290
0
176
1
 90
50
176
1
 62
256
176
0
 40
1.0
176
0
 90
2
176
1
  1
strokes_ogs.tif
176
1
290
0
176
1
 40
1.0
176
1
 40
1.0
176
1
  0
VISUALSTYLE
  5
5C
102
{ACAD_REACTORS
330
16
102
}
330
16
100
AcDbVisualStyle
  2
Brighten
 70
12
177
3
291
1
 70
58
 90
2
176
1
 90
2
176
1
 90
0
176
1
 90
2
176
1
 40
0.6
176
1
 40
30.0
176
1
 62
7
420
16777215
176
1
 90
1
176
1
 90
4
176
1
 62
7
176
1
 62
257
176
1
 90
1
176
1
 90
1
176
1
 40
1.0
176
1
 90
8
176
1
 62
7
176
1
 40
1.0
176
1
 90
1
176
1
 90
6
176
1
 90
2
176
1
 62
7
176
1
 90
5
176
1
 90
0
176
1
 90
0
176
1
290
0
176
1
 90
1
176
1
 40
0.0
176
1
 90
0
176
1
290
0
176
1
290
1
176
1
290
1
176
1
290
0
176
1
290
0
176
1
290
0
176
1
290
0
176
1
290
0
176
1
290
0
176
1
 90
50
176
1
 40
0.0
176
1
 40
1.0
176
1
 90
0
176
1
 62
18
420
0
176
1
 90
50
176
1
 90
3
176
1
 62
5
420
255
176
1
290
0
176
1
 90
50
176
1
 90
50
176
1
 90
50
176
1
290
0
176
1
 90
50
176
1
 62
256
176
0
 40
1.0
176
0
 90
2
176
1
  1
strokes_ogs.tif
176
1
290
0
176
1
 40
1.0
176
1
 40
1.0
176
1
  0
VISUALSTYLE
  5
5D
102
{ACAD_REACTORS
330
16
102
}
330
16
100
AcDbVisualStyle
  2
ColorChange
 70
16
177
3
291
1
 70
58
 90
2
176
1
 90
2
176
1
 90
0
176
1
 90
2
176
1
 40
0.6
176
1
 40
30.0
176
1
 62
7
420
16777215
176
1
 90
1
176
1
 90
4
176
1
 62
7
176
1
 62
257
176
1
 90
1
176
1
 90
1
176
1
 40
1.0
176
1
 90
8
176
1
 62
7
176
1
 40
1.0
176
1
 90
1
176
1
 90
6
176
1
 90
2
176
1
 62
7
176
1
 90
5
176
1
 90
0
176
1
 90
0
176
1
290
0
176
1
 90
1
176
1
 40
0.0
176
1
 90
0
176
1
290
0
176
1
290
1
176
1
290
1
176
1
290
0
176
1
290
0
176
1
290
0
176
1
290
0
176
1
290
0
176
1
290
0
176
1
 90
50
176
1
 40
0.0
176
1
 40
1.0
176
1
 90
0
176
1
 62
18
420
0
176
1
 90
50
176
1
 90
3
176
1
 62
5
420
255
176
1
290
0
176
1
 90
50
176
1
 90
50
176
1
 90
50
176
1
290
0
176
1
 90
50
176
1
 62
256
176
0
 40
1.0
176
0
 90
2
176
1
  1
strokes_ogs.tif
176
1
290
0
176
1
 40
1.0
176
1
 40
1.0
176
1
  0
VISUALSTYLE
  5
5E
102
{ACAD_REACTORS
330
16
102
}
330
16
100
AcDbVisualStyle
  2
Conceptual
 70
9
177
3
291
0
 70
58
 90
2
176
1
 90
2
176
1
 90
0
176
1
 90
3
176
1
 40
0.6
176
1
 40
30.0
176
1
 62
7
420
16777215
176
1
 90
1
176
1
 90
4
176
1
 62
7
176
1
 62
257
176
1
 90
1
176
1
 90
1
176
1
 40
1.0
176
1
 90
8
176
1
 62
7
176
1
 40
1.0
176
1
 90
1
176
1
 90
6
176
1
 90
2
176
1
 62
7
176
1
 90
5
176
1
 90
0
176
1
 90
0
176
1
290
0
176
1
 90
1
176
1
 40
0.0
176
1
 90
0
176
1
290
0
176
1
290
1
176
1
290
1
176
1
290
0
176
1
290
0
176
1
290
0
176
1
290
0
176
1
290
0
176
1
290
0
176
1
 90
50
176
1
 40
0.0
176
1
 40
1.0
176
1
 90
0
176
1
 62
18
420
0
176
1
 90
50
176
1
 90
3
176
1
 62
5
420
255
176
1
290
0
176
1
 90
50
176
1
 90
50
176
1
 90
50
176
1
290
0
176
1
 90
50
176
1
 62
256
176
0
 40
1.0
176
0
 90
2
176
1
  1
strokes_ogs.tif
176
1
290
0
176
1
 40
1.0
176
1
 40
1.0
176
1
  0
VISUALSTYLE
  5
5F
102
{ACAD_REACTORS
330
16
102
}
330
16
100
AcDbVisualStyle
  2
Dim
 70
11
177
3
291
1
 70
58
 90
2
176
1
 90
2
176
1
 90
0
176
1
 90
2
176
1
 40
0.6
176
1
 40
30.0
176
1
 62
7
420
16777215
176
1
 90
1
176
1
 90
4
176
1
 62
7
176
1
 62
257
176
1
 90
1
176
1
 90
1
176
1
 40
1.0
176
1
 90
8
176
1
 62
7
176
1
 40
1.0
176
1
 90
1
176
1
 90
6
176
1
 90
2
176
1
 62
7
176
1
 90
5
176
1
 90
0
176
1
 90
0
176
1
290
0
176
1
 90
1
176
1
 40
0.0
176
1
 90
0
176
1
290
0
176
1
290
1
176
1
290
1
176
1
290
0
176
1
290
0
176
1
290
0
176
1
290
0
176
1
290
0
176
1
290
0
176
1
 90
50
176
1
 40
0.0
176
1
 40
1.0
176
1
 90
0
176
1
 62
18
420
0
176
1
 90
50
176
1
 90
3
176
1
 62
5
420
255
176
1
290
0
176
1
 90
50
176
1
 90
50
176
1
 90
50
176
1
290
0
176
1
 90
50
176
1
 62
256
176
0
 40
1.0
176
0
 90
2
176
1
  1
strokes_ogs.tif
176
1
290
0
176
1
 40
1.0
176
1
 40
1.0
176
1
  0
VISUALSTYLE
  5
60
102
{ACAD_REACTORS
330
16
102
}
330
16
100
AcDbVisualStyle
  2
EdgeColorOff
 70
22
177
3
291
1
 70
58
 90
2
176
1
 90
2
176
1
 90
0
176
1
 90
2
176
1
 40
0.6
176
1
 40
30.0
176
1
 62
7
420
16777215
176
1
 90
1
176
1
 90
4
176
1
 62
7
176
1
 62
257
176
1
 90
1
176
1
 90
1
176
1
 40
1.0
176
1
 90
8
176
1
 62
7
176
1
 40
1.0
176
1
 90
1
176
1
 90
6
176
1
 90
2
176
1
 62
7
176
1
 90
5
176
1
 90
0
176
1
 90
0
176
1
290
0
176
1
 90
1
176
1
 40
0.0
176
1
 90
0
176
1
290
0
176
1
290
1
176
1
290
1
176
1
290
0
176
1
290
0
176
1
290
0
176
1
290
0
176
1
290
0
176
1
290
0
176
1
 90
50
176
1
 40
0.0
176
1
 40
1.0
176
1
 90
0
176
1
 62
18
420
0
176
1
 90
50
176
1
 90
3
176
1
 62
5
420
255
176
1
290
0
176
1
 90
50
176
1
 90
50
176
1
 90
50
176
1
290
0
176
1
 90
50
176
1
 62
256
176
0
 40
1.0
176
0
 90
2
176
1
  1
strokes_ogs.tif
176
1
290
0
176
1
 40
1.0
176
1
 40
1.0
176
1
  0
VISUALSTYLE
  5
61
102
{ACAD_REACTORS
330
16
102
}
330
16
100
AcDbVisualStyle
  2
Facepattern
 70
15
177
3
291
1
 70
58
 90
2
176
1
 90
2
176
1
 90
0
176
1
 90
2
176
1
 40
0.6
176
1
 40
30.0
176
1
 62
7
420
16777215
176
1
 90
1
176
1
 90
4
176
1
 62
7
176
1
 62
257
176
1
 90
1
176
1
 90
1
176
1
 40
1.0
176
1
 90
8
176
1
 62
7
176
1
 40
1.0
176
1
 90
1
176
1
 90
6
176
1
 90
2
176
1
 62
7
176
1
 90
5
176
1
 90
0
176
1
 90
0
176
1
290
0
176
1
 90
1
176
1
 40
0.0
176
1
 90
0
176
1
290
0
176
1
290
1
176
1
290
1
176
1
290
0
176
1
290
0
176
1
290
0
176
1
290
0
176
1
290
0
176
1
290
0
176
1
 90
50
176
1
 40
0.0
176
1
 40
1.0
176
1
 90
0
176
1
 62
18
420
0
176
1
 90
50
176
1
 90
3
176
1
 62
5
420
255
176
1
290
0
176
1
 90
50
176
1
 90
50
176
1
 90
50
176
1
290
0
176
1
 90
50
176
1
 62
256
176
0
 40
1.0
176
0
 90
2
176
1
  1
strokes_ogs.tif
176
1
290
0
176
1
 40
1.0
176
1
 40
1.0
176
1
  0
VISUALSTYLE
  5
62
102
{ACAD_REACTORS
330
16
102
}
330
16
100
AcDbVisualStyle
  2
Flat
 70
0
177
3
291
1
 70
58
 90
2
176
1
 90
2
176
1
 90
0
176
1
 90
2
176
1
 40
0.6
176
1
 40
30.0
176
1
 62
7
420
16777215
176
1
 90
1
176
1
 90
4
176
1
 62
7
176
1
 62
257
176
1
 90
1
176
1
 90
1
176
1
 40
1.0
176
1
 90
8
176
1
 62
7
176
1
 40
1.0
176
1
 90
1
176
1
 90
6
176
1
 90
2
176
1
 62
7
176
1
 90
5
176
1
 90
0
176
1
 90
0
176
1
290
0
176
1
 90
1
176
1
 40
0.0
176
1
 90
0
176
1
290
0
176
1
290
1
176
1
290
1
176
1
290
0
176
1
290
0
176
1
290
0
176
1
290
0
176
1
290
0
176
1
290
0
176
1
 90
50
176
1
 40
0.0
176
1
 40
1.0
176
1
 90
0
176
1
 62
18
420
0
176
1
 90
50
176
1
 90
3
176
1
 62
5
420
255
176
1
290
0
176
1
 90
50
176
1
 90
50
176
1
 90
50
176
1
290
0
176
1
 90
50
176
1
 62
256
176
0
 40
1.0
176
0
 90
2
176
1
  1
strokes_ogs.tif
176
1
290
0
176
1
 40
1.0
176
1
 40
1.0
176
1
  0
VISUALSTYLE
  5
63
102
{ACAD_REACTORS
330
16
102
}
330
16
100
AcDbVisualStyle
  2
FlatWithEdges
 70
1
177
3
291
1
 70
58
 90
2
176
1
 90
2
176
1
 90
0
176
1
 90
2
176
1
 40
0.6
176
1
 40
30.0
176
1
 62
7
420
16777215
176
1
 90
1
176
1
 90
4
176
1
 62
7
176
1
 62
257
176
1
 90
1
176
1
 90
1
176
1
 40
1.0
176
1
 90
8
176
1
 62
7
176
1
 40
1.0
176
1
 90
1
176
1
 90
6
176
1
 90
2
176
1
 62
7
176
1
 90
5
176
1
 90
0
176
1
 90
0
176
1
290
0
176
1
 90
1
176
1
 40
0.0
176
1
 90
0
176
1
290
0
176
1
290
1
176
1
290
1
176
1
290
0
176
1
290
0
176
1
290
0
176
1
290
0
176
1
290
0
176
1
290
0
176
1
 90
50
176
1
 40
0.0
176
1
 40
1.0
176
1
 90
0
176
1
 62
18
420
0
176
1
 90
50
176
1
 90
3
176
1
 62
5
420
255
176
1
290
0
176
1
 90
50
176
1
 90
50
176
1
 90
50
176
1
290
0
176
1
 90
50
176
1
 62
256
176
0
 40
1.0
176
0
 90
2
176
1
  1
strokes_ogs.tif
176
1
290
0
176
1
 40
1.0
176
1
 40
1.0
176
1
  0
VISUALSTYLE
  5
64
102
{ACAD_REACTORS
330
16
102
}
330
16
100
AcDbVisualStyle
  2
Gouraud
 70
2
177
3
291
1
 70
58
 90
2
176
1
 90
2
176
1
 90
0
176
1
 90
2
176
1
 40
0.6
176
1
 40
30.0
176
1
 62
7
420
16777215
176
1
 90
1
176
1
 90
4
176
1
 62
7
176
1
 62
257
176
1
 90
1
176
1
 90
1
176
1
 40
1.0
176
1
 90
8
176
1
 62
7
176
1
 40
1.0
176
1
 90
1
176
1
 90
6
176
1
 90
2
176
1
 62
7
176
1
 90
5
176
1
 90
0
176
1
 90
0
176
1
290
0
176
1
 90
1
176
1
 40
0.0
176
1
 90
0
176
1
290
0
176
1
290
1
176
1
290
1
176
1
290
0
176
1
290
0
176
1
290
0
176
1
290
0
176
1
290
0
176
1
290
0
176
1
 90
50
176
1
 40
0.0
176
1
 40
1.0
176
1
 90
0
176
1
 62
18
420
0
176
1
 90
50
176
1
 90
3
176
1
 62
5
420
255
176
1
290
0
176
1
 90
50
176
1
 90
50
176
1
 90
50
176
1
290
0
176
1
 90
50
176
1
 62
256
176
0
 40
1.0
176
0
 90
2
176
1
  1
strokes_ogs.tif
176
1
290
0
176
1
 40
1.0
176
1
 40
1.0
176
1
  0
VISUALSTYLE
  5
65
102
{ACAD_REACTORS
330
16
102
}
330
16
100
AcDbVisualStyle
  2
GouraudWithEdges
 70
3
177
3
291
1
 70
58
 90
2
176
1
 90
2
176
1
 90
0
176
1
 90
2
176
1
 40
0.6
176
1
 40
30.0
176
1
 62
7
420
16777215
176
1
 90
1
176
1
 90
4
176
1
 62
7
176
1
 62
257
176
1
 90
1
176
1
 90
1
176
1
 40
1.0
176
1
 90
8
176
1
 62
7
176
1
 40
1.0
176
1
 90
1
176
1
 90
6
176
1
 90
2
176
1
 62
7
176
1
 90
5
176
1
 90
0
176
1
 90
0
176
1
290
0
176
1
 90
1
176
1
 40
0.0
176
1
 90
0
176
1
290
0
176
1
290
1
176
1
290
1
176
1
290
0
176
1
290
0
176
1
290
0
176
1
290
0
176
1
290
0
176
1
290
0
176
1
 90
50
176
1
 40
0.0
176
1
 40
1.0
176
1
 90
0
176
1
 62
18
420
0
176
1
 90
50
176
1
 90
3
176
1
 62
5
420
255
176
1
290
0
176
1
 90
50
176
1
 90
50
176
1
 90
50
176
1
290
0
176
1
 90
50
176
1
 62
256
176
0
 40
1.0
176
0
 90
2
176
1
  1
strokes_ogs.tif
176
1
290
0
176
1
 40
1.0
176
1
 40
1.0
176
1
  0
VISUALSTYLE
  5
66
102
{ACAD_REACTORS
330
16
102
}
330
16
100
AcDbVisualStyle
  2
Hidden
 70
6
177
3
291
0
 70
58
 90
2
176
1
 90
2
176
1
 90
0
176
1
 90
1
176
1
 40
0.6
176
1
 40
30.0
176
1
 62
7
420
16777215
176
1
 90
1
176
1
 90
4
176
1
 62
7
176
1
 62
257
176
1
 90
1
176
1
 90
1
176
1
 40
1.0
176
1
 90
8
176
1
 62
7
176
1
 40
1.0
176
1
 90
1
176
1
 90
6
176
1
 90
2
176
1
 62
7
176
1
 90
5
176
1
 90
0
176
1
 90
0
176
1
290
0
176
1
 90
1
176
1
 40
0.0
176
1
 90
0
176
1
290
0
176
1
290
1
176
1
290
1
176
1
290
0
176
1
290
0
176
1
290
0
176
1
290
0
176
1
290
0
176
1
290
0
176
1
 90
50
176
1
 40
0.0
176
1
 40
1.0
176
1
 90
0
176
1
 62
18
420
0
176
1
 90
50
176
1
 90
3
176
1
 62
5
420
255
176
1
290
0
176
1
 90
50
176
1
 90
50
176
1
 90
50
176
1
290
0
176
1
 90
50
176
1
 62
256
176
0
 40
1.0
176
0
 90
2
176
1
  1
strokes_ogs.tif
176
1
290
0
176
1
 40
1.0
176
1
 40
1.0
176
1
  0
VISUALSTYLE
  5
67
102
{ACAD_REACTORS
330
16
102
}
330
16
100
AcDbVisualStyle
  2
JitterOff
 70
20
177
3
291
1
 70
58
 90
2
176
1
 90
2
176
1
 90
0
176
1
 90
2
176
1
 40
0.6
176
1
 40
30.0
176
1
 62
7
420
16777215
176
1
 90
1
176
1
 90
4
176
1
 62
7
176
1
 62
257
176
1
 90
1
176
1
 90
1
176
1
 40
1.0
176
1
 90
8
176
1
 62
7
176
1
 40
1.0
176
1
 90
1
176
1
 90
6
176
1
 90
2
176
1
 62
7
176
1
 90
5
176
1
 90
0
176
1
 90
0
176
1
290
0
176
1
 90
1
176
1
 40
0.0
176
1
 90
0
176
1
290
0
176
1
290
1
176
1
290
1
176
1
290
0
176
1
290
0
176
1
290
0
176
1
290
0
176
1
290
0
176
1
290
0
176
1
 90
50
176
1
 40
0.0
176
1
 40
1.0
176
1
 90
0
176
1
 62
18
420
0
176
1
 90
50
176
1
 90
3
176
1
 62
5
420
255
176
1
290
0
176
1
 90
50
176
1
 90
50
176
1
 90
50
176
1
290
0
176
1
 90
50
176
1
 62
256
176
0
 40
1.0
176
0
 90
2
176
1
  1
strokes_ogs.tif
176
1
290
0
176
1
 40
1.0
176
1
 40
1.0
176
1
  0
VISUALSTYLE
  5
68
102
{ACAD_REACTORS
330
16
102
}
330
16
100
AcDbVisualStyle
  2
Linepattern
 70
14
177
3
291
1
 70
58
 90
2
176
1
 90
2
176
1
 90
0
176
1
 90
2
176
1
 40
0.6
176
1
 40
30.0
176
1
 62
7
420
16777215
176
1
 90
1
176
1
 90
4
176
1
 62
7
176
1
 62
257
176
1
 90
1
176
1
 90
1
176
1
 40
1.0
176
1
 90
8
176
1
 62
7
176
1
 40
1.0
176
1
 90
1
176
1
 90
6
176
1
 90
2
176
1
 62
7
176
1
 90
5
176
1
 90
0
176
1
 90
0
176
1
290
0
176
1
 90
1
176
1
 40
0.0
176
1
 90
0
176
1
290
0
176
1
290
1
176
1
290
1
176
1
290
0
176
1
290
0
176
1
290
0
176
1
290
0
176
1
290
0
176
1
290
0
176
1
 90
50
176
1
 40
0.0
176
1
 40
1.0
176
1
 90
0
176
1
 62
18
420
0
176
1
 90
50
176
1
 90
3
176
1
 62
5
420
255
176
1
290
0
176
1
 90
50
176
1
 90
50
176
1
 90
50
176
1
290
0
176
1
 90
50
176
1
 62
256
176
0
 40
1.0
176
0
 90
2
176
1
  1
strokes_ogs.tif
176
1
290
0
176
1
 40
1.0
176
1
 40
1.0
176
1
  0
VISUALSTYLE
  5
69
102
{ACAD_REACTORS
330
16
102
}
330
16
100
AcDbVisualStyle
  2
Modeling
 70
10
177
3
291
0
 70
58
 90
2
176
1
 90
2
176
1
 90
0
176
1
 90
2
176
1
 40
0.6
176
1
 40
30.0
176
1
 62
7
420
16777215
176
1
 90
1
176
1
 90
4
176
1
 62
7
176
1
 62
257
176
1
 90
1
176
1
 90
1
176
1
 40
1.0
176
1
 90
8
176
1
 62
7
176
1
 40
1.0
176
1
 90
1
176
1
 90
6
176
1
 90
2
176
1
 62
7
176
1
 90
5
176
1
 90
0
176
1
 90
0
176
1
290
0
176
1
 90
1
176
1
 40
0.0
176
1
 90
0
176
1
290
0
176
1
290
1
176
1
290
1
176
1
290
0
176
1
290
0
176
1
290
0
176
1
290
0
176
1
290
0
176
1
290
0
176
1
 90
50
176
1
 40
0.0
176
1
 40
1.0
176
1
 90
0
176
1
 62
18
420
0
176
1
 90
50
176
1
 90
3
176
1
 62
5
420
255
176
1
290
0
176
1
 90
50
176
1
 90
50
176
1
 90
50
176
1
290
0
176
1
 90
50
176
1
 62
256
176
0
 40
1.0
176
0
 90
2
176
1
  1
strokes_ogs.tif
176
1
290
0
176
1
 40
1.0
176
1
 40
1.0
176
1
  0
VISUALSTYLE
  5
6A
102
{ACAD_REACTORS
330
16
102
}
330
16
100
AcDbVisualStyle
  2
OverhangOff
 70
21
177
3
291
1
 70
58
 90
2
176
1
 90
2
176
1
 90
0
176
1
 90
2
176
1
 40
0.6
176
1
 40
30.0
176
1
 62
7
420
16777215
176
1
 90
1
176
1
 90
4
176
1
 62
7
176
1
 62
257
176
1
 90
1
176
1
 90
1
176
1
 40
1.0
176
1
 90
8
176
1
 62
7
176
1
 40
1.0
176
1
 90
1
176
1
 90
6
176
1
 90
2
176
1
 62
7
176
1
 90
5
176
1
 90
0
176
1
 90
0
176
1
290
0
176
1
 90
1
176
1
 40
0.0
176
1
 90
0
176
1
290
0
176
1
290
1
176
1
290
1
176
1
290
0
176
1
290
0
176
1
290
0
176
1
290
0
176
1
290
0
176
1
290
0
176
1
 90
50
176
1
 40
0.0
176
1
 40
1.0
176
1
 90
0
176
1
 62
18
420
0
176
1
 90
50
176
1
 90
3
176
1
 62
5
420
255
176
1
290
0
176
1
 90
50
176
1
 90
50
176
1
 90
50
176
1
290
0
176
1
 90
50
176
1
 62
256
176
0
 40
1.0
176
0
 90
2
176
1
  1
strokes_ogs.tif
176
1
290
0
176
1
 40
1.0
176
1
 40
1.0
176
1
  0
VISUALSTYLE
  5
6B
102
{ACAD_REACTORS
330
16
102
}
330
16
100
AcDbVisualStyle
  2
Realistic
 70
8
177
3
291
0
 70
58
 90
2
176
1
 90
2
176
1
 90
0
176
1
 90
2
176
1
 40
0.6
176
1
 40
30.0
176
1
 62
7
420
16777215
176
1
 90
1
176
1
 90
4
176
1
 62
7
176
1
 62
257
176
1
 90
1
176
1
 90
1
176
1
 40
1.0
176
1
 90
8
176
1
 62
7
176
1
 40
1.0
176
1
 90
1
176
1
 90
6
176
1
 90
2
176
1
 62
7
176
1
 90
5
176
1
 90
0
176
1
 90
0
176
1
290
0
176
1
 90
1
176
1
 40
0.0
176
1
 90
0
176
1
290
0
176
1
290
1
176
1
290
1
176
1
290
0
176
1
290
0
176
1
290
0
176
1
290
0
176
1
290
0
176
1
290
0
176
1
 90
50
176
1
 40
0.0
176
1
 40
1.0
176
1
 90
0
176
1
 62
18
420
0
176
1
 90
50
176
1
 90
3
176
1
 62
5
420
255
176
1
290
0
176
1
 90
50
176
1
 90
50
176
1
 90
50
176
1
290
0
176
1
 90
50
176
1
 62
256
176
0
 40
1.0
176
0
 90
2
176
1
  1
strokes_ogs.tif
176
1
290
0
176
1
 40
1.0
176
1
 40
1.0
176
1
  0
VISUALSTYLE
  5
6C
102
{ACAD_REACTORS
330
16
102
}
330
16
100
AcDbVisualStyle
  2
Shaded
 70
27
177
3
291
0
 70
58
 90
2
176
1
 90
2
176
1
 90
0
176
1
 90
2
176
1
 40
0.6
176
1
 40
30.0
176
1
 62
7
420
16777215
176
1
 90
1
176
1
 90
4
176
1
 62
7
176
1
 62
257
176
1
 90
1
176
1
 90
1
176
1
 40
1.0
176
1
 90
8
176
1
 62
7
176
1
 40
1.0
176
1
 90
1
176
1
 90
6
176
1
 90
2
176
1
 62
7
176
1
 90
5
176
1
 90
0
176
1
 90
0
176
1
290
0
176
1
 90
1
176
1
 40
0.0
176
1
 90
0
176
1
290
0
176
1
290
1
176
1
290
1
176
1
290
0
176
1
290
0
176
1
290
0
176
1
290
0
176
1
290
0
176
1
290
0
176
1
 90
50
176
1
 40
0.0
176
1
 40
1.0
176
1
 90
0
176
1
 62
18
420
0
176
1
 90
50
176
1
 90
3
176
1
 62
5
420
255
176
1
290
0
176
1
 90
50
176
1
 90
50
176
1
 90
50
176
1
290
0
176
1
 90
50
176
1
 62
256
176
0
 40
1.0
176
0
 90
2
176
1
  1
strokes_ogs.tif
176
1
290
0
176
1
 40
1.0
176
1
 40
1.0
176
1
  0
VISUALSTYLE
  5
6D
102
{ACAD_REACTORS
330
16
102
}
330
16
100
AcDbVisualStyle
  2
Shaded with edges
 70
26
177
3
291
0
 70
58
 90
2
176
1
 90
2
176
1
 90
0
176
1
 90
2
176
1
 40
0.6
176
1
 40
30.0
176
1
 62
7
420
16777215
176
1
 90
1
176
1
 90
4
176
1
 62
7
176
1
 62
257
176
1
 90
1
176
1
 90
1
176
1
 40
1.0
176
1
 90
8
176
1
 62
7
176
1
 40
1.0
176
1
 90
1
176
1
 90
6
176
1
 90
2
176
1
 62
7
176
1
 90
5
176
1
 90
0
176
1
 90
0
176
1
290
0
176
1
 90
1
176
1
 40
0.0
176
1
 90
0
176
1
290
0
176
1
290
1
176
1
290
1
176
1
290
0
176
1
290
0
176
1
290
0
176
1
290
0
176
1
290
0
176
1
290
0
176
1
 90
50
176
1
 40
0.0
176
1
 40
1.0
176
1
 90
0
176
1
 62
18
420
0
176
1
 90
50
176
1
 90
3
176
1
 62
5
420
255
176
1
290
0
176
1
 90
50
176
1
 90
50
176
1
 90
50
176
1
290
0
176
1
 90
50
176
1
 62
256
176
0
 40
1.0
176
0
 90
2
176
1
  1
strokes_ogs.tif
176
1
290
0
176
1
 40
1.0
176
1
 40
1.0
176
1
  0
VISUALSTYLE
  5
6E
102
{ACAD_REACTORS
330
16
102
}
330
16
100
AcDbVisualStyle
  2
Shades of Gray
 70
23
177
3
291
0
 70
58
 90
2
176
1
 90
2
176
1
 90
0
176
1
 90
2
176
1
 40
0.6
176
1
 40
30.0
176
1
 62
7
420
16777215
176
1
 90
1
176
1
 90
4
176
1
 62
7
176
1
 62
257
176
1
 90
1
176
1
 90
1
176
1
 40
1.0
176
1
 90
8
176
1
 62
7
176
1
 40
1.0
176
1
 90
1
176
1
 90
6
176
1
 90
2
176
1
 62
7
176
1
 90
5
176
1
 90
0
176
1
 90
0
176
1
290
0
176
1
 90
1
176
1
 40
0.0
176
1
 90
0
176
1
290
0
176
1
290
1
176
1
290
1
176
1
290
0
176
1
290
0
176
1
290
0
176
1
290
0
176
1
290
0
176
1
290
0
176
1
 90
50
176
1
 40
0.0
176
1
 40
1.0
176
1
 90
0
176
1
 62
18
420
0
176
1
 90
50
176
1
 90
3
176
1
 62
5
420
255
176
1
290
0
176
1
 90
50
176
1
 90
50
176
1
 90
50
176
1
290
0
176
1
 90
50
176
1
 62
256
176
0
 40
1.0
176
0
 90
2
176
1
  1
strokes_ogs.tif
176
1
290
0
176
1
 40
1.0
176
1
 40
1.0
176
1
  0
VISUALSTYLE
  5
6F
102
{ACAD_REACTORS
330
16
102
}
330
16
100
AcDbVisualStyle
  2
Sketchy
 70
24
177
3
291
0
 70
58
 90
2
176
1
 90
2
176
1
 90
0
176
1
 90
1
176
1
 40
0.6
176
1
 40
30.0
176
1
 62
7
420
16777215
176
1
 90
1
176
1
 90
4
176
1
 62
7
176
1
 62
257
176
1
 90
1
176
1
 90
1
176
1
 40
1.0
176
1
 90
8
176
1
 62
7
176
1
 40
1.0
176
1
 90
1
176
1
 90
6
176
1
 90
2
176
1
 62
7
176
1
 90
5
176
1
 90
0
176
1
 90
0
176
1
290
0
176
1
 90
1
176
1
 40
0.0
176
1
 90
0
176
1
290
0
176
1
290
1
176
1
290
1
176
1
290
0
176
1
290
0
176
1
290
0
176
1
290
0
176
1
290
0
176
1
290
0
176
1
 90
50
176
1
 40
0.0
176
1
 40
1.0
176
1
 90
0
176
1
 62
18
420
0
176
1
 90
50
176
1
 90
3
176
1
 62
5
420
255
176
1
290
0
176
1
 90
50
176
1
 90
50
176
1
 90
50
176
1
290
0
176
1
 90
50
176
1
 62
256
176
0
 40
1.0
176
0
 90
2
176
1
  1
strokes_ogs.tif
176
1
290
0
176
1
 40
1.0
176
1
 40
1.0
176
1
  0
VISUALSTYLE
  5
70
102
{ACAD_REACTORS
330
16
102
}
330
16
100
AcDbVisualStyle
  2
Thicken
 70
13
177
3
291
1
 70
58
 90
2
176
1
 90
2
176
1
 90
0
176
1
 90
2
176
1
 40
0.6
176
1
 40
30.0
176
1
 62
7
420
16777215
176
1
 90
1
176
1
 90
4
176
1
 62
7
176
1
 62
257
176
1
 90
1
176
1
 90
1
176
1
 40
1.0
176
1
 90
8
176
1
 62
7
176
1
 40
1.0
176
1
 90
1
176
1
 90
6
176
1
 90
2
176
1
 62
7
176
1
 90
5
176
1
 90
0
176
1
 90
0
176
1
290
0
176
1
 90
1
176
1
 40
0.0
176
1
 90
0
176
1
290
0
176
1
290
1
176
1
290
1
176
1
290
0
176
1
290
0
176
1
290
0
176
1
290
0
176
1
290
0
176
1
290
0
176
1
 90
50
176
1
 40
0.0
176
1
 40
1.0
176
1
 90
0
176
1
 62
18
420
0
176
1
 90
50
176
1
 90
3
176
1
 62
5
420
255
176
1
290
0
176
1
 90
50
176
1
 90
50
176
1
 90
50
176
1
290
0
176
1
 90
50
176
1
 62
256
176
0
 40
1.0
176
0
 90
2
176
1
  1
strokes_ogs.tif
176
1
290
0
176
1
 40
1.0
176
1
 40
1.0
176
1
  0
VISUALSTYLE
  5
71
102
{ACAD_REACTORS
330
16
102
}
330
16
100
AcDbVisualStyle
  2
Wireframe
 70
5
177
3
291
0
 70
58
 90
2
176
1
 90
2
176
1
 90
0
176
1
 90
0
176
1
 40
0.6
176
1
 40
30.0
176
1
 62
7
420
16777215
176
1
 90
1
176
1
 90
4
176
1
 62
7
176
1
 62
257
176
1
 90
1
176
1
 90
1
176
1
 40
1.0
176
1
 90
8
176
1
 62
7
176
1
 40
1.0
176
1
 90
1
176
1
 90
6
176
1
 90
2
176
1
 62
7
176
1
 90
5
176
1
 90
0
176
1
 90
0
176
1
290
0
176
1
 90
1
176
1
 40
0.0
176
1
 90
0
176
1
290
0
176
1
290
1
176
1
290
1
176
1
290
0
176
1
290
0
176
1
290
0
176
1
290
0
176
1
290
0
176
1
290
0
176
1
 90
50
176
1
 40
0.0
176
1
 40
1.0
176
1
 90
0
176
1
 62
18
420
0
176
1
 90
50
176
1
 90
3
176
1
 62
5
420
255
176
1
290
0
176
1
 90
50
176
1
 90
50
176
1
 90
50
176
1
290
0
176
1
 90
50
176
1
 62
256
176
0
 40
1.0
176
0
 90
2
176
1
  1
strokes_ogs.tif
176
1
290
0
176
1
 40
1.0
176
1
 40
1.0
176
1
  0
VISUALSTYLE
  5
72
102
{ACAD_REACTORS
330
16
102
}
330
16
100
AcDbVisualStyle
  2
X-Ray
 70
25
177
3
291
0
 70
58
 90
2
176
1
 90
2
176
1
 90
0
176
1
 90
2
176
1
 40
0.5
176
1
 40
30.0
176
1
 62
7
420
16777215
176
1
 90
1
176
1
 90
4
176
1
 62
7
176
1
 62
257
176
1
 90
1
176
1
 90
1
176
1
 40
1.0
176
1
 90
8
176
1
 62
7
176
1
 40
1.0
176
1
 90
1
176
1
 90
6
176
1
 90
2
176
1
 62
7
176
1
 90
5
176
1
 90
0
176
1
 90
0
176
1
290
0
176
1
 90
1
176
1
 40
0.0
176
1
 90
0
176
1
290
0
176
1
290
1
176
1
290
1
176
1
290
0
176
1
290
0
176
1
290
0
176
1
290
0
176
1
290
0
176
1
290
0
176
1
 90
50
176
1
 40
0.0
176
1
 40
1.0
176
1
 90
0
176
1
 62
18
420
0
176
1
 90
50
176
1
 90
3
176
1
 62
5
420
255
176
1
290
0
176
1
 90
50
176
1
 90
50
176
1
 90
50
176
1
290
0
176
1
 90
50
176
1
 62
256
176
0
 40
1.0
176
0
 90
2
176
1
  1
strokes_ogs.tif
176
1
290
0
176
1
 40
1.0
176
1
 40
1.0
176
1
  0
DICTIONARYVAR
  5
160
330
2D
100
DictionaryVariables
280
0
  1
1.4.4 @ 2026-10-04T15:52:04.829887+00:00
  0
ENDSEC
  0
EOF
