  0
SECTION
  2
HEADER
  9
$ACADVER
  1
AC1032
  9
$ACADMAINTVER
 90
4
  9
$DWGCODEPAGE
  3
ANSI_1252
  9
$LASTSAVEDBY
  1
ezdxf
  9
$REQUIREDVERSIONS
160
0
  9
$INSBASE
 10
0.0
 20
0.0
 30
0.0
  9
$EXTMIN
 10
1e+20
 20
1e+20
 30
1e+20
  9
$EXTMAX
 10
-1e+20
 20
-1e+20
 30
-1e+20
  9
$LIMMIN
 10
0.0
 20
0.0
  9
$LIMMAX
 10
420.0
 20
297.0
  9
$ORTHOMODE
 70
0
  9
$REGENMODE
 70
1
  9
$FILLMODE
 70
1
  9
$QTEXTMODE
 70
0
  9
$MIRRTEXT
 70
1
  9
$LTSCALE
 40
250.0
  9
$ATTMODE
 70
1
  9
$TEXTSIZE
 40
2.5
  9
$TRACEWID
 40
1.0
  9
$TEXTSTYLE
  7
OpenSans
  9
$CLAYER
  8
0
  9
$CELTYPE
  6
ByLayer
  9
$CECOLOR
 62
256
  9
$CELTSCALE
 40
1.0
  9
$DISPSILH
 70
0
  9
$DIMSCALE
 40
1.0
  9
$DIMASZ
 40
0.175
  9
$DIMEXO
 40
0.125
  9
$DIMDLI
 40
3.75
  9
$DIMRND
 40
0.0
  9
$DIMDLE
 40
0.0
  9
$DIMEXE
 40
0.375
  9
$DIMTP
 40
0.0
  9
$DIMTM
 40
0.0
  9
$DIMTXT
 40
0.25
  9
$DIMCEN
 40
2.5
  9
$DIMTSZ
 40
0.0
  9
$DIMTOL
 70
0
  9
$DIMLIM
 70
0
  9
$DIMTIH
 70
0
  9
$DIMTOH
 70
0
  9
$DIMSE1
 70
0
  9
$DIMSE2
 70
0
  9
$DIMTAD
 70
1
  9
$DIMZIN
 70
12
  9
$DIMBLK
  1
ARCHTICK
  9
$DIMASO
 70
1
  9
$DIMSHO
 70
1
  9
$DIMPOST
  1

  9
$DIMAPOST
  1

  9
$DIMALT
 70
0
  9
$DIMALTD
 70
3
  9
$DIMALTF
 40
0.03937007874
  9
$DIMLFAC
 40
100.0
  9
$DIMTOFL
 70
1
  9
$DIMTVP
 40
0.0
  9
$DIMTIX
 70
0
  9
$DIMSOXD
 70
0
  9
$DIMSAH
 70
0
  9
$DIMBLK1
  1

  9
$DIMBLK2
  1

  9
$DIMSTYLE
  2
EZDXF
  9
$DIMCLRD
 70
0
  9
$DIMCLRE
 70
0
  9
$DIMCLRT
 70
0
  9
$DIMTFAC
 40
0.5
  9
$DIMGAP
 40
0.1
  9
$DIMJUST
 70
0
  9
$DIMSD1
 70
0
  9
$DIMSD2
 70
0
  9
$DIMTOLJ
 70
0
  9
$DIMTZIN
 70
8
  9
$DIMALTZ
 70
0
  9
$DIMALTTZ
 70
0
  9
$DIMUPT
 70
1
  9
$DIMDEC
 70
2
  9
$DIMTDEC
 70
2
  9
$DIMALTU
 70
2
  9
$DIMALTTD
 70
3
  9
$DIMTXSTY
  7
OpenSansCondensed-Light
  9
$DIMAUNIT
 70
0
  9
$DIMADEC
 70
2
  9
$DIMALTRND
 40
0.0
  9
$DIMAZIN
 70
3
  9
$DIMDSEP
 70
46
  9
$DIMATFIT
 70
3
  9
$DIMFRAC
 70
0
  9
$DIMLDRBLK
  1

  9
$DIMLUNIT
 70
2
  9
$DIMLWD
 70
-2
  9
$DIMLWE
 70
-2
  9
$DIMTMOVE
 70
2
  9
$DIMFXL
 40
1.0
  9
$DIMFXLON
 70
0
  9
$DIMJOGANG
 40
0.785398163397
  9
$DIMTFILL
 70
0
  9
$DIMTFILLCLR
 70
0
  9
$DIMARCSYM
 70
0
  9
$DIMLTYPE
  6

  9
$DIMLTEX1
  6

  9
$DIMLTEX2
  6

  9
$DIMTXTDIRECTION
 70
0
  9
$LUNITS
 70
2
  9
$LUPREC
 70
4
  9
$SKETCHINC
 40
1.0
  9
$FILLETRAD
 40
10.0
  9
$AUNITS
 70
0
  9
$AUPREC
 70
2
  9
$MENU
  1
.
  9
$ELEVATION
 40
0.0
  9
$PELEVATION
 40
0.0
  9
$THICKNESS
 40
0.0
  9
$LIMCHECK
 70
0
  9
$CHAMFERA
 40
0.0
  9
$CHAMFERB
 40
0.0
  9
$CHAMFERC
 40
0.0
  9
$CHAMFERD
 40
0.0
  9
$SKPOLY
 70
0
  9
$TDCREATE
 40
2461319.2497569444
  9
$TDUCREATE
 40
2458532.153996898
  9
$TDUPDATE
 40
2461319.2506597224
  9
$TDUUPDATE
 40
2458532.1544311
  9
$TDINDWG
 40
0.0
  9
$TDUSRTIMER
 40
0.0
  9
$USRTIMER
 70
1
  9
$ANGBASE
 50
0.0
  9
$ANGDIR
 70
0
  9
$PDMODE
 70
0
  9
$PDSIZE
 40
0.0
  9
$PLINEWID
 40
0.0
  9
$SPLFRAME
 70
0
  9
$SPLINETYPE
 70
6
  9
$SPLINESEGS
 70
8
  9
$HANDSEED
  5
17A
  9
$SURFTAB1
 70
6
  9
$SURFTAB2
 70
6
  9
$SURFTYPE
 70
6
  9
$SURFU
 70
6
  9
$SURFV
 70
6
  9
$UCSBASE
  2

  9
$UCSNAME
  2

  9
$UCSORG
 10
0.0
 20
0.0
 30
0.0
  9
$UCSXDIR
 10
1.0
 20
0.0
 30
0.0
  9
$UCSYDIR
 10
0.0
 20
1.0
 30
0.0
  9
$UCSORTHOREF
  2

  9
$UCSORTHOVIEW
 70
0
  9
$UCSORGTOP
 10
0.0
 20
0.0
 30
0.0
  9
$UCSORGBOTTOM
 10
0.0
 20
0.0
 30
0.0
  9
$UCSORGLEFT
 10
0.0
 20
0.0
 30
0.0
  9
$UCSORGRIGHT
 10
0.0
 20
0.0
 30
0.0
  9
$UCSORGFRONT
 10
0.0
 20
0.0
 30
0.0
  9
$UCSORGBACK
 10
0.0
 20
0.0
 30
0.0
  9
$PUCSBASE
  2

  9
$PUCSNAME
  2

  9
$PUCSORG
 10
0.0
 20
0.0
 30
0.0
  9
$PUCSXDIR
 10
1.0
 20
0.0
 30
0.0
  9
$PUCSYDIR
 10
0.0
 20
1.0
 30
0.0
  9
$PUCSORTHOREF
  2

  9
$PUCSORTHOVIEW
 70
0
  9
$PUCSORGTOP
 10
0.0
 20
0.0
 30
0.0
  9
$PUCSORGBOTTOM
 10
0.0
 20
0.0
 30
0.0
  9
$PUCSORGLEFT
 10
0.0
 20
0.0
 30
0.0
  9
$PUCSORGRIGHT
 10
0.0
 20
0.0
 30
0.0
  9
$PUCSORGFRONT
 10
0.0
 20
0.0
 30
0.0
  9
$PUCSORGBACK
 10
0.0
 20
0.0
 30
0.0
  9
$USERI1
 70
0
  9
$USERI2
 70
0
  9
$USERI3
 70
0
  9
$USERI4
 70
0
  9
$USERI5
 70
0
  9
$USERR1
 40
0.0
  9
$USERR2
 40
0.0
  9
$USERR3
 40
0.0
  9
$USERR4
 40
0.0
  9
$USERR5
 40
0.0
  9
$WORLDVIEW
 70
1
  9
$SHADEDGE
 70
3
  9
$SHADEDIF
 70
70
  9
$TILEMODE
 70
1
  9
$MAXACTVP
 70
64
  9
$PINSBASE
 10
0.0
 20
0.0
 30
0.0
  9
$PLIMCHECK
 70
0
  9
$PEXTMIN
 10
1e+20
 20
1e+20
 30
1e+20
  9
$PEXTMAX
 10
-1e+20
 20
-1e+20
 30
-1e+20
  9
$PLIMMIN
 10
0.0
 20
0.0
  9
$PLIMMAX
 10
420.0
 20
297.0
  9
$UNITMODE
 70
0
  9
$VISRETAIN
 70
1
  9
$PLINEGEN
 70
0
  9
$PSLTSCALE
 70
0
  9
$TREEDEPTH
 70
3020
  9
$CMLSTYLE
  2
Standard
  9
$CMLJUST
 70
0
  9
$CMLSCALE
 40
20.0
  9
$PROXYGRAPHICS
 70
1
  9
$MEASUREMENT
 70
1
  9
$CELWEIGHT
370
-1
  9
$ENDCAPS
280
0
  9
$JOINSTYLE
280
0
  9
$LWDISPLAY
290
0
  9
$INSUNITS
 70
4
  9
$HYPERLINKBASE
  1

  9
$STYLESHEET
  1

  9
$XEDIT
290
1
  9
$CEPSNTYPE
380
0
  9
$PSTYLEMODE
290
1
  9
$FINGERPRINTGUID
  2
{94326650-843B-493F-A86F-E5EDDF8FA066}
  9
$VERSIONGUID
  2
{36E2CFFD-CE2D-4ECA-8182-ADB1301712D1}
  9
$EXTNAMES
290
1
  9
$PSVPSCALE
 40
0.0
  9
$OLESTARTUP
290
0
  9
$SORTENTS
280
127
  9
$INDEXCTL
280
0
  9
$HIDETEXT
280
1
  9
$XCLIPFRAME
280
1
  9
$HALOGAP
280
0
  9
$OBSCOLOR
 70
257
  9
$OBSLTYPE
280
0
  9
$INTERSECTIONDISPLAY
280
0
  9
$INTERSECTIONCOLOR
 70
257
  9
$DIMASSOC
280
2
  9
$PROJECTNAME
  1

  9
$CAMERADISPLAY
290
0
  9
$LENSLENGTH
 40
50.0
  9
$CAMERAHEIGHT
 40
0.0
  9
$STEPSPERSEC
 40
24.0
  9
$STEPSIZE
 40
100.0
  9
$3DDWFPREC
 40
2.0
  9
$PSOLWIDTH
 40
0.005
  9
$PSOLHEIGHT
 40
0.08
  9
$LOFTANG1
 40
1.570796326795
  9
$LOFTANG2
 40
1.570796326795
  9
$LOFTMAG1
 40
0.0
  9
$LOFTMAG2
 40
0.0
  9
$LOFTPARAM
 70
7
  9
$LOFTNORMALS
280
1
  9
$LATITUDE
 40
37.795
  9
$LONGITUDE
 40
-122.394
  9
$NORTHDIRECTION
 40
0.0
  9
$TIMEZONE
 70
-8000
  9
$LIGHTGLYPHDISPLAY
280
1
  9
$TILEMODELIGHTSYNCH
280
1
  9
$CMATERIAL
347
20
  9
$SOLIDHIST
280
0
  9
$SHOWHIST
280
1
  9
$DWFFRAME
280
2
  9
$DGNFRAME
280
2
  9
$REALWORLDSCALE
290
1
  9
$INTERFERECOLOR
 62
256
  9
$CSHADOW
280
0
  9
$SHADOWPLANELOCATION
 40
0.0
  0
ENDSEC
  0
SECTION
  2
CLASSES
  0
CLASS
  1
ACDBDICTIONARYWDFLT
  2
AcDbDictionaryWithDefault
  3
ObjectDBX Classes
 90
0
 91
0
280
0
281
0
  0
CLASS
  1
SUN
  2
AcDbSun
  3
SCENEOE
 90
1153
 91
0
280
0
281
0
  0
CLASS
  1
VISUALSTYLE
  2
AcDbVisualStyle
  3
ObjectDBX Classes
 90
4095
 91
0
280
0
281
0
  0
CLASS
  1
MATERIAL
  2
AcDbMaterial
  3
ObjectDBX Classes
 90
1153
 91
0
280
0
281
0
  0
CLASS
  1
SCALE
  2
AcDbScale
  3
ObjectDBX Classes
 90
1153
 91
0
280
0
281
0
  0
CLASS
  1
TABLESTYLE
  2
AcDbTableStyle
  3
ObjectDBX Classes
 90
4095
 91
0
280
0
281
0
  0
CLASS
  1
MLEADERSTYLE
  2
AcDbMLeaderStyle
  3
ACDB_MLEADERSTYLE_CLASS
 90
4095
 91
0
280
0
281
0
  0
CLASS
  1
DICTIONARYVAR
  2
AcDbDictionaryVar
  3
ObjectDBX Classes
 90
0
 91
0
280
0
281
0
  0
CLASS
  1
CELLSTYLEMAP
  2
AcDbCellStyleMap
  3
ObjectDBX Classes
 90
1152
 91
0
280
0
281
0
  0
CLASS
  1
MENTALRAYRENDERSETTINGS
  2
AcDbMentalRayRenderSettings
  3
SCENEOE
 90
1024
 91
0
280
0
281
0
  0
CLASS
  1
ACDBDETAILVIEWSTYLE
  2
AcDbDetailViewStyle
  3
ObjectDBX Classes
 90
1025
 91
0
280
0
281
0
  0
CLASS
  1
ACDBSECTIONVIEWSTYLE
  2
AcDbSectionViewStyle
  3
ObjectDBX Classes
 90
1025
 91
0
280
0
281
0
  0
CLASS
  1
RASTERVARIABLES
  2
AcDbRasterVariables
  3
ISM
 90
0
 91
0
280
0
281
0
  0
CLASS
  1
ACDBPLACEHOLDER
  2
AcDbPlaceHolder
  3
ObjectDBX Classes
 90
0
 91
0
280
0
281
0
  0
CLASS
  1
LAYOUT
  2
AcDbLayout
  3
ObjectDBX Classes
 90
0
 91
0
280
0
281
0
  0
ENDSEC
  0
SECTION
  2
TABLES
  0
TABLE
  2
VPORT
  5
8
330
0
100
AcDbSymbolTable
 70
1
  0
VPORT
  5
23
330
8
100
AcDbSymbolTableRecord
100
AcDbViewportTableRecord
  2
*Active
 70
0
 10
0.0
 20
0.0
 11
1.0
 21
1.0
 12
0.0
 22
0.0
 13
0.0
 23
0.0
 14
0.5
 24
0.5
 15
0.5
 25
0.5
 16
0.0
 26
0.0
 36
1.0
 17
0.0
 27
0.0
 37
0.0
 40
1000.0
 41
1.34
 42
50.0
 43
0.0
 44
0.0
 50
0.0
 51
0.0
 71
0
 72
1000
 73
1
 74
3
 75
0
 76
0
 77
0
 78
0
281
0
 65
0
146
0.0
  0
ENDTAB
  0
TABLE
  2
LTYPE
  5
2
330
0
100
AcDbSymbolTable
 70
21
  0
LTYPE
  5
24
330
2
100
AcDbSymbolTableRecord
100
AcDbLinetypeTableRecord
  2
ByBlock
 70
0
  3

 72
65
 73
0
 40
0.0
  0
LTYPE
  5
25
330
2
100
AcDbSymbolTableRecord
100
AcDbLinetypeTableRecord
  2
ByLayer
 70
0
  3

 72
65
 73
0
 40
0.0
  0
LTYPE
  5
26
330
2
100
AcDbSymbolTableRecord
100
AcDbLinetypeTableRecord
  2
Continuous
 70
0
  3

 72
65
 73
0
 40
0.0
  0
LTYPE
  5
2F
330
2
100
AcDbSymbolTableRecord
100
AcDbLinetypeTableRecord
  2
CENTER
 70
0
  3
Center ____ _ ____ _ ____ _ ____ _ ____ _ ____
 72
65
 73
4
 40
5.08
 49
3.175
 74
0
 49
-0.635
 74
0
 49
0.635
 74
0
 49
-0.635
 74
0
  0
LTYPE
  5
30
330
2
100
AcDbSymbolTableRecord
100
AcDbLinetypeTableRecord
  2
CENTERX2
 70
0
  3
Center (2x) ________  __  ________  __  ________
 72
65
 73
4
 40
8.89
 49
6.35
 74
0
 49
-0.635
 74
0
 49
1.27
 74
0
 49
-0.635
 74
0
  0
LTYPE
  5
31
330
2
100
AcDbSymbolTableRecord
100
AcDbLinetypeTableRecord
  2
CENTER2
 70
0
  3
Center (.5x) ____ _ ____ _ ____ _ ____ _ ____
 72
65
 73
4
 40
2.54
 49
1.587
 74
0
 49
-0.318
 74
0
 49
0.318
 74
0
 49
-0.318
 74
0
  0
LTYPE
  5
32
330
2
100
AcDbSymbolTableRecord
100
AcDbLinetypeTableRecord
  2
DASHED
 70
0
  3
Dashed __ __ __ __ __ __ __ __ __ __ __ __ __ _
 72
65
 73
2
 40
1.524
 49
1.27
 74
0
 49
-0.254
 74
0
  0
LTYPE
  5
33
330
2
100
AcDbSymbolTableRecord
100
AcDbLinetypeTableRecord
  2
DASHEDX2
 70
0
  3
Dashed (2x) ____  ____  ____  ____  ____  ____
 72
65
 73
2
 40
3.048
 49
2.54
 74
0
 49
-0.508
 74
0
  0
LTYPE
  5
34
330
2
100
AcDbSymbolTableRecord
100
AcDbLinetypeTableRecord
  2
DASHED2
 70
0
  3
Dashed (.5x) _ _ _ _ _ _ _ _ _ _ _ _ _ _
 72
65
 73
2
 40
0.762
 49
0.635
 74
0
 49
-0.127
 74
0
  0
LTYPE
  5
35
330
2
100
AcDbSymbolTableRecord
100
AcDbLinetypeTableRecord
  2
PHANTOM
 70
0
  3
Phantom ______  __  __  ______  __  __  ______
 72
65
 73
6
 40
6.35
 49
3.175
 74
0
 49
-0.635
 74
0
 49
0.635
 74
0
 49
-0.635
 74
0
 49
0.635
 74
0
 49
-0.635
 74
0
  0
LTYPE
  5
36
330
2
100
AcDbSymbolTableRecord
100
AcDbLinetypeTableRecord
  2
PHANTOMX2
 70
0
  3
Phantom (2x)____________    ____    ____    ____________
 72
65
 73
6
 40
10.795
 49
6.35
 74
0
 49
-0.635
 74
0
 49
1.27
 74
0
 49
-0.635
 74
0
 49
1.27
 74
0
 49
-0.635
 74
0
  0
LTYPE
  5
37
330
2
100
AcDbSymbolTableRecord
100
AcDbLinetypeTableRecord
  2
PHANTOM2
 70
0
  3
Phantom (.5x) ___ _ _ ___ _ _ ___ _ _ ___ _ _ ___
 72
65
 73
6
 40
3.175
 49
1.587
 74
0
 49
-0.318
 74
0
 49
0.318
 74
0
 49
-0.318
 74
0
 49
0.318
 74
0
 49
-0.318
 74
0
  0
LTYPE
  5
38
330
2
100
AcDbSymbolTableRecord
100
AcDbLinetypeTableRecord
  2
DASHDOT
 70
0
  3
Dash dot __ . __ . __ . __ . __ . __ . __ . __
 72
65
 73
4
 40
3.556
 49
2.54
 74
0
 49
-0.508
 74
0
 49
0.0
 74
0
 49
-0.508
 74
0
  0
LTYPE
  5
39
330
2
100
AcDbSymbolTableRecord
100
AcDbLinetypeTableRecord
  2
DASHDOTX2
 70
0
  3
Dash dot (2x) ____  .  ____  .  ____  .  ____
 72
65
 73
4
 40
6.096
 49
5.08
 74
0
 49
-0.508
 74
0
 49
0.0
 74
0
 49
-0.508
 74
0
  0
LTYPE
  5
3A
330
2
100
AcDbSymbolTableRecord
100
AcDbLinetypeTableRecord
  2
DASHDOT2
 70
0
  3
Dash dot (.5x) _ . _ . _ . _ . _ . _ . _ . _
 72
65
 73
4
 40
1.778
 49
1.27
 74
0
 49
-0.254
 74
0
 49
0.0
 74
0
 49
-0.254
 74
0
  0
LTYPE
  5
3B
330
2
100
AcDbSymbolTableRecord
100
AcDbLinetypeTableRecord
  2
DOT
 70
0
  3
Dot .  .  .  .  .  .  .  .  .  .  .  .  .  .  .  .
 72
65
 73
2
 40
0.508
 49
0.0
 74
0
 49
-0.508
 74
0
  0
LTYPE
  5
3C
330
2
100
AcDbSymbolTableRecord
100
AcDbLinetypeTableRecord
  2
DOTX2
 70
0
  3
Dot (2x) .    .    .    .    .    .    .    . 
 72
65
 73
2
 40
1.016
 49
0.0
 74
0
 49
-1.016
 74
0
  0
LTYPE
  5
3D
330
2
100
AcDbSymbolTableRecord
100
AcDbLinetypeTableRecord
  2
DOT2
 70
0
  3
Dot (.5) . . . . . . . . . . . . . . . . . . . 
 72
65
 73
2
 40
0.254
 49
0.0
 74
0
 49
-0.254
 74
0
  0
LTYPE
  5
3E
330
2
100
AcDbSymbolTableRecord
100
AcDbLinetypeTableRecord
  2
DIVIDE
 70
0
  3
Divide __ . . __ . . __ . . __ . . __ . . __
 72
65
 73
6
 40
4.064
 49
2.54
 74
0
 49
-0.508
 74
0
 49
0.0
 74
0
 49
-0.508
 74
0
 49
0.0
 74
0
 49
-0.508
 74
0
  0
LTYPE
  5
3F
330
2
100
AcDbSymbolTableRecord
100
AcDbLinetypeTableRecord
  2
DIVIDEX2
 70
0
  3
Divide (2x) ____  . .  ____  . .  ____  . .  ____
 72
65
 73
6
 40
6.604
 49
5.08
 74
0
 49
-0.508
 74
0
 49
0.0
 74
0
 49
-0.508
 74
0
 49
0.0
 74
0
 49
-0.508
 74
0
  0
LTYPE
  5
40
330
2
100
AcDbSymbolTableRecord
100
AcDbLinetypeTableRecord
  2
DIVIDE2
 70
0
  3
Divide(.5x) _ . _ . _ . _ . _ . _ . _ . _
 72
65
 73
6
 40
2.032
 49
1.27
 74
0
 49
-0.254
 74
0
 49
0.0
 74
0
 49
-0.254
 74
0
 49
0.0
 74
0
 49
-0.254
 74
0
  0
ENDTAB
  0
TABLE
  2
LAYER
  5
1
330
0
100
AcDbSymbolTable
 70
42
  0
LAYER
  5
27
330
1
100
AcDbSymbolTableRecord
100
AcDbLayerTableRecord
  2
0
 70
0
 62
7
  6
Continuous
370
-3
390
13
347
21
  0
LAYER
  5
28
330
1
100
AcDbSymbolTableRecord
100
AcDbLayerTableRecord
  2
Defpoints
 70
0
 62
7
  6
Continuous
290
0
370
-3
390
13
347
21
  0
LAYER
  5
8B
330
1
100
AcDbSymbolTableRecord
100
AcDbLayerTableRecord
  2
G-FRAME
 70
0
 62
7
  6
Continuous
370
70
390
13
347
21
1001
AcAecLayerStandard
1000

1000
図枠
  0
LAYER
  5
8D
330
1
100
AcDbSymbolTableRecord
100
AcDbLayerTableRecord
  2
G-TITLE
 70
0
 62
7
  6
Continuous
370
25
390
13
347
21
1001
AcAecLayerStandard
1000

1000
表題欄
  0
LAYER
  5
8E
330
1
100
AcDbSymbolTableRecord
100
AcDbLayerTableRecord
  2
G-TABLE
 70
0
 62
7
  6
Continuous
370
18
390
13
347
21
1001
AcAecLayerStandard
1000

1000
表
  0
LAYER
  5
8F
330
1
100
AcDbSymbolTableRecord
100
AcDbLayerTableRecord
  2
A-GRID
 70
0
 62
1
  6
CENTER
370
13
390
13
347
21
1001
AcAecLayerStandard
1000

1000
通り芯（一点鎖線・細線）
  0
LAYER
  5
90
330
1
100
AcDbSymbolTableRecord
100
AcDbLayerTableRecord
  2
A-GRID-SYMB
 70
0
 62
7
  6
Continuous
370
18
390
13
347
21
1001
AcAecLayerStandard
1000

1000
通り芯符号
  0
LAYER
  5
91
330
1
100
AcDbSymbolTableRecord
100
AcDbLayerTableRecord
  2
A-CUT
 70
0
 62
7
  6
Continuous
370
50
390
13
347
21
1001
AcAecLayerStandard
1000

1000
切断面 RC（太線）
  0
LAYER
  5
92
330
1
100
AcDbSymbolTableRecord
100
AcDbLayerTableRecord
  2
A-CUT-HATCH
 70
0
 62
8
  6
Continuous
370
9
390
13
347
21
1001
AcAecLayerStandard
1000

1000
切断面ハッチング
  0
LAYER
  5
93
330
1
100
AcDbSymbolTableRecord
100
AcDbLayerTableRecord
  2
A-CUT-LGS
 70
0
 62
7
  6
Continuous
370
35
390
13
347
21
1001
AcAecLayerStandard
1000

1000
切断面 軽量間仕切（中線）
  0
LAYER
  5
94
330
1
100
AcDbSymbolTableRecord
100
AcDbLayerTableRecord
  2
A-CUT-INS
 70
0
 62
9
  6
Continuous
370
9
390
13
347
21
1001
AcAecLayerStandard
1000

1000
切断面 断熱材ハッチング
  0
LAYER
  5
95
330
1
100
AcDbSymbolTableRecord
100
AcDbLayerTableRecord
  2
A-FENCE
 70
0
 62
7
  6
Continuous
370
35
390
13
347
21
1001
AcAecLayerStandard
1000

1000
RC塀
  0
LAYER
  5
96
330
1
100
AcDbSymbolTableRecord
100
AcDbLayerTableRecord
  2
A-PAVE
 70
0
 62
3
  6
Continuous
370
13
390
13
347
21
1001
AcAecLayerStandard
1000

1000
舗装（透水性 Dotcon+）
  0
LAYER
  5
97
330
1
100
AcDbSymbolTableRecord
100
AcDbLayerTableRecord
  2
A-DRAIN
 70
0
 62
5
  6
DASHED
370
25
390
13
347
21
1001
AcAecLayerStandard
1000

1000
雨水排水・浸透施設
  0
LAYER
  5
98
330
1
100
AcDbSymbolTableRecord
100
AcDbLayerTableRecord
  2
A-NEIGH
 70
0
 62
8
  6
Continuous
370
13
390
13
347
21
1001
AcAecLayerStandard
1000

1000
隣接建物（基盤地図情報）
  0
LAYER
  5
99
330
1
100
AcDbSymbolTableRecord
100
AcDbLayerTableRecord
  2
A-WATER
 70
0
 62
5
  6
Continuous
370
18
390
13
347
21
1001
AcAecLayerStandard
1000

1000
水路
  0
LAYER
  5
9A
330
1
100
AcDbSymbolTableRecord
100
AcDbLayerTableRecord
  2
A-TERRAIN
 70
0
 62
30
  6
Continuous
370
25
390
13
347
21
1001
AcAecLayerStandard
1000

1000
地形断面（DEM）
  0
LAYER
  5
9B
330
1
100
AcDbSymbolTableRecord
100
AcDbLayerTableRecord
  2
A-FLOOD
 70
0
 62
5
  6
DASHDOT
370
25
390
13
347
21
1001
AcAecLayerStandard
1000

1000
想定浸水深
  0
LAYER
  5
9C
330
1
100
AcDbSymbolTableRecord
100
AcDbLayerTableRecord
  2
A-FLOW
 70
0
 62
6
  6
DASHED
370
35
390
13
347
21
1001
AcAecLayerStandard
1000

1000
動線（回遊・家事・搬入）
  0
LAYER
  5
9D
330
1
100
AcDbSymbolTableRecord
100
AcDbLayerTableRecord
  2
A-VIS
 70
0
 62
7
  6
Continuous
370
18
390
13
347
21
1001
AcAecLayerStandard
1000

1000
見え掛り（細線）
  0
LAYER
  5
9E
330
1
100
AcDbSymbolTableRecord
100
AcDbLayerTableRecord
  2
A-HIDDEN
 70
0
 62
8
  6
HIDDEN
370
13
390
13
347
21
1001
AcAecLayerStandard
1000

1000
隠れ線（破線）
  0
LAYER
  5
9F
330
1
100
AcDbSymbolTableRecord
100
AcDbLayerTableRecord
  2
A-GLAZ
 70
0
 62
5
  6
Continuous
370
18
390
13
347
21
1001
AcAecLayerStandard
1000

1000
建具・ガラス
  0
LAYER
  5
A0
330
1
100
AcDbSymbolTableRecord
100
AcDbLayerTableRecord
  2
A-DOOR
 70
0
 62
5
  6
Continuous
370
18
390
13
347
21
1001
AcAecLayerStandard
1000

1000
扉・開き勝手
  0
LAYER
  5
A1
330
1
100
AcDbSymbolTableRecord
100
AcDbLayerTableRecord
  2
A-STRS
 70
0
 62
7
  6
Continuous
370
18
390
13
347
21
1001
AcAecLayerStandard
1000

1000
階段
  0
LAYER
  5
A2
330
1
100
AcDbSymbolTableRecord
100
AcDbLayerTableRecord
  2
A-ROOM
 70
0
 62
7
  6
Continuous
370
18
390
13
347
21
1001
AcAecLayerStandard
1000

1000
室名・面積
  0
LAYER
  5
A3
330
1
100
AcDbSymbolTableRecord
100
AcDbLayerTableRecord
  2
A-DIMS
 70
0
 62
7
  6
Continuous
370
13
390
13
347
21
1001
AcAecLayerStandard
1000

1000
寸法
  0
LAYER
  5
A4
330
1
100
AcDbSymbolTableRecord
100
AcDbLayerTableRecord
  2
A-TEXT
 70
0
 62
7
  6
Continuous
370
18
390
13
347
21
1001
AcAecLayerStandard
1000

1000
注記
  0
LAYER
  5
A5
330
1
100
AcDbSymbolTableRecord
100
AcDbLayerTableRecord
  2
A-SYMB
 70
0
 62
7
  6
Continuous
370
18
390
13
347
21
1001
AcAecLayerStandard
1000

1000
記号（方位・切断・レベル）
  0
LAYER
  5
A6
330
1
100
AcDbSymbolTableRecord
100
AcDbLayerTableRecord
  2
A-SITE
 70
0
 62
3
  6
PHANTOM
370
25
390
13
347
21
1001
AcAecLayerStandard
1000

1000
敷地境界線（二点鎖線）
  0
LAYER
  5
A7
330
1
100
AcDbSymbolTableRecord
100
AcDbLayerTableRecord
  2
A-ROAD
 70
0
 62
8
  6
Continuous
370
18
390
13
347
21
1001
AcAecLayerStandard
1000

1000
道路
  0
LAYER
  5
A8
330
1
100
AcDbSymbolTableRecord
100
AcDbLayerTableRecord
  2
A-GROUND
 70
0
 62
7
  6
Continuous
370
50
390
13
347
21
1001
AcAecLayerStandard
1000

1000
地盤面 GL
  0
LAYER
  5
A9
330
1
100
AcDbSymbolTableRecord
100
AcDbLayerTableRecord
  2
A-LEGAL
 70
0
 62
1
  6
DASHED
370
25
390
13
347
21
1001
AcAecLayerStandard
1000

1000
法規制ライン（斜線・延焼ライン）
  0
LAYER
  5
AA
330
1
100
AcDbSymbolTableRecord
100
AcDbLayerTableRecord
  2
A-LEGAL-TEXT
 70
0
 62
1
  6
Continuous
370
18
390
13
347
21
1001
AcAecLayerStandard
1000

1000
法規注記
  0
LAYER
  5
AB
330
1
100
AcDbSymbolTableRecord
100
AcDbLayerTableRecord
  2
A-FIRE
 70
0
 62
6
  6
DASHDOT
370
25
390
13
347
21
1001
AcAecLayerStandard
1000

1000
延焼のおそれのある部分
  0
LAYER
  5
AC
330
1
100
AcDbSymbolTableRecord
100
AcDbLayerTableRecord
  2
A-ALT
 70
0
 62
1
  6
Continuous
370
35
390
13
347
21
1001
AcAecLayerStandard
1000

1000
代替進入口
  0
LAYER
  5
AD
330
1
100
AcDbSymbolTableRecord
100
AcDbLayerTableRecord
  2
S-COLS
 70
0
 62
7
  6
Continuous
370
50
390
13
347
21
1001
AcAecLayerStandard
1000

1000
構造 柱
  0
LAYER
  5
AE
330
1
100
AcDbSymbolTableRecord
100
AcDbLayerTableRecord
  2
S-BEAM
 70
0
 62
7
  6
HIDDEN
370
25
390
13
347
21
1001
AcAecLayerStandard
1000

1000
構造 梁（伏図・隠れ）
  0
LAYER
  5
AF
330
1
100
AcDbSymbolTableRecord
100
AcDbLayerTableRecord
  2
S-BEAM-V
 70
0
 62
7
  6
Continuous
370
35
390
13
347
21
1001
AcAecLayerStandard
1000

1000
構造 梁（見え）
  0
LAYER
  5
B0
330
1
100
AcDbSymbolTableRecord
100
AcDbLayerTableRecord
  2
S-FNDN
 70
0
 62
7
  6
HIDDEN
370
25
390
13
347
21
1001
AcAecLayerStandard
1000

1000
構造 基礎
  0
LAYER
  5
B1
330
1
100
AcDbSymbolTableRecord
100
AcDbLayerTableRecord
  2
S-SLAB
 70
0
 62
7
  6
Continuous
370
18
390
13
347
21
1001
AcAecLayerStandard
1000

1000
構造 スラブ
  0
LAYER
  5
B2
330
1
100
AcDbSymbolTableRecord
100
AcDbLayerTableRecord
  2
S-REBAR
 70
0
 62
1
  6
Continuous
370
35
390
13
347
21
1001
AcAecLayerStandard
1000

1000
鉄筋
  0
LAYER
  5
B3
330
1
100
AcDbSymbolTableRecord
100
AcDbLayerTableRecord
  2
S-TEXT
 70
0
 62
7
  6
Continuous
370
18
390
13
347
21
1001
AcAecLayerStandard
1000

1000
構造 注記
  0
ENDTAB
  0
TABLE
  2
STYLE
  5
5
330
0
100
AcDbSymbolTable
 70
27
  0
STYLE
  5
29
330
5
100
AcDbSymbolTableRecord
100
AcDbTextStyleTableRecord
  2
Standard
 70
0
 40
0.0
 41
1.0
 50
0.0
 71
0
 42
2.5
  3
ipag.ttf
  4

  0
STYLE
  5
41
330
5
100
AcDbSymbolTableRecord
100
AcDbTextStyleTableRecord
  2
OpenSans-Light
 70
0
 40
0.0
 41
1.0
 50
0.0
 71
0
 42
2.5
  3
OpenSans-Light.ttf
  4

  0
STYLE
  5
42
330
5
100
AcDbSymbolTableRecord
100
AcDbTextStyleTableRecord
  2
OpenSans-Light-Italic
 70
0
 40
0.0
 41
1.0
 50
0.0
 71
0
 42
2.5
  3
OpenSans-LightItalic.ttf
  4

  0
STYLE
  5
43
330
5
100
AcDbSymbolTableRecord
100
AcDbTextStyleTableRecord
  2
OpenSans
 70
0
 40
0.0
 41
1.0
 50
0.0
 71
0
 42
2.5
  3
OpenSans-Regular.ttf
  4

  0
STYLE
  5
44
330
5
100
AcDbSymbolTableRecord
100
AcDbTextStyleTableRecord
  2
OpenSans-Italic
 70
0
 40
0.0
 41
1.0
 50
0.0
 71
0
 42
2.5
  3
OpenSans-Italic.ttf
  4

  0
STYLE
  5
45
330
5
100
AcDbSymbolTableRecord
100
AcDbTextStyleTableRecord
  2
OpenSans-SemiBold
 70
0
 40
0.0
 41
1.0
 50
0.0
 71
0
 42
2.5
  3
OpenSans-SemiBold.ttf
  4

  0
STYLE
  5
46
330
5
100
AcDbSymbolTableRecord
100
AcDbTextStyleTableRecord
  2
OpenSans-SemiBoldItalic
 70
0
 40
0.0
 41
1.0
 50
0.0
 71
0
 42
2.5
  3
OpenSans-SemiBoldItalic.ttf
  4

  0
STYLE
  5
47
330
5
100
AcDbSymbolTableRecord
100
AcDbTextStyleTableRecord
  2
OpenSans-Bold
 70
0
 40
0.0
 41
1.0
 50
0.0
 71
0
 42
2.5
  3
OpenSans-Bold.ttf
  4

  0
STYLE
  5
48
330
5
100
AcDbSymbolTableRecord
100
AcDbTextStyleTableRecord
  2
OpenSans-BoldItalic
 70
0
 40
0.0
 41
1.0
 50
0.0
 71
0
 42
2.5
  3
OpenSans-BoldItalic.ttf
  4

  0
STYLE
  5
49
330
5
100
AcDbSymbolTableRecord
100
AcDbTextStyleTableRecord
  2
OpenSans-ExtraBold
 70
0
 40
0.0
 41
1.0
 50
0.0
 71
0
 42
2.5
  3
OpenSans-ExtraBold.ttf
  4

  0
STYLE
  5
4A
330
5
100
AcDbSymbolTableRecord
100
AcDbTextStyleTableRecord
  2
OpenSans-ExtraBoldItalic
 70
0
 40
0.0
 41
1.0
 50
0.0
 71
0
 42
2.5
  3
OpenSans-ExtraBoldItalic.ttf
  4

  0
STYLE
  5
4B
330
5
100
AcDbSymbolTableRecord
100
AcDbTextStyleTableRecord
  2
OpenSansCondensed-Bold
 70
0
 40
0.0
 41
1.0
 50
0.0
 71
0
 42
2.5
  3
OpenSansCondensed-Bold.ttf
  4

  0
STYLE
  5
4C
330
5
100
AcDbSymbolTableRecord
100
AcDbTextStyleTableRecord
  2
OpenSansCondensed-Light
 70
0
 40
0.0
 41
1.0
 50
0.0
 71
0
 42
2.5
  3
OpenSansCondensed-Light.ttf
  4

  0
STYLE
  5
4D
330
5
100
AcDbSymbolTableRecord
100
AcDbTextStyleTableRecord
  2
OpenSansCondensed-Italic
 70
0
 40
0.0
 41
1.0
 50
0.0
 71
0
 42
2.5
  3
OpenSansCondensed-LightItalic.ttf
  4

  0
STYLE
  5
4E
330
5
100
AcDbSymbolTableRecord
100
AcDbTextStyleTableRecord
  2
LiberationSans
 70
0
 40
0.0
 41
1.0
 50
0.0
 71
0
 42
2.5
  3
LiberationSans-Regular.ttf
  4

  0
STYLE
  5
4F
330
5
100
AcDbSymbolTableRecord
100
AcDbTextStyleTableRecord
  2
LiberationSans-Bold
 70
0
 40
0.0
 41
1.0
 50
0.0
 71
0
 42
2.5
  3
LiberationSans-Bold.ttf
  4

  0
STYLE
  5
50
330
5
100
AcDbSymbolTableRecord
100
AcDbTextStyleTableRecord
  2
LiberationSans-BoldItalic
 70
0
 40
0.0
 41
1.0
 50
0.0
 71
0
 42
2.5
  3
LiberationSans-BoldItalic.ttf
  4

  0
STYLE
  5
51
330
5
100
AcDbSymbolTableRecord
100
AcDbTextStyleTableRecord
  2
LiberationSans-Italic
 70
0
 40
0.0
 41
1.0
 50
0.0
 71
0
 42
2.5
  3
LiberationSans-Italic.ttf
  4

  0
STYLE
  5
52
330
5
100
AcDbSymbolTableRecord
100
AcDbTextStyleTableRecord
  2
LiberationSerif
 70
0
 40
0.0
 41
1.0
 50
0.0
 71
0
 42
2.5
  3
LiberationSerif-Regular.ttf
  4

  0
STYLE
  5
53
330
5
100
AcDbSymbolTableRecord
100
AcDbTextStyleTableRecord
  2
LiberationSerif-Bold
 70
0
 40
0.0
 41
1.0
 50
0.0
 71
0
 42
2.5
  3
LiberationSerif-Bold.ttf
  4

  0
STYLE
  5
54
330
5
100
AcDbSymbolTableRecord
100
AcDbTextStyleTableRecord
  2
LiberationSerif-BoldItalic
 70
0
 40
0.0
 41
1.0
 50
0.0
 71
0
 42
2.5
  3
LiberationSerif-BoldItalic.ttf
  4

  0
STYLE
  5
55
330
5
100
AcDbSymbolTableRecord
100
AcDbTextStyleTableRecord
  2
LiberationSerif-Italic
 70
0
 40
0.0
 41
1.0
 50
0.0
 71
0
 42
2.5
  3
LiberationSerif-Italic.ttf
  4

  0
STYLE
  5
56
330
5
100
AcDbSymbolTableRecord
100
AcDbTextStyleTableRecord
  2
LiberationMono
 70
0
 40
0.0
 41
1.0
 50
0.0
 71
0
 42
2.5
  3
LiberationMono-Regular.ttf
  4

  0
STYLE
  5
57
330
5
100
AcDbSymbolTableRecord
100
AcDbTextStyleTableRecord
  2
LiberationMono-Bold
 70
0
 40
0.0
 41
1.0
 50
0.0
 71
0
 42
2.5
  3
LiberationMono-Bold.ttf
  4

  0
STYLE
  5
58
330
5
100
AcDbSymbolTableRecord
100
AcDbTextStyleTableRecord
  2
LiberationMono-BoldItalic
 70
0
 40
0.0
 41
1.0
 50
0.0
 71
0
 42
2.5
  3
LiberationMono-BoldItalic.ttf
  4

  0
STYLE
  5
59
330
5
100
AcDbSymbolTableRecord
100
AcDbTextStyleTableRecord
  2
LiberationMono-Italic
 70
0
 40
0.0
 41
1.0
 50
0.0
 71
0
 42
2.5
  3
LiberationMono-Italic.ttf
  4

  0
STYLE
  5
8A
330
5
100
AcDbSymbolTableRecord
100
AcDbTextStyleTableRecord
  2
JP
 70
0
 40
0.0
 41
1.0
 50
0.0
 71
0
 42
2.5
  3
ipag.ttf
  4

  0
ENDTAB
  0
TABLE
  2
VIEW
  5
7
330
0
100
AcDbSymbolTable
 70
0
  0
ENDTAB
  0
TABLE
  2
UCS
  5
6
330
0
100
AcDbSymbolTable
 70
0
  0
ENDTAB
  0
TABLE
  2
APPID
  5
3
330
0
100
AcDbSymbolTable
 70
4
  0
APPID
  5
2A
330
3
100
AcDbSymbolTableRecord
100
AcDbRegAppTableRecord
  2
ACAD
 70
0
  0
APPID
  5
8C
330
3
100
AcDbSymbolTableRecord
100
AcDbRegAppTableRecord
  2
AcAecLayerStandard
 70
0
  0
APPID
  5
177
330
3
100
AcDbSymbolTableRecord
100
AcDbRegAppTableRecord
  2
HATCHBACKGROUNDCOLOR
 70
0
  0
APPID
  5
178
330
3
100
AcDbSymbolTableRecord
100
AcDbRegAppTableRecord
  2
EZDXF
 70
0
  0
ENDTAB
  0
TABLE
  2
DIMSTYLE
  5
4
330
0
100
AcDbSymbolTable
 70
13
100
AcDbDimStyleTable
  0
DIMSTYLE
105
2B
330
4
100
AcDbSymbolTableRecord
100
AcDbDimStyleTableRecord
  2
Standard
 70
0
 40
1.0
 41
2.5
 42
0.625
 43
3.75
 44
1.25
 45
0.0
 46
0.0
 47
0.0
 48
0.0
 49
2.5
140
2.5
141
2.5
142
0.0
143
0.03937007874
144
1.0
145
0.0
146
1.0
147
0.625
148
0.0
 69
0
 70
0
 71
0
 72
0
 73
0
 74
0
 75
0
 76
0
 77
1
 78
8
 79
3
170
0
171
3
172
1
173
0
174
0
175
0
176
0
177
0
178
0
179
2
271
2
272
2
273
2
274
3
275
0
276
0
277
2
278
44
279
0
280
0
281
0
282
0
283
0
284
8
285
0
286
0
288
0
289
3
290
0
371
-2
372
-2
  0
DIMSTYLE
105
73
330
4
100
AcDbSymbolTableRecord
100
AcDbDimStyleTableRecord
  2
EZDXF
 70
0
 40
1.0
 41
0.175
 42
0.125
 43
3.75
 44
0.375
 45
0.0
 46
0.0
 47
0.0
 48
0.0
 49
2.5
140
0.25
141
2.5
142
0.0
143
0.03937007874
144
100.0
145
0.0
146
0.5
147
0.1
148
0.0
 69
0
 70
0
 71
0
 72
0
 73
0
 74
0
 75
0
 76
0
 77
1
 78
12
 79
3
170
0
171
3
172
1
173
0
174
0
175
0
176
0
177
0
178
0
179
2
271
2
272
2
273
2
274
3
275
0
276
0
277
2
278
46
279
2
280
0
281
0
282
0
283
0
284
8
285
0
286
0
288
1
289
3
290
0
340
4C
342
74
371
-2
372
-2
  0
DIMSTYLE
105
7C
330
4
100
AcDbSymbolTableRecord
100
AcDbDimStyleTableRecord
  2
EZ_M_100_H25_CM
 70
0
 40
1.0
 41
0.25
 42
0.125
 43
3.75
 44
0.375
 45
0.0
 46
0.0
 47
0.0
 48
0.0
 49
2.5
140
0.25
141
2.5
142
0.125
143
0.03937007874
144
100.0
145
0.0
146
0.5
147
0.1
148
0.0
 69
0
 70
0
 71
0
 72
0
 73
0
 74
0
 75
0
 76
0
 77
1
 78
12
 79
3
170
0
171
3
172
1
173
0
174
0
175
0
176
0
177
0
178
0
179
2
271
2
272
2
273
2
274
3
275
0
276
0
277
2
278
46
279
2
280
0
281
0
282
0
283
0
284
8
285
0
286
0
288
1
289
3
290
0
340
4C
371
-2
372
-2
  0
DIMSTYLE
105
7D
330
4
100
AcDbSymbolTableRecord
100
AcDbDimStyleTableRecord
  2
EZ_M_50_H25_CM
 70
0
 40
1.0
 41
0.125
 42
0.0625
 43
3.75
 44
0.1875
 45
0.0
 46
0.0
 47
0.0
 48
0.0
 49
2.5
140
0.125
141
2.5
142
0.0625
143
0.03937007874
144
100.0
145
0.0
146
0.5
147
0.05
148
0.0
 69
0
 70
0
 71
0
 72
0
 73
0
 74
0
 75
0
 76
0
 77
1
 78
12
 79
3
170
0
171
3
172
1
173
0
174
0
175
0
176
0
177
0
178
0
179
2
271
2
272
2
273
2
274
3
275
0
276
0
277
2
278
46
279
2
280
0
281
0
282
0
283
0
284
8
285
0
286
0
288
1
289
3
290
0
340
4C
371
-2
372
-2
  0
DIMSTYLE
105
7E
330
4
100
AcDbSymbolTableRecord
100
AcDbDimStyleTableRecord
  2
EZ_M_25_H25_CM
 70
0
 40
1.0
 41
0.0625
 42
0.03125
 43
3.75
 44
0.09375
 45
0.0
 46
0.0
 47
0.0
 48
0.0
 49
2.5
140
0.0625
141
2.5
142
0.03125
143
0.03937007874
144
100.0
145
0.0
146
0.5
147
0.025
148
0.0
 69
0
 70
0
 71
0
 72
0
 73
0
 74
0
 75
0
 76
0
 77
1
 78
12
 79
3
170
0
171
3
172
1
173
0
174
0
175
0
176
0
177
0
178
0
179
2
271
2
272
2
273
2
274
3
275
0
276
0
277
2
278
46
279
2
280
0
281
0
282
0
283
0
284
8
285
0
286
0
288
1
289
3
290
0
340
4C
371
-2
372
-2
  0
DIMSTYLE
105
7F
330
4
100
AcDbSymbolTableRecord
100
AcDbDimStyleTableRecord
  2
EZ_M_20_H25_CM
 70
0
 40
1.0
 41
0.05
 42
0.025
 43
3.75
 44
0.07500000000000001
 45
0.0
 46
0.0
 47
0.0
 48
0.0
 49
2.5
140
0.05
141
2.5
142
0.025
143
0.03937007874
144
100.0
145
0.0
146
0.5
147
0.020000000000000004
148
0.0
 69
0
 70
0
 71
0
 72
0
 73
0
 74
0
 75
0
 76
0
 77
1
 78
12
 79
3
170
0
171
3
172
1
173
0
174
0
175
0
176
0
177
0
178
0
179
2
271
2
272
2
273
2
274
3
275
0
276
0
277
2
278
46
279
2
280
0
281
0
282
0
283
0
284
8
285
0
286
0
288
1
289
3
290
0
340
4C
371
-2
372
-2
  0
DIMSTYLE
105
80
330
4
100
AcDbSymbolTableRecord
100
AcDbDimStyleTableRecord
  2
EZ_M_10_H25_CM
 70
0
 40
1.0
 41
0.025
 42
0.0125
 43
3.75
 44
0.037500000000000006
 45
0.0
 46
0.0
 47
0.0
 48
0.0
 49
2.5
140
0.025
141
2.5
142
0.0125
143
0.03937007874
144
100.0
145
0.0
146
0.5
147
0.010000000000000002
148
0.0
 69
0
 70
0
 71
0
 72
0
 73
0
 74
0
 75
0
 76
0
 77
1
 78
12
 79
3
170
0
171
3
172
1
173
0
174
0
175
0
176
0
177
0
178
0
179
2
271
2
272
2
273
2
274
3
275
0
276
0
277
2
278
46
279
2
280
0
281
0
282
0
283
0
284
8
285
0
286
0
288
1
289
3
290
0
340
4C
371
-2
372
-2
  0
DIMSTYLE
105
81
330
4
100
AcDbSymbolTableRecord
100
AcDbDimStyleTableRecord
  2
EZ_M_5_H25_CM
 70
0
 40
1.0
 41
0.0125
 42
0.00625
 43
3.75
 44
0.018750000000000003
 45
0.0
 46
0.0
 47
0.0
 48
0.0
 49
2.5
140
0.0125
141
2.5
142
0.00625
143
0.03937007874
144
100.0
145
0.0
146
0.5
147
0.005000000000000001
148
0.0
 69
0
 70
0
 71
0
 72
0
 73
0
 74
0
 75
0
 76
0
 77
1
 78
12
 79
3
170
0
171
3
172
1
173
0
174
0
175
0
176
0
177
0
178
0
179
2
271
2
272
2
273
2
274
3
275
0
276
0
277
2
278
46
279
2
280
0
281
0
282
0
283
0
284
8
285
0
286
0
288
1
289
3
290
0
340
4C
371
-2
372
-2
  0
DIMSTYLE
105
82
330
4
100
AcDbSymbolTableRecord
100
AcDbDimStyleTableRecord
  2
EZ_M_1_H25_CM
 70
0
 40
1.0
 41
0.0025
 42
0.00125
 43
3.75
 44
0.00375
 45
0.0
 46
0.0
 47
0.0
 48
0.0
 49
2.5
140
0.0025
141
2.5
142
0.00125
143
0.03937007874
144
100.0
145
0.0
146
0.5
147
0.001
148
0.0
 69
0
 70
0
 71
0
 72
0
 73
0
 74
0
 75
0
 76
0
 77
1
 78
12
 79
3
170
0
171
3
172
1
173
0
174
0
175
0
176
0
177
0
178
0
179
2
271
2
272
2
273
2
274
3
275
0
276
0
277
2
278
46
279
2
280
0
281
0
282
0
283
0
284
8
285
0
286
0
288
1
289
3
290
0
340
4C
371
-2
372
-2
  0
DIMSTYLE
105
83
330
4
100
AcDbSymbolTableRecord
100
AcDbDimStyleTableRecord
  2
EZ_RADIUS
 70
0
 40
1.0
 41
0.25
 42
0.125
 43
3.75
 44
0.375
 45
0.0
 46
0.0
 47
0.0
 48
0.0
 49
2.5
140
0.25
141
0.0
142
0.0
143
0.03937007874
144
100.0
145
0.0
146
0.5
147
0.1
148
0.0
 69
0
 70
0
 71
0
 72
0
 73
0
 74
0
 75
0
 76
0
 77
1
 78
12
 79
3
170
0
171
3
172
0
173
0
174
0
175
0
176
0
177
0
178
0
179
2
271
2
272
2
273
2
274
3
275
0
276
0
277
2
278
46
279
1
280
0
281
0
282
0
283
0
284
8
285
0
286
0
288
1
289
3
290
0
340
4C
342
84
371
-2
372
-2
  0
DIMSTYLE
105
88
330
4
100
AcDbSymbolTableRecord
100
AcDbDimStyleTableRecord
  2
EZ_RADIUS_INSIDE
 70
0
 40
1.0
 41
0.25
 42
0.125
 43
3.75
 44
0.375
 45
0.0
 46
0.0
 47
0.0
 48
0.0
 49
2.5
140
0.25
141
0.0
142
0.0
143
0.03937007874
144
100.0
145
0.0
146
0.5
147
0.1
148
0.0
 69
0
 70
0
 71
0
 72
0
 73
0
 74
0
 75
0
 76
0
 77
0
 78
12
 79
3
170
0
171
3
172
0
173
0
174
1
175
0
176
0
177
0
178
0
179
2
271
2
272
2
273
2
274
3
275
0
276
0
277
2
278
46
279
0
280
0
281
0
282
0
283
0
284
8
285
0
286
0
288
1
289
0
290
0
340
4C
342
84
371
-2
372
-2
  0
DIMSTYLE
105
89
330
4
100
AcDbSymbolTableRecord
100
AcDbDimStyleTableRecord
  2
EZ_CURVED
 70
0
 40
1.0
 41
0.25
 42
0.125
 43
3.75
 44
0.375
 45
0.0
 46
0.0
 47
0.0
 48
0.0
 49
2.5
140
0.25
141
2.5
142
0.0
143
0.03937007874
144
100.0
145
0.0
146
0.5
147
0.1
148
0.0
 69
0
 70
0
 71
0
 72
0
 73
0
 74
0
 75
0
 76
0
 77
1
 78
12
 79
2
 90
2
170
0
171
3
172
1
173
0
174
0
175
0
176
0
177
0
178
0
179
2
271
2
272
2
273
2
274
3
275
0
276
0
277
2
278
46
279
2
280
0
281
0
282
0
283
0
284
8
285
0
286
0
288
1
289
3
290
0
340
4C
371
-2
372
-2
  0
DIMSTYLE
105
B4
330
4
100
AcDbSymbolTableRecord
100
AcDbDimStyleTableRecord
  2
JIS
 70
0
 40
500.0
 41
1.0
 42
1.0
 43
3.75
 44
1.0
 45
0.0
 46
0.0
 47
0.0
 48
0.0
 49
2.5
140
2.0
141
2.5
142
0.0
143
0.03937007874
144
1.0
145
0.0
146
1.0
147
0.6
148
0.0
 69
0
 70
0
 71
0
 72
0
 73
0
 74
0
 75
0
 76
0
 77
1
 78
8
 79
3
170
0
171
3
172
1
173
0
174
0
175
0
176
7
177
7
178
7
179
2
271
0
272
2
273
2
274
3
275
0
276
0
277
2
278
44
279
0
280
0
281
0
282
0
283
0
284
8
285
0
286
0
288
0
289
3
290
0
340
8A
342
17A
371
13
372
13
  0
ENDTAB
  0
TABLE
  2
BLOCK_RECORD
  5
9
330
0
100
AcDbSymbolTable
 70
6
  0
BLOCK_RECORD
  5
17
330
9
100
AcDbSymbolTableRecord
100
AcDbBlockTableRecord
  2
*Model_Space
340
1A
 70
0
280
1
281
0
  0
BLOCK_RECORD
  5
1B
330
9
100
AcDbSymbolTableRecord
100
AcDbBlockTableRecord
  2
*Paper_Space
340
1E
 70
0
280
1
281
0
  0
BLOCK_RECORD
  5
74
330
9
100
AcDbSymbolTableRecord
100
AcDbBlockTableRecord
  2
_ARCHTICK
340
0
 70
0
280
1
281
0
  0
BLOCK_RECORD
  5
78
330
9
100
AcDbSymbolTableRecord
100
AcDbBlockTableRecord
  2
_CLOSEDFILLED
340
0
 70
0
280
1
281
0
  0
BLOCK_RECORD
  5
84
330
9
100
AcDbSymbolTableRecord
100
AcDbBlockTableRecord
  2
_CLOSEDBLANK
340
0
 70
0
280
1
281
0
  0
BLOCK_RECORD
  5
17A
330
9
100
AcDbSymbolTableRecord
100
AcDbBlockTableRecord
  2
_DOT
340
0
 70
0
280
1
281
0
  0
ENDTAB
  0
ENDSEC
  0
SECTION
  2
BLOCKS
  0
BLOCK
  5
18
330
17
100
AcDbEntity
  8
0
100
AcDbBlockBegin
  2
*Model_Space
 70
0
 10
0.0
 20
0.0
 30
0.0
  3
*Model_Space
  1

  0
ENDBLK
  5
19
330
17
100
AcDbEntity
  8
0
100
AcDbBlockEnd
  0
BLOCK
  5
1C
330
1B
100
AcDbEntity
  8
0
100
AcDbBlockBegin
  2
*Paper_Space
 70
0
 10
0.0
 20
0.0
 30
0.0
  3
*Paper_Space
  1

  0
ENDBLK
  5
1D
330
1B
100
AcDbEntity
  8
0
100
AcDbBlockEnd
  0
BLOCK
  5
75
330
74
100
AcDbEntity
  8
0
100
AcDbBlockBegin
  2
_ARCHTICK
 70
0
 10
0.0
 20
0.0
 30
0.0
  3
_ARCHTICK
  1

  0
LWPOLYLINE
  5
77
330
74
100
AcDbEntity
  8
0
  6
BYBLOCK
 62
0
100
AcDbPolyline
 90
2
 70
0
 43
0.15
 10
-0.5
 20
-0.5
 10
0.5
 20
0.5
  0
ENDBLK
  5
76
330
74
100
AcDbEntity
  8
0
100
AcDbBlockEnd
  0
BLOCK
  5
79
330
78
100
AcDbEntity
  8
0
100
AcDbBlockBegin
  2
_CLOSEDFILLED
 70
0
 10
0.0
 20
0.0
 30
0.0
  3
_CLOSEDFILLED
  1

  0
SOLID
  5
7B
330
78
100
AcDbEntity
  8
0
  6
BYBLOCK
 62
0
100
AcDbTrace
 10
-1.0
 20
0.16439898372402537
 30
0.0
 11
0.0
 21
0.0
 31
0.0
 12
-1.0
 22
-0.16439898372402537
 32
0.0
 13
-1.0
 23
-0.16439898372402537
 33
0.0
  0
ENDBLK
  5
7A
330
78
100
AcDbEntity
  8
0
100
AcDbBlockEnd
  0
BLOCK
  5
85
330
84
100
AcDbEntity
  8
0
100
AcDbBlockBegin
  2
_CLOSEDBLANK
 70
0
 10
0.0
 20
0.0
 30
0.0
  3
_CLOSEDBLANK
  1

  0
LWPOLYLINE
  5
87
330
84
100
AcDbEntity
  8
0
  6
BYBLOCK
 62
0
100
AcDbPolyline
 90
3
 70
1
 10
-1.0
 20
0.16439898372402537
 10
0.0
 20
0.0
 10
-1.0
 20
-0.16439898372402537
  0
ENDBLK
  5
86
330
84
100
AcDbEntity
  8
0
100
AcDbBlockEnd
  0
BLOCK
  5
17B
330
17A
100
AcDbEntity
  8
0
100
AcDbBlockBegin
  2
_DOT
 70
0
 10
0.0
 20
0.0
 30
0.0
  3
_DOT
  1

  0
LINE
  5
17D
330
17A
100
AcDbEntity
  8
0
  6
BYBLOCK
 62
0
100
AcDbLine
 10
-0.5
 20
0.0
 30
0.0
 11
-1.0
 21
0.0
 31
0.0
  0
LWPOLYLINE
  5
17E
330
17A
100
AcDbEntity
  8
0
  6
BYBLOCK
 62
0
100
AcDbPolyline
 90
2
 70
1
 43
0.5
 10
-0.25
 20
0.0
 42
1.0
 10
0.25
 20
0.0
 42
1.0
  0
ENDBLK
  5
17C
330
17A
100
AcDbEntity
  8
0
100
AcDbBlockEnd
  0
ENDSEC
  0
SECTION
  2
ENTITIES
  0
LWPOLYLINE
  5
B5
330
17
100
AcDbEntity
  8
G-FRAME
370
0
100
AcDbPolyline
 90
4
 70
1
 10
0.0
 20
0.0
 10
210000.0
 20
0.0
 10
210000.0
 20
148500.0
 10
0.0
 20
148500.0
  0
LWPOLYLINE
  5
B6
330
17
100
AcDbEntity
  8
G-FRAME
100
AcDbPolyline
 90
4
 70
1
 10
5000.0
 20
5000.0
 10
205000.0
 20
5000.0
 10
205000.0
 20
143500.0
 10
5000.0
 20
143500.0
  0
LWPOLYLINE
  5
B7
330
17
100
AcDbEntity
  8
G-TITLE
370
50
100
AcDbPolyline
 90
4
 70
1
 10
110000.0
 20
5000.0
 10
205000.0
 20
5000.0
 10
205000.0
 20
24000.0
 10
110000.0
 20
24000.0
  0
LINE
  5
B8
330
17
100
AcDbEntity
  8
G-TITLE
100
AcDbLine
 10
110000.0
 20
19000.0
 30
0.0
 11
205000.0
 21
19000.0
 31
0.0
  0
LINE
  5
B9
330
17
100
AcDbEntity
  8
G-TITLE
100
AcDbLine
 10
110000.0
 20
13500.0
 30
0.0
 11
205000.0
 21
13500.0
 31
0.0
  0
LINE
  5
BA
330
17
100
AcDbEntity
  8
G-TITLE
100
AcDbLine
 10
110000.0
 20
9500.0
 30
0.0
 11
205000.0
 21
9500.0
 31
0.0
  0
LINE
  5
BB
330
17
100
AcDbEntity
  8
G-TITLE
100
AcDbLine
 10
121000.0
 20
5000.0
 30
0.0
 11
121000.0
 21
24000.0
 31
0.0
  0
TEXT
  5
BC
330
17
100
AcDbEntity
  8
G-TITLE
100
AcDbText
 10
111000.0
 20
20750.0
 30
0.0
 40
1100.0
  1
工事名称
  7
JP
 11
111000.0
 21
20750.0
 31
0.0
100
AcDbText
  0
TEXT
  5
BD
330
17
100
AcDbEntity
  8
G-TITLE
100
AcDbText
 10
122000.0
 20
20500.0
 30
0.0
 40
1700.0
  1
河沿要（仮称）新築計画
  7
JP
 11
122000.0
 21
20500.0
 31
0.0
100
AcDbText
  0
TEXT
  5
BE
330
17
100
AcDbEntity
  8
G-TITLE
100
AcDbText
 10
111000.0
 20
15500.0
 30
0.0
 40
1100.0
  1
図面名称
  7
JP
 11
111000.0
 21
15500.0
 31
0.0
100
AcDbText
  0
TEXT
  5
BF
330
17
100
AcDbEntity
  8
G-TITLE
100
AcDbText
 10
122000.0
 20
15100.0
 30
0.0
 40
2200.0
  1
防犯計画（強盗対策）
  7
JP
 11
122000.0
 21
15100.0
 31
0.0
100
AcDbText
  0
TEXT
  5
C0
330
17
100
AcDbEntity
  8
G-TITLE
100
AcDbText
 10
111000.0
 20
10800.0
 30
0.0
 40
1100.0
  1
縮尺
  7
JP
 11
111000.0
 21
10800.0
 31
0.0
100
AcDbText
  0
LINE
  5
C1
330
17
100
AcDbEntity
  8
G-TITLE
100
AcDbLine
 10
121000.0
 20
9500.0
 30
0.0
 11
121000.0
 21
13500.0
 31
0.0
  0
TEXT
  5
C2
330
17
100
AcDbEntity
  8
G-TITLE
100
AcDbText
 10
121750.0
 20
10800.0
 30
0.0
 40
1000.0
  1
A3
  7
JP
 11
121750.0
 21
10800.0
 31
0.0
100
AcDbText
  0
TEXT
  5
C3
330
17
100
AcDbEntity
  8
G-TITLE
100
AcDbText
 10
126000.0
 20
10700.0
 30
0.0
 40
1300.0
  1
1:500
  7
JP
 11
126000.0
 21
10700.0
 31
0.0
100
AcDbText
  0
LINE
  5
C4
330
17
100
AcDbEntity
  8
G-TITLE
100
AcDbLine
 10
141000.0
 20
9500.0
 30
0.0
 11
141000.0
 21
13500.0
 31
0.0
  0
TEXT
  5
C5
330
17
100
AcDbEntity
  8
G-TITLE
100
AcDbText
 10
141750.0
 20
10800.0
 30
0.0
 40
1000.0
  1
日付
  7
JP
 11
141750.0
 21
10800.0
 31
0.0
100
AcDbText
  0
TEXT
  5
C6
330
17
100
AcDbEntity
  8
G-TITLE
100
AcDbText
 10
146000.0
 20
10700.0
 30
0.0
 40
1300.0
  1
2026-10-03
  7
JP
 11
146000.0
 21
10700.0
 31
0.0
100
AcDbText
  0
LINE
  5
C7
330
17
100
AcDbEntity
  8
G-TITLE
100
AcDbLine
 10
166000.0
 20
9500.0
 30
0.0
 11
166000.0
 21
13500.0
 31
0.0
  0
TEXT
  5
C8
330
17
100
AcDbEntity
  8
G-TITLE
100
AcDbText
 10
166750.0
 20
10800.0
 30
0.0
 40
1000.0
  1
設計
  7
JP
 11
166750.0
 21
10800.0
 31
0.0
100
AcDbText
  0
TEXT
  5
C9
330
17
100
AcDbEntity
  8
G-TITLE
100
AcDbText
 10
171000.0
 20
10700.0
 30
0.0
 40
1300.0
  1
設計検討（仮）
  7
JP
 11
171000.0
 21
10700.0
 31
0.0
100
AcDbText
  0
TEXT
  5
CA
330
17
100
AcDbEntity
  8
G-TITLE
100
AcDbText
 10
111000.0
 20
6700.0
 30
0.0
 40
1100.0
  1
段階
  7
JP
 11
111000.0
 21
6700.0
 31
0.0
100
AcDbText
  0
TEXT
  5
CB
330
17
100
AcDbEntity
  8
G-TITLE
100
AcDbText
 10
122000.0
 20
6700.0
 30
0.0
 40
950.0
  1
基本計画　／　本図は建築基準法令に基づく計画段階の検討図であり、確認申請・構造計算・関係機関協議により確定する
  7
JP
 11
122000.0
 21
6700.0
 31
0.0
100
AcDbText
  0
LINE
  5
CC
330
17
100
AcDbEntity
  8
G-TITLE
100
AcDbLine
 10
188000.0
 20
9500.0
 30
0.0
 11
188000.0
 21
19000.0
 31
0.0
  0
TEXT
  5
CD
330
17
100
AcDbEntity
  8
G-TITLE
100
AcDbText
 10
188750.0
 20
17500.0
 30
0.0
 40
1000.0
  1
図番
  7
JP
 11
188750.0
 21
17500.0
 31
0.0
100
AcDbText
  0
TEXT
  5
CE
330
17
100
AcDbEntity
  8
G-TITLE
100
AcDbText
 10
196500.0
 20
14000.0
 30
0.0
 40
3000.0
  1
S-04
  7
JP
 72
1
 11
196500.0
 21
14000.0
 31
0.0
100
AcDbText
 73
1
  0
LWPOLYLINE
  5
CF
330
17
100
AcDbEntity
  8
A-NEIGH
370
9
100
AcDbPolyline
 90
5
 70
1
 10
91425.10090234884
 20
30837.0267696925
 10
91425.10090234884
 20
119162.97323030749
 10
3574.8990976511523
 20
119162.97323030749
 10
3574.8990976511523
 20
30837.0267696925
 10
91425.10090234884
 20
30837.0267696925
  0
LWPOLYLINE
  5
D0
330
17
100
AcDbEntity
  8
A-NEIGH
100
AcDbPolyline
 90
3
 70
0
 10
13619.90496804292
 20
100059.16145247969
 10
12755.72460055268
 20
96647.33022974248
 10
3574.8990976511523
 20
98682.49131828241
  0
LWPOLYLINE
  5
D1
330
17
100
AcDbEntity
  8
A-NEIGH
100
AcDbPolyline
 90
2
 70
0
 10
3574.8990976511523
 20
102252.23626546821
 10
13619.90496804292
 20
100059.16145247969
  0
LWPOLYLINE
  5
D2
330
17
100
AcDbEntity
  8
A-NEIGH
100
AcDbPolyline
 90
5
 70
0
 10
26797.750295196547
 20
58367.96223089798
 10
26599.10664038801
 20
55848.07320588035
 10
23314.876376468786
 20
56125.97889772042
 10
23503.74878668315
 20
58643.74124009109
 10
26797.750295196547
 20
58367.96223089798
  0
LWPOLYLINE
  5
D3
330
17
100
AcDbEntity
  8
A-NEIGH
100
AcDbPolyline
 90
5
 70
0
 10
45075.95538886929
 20
60483.55164135449
 10
44744.30785176129
 20
56317.72520340365
 10
41954.617520125816
 20
56580.456727168064
 10
42286.26505723382
 20
60746.283165118904
 10
45075.95538886929
 20
60483.55164135449
  0
LWPOLYLINE
  5
D4
330
17
100
AcDbEntity
  8
A-NEIGH
100
AcDbPolyline
 90
5
 70
0
 10
49052.33463751199
 20
54768.46563404334
 10
49324.37758259555
 20
45524.86824795873
 10
44756.32073482117
 20
45400.54352997527
 10
44367.02285460758
 20
54618.62072429628
 10
49052.33463751199
 20
54768.46563404334
  0
LWPOLYLINE
  5
D5
330
17
100
AcDbEntity
  8
A-NEIGH
100
AcDbPolyline
 90
7
 70
0
 10
53202.41212829341
 20
52816.40087576573
 10
53047.16429506485
 20
51789.9028921935
 10
54953.13177002175
 20
51590.684458291194
 10
54523.77178697205
 20
42184.19467703083
 10
49670.164685410404
 20
42243.33944578025
 10
50295.46686152789
 20
53053.61220776655
 10
53202.41212829341
 20
52816.40087576573
  0
LWPOLYLINE
  5
D6
330
17
100
AcDbEntity
  8
A-NEIGH
100
AcDbPolyline
 90
4
 70
0
 10
91425.10090234884
 20
98311.12191464932
 10
86958.09622540296
 20
99022.14501149138
 10
87416.76994223516
 20
101475.81948490615
 10
91425.10090234884
 20
100837.80450651655
  0
LWPOLYLINE
  5
D7
330
17
100
AcDbEntity
  8
A-NEIGH
100
AcDbPolyline
 90
2
 70
0
 10
28823.271821658556
 20
31381.39404326363
 10
28814.239829155904
 20
30837.0267696925
  0
LWPOLYLINE
  5
D8
330
17
100
AcDbEntity
  8
A-NEIGH
100
AcDbPolyline
 90
3
 70
0
 10
24338.54788582713
 20
30837.0267696925
 10
24346.949717250624
 20
31399.84445217379
 10
28823.271821658556
 20
31381.39404326363
  0
LWPOLYLINE
  5
D9
330
17
100
AcDbEntity
  8
A-NEIGH
100
AcDbPolyline
 90
11
 70
0
 10
21749.23560293591
 20
68444.81686922777
 10
22011.967126700318
 20
69494.70836191662
 10
27138.07699662054
 20
68747.78292955642
 10
26089.852363303635
 20
62184.72532519946
 10
20668.420995001976
 20
63112.993561645584
 10
19959.488460740267
 20
58987.86148353399
 10
14420.802157308575
 20
59890.609528216526
 10
14500.06419434011
 20
60654.95076711811
 10
11045.41192911669
 20
61151.617382048826
 10
12488.222410309925
 20
69898.54815320272
 10
21749.23560293591
 20
68444.81686922777
  0
LWPOLYLINE
  5
DA
330
17
100
AcDbEntity
  8
A-NEIGH
100
AcDbPolyline
 90
11
 70
0
 10
35120.09174977908
 20
67998.15603545544
 10
34408.45775377663
 20
62756.91791305216
 10
33904.14657689871
 20
62769.96539848085
 10
33577.90196327219
 20
60836.3510491134
 10
30502.661377849457
 20
61282.5520596107
 10
30095.028044544444
 20
58594.36771593584
 10
27162.562586015338
 20
58948.83398306669
 10
27712.971046213985
 20
63285.08242232173
 10
27065.884742442435
 20
63389.864651116855
 10
27708.6027251013
 20
68994.7655061514
 10
35120.09174977908
 20
67998.15603545544
  0
LWPOLYLINE
  5
DB
330
17
100
AcDbEntity
  8
A-NEIGH
100
AcDbPolyline
 90
13
 70
0
 10
30989.09692491098
 20
56179.260919713335
 10
31207.85784800163
 20
54609.88408207091
 10
33398.800797652
 20
54841.11771149647
 10
34335.80567632351
 20
47103.384073192174
 10
24524.384023498882
 20
45960.66575685871
 10
24369.136190270336
 20
46673.966612233104
 10
23018.520275718565
 20
46625.62769044666
 10
22478.91766248288
 20
50233.401106251644
 10
24048.294500125292
 20
50452.1620293423
 10
23897.87481128446
 20
52271.79768441422
 10
24871.205728682522
 20
52360.83096603992
 10
24468.975318858997
 20
55384.45638884168
 10
30989.09692491098
 20
56179.260919713335
  0
LWPOLYLINE
  5
DC
330
17
100
AcDbEntity
  8
A-NEIGH
100
AcDbPolyline
 90
6
 70
0
 10
79375.2227254237
 20
119162.97323030749
 10
79250.07866624682
 20
117321.50197581504
 10
70681.78923743809
 20
117943.527911098
 10
70526.54140420955
 20
116917.02992752579
 10
67007.80127003025
 20
117143.89523583866
 10
67171.98151472321
 20
119162.97323030749
  0
LWPOLYLINE
  5
DD
330
17
100
AcDbEntity
  8
A-NEIGH
100
AcDbPolyline
 90
6
 70
0
 10
91425.10090234884
 20
61459.35032401411
 10
85932.28797674325
 20
61556.951598978725
 10
86007.1816926621
 20
69770.77476065658
 10
88980.34151103045
 20
69793.59349067946
 10
89034.08335629838
 20
70675.18966471107
 10
91425.10090234884
 20
70644.87156086761
  0
LWPOLYLINE
  5
DE
330
17
100
AcDbEntity
  8
A-NEIGH
100
AcDbPolyline
 90
2
 70
0
 10
19401.60787232254
 20
31316.21409402958
 10
19409.103111777364
 20
30837.0267696925
  0
LWPOLYLINE
  5
DF
330
17
100
AcDbEntity
  8
A-NEIGH
100
AcDbPolyline
 90
3
 70
0
 10
16783.635582772262
 20
30837.0267696925
 10
16782.339541991267
 20
31360.18469470334
 10
19401.60787232254
 20
31316.21409402958
  0
LWPOLYLINE
  5
E0
330
17
100
AcDbEntity
  8
A-ROAD
100
AcDbPolyline
 90
9
 70
0
 10
3574.8990976511523
 20
115087.18469575673
 10
9328.08695273667
 20
113524.45380443006
 10
21017.254427013842
 20
111729.30373875293
 10
44171.31057317731
 20
109686.71127320579
 10
55228.56591175859
 20
110230.68220755417
 10
64054.75871994402
 20
111292.01180420915
 10
81514.88072944724
 20
114345.06591661216
 10
83438.72383422051
 20
115756.4934592853
 10
83826.69857634413
 20
119162.97323030749
  0
LWPOLYLINE
  5
E1
330
17
100
AcDbEntity
  8
A-ROAD
100
AcDbPolyline
 90
6
 70
0
 10
34626.98876522978
 20
107363.79904362475
 10
33599.91600256378
 20
106393.16958796742
 10
20142.72803583564
 20
107189.4685444829
 10
18807.8610684533
 20
108761.54684386606
 10
3949.5915827399767
 20
110869.894037741
 10
3574.8990976511523
 20
110975.32406240457
  0
LWPOLYLINE
  5
E2
330
17
100
AcDbEntity
  8
A-ROAD
100
AcDbPolyline
 90
12
 70
0
 10
3574.8990976511523
 20
39821.14227108667
 10
69188.80054135832
 20
39788.17054672165
 10
71122.41489072576
 20
41201.72477204176
 10
72488.20497335317
 20
43484.40246505857
 10
75689.20722449383
 20
76080.81460793392
 10
80335.89385229659
 20
96956.56138219326
 10
82418.72085440795
 20
110192.28696409002
 10
81017.63933542275
 20
111504.33520144949
 10
64388.073116423955
 20
108632.04911403861
 10
55559.75362559156
 20
107580.4907619778
 10
49213.33026167829
 20
107069.10980224647
 10
37651.18896712533
 20
107152.10790338754
  0
LWPOLYLINE
  5
E3
330
17
100
AcDbEntity
  8
A-ROAD
100
AcDbPolyline
 90
4
 70
0
 10
37651.18896712533
 20
107152.10790338754
 10
37240.27939298579
 20
100482.14138758849
 10
34216.07919109025
 20
100693.8325278257
 10
34626.98876522978
 20
107363.79904362475
  0
LWPOLYLINE
  5
E4
330
17
100
AcDbEntity
  8
A-ROAD
100
AcDbPolyline
 90
3
 70
0
 10
5962.2609209589245
 20
30837.0267696925
 10
6153.409584090903
 20
32280.808369202277
 10
3574.8990976511523
 20
32302.61074671639
  0
LWPOLYLINE
  5
E5
330
17
100
AcDbEntity
  8
A-ROAD
100
AcDbPolyline
 90
4
 70
0
 10
91425.10090234884
 20
32069.10841559311
 10
69292.54816778464
 20
32493.36167808013
 10
9253.595582183454
 20
32331.27397363568
 10
9053.705105102319
 20
30837.0267696925
  0
LWPOLYLINE
  5
E6
330
17
100
AcDbEntity
  8
A-ROAD
100
AcDbPolyline
 90
5
 70
0
 10
89489.10543579479
 20
119162.97323030749
 10
88701.6311284591
 20
111559.74390608937
 10
81110.63859279548
 20
75152.54637148781
 10
78134.37496732075
 20
44344.84676843928
 10
91425.10090234884
 20
44153.39917001216
  0
HATCH
  5
E7
330
17
100
AcDbEntity
  8
A-WATER
 62
7
100
AcDbHatch
 10
0.0
 20
0.0
 30
0.0
210
0.0
220
0.0
230
1.0
  2
ANSI31
 70
0
 71
0
 91
1
 92
3
 72
0
 73
1
 93
12
 10
11279.117108645481
 20
106253.03844490516
 10
37398.803467048856
 20
103750.62270433828
 10
54481.64047939837
 20
103364.77349868731
 10
61773.74788629914
 20
104092.21391976858
 10
73860.77744928717
 20
106722.92035406595
 10
74168.5716540035
 20
104180.21259902549
 10
62173.27683438193
 20
101692.28129162171
 10
54527.27793944409
 20
100898.05153984384
 10
37202.28649488729
 20
101220.96243472648
 10
11584.784630714876
 20
103720.10193445886
 10
3574.8990976511523
 20
105029.01591382158
 10
3574.8990976511523
 20
107548.62955226676
 97
0
 75
1
 76
1
 52
0.0
 41
236.2204724409449
 77
0
 78
1
 53
45.0
 43
0.0
 44
0.0
 45
-530.3300858976
 46
530.3300858976
 79
0
 98
0
  0
LWPOLYLINE
  5
E8
330
17
100
AcDbEntity
  8
A-WATER
100
AcDbPolyline
 90
13
 70
1
 10
11279.117108645481
 20
106253.03844490516
 10
37398.803467048856
 20
103750.62270433828
 10
54481.64047939837
 20
103364.77349868731
 10
61773.74788629914
 20
104092.21391976858
 10
73860.77744928717
 20
106722.92035406595
 10
74168.5716540035
 20
104180.21259902549
 10
62173.27683438193
 20
101692.28129162171
 10
54527.27793944409
 20
100898.05153984384
 10
37202.28649488729
 20
101220.96243472648
 10
11584.784630714876
 20
103720.10193445886
 10
3574.8990976511523
 20
105029.01591382158
 10
3574.8990976511523
 20
107548.62955226676
 10
11279.117108645481
 20
106253.03844490516
  0
HATCH
  5
E9
330
17
100
AcDbEntity
  8
A-WATER
 62
7
100
AcDbHatch
 10
0.0
 20
0.0
 30
0.0
210
0.0
220
0.0
230
1.0
  2
ANSI31
 70
0
 71
0
 91
1
 92
3
 72
0
 73
1
 93
4
 10
70586.98606072484
 20
30837.0267696925
 10
68815.9543046284
 20
30837.0267696925
 10
68838.70259534015
 20
31146.022004362865
 10
70601.89494340339
 20
31038.53831382702
 97
0
 75
1
 76
1
 52
0.0
 41
236.2204724409449
 77
0
 78
1
 53
45.0
 43
0.0
 44
0.0
 45
-530.3300858976
 46
530.3300858976
 79
0
 98
0
  0
LWPOLYLINE
  5
EA
330
17
100
AcDbEntity
  8
A-WATER
100
AcDbPolyline
 90
5
 70
1
 10
70586.98606072484
 20
30837.0267696925
 10
68815.9543046284
 20
30837.0267696925
 10
68838.70259534015
 20
31146.022004362865
 10
70601.89494340339
 20
31038.53831382702
 10
70586.98606072484
 20
30837.0267696925
  0
LWPOLYLINE
  5
EB
330
17
100
AcDbEntity
  8
A-HIDDEN
100
AcDbPolyline
 90
17
 70
1
 10
57159.01897611027
 20
98492.71598821552
 10
57026.0150938108
 20
96846.77857528231
 10
68641.8982336317
 20
95905.57780922623
 10
69342.15160357741
 20
95556.51446557688
 10
71713.86257821992
 20
93217.39346555137
 10
72852.2125734407
 20
90855.45373550305
 10
73550.33926073943
 20
88776.3627975012
 10
73868.47948914373
 20
83882.06133610033
 10
73294.67751982846
 20
81393.09542632778
 10
71172.19076024664
 20
77461.778858637
 10
67831.51718931877
 20
74002.18349320712
 10
65885.4301336164
 20
73210.19537989498
 10
55151.14316782713
 20
74097.65430068312
 10
54926.979321255
 20
71695.02021079551
 10
30297.407763462517
 20
73651.85563555147
 10
32412.19248318775
 20
100424.03122120787
 10
57159.01897611027
 20
98492.71598821552
  0
LWPOLYLINE
  5
EC
330
17
100
AcDbEntity
  8
A-HIDDEN
100
AcDbPolyline
 90
9
 70
1
 10
72723.51953434455
 20
101133.19366710709
 10
75465.44572328734
 20
103346.9553467803
 10
79495.56681719798
 20
98513.46551350079
 10
77415.90110010239
 20
96689.46153731618
 10
79087.35870479919
 20
94699.40388094005
 10
74371.1238066497
 20
90694.80297879301
 10
67309.15794889632
 20
99207.68370296186
 10
71414.1727587258
 20
102588.01703136021
 10
72723.51953434455
 20
101133.19366710709
  0
LWPOLYLINE
  5
ED
330
17
100
AcDbEntity
  8
A-SITE
100
AcDbPolyline
 90
17
 70
1
 10
15265.152646063605
 20
101010.82319804246
 10
37188.261884999185
 20
101238.37824126784
 10
54552.33830793266
 20
100923.9740769731
 10
62169.88563772866
 20
101660.84087519225
 10
74209.78331502715
 20
104178.94808501916
 10
73852.27071869929
 20
106762.00533244264
 10
82425.10090234884
 20
110162.97323030749
 10
80295.5443599136
 20
96906.84299058176
 10
75724.90100621725
 20
76057.88092209233
 10
72469.92699817114
 20
43521.36076078829
 10
71136.43950061385
 20
41184.30896550038
 10
69178.16712812347
 20
39837.0267696925
 10
55259.776416550536
 20
39837.02676969251
 10
56216.89856350416
 20
61066.2052087139
 10
39878.80282295852
 20
61603.91105094013
 10
36818.10414860827
 20
68613.3420995225
 10
12574.899097651152
 20
69876.47663600178
  0
HATCH
  5
EE
330
17
100
AcDbEntity
  8
A-CUT-HATCH
 62
7
100
AcDbHatch
 10
0.0
 20
0.0
 30
0.0
210
0.0
220
0.0
230
1.0
  2
ANSI31
 70
0
 71
0
 91
4
 92
3
 72
0
 73
1
 93
30
 10
36818.10414860827
 20
68613.3420995225
 10
12724.783240574765
 20
69868.66727923564
 10
12724.34223957387
 20
69863.56356772708
 10
12574.899097651152
 20
69876.47663600178
 10
12582.703904266073
 20
70026.27344836341
 10
12587.819694160196
 20
70026.00690229892
 10
15265.152646063605
 20
101010.82319804246
 10
37188.261884999185
 20
101238.37824126784
 10
54552.33830793266
 20
100923.9740769731
 10
62169.88563772866
 20
101660.84087519225
 10
74209.78331502715
 20
104178.94808501916
 10
74240.49092469481
 20
104032.12491685932
 10
62200.59324739632
 20
101514.01770703238
 10
62172.59888541787
 20
101647.8679467864
 10
62171.161741716394
 20
101647.64882671376
 10
62184.328146352695
 20
101511.53778096897
 10
54566.78081655668
 20
100774.67098274981
 10
54553.54103904212
 20
100911.54053922457
 10
54552.112165224215
 20
100911.4845500589
 10
54549.622764956104
 20
100773.9986595663
 10
37187.682430685876
 20
101088.36414658537
 10
15402.873215518772
 20
100862.24461451595
 10
12737.703837083809
 20
70018.1975455328
 10
36825.90895522319
 20
68763.13891188413
 10
36818.10414860827
 20
68613.3420995225
 10
36955.57040128483
 20
68673.36733900613
 10
39978.37669801319
 20
61750.71517213243
 10
56221.83256756794
 20
61216.124038765025
 10
56216.89856350416
 20
61066.2052087139
 10
39878.80282295852
 20
61603.91105094013
 97
0
 92
3
 72
0
 73
1
 93
13
 10
56216.89856350416
 20
61066.2052087139
 10
56366.7463447545
 20
61059.4492887654
 10
55597.03244640038
 20
43987.02676969251
 10
59104.44055450648
 20
43987.02676969251
 10
59104.44055450648
 20
43837.02676969251
 10
55590.269663636296
 20
43837.02676969251
 10
55589.963086647665
 20
43830.22682506934
 10
55589.963086647665
 20
43830.22682506934
 10
55409.84962389301
 20
39835.270849744
 10
55260.00184264267
 20
39842.02676969251
 10
55440.1172902594
 20
43837.02676969249
 10
55440.1172902594
 20
43987.02676969251
 10
55446.88007302348
 20
43987.02676969251
 97
0
 92
3
 72
0
 73
1
 93
27
 10
74209.78331502715
 20
104178.94808501916
 10
73852.27071869929
 20
106762.00533244264
 10
82262.83639502629
 20
110098.60051225
 10
82276.99978399731
 20
110186.7652193589
 10
82425.10090234884
 20
110162.97323030749
 10
82480.41439761594
 20
110023.5443335847
 10
82397.41227056312
 20
109990.6161682631
 10
80295.5443599136
 20
96906.84299058176
 10
75724.90100621725
 20
76057.88092209233
 10
72469.92699817114
 20
43521.36076078829
 10
71136.43950061385
 20
41184.30896550038
 10
69182.2840188895
 20
39839.859171205724
 10
69097.26313692496
 20
39963.43687805437
 10
71023.15667009192
 20
41288.44258446569
 10
72323.84521554488
 20
43568.01138869489
 10
72350.75768401327
 20
43837.02676969251
 10
69114.44055450648
 20
43837.02676969251
 10
69114.44055450648
 20
43987.02676969251
 10
72365.76377866587
 20
43987.02676969251
 10
75575.64602824034
 20
76072.81248427162
 10
75712.70553731377
 20
76059.10096449699
 10
75712.92897562227
 20
76060.505507522
 10
75578.38059138655
 20
76090.00206836459
 10
80148.11585776655
 20
96934.82190204179
 10
82235.14776324056
 20
109926.24345020563
 10
74016.9912182431
 20
106665.97980442957
 10
74358.36690049931
 20
104199.51305835333
 97
0
 92
3
 72
0
 73
1
 93
4
 10
64104.44055450648
 20
43987.02676969251
 10
64104.44055450648
 20
43837.02676969251
 10
60314.44055450648
 20
43837.02676969251
 10
60314.44055450648
 20
43987.02676969251
 97
0
 75
1
 76
1
 52
0.0
 41
157.48031496062993
 77
0
 78
1
 53
45.0
 43
0.0
 44
0.0
 45
-353.5533905984
 46
353.5533905984
 79
0
 98
0
  0
LWPOLYLINE
  5
EF
330
17
100
AcDbEntity
  8
A-FENCE
100
AcDbPolyline
 90
31
 70
1
 10
36818.10414860827
 20
68613.3420995225
 10
12724.783240574765
 20
69868.66727923564
 10
12724.34223957387
 20
69863.56356772708
 10
12574.899097651152
 20
69876.47663600178
 10
12582.703904266073
 20
70026.27344836341
 10
12587.819694160196
 20
70026.00690229892
 10
15265.152646063605
 20
101010.82319804246
 10
37188.261884999185
 20
101238.37824126784
 10
54552.33830793266
 20
100923.9740769731
 10
62169.88563772866
 20
101660.84087519225
 10
74209.78331502715
 20
104178.94808501916
 10
74240.49092469481
 20
104032.12491685932
 10
62200.59324739632
 20
101514.01770703238
 10
62172.59888541787
 20
101647.8679467864
 10
62171.161741716394
 20
101647.64882671376
 10
62184.328146352695
 20
101511.53778096897
 10
54566.78081655668
 20
100774.67098274981
 10
54553.54103904212
 20
100911.54053922457
 10
54552.112165224215
 20
100911.4845500589
 10
54549.622764956104
 20
100773.9986595663
 10
37187.682430685876
 20
101088.36414658537
 10
15402.873215518772
 20
100862.24461451595
 10
12737.703837083809
 20
70018.1975455328
 10
36825.90895522319
 20
68763.13891188413
 10
36818.10414860827
 20
68613.3420995225
 10
36955.57040128483
 20
68673.36733900613
 10
39978.37669801319
 20
61750.71517213243
 10
56221.83256756794
 20
61216.124038765025
 10
56216.89856350416
 20
61066.2052087139
 10
39878.80282295852
 20
61603.91105094013
 10
36818.10414860827
 20
68613.3420995225
  0
LWPOLYLINE
  5
F0
330
17
100
AcDbEntity
  8
A-FENCE
100
AcDbPolyline
 90
14
 70
1
 10
56216.89856350416
 20
61066.2052087139
 10
56366.7463447545
 20
61059.4492887654
 10
55597.03244640038
 20
43987.02676969251
 10
59104.44055450648
 20
43987.02676969251
 10
59104.44055450648
 20
43837.02676969251
 10
55590.269663636296
 20
43837.02676969251
 10
55589.963086647665
 20
43830.22682506934
 10
55589.963086647665
 20
43830.22682506934
 10
55409.84962389301
 20
39835.270849744
 10
55260.00184264267
 20
39842.02676969251
 10
55440.1172902594
 20
43837.02676969249
 10
55440.1172902594
 20
43987.02676969251
 10
55446.88007302348
 20
43987.02676969251
 10
56216.89856350416
 20
61066.2052087139
  0
LWPOLYLINE
  5
F1
330
17
100
AcDbEntity
  8
A-FENCE
100
AcDbPolyline
 90
28
 70
1
 10
74209.78331502715
 20
104178.94808501916
 10
73852.27071869929
 20
106762.00533244264
 10
82262.83639502629
 20
110098.60051225
 10
82276.99978399731
 20
110186.7652193589
 10
82425.10090234884
 20
110162.97323030749
 10
82480.41439761594
 20
110023.5443335847
 10
82397.41227056312
 20
109990.6161682631
 10
80295.5443599136
 20
96906.84299058176
 10
75724.90100621725
 20
76057.88092209233
 10
72469.92699817114
 20
43521.36076078829
 10
71136.43950061385
 20
41184.30896550038
 10
69182.2840188895
 20
39839.859171205724
 10
69097.26313692496
 20
39963.43687805437
 10
71023.15667009192
 20
41288.44258446569
 10
72323.84521554488
 20
43568.01138869489
 10
72350.75768401327
 20
43837.02676969251
 10
69114.44055450648
 20
43837.02676969251
 10
69114.44055450648
 20
43987.02676969251
 10
72365.76377866587
 20
43987.02676969251
 10
75575.64602824034
 20
76072.81248427162
 10
75712.70553731377
 20
76059.10096449699
 10
75712.92897562227
 20
76060.505507522
 10
75578.38059138655
 20
76090.00206836459
 10
80148.11585776655
 20
96934.82190204179
 10
82235.14776324056
 20
109926.24345020563
 10
74016.9912182431
 20
106665.97980442957
 10
74358.36690049931
 20
104199.51305835333
 10
74209.78331502715
 20
104178.94808501916
  0
LWPOLYLINE
  5
F2
330
17
100
AcDbEntity
  8
A-FENCE
100
AcDbPolyline
 90
5
 70
1
 10
64104.44055450648
 20
43987.02676969251
 10
64104.44055450648
 20
43837.02676969251
 10
60314.44055450648
 20
43837.02676969251
 10
60314.44055450648
 20
43987.02676969251
 10
64104.44055450648
 20
43987.02676969251
  0
LINE
  5
F3
330
17
100
AcDbEntity
  8
A-DOOR
370
35
100
AcDbLine
 10
64109.44055450648
 20
43837.02676969251
 30
0.0
 11
69109.44055450648
 21
43837.02676969251
 31
0.0
  0
LINE
  5
F4
330
17
100
AcDbEntity
  8
A-DOOR
370
35
100
AcDbLine
 10
59109.44055450648
 20
43837.02676969251
 30
0.0
 11
60309.44055450648
 21
43837.02676969251
 31
0.0
  0
LWPOLYLINE
  5
F5
330
17
100
AcDbEntity
  8
A-CUT
370
50
100
AcDbPolyline
 90
4
 70
1
 10
46464.44055450648
 20
71180.58423067283
 10
65204.44055450648
 20
71180.58423067283
 10
65204.44055450648
 20
89920.58423067283
 10
46464.44055450648
 20
89920.58423067283
  0
LWPOLYLINE
  5
F6
330
17
100
AcDbEntity
  8
A-DRAIN
100
AcDbPolyline
 90
18
 70
0
 10
15953.755493339435
 20
100267.93028041002
 10
37185.364613431884
 20
100488.30776785541
 10
54581.75208509974
 20
100173.31856073847
 10
62283.10146596987
 20
100918.29176727854
 10
75048.69961708771
 20
103588.17697757343
 10
74675.87321641837
 20
106281.87769237722
 10
81475.33520680737
 20
108979.32432979802
 10
79558.40184917826
 20
97046.73754788176
 10
74982.96500573937
 20
76175.91000486631
 10
71739.51808503983
 20
43754.613900321296
 10
70570.02534800423
 20
41704.977060326986
 10
68945.08650833201
 20
40587.0267696925
 10
56044.352197255415
 20
40587.02676969251
 10
57000.3301903916
 20
61790.82762693981
 10
40376.672198231914
 20
62337.93165690166
 10
37319.96969751548
 20
69338.21090502126
 10
13388.922794814429
 20
70585.08118365685
 10
15953.755493339435
 20
100267.93028041002
  0
LWPOLYLINE
  5
F7
330
17
100
AcDbEntity
  8
A-FLOOD
370
35
100
AcDbPolyline
 90
4
 70
1
 10
44809.44055450648
 20
69625.58423067283
 10
45609.44055450648
 20
69625.58423067283
 10
45609.44055450648
 20
70225.58423067283
 10
44809.44055450648
 20
70225.58423067283
  0
LWPOLYLINE
  5
F8
330
17
100
AcDbEntity
  8
A-FLOOD
370
35
100
AcDbPolyline
 90
4
 70
1
 10
66059.44055450648
 20
69625.58423067283
 10
66859.44055450648
 20
69625.58423067283
 10
66859.44055450648
 20
70225.58423067283
 10
66059.44055450648
 20
70225.58423067283
  0
LWPOLYLINE
  5
F9
330
17
100
AcDbEntity
  8
A-FLOOD
370
35
100
AcDbPolyline
 90
4
 70
1
 10
44809.44055450648
 20
90875.58423067283
 10
45609.44055450648
 20
90875.58423067283
 10
45609.44055450648
 20
91475.58423067283
 10
44809.44055450648
 20
91475.58423067283
  0
LWPOLYLINE
  5
FA
330
17
100
AcDbEntity
  8
A-FLOOD
370
35
100
AcDbPolyline
 90
4
 70
1
 10
66059.44055450648
 20
90875.58423067283
 10
66859.44055450648
 20
90875.58423067283
 10
66859.44055450648
 20
91475.58423067283
 10
66059.44055450648
 20
91475.58423067283
  0
LWPOLYLINE
  5
FB
330
17
100
AcDbEntity
  8
A-FLOOD
370
35
100
AcDbPolyline
 90
4
 70
1
 10
58409.44055450648
 20
43925.58423067284
 10
59209.44055450648
 20
43925.58423067284
 10
59209.44055450648
 20
44525.58423067284
 10
58409.44055450648
 20
44525.58423067284
  0
LWPOLYLINE
  5
FC
330
17
100
AcDbEntity
  8
A-FLOOD
370
35
100
AcDbPolyline
 90
4
 70
1
 10
69109.44055450648
 20
43925.58423067284
 10
69909.44055450648
 20
43925.58423067284
 10
69909.44055450648
 20
44525.58423067284
 10
69109.44055450648
 20
44525.58423067284
  0
LWPOLYLINE
  5
FD
330
17
100
AcDbEntity
  8
A-FLOOD
370
35
100
AcDbPolyline
 90
4
 70
1
 10
59309.44055450648
 20
58125.58423067284
 10
60109.44055450648
 20
58125.58423067284
 10
60109.44055450648
 20
58725.58423067284
 10
59309.44055450648
 20
58725.58423067284
  0
LWPOLYLINE
  5
FE
330
17
100
AcDbEntity
  8
A-FLOOD
370
35
100
AcDbPolyline
 90
4
 70
1
 10
68109.44055450648
 20
58125.58423067284
 10
68909.44055450648
 20
58125.58423067284
 10
68909.44055450648
 20
58725.58423067284
 10
68109.44055450648
 20
58725.58423067284
  0
LWPOLYLINE
  5
FF
330
17
100
AcDbEntity
  8
A-DOOR
370
35
100
AcDbPolyline
 90
4
 70
1
 10
60709.44055450648
 20
43612.02676969251
 10
61309.44055450648
 20
43612.02676969251
 10
61309.44055450648
 20
44212.02676969251
 10
60709.44055450648
 20
44212.02676969251
  0
CIRCLE
  5
100
330
17
100
AcDbEntity
  8
A-DOOR
100
AcDbCircle
 10
58809.44055450648
 20
43537.02676969251
 30
0.0
 40
300.0
  0
TEXT
  5
101
330
17
100
AcDbEntity
  8
A-TEXT
100
AcDbText
 10
61809.44055450648
 20
41237.02676969251
 30
0.0
 40
750.0
  1
インターホン・宅配ボックス
  7
JP
 11
61809.44055450648
 21
41237.02676969251
 31
0.0
100
AcDbText
 73
2
  0
CIRCLE
  5
102
330
17
100
AcDbEntity
  8
A-CUT
100
AcDbCircle
 10
65359.44055450648
 20
45037.02676969251
 30
0.0
 40
200.0
  0
CIRCLE
  5
103
330
17
100
AcDbEntity
  8
A-CUT
100
AcDbCircle
 10
66609.44055450648
 20
45037.02676969251
 30
0.0
 40
200.0
  0
CIRCLE
  5
104
330
17
100
AcDbEntity
  8
A-CUT
100
AcDbCircle
 10
67859.44055450648
 20
45037.02676969251
 30
0.0
 40
200.0
  0
HATCH
  5
105
330
17
100
AcDbEntity
  8
A-CUT-HATCH
 62
1
100
AcDbHatch
 10
0.0
 20
0.0
 30
0.0
210
0.0
220
0.0
230
1.0
  2
SOLID
 70
1
 71
0
 91
1
 92
3
 72
0
 73
1
 93
4
 10
64834.44055450648
 20
79625.58423067283
 10
64834.44055450648
 20
83425.58423067283
 10
58959.44055450648
 20
83425.58423067283
 10
58959.44055450648
 20
79625.58423067283
 97
0
 75
1
 76
1
 98
0
  0
TEXT
  5
106
330
17
100
AcDbEntity
  8
A-LEGAL-TEXT
100
AcDbText
 10
66334.44055450648
 20
81525.58423067283
 30
0.0
 40
800.0
  1
2階 避難室（WIC）
  7
JP
 11
66334.44055450648
 21
81525.58423067283
 31
0.0
100
AcDbText
 73
2
  0
TEXT
  5
107
330
17
100
AcDbEntity
  8
A-TEXT
100
AcDbText
 10
60809.44055450648
 20
69925.58423067283
 30
0.0
 40
750.0
  1
玄関（唯一の出入口・CP 防犯扉）
  7
JP
 11
60809.44055450648
 21
69925.58423067283
 31
0.0
100
AcDbText
 73
2
  0
CIRCLE
  5
108
330
17
100
AcDbEntity
  8
A-SYMB
100
AcDbCircle
 10
92500.0
 20
30000.0
 30
0.0
 40
3000.0
  0
LWPOLYLINE
  5
109
330
17
100
AcDbEntity
  8
A-SYMB
100
AcDbPolyline
 90
4
 70
1
 10
91861.99520591009
 20
32931.37337825094
 10
91856.82219406612
 20
28017.87429511797
 10
92691.40143822697
 20
29120.58798652472
 10
93908.78355884177
 20
28464.47765098091
  0
HATCH
  5
10A
330
17
100
AcDbEntity
  8
A-SYMB
 62
7
100
AcDbHatch
 10
0.0
 20
0.0
 30
0.0
210
0.0
220
0.0
230
1.0
  2
SOLID
 70
1
 71
0
 91
1
 92
3
 72
0
 73
1
 93
3
 10
91861.99520591009
 20
32931.37337825094
 10
92691.40143822697
 20
29120.58798652472
 10
93908.78355884177
 20
28464.47765098091
 97
0
 75
0
 76
1
 98
0
  0
TEXT
  5
10B
330
17
100
AcDbEntity
  8
A-SYMB
100
AcDbText
 10
91628.06011474378
 20
34006.21028360961
 30
0.0
 40
1750.0
  1
N
 50
12.278765370963004
  7
JP
 72
1
 11
91628.06011474378
 21
34006.21028360961
 31
0.0
100
AcDbText
 73
2
  0
TEXT
  5
10C
330
17
100
AcDbEntity
  8
A-SYMB
100
AcDbText
 10
92500.0
 20
25750.0
 30
0.0
 40
800.0
  1
真北 12.3°西振れ（建物は南側道路に平行）
  7
JP
 72
1
 11
92500.0
 21
25750.0
 31
0.0
100
AcDbText
 73
3
  0
TEXT
  5
10D
330
17
100
AcDbEntity
  8
A-TEXT
100
AcDbText
 10
9000.0
 20
11000.0
 30
0.0
 40
2000.0
  1
防犯計画図
  7
JP
 11
9000.0
 21
11000.0
 31
0.0
100
AcDbText
 73
1
  0
LINE
  5
10E
330
17
100
AcDbEntity
  8
A-SYMB
370
50
100
AcDbLine
 10
9000.0
 20
10400.0
 30
0.0
 11
24300.0
 21
10400.0
 31
0.0
  0
TEXT
  5
10F
330
17
100
AcDbEntity
  8
A-TEXT
100
AcDbText
 10
24800.0
 20
11000.0
 30
0.0
 40
1400.0
  1
S=1:500
  7
JP
 11
24800.0
 21
11000.0
 31
0.0
100
AcDbText
 73
1
  0
LINE
  5
110
330
17
100
AcDbEntity
  8
A-FLOOD
100
AcDbLine
 10
9000.0
 20
23000.0
 30
0.0
 11
15000.0
 21
23000.0
 31
0.0
  0
TEXT
  5
111
330
17
100
AcDbEntity
  8
A-TEXT
100
AcDbText
 10
16500.0
 20
22550.0
 30
0.0
 40
1000.0
  1
赤外線カメラ
  7
JP
 11
16500.0
 21
22550.0
 31
0.0
100
AcDbText
  0
LINE
  5
112
330
17
100
AcDbEntity
  8
A-DRAIN
100
AcDbLine
 10
9000.0
 20
20700.0
 30
0.0
 11
15000.0
 21
20700.0
 31
0.0
  0
TEXT
  5
113
330
17
100
AcDbEntity
  8
A-TEXT
100
AcDbText
 10
16500.0
 20
20250.0
 30
0.0
 40
1000.0
  1
赤外線ビームセンサー（塀の内側）
  7
JP
 11
16500.0
 21
20250.0
 31
0.0
100
AcDbText
  0
LINE
  5
114
330
17
100
AcDbEntity
  8
A-LEGAL-TEXT
100
AcDbLine
 10
9000.0
 20
18400.0
 30
0.0
 11
15000.0
 21
18400.0
 31
0.0
  0
TEXT
  5
115
330
17
100
AcDbEntity
  8
A-TEXT
100
AcDbText
 10
16500.0
 20
17950.0
 30
0.0
 40
1000.0
  1
避難室
  7
JP
 11
16500.0
 21
17950.0
 31
0.0
100
AcDbText
  0
TEXT
  5
116
330
17
100
AcDbEntity
  8
A-TEXT
100
AcDbText
 10
100000.0
 20
135500.0
 30
0.0
 40
1300.0
  1
(1) 防御の層 — 見せて諦めさせる → 入らせない → 時間をかけさせる → 知らせる → 逃げ込む
  7
JP
 11
100000.0
 21
135500.0
 31
0.0
100
AcDbText
  0
LWPOLYLINE
  5
117
330
17
100
AcDbEntity
  8
G-TABLE
370
35
100
AcDbPolyline
 90
2
 70
0
 10
100000.0
 20
134000.0
 10
204000.0
 20
134000.0
  0
TEXT
  5
118
330
17
100
AcDbEntity
  8
A-TEXT
100
AcDbText
 10
100500.0
 20
132500.0
 30
0.0
 40
900.0
  1
層
  7
JP
 11
100500.0
 21
132500.0
 31
0.0
100
AcDbText
  0
TEXT
  5
119
330
17
100
AcDbEntity
  8
A-TEXT
100
AcDbText
 10
111500.0
 20
132500.0
 30
0.0
 40
900.0
  1
対策
  7
JP
 11
111500.0
 21
132500.0
 31
0.0
100
AcDbText
  0
LWPOLYLINE
  5
11A
330
17
100
AcDbEntity
  8
G-TABLE
370
35
100
AcDbPolyline
 90
2
 70
0
 10
100000.0
 20
131500.0
 10
204000.0
 20
131500.0
  0
TEXT
  5
11B
330
17
100
AcDbEntity
  8
A-TEXT
100
AcDbText
 10
100500.0
 20
130000.0
 30
0.0
 40
900.0
  1
① 敷地
  7
JP
 11
100500.0
 21
130000.0
 31
0.0
100
AcDbText
  0
TEXT
  5
11C
330
17
100
AcDbEntity
  8
A-TEXT
100
AcDbText
 10
111500.0
 20
130000.0
 30
0.0
 40
900.0
  1
RC 塀 H2.0m＋忍び返し、門を道路から4m 後退、赤外線カメラ、勝手口なし
  7
JP
 11
111500.0
 21
130000.0
 31
0.0
100
AcDbText
  0
LWPOLYLINE
  5
11D
330
17
100
AcDbEntity
  8
G-TABLE
370
18
100
AcDbPolyline
 90
2
 70
0
 10
100000.0
 20
129000.0
 10
204000.0
 20
129000.0
  0
TEXT
  5
11E
330
17
100
AcDbEntity
  8
A-TEXT
100
AcDbText
 10
100500.0
 20
127500.0
 30
0.0
 40
900.0
  1
② 門
  7
JP
 11
100500.0
 21
127500.0
 31
0.0
100
AcDbText
  0
TEXT
  5
11F
330
17
100
AcDbEntity
  8
A-TEXT
100
AcDbText
 10
111500.0
 20
127500.0
 30
0.0
 40
900.0
  1
電動スライド門扉（施錠・こじ開け検知）、昇降ボラード、カメラ付きインターホン、貫通型宅配ボックス
  7
JP
 11
111500.0
 21
127500.0
 31
0.0
100
AcDbText
  0
LWPOLYLINE
  5
120
330
17
100
AcDbEntity
  8
G-TABLE
370
18
100
AcDbPolyline
 90
2
 70
0
 10
100000.0
 20
126500.0
 10
204000.0
 20
126500.0
  0
TEXT
  5
121
330
17
100
AcDbEntity
  8
A-TEXT
100
AcDbText
 10
100500.0
 20
125000.0
 30
0.0
 40
900.0
  1
③ 建物外皮
  7
JP
 11
100500.0
 21
125000.0
 31
0.0
100
AcDbText
  0
TEXT
  5
122
330
17
100
AcDbEntity
  8
A-TEXT
100
AcDbText
 10
111500.0
 20
125000.0
 30
0.0
 40
900.0
  1
壁式 RC、窓は全て FIX の CP 防犯合わせガラス、出入口は玄関のみ（CP 防犯扉・2ロック）
  7
JP
 11
111500.0
 21
125000.0
 31
0.0
100
AcDbText
  0
LWPOLYLINE
  5
123
330
17
100
AcDbEntity
  8
G-TABLE
370
18
100
AcDbPolyline
 90
2
 70
0
 10
100000.0
 20
124000.0
 10
204000.0
 20
124000.0
  0
TEXT
  5
124
330
17
100
AcDbEntity
  8
A-TEXT
100
AcDbText
 10
100500.0
 20
122500.0
 30
0.0
 40
900.0
  1
④ 知らせる
  7
JP
 11
100500.0
 21
122500.0
 31
0.0
100
AcDbText
  0
TEXT
  5
125
330
17
100
AcDbEntity
  8
A-TEXT
100
AcDbText
 10
111500.0
 20
122500.0
 30
0.0
 40
900.0
  1
塀内の赤外線ビーム、ガラス破壊センサー、非常ボタン、機械警備（警備会社へ自動通報・LTE 予備回線）
  7
JP
 11
111500.0
 21
122500.0
 31
0.0
100
AcDbText
  0
LWPOLYLINE
  5
126
330
17
100
AcDbEntity
  8
G-TABLE
370
18
100
AcDbPolyline
 90
2
 70
0
 10
100000.0
 20
121500.0
 10
204000.0
 20
121500.0
  0
TEXT
  5
127
330
17
100
AcDbEntity
  8
A-TEXT
100
AcDbText
 10
100500.0
 20
120000.0
 30
0.0
 40
900.0
  1
⑤ 逃げ込む
  7
JP
 11
100500.0
 21
120000.0
 31
0.0
100
AcDbText
  0
TEXT
  5
128
330
17
100
AcDbEntity
  8
A-TEXT
100
AcDbText
 10
111500.0
 20
120000.0
 30
0.0
 40
900.0
  1
2階 WIC（主寝室）を避難室に。鋼製防犯扉・内締り・非常ボタン・予備電源付き通信
  7
JP
 11
111500.0
 21
120000.0
 31
0.0
100
AcDbText
  0
LWPOLYLINE
  5
129
330
17
100
AcDbEntity
  8
G-TABLE
370
18
100
AcDbPolyline
 90
2
 70
0
 10
100000.0
 20
119000.0
 10
204000.0
 20
119000.0
  0
LWPOLYLINE
  5
12A
330
17
100
AcDbEntity
  8
G-TABLE
100
AcDbPolyline
 90
2
 70
0
 10
100000.0
 20
134000.0
 10
100000.0
 20
119000.0
  0
LWPOLYLINE
  5
12B
330
17
100
AcDbEntity
  8
G-TABLE
100
AcDbPolyline
 90
2
 70
0
 10
111000.0
 20
134000.0
 10
111000.0
 20
119000.0
  0
LWPOLYLINE
  5
12C
330
17
100
AcDbEntity
  8
G-TABLE
100
AcDbPolyline
 90
2
 70
0
 10
204000.0
 20
134000.0
 10
204000.0
 20
119000.0
  0
TEXT
  5
12D
330
17
100
AcDbEntity
  8
A-TEXT
100
AcDbText
 10
100000.0
 20
116500.0
 30
0.0
 40
1300.0
  1
(2) 手口ごとの評価（これまでの構成で十分か）
  7
JP
 11
100000.0
 21
116500.0
 31
0.0
100
AcDbText
  0
LWPOLYLINE
  5
12E
330
17
100
AcDbEntity
  8
G-TABLE
370
35
100
AcDbPolyline
 90
2
 70
0
 10
100000.0
 20
115000.0
 10
204000.0
 20
115000.0
  0
TEXT
  5
12F
330
17
100
AcDbEntity
  8
A-TEXT
100
AcDbText
 10
100500.0
 20
113625.0
 30
0.0
 40
775.0
  1
手口
  7
JP
 11
100500.0
 21
113625.0
 31
0.0
100
AcDbText
  0
TEXT
  5
130
330
17
100
AcDbEntity
  8
A-TEXT
100
AcDbText
 10
119500.0
 20
113625.0
 30
0.0
 40
775.0
  1
これまでの構成
  7
JP
 11
119500.0
 21
113625.0
 31
0.0
100
AcDbText
  0
TEXT
  5
131
330
17
100
AcDbEntity
  8
A-TEXT
100
AcDbText
 10
139500.0
 20
113625.0
 30
0.0
 40
775.0
  1
追加する対策
  7
JP
 11
139500.0
 21
113625.0
 31
0.0
100
AcDbText
  0
TEXT
  5
132
330
17
100
AcDbEntity
  8
A-TEXT
100
AcDbText
 10
195500.0
 20
113625.0
 30
0.0
 40
775.0
  1
判定
  7
JP
 11
195500.0
 21
113625.0
 31
0.0
100
AcDbText
  0
LWPOLYLINE
  5
133
330
17
100
AcDbEntity
  8
G-TABLE
370
35
100
AcDbPolyline
 90
2
 70
0
 10
100000.0
 20
112500.0
 10
204000.0
 20
112500.0
  0
TEXT
  5
134
330
17
100
AcDbEntity
  8
A-TEXT
100
AcDbText
 10
100500.0
 20
111125.0
 30
0.0
 40
775.0
  1
宅配・点検業者を装い玄関を開
  7
JP
 11
100500.0
 21
111125.0
 31
0.0
100
AcDbText
  0
TEXT
  5
135
330
17
100
AcDbEntity
  8
A-TEXT
100
AcDbText
 10
100500.0
 20
110001.25
 30
0.0
 40
775.0
  1
けさせる
  7
JP
 11
100500.0
 21
110001.25
 31
0.0
100
AcDbText
  0
TEXT
  5
136
330
17
100
AcDbEntity
  8
A-TEXT
100
AcDbText
 10
119500.0
 20
111125.0
 30
0.0
 40
775.0
  1
玄関は道路から見えないが、イン
  7
JP
 11
119500.0
 21
111125.0
 31
0.0
100
AcDbText
  0
TEXT
  5
137
330
17
100
AcDbEntity
  8
A-TEXT
100
AcDbText
 10
119500.0
 20
110001.25
 30
0.0
 40
775.0
  1
ターホンの位置は未定
  7
JP
 11
119500.0
 21
110001.25
 31
0.0
100
AcDbText
  0
TEXT
  5
138
330
17
100
AcDbEntity
  8
A-TEXT
100
AcDbText
 10
139500.0
 20
111125.0
 30
0.0
 40
775.0
  1
応対は門のカメラ付きインターホンのみ（玄関まで来させない）。荷物は門の塀の貫通型宅配ボックスで受け
  7
JP
 11
139500.0
 21
111125.0
 31
0.0
100
AcDbText
  0
TEXT
  5
139
330
17
100
AcDbEntity
  8
A-TEXT
100
AcDbText
 10
139500.0
 20
110001.25
 30
0.0
 40
775.0
  1
取り、門も開けない
  7
JP
 11
139500.0
 21
110001.25
 31
0.0
100
AcDbText
  0
TEXT
  5
13A
330
17
100
AcDbEntity
  8
A-TEXT
100
AcDbText
 10
195500.0
 20
111125.0
 30
0.0
 40
775.0
  1
追加で対応
  7
JP
 11
195500.0
 21
111125.0
 31
0.0
100
AcDbText
  0
LWPOLYLINE
  5
13B
330
17
100
AcDbEntity
  8
G-TABLE
370
18
100
AcDbPolyline
 90
2
 70
0
 10
100000.0
 20
109352.5
 10
204000.0
 20
109352.5
  0
TEXT
  5
13C
330
17
100
AcDbEntity
  8
A-TEXT
100
AcDbText
 10
100500.0
 20
107977.5
 30
0.0
 40
775.0
  1
塀を乗り越える
  7
JP
 11
100500.0
 21
107977.5
 31
0.0
100
AcDbText
  0
TEXT
  5
13D
330
17
100
AcDbEntity
  8
A-TEXT
100
AcDbText
 10
119500.0
 20
107977.5
 30
0.0
 40
775.0
  1
RC 塀 H2.0m、ビームセンサー
  7
JP
 11
119500.0
 21
107977.5
 31
0.0
100
AcDbText
  0
TEXT
  5
13E
330
17
100
AcDbEntity
  8
A-TEXT
100
AcDbText
 10
139500.0
 20
107977.5
 30
0.0
 40
775.0
  1
塀・門扉の天端に忍び返し。ゴミ置きの目隠し壁・ボックスなど足がかりになる物の上にも忍び返し。塀ぎわ
  7
JP
 11
139500.0
 21
107977.5
 31
0.0
100
AcDbText
  0
TEXT
  5
13F
330
17
100
AcDbEntity
  8
A-TEXT
100
AcDbText
 10
139500.0
 20
106853.75
 30
0.0
 40
775.0
  1
に木・物置を置かない
  7
JP
 11
139500.0
 21
106853.75
 31
0.0
100
AcDbText
  0
TEXT
  5
140
330
17
100
AcDbEntity
  8
A-TEXT
100
AcDbText
 10
195500.0
 20
107977.5
 30
0.0
 40
775.0
  1
追加で対応
  7
JP
 11
195500.0
 21
107977.5
 31
0.0
100
AcDbText
  0
LWPOLYLINE
  5
141
330
17
100
AcDbEntity
  8
G-TABLE
370
18
100
AcDbPolyline
 90
2
 70
0
 10
100000.0
 20
106205.00000000001
 10
204000.0
 20
106205.00000000001
  0
TEXT
  5
142
330
17
100
AcDbEntity
  8
A-TEXT
100
AcDbText
 10
100500.0
 20
104830.00000000001
 30
0.0
 40
775.0
  1
窓ガラスを割って侵入
  7
JP
 11
100500.0
 21
104830.00000000001
 31
0.0
100
AcDbText
  0
TEXT
  5
143
330
17
100
AcDbEntity
  8
A-TEXT
100
AcDbText
 10
119500.0
 20
104830.00000000001
 30
0.0
 40
775.0
  1
1階は CP 防犯合わせ、2階は一般
  7
JP
 11
119500.0
 21
104830.00000000001
 31
0.0
100
AcDbText
  0
TEXT
  5
144
330
17
100
AcDbEntity
  8
A-TEXT
100
AcDbText
 10
119500.0
 20
103706.25000000001
 30
0.0
 40
775.0
  1
の合わせ
  7
JP
 11
119500.0
 21
103706.25000000001
 31
0.0
100
AcDbText
  0
TEXT
  5
145
330
17
100
AcDbEntity
  8
A-TEXT
100
AcDbText
 10
139500.0
 20
104830.00000000001
 30
0.0
 40
775.0
  1
2階も CP 防犯合わせガラスに統一。全窓 FIX（開かない）にガラス破壊センサー。外付けスクリーンは夜間
  7
JP
 11
139500.0
 21
104830.00000000001
 31
0.0
100
AcDbText
  0
TEXT
  5
146
330
17
100
AcDbEntity
  8
A-TEXT
100
AcDbText
 10
139500.0
 20
103706.25000000001
 30
0.0
 40
775.0
  1
に下ろし、ガラスを見せない
  7
JP
 11
139500.0
 21
103706.25000000001
 31
0.0
100
AcDbText
  0
TEXT
  5
147
330
17
100
AcDbEntity
  8
A-TEXT
100
AcDbText
 10
195500.0
 20
104830.00000000001
 30
0.0
 40
775.0
  1
追加で対応
  7
JP
 11
195500.0
 21
104830.00000000001
 31
0.0
100
AcDbText
  0
LWPOLYLINE
  5
148
330
17
100
AcDbEntity
  8
G-TABLE
370
18
100
AcDbPolyline
 90
2
 70
0
 10
100000.0
 20
103057.50000000001
 10
204000.0
 20
103057.50000000001
  0
TEXT
  5
149
330
17
100
AcDbEntity
  8
A-TEXT
100
AcDbText
 10
100500.0
 20
101682.50000000001
 30
0.0
 40
775.0
  1
玄関ドアをこじ開ける・バール
  7
JP
 11
100500.0
 21
101682.50000000001
 31
0.0
100
AcDbText
  0
TEXT
  5
14A
330
17
100
AcDbEntity
  8
A-TEXT
100
AcDbText
 10
100500.0
 20
100558.75000000001
 30
0.0
 40
775.0
  1
で破る
  7
JP
 11
100500.0
 21
100558.75000000001
 31
0.0
100
AcDbText
  0
TEXT
  5
14B
330
17
100
AcDbEntity
  8
A-TEXT
100
AcDbText
 10
119500.0
 20
101682.50000000001
 30
0.0
 40
775.0
  1
未定
  7
JP
 11
119500.0
 21
101682.50000000001
 31
0.0
100
AcDbText
  0
TEXT
  5
14C
330
17
100
AcDbEntity
  8
A-TEXT
100
AcDbText
 10
139500.0
 20
101682.50000000001
 30
0.0
 40
775.0
  1
玄関ドアは CP 防犯扉（こじ開け5分以上）、主錠＋補助錠の2ロック・電気錠、ガードアーム。ドアの開閉・
  7
JP
 11
139500.0
 21
101682.50000000001
 31
0.0
100
AcDbText
  0
TEXT
  5
14D
330
17
100
AcDbEntity
  8
A-TEXT
100
AcDbText
 10
139500.0
 20
100558.75000000001
 30
0.0
 40
775.0
  1
こじ開けをセンサーで検知
  7
JP
 11
139500.0
 21
100558.75000000001
 31
0.0
100
AcDbText
  0
TEXT
  5
14E
330
17
100
AcDbEntity
  8
A-TEXT
100
AcDbText
 10
195500.0
 20
101682.50000000001
 30
0.0
 40
775.0
  1
追加で対応
  7
JP
 11
195500.0
 21
101682.50000000001
 31
0.0
100
AcDbText
  0
LWPOLYLINE
  5
14F
330
17
100
AcDbEntity
  8
G-TABLE
370
18
100
AcDbPolyline
 90
2
 70
0
 10
100000.0
 20
99910.00000000003
 10
204000.0
 20
99910.00000000003
  0
TEXT
  5
150
330
17
100
AcDbEntity
  8
A-TEXT
100
AcDbText
 10
100500.0
 20
98535.00000000003
 30
0.0
 40
775.0
  1
屋上・雨どいから侵入
  7
JP
 11
100500.0
 21
98535.00000000003
 31
0.0
100
AcDbText
  0
TEXT
  5
151
330
17
100
AcDbEntity
  8
A-TEXT
100
AcDbText
 10
119500.0
 20
98535.00000000003
 30
0.0
 40
775.0
  1
パラペット H0.6m
  7
JP
 11
119500.0
 21
98535.00000000003
 31
0.0
100
AcDbText
  0
TEXT
  5
152
330
17
100
AcDbEntity
  8
A-TEXT
100
AcDbText
 10
139500.0
 20
98535.00000000003
 30
0.0
 40
775.0
  1
雨どいは外壁内に納め（足がかりにしない）、屋上の点検口は内側から施錠。外に梯子を置かない
  7
JP
 11
139500.0
 21
98535.00000000003
 31
0.0
100
AcDbText
  0
TEXT
  5
153
330
17
100
AcDbEntity
  8
A-TEXT
100
AcDbText
 10
195500.0
 20
98535.00000000003
 30
0.0
 40
775.0
  1
追加で対応
  7
JP
 11
195500.0
 21
98535.00000000003
 31
0.0
100
AcDbText
  0
LWPOLYLINE
  5
154
330
17
100
AcDbEntity
  8
G-TABLE
370
18
100
AcDbPolyline
 90
2
 70
0
 10
100000.0
 20
97410.00000000003
 10
204000.0
 20
97410.00000000003
  0
TEXT
  5
155
330
17
100
AcDbEntity
  8
A-TEXT
100
AcDbText
 10
100500.0
 20
96035.00000000003
 30
0.0
 40
775.0
  1
在宅中に押し入り、住人を拘束
  7
JP
 11
100500.0
 21
96035.00000000003
 31
0.0
100
AcDbText
  0
TEXT
  5
156
330
17
100
AcDbEntity
  8
A-TEXT
100
AcDbText
 10
100500.0
 20
94911.25000000003
 30
0.0
 40
775.0
  1
する
  7
JP
 11
100500.0
 21
94911.25000000003
 31
0.0
100
AcDbText
  0
TEXT
  5
157
330
17
100
AcDbEntity
  8
A-TEXT
100
AcDbText
 10
119500.0
 20
96035.00000000003
 30
0.0
 40
775.0
  1
なし
  7
JP
 11
119500.0
 21
96035.00000000003
 31
0.0
100
AcDbText
  0
TEXT
  5
158
330
17
100
AcDbEntity
  8
A-TEXT
100
AcDbText
 10
139500.0
 20
96035.00000000003
 30
0.0
 40
775.0
  1
寝室・LDK・避難室に非常ボタン（警備会社へ無音通報）。2階 WIC（主寝室）を避難室にし、鋼製防犯扉・内
  7
JP
 11
139500.0
 21
96035.00000000003
 31
0.0
100
AcDbText
  0
TEXT
  5
159
330
17
100
AcDbEntity
  8
A-TEXT
100
AcDbText
 10
139500.0
 20
94911.25000000003
 30
0.0
 40
775.0
  1
締り・予備通信で警察到着まで籠城できる
  7
JP
 11
139500.0
 21
94911.25000000003
 31
0.0
100
AcDbText
  0
TEXT
  5
15A
330
17
100
AcDbEntity
  8
A-TEXT
100
AcDbText
 10
195500.0
 20
96035.00000000003
 30
0.0
 40
775.0
  1
追加で対応
  7
JP
 11
195500.0
 21
96035.00000000003
 31
0.0
100
AcDbText
  0
LWPOLYLINE
  5
15B
330
17
100
AcDbEntity
  8
G-TABLE
370
18
100
AcDbPolyline
 90
2
 70
0
 10
100000.0
 20
94262.50000000003
 10
204000.0
 20
94262.50000000003
  0
TEXT
  5
15C
330
17
100
AcDbEntity
  8
A-TEXT
100
AcDbText
 10
100500.0
 20
92887.50000000003
 30
0.0
 40
775.0
  1
通信・電源を切る
  7
JP
 11
100500.0
 21
92887.50000000003
 31
0.0
100
AcDbText
  0
TEXT
  5
15D
330
17
100
AcDbEntity
  8
A-TEXT
100
AcDbText
 10
119500.0
 20
92887.50000000003
 30
0.0
 40
775.0
  1
蓄電池 16kWh
  7
JP
 11
119500.0
 21
92887.50000000003
 31
0.0
100
AcDbText
  0
TEXT
  5
15E
330
17
100
AcDbEntity
  8
A-TEXT
100
AcDbText
 10
139500.0
 20
92887.50000000003
 30
0.0
 40
775.0
  1
警備・カメラ・インターホンは蓄電池から給電、通報は有線＋LTE の2回線。屋外の引込線・分電盤は塀の内
  7
JP
 11
139500.0
 21
92887.50000000003
 31
0.0
100
AcDbText
  0
TEXT
  5
15F
330
17
100
AcDbEntity
  8
A-TEXT
100
AcDbText
 10
139500.0
 20
91763.75000000003
 30
0.0
 40
775.0
  1
側
  7
JP
 11
139500.0
 21
91763.75000000003
 31
0.0
100
AcDbText
  0
TEXT
  5
160
330
17
100
AcDbEntity
  8
A-TEXT
100
AcDbText
 10
195500.0
 20
92887.50000000003
 30
0.0
 40
775.0
  1
追加で対応
  7
JP
 11
195500.0
 21
92887.50000000003
 31
0.0
100
AcDbText
  0
LWPOLYLINE
  5
161
330
17
100
AcDbEntity
  8
G-TABLE
370
18
100
AcDbPolyline
 90
2
 70
0
 10
100000.0
 20
91115.00000000004
 10
204000.0
 20
91115.00000000004
  0
TEXT
  5
162
330
17
100
AcDbEntity
  8
A-TEXT
100
AcDbText
 10
100500.0
 20
89740.00000000004
 30
0.0
 40
775.0
  1
下見（留守・家族構成を探る）
  7
JP
 11
100500.0
 21
89740.00000000004
 31
0.0
100
AcDbText
  0
TEXT
  5
163
330
17
100
AcDbEntity
  8
A-TEXT
100
AcDbText
 10
119500.0
 20
89740.00000000004
 30
0.0
 40
775.0
  1
門は後退、玄関は道路から見えな
  7
JP
 11
119500.0
 21
89740.00000000004
 31
0.0
100
AcDbText
  0
TEXT
  5
164
330
17
100
AcDbEntity
  8
A-TEXT
100
AcDbText
 10
119500.0
 20
88616.25000000003
 30
0.0
 40
775.0
  1
い
  7
JP
 11
119500.0
 21
88616.25000000003
 31
0.0
100
AcDbText
  0
TEXT
  5
165
330
17
100
AcDbEntity
  8
A-TEXT
100
AcDbText
 10
139500.0
 20
89740.00000000004
 30
0.0
 40
775.0
  1
カメラの存在を表示して抑止。録画はクラウドにも保存。アポ電・不審な訪問は bot が記録・通知
  7
JP
 11
139500.0
 21
89740.00000000004
 31
0.0
100
AcDbText
  0
TEXT
  5
166
330
17
100
AcDbEntity
  8
A-TEXT
100
AcDbText
 10
195500.0
 20
89740.00000000004
 30
0.0
 40
775.0
  1
追加で対応
  7
JP
 11
195500.0
 21
89740.00000000004
 31
0.0
100
AcDbText
  0
LWPOLYLINE
  5
167
330
17
100
AcDbEntity
  8
G-TABLE
370
18
100
AcDbPolyline
 90
2
 70
0
 10
100000.0
 20
87967.50000000004
 10
204000.0
 20
87967.50000000004
  0
TEXT
  5
168
330
17
100
AcDbEntity
  8
A-TEXT
100
AcDbText
 10
100500.0
 20
86592.50000000004
 30
0.0
 40
775.0
  1
車で乗り付け、車ごと逃走
  7
JP
 11
100500.0
 21
86592.50000000004
 31
0.0
100
AcDbText
  0
TEXT
  5
169
330
17
100
AcDbEntity
  8
A-TEXT
100
AcDbText
 10
119500.0
 20
86592.50000000004
 30
0.0
 40
775.0
  1
門の後退・昇降ボラード
  7
JP
 11
119500.0
 21
86592.50000000004
 31
0.0
100
AcDbText
  0
TEXT
  5
16A
330
17
100
AcDbEntity
  8
A-TEXT
100
AcDbText
 10
139500.0
 20
86592.50000000004
 30
0.0
 40
775.0
  1
門前4m は道路から見通せる位置。カメラでナンバーを記録（門・カーポート）
  7
JP
 11
139500.0
 21
86592.50000000004
 31
0.0
100
AcDbText
  0
TEXT
  5
16B
330
17
100
AcDbEntity
  8
A-TEXT
100
AcDbText
 10
195500.0
 20
86592.50000000004
 30
0.0
 40
775.0
  1
対応済み
  7
JP
 11
195500.0
 21
86592.50000000004
 31
0.0
100
AcDbText
  0
LWPOLYLINE
  5
16C
330
17
100
AcDbEntity
  8
G-TABLE
370
18
100
AcDbPolyline
 90
2
 70
0
 10
100000.0
 20
85467.50000000004
 10
204000.0
 20
85467.50000000004
  0
LWPOLYLINE
  5
16D
330
17
100
AcDbEntity
  8
G-TABLE
100
AcDbPolyline
 90
2
 70
0
 10
100000.0
 20
115000.0
 10
100000.0
 20
85467.50000000004
  0
LWPOLYLINE
  5
16E
330
17
100
AcDbEntity
  8
G-TABLE
100
AcDbPolyline
 90
2
 70
0
 10
119000.0
 20
115000.0
 10
119000.0
 20
85467.50000000004
  0
LWPOLYLINE
  5
16F
330
17
100
AcDbEntity
  8
G-TABLE
100
AcDbPolyline
 90
2
 70
0
 10
139000.0
 20
115000.0
 10
139000.0
 20
85467.50000000004
  0
LWPOLYLINE
  5
170
330
17
100
AcDbEntity
  8
G-TABLE
100
AcDbPolyline
 90
2
 70
0
 10
195000.0
 20
115000.0
 10
195000.0
 20
85467.50000000004
  0
LWPOLYLINE
  5
171
330
17
100
AcDbEntity
  8
G-TABLE
100
AcDbPolyline
 90
2
 70
0
 10
204000.0
 20
115000.0
 10
204000.0
 20
85467.50000000004
  0
TEXT
  5
172
330
17
100
AcDbEntity
  8
A-TEXT
100
AcDbText
 10
100000.0
 20
82967.50000000004
 30
0.0
 40
1500.0
  1
住まい方（設備だけでは防げない部分）
  7
JP
 11
100000.0
 21
82967.50000000004
 31
0.0
100
AcDbText
  0
TEXT
  5
173
330
17
100
AcDbEntity
  8
A-TEXT
100
AcDbText
 10
100500.0
 20
80217.50000000004
 30
0.0
 40
1050.0
  1
現金・貴金属は自宅に多く置かない（置く場合は避難室の床に固定した耐火金庫）
  7
JP
 11
100500.0
 21
80217.50000000004
 31
0.0
100
AcDbText
  0
TEXT
  5
174
330
17
100
AcDbEntity
  8
A-TEXT
100
AcDbText
 10
100500.0
 20
77817.50000000004
 30
0.0
 40
1050.0
  1
知らない訪問者には門のインターホン越しに応対し、門も玄関も開けない
  7
JP
 11
100500.0
 21
77817.50000000004
 31
0.0
100
AcDbText
  0
TEXT
  5
175
330
17
100
AcDbEntity
  8
A-TEXT
100
AcDbText
 10
100500.0
 20
75417.50000000003
 30
0.0
 40
1050.0
  1
警備会社と契約し、在宅時も夜間は外周の警戒（在宅警備モード）を入れる
  7
JP
 11
100500.0
 21
75417.50000000003
 31
0.0
100
AcDbText
  0
TEXT
  5
176
330
17
100
AcDbEntity
  8
A-TEXT
100
AcDbText
 10
100500.0
 20
73017.50000000003
 30
0.0
 40
1050.0
  1
家族の予定・在宅状況・高額品を SNS に載せない。不審な電話（アポ電）は録音・通知
  7
JP
 11
100500.0
 21
73017.50000000003
 31
0.0
100
AcDbText
  0
ENDSEC
  0
SECTION
  2
OBJECTS
  0
DICTIONARY
  5
A
330
0
100
AcDbDictionary
281
1
  3
ACAD_COLOR
350
B
  3
ACAD_GROUP
350
C
  3
ACAD_LAYOUT
350
D
  3
ACAD_MATERIAL
350
E
  3
ACAD_MLEADERSTYLE
350
F
  3
ACAD_MLINESTYLE
350
10
  3
ACAD_PLOTSETTINGS
350
11
  3
ACAD_PLOTSTYLENAME
350
12
  3
ACAD_SCALELIST
350
14
  3
ACAD_TABLESTYLE
350
15
  3
ACAD_VISUALSTYLE
350
16
  3
EZDXF_META
350
2D
  0
DICTIONARY
  5
B
330
A
100
AcDbDictionary
281
1
  0
DICTIONARY
  5
C
330
A
100
AcDbDictionary
281
1
  0
DICTIONARY
  5
D
330
A
100
AcDbDictionary
281
1
  3
Model
350
1A
  3
Layout1
350
1E
  0
DICTIONARY
  5
E
330
A
100
AcDbDictionary
281
1
  3
ByBlock
350
1F
  3
ByLayer
350
20
  3
Global
350
21
  0
DICTIONARY
  5
F
330
A
100
AcDbDictionary
281
1
  3
Standard
350
2C
  0
DICTIONARY
  5
10
330
A
100
AcDbDictionary
281
1
  3
Standard
350
22
  0
DICTIONARY
  5
11
330
A
100
AcDbDictionary
281
1
  0
ACDBDICTIONARYWDFLT
  5
12
330
A
100
AcDbDictionary
281
1
  3
Normal
350
13
100
AcDbDictionaryWithDefault
340
13
  0
ACDBPLACEHOLDER
  5
13
330
12
  0
DICTIONARY
  5
14
330
A
100
AcDbDictionary
281
1
  0
DICTIONARY
  5
15
330
A
100
AcDbDictionary
281
1
  0
DICTIONARY
  5
16
330
A
100
AcDbDictionary
281
1
  3
2dWireframe
350
5A
  3
Basic
350
5B
  3
Brighten
350
5C
  3
ColorChange
350
5D
  3
Conceptual
350
5E
  3
Dim
350
5F
  3
EdgeColorOff
350
60
  3
Facepattern
350
61
  3
Flat
350
62
  3
FlatWithEdges
350
63
  3
Gouraud
350
64
  3
GouraudWithEdges
350
65
  3
Hidden
350
66
  3
JitterOff
350
67
  3
Linepattern
350
68
  3
Modeling
350
69
  3
OverhangOff
350
6A
  3
Realistic
350
6B
  3
Shaded
350
6C
  3
Shaded with edges
350
6D
  3
Shades of Gray
350
6E
  3
Sketchy
350
6F
  3
Thicken
350
70
  3
Wireframe
350
71
  3
X-Ray
350
72
  0
LAYOUT
  5
1A
330
D
100
AcDbPlotSettings
  1

  4
A3
  6

 40
7.5
 41
20.0
 42
7.5
 43
20.0
 44
420.0
 45
297.0
 46
0.0
 47
0.0
 48
0.0
 49
0.0
140
0.0
141
0.0
142
1.0
143
1.0
 70
1024
 72
1
 73
0
 74
5
  7

 75
16
 76
0
 77
2
 78
300
147
1.0
148
0.0
149
0.0
100
AcDbLayout
  1
Model
 70
1
 71
0
 10
0.0
 20
0.0
 11
420.0
 21
297.0
 12
0.0
 22
0.0
 32
0.0
 14
1e+20
 24
1e+20
 34
1e+20
 15
-1e+20
 25
-1e+20
 35
-1e+20
146
0.0
 13
0.0
 23
0.0
 33
0.0
 16
1.0
 26
0.0
 36
0.0
 17
0.0
 27
1.0
 37
0.0
 76
1
330
17
  0
LAYOUT
  5
1E
330
D
100
AcDbPlotSettings
  1

  4
A3
  6

 40
7.5
 41
20.0
 42
7.5
 43
20.0
 44
420.0
 45
297.0
 46
0.0
 47
0.0
 48
0.0
 49
0.0
140
0.0
141
0.0
142
1.0
143
1.0
 70
0
 72
1
 73
0
 74
5
  7

 75
16
 76
0
 77
2
 78
300
147
1.0
148
0.0
149
0.0
100
AcDbLayout
  1
Layout1
 70
1
 71
1
 10
0.0
 20
0.0
 11
420.0
 21
297.0
 12
0.0
 22
0.0
 32
0.0
 14
1e+20
 24
1e+20
 34
1e+20
 15
-1e+20
 25
-1e+20
 35
-1e+20
146
0.0
 13
0.0
 23
0.0
 33
0.0
 16
1.0
 26
0.0
 36
0.0
 17
0.0
 27
1.0
 37
0.0
 76
1
330
1B
  0
MATERIAL
  5
1F
102
{ACAD_REACTORS
330
E
102
}
330
E
100
AcDbMaterial
  1
ByBlock
  2

 70
0
 40
1.0
 71
1
 41
1.0
 91
-1023410177
 42
1.0
 72
1
  3

 73
1
 74
1
 75
1
 44
0.5
 73
0
 45
1.0
 46
1.0
 77
1
  4

 78
1
 79
1
170
1
 48
1.0
171
1
  6

172
1
173
1
174
1
140
1.0
141
1.0
175
1
  7

176
1
177
1
178
1
143
1.0
179
1
  8

270
1
271
1
272
1
145
1.0
146
1.0
273
1
  9

274
1
275
1
276
1
 42
1.0
 72
1
  3

 73
1
 74
1
 75
1
 94
63
  0
MATERIAL
  5
20
102
{ACAD_REACTORS
330
E
102
}
330
E
100
AcDbMaterial
  1
ByLayer
  2

 70
0
 40
1.0
 71
1
 41
1.0
 91
-1023410177
 42
1.0
 72
1
  3

 73
1
 74
1
 75
1
 44
0.5
 73
0
 45
1.0
 46
1.0
 77
1
  4

 78
1
 79
1
170
1
 48
1.0
171
1
  6

172
1
173
1
174
1
140
1.0
141
1.0
175
1
  7

176
1
177
1
178
1
143
1.0
179
1
  8

270
1
271
1
272
1
145
1.0
146
1.0
273
1
  9

274
1
275
1
276
1
 42
1.0
 72
1
  3

 73
1
 74
1
 75
1
 94
63
  0
MATERIAL
  5
21
102
{ACAD_REACTORS
330
E
102
}
330
E
100
AcDbMaterial
  1
Global
  2

 70
0
 40
1.0
 71
1
 41
1.0
 91
-1023410177
 42
1.0
 72
1
  3

 73
1
 74
1
 75
1
 44
0.5
 73
0
 45
1.0
 46
1.0
 77
1
  4

 78
1
 79
1
170
1
 48
1.0
171
1
  6

172
1
173
1
174
1
140
1.0
141
1.0
175
1
  7

176
1
177
1
178
1
143
1.0
179
1
  8

270
1
271
1
272
1
145
1.0
146
1.0
273
1
  9

274
1
275
1
276
1
 42
1.0
 72
1
  3

 73
1
 74
1
 75
1
 94
63
  0
MLINESTYLE
  5
22
102
{ACAD_REACTORS
330
10
102
}
330
10
100
AcDbMlineStyle
  2
Standard
 70
0
  3

 62
256
 51
90.0
 52
90.0
 71
2
 49
0.5
 62
256
  6
BYLAYER
 49
-0.5
 62
256
  6
BYLAYER
  0
MLEADERSTYLE
  5
2C
102
{ACAD_REACTORS
330
F
102
}
330
F
100
AcDbMLeaderStyle
179
2
170
2
171
1
172
0
 90
2
 40
0.0
 41
0.0
173
1
 91
-1056964608
 92
-2
290
1
 42
2.0
291
1
 43
8.0
  3
Standard
 44
4.0
300

342
29
174
1
175
1
176
0
178
1
 93
-1056964608
 45
4.0
292
0
297
0
 46
4.0
 94
-1056964608
 47
1.0
 49
1.0
140
1.0
294
1
141
0.0
177
0
142
1.0
295
0
296
0
143
3.75
271
0
272
9
273
9
  0
DICTIONARY
  5
2D
330
A
100
AcDbDictionary
280
1
281
1
  3
CREATED_BY_EZDXF
350
2E
  3
WRITTEN_BY_EZDXF
350
179
  0
DICTIONARYVAR
  5
2E
330
2D
100
DictionaryVariables
280
0
  1
1.4.4 @ 2026-10-05T05:59:39.020890+00:00
  0
VISUALSTYLE
  5
5A
102
{ACAD_REACTORS
330
16
102
}
330
16
100
AcDbVisualStyle
  2
2dWireframe
 70
4
177
3
291
0
 70
58
 90
2
176
1
 90
2
176
1
 90
0
176
1
 90
0
176
1
 40
0.6
176
1
 40
30.0
176
1
 62
7
420
16777215
176
1
 90
1
176
1
 90
4
176
1
 62
7
176
1
 62
257
176
1
 90
1
176
1
 90
1
176
1
 40
1.0
176
1
 90
8
176
1
 62
7
176
1
 40
1.0
176
1
 90
1
176
1
 90
6
176
1
 90
2
176
1
 62
7
176
1
 90
5
176
1
 90
0
176
1
 90
0
176
1
290
0
176
1
 90
1
176
1
 40
0.0
176
1
 90
0
176
1
290
1
176
1
290
1
176
1
290
0
176
1
290
0
176
1
290
0
176
1
290
0
176
1
290
0
176
1
290
0
176
1
290
0
176
1
 90
50
176
1
 40
0.0
176
1
 40
1.0
176
1
 90
0
176
1
 62
18
420
0
176
1
 90
50
176
1
 90
3
176
1
 62
5
420
255
176
1
290
0
176
1
 90
50
176
1
 90
50
176
1
 90
50
176
1
290
0
176
1
 90
50
176
1
 62
256
176
0
 40
1.0
176
0
 90
2
176
1
  1
strokes_ogs.tif
176
1
290
0
176
1
 40
1.0
176
1
 40
1.0
176
1
  0
VISUALSTYLE
  5
5B
102
{ACAD_REACTORS
330
16
102
}
330
16
100
AcDbVisualStyle
  2
Basic
 70
7
177
3
291
1
 70
58
 90
2
176
1
 90
2
176
1
 90
0
176
1
 90
1
176
1
 40
0.6
176
1
 40
30.0
176
1
 62
7
420
16777215
176
1
 90
1
176
1
 90
4
176
1
 62
7
176
1
 62
257
176
1
 90
1
176
1
 90
1
176
1
 40
1.0
176
1
 90
8
176
1
 62
7
176
1
 40
1.0
176
1
 90
1
176
1
 90
6
176
1
 90
2
176
1
 62
7
176
1
 90
5
176
1
 90
0
176
1
 90
0
176
1
290
0
176
1
 90
1
176
1
 40
0.0
176
1
 90
0
176
1
290
0
176
1
290
1
176
1
290
1
176
1
290
0
176
1
290
0
176
1
290
0
176
1
290
0
176
1
290
0
176
1
290
0
176
1
 90
50
176
1
 40
0.0
176
1
 40
1.0
176
1
 90
0
176
1
 62
18
420
0
176
1
 90
50
176
1
 90
3
176
1
 62
5
420
255
176
1
290
0
176
1
 90
50
176
1
 90
50
176
1
 90
50
176
1
290
0
176
1
 90
50
176
1
 62
256
176
0
 40
1.0
176
0
 90
2
176
1
  1
strokes_ogs.tif
176
1
290
0
176
1
 40
1.0
176
1
 40
1.0
176
1
  0
VISUALSTYLE
  5
5C
102
{ACAD_REACTORS
330
16
102
}
330
16
100
AcDbVisualStyle
  2
Brighten
 70
12
177
3
291
1
 70
58
 90
2
176
1
 90
2
176
1
 90
0
176
1
 90
2
176
1
 40
0.6
176
1
 40
30.0
176
1
 62
7
420
16777215
176
1
 90
1
176
1
 90
4
176
1
 62
7
176
1
 62
257
176
1
 90
1
176
1
 90
1
176
1
 40
1.0
176
1
 90
8
176
1
 62
7
176
1
 40
1.0
176
1
 90
1
176
1
 90
6
176
1
 90
2
176
1
 62
7
176
1
 90
5
176
1
 90
0
176
1
 90
0
176
1
290
0
176
1
 90
1
176
1
 40
0.0
176
1
 90
0
176
1
290
0
176
1
290
1
176
1
290
1
176
1
290
0
176
1
290
0
176
1
290
0
176
1
290
0
176
1
290
0
176
1
290
0
176
1
 90
50
176
1
 40
0.0
176
1
 40
1.0
176
1
 90
0
176
1
 62
18
420
0
176
1
 90
50
176
1
 90
3
176
1
 62
5
420
255
176
1
290
0
176
1
 90
50
176
1
 90
50
176
1
 90
50
176
1
290
0
176
1
 90
50
176
1
 62
256
176
0
 40
1.0
176
0
 90
2
176
1
  1
strokes_ogs.tif
176
1
290
0
176
1
 40
1.0
176
1
 40
1.0
176
1
  0
VISUALSTYLE
  5
5D
102
{ACAD_REACTORS
330
16
102
}
330
16
100
AcDbVisualStyle
  2
ColorChange
 70
16
177
3
291
1
 70
58
 90
2
176
1
 90
2
176
1
 90
0
176
1
 90
2
176
1
 40
0.6
176
1
 40
30.0
176
1
 62
7
420
16777215
176
1
 90
1
176
1
 90
4
176
1
 62
7
176
1
 62
257
176
1
 90
1
176
1
 90
1
176
1
 40
1.0
176
1
 90
8
176
1
 62
7
176
1
 40
1.0
176
1
 90
1
176
1
 90
6
176
1
 90
2
176
1
 62
7
176
1
 90
5
176
1
 90
0
176
1
 90
0
176
1
290
0
176
1
 90
1
176
1
 40
0.0
176
1
 90
0
176
1
290
0
176
1
290
1
176
1
290
1
176
1
290
0
176
1
290
0
176
1
290
0
176
1
290
0
176
1
290
0
176
1
290
0
176
1
 90
50
176
1
 40
0.0
176
1
 40
1.0
176
1
 90
0
176
1
 62
18
420
0
176
1
 90
50
176
1
 90
3
176
1
 62
5
420
255
176
1
290
0
176
1
 90
50
176
1
 90
50
176
1
 90
50
176
1
290
0
176
1
 90
50
176
1
 62
256
176
0
 40
1.0
176
0
 90
2
176
1
  1
strokes_ogs.tif
176
1
290
0
176
1
 40
1.0
176
1
 40
1.0
176
1
  0
VISUALSTYLE
  5
5E
102
{ACAD_REACTORS
330
16
102
}
330
16
100
AcDbVisualStyle
  2
Conceptual
 70
9
177
3
291
0
 70
58
 90
2
176
1
 90
2
176
1
 90
0
176
1
 90
3
176
1
 40
0.6
176
1
 40
30.0
176
1
 62
7
420
16777215
176
1
 90
1
176
1
 90
4
176
1
 62
7
176
1
 62
257
176
1
 90
1
176
1
 90
1
176
1
 40
1.0
176
1
 90
8
176
1
 62
7
176
1
 40
1.0
176
1
 90
1
176
1
 90
6
176
1
 90
2
176
1
 62
7
176
1
 90
5
176
1
 90
0
176
1
 90
0
176
1
290
0
176
1
 90
1
176
1
 40
0.0
176
1
 90
0
176
1
290
0
176
1
290
1
176
1
290
1
176
1
290
0
176
1
290
0
176
1
290
0
176
1
290
0
176
1
290
0
176
1
290
0
176
1
 90
50
176
1
 40
0.0
176
1
 40
1.0
176
1
 90
0
176
1
 62
18
420
0
176
1
 90
50
176
1
 90
3
176
1
 62
5
420
255
176
1
290
0
176
1
 90
50
176
1
 90
50
176
1
 90
50
176
1
290
0
176
1
 90
50
176
1
 62
256
176
0
 40
1.0
176
0
 90
2
176
1
  1
strokes_ogs.tif
176
1
290
0
176
1
 40
1.0
176
1
 40
1.0
176
1
  0
VISUALSTYLE
  5
5F
102
{ACAD_REACTORS
330
16
102
}
330
16
100
AcDbVisualStyle
  2
Dim
 70
11
177
3
291
1
 70
58
 90
2
176
1
 90
2
176
1
 90
0
176
1
 90
2
176
1
 40
0.6
176
1
 40
30.0
176
1
 62
7
420
16777215
176
1
 90
1
176
1
 90
4
176
1
 62
7
176
1
 62
257
176
1
 90
1
176
1
 90
1
176
1
 40
1.0
176
1
 90
8
176
1
 62
7
176
1
 40
1.0
176
1
 90
1
176
1
 90
6
176
1
 90
2
176
1
 62
7
176
1
 90
5
176
1
 90
0
176
1
 90
0
176
1
290
0
176
1
 90
1
176
1
 40
0.0
176
1
 90
0
176
1
290
0
176
1
290
1
176
1
290
1
176
1
290
0
176
1
290
0
176
1
290
0
176
1
290
0
176
1
290
0
176
1
290
0
176
1
 90
50
176
1
 40
0.0
176
1
 40
1.0
176
1
 90
0
176
1
 62
18
420
0
176
1
 90
50
176
1
 90
3
176
1
 62
5
420
255
176
1
290
0
176
1
 90
50
176
1
 90
50
176
1
 90
50
176
1
290
0
176
1
 90
50
176
1
 62
256
176
0
 40
1.0
176
0
 90
2
176
1
  1
strokes_ogs.tif
176
1
290
0
176
1
 40
1.0
176
1
 40
1.0
176
1
  0
VISUALSTYLE
  5
60
102
{ACAD_REACTORS
330
16
102
}
330
16
100
AcDbVisualStyle
  2
EdgeColorOff
 70
22
177
3
291
1
 70
58
 90
2
176
1
 90
2
176
1
 90
0
176
1
 90
2
176
1
 40
0.6
176
1
 40
30.0
176
1
 62
7
420
16777215
176
1
 90
1
176
1
 90
4
176
1
 62
7
176
1
 62
257
176
1
 90
1
176
1
 90
1
176
1
 40
1.0
176
1
 90
8
176
1
 62
7
176
1
 40
1.0
176
1
 90
1
176
1
 90
6
176
1
 90
2
176
1
 62
7
176
1
 90
5
176
1
 90
0
176
1
 90
0
176
1
290
0
176
1
 90
1
176
1
 40
0.0
176
1
 90
0
176
1
290
0
176
1
290
1
176
1
290
1
176
1
290
0
176
1
290
0
176
1
290
0
176
1
290
0
176
1
290
0
176
1
290
0
176
1
 90
50
176
1
 40
0.0
176
1
 40
1.0
176
1
 90
0
176
1
 62
18
420
0
176
1
 90
50
176
1
 90
3
176
1
 62
5
420
255
176
1
290
0
176
1
 90
50
176
1
 90
50
176
1
 90
50
176
1
290
0
176
1
 90
50
176
1
 62
256
176
0
 40
1.0
176
0
 90
2
176
1
  1
strokes_ogs.tif
176
1
290
0
176
1
 40
1.0
176
1
 40
1.0
176
1
  0
VISUALSTYLE
  5
61
102
{ACAD_REACTORS
330
16
102
}
330
16
100
AcDbVisualStyle
  2
Facepattern
 70
15
177
3
291
1
 70
58
 90
2
176
1
 90
2
176
1
 90
0
176
1
 90
2
176
1
 40
0.6
176
1
 40
30.0
176
1
 62
7
420
16777215
176
1
 90
1
176
1
 90
4
176
1
 62
7
176
1
 62
257
176
1
 90
1
176
1
 90
1
176
1
 40
1.0
176
1
 90
8
176
1
 62
7
176
1
 40
1.0
176
1
 90
1
176
1
 90
6
176
1
 90
2
176
1
 62
7
176
1
 90
5
176
1
 90
0
176
1
 90
0
176
1
290
0
176
1
 90
1
176
1
 40
0.0
176
1
 90
0
176
1
290
0
176
1
290
1
176
1
290
1
176
1
290
0
176
1
290
0
176
1
290
0
176
1
290
0
176
1
290
0
176
1
290
0
176
1
 90
50
176
1
 40
0.0
176
1
 40
1.0
176
1
 90
0
176
1
 62
18
420
0
176
1
 90
50
176
1
 90
3
176
1
 62
5
420
255
176
1
290
0
176
1
 90
50
176
1
 90
50
176
1
 90
50
176
1
290
0
176
1
 90
50
176
1
 62
256
176
0
 40
1.0
176
0
 90
2
176
1
  1
strokes_ogs.tif
176
1
290
0
176
1
 40
1.0
176
1
 40
1.0
176
1
  0
VISUALSTYLE
  5
62
102
{ACAD_REACTORS
330
16
102
}
330
16
100
AcDbVisualStyle
  2
Flat
 70
0
177
3
291
1
 70
58
 90
2
176
1
 90
2
176
1
 90
0
176
1
 90
2
176
1
 40
0.6
176
1
 40
30.0
176
1
 62
7
420
16777215
176
1
 90
1
176
1
 90
4
176
1
 62
7
176
1
 62
257
176
1
 90
1
176
1
 90
1
176
1
 40
1.0
176
1
 90
8
176
1
 62
7
176
1
 40
1.0
176
1
 90
1
176
1
 90
6
176
1
 90
2
176
1
 62
7
176
1
 90
5
176
1
 90
0
176
1
 90
0
176
1
290
0
176
1
 90
1
176
1
 40
0.0
176
1
 90
0
176
1
290
0
176
1
290
1
176
1
290
1
176
1
290
0
176
1
290
0
176
1
290
0
176
1
290
0
176
1
290
0
176
1
290
0
176
1
 90
50
176
1
 40
0.0
176
1
 40
1.0
176
1
 90
0
176
1
 62
18
420
0
176
1
 90
50
176
1
 90
3
176
1
 62
5
420
255
176
1
290
0
176
1
 90
50
176
1
 90
50
176
1
 90
50
176
1
290
0
176
1
 90
50
176
1
 62
256
176
0
 40
1.0
176
0
 90
2
176
1
  1
strokes_ogs.tif
176
1
290
0
176
1
 40
1.0
176
1
 40
1.0
176
1
  0
VISUALSTYLE
  5
63
102
{ACAD_REACTORS
330
16
102
}
330
16
100
AcDbVisualStyle
  2
FlatWithEdges
 70
1
177
3
291
1
 70
58
 90
2
176
1
 90
2
176
1
 90
0
176
1
 90
2
176
1
 40
0.6
176
1
 40
30.0
176
1
 62
7
420
16777215
176
1
 90
1
176
1
 90
4
176
1
 62
7
176
1
 62
257
176
1
 90
1
176
1
 90
1
176
1
 40
1.0
176
1
 90
8
176
1
 62
7
176
1
 40
1.0
176
1
 90
1
176
1
 90
6
176
1
 90
2
176
1
 62
7
176
1
 90
5
176
1
 90
0
176
1
 90
0
176
1
290
0
176
1
 90
1
176
1
 40
0.0
176
1
 90
0
176
1
290
0
176
1
290
1
176
1
290
1
176
1
290
0
176
1
290
0
176
1
290
0
176
1
290
0
176
1
290
0
176
1
290
0
176
1
 90
50
176
1
 40
0.0
176
1
 40
1.0
176
1
 90
0
176
1
 62
18
420
0
176
1
 90
50
176
1
 90
3
176
1
 62
5
420
255
176
1
290
0
176
1
 90
50
176
1
 90
50
176
1
 90
50
176
1
290
0
176
1
 90
50
176
1
 62
256
176
0
 40
1.0
176
0
 90
2
176
1
  1
strokes_ogs.tif
176
1
290
0
176
1
 40
1.0
176
1
 40
1.0
176
1
  0
VISUALSTYLE
  5
64
102
{ACAD_REACTORS
330
16
102
}
330
16
100
AcDbVisualStyle
  2
Gouraud
 70
2
177
3
291
1
 70
58
 90
2
176
1
 90
2
176
1
 90
0
176
1
 90
2
176
1
 40
0.6
176
1
 40
30.0
176
1
 62
7
420
16777215
176
1
 90
1
176
1
 90
4
176
1
 62
7
176
1
 62
257
176
1
 90
1
176
1
 90
1
176
1
 40
1.0
176
1
 90
8
176
1
 62
7
176
1
 40
1.0
176
1
 90
1
176
1
 90
6
176
1
 90
2
176
1
 62
7
176
1
 90
5
176
1
 90
0
176
1
 90
0
176
1
290
0
176
1
 90
1
176
1
 40
0.0
176
1
 90
0
176
1
290
0
176
1
290
1
176
1
290
1
176
1
290
0
176
1
290
0
176
1
290
0
176
1
290
0
176
1
290
0
176
1
290
0
176
1
 90
50
176
1
 40
0.0
176
1
 40
1.0
176
1
 90
0
176
1
 62
18
420
0
176
1
 90
50
176
1
 90
3
176
1
 62
5
420
255
176
1
290
0
176
1
 90
50
176
1
 90
50
176
1
 90
50
176
1
290
0
176
1
 90
50
176
1
 62
256
176
0
 40
1.0
176
0
 90
2
176
1
  1
strokes_ogs.tif
176
1
290
0
176
1
 40
1.0
176
1
 40
1.0
176
1
  0
VISUALSTYLE
  5
65
102
{ACAD_REACTORS
330
16
102
}
330
16
100
AcDbVisualStyle
  2
GouraudWithEdges
 70
3
177
3
291
1
 70
58
 90
2
176
1
 90
2
176
1
 90
0
176
1
 90
2
176
1
 40
0.6
176
1
 40
30.0
176
1
 62
7
420
16777215
176
1
 90
1
176
1
 90
4
176
1
 62
7
176
1
 62
257
176
1
 90
1
176
1
 90
1
176
1
 40
1.0
176
1
 90
8
176
1
 62
7
176
1
 40
1.0
176
1
 90
1
176
1
 90
6
176
1
 90
2
176
1
 62
7
176
1
 90
5
176
1
 90
0
176
1
 90
0
176
1
290
0
176
1
 90
1
176
1
 40
0.0
176
1
 90
0
176
1
290
0
176
1
290
1
176
1
290
1
176
1
290
0
176
1
290
0
176
1
290
0
176
1
290
0
176
1
290
0
176
1
290
0
176
1
 90
50
176
1
 40
0.0
176
1
 40
1.0
176
1
 90
0
176
1
 62
18
420
0
176
1
 90
50
176
1
 90
3
176
1
 62
5
420
255
176
1
290
0
176
1
 90
50
176
1
 90
50
176
1
 90
50
176
1
290
0
176
1
 90
50
176
1
 62
256
176
0
 40
1.0
176
0
 90
2
176
1
  1
strokes_ogs.tif
176
1
290
0
176
1
 40
1.0
176
1
 40
1.0
176
1
  0
VISUALSTYLE
  5
66
102
{ACAD_REACTORS
330
16
102
}
330
16
100
AcDbVisualStyle
  2
Hidden
 70
6
177
3
291
0
 70
58
 90
2
176
1
 90
2
176
1
 90
0
176
1
 90
1
176
1
 40
0.6
176
1
 40
30.0
176
1
 62
7
420
16777215
176
1
 90
1
176
1
 90
4
176
1
 62
7
176
1
 62
257
176
1
 90
1
176
1
 90
1
176
1
 40
1.0
176
1
 90
8
176
1
 62
7
176
1
 40
1.0
176
1
 90
1
176
1
 90
6
176
1
 90
2
176
1
 62
7
176
1
 90
5
176
1
 90
0
176
1
 90
0
176
1
290
0
176
1
 90
1
176
1
 40
0.0
176
1
 90
0
176
1
290
0
176
1
290
1
176
1
290
1
176
1
290
0
176
1
290
0
176
1
290
0
176
1
290
0
176
1
290
0
176
1
290
0
176
1
 90
50
176
1
 40
0.0
176
1
 40
1.0
176
1
 90
0
176
1
 62
18
420
0
176
1
 90
50
176
1
 90
3
176
1
 62
5
420
255
176
1
290
0
176
1
 90
50
176
1
 90
50
176
1
 90
50
176
1
290
0
176
1
 90
50
176
1
 62
256
176
0
 40
1.0
176
0
 90
2
176
1
  1
strokes_ogs.tif
176
1
290
0
176
1
 40
1.0
176
1
 40
1.0
176
1
  0
VISUALSTYLE
  5
67
102
{ACAD_REACTORS
330
16
102
}
330
16
100
AcDbVisualStyle
  2
JitterOff
 70
20
177
3
291
1
 70
58
 90
2
176
1
 90
2
176
1
 90
0
176
1
 90
2
176
1
 40
0.6
176
1
 40
30.0
176
1
 62
7
420
16777215
176
1
 90
1
176
1
 90
4
176
1
 62
7
176
1
 62
257
176
1
 90
1
176
1
 90
1
176
1
 40
1.0
176
1
 90
8
176
1
 62
7
176
1
 40
1.0
176
1
 90
1
176
1
 90
6
176
1
 90
2
176
1
 62
7
176
1
 90
5
176
1
 90
0
176
1
 90
0
176
1
290
0
176
1
 90
1
176
1
 40
0.0
176
1
 90
0
176
1
290
0
176
1
290
1
176
1
290
1
176
1
290
0
176
1
290
0
176
1
290
0
176
1
290
0
176
1
290
0
176
1
290
0
176
1
 90
50
176
1
 40
0.0
176
1
 40
1.0
176
1
 90
0
176
1
 62
18
420
0
176
1
 90
50
176
1
 90
3
176
1
 62
5
420
255
176
1
290
0
176
1
 90
50
176
1
 90
50
176
1
 90
50
176
1
290
0
176
1
 90
50
176
1
 62
256
176
0
 40
1.0
176
0
 90
2
176
1
  1
strokes_ogs.tif
176
1
290
0
176
1
 40
1.0
176
1
 40
1.0
176
1
  0
VISUALSTYLE
  5
68
102
{ACAD_REACTORS
330
16
102
}
330
16
100
AcDbVisualStyle
  2
Linepattern
 70
14
177
3
291
1
 70
58
 90
2
176
1
 90
2
176
1
 90
0
176
1
 90
2
176
1
 40
0.6
176
1
 40
30.0
176
1
 62
7
420
16777215
176
1
 90
1
176
1
 90
4
176
1
 62
7
176
1
 62
257
176
1
 90
1
176
1
 90
1
176
1
 40
1.0
176
1
 90
8
176
1
 62
7
176
1
 40
1.0
176
1
 90
1
176
1
 90
6
176
1
 90
2
176
1
 62
7
176
1
 90
5
176
1
 90
0
176
1
 90
0
176
1
290
0
176
1
 90
1
176
1
 40
0.0
176
1
 90
0
176
1
290
0
176
1
290
1
176
1
290
1
176
1
290
0
176
1
290
0
176
1
290
0
176
1
290
0
176
1
290
0
176
1
290
0
176
1
 90
50
176
1
 40
0.0
176
1
 40
1.0
176
1
 90
0
176
1
 62
18
420
0
176
1
 90
50
176
1
 90
3
176
1
 62
5
420
255
176
1
290
0
176
1
 90
50
176
1
 90
50
176
1
 90
50
176
1
290
0
176
1
 90
50
176
1
 62
256
176
0
 40
1.0
176
0
 90
2
176
1
  1
strokes_ogs.tif
176
1
290
0
176
1
 40
1.0
176
1
 40
1.0
176
1
  0
VISUALSTYLE
  5
69
102
{ACAD_REACTORS
330
16
102
}
330
16
100
AcDbVisualStyle
  2
Modeling
 70
10
177
3
291
0
 70
58
 90
2
176
1
 90
2
176
1
 90
0
176
1
 90
2
176
1
 40
0.6
176
1
 40
30.0
176
1
 62
7
420
16777215
176
1
 90
1
176
1
 90
4
176
1
 62
7
176
1
 62
257
176
1
 90
1
176
1
 90
1
176
1
 40
1.0
176
1
 90
8
176
1
 62
7
176
1
 40
1.0
176
1
 90
1
176
1
 90
6
176
1
 90
2
176
1
 62
7
176
1
 90
5
176
1
 90
0
176
1
 90
0
176
1
290
0
176
1
 90
1
176
1
 40
0.0
176
1
 90
0
176
1
290
0
176
1
290
1
176
1
290
1
176
1
290
0
176
1
290
0
176
1
290
0
176
1
290
0
176
1
290
0
176
1
290
0
176
1
 90
50
176
1
 40
0.0
176
1
 40
1.0
176
1
 90
0
176
1
 62
18
420
0
176
1
 90
50
176
1
 90
3
176
1
 62
5
420
255
176
1
290
0
176
1
 90
50
176
1
 90
50
176
1
 90
50
176
1
290
0
176
1
 90
50
176
1
 62
256
176
0
 40
1.0
176
0
 90
2
176
1
  1
strokes_ogs.tif
176
1
290
0
176
1
 40
1.0
176
1
 40
1.0
176
1
  0
VISUALSTYLE
  5
6A
102
{ACAD_REACTORS
330
16
102
}
330
16
100
AcDbVisualStyle
  2
OverhangOff
 70
21
177
3
291
1
 70
58
 90
2
176
1
 90
2
176
1
 90
0
176
1
 90
2
176
1
 40
0.6
176
1
 40
30.0
176
1
 62
7
420
16777215
176
1
 90
1
176
1
 90
4
176
1
 62
7
176
1
 62
257
176
1
 90
1
176
1
 90
1
176
1
 40
1.0
176
1
 90
8
176
1
 62
7
176
1
 40
1.0
176
1
 90
1
176
1
 90
6
176
1
 90
2
176
1
 62
7
176
1
 90
5
176
1
 90
0
176
1
 90
0
176
1
290
0
176
1
 90
1
176
1
 40
0.0
176
1
 90
0
176
1
290
0
176
1
290
1
176
1
290
1
176
1
290
0
176
1
290
0
176
1
290
0
176
1
290
0
176
1
290
0
176
1
290
0
176
1
 90
50
176
1
 40
0.0
176
1
 40
1.0
176
1
 90
0
176
1
 62
18
420
0
176
1
 90
50
176
1
 90
3
176
1
 62
5
420
255
176
1
290
0
176
1
 90
50
176
1
 90
50
176
1
 90
50
176
1
290
0
176
1
 90
50
176
1
 62
256
176
0
 40
1.0
176
0
 90
2
176
1
  1
strokes_ogs.tif
176
1
290
0
176
1
 40
1.0
176
1
 40
1.0
176
1
  0
VISUALSTYLE
  5
6B
102
{ACAD_REACTORS
330
16
102
}
330
16
100
AcDbVisualStyle
  2
Realistic
 70
8
177
3
291
0
 70
58
 90
2
176
1
 90
2
176
1
 90
0
176
1
 90
2
176
1
 40
0.6
176
1
 40
30.0
176
1
 62
7
420
16777215
176
1
 90
1
176
1
 90
4
176
1
 62
7
176
1
 62
257
176
1
 90
1
176
1
 90
1
176
1
 40
1.0
176
1
 90
8
176
1
 62
7
176
1
 40
1.0
176
1
 90
1
176
1
 90
6
176
1
 90
2
176
1
 62
7
176
1
 90
5
176
1
 90
0
176
1
 90
0
176
1
290
0
176
1
 90
1
176
1
 40
0.0
176
1
 90
0
176
1
290
0
176
1
290
1
176
1
290
1
176
1
290
0
176
1
290
0
176
1
290
0
176
1
290
0
176
1
290
0
176
1
290
0
176
1
 90
50
176
1
 40
0.0
176
1
 40
1.0
176
1
 90
0
176
1
 62
18
420
0
176
1
 90
50
176
1
 90
3
176
1
 62
5
420
255
176
1
290
0
176
1
 90
50
176
1
 90
50
176
1
 90
50
176
1
290
0
176
1
 90
50
176
1
 62
256
176
0
 40
1.0
176
0
 90
2
176
1
  1
strokes_ogs.tif
176
1
290
0
176
1
 40
1.0
176
1
 40
1.0
176
1
  0
VISUALSTYLE
  5
6C
102
{ACAD_REACTORS
330
16
102
}
330
16
100
AcDbVisualStyle
  2
Shaded
 70
27
177
3
291
0
 70
58
 90
2
176
1
 90
2
176
1
 90
0
176
1
 90
2
176
1
 40
0.6
176
1
 40
30.0
176
1
 62
7
420
16777215
176
1
 90
1
176
1
 90
4
176
1
 62
7
176
1
 62
257
176
1
 90
1
176
1
 90
1
176
1
 40
1.0
176
1
 90
8
176
1
 62
7
176
1
 40
1.0
176
1
 90
1
176
1
 90
6
176
1
 90
2
176
1
 62
7
176
1
 90
5
176
1
 90
0
176
1
 90
0
176
1
290
0
176
1
 90
1
176
1
 40
0.0
176
1
 90
0
176
1
290
0
176
1
290
1
176
1
290
1
176
1
290
0
176
1
290
0
176
1
290
0
176
1
290
0
176
1
290
0
176
1
290
0
176
1
 90
50
176
1
 40
0.0
176
1
 40
1.0
176
1
 90
0
176
1
 62
18
420
0
176
1
 90
50
176
1
 90
3
176
1
 62
5
420
255
176
1
290
0
176
1
 90
50
176
1
 90
50
176
1
 90
50
176
1
290
0
176
1
 90
50
176
1
 62
256
176
0
 40
1.0
176
0
 90
2
176
1
  1
strokes_ogs.tif
176
1
290
0
176
1
 40
1.0
176
1
 40
1.0
176
1
  0
VISUALSTYLE
  5
6D
102
{ACAD_REACTORS
330
16
102
}
330
16
100
AcDbVisualStyle
  2
Shaded with edges
 70
26
177
3
291
0
 70
58
 90
2
176
1
 90
2
176
1
 90
0
176
1
 90
2
176
1
 40
0.6
176
1
 40
30.0
176
1
 62
7
420
16777215
176
1
 90
1
176
1
 90
4
176
1
 62
7
176
1
 62
257
176
1
 90
1
176
1
 90
1
176
1
 40
1.0
176
1
 90
8
176
1
 62
7
176
1
 40
1.0
176
1
 90
1
176
1
 90
6
176
1
 90
2
176
1
 62
7
176
1
 90
5
176
1
 90
0
176
1
 90
0
176
1
290
0
176
1
 90
1
176
1
 40
0.0
176
1
 90
0
176
1
290
0
176
1
290
1
176
1
290
1
176
1
290
0
176
1
290
0
176
1
290
0
176
1
290
0
176
1
290
0
176
1
290
0
176
1
 90
50
176
1
 40
0.0
176
1
 40
1.0
176
1
 90
0
176
1
 62
18
420
0
176
1
 90
50
176
1
 90
3
176
1
 62
5
420
255
176
1
290
0
176
1
 90
50
176
1
 90
50
176
1
 90
50
176
1
290
0
176
1
 90
50
176
1
 62
256
176
0
 40
1.0
176
0
 90
2
176
1
  1
strokes_ogs.tif
176
1
290
0
176
1
 40
1.0
176
1
 40
1.0
176
1
  0
VISUALSTYLE
  5
6E
102
{ACAD_REACTORS
330
16
102
}
330
16
100
AcDbVisualStyle
  2
Shades of Gray
 70
23
177
3
291
0
 70
58
 90
2
176
1
 90
2
176
1
 90
0
176
1
 90
2
176
1
 40
0.6
176
1
 40
30.0
176
1
 62
7
420
16777215
176
1
 90
1
176
1
 90
4
176
1
 62
7
176
1
 62
257
176
1
 90
1
176
1
 90
1
176
1
 40
1.0
176
1
 90
8
176
1
 62
7
176
1
 40
1.0
176
1
 90
1
176
1
 90
6
176
1
 90
2
176
1
 62
7
176
1
 90
5
176
1
 90
0
176
1
 90
0
176
1
290
0
176
1
 90
1
176
1
 40
0.0
176
1
 90
0
176
1
290
0
176
1
290
1
176
1
290
1
176
1
290
0
176
1
290
0
176
1
290
0
176
1
290
0
176
1
290
0
176
1
290
0
176
1
 90
50
176
1
 40
0.0
176
1
 40
1.0
176
1
 90
0
176
1
 62
18
420
0
176
1
 90
50
176
1
 90
3
176
1
 62
5
420
255
176
1
290
0
176
1
 90
50
176
1
 90
50
176
1
 90
50
176
1
290
0
176
1
 90
50
176
1
 62
256
176
0
 40
1.0
176
0
 90
2
176
1
  1
strokes_ogs.tif
176
1
290
0
176
1
 40
1.0
176
1
 40
1.0
176
1
  0
VISUALSTYLE
  5
6F
102
{ACAD_REACTORS
330
16
102
}
330
16
100
AcDbVisualStyle
  2
Sketchy
 70
24
177
3
291
0
 70
58
 90
2
176
1
 90
2
176
1
 90
0
176
1
 90
1
176
1
 40
0.6
176
1
 40
30.0
176
1
 62
7
420
16777215
176
1
 90
1
176
1
 90
4
176
1
 62
7
176
1
 62
257
176
1
 90
1
176
1
 90
1
176
1
 40
1.0
176
1
 90
8
176
1
 62
7
176
1
 40
1.0
176
1
 90
1
176
1
 90
6
176
1
 90
2
176
1
 62
7
176
1
 90
5
176
1
 90
0
176
1
 90
0
176
1
290
0
176
1
 90
1
176
1
 40
0.0
176
1
 90
0
176
1
290
0
176
1
290
1
176
1
290
1
176
1
290
0
176
1
290
0
176
1
290
0
176
1
290
0
176
1
290
0
176
1
290
0
176
1
 90
50
176
1
 40
0.0
176
1
 40
1.0
176
1
 90
0
176
1
 62
18
420
0
176
1
 90
50
176
1
 90
3
176
1
 62
5
420
255
176
1
290
0
176
1
 90
50
176
1
 90
50
176
1
 90
50
176
1
290
0
176
1
 90
50
176
1
 62
256
176
0
 40
1.0
176
0
 90
2
176
1
  1
strokes_ogs.tif
176
1
290
0
176
1
 40
1.0
176
1
 40
1.0
176
1
  0
VISUALSTYLE
  5
70
102
{ACAD_REACTORS
330
16
102
}
330
16
100
AcDbVisualStyle
  2
Thicken
 70
13
177
3
291
1
 70
58
 90
2
176
1
 90
2
176
1
 90
0
176
1
 90
2
176
1
 40
0.6
176
1
 40
30.0
176
1
 62
7
420
16777215
176
1
 90
1
176
1
 90
4
176
1
 62
7
176
1
 62
257
176
1
 90
1
176
1
 90
1
176
1
 40
1.0
176
1
 90
8
176
1
 62
7
176
1
 40
1.0
176
1
 90
1
176
1
 90
6
176
1
 90
2
176
1
 62
7
176
1
 90
5
176
1
 90
0
176
1
 90
0
176
1
290
0
176
1
 90
1
176
1
 40
0.0
176
1
 90
0
176
1
290
0
176
1
290
1
176
1
290
1
176
1
290
0
176
1
290
0
176
1
290
0
176
1
290
0
176
1
290
0
176
1
290
0
176
1
 90
50
176
1
 40
0.0
176
1
 40
1.0
176
1
 90
0
176
1
 62
18
420
0
176
1
 90
50
176
1
 90
3
176
1
 62
5
420
255
176
1
290
0
176
1
 90
50
176
1
 90
50
176
1
 90
50
176
1
290
0
176
1
 90
50
176
1
 62
256
176
0
 40
1.0
176
0
 90
2
176
1
  1
strokes_ogs.tif
176
1
290
0
176
1
 40
1.0
176
1
 40
1.0
176
1
  0
VISUALSTYLE
  5
71
102
{ACAD_REACTORS
330
16
102
}
330
16
100
AcDbVisualStyle
  2
Wireframe
 70
5
177
3
291
0
 70
58
 90
2
176
1
 90
2
176
1
 90
0
176
1
 90
0
176
1
 40
0.6
176
1
 40
30.0
176
1
 62
7
420
16777215
176
1
 90
1
176
1
 90
4
176
1
 62
7
176
1
 62
257
176
1
 90
1
176
1
 90
1
176
1
 40
1.0
176
1
 90
8
176
1
 62
7
176
1
 40
1.0
176
1
 90
1
176
1
 90
6
176
1
 90
2
176
1
 62
7
176
1
 90
5
176
1
 90
0
176
1
 90
0
176
1
290
0
176
1
 90
1
176
1
 40
0.0
176
1
 90
0
176
1
290
0
176
1
290
1
176
1
290
1
176
1
290
0
176
1
290
0
176
1
290
0
176
1
290
0
176
1
290
0
176
1
290
0
176
1
 90
50
176
1
 40
0.0
176
1
 40
1.0
176
1
 90
0
176
1
 62
18
420
0
176
1
 90
50
176
1
 90
3
176
1
 62
5
420
255
176
1
290
0
176
1
 90
50
176
1
 90
50
176
1
 90
50
176
1
290
0
176
1
 90
50
176
1
 62
256
176
0
 40
1.0
176
0
 90
2
176
1
  1
strokes_ogs.tif
176
1
290
0
176
1
 40
1.0
176
1
 40
1.0
176
1
  0
VISUALSTYLE
  5
72
102
{ACAD_REACTORS
330
16
102
}
330
16
100
AcDbVisualStyle
  2
X-Ray
 70
25
177
3
291
0
 70
58
 90
2
176
1
 90
2
176
1
 90
0
176
1
 90
2
176
1
 40
0.5
176
1
 40
30.0
176
1
 62
7
420
16777215
176
1
 90
1
176
1
 90
4
176
1
 62
7
176
1
 62
257
176
1
 90
1
176
1
 90
1
176
1
 40
1.0
176
1
 90
8
176
1
 62
7
176
1
 40
1.0
176
1
 90
1
176
1
 90
6
176
1
 90
2
176
1
 62
7
176
1
 90
5
176
1
 90
0
176
1
 90
0
176
1
290
0
176
1
 90
1
176
1
 40
0.0
176
1
 90
0
176
1
290
0
176
1
290
1
176
1
290
1
176
1
290
0
176
1
290
0
176
1
290
0
176
1
290
0
176
1
290
0
176
1
290
0
176
1
 90
50
176
1
 40
0.0
176
1
 40
1.0
176
1
 90
0
176
1
 62
18
420
0
176
1
 90
50
176
1
 90
3
176
1
 62
5
420
255
176
1
290
0
176
1
 90
50
176
1
 90
50
176
1
 90
50
176
1
290
0
176
1
 90
50
176
1
 62
256
176
0
 40
1.0
176
0
 90
2
176
1
  1
strokes_ogs.tif
176
1
290
0
176
1
 40
1.0
176
1
 40
1.0
176
1
  0
DICTIONARYVAR
  5
179
330
2D
100
DictionaryVariables
280
0
  1
1.4.4 @ 2026-10-05T06:00:57.309441+00:00
  0
ENDSEC
  0
EOF
